<svg width="48" height="48" viewBox="0 0 48 48" fill="none" xmlns="http://www.w3.org/2000/svg">
<path d="M25.6963 4.05461C25.1214 4 24.5767 4 24.0015 4H23.9441V16.5004H25.1218C25.6969 16.5004 26.1576 16.0397 26.1576 15.4966V4.11285C26.0123 4.08827 25.8416 4.08827 25.6963 4.05461ZM23.9439 44V30.7246H24.3755V25.3791C24.3755 24.891 24.7784 24.5158 25.2665 24.5158H29.7198C30.2099 24.5158 30.6107 24.1164 30.6107 23.6249V29.834C30.6107 30.2917 30.2383 30.6945 29.8072 30.7252H26.1574V39.4588C33.686 38.3682 39.4893 31.8997 39.4893 24.0585C39.4893 17.8492 35.8403 12.5039 30.6101 10.0064V22.7329L30.5825 22.8778V22.9359L30.5535 23.0213L30.4954 23.1372V23.1676C30.3505 23.4268 30.0944 23.5979 29.806 23.6253H25.2058C24.7482 23.6557 24.3743 24.0311 24.3743 24.5162V18.2824C24.3743 17.7942 24.7772 17.3881 25.2653 17.3881H27.5935C27.9945 17.3637 28.3409 17.0189 28.3687 16.586V4.46069C37.3342 6.4715 43.9996 14.4589 43.9996 23.9999C43.9996 35.033 35.0628 44 24.0011 44H23.9439ZM23.9439 4C23.3977 4 22.851 4.02741 22.3329 4.05461C22.1346 4.08827 21.9042 4.08827 21.7035 4.11265V15.4964C21.7035 16.0395 22.1616 16.5002 22.7355 16.5002H23.9439V4ZM23.9439 30.7246V44C12.9074 43.9389 4 35.0023 4 23.9999C4 14.4898 10.612 6.55674 19.4888 4.48809V16.586C19.519 17.0189 19.8624 17.3637 20.2941 17.3881H22.5931C23.083 17.3881 23.4826 17.7942 23.4826 18.2824V24.516C23.4826 24.0309 23.1394 23.6555 22.6785 23.6251H18.0805C17.7659 23.5975 17.5066 23.4268 17.3623 23.1674V23.1372L17.3059 23.0213V22.9359L17.2756 22.8778V10.0062C12.0183 12.5033 8.39787 17.849 8.39787 24.0581C8.39787 31.8995 14.1752 38.3678 21.7029 39.4584V30.7244H18.0805C17.6198 30.6941 17.275 30.2915 17.275 29.8336V23.6245C17.275 24.1158 17.6793 24.5154 18.1676 24.5154H22.5933C23.0832 24.5154 23.4828 24.8906 23.4828 25.3787V30.7244L23.9439 30.7246Z" fill="#0E947E"/>
</svg>
