<svg width="48" height="48" viewBox="0 0 48 48" fill="none" xmlns="http://www.w3.org/2000/svg">
<path d="M11.0271 11.0206C13.3935 8.6568 16.189 6.98734 19.162 6H6L6.00129 19.1491C6.98864 16.1774 8.66067 13.3844 11.0271 11.0206Z" fill="#D7000F"/>
<path d="M37.1633 23.5334C39.4052 21.7052 40.8333 18.9432 40.8333 15.8502C40.8333 12.077 38.7043 8.79554 35.3758 7.1035C33.8915 6.48593 31.9633 6 29.8505 6C19.777 6 12.1396 13.0224 12.1396 20.5107C12.1396 25.1964 15.9393 28.9942 20.6282 28.9942C24.6531 28.9942 28.0165 26.1954 28.8909 22.4409C29.1884 22.3396 29.391 22.8675 29.1761 24.0432L29.1619 24.1323C29.0219 24.7176 28.8373 25.29 28.5986 25.8385C28.5482 25.9495 28.5063 26.1915 28.4766 26.258C28.1101 27.0808 27.6209 27.8848 27.0737 28.4708C26.973 28.5624 27.0853 28.6024 27.1589 28.5786C27.286 28.5398 27.4467 28.4308 27.6183 28.2443C29.1665 26.5206 30.108 24.2459 30.108 21.7478C30.108 21.4503 30.0873 21.1599 30.057 20.8721L30.0422 20.736C30.4094 20.1229 31.2663 22.2092 30.7959 25.5042C30.7798 25.6178 30.8882 25.5688 30.9437 25.5113C31.1921 25.2571 31.2386 25.9534 31.1011 26.3477C30.2241 29.6614 27.9616 32.4053 24.9751 33.9431C24.908 34.0883 25.1784 34.2432 26.1244 33.7921C27.2273 33.2288 28.718 32.1446 30.0822 30.3842C31.1444 29.0122 31.6206 27.7519 31.8258 26.8562C31.8652 26.6729 32.0943 26.7407 32.0465 27.0227L31.9755 27.4221L31.9717 27.4564L31.9459 27.5596C31.891 27.8261 31.8271 28.0888 31.7516 28.3475L31.6748 28.5908C31.5955 28.8361 31.4754 29.0793 31.3799 29.3175L31.336 29.4239C30.5294 31.3535 29.1316 32.9906 27.4009 34.1245C27.3228 34.2897 27.5519 34.3194 28.1662 33.9735C28.6315 33.7108 29.5291 32.9493 29.7931 32.6809C30.5649 32.0117 31.1921 31.1334 31.6923 30.2332C31.8258 29.9596 32.0401 30.0867 31.9207 30.4352C31.6374 31.2515 30.7075 32.7583 29.3807 33.8573C26.6458 36.0759 23.1637 37.4118 19.364 37.4118C13.7568 37.4105 8.83297 34.5084 6 30.128V41.9994H31.9859C37.5253 41.9503 42 37.5073 42 32.0356C42 28.4379 40.0653 25.2829 37.1633 23.5334Z" fill="#003E7E"/>
</svg>
