<svg width="48" height="48" viewBox="0 0 48 48" fill="none" xmlns="http://www.w3.org/2000/svg">
<g clip-path="url(#clip0_538_13934)">
<path fill-rule="evenodd" clip-rule="evenodd" d="M41.529 29.7468C41.213 26.7458 41.116 23.7658 41.098 20.7498C41.082 18.3118 41.208 16.1278 41.547 14.4798C41.801 13.2358 42.016 12.5518 42.078 12.3798C42.149 12.1898 42.191 11.9608 41.72 11.9798L35.992 12.2278L37.353 8.41783C37.536 7.95883 37.536 7.75883 37.425 7.66183C37.263 7.52583 36.8 7.59583 36.589 7.62383C34.443 7.91583 34.53 7.86783 32.34 8.01083C32.843 6.76183 33.35 5.75383 33.861 4.50783C34.024 4.10583 33.99 3.96083 33.555 4.00883C30.413 4.34483 27.225 4.51983 24.004 4.51983C20.773 4.51983 17.585 4.34483 14.444 4.00883C14.01 3.96083 13.982 4.10583 14.143 4.50783C14.651 5.75383 15.157 6.76183 15.658 8.01083C13.469 7.86783 13.555 7.91583 11.414 7.62283C11.202 7.59383 10.736 7.52383 10.573 7.66083C10.462 7.75783 10.462 7.95783 10.648 8.41683L12.006 12.2268L6.281 11.9788C5.807 11.9598 5.856 12.1888 5.923 12.3788C5.985 12.5508 6.204 13.2348 6.457 14.4788C6.792 16.1268 6.916 18.3108 6.902 20.7488C6.882 23.7648 6.787 26.7448 6.472 29.7458C5.965 34.5838 5.057 39.8128 4 44.0198H20.066C20.702 41.8578 20.83 40.3228 21.008 38.0628H26.994C27.17 40.3228 27.304 41.8578 27.935 44.0198H44.001C42.943 39.8128 42.035 34.5838 41.529 29.7468ZM26.973 34.0638H21.03L21.016 27.9728H26.982L26.973 34.0638ZM31.649 39.6608C31.218 38.7088 31.093 34.9348 31.093 33.8058V24.0388H16.906V33.8058C16.906 34.9358 16.781 38.7088 16.352 39.6608H10.52C11.486 33.2668 11.941 29.1208 11.988 24.8278V22.8348C12.012 20.7398 11.941 18.6078 11.782 16.1708H19.248C19.349 16.1708 19.33 16.0618 19.301 15.9938L17.742 12.2788C17.575 11.8878 17.517 11.9538 17.958 11.9598H30.041C30.481 11.9538 30.426 11.8878 30.257 12.2788L28.699 15.9938C28.675 16.0618 28.656 16.1708 28.751 16.1708H36.219C36.06 18.6078 35.989 20.7398 36.013 22.8348V24.8278C36.06 29.1208 36.515 33.2668 37.481 39.6608H31.649Z" fill="#A40000"/>
</g>
<defs>
<clipPath id="clip0_538_13934">
<rect width="40.001" height="40.019" fill="white" transform="translate(4 4)"/>
</clipPath>
</defs>
</svg>
