<svg width="48" height="48" viewBox="0 0 48 48" fill="none" xmlns="http://www.w3.org/2000/svg">
<g clip-path="url(#clip0_538_13935)">
<path d="M23.9013 23.7117C23.8311 24.8955 25.0106 24.8646 25.3801 24.4936C26.2093 23.6604 28.3955 23.1686 28.3996 24.3542C28.4042 25.7114 23.2312 24.3206 23.3115 27.2999C23.3115 29.8575 27.3894 30.0079 28.5068 28.3722C28.5695 29.0286 29.0112 29.4336 29.8339 29.4336C30.7255 29.4336 31.1333 28.6765 31.1333 28.1049V24.0864C31.1333 21.2508 24.0427 21.3166 23.9013 23.7117ZM28.3996 26.6913C28.3996 28.1871 26.0746 28.269 26.0752 27.2483C26.0758 26.2267 27.5766 26.6474 28.3996 25.8751V26.6913ZM22.7218 21.8254C22.7218 20.395 21.5553 19.2285 20.1246 19.2285H14.9053V29.4299H20.1246C21.5549 29.4299 22.7218 28.2637 22.7218 26.8331C22.7218 25.6412 21.9115 24.6326 20.8135 24.3295C21.9115 24.0265 22.7218 23.0175 22.7218 21.8254ZM16.5219 26.1229C16.2164 26.0892 15.9257 26.0354 15.6544 25.9635V22.6947C15.9257 22.6233 16.2164 22.5696 16.5219 22.5359V26.1229ZM18.3569 26.0728C18.0146 26.1306 17.6498 26.1621 17.2714 26.1627V22.496C17.6501 22.4967 18.0146 22.5282 18.3569 22.5856V26.0728ZM19.1067 25.8939V22.7642C20.1283 23.0867 20.8126 23.6681 20.8126 24.3292C20.8126 24.9909 20.128 25.5717 19.1067 25.8939ZM47.7236 27.2708L46.0755 24.9001L47.1997 23.8834C48.4586 22.746 46.6288 20.969 45.5179 22.1788L43.5466 24.3255V20.7129C43.5466 18.7138 40.8151 18.754 40.8151 20.7129V28.1049C40.8151 29.8516 43.5466 29.8878 43.5466 28.1049V27.2029L44.2355 26.5748L45.4122 28.7095C46.3266 30.3694 48.8277 28.8856 47.7236 27.2708ZM34.7409 23.3369C34.521 21.437 32.1169 21.568 32.1169 23.3369V28.1049C32.1169 29.8902 34.9556 29.8541 34.9556 28.1049V25.3342C34.9556 23.6678 37.0449 23.6678 37.0449 25.3342V28.1049C37.0449 29.8711 39.8311 29.8711 39.8311 28.1049V24.729C39.8311 21.7475 36.0641 20.9746 34.7409 23.3369Z" fill="#009944"/>
<path fill-rule="evenodd" clip-rule="evenodd" d="M14.9055 25.6988C14.1721 25.3627 13.7087 24.8727 13.7087 24.329C13.7087 23.785 14.1721 23.295 14.9055 22.9589V19.2221C13.3815 17.2623 11.0031 16 8.32901 16C3.72969 16 0 19.7297 0 24.3287C0 28.928 3.72969 32.6574 8.32901 32.6574C11.0031 32.6574 13.3815 31.3951 14.9055 29.4356V25.6988ZM9.11121 24.8842C8.26784 25.2095 7.27124 25.7995 6.78313 26.4554C6.7439 26.5079 6.75965 26.5542 6.75749 26.5959C6.75749 26.7275 6.63608 26.8378 6.50479 26.844C6.2561 26.8548 6.16002 26.5561 6.26722 26.3896C6.79055 25.6009 8.00649 24.9564 9.02008 24.607C9.00093 24.5171 8.99073 24.4242 8.99073 24.3287C8.99073 24.2332 9.00093 24.1399 9.02008 24.05C8.00649 23.701 6.79085 23.0568 6.26722 22.2681C6.16002 22.101 6.2561 21.8026 6.50479 21.8137C6.63608 21.8196 6.75749 21.9302 6.75749 22.0615C6.75996 22.1035 6.7439 22.1495 6.78313 22.202C7.27124 22.8579 8.26784 23.4479 9.11121 23.7732C9.32345 23.3089 9.79209 22.9852 10.3343 22.9852C11.0745 22.9852 11.6778 23.5888 11.6778 24.3287C11.6778 25.0686 11.0745 25.6719 10.3343 25.6719C9.79209 25.6722 9.32345 25.3482 9.11121 24.8842ZM13.5721 29.625C13.2125 29.6327 12.8875 29.5555 12.6593 29.2617C12.4306 29.5555 12.106 29.6327 11.7461 29.625C10.6404 29.6015 9.9932 28.2614 10.721 27.1878L12.6586 24.329L10.721 21.4702C9.9932 20.3967 10.6404 19.0565 11.7461 19.0327C12.1057 19.025 12.4306 19.1023 12.6593 19.396C12.8875 19.1023 13.2122 19.025 13.5721 19.0327C14.6778 19.0565 15.325 20.3967 14.5972 21.4702L12.6596 24.329L14.5972 27.1878C15.325 28.2614 14.6778 29.6012 13.5721 29.625Z" fill="#F6AB00"/>
</g>
<defs>
<clipPath id="clip0_538_13935">
<rect width="48" height="16.6574" fill="white" transform="translate(0 16)"/>
</clipPath>
</defs>
</svg>
