<svg width="48" height="48" viewBox="0 0 48 48" fill="none" xmlns="http://www.w3.org/2000/svg">
<g clip-path="url(#clip0_538_13936)">
<path d="M31.457 21.064C29.555 21.081 29.268 21.899 29.233 22.775C29.233 22.857 29.227 23.912 29.227 24.857H37.441L37.364 25.452C36.644 32.332 30.884 37.516 23.959 37.516C16.529 37.516 10.479 31.469 10.479 24.037C10.479 16.601 16.529 10.553 23.959 10.553H29.935C34.44 10.55 36.139 7.325 36.591 5.419C36.591 5.419 36.661 5.093 36.714 4.684V4.675C36.74 4.462 36.763 4.224 36.77 4H23.964C18.585 4 13.56 6.077 9.807 9.845C6.062 13.61 4 18.649 4 24.038C4 35.042 12.954 44 23.959 44C33.643 44 41.903 37.09 43.604 27.567C43.925 25.754 44.035 23.259 43.925 21.063L31.457 21.064ZM23.954 12.289C17.486 12.289 12.214 17.56 12.214 24.038C12.214 30.514 17.485 35.786 23.959 35.786C29.177 35.786 33.824 32.281 35.258 27.262L35.449 26.574H29.237V27.578C29.237 28.535 28.457 29.313 27.496 29.313H20.418C19.46 29.313 18.678 28.535 18.678 27.578V20.498C18.678 19.539 19.46 18.756 20.418 18.756H36.525C40.854 18.631 43.264 16.722 43.896 12.917L44 12.289H23.954Z" fill="#DF0011"/>
</g>
<defs>
<clipPath id="clip0_538_13936">
<rect width="40" height="40" fill="white" transform="translate(4 4)"/>
</clipPath>
</defs>
</svg>
