<svg width="48" height="48" viewBox="0 0 48 48" fill="none" xmlns="http://www.w3.org/2000/svg">
<path fill-rule="evenodd" clip-rule="evenodd" d="M33.3268 32.1617L42.9476 29.5956C44 29.3194 44 29.1316 44 27.3499V21.7537C40.4478 21.7758 36.8947 21.7804 33.3406 21.7675V32.1617H33.3268ZM32.7274 21.7648C28.4156 21.7648 24.1038 21.7344 19.792 21.7344V35.7802L32.7274 32.3219V21.7648ZM19.0932 21.7344C15.4249 21.7344 11.7567 21.7537 8.08852 21.8034C5.21858 21.8421 3.97283 22.8254 4.00045 25.9716L4.02531 39.9898L19.0876 35.9653L19.0932 21.7344Z" fill="#00487F"/>
<path fill-rule="evenodd" clip-rule="evenodd" d="M33.3262 13.4475L43.9855 17.2538V15.2236C43.9855 13.8425 44.0325 13.953 42.911 13.1796L34.757 8.20485C34.0112 7.75184 33.3566 8.04188 33.3262 9.15781V13.4475Z" fill="#E7380D"/>
<path fill-rule="evenodd" clip-rule="evenodd" d="M33.3268 14.2013C36.879 15.4057 40.4312 16.6128 43.9862 17.7922V21.2118L33.3268 21.1317V14.2013ZM19.792 11.6353C19.8776 10.1879 20.7836 10.0359 21.6233 10.3039C25.3247 11.4971 29.0261 12.7457 32.7274 13.9969V21.129L19.792 21.0323V11.6353Z" fill="#41B051"/>
</svg>
