<svg width="48" height="48" viewBox="0 0 48 48" fill="none" xmlns="http://www.w3.org/2000/svg">
<g clip-path="url(#clip0_538_13928)">
<path d="M39.1393 8.43348C38.0175 7.52271 36.7962 6.73311 35.493 6.07912C33.1603 4.90836 30.5676 4.17654 27.8233 4.00241L27.7952 4L27.7872 4.0016C27.6965 4.00481 27.6235 4.08185 27.6235 4.17252C27.6235 4.25598 27.6821 4.32419 27.7599 4.34184H27.7647C28.7726 4.50634 29.7467 4.76633 30.6952 5.07687C36.0989 6.84144 39.3977 11.0936 39.3977 11.0936C40.8637 12.7987 41.9607 14.8313 42.5665 17.0645C42.9148 18.3468 43.1017 19.6957 43.1017 21.0879C43.1017 21.7403 43.056 22.3839 42.9782 23.0122C42.8971 23.6598 42.78 24.2961 42.6219 24.9132C42.3394 26.0085 41.9374 27.0605 41.4351 28.0475C40.1287 30.6113 38.1242 32.757 35.6712 34.2383H35.6511C34.7748 34.7679 33.84 35.2181 32.8602 35.5656C31.3227 36.0374 29.6769 36.2845 27.9726 36.2845C19.4041 36.2845 12.4582 29.3386 12.4582 20.7702C12.4582 19.9019 12.532 19.0481 12.6684 18.2184C13.2414 14.7687 14.953 11.7002 17.4036 9.41647L17.4108 9.41005L17.4454 9.37715L17.4502 9.37394L17.4999 9.25197C17.4999 9.15648 17.4229 9.08105 17.3274 9.08105L17.2616 9.09228L17.2592 9.09549C15.0541 10.0937 13.0817 11.5213 11.4503 13.2658C8.79907 16.4787 7.20703 20.5977 7.20703 25.0873C7.20703 30.17 9.24603 34.7727 12.5513 38.1285C13.7325 39.329 15.0758 40.3666 16.5458 41.2131C19.4747 42.9809 22.9076 43.9984 26.5795 43.9984C34.9875 43.9984 42.1476 38.6638 44.8623 31.1955C44.8615 31.1971 50.3069 18.1944 39.1393 8.43348ZM27.995 22.1769C31.0716 23.7882 32.2624 27.5885 30.6503 30.6683C29.5156 32.8341 27.2937 34.0658 25.0035 34.0425L24.969 34.0377L24.9393 34.0393C24.8591 34.0538 24.7965 34.1252 24.7965 34.2102C24.7965 34.2905 24.8511 34.3563 24.9249 34.3763L24.9393 34.3796C30.4489 35.7654 36.3909 33.2666 39.1417 28.0146C42.3146 21.9506 40.0581 14.4935 34.1128 11.1866L33.8312 11.0286C30.753 9.41727 26.951 10.6057 25.3389 13.6838C23.7277 16.7636 24.9169 20.5664 27.995 22.1769ZM11.2553 11.2597C12.9589 9.57936 15.0404 9.13722 15.9416 9.02327L15.9448 9.02167C16.0234 9.00722 16.082 8.93741 16.082 8.85235C16.082 8.79779 16.0539 8.74723 16.0122 8.71754L15.9961 8.70631C11.1173 5.31279 8.07045 9.69491 8.07045 9.69491C5.69844 12.8485 3.10656 13.025 2.14203 13.2666L2.12598 13.2714C2.05296 13.2922 2 13.3564 2 13.4367C2 13.5169 2.05296 13.5811 2.12679 13.6012L2.13882 13.6044C7.48548 15.1178 11.2553 11.2597 11.2553 11.2597Z" fill="#C8161E"/>
</g>
<defs>
<clipPath id="clip0_538_13928">
<rect width="44.1887" height="40" fill="white" transform="translate(2 4)"/>
</clipPath>
</defs>
</svg>
