<svg width="48" height="48" viewBox="0 0 48 48" fill="none" xmlns="http://www.w3.org/2000/svg">
<g clip-path="url(#clip0_538_13939)">
<path d="M4.14744 28.562L4 28.4448C4.78862 27.6529 5.67205 26.8577 6.23548 26.3613C12.3471 20.971 20.2731 19.6138 23.9375 23.3306C27.6019 27.0482 25.6167 34.4272 19.5054 39.8181C18.7252 40.5062 17.9174 41.1283 17.0929 41.6827H11.7558C12.7984 40.98 13.834 40.1836 14.8383 39.2971C21.1036 33.7726 23.8005 26.8801 20.864 23.9009C17.9264 20.9216 10.4666 22.9864 4.20157 28.5106L4.14744 28.562Z" fill="#095CA2"/>
<path fill-rule="evenodd" clip-rule="evenodd" d="M24.7146 35.8475C26.1414 33.8208 27.2515 31.2549 27.4674 28.1455C27.5179 27.4089 27.9785 27.5674 28.4011 27.6473C29.1329 27.7789 31.1922 28.0794 34.4876 26.4211C34.7774 26.274 35.3632 26.3918 34.8865 27.1C34.4092 27.8109 33.0766 29.6961 32.7031 34.6863C32.6756 35.0801 32.2353 35.0197 32.1037 34.98C31.9868 34.9459 28.6505 34.3139 25.1335 36.2507C24.8315 36.411 24.4774 36.2025 24.7146 35.8475ZM15.481 20.5963C15.289 20.6415 15.2137 20.4764 15.3835 20.3331C18.3075 17.7768 19.1212 14.3576 19.1996 13.7541C19.2818 13.1108 19.5432 13.1497 19.9068 13.3052C22.3651 14.3519 24.5297 14.0023 25.3907 13.8043C26.3456 13.5845 26.7332 13.77 26.1273 14.4943C24.2181 16.774 23.7327 19.7847 23.62 20.7958C23.5847 21.128 23.2877 21.0838 23.1241 21.0165C21.0349 19.8618 17.506 19.8944 15.481 20.5963Z" fill="#0E918E"/>
<path fill-rule="evenodd" clip-rule="evenodd" d="M4.76429 35.835C6.7025 34.2694 9.26874 31.617 10.1444 28.0681C10.2132 27.7891 10.5182 27.6216 11.0206 27.8851C11.5237 28.1488 13.7708 29.0101 17.3969 27.6344C17.7381 27.5053 18.1625 27.6772 17.5784 28.243C16.998 28.8083 14.5531 31.4035 12.8335 36.588C12.6843 37.0429 12.1753 36.9789 11.8852 36.8677C10.514 36.3428 8.65567 35.5081 5.0457 36.5175C4.53311 36.6801 4.21461 36.2013 4.76429 35.835Z" fill="#095CA2"/>
<path fill-rule="evenodd" clip-rule="evenodd" d="M28.7598 25.5569C28.2176 26.0704 27.6577 26.548 27.0868 26.9921C27.0001 25.6221 26.5931 24.3646 25.8412 23.3074C30.5093 18.0332 32.1541 12.2266 29.4539 9.67411C26.4226 6.80881 19.0744 9.11397 13.0367 14.8227C12.9538 14.9005 12.7059 15.1556 12.4059 15.4621L12.2681 15.3676C13.2209 14.2895 14.3238 13.1396 14.9788 12.5242C20.8894 6.93322 28.7643 5.31919 32.5707 8.91659C36.3775 12.5161 34.6707 19.9654 28.7598 25.5569Z" fill="#0E918E"/>
<path d="M33.2112 21.7169C36.9994 20.9107 40.4476 21.5513 42.4193 23.7724C45.8719 27.6644 43.4809 34.9372 37.0801 40.021C36.3062 40.6338 35.5083 41.1909 34.6981 41.6823H28.9277C30.1108 40.9914 31.2939 40.1834 32.4474 39.2664C39.0103 34.0598 42.0855 27.3115 39.3177 24.1911C37.9489 22.6473 35.4075 22.2825 32.3959 22.9347C32.6863 22.531 32.9579 22.127 33.2112 21.7169Z" fill="#0E918E"/>
</g>
<defs>
<clipPath id="clip0_538_13939">
<rect width="40" height="34.6824" fill="white" transform="translate(4 7)"/>
</clipPath>
</defs>
</svg>
