<svg width="48" height="48" viewBox="0 0 48 48" fill="none" xmlns="http://www.w3.org/2000/svg">
<path d="M24.0097 4C12.9506 4 4 12.945 4 23.998C4 35.0407 12.9506 44 24.0097 44C29.3184 44 32.871 42.1458 34.3421 41.24C38.1837 38.8803 40.3902 35.5028 39.779 32.2495C39.2489 29.4726 36.782 27.3723 33.3234 26.3091C33.0512 26.2295 32.7208 26.1417 32.3588 26.0288C33.9014 25.1372 34.9467 23.8499 35.1745 22.3235C35.6969 18.7705 31.6837 15.222 26.207 14.4085C21.3334 13.6824 17.2661 14.0771 15.6795 14.24V20.5368C18.5754 20.1293 22.4282 20.1753 25.3343 20.5919C27.8426 20.9545 29.6176 21.9303 29.7146 23.2131C29.7545 23.5506 29.6508 23.9142 29.4415 24.2507C28.82 25.2679 27.5837 25.102 26.5829 24.9769C23.3755 24.5878 19.5094 24.4386 15.6795 24.9769V31.4284C19.1652 31.0091 25.1617 30.9857 28.1056 31.5453C30.6879 32.0269 32.4829 33.1513 32.6228 34.6C32.679 35.2347 32.4114 35.8751 31.89 36.4797C30.8391 37.6506 28.1613 38.818 24.022 38.818C15.8475 38.818 9.21728 32.1933 9.21728 24.0092C9.21728 15.8455 15.8475 9.21728 24.022 9.21728C32.2015 9.21728 38.8271 15.8455 38.8271 24.0092C38.8271 24.5632 38.795 25.1066 38.7378 25.6443C39.7315 26.1657 41.4355 27.1875 43.2453 29.4721C43.738 27.7236 43.9995 25.8981 43.9995 23.9974C44.0005 12.945 35.0519 4 24.0097 4V4Z" fill="#E60012"/>
</svg>
