<svg width="48" height="48" viewBox="0 0 48 48" fill="none" xmlns="http://www.w3.org/2000/svg">
<g clip-path="url(#clip0_538_13930)">
<path d="M13.7875 15.7818L10.9007 22.5827C10.8345 22.7387 10.9073 22.9189 11.0633 22.9852L17.0652 25.5328C17.2213 25.5991 17.4015 25.5263 17.4677 25.3702L20.3545 18.5693C20.4208 18.4133 20.348 18.2331 20.1919 18.1668L14.19 15.6192C14.0339 15.5529 13.8537 15.6258 13.7875 15.7818Z" fill="#EF7C00"/>
<path d="M43.5344 19.708C43.5344 19.6233 43.3968 19.6445 43.3968 19.708C43.503 24.1167 42.1609 28.4386 39.5762 32.0118C36.9914 35.5849 33.3066 38.2121 29.0861 39.491C29.0724 39.4855 29.0606 39.476 29.0523 39.4637C29.044 39.4515 29.0395 39.437 29.0395 39.4222C29.0395 39.4074 29.044 39.3929 29.0523 39.3806C29.0606 39.3684 29.0724 39.3589 29.0861 39.3534C33.5994 37.434 37.2585 33.9355 39.3783 29.5128C41.4981 25.09 41.9333 20.0463 40.6024 15.3259C39.5146 11.5502 36.9866 8.35314 33.5635 6.42405C33.5509 6.41282 33.5343 6.40707 33.5174 6.40806C33.5005 6.40905 33.4848 6.41671 33.4735 6.42934C33.4623 6.44197 33.4565 6.45855 33.4575 6.47542C33.4585 6.4923 33.4662 6.50808 33.4788 6.51931C36.3034 10.7867 37.4207 15.96 36.609 21.0127C35.7972 26.0654 33.1158 30.6284 29.0967 33.7964C29.0332 33.8493 28.9485 33.7964 29.012 33.6905C32.4142 30.0635 34.453 25.3687 34.7808 20.4066C35.069 16.733 34.4169 13.0466 32.8861 9.69476C32.1147 8.01065 30.8799 6.58086 29.3261 5.57246C27.7723 4.56407 25.9635 4.01871 24.1113 4.00013H24.0478C20.8043 3.98852 17.6069 4.76695 14.7317 6.26814C11.8566 7.76933 9.39032 9.94811 7.54603 12.6162C7.52594 12.6377 7.51477 12.6661 7.51477 12.6956C7.51477 12.725 7.52594 12.7534 7.54603 12.7749C7.56403 12.7842 7.584 12.7891 7.60425 12.7891C7.6245 12.7891 7.64446 12.7842 7.66247 12.7749C11.1025 8.54101 16.5325 6.6675 21.1899 8.64686C26.9797 11.1131 29.3613 18.5542 26.4823 25.265C23.6032 31.9758 16.7019 35.3947 10.8908 32.9284C6.21235 30.9385 3.75667 25.6884 4.53995 20.2266C4.5477 20.2158 4.55187 20.2029 4.55187 20.1896C4.55187 20.1763 4.5477 20.1633 4.53995 20.1525H4.44468C4.17618 21.4165 4.02734 22.703 4.00012 23.9948C3.99674 24.9371 4.06397 25.8782 4.20123 26.8104C4.66086 30.1007 5.93824 33.2231 7.9165 35.8922L8.07527 36.0933C8.71467 36.9305 9.42278 37.713 10.1922 38.4325C13.0169 41.1251 16.5673 42.9327 20.4063 43.6328C24.2454 44.3329 28.2054 43.8949 31.7986 42.3728C35.3919 40.8507 38.4615 38.3109 40.6294 35.0662C42.7974 31.8214 43.9691 28.0135 44.0001 24.1113C44.0126 22.6306 43.8563 21.1533 43.5344 19.708Z" fill="#004098"/>
</g>
<defs>
<clipPath id="clip0_538_13930">
<rect width="40" height="40" fill="white" transform="translate(4 4)"/>
</clipPath>
</defs>
</svg>
