<svg width="48" height="48" viewBox="0 0 48 48" fill="none" xmlns="http://www.w3.org/2000/svg">
<g clip-path="url(#clip0_538_13748)">
<path d="M23.9998 4C12.9541 4 4 12.9546 4 24.0002C4 35.0459 12.9541 44.0005 23.9998 44.0005C35.0449 44.0005 43.9995 35.0459 43.9995 24.0002C43.9995 12.9546 35.0454 4 23.9998 4ZM21.692 39.5232C14.1198 38.4071 8.30713 31.8824 8.30713 24.0002C8.30713 16.1181 14.1198 9.59344 21.692 8.4773V15.8465H18.7687C16.3898 15.8465 14.4616 17.7752 14.4616 20.1541V27.8464C14.4616 30.2258 16.3903 32.1535 18.7687 32.1535H21.692V39.5232ZM19.2307 27.8464C18.9757 27.8464 18.7692 27.6395 18.7692 27.3849V20.6155C18.7692 20.3605 18.9762 20.1541 19.2307 20.1541H28.7693C29.0243 20.1541 29.2303 20.3605 29.2303 20.6155V27.3849C29.2303 27.64 29.0238 27.8464 28.7693 27.8464H19.2307ZM26.3071 39.5232V32.1535H29.2303C31.6097 32.1535 33.5379 30.2253 33.5379 27.8464V20.1541C33.5379 17.7747 31.6092 15.8465 29.2303 15.8465H26.3071V8.4773C33.8797 9.59344 39.6919 16.1176 39.6919 24.0002C39.6919 31.8828 33.8802 38.4071 26.3071 39.5232Z" fill="#B6002A"/>
</g>
<defs>
<clipPath id="clip0_538_13748">
<rect width="39.9995" height="40" fill="white" transform="translate(4 4)"/>
</clipPath>
</defs>
</svg>
