<svg width="48" height="48" viewBox="0 0 48 48" fill="none" xmlns="http://www.w3.org/2000/svg">
<g clip-path="url(#clip0_538_13938)">
<path d="M7.56006 30.2768L8.13865 30.8557C10.3612 33.0789 13.965 33.0789 16.1877 30.8557L34.5205 12.5225L29.9184 7.91797L7.56006 30.2768Z" fill="#E60012"/>
<path d="M28.6027 6.60389L24.0009 2L5.66717 20.3344C3.44428 22.5557 3.44428 26.1602 5.66717 28.3821L6.24474 28.9618L28.6027 6.60389ZM40.4401 18.4402L39.8634 17.8614C37.6395 15.6387 34.0347 15.6387 31.8113 17.8614L13.4788 36.1951L18.0824 40.7979L40.4401 18.4402Z" fill="#F39800"/>
<path d="M19.3975 42.1143L24.001 46.7179L42.333 28.383C44.556 26.1609 44.556 22.5565 42.333 20.3353L41.7552 19.7559L19.3975 42.1143Z" fill="#E60012"/>
</g>
<defs>
<clipPath id="clip0_538_13938">
<rect width="40" height="44.7169" fill="white" transform="translate(4 2)"/>
</clipPath>
</defs>
</svg>
