<svg width="48" height="48" viewBox="0 0 48 48" fill="none" xmlns="http://www.w3.org/2000/svg">
<g clip-path="url(#clip0_538_13925)">
<path fill-rule="evenodd" clip-rule="evenodd" d="M40.8758 10.9675C42.7568 13.4245 43.8038 15.4655 43.9848 16.3445C44.1178 16.9885 43.2938 16.6205 43.2938 16.6205C43.2938 16.6205 40.4768 13.0435 37.9118 11.8915C34.6178 10.4135 30.1328 10.6225 28.1458 11.2885C25.1678 12.2865 22.0518 14.6575 20.6418 17.2425C18.6038 20.9785 18.9958 25.0405 18.9958 25.0405C18.9958 25.0405 19.1708 29.7005 23.3278 33.7375C26.4108 36.7325 31.1888 38.0035 36.8088 36.3655C38.9308 35.7475 40.6968 34.2355 42.0858 32.7375C42.7328 32.0385 43.0648 31.1905 43.3548 30.9835C43.6888 30.7435 43.9258 31.2035 43.9258 31.2035C43.9258 31.2035 43.5428 34.1935 40.2718 37.6845C38.7168 39.3435 35.8778 41.5845 33.6968 42.6035C25.0238 46.6545 16.9808 44.2155 12.0298 40.3375C7.10677 36.4815 5.25277 31.1965 5.25277 31.1965C5.25277 31.1965 3.56277 26.3005 4.10777 21.1295C4.56677 16.7715 7.01677 12.2715 9.35277 9.81649C17.3378 1.42749 32.2128 -0.350508 40.8758 10.9675Z" fill="#A51F24"/>
<path fill-rule="evenodd" clip-rule="evenodd" d="M27.0591 18.7684L35.9471 18.7324C35.9471 18.7324 36.6631 18.7794 37.0501 19.2144C37.4691 19.6854 37.6291 20.4314 37.6291 20.4314L37.6991 27.6204C37.6991 27.6204 37.5441 28.2494 37.1791 28.6714C36.7911 29.1194 36.1931 29.3624 36.1931 29.3624L27.0591 29.4334V18.7684Z" fill="#AD7E1F"/>
<path fill-rule="evenodd" clip-rule="evenodd" d="M30.688 22.293V25.804L33.682 25.81C33.682 25.81 33.841 25.782 33.949 25.696C34.049 25.615 34.096 25.475 34.096 25.475L34.086 22.848C34.086 22.848 34.096 22.671 34.013 22.527C33.936 22.394 33.766 22.293 33.766 22.293H30.688Z" fill="white"/>
</g>
<defs>
<clipPath id="clip0_538_13925">
<rect width="40" height="41.691" fill="white" transform="translate(4 3)"/>
</clipPath>
</defs>
</svg>
