<svg width="48" height="48" viewBox="0 0 48 48" fill="none" xmlns="http://www.w3.org/2000/svg">
<path fill-rule="evenodd" clip-rule="evenodd" d="M36.1429 42.7848L36.1792 42.8992L36.0857 42.8266L23.9967 34.0541L11.9121 42.8266L11.812 42.8992L11.8505 42.7892L16.4672 28.5816L4.3815 19.797L4.2825 19.7299H19.3448L23.9593 5.5212L23.9978 5.4024L24.0308 5.5212L28.6497 19.7299H43.7087L43.6152 19.797L31.5306 28.5816L36.1429 42.7848ZM46 18.9819H29.192L23.9934 3L18.8047 18.9819H2L15.5949 28.861L10.4018 44.844L23.9967 34.9671L37.5894 44.844L32.4029 28.861L46 18.9819ZM37.5894 44.844L32.4029 28.861L37.5894 44.844ZM25.3233 30.016C25.0923 30.016 24.6501 30.0974 24.9174 30.8883C25.0923 31.4196 25.4542 31.1512 25.7886 30.6012C25.9646 30.2998 25.7413 30.016 25.3233 30.016ZM29.192 31.6495C30.0698 31.4526 30.6055 30.7739 29.6782 30.4252C28.466 29.9819 27.4804 29.939 27.4804 29.158C27.4804 28.5266 27.8687 27.9799 28.1162 27.6961C28.4209 27.3056 28.8477 27.3452 28.6035 26.914C28.4396 26.6203 28.1624 26.7149 27.8203 27.101C27.4793 27.4926 26.7456 28.4309 26.3551 28.6729C25.9646 28.9204 24.9856 29.4077 25.034 28.5266C25.0824 27.6378 25.0824 27.5476 25.5235 27.4937C25.9338 27.4486 26.2033 26.6115 26.8886 26.2782C27.5156 25.9658 27.421 24.1761 26.7907 25.2519C26.453 25.8437 26.255 26.0395 25.9635 26.3772C25.6181 26.7721 25.2309 26.8062 25.0813 26.8579C24.6281 27.046 24.5467 27.2099 24.4928 27.7863C24.4466 28.3693 24.2046 30.8685 24.055 31.4559C23.9109 32.0312 24.055 32.1841 24.253 32.4811C24.4466 32.7682 24.5918 33.0212 25.0813 32.4811C25.5752 31.9498 25.6874 31.6209 25.9635 31.0599C26.2033 30.5803 26.9018 30.4208 27.135 30.6265C27.5244 30.9631 27.7224 31.1116 28.1151 31.4152C28.5045 31.7012 28.6398 31.7749 29.192 31.6495ZM25.6192 21.5801C25.364 22.0663 24.1551 24.2212 24.2541 24.6579C24.3531 25.1023 24.5478 25.2926 25.1814 25.1023C25.8139 24.9043 26.0361 24.9318 26.5531 24.4181C26.8897 24.0804 27.4276 23.9242 27.7235 23.7823C28.0128 23.6338 28.1613 23.0013 27.4265 23.0893C26.5388 23.2169 26.8402 23.4435 26.5003 23.5887C26.156 23.735 25.6687 23.3973 26.2539 23.0508C26.8391 22.7098 26.7445 22.1697 26.5003 21.8287C26.2561 21.4899 26.0108 20.853 25.6192 21.5801ZM22.4974 26.5147C22.8868 26.177 23.7558 25.6842 22.8868 25.2497C22.4974 25.0539 22.2521 24.8075 22.7405 24.3147C23.1266 23.9242 23.1431 23.0277 22.8868 22.4117C22.592 21.7275 21.8561 21.6274 21.3699 21.2424C20.8782 20.853 20.293 21.194 20.6362 22.0751C20.8001 22.4876 21.2214 22.9507 21.5195 23.2939C21.811 23.6338 21.7076 24.2872 21.2698 24.5677C20.5878 25.0044 20.5878 25.2497 20.1478 25.352C19.7067 25.44 19.5615 25.4928 19.4658 25.7931C19.3679 26.0703 19.1688 26.8546 19.4658 27.1582C19.7595 27.4475 20.0114 27.2572 20.3425 27.0097C20.5405 26.8546 21.3699 27.0526 20.9816 27.783C20.3425 29.0095 18.9763 29.7795 18.6331 30.2767C18.291 30.7739 18.2415 31.4119 18.5341 31.7012C18.83 31.9916 19.3173 31.6022 19.6616 31.4119C20.0026 31.2117 20.3964 31.16 20.8287 31.501C21.2698 31.8519 21.2214 31.6022 21.6185 31.8519C22.0035 32.0939 22.1344 32.0752 22.592 31.314C23.0331 30.577 23.0771 29.1569 22.6382 28.179C22.3654 27.5619 22.4468 27.0603 22.4974 26.5147ZM30.9751 28.399L30.9971 28.3759L42.2655 20.1963H28.3065L28.3021 20.1611L23.9978 6.9237L19.6946 20.1633L19.6814 20.1985H5.7323L16.9952 28.3781L17.0205 28.4012L17.0095 28.432L12.7074 41.665L23.9725 33.4799L23.9967 33.4634L24.0154 33.4799L35.286 41.665L30.9828 28.4309L30.9751 28.399ZM35.385 41.7387L35.2871 41.665L35.3267 41.7794L35.385 41.7387ZM12.6711 41.7783L12.7074 41.6639L12.6073 41.7376L12.6711 41.7783ZM42.359 20.1314L42.2644 20.1974H42.3865L42.359 20.1314ZM5.608 20.1974H5.7312L5.6289 20.1314L5.608 20.1974ZM21.3897 29.5936C21.3424 30.0292 21.8275 30.2998 21.943 29.7003C22.0508 29.1019 21.4403 29.1019 21.3897 29.5936ZM23.9593 6.8082L23.9978 6.9226L24.0308 6.8082H23.9593Z" fill="#D7000F"/>
</svg>
