<svg width="48" height="48" viewBox="0 0 48 48" fill="none" xmlns="http://www.w3.org/2000/svg">
<g clip-path="url(#clip0_538_13926)">
<path d="M5.33336 31.1707C1.37601 20.8533 6.52571 9.27905 16.8349 5.31854C18.9295 4.51373 21.0763 4.08499 23.2006 4V9.0094C21.6727 9.09139 20.1316 9.41068 18.6262 9.98909L18.3737 10.0884C14.0064 11.9203 11.8569 16.9094 13.5656 21.364C14.8121 24.6138 17.7736 26.6991 21.02 26.9827V21.0173H26.9798V16.0015C32.1431 16.2885 36.9159 19.4848 38.9898 24.5607C39.0642 22.5923 38.75 20.5769 38.0004 18.622C35.8129 12.9184 30.5257 9.31929 24.8003 9.01015V4C32.5361 4.31365 39.7166 9.13539 42.6668 16.8285C46.6242 27.1459 41.4752 38.7202 31.1657 42.6811C29.0711 43.4859 26.9242 43.9143 24.7999 43.9996V38.9902C26.3279 38.9086 27.8689 38.5893 29.3743 38.0109L29.602 37.9218C33.9859 36.0985 36.1466 31.0993 34.4346 26.636C33.1885 23.3862 30.2266 21.3005 26.9798 21.0173C26.9798 26.9823 26.9806 26.9827 26.9806 26.9827H21.0196C21.0196 31.9985 21.0207 31.9989 21.0207 31.9989C15.8571 31.7115 11.0843 28.5152 9.01113 23.4396C8.93635 25.408 9.2505 27.4235 10.0006 29.3787C12.188 35.082 17.4756 38.6815 23.2006 38.9906V44C15.4648 43.686 8.28437 38.8642 5.33336 31.1707Z" fill="#DF0011"/>
</g>
<defs>
<clipPath id="clip0_538_13926">
<rect width="40" height="40" fill="white" transform="translate(4 4)"/>
</clipPath>
</defs>
</svg>
