<svg width="48" height="48" viewBox="0 0 48 48" fill="none" xmlns="http://www.w3.org/2000/svg">
<g clip-path="url(#clip0_538_13927)">
<path d="M39.222 11.9239C39.222 11.9239 42.427 14.4809 43.902 21.2739C44.1 22.9239 44.032 24.8689 43.386 26.9989C43.386 26.9989 44.933 28.7469 42.411 33.2219C42.411 33.2219 40.322 38.3939 34.145 41.7209C32.968 42.3559 31.641 42.9219 30.153 43.3739C29.405 43.6009 28.429 43.8659 27.38 43.8199C27.38 43.8199 24.422 42.0349 24.365 38.3679C24.348 37.2909 24.418 36.9959 24.614 36.3859C25.024 35.1139 25.732 34.2029 25.732 34.2029C25.732 34.2029 26.367 33.2839 27.881 32.5079C28.444 32.2199 29.064 31.9829 29.865 31.7429C29.865 31.7429 34.816 30.4869 35.776 33.8059C35.776 33.8059 33.692 32.9349 31.719 33.6129C31.719 33.6129 28.494 34.8839 28.57 37.6999C28.57 37.6999 28.771 38.6039 29.212 39.1829C29.944 40.1509 31.312 40.8769 33.295 39.8519C33.295 39.8519 40.306 35.5409 39.761 30.0669C39.761 30.0669 39.821 27.3829 36.714 27.5219C36.714 27.5219 32.94 27.8949 29.325 29.6979C27.435 30.6409 25.591 31.9729 24.349 33.8459C23.557 35.0429 23.262 36.2279 23.056 38.2979C23.056 38.2979 23.389 40.3609 23.191 41.5049C23.089 42.0889 22.798 42.3929 22.15 41.9819C22.15 41.9819 19.483 39.5669 18.69 35.8109C18.323 34.0739 18.357 32.0469 19.241 29.8409C19.241 29.8409 20.98 27.2769 22.124 27.3069C22.124 27.3069 20.832 29.4439 24.398 27.9809C24.398 27.9809 27.751 26.6669 28.342 25.2189C28.487 24.8699 28.468 24.5119 28.201 24.1639C27.965 23.8519 27.511 23.9319 27.511 23.9319C27.511 23.9319 26.658 24.0079 25.766 24.5109C25.111 24.8799 24.346 25.3909 23.662 26.0609C23.662 26.0609 23.729 24.1099 23.275 23.2659C23.275 23.2659 18.516 27.1009 17.494 29.5929C17.494 29.5929 16.693 32.9279 17.137 36.6929C17.425 39.1349 18.238 41.7579 20.132 43.7669C20.132 43.7669 18.024 43.2359 15.89 42.3359C14.774 41.8649 13.649 41.2929 12.819 40.6439C12.819 40.6439 11.732 37.3909 13.094 34.9249C13.094 34.9249 10.08 37.3419 8.61697 36.8369C8.61697 36.8369 7.13797 35.2739 7.74897 33.6249C7.95197 33.0749 8.38897 32.5159 9.18897 32.0009C9.18897 32.0009 10.181 31.0789 11.355 29.9619C12.915 28.4779 14.797 26.6489 15.089 26.1939C15.089 26.1939 13.594 27.3199 11.718 28.3059C10.542 28.9239 9.21497 29.4879 8.01297 29.6829C6.31697 29.9589 4.87197 29.3119 4.33497 27.4959C4.33497 27.4959 4.05897 26.5769 4.00497 25.2929C3.98697 24.8639 4.01197 24.3689 4.10297 23.7999C4.35397 22.2279 4.70697 21.7739 5.16797 20.9909C5.16797 20.9909 5.16197 24.1619 7.53397 23.3219C7.53397 23.3219 10.315 22.0099 13.142 21.3579C14.638 21.0129 16.199 20.8689 17.475 21.2349C17.475 21.2349 19.561 22.4049 19.576 23.5879L22.739 22.2509C22.739 22.2509 21.943 19.8629 20.145 19.4529C20.145 19.4529 22.616 19.0739 25.261 17.8729C26.805 17.1719 28.574 16.3089 29.655 15.3099C29.655 15.3099 29.668 16.9459 30.235 18.5729C30.735 20.0089 31.702 21.6119 32.899 21.7699C32.899 21.7699 29.86 22.3559 29.4 23.5379C29.4 23.5379 30.103 25.1559 33.269 23.2229C33.269 23.2229 36.427 18.4929 30.889 13.9789C30.889 13.9789 26.371 11.7489 21.011 13.7809C21.011 13.7809 18.778 15.0709 16.071 15.9109C14.311 16.4579 11.15 16.8049 9.47497 16.4919C8.18697 16.2529 8.26897 15.6289 7.54097 14.3809C7.54097 14.3809 5.80497 10.6379 8.39497 10.8079C8.39497 10.8079 11.044 11.4139 14.057 9.44493C14.057 9.44493 13.978 8.67593 14.809 8.01393C15.675 7.32493 17.48 6.73193 18.951 6.27293C18.951 6.27293 23.119 4.79793 28.964 6.17293C30.23 6.47093 31.574 6.90293 32.972 7.51093C32.972 7.51093 36.193 8.77693 38.925 11.6539L39.222 11.9239ZM28.964 6.39393C28.964 6.39393 32.767 7.64893 33.754 6.69793C33.754 6.69793 35.185 6.07493 33.115 4.65193C33.115 4.65193 31.849 3.91093 35.341 4.00893C35.341 4.00893 38.869 3.92093 39.854 6.58493C39.854 6.58493 40.914 8.87693 38.011 10.3059C38.011 10.3059 37.122 10.9689 34.87 11.1779" fill="#E71F21"/>
</g>
<defs>
<clipPath id="clip0_538_13927">
<rect width="40" height="39.825" fill="white" transform="translate(4 4)"/>
</clipPath>
</defs>
</svg>
