<svg width="48" height="48" viewBox="0 0 48 48" fill="none" xmlns="http://www.w3.org/2000/svg">
<g clip-path="url(#clip0_538_13929)">
<path d="M35.208 8.49785C30.384 5.15085 24.026 5.50785 20.278 9.22985C18.268 11.2258 17.42 13.4718 18.063 16.1768C19.82 12.2478 22.971 9.66585 27.121 9.79485C29.725 9.99485 31.668 11.3788 32.326 13.4208C25.319 11.8548 20.812 15.4528 18.879 18.7088C18.871 18.7308 19.226 19.1988 19.39 19.4098C21.76 16.9018 25.932 14.7128 31.071 16.6348C33.171 17.4528 34.184 19.1968 34.407 19.7958C34.906 21.1408 34.714 22.4109 34.482 23.2309C30.154 19.3829 24.393 19.4208 21.411 21.1138C21.335 21.1568 38.205 28.4258 32.046 43.2538L32.075 43.2738C46.25 36.7748 48.402 17.6498 35.208 8.49785Z" fill="#106FB4"/>
<path d="M19.06 22.9018C16.619 24.6898 15.87 27.9508 16.534 31.6658C14.104 30.8598 12.803 29.5468 12.701 26.7108C12.713 24.4538 14.189 21.8238 17.095 20.7058C16.886 20.4008 16.696 20.0818 16.521 19.7538C13.809 19.4708 10.898 20.9718 9.609 22.7388C9.43 21.8008 9.078 20.0848 9.736 18.4888C10.77 15.9868 14.468 16.2298 15.473 16.5638C15.242 15.0558 12.623 13.9268 10.767 14.0808C11.128 13.1918 11.668 12.0838 12.777 11.9408C13.961 11.8328 14.827 12.2898 15.546 13.3428C16.372 8.87075 20.214 5.45775 24.886 5.29175C24.746 4.78575 21.604 5.08475 21.475 5.11675L21.47 5.11475C11.62 6.34775 4 14.7518 4 24.9368C4 38.1768 15.409 43.2778 18.986 42.8018V42.8097C23.19 42.8097 26.638 39.5798 26.987 35.4658C27.75 29.4898 20.343 23.8328 19.06 22.9018Z" fill="#16995F"/>
<path d="M35.208 8.49785C30.384 5.15085 24.026 5.50785 20.278 9.22985C18.268 11.2258 17.42 13.4718 18.063 16.1768C19.82 12.2478 22.971 9.66585 27.121 9.79485C29.725 9.99485 31.668 11.3788 32.326 13.4208C25.319 11.8548 20.812 15.4528 18.879 18.7088C18.871 18.7308 19.226 19.1988 19.39 19.4098C21.76 16.9018 25.932 14.7128 31.071 16.6348C33.171 17.4528 34.184 19.1968 34.407 19.7958C34.906 21.1408 34.714 22.4109 34.482 23.2309C30.154 19.3829 24.393 19.4208 21.411 21.1138C21.335 21.1568 38.205 28.4258 32.046 43.2538L32.075 43.2738C46.25 36.7748 48.402 17.6498 35.208 8.49785Z" fill="#106FB4"/>
</g>
<defs>
<clipPath id="clip0_538_13929">
<rect width="40" height="38.274" fill="white" transform="translate(4 5)"/>
</clipPath>
</defs>
</svg>
