<svg width="48" height="48" viewBox="0 0 48 48" fill="none" xmlns="http://www.w3.org/2000/svg">
<g clip-path="url(#clip0_538_13932)">
<path d="M26.6486 11.2588C26.6486 11.0238 26.8057 10.8282 27.0196 10.765C30.6989 10.1031 34.9492 8.61191 37.0687 7.78894C37.8464 7.48018 38.6299 7.18669 38.6299 5.86195V3C34.2533 5.50647 24.3584 7.42994 24.3584 7.42994C18.9463 8.46516 15.8587 10.7317 15.8587 10.7317C11.4757 13.5802 9.99554 16.7714 9.73633 17.4006C9.71825 17.4577 9.69477 17.5601 9.69172 17.7009V22.4213C9.69993 22.7 9.92651 22.9238 10.2069 22.9238C10.2754 22.9238 10.3409 22.9081 10.402 22.8839C11.4172 22.2206 13.464 21.0677 16.1461 20.4868C16.2595 20.4894 16.3511 20.5817 16.3511 20.6958C16.3511 20.7404 16.3349 20.7808 16.3109 20.8148L16.2271 20.9207C11.6945 26.8175 9 34.2012 9 42.2132C9 43.1519 9.04015 44.0801 9.11247 45L10.2285 44.7873L11.8739 44.4736C12.3076 44.3524 12.6272 43.9554 12.6272 43.4823H12.6293C12.8465 40.7081 13.5239 38.332 14.3764 36.3031C16.3546 38.6067 20.267 40.9432 23.9999 41.3881C31.0579 42.231 37.0058 38.5353 37.9959 32.9394C38.2258 31.6381 38.1331 30.0175 37.7705 28.8069C36.871 26.3838 34.8992 25.3293 34.8992 25.3293C29.3617 22.2354 23.7878 26.7461 22.8569 27.3326L28.1281 27.3317C28.6061 27.3317 28.9926 27.7189 28.9926 28.1967V33.4578C28.9926 33.9356 28.6061 34.3226 28.1281 34.3226H22.8637C22.3863 34.3226 21.9991 33.9356 21.9991 33.4578L22.0043 28.1657C22.0043 24.2598 34.0997 20.6425 34.0997 20.6425C34.9097 20.3629 36.2058 19.9308 37.0751 19.6228C38.2847 19.1943 38.6299 18.337 38.6299 17.6444V15.0984C31.8745 17.8151 26.6503 18.6737 26.6503 18.6737V17.168C26.6603 16.9233 26.8381 16.7228 27.0717 16.6796V16.6775C30.9705 15.839 35.0455 14.507 37.1413 13.7542C38.1556 13.3621 38.6301 12.9792 38.6301 11.8927V9.13809C33.9046 11.3428 26.6472 12.7843 26.6472 12.7843V11.2588H26.6486Z" fill="#CE161D"/>
</g>
<defs>
<clipPath id="clip0_538_13932">
<rect width="29.6301" height="42" fill="white" transform="translate(9 3)"/>
</clipPath>
</defs>
</svg>
