<svg width="48" height="48" viewBox="0 0 48 48" fill="none" xmlns="http://www.w3.org/2000/svg">
<g clip-path="url(#clip0_538_13931)">
<path d="M4 28.1643V16.4183C4 16.4183 9.201 11.0693 13.362 7.25628C15.152 5.61628 17.273 4.93628 17.862 4.70228C19.925 3.88228 22.697 3.91728 24.487 4.11928C26.459 4.34228 29.271 5.89828 30.804 7.24728C32.338 8.59728 34.05 11.1643 34.7 12.5533C35.558 14.3933 36.476 17.9203 36.356 20.9263C36.242 23.7563 35.662 25.8293 35.417 26.5343L34.466 28.7723C34.466 28.7723 34.963 27.4013 35.046 26.3003C35.149 24.9503 35.458 23.4133 34.555 20.6053C33.911 18.6023 32.607 17.2683 31.274 15.9953C29.029 13.8523 24.582 12.4713 20.994 13.4223C20.185 13.6363 18.296 14.3383 16.677 15.6893C16.047 16.2143 15.276 16.9593 14.53 17.6523C9.616 22.2183 4 28.1643 4 28.1643ZM19.128 23.8173L24.096 18.8803L28.942 23.8173L24.035 28.6333L19.128 23.8173Z" fill="#E99415"/>
<path d="M12.902 23.2675C12.902 23.2675 12.871 25.7515 13.608 27.6845C14.356 29.6465 16.092 32.0085 17.993 33.0505C20.146 34.2315 21.92 35.0845 25.568 34.8295C28.634 34.6145 29.586 33.6335 30.629 33.0815C31.671 32.5295 44 19.8935 44 19.8935V31.5785L34.83 40.7175C34.83 40.7175 33.512 41.9455 31.641 42.8335C29.84 43.6895 28.85 44.1215 25.967 44.1215C22.257 44.1215 20.262 42.7475 18.852 41.9755C17.901 41.4545 15.775 39.8045 14.466 37.7745C13.301 35.9645 12.44 33.6555 12.013 31.0885C11.461 27.7755 11.829 25.3045 12.166 23.4515C12.534 21.4275 13.914 18.6055 13.914 18.6055C13.914 18.6055 13.147 20.6905 13.024 21.9795" fill="#003E8D"/>
</g>
<defs>
<clipPath id="clip0_538_13931">
<rect width="40" height="40.121" fill="white" transform="translate(4 4)"/>
</clipPath>
</defs>
</svg>
