<svg width="48" height="48" viewBox="0 0 48 48" fill="none" xmlns="http://www.w3.org/2000/svg">
<g clip-path="url(#clip0_538_13749)">
<path d="M21.0968 21.0385H26.9022V26.845H21.0968V21.0385ZM23.5601 7.00843C16.4516 7.28773 14.381 12.6375 10.8803 16.0143C8.838 17.9841 6.30435 18.3327 3 17.8728V26.7159C7.34805 27.6987 13.0055 26.7747 15.5286 21.7284C15.9675 20.8527 16.4316 20.0746 16.9325 19.3869C18.4308 17.0685 21.0327 15.5292 24 15.5292C28.5434 15.5292 32.2467 19.1307 32.4063 23.6373C32.421 23.8956 32.6426 24.1539 32.6426 23.4588V10.8798C30.2286 8.30623 26.9138 6.87613 23.5601 7.00843Z" fill="#0075C2"/>
<path d="M24.4389 40.8745C31.5485 40.5921 33.617 35.2444 37.1187 31.8676C39.161 29.8968 41.6936 29.5482 44.999 30.0081V21.1639C40.6509 20.1832 34.9935 21.1072 32.4693 26.1514C32.0315 27.0282 31.5674 27.8062 31.0665 28.494C29.5671 30.8124 26.9663 32.3538 23.999 32.3538C19.4546 32.3538 15.7523 28.7512 15.5927 24.2446C15.578 23.9874 15.3564 23.7291 15.3564 24.4242V37.0032C17.7704 39.5746 21.0863 41.0068 24.4389 40.8745Z" fill="#00AB84"/>
</g>
<defs>
<clipPath id="clip0_538_13749">
<rect width="42" height="33.8835" fill="white" transform="translate(3 7)"/>
</clipPath>
</defs>
</svg>
