<svg width="48" height="48" viewBox="0 0 48 48" fill="none" xmlns="http://www.w3.org/2000/svg">
<g clip-path="url(#clip0_538_13915)">
<path fill-rule="evenodd" clip-rule="evenodd" d="M43.006 5.79479C36.426 -1.00121 23.12 1.58179 13.378 11.5358C6.096 18.9848 2.81801 28.5058 4.38201 35.6758L22.772 27.7988C22.281 23.7818 23.331 18.8928 25.957 14.4328C30.58 6.59079 38.375 2.97379 43.315 6.38479C43.519 6.52579 43.714 6.67679 43.903 6.83779C43.625 6.47479 43.328 6.12579 43.006 5.79479ZM5.87601 39.6038L23.959 31.8588C24.59 33.0878 25.449 34.1158 26.534 34.8648C31.473 38.2738 39.269 34.6578 43.892 26.8158L43.999 26.6298C42.422 29.9658 40.162 33.2518 37.269 36.2108C27.529 46.1648 14.222 48.7468 7.64101 41.9518C6.95401 41.2408 6.36701 40.4528 5.87601 39.6038Z" fill="#003686"/>
<path fill-rule="evenodd" clip-rule="evenodd" d="M38.0928 25.3499L29.8198 22.4839L32.6858 14.2109L40.9588 17.0769L38.0928 25.3499Z" fill="#F0831E"/>
</g>
<defs>
<clipPath id="clip0_538_13915">
<rect width="40" height="43.746" fill="white" transform="translate(4 2)"/>
</clipPath>
</defs>
</svg>
