<svg width="48" height="48" viewBox="0 0 48 48" fill="none" xmlns="http://www.w3.org/2000/svg">
<g clip-path="url(#clip0_538_13916)">
<path d="M24 36C17.389 36 12.027 30.653 12 24.05H11.998V4H7.199C5.431 4 4 5.432 4 7.199V40.793C4 42.559 5.431 43.993 7.199 43.993H8.576L8.799 43.998H32.798V32.157C30.609 34.519 27.476 36 24 36ZM27.358 28C27.712 28 27.999 27.714 27.999 27.361V20.639C27.999 20.287 27.713 20 27.358 20H20.638C20.287 20 20 20.287 20 20.639V27.361C20 27.713 20.287 28 20.638 28H27.358ZM43.996 8.578V7.199C43.996 5.432 42.561 4 40.793 4H15.199V15.843C17.39 13.48 20.522 12 24 12C30.627 12 36 17.372 36 24L35.997 24.014H36V43.999H39.2L39.422 43.994H40.793C42.561 43.994 43.995 42.559 43.995 40.794V39.422L44 39.201V8.8L43.996 8.578Z" fill="#0068B7"/>
</g>
<defs>
<clipPath id="clip0_538_13916">
<rect width="40" height="39.999" fill="white" transform="translate(4 4)"/>
</clipPath>
</defs>
</svg>
