<svg width="48" height="48" viewBox="0 0 48 48" fill="none" xmlns="http://www.w3.org/2000/svg">
<g clip-path="url(#clip0_538_13917)">
<path d="M46 16.2425V12.5072C46 12.1992 45.817 12.0005 45.4868 12.0005H31.5947C30.1473 12.0005 30.1123 12.5104 30.1123 13.3034V22.1709C30.1123 23.0876 29.9733 22.9193 29.726 22.6262C28.0903 20.6574 21.787 13.0776 21.4507 12.6902C20.8321 11.9751 20.434 12.0001 19.2346 12.0001H3.9098C2.00572 12.0001 2 12.93 2 13.9778V34.6693C2 35.4855 2.48352 35.9694 3.56493 35.9694H14.3719C15.0791 35.9694 15.5122 35.6478 15.5122 35.0274V25.8268C15.5122 25.5763 15.5948 25.5659 15.7656 25.7336C15.9011 25.8679 21.327 32.4 23.4516 34.9584C24.3386 35.8704 24.4944 35.9694 26.0125 35.9694H42.1658C43.557 35.9694 43.6274 35.3369 43.6274 34.6693V17.1327C43.6274 17.1327 44.7971 17.0294 45.3103 16.9737C45.8292 16.9147 46 16.7557 46 16.2425Z" fill="#E60012"/>
</g>
<defs>
<clipPath id="clip0_538_13917">
<rect width="44" height="23.9693" fill="white" transform="translate(2 12)"/>
</clipPath>
</defs>
</svg>
