<svg width="48" height="48" viewBox="0 0 48 48" fill="none" xmlns="http://www.w3.org/2000/svg">
<g clip-path="url(#clip0_538_13918)">
<path d="M25.482 4V10.5759H25.477V17.0155H18.488C17.69 17.0325 17.046 17.6793 17.032 18.4805V21.6972H17.034V36.7723C12.534 34.2996 9.484 29.5075 9.484 23.9995C9.484 16.463 15.196 10.2641 22.516 9.51904V4C12.163 4.76208 4 13.4237 4 23.9995C4 34.5743 12.163 43.2379 22.516 43.999V30.9835H29.533C30.325 30.9494 30.958 30.2957 30.958 29.4945L30.959 30.3097V11.2227C35.463 13.6944 38.517 18.4895 38.517 23.9995C38.517 31.537 32.804 37.7359 25.483 38.48V43.999C35.835 43.2389 44 34.5753 44 23.9995C44 13.4237 35.835 4.76107 25.482 4ZM26.231 26.2316H21.785V21.7674H26.231V26.2316Z" fill="#C7000B"/>
</g>
<defs>
<clipPath id="clip0_538_13918">
<rect width="40" height="40" fill="white" transform="translate(4 4)"/>
</clipPath>
</defs>
</svg>
