<svg width="48" height="48" viewBox="0 0 48 48" fill="none" xmlns="http://www.w3.org/2000/svg">
<g clip-path="url(#clip0_538_13919)">
<path d="M47.7157 21.9068C41.8489 15.8924 33.396 12.1172 24 12.1172C14.604 12.1172 6.15125 15.8924 0.285645 21.9068L15.7836 34.4552V34.4564C18.1608 33.05 20.9784 32.2352 24 32.2352C27.0216 32.2352 29.8248 33.0464 32.1996 34.4528L47.7157 21.9068Z" fill="url(#paint0_linear_538_13919)"/>
<path d="M47.8524 21.771C41.7492 15.513 33.0552 11.9238 24 11.9238C14.946 11.9238 6.2508 15.513 0.1488 21.7722L0 21.9234L0.1644 22.0566L15.8052 34.725V34.4994V34.725C18.2316 33.291 21.1152 32.4282 24 32.4282C26.8848 32.4282 29.7804 33.2382 32.2068 34.6734L47.8356 22.0566L48 21.9234L47.8524 21.771ZM32.052 34.353L32.3148 34.2882C29.8284 32.8182 26.9532 32.0418 24 32.0418C21.0468 32.0418 18.1716 32.8182 15.6852 34.2882L15.9756 34.455V34.3626L15.9048 34.3038L0.4248 21.7698L0.432 22.0218C6.4632 15.837 15.0492 12.309 24 12.309C32.9508 12.309 41.5344 15.8442 47.568 22.029L47.574 21.7734L32.0952 34.3038L32.07 34.3254L32.052 34.353Z" fill="#BFC0C0"/>
<path d="M23.0978 24.4228C23.4074 23.896 23.4134 23.9104 23.093 24.0628C20.4902 25.3084 16.5026 29.4568 15.4298 33.1132C14.6546 35.6896 19.0394 34.4548 19.9454 33.034C21.8126 30.1036 21.4466 27.088 23.0978 24.4228Z" fill="url(#paint1_linear_538_13919)"/>
<path d="M22.8147 21.2067C23.0499 21.2895 23.0907 21.1671 23.0079 21.1119C18.9999 18.4491 16.4559 14.1159 15.5211 12.9555C15.3939 12.7983 13.6107 12.9411 13.2147 14.0547C12.6447 19.6407 19.2783 19.9587 22.8147 21.2067Z" fill="url(#paint2_linear_538_13919)"/>
<path d="M22.9333 22.5654C23.0857 22.6758 22.9849 22.7286 22.9189 22.7442C17.3401 24.0066 12.0361 26.931 9.1441 29.2362C6.8341 31.077 5.0041 28.8474 7.1725 26.991C7.6213 26.6082 8.1133 26.2374 8.6545 25.8954C11.1037 24.3498 14.7529 23.661 17.4517 23.0742C21.2893 22.2426 22.6849 22.3866 22.9333 22.5654Z" fill="url(#paint3_linear_538_13919)"/>
<path d="M28.086 22.437C27.894 22.3926 27.9216 22.3074 28.1184 22.2942C29.388 22.215 34.2396 21.9534 37.6356 22.7982C39.9084 23.3658 41.682 25.029 41.5848 25.6938C39.9924 25.6434 38.058 25.2138 36.024 24.3258C31.4952 22.3458 29.2908 22.5942 28.086 22.437Z" fill="url(#paint4_linear_538_13919)"/>
<path d="M33.7704 15.5928C33.7212 16.7904 31.1604 18.7368 27.4308 20.4288C27.2868 20.526 27.2856 20.64 27.4596 20.6112C33.8232 19.5672 35.7864 17.622 35.7864 16.8072C35.7864 15.9 34.3692 15.4932 33.7704 15.5928Z" fill="url(#paint5_linear_538_13919)"/>
<path d="M25.1112 24.4712C26.8692 25.19 26.7048 27.3932 27.8952 29.8196C28.8828 31.8332 30.5724 32.0912 31.0032 32.3984C31.2972 32.2124 31.3116 31.6184 31.4436 31.0532C31.6668 30.098 30.7092 27.5396 29.9784 26.198C29.0016 24.434 26.5404 23.9876 25.1736 24.302C24.9144 24.3608 24.8124 24.4028 25.1112 24.4712Z" fill="url(#paint6_linear_538_13919)"/>
<path d="M26.3652 20.4956C25.6884 19.31 25.9188 18.0452 24.2136 16.3148C23.6316 16.1804 22.242 16.124 22.0284 17.084C21.7068 18.524 24.1284 19.6448 26.2812 20.522C26.3952 20.5676 26.3928 20.5436 26.3652 20.4956Z" fill="url(#paint7_linear_538_13919)"/>
<path d="M23.3099 23.9551C18.9743 29.2543 15.7067 37.5067 15.7067 37.5067C15.7067 37.5067 14.9879 35.4631 14.8151 33.4327C14.6087 31.0159 15.6827 29.8831 16.8791 28.4239C18.8495 26.0191 23.3099 23.9551 23.3099 23.9551Z" fill="url(#paint8_radial_538_13919)"/>
<path d="M23.107 21.1564C18.9718 17.0692 16.0378 10 16.0378 10C16.0378 10 15.4126 11.92 15.061 13.5628C14.8114 14.7268 15.7786 16.8928 16.5922 17.6152C19.9402 20.5912 23.107 21.1564 23.107 21.1564Z" fill="url(#paint9_radial_538_13919)"/>
<path d="M22.6776 22.3295C23.292 22.3379 23.0112 22.4615 22.6956 22.5179C12.738 24.2975 1.67041 29.5211 1.67041 29.5211C1.67041 29.5211 2.76961 26.9183 8.32441 24.7271C14.0832 22.4555 20.3304 22.2971 22.6776 22.3295Z" fill="url(#paint10_radial_538_13919)"/>
<path d="M31.0862 32.3435C32.4854 30.2543 32.9162 27.4487 31.4066 25.6271C29.7446 23.6207 26.1134 23.5343 24.9302 24.3767C29.201 24.2687 28.1678 29.1659 31.0862 32.3435Z" fill="url(#paint11_radial_538_13919)"/>
<path d="M27.6552 20.5541C27.2508 20.6537 27.2004 20.5133 27.4932 20.3105C30.2844 17.9585 32.1024 14.5889 32.1912 14.0465C32.2716 13.5617 32.1204 13.4021 32.316 13.4261C33.1752 13.5317 34.2648 15.9485 33.8952 16.9145C33.234 18.6521 30.198 19.9349 27.6552 20.5541Z" fill="url(#paint12_radial_538_13919)"/>
<path d="M27.7846 22.4298C27.1078 22.5042 27.151 22.269 27.8254 22.1094C30.373 21.507 37.0726 20.4006 40.3618 22.0554C43.093 23.4306 41.5642 25.7442 41.5642 25.7442C41.5642 25.7442 41.2318 24.6942 39.0442 23.6622C35.8006 22.131 30.0886 22.1766 27.7846 22.4298Z" fill="url(#paint13_radial_538_13919)"/>
<path d="M26.8706 13.9453C26.2046 14.0965 24.9206 14.5201 24.125 15.6265C23.2022 16.9129 24.3842 19.4821 26.3234 20.4997C25.9826 18.7477 28.067 16.5433 26.8706 13.9453Z" fill="url(#paint14_radial_538_13919)"/>
</g>
<defs>
<linearGradient id="paint0_linear_538_13919" x1="24" y1="32.1668" x2="24" y2="12.116" gradientUnits="userSpaceOnUse">
<stop stop-color="#00A0E9"/>
<stop offset="0.719" stop-color="#00449B"/>
<stop offset="0.786" stop-color="#004198"/>
<stop offset="0.871" stop-color="#00398E"/>
<stop offset="0.967" stop-color="#192B7E"/>
<stop offset="1" stop-color="#1E2678"/>
</linearGradient>
<linearGradient id="paint1_linear_538_13919" x1="23.897" y1="33.1468" x2="23.897" y2="12.73" gradientUnits="userSpaceOnUse">
<stop stop-color="#008ED8"/>
<stop offset="0.719" stop-color="#1D2088"/>
<stop offset="0.761" stop-color="#1D2086"/>
<stop offset="0.815" stop-color="#1E2382"/>
<stop offset="0.875" stop-color="#1E2679"/>
<stop offset="0.94" stop-color="#1F296C"/>
<stop offset="1" stop-color="#1F2C5D"/>
</linearGradient>
<linearGradient id="paint2_linear_538_13919" x1="23.8971" y1="33.1467" x2="23.8971" y2="12.7299" gradientUnits="userSpaceOnUse">
<stop stop-color="#008ED8"/>
<stop offset="0.719" stop-color="#1D2088"/>
<stop offset="0.761" stop-color="#1D2086"/>
<stop offset="0.815" stop-color="#1E2382"/>
<stop offset="0.875" stop-color="#1E2679"/>
<stop offset="0.94" stop-color="#1F296C"/>
<stop offset="1" stop-color="#1F2C5D"/>
</linearGradient>
<linearGradient id="paint3_linear_538_13919" x1="23.8969" y1="33.1458" x2="23.8969" y2="12.729" gradientUnits="userSpaceOnUse">
<stop stop-color="#008ED8"/>
<stop offset="0.719" stop-color="#1D2088"/>
<stop offset="0.761" stop-color="#1D2086"/>
<stop offset="0.815" stop-color="#1E2382"/>
<stop offset="0.875" stop-color="#1E2679"/>
<stop offset="0.94" stop-color="#1F296C"/>
<stop offset="1" stop-color="#1F2C5D"/>
</linearGradient>
<linearGradient id="paint4_linear_538_13919" x1="23.8968" y1="33.147" x2="23.8968" y2="12.7302" gradientUnits="userSpaceOnUse">
<stop stop-color="#008ED8"/>
<stop offset="0.719" stop-color="#1D2088"/>
<stop offset="0.761" stop-color="#1D2086"/>
<stop offset="0.815" stop-color="#1E2382"/>
<stop offset="0.875" stop-color="#1E2679"/>
<stop offset="0.94" stop-color="#1F296C"/>
<stop offset="1" stop-color="#1F2C5D"/>
</linearGradient>
<linearGradient id="paint5_linear_538_13919" x1="23.8968" y1="33.1464" x2="23.8968" y2="12.7296" gradientUnits="userSpaceOnUse">
<stop stop-color="#008ED8"/>
<stop offset="0.719" stop-color="#1D2088"/>
<stop offset="0.761" stop-color="#1D2086"/>
<stop offset="0.815" stop-color="#1E2382"/>
<stop offset="0.875" stop-color="#1E2679"/>
<stop offset="0.94" stop-color="#1F296C"/>
<stop offset="1" stop-color="#1F2C5D"/>
</linearGradient>
<linearGradient id="paint6_linear_538_13919" x1="23.8968" y1="33.1472" x2="23.8968" y2="12.7304" gradientUnits="userSpaceOnUse">
<stop stop-color="#008ED8"/>
<stop offset="0.719" stop-color="#1D2088"/>
<stop offset="0.761" stop-color="#1D2086"/>
<stop offset="0.815" stop-color="#1E2382"/>
<stop offset="0.875" stop-color="#1E2679"/>
<stop offset="0.94" stop-color="#1F296C"/>
<stop offset="1" stop-color="#1F2C5D"/>
</linearGradient>
<linearGradient id="paint7_linear_538_13919" x1="23.8968" y1="33.146" x2="23.8968" y2="12.7292" gradientUnits="userSpaceOnUse">
<stop stop-color="#008ED8"/>
<stop offset="0.719" stop-color="#1D2088"/>
<stop offset="0.761" stop-color="#1D2086"/>
<stop offset="0.815" stop-color="#1E2382"/>
<stop offset="0.875" stop-color="#1E2679"/>
<stop offset="0.94" stop-color="#1F296C"/>
<stop offset="1" stop-color="#1F2C5D"/>
</linearGradient>
<radialGradient id="paint8_radial_538_13919" cx="0" cy="0" r="1" gradientUnits="userSpaceOnUse" gradientTransform="translate(22.1519 24.8863) scale(15.4176 15.4176)">
<stop offset="0.006" stop-color="#FFF100"/>
<stop offset="0.234" stop-color="#FFEE00"/>
<stop offset="0.518" stop-color="#FFE500"/>
<stop offset="0.747" stop-color="#FFD900"/>
<stop offset="0.81" stop-color="#F8D000"/>
<stop offset="0.918" stop-color="#E1B600"/>
<stop offset="1" stop-color="#CE9F00"/>
</radialGradient>
<radialGradient id="paint9_radial_538_13919" cx="0" cy="0" r="1" gradientTransform="matrix(14.5328 -0.79716 0.84315 17.2616 23.3588 21.2474)" gradientUnits="userSpaceOnUse">
<stop offset="0.006" stop-color="#FFF100"/>
<stop offset="0.234" stop-color="#FFEE00"/>
<stop offset="0.518" stop-color="#FFE500"/>
<stop offset="0.747" stop-color="#FFD900"/>
<stop offset="0.81" stop-color="#F8D000"/>
<stop offset="0.918" stop-color="#E1B600"/>
<stop offset="1" stop-color="#CE9F00"/>
</radialGradient>
<radialGradient id="paint10_radial_538_13919" cx="0" cy="0" r="1" gradientTransform="matrix(27.7935 0.140088 0.140088 27.9335 25.1672 31.164)" gradientUnits="userSpaceOnUse">
<stop offset="0.006" stop-color="#FFF100"/>
<stop offset="0.234" stop-color="#FFEE00"/>
<stop offset="0.518" stop-color="#FFE500"/>
<stop offset="0.747" stop-color="#FFD900"/>
<stop offset="0.81" stop-color="#F8D000"/>
<stop offset="0.918" stop-color="#E1B600"/>
<stop offset="1" stop-color="#CE9F00"/>
</radialGradient>
<radialGradient id="paint11_radial_538_13919" cx="0" cy="0" r="1" gradientUnits="userSpaceOnUse" gradientTransform="translate(26.3906 23.8175) scale(11.2344)">
<stop offset="0.006" stop-color="#FFF100"/>
<stop offset="0.234" stop-color="#FFEE00"/>
<stop offset="0.518" stop-color="#FFE500"/>
<stop offset="0.747" stop-color="#FFD900"/>
<stop offset="0.81" stop-color="#F8D000"/>
<stop offset="0.918" stop-color="#E1B600"/>
<stop offset="1" stop-color="#CE9F00"/>
</radialGradient>
<radialGradient id="paint12_radial_538_13919" cx="0" cy="0" r="1" gradientUnits="userSpaceOnUse" gradientTransform="translate(26.22 21.4205) scale(12.9636 12.9636)">
<stop offset="0.006" stop-color="#FFF100"/>
<stop offset="0.234" stop-color="#FFEE00"/>
<stop offset="0.518" stop-color="#FFE500"/>
<stop offset="0.747" stop-color="#FFD900"/>
<stop offset="0.81" stop-color="#F8D000"/>
<stop offset="0.918" stop-color="#E1B600"/>
<stop offset="1" stop-color="#CE9F00"/>
</radialGradient>
<radialGradient id="paint13_radial_538_13919" cx="0" cy="0" r="1" gradientUnits="userSpaceOnUse" gradientTransform="translate(28.8736 21.6206) rotate(1.7756) scale(15.2593 15.2593)">
<stop offset="0.006" stop-color="#FFF100"/>
<stop offset="0.234" stop-color="#FFEE00"/>
<stop offset="0.518" stop-color="#FFE500"/>
<stop offset="0.747" stop-color="#FFD900"/>
<stop offset="0.81" stop-color="#F8D000"/>
<stop offset="0.918" stop-color="#E1B600"/>
<stop offset="1" stop-color="#CE9F00"/>
</radialGradient>
<radialGradient id="paint14_radial_538_13919" cx="0" cy="0" r="1" gradientUnits="userSpaceOnUse" gradientTransform="translate(25.8206 22.1125) scale(20.46 20.46)">
<stop offset="0.006" stop-color="#FFF100"/>
<stop offset="0.25" stop-color="#FFE900"/>
<stop offset="0.584" stop-color="#FFD900"/>
<stop offset="0.687" stop-color="#F8D000"/>
<stop offset="0.865" stop-color="#E1B600"/>
<stop offset="1" stop-color="#CE9F00"/>
</radialGradient>
<clipPath id="clip0_538_13919">
<rect width="48" height="27.5076" fill="white" transform="translate(0 10)"/>
</clipPath>
</defs>
</svg>
