<svg width="48" height="48" viewBox="0 0 48 48" fill="none" xmlns="http://www.w3.org/2000/svg">
<g clip-path="url(#clip0_538_13923)">
<path d="M12 44.9996H20.7257V30.1452L33.9203 21.4183C33.9203 21.4183 36.7554 19.772 36.7554 16.7327C36.7554 13.9836 33.9203 11.7569 33.9203 11.7569L20.5196 3.34375L20.6211 12.6914L28.4122 17.575L12 28.2755V44.9996Z" fill="#541C0F"/>
<path d="M12 3H20.7257V17.857L33.9203 26.5814C33.9203 26.5814 36.7554 28.2276 36.7554 31.2676C36.7554 34.0154 33.9203 36.2446 33.9203 36.2446L20.5196 44.6571L20.6211 35.3095L28.4122 30.4259L12 19.7235V3V3Z" fill="#D7A809"/>
</g>
<defs>
<clipPath id="clip0_538_13923">
<rect width="24.7554" height="42" fill="white" transform="translate(12 3)"/>
</clipPath>
</defs>
</svg>
