<svg width="48" height="48" viewBox="0 0 48 48" fill="none" xmlns="http://www.w3.org/2000/svg">
<g clip-path="url(#clip0_538_13906)">
<path d="M17.4852 25.0105C6.02153 18.3309 4.47869 7 4.47869 7C2.89923 9.99411 1.68601 19.0543 5.77431 25.688C10.6912 33.6678 19.3211 35.1831 19.3211 35.1831C16.8168 35.2655 8.39759 35.0183 8.39759 35.0183C10.4394 37.0098 16.6383 40.3519 16.6383 40.3519C39.0987 39.7704 44.9862 28.0961 44.9862 28.0961C40.2066 30.1426 29.3701 31.9372 17.4852 25.0105ZM39.0804 12.1687C41.6945 20.4094 36.7272 26.4068 28.8253 27.7848C45.3067 31.8869 45.3616 16.6141 39.0804 12.1687Z" fill="url(#paint0_linear_538_13906)"/>
<path d="M24.3936 9.2207C24.3936 9.2207 23.5054 12.8832 18.2817 13.8538C18.2817 13.8538 25.3092 14.3665 28.4956 20.6798C28.4956 20.6798 28.1522 15.9689 31.7003 13.7577C31.6866 13.7577 26.527 11.9264 24.3936 9.2207Z" fill="#F39800"/>
</g>
<defs>
<linearGradient id="paint0_linear_538_13906" x1="2.90838" y1="23.6782" x2="45.3113" y2="23.6782" gradientUnits="userSpaceOnUse">
<stop stop-color="#0075C2"/>
<stop offset="1" stop-color="#009CE5"/>
</linearGradient>
<clipPath id="clip0_538_13906">
<rect width="42" height="33.3519" fill="white" transform="translate(3 7)"/>
</clipPath>
</defs>
</svg>
