<svg width="48" height="48" viewBox="0 0 48 48" fill="none" xmlns="http://www.w3.org/2000/svg">
<g clip-path="url(#clip0_538_13907)">
<path d="M42.0031 2C41.7185 6.91908 40.0884 12.7039 37.0942 18.4556C30.7494 30.6662 19.5638 38.9912 12.9013 35.8063C8.88571 33.8842 7.60368 29.0084 8.36903 22.2234C4.24846 33.1142 5.61799 42.3381 11.5925 45.1923C18.9035 48.6893 30.5689 40.5016 37.6486 26.9168C42.5106 17.588 43.9465 8.13849 42.0031 2" fill="#004898"/>
<path d="M34.1672 11.1483C27.7046 16.4054 19.9958 18.7917 16.9113 16.025C14.9689 14.2825 15.1393 11.1428 16.6811 7.95705C11.8762 13.0391 10.6393 18.9197 13.417 21.6653C16.8496 25.0638 25.3053 23.4971 32.7535 16.9866C38.0677 12.3429 40.9228 6.43003 41.2286 2C40.3435 4.66722 37.9028 8.1127 34.1672 11.1483Z" fill="#F5A200"/>
</g>
<defs>
<clipPath id="clip0_538_13907">
<rect width="36.8401" height="44" fill="white" transform="translate(6 2)"/>
</clipPath>
</defs>
</svg>
