<svg width="48" height="48" viewBox="0 0 48 48" fill="none" xmlns="http://www.w3.org/2000/svg">
<g clip-path="url(#clip0_538_13908)">
<path fill-rule="evenodd" clip-rule="evenodd" d="M8.29395 17.4522C8.29395 17.4522 14.4535 9.12806 24.5062 14.3017C24.5062 14.3017 29.6359 10.8321 36.1055 11.0063C36.8596 11.0262 42.0043 10.9652 43.7342 13.4397C44.599 14.6697 44.5019 16.2118 43.0388 17.4121C43.0388 17.4121 36.0619 11.9804 18.8996 17.1736C18.8996 17.1736 16.416 15.8508 13.2128 16.0732C10.2281 16.282 8.29395 17.4522 8.29395 17.4522Z" fill="#6FBA2C"/>
<path fill-rule="evenodd" clip-rule="evenodd" d="M41.1739 37.7629L48.0004 23.6625C48.0004 23.6625 44.5157 13.88 26.0736 16.4018C9.56215 18.6644 0 30.0242 0 30.0242C0 30.0242 10.8955 22.7104 24.7951 26.6053C36.3023 29.8441 41.1739 37.7629 41.1739 37.7629Z" fill="#00428E"/>
</g>
<defs>
<clipPath id="clip0_538_13908">
<rect width="48" height="26.7635" fill="white" transform="translate(0 11)"/>
</clipPath>
</defs>
</svg>
