<svg width="48" height="48" viewBox="0 0 48 48" fill="none" xmlns="http://www.w3.org/2000/svg">
<g clip-path="url(#clip0_538_13910)">
<path d="M6 6H42.0013V42H6V6Z" fill="#D7000F"/>
<path d="M8.9043 8.89844V39.1033H22.6085V35.078C22.6085 33.7216 23.9686 32.8828 25.2279 32.8828C26.4865 32.8828 27.8441 33.7216 27.8441 35.078L27.8467 39.1033H39.0959L39.0971 26.68H13.411V34.8291H15.5725V28.8416H36.9356V36.943H30.0139V35.078C30.0139 32.6713 27.8676 30.7123 25.2285 30.7123C22.59 30.7123 20.4431 32.6713 20.4431 35.078V36.943H11.0652V24.3959H39.0978V22.2343H11.0652V19.9502H39.0978V17.7911H11.0652V15.5051H39.0978V13.3441H11.0652V11.0587H39.0978V8.89844H8.9043Z" fill="white"/>
</g>
<defs>
<clipPath id="clip0_538_13910">
<rect width="36.0013" height="36" fill="white" transform="translate(6 6)"/>
</clipPath>
</defs>
</svg>
