<svg width="48" height="48" viewBox="0 0 48 48" fill="none" xmlns="http://www.w3.org/2000/svg">
<g clip-path="url(#clip0_538_13909)">
<path fill-rule="evenodd" clip-rule="evenodd" d="M22.6431 5.40834C22.6431 5.40834 26.0378 2.79007 31.8805 4.69352C31.8805 4.69352 33.8451 5.40834 36.1093 7.43693L43.1422 14.8246L39.3838 18.576L28.6589 7.67203C28.6589 7.67229 26.8716 5.4695 22.6431 5.40834ZM38.1374 19.8901L33.7259 24.1764C33.7259 24.1764 33.0111 25.1939 32.4121 24.2376L24.3096 16.3126C24.3096 16.3126 23.595 15.3591 23.0588 16.1965L14.8954 24.5369C14.8954 24.5369 14.3591 25.3712 15.0128 25.7286L22.9979 33.7183C22.9979 33.7183 23.6544 34.7875 24.2485 33.9501L32.5344 25.6097C32.5344 25.6097 32.7729 24.8977 34.0833 25.0719H42.5435C42.5435 25.0719 42.9035 33.6569 36.3472 39.016C36.3472 39.016 27.8262 47.5397 16.148 42.2939C16.148 42.2939 4.88349 38.3621 5.00091 23.7612C5.00091 23.7612 5.3018 13.9875 14.1806 8.80568C14.1806 8.80568 20.6754 3.97844 25.8605 7.55307L38.1374 19.8901Z" fill="#003A85"/>
</g>
<defs>
<clipPath id="clip0_538_13909">
<rect width="38.1423" height="40" fill="white" transform="translate(5 4)"/>
</clipPath>
</defs>
</svg>
