<svg width="48" height="48" viewBox="0 0 48 48" fill="none" xmlns="http://www.w3.org/2000/svg">
<g clip-path="url(#clip0_538_13911)">
<path fill-rule="evenodd" clip-rule="evenodd" d="M23.955 44.089C35.041 44.089 44 35.13 44 24.043C44 21.561 43.557 19.165 42.672 16.859H36.906C38.058 19.077 38.768 21.561 38.768 24.043C38.768 32.203 32.116 38.856 23.955 38.856C15.797 38.856 9.233 32.203 9.233 24.043C9.233 15.885 15.797 9.232 23.955 9.232C24.754 9.232 25.553 9.321 26.351 9.408V16.859H16.771V31.227H31.14V5.33C29.633 4.797 28.036 4.355 26.351 4.177C25.552 4.089 24.753 4 23.955 4C12.958 4 4 12.957 4 24.043C4 35.13 12.958 44.089 23.955 44.089Z" fill="#00693E"/>
<path fill-rule="evenodd" clip-rule="evenodd" d="M21.6499 21.6504H26.3499V26.4394H21.6499V21.6504Z" fill="white"/>
</g>
<defs>
<clipPath id="clip0_538_13911">
<rect width="40" height="40.089" fill="white" transform="translate(4 4)"/>
</clipPath>
</defs>
</svg>
