<svg width="48" height="48" viewBox="0 0 48 48" fill="none" xmlns="http://www.w3.org/2000/svg">
<g clip-path="url(#clip0_538_13912)">
<path d="M21.9531 21.5793C19.4481 21.641 17.9297 22.4554 17.9297 22.4554V25.1646C18.7286 24.5602 19.6643 24.1622 20.6538 24.0057C22.3125 23.7399 23.3311 24.0376 23.3311 24.8818V26.1577C23.3311 26.1577 20.9664 25.5325 19.1674 26.33C18.3111 26.6939 17.6313 27.3786 17.2736 28.2375C16.9159 29.0964 16.9087 30.0612 17.2535 30.9254C18.5974 34.4554 22.8229 33.0307 24.2179 32.9201C24.7636 32.8601 25.3134 32.8445 25.8617 32.8733V24.7266C25.868 22.7851 24.9664 21.5028 21.9531 21.5793ZM23.2992 31.0041C23.2992 31.0041 22.4486 31.0509 21.8276 31.1444C21.2067 31.238 20.0435 31.4422 19.5119 30.5341C18.9802 29.6261 19.3226 28.4076 20.3625 28.0929C21.4023 27.7781 22.6017 27.9674 23.3056 28.0929L23.2992 31.0041ZM26.9483 22.0493V33.1498H29.4831V24.1779C30.2317 24.0351 30.9922 23.9639 31.7543 23.9653C32.8962 23.9802 32.9898 24.6862 32.9898 25.3752V33.1498H35.5586V25.7856C35.5586 22.4044 34.3848 21.9451 32.741 21.6878C31.1822 21.4475 29.6554 21.877 28.6389 21.9706C28.0771 22.0258 27.5128 22.052 26.9483 22.0493ZM36.6283 18.1875V33.1476H39.2801V28.2906L42.9738 33.1476H45.9999L41.3152 26.7255L45.8957 21.7154L42.8058 21.7367L39.2588 25.4305L39.2801 18.1875H36.6283Z" fill="#6B1685"/>
<path d="M5.05795 28.1836H16.0925C16.0917 28.0122 16.0803 27.8411 16.0585 27.6711L16.0351 27.5031H5.05795V26.9417H15.9032C15.871 26.8175 15.8312 26.6953 15.7842 26.576L15.714 26.4016C15.7033 26.3739 15.6927 26.3463 15.68 26.3186C15.6672 26.291 15.6587 26.274 15.6481 26.2527H5.05795V25.6913H15.361C15.2153 25.4446 15.048 25.2112 14.8612 24.9938H10.5061V24.4409H14.2892C13.953 24.1608 13.5794 23.9289 13.1792 23.7519H10.5061V23.1905H12.42C12.9004 23.0448 13.3496 22.8111 13.7448 22.5015H5.05795V21.9486H14.3445C14.5271 21.7329 14.6874 21.4992 14.823 21.2511H5.05795V20.6897H15.0952C15.1186 20.6302 15.2483 20.1751 15.2823 20.0007H5.05795V19.4393H15.3652C15.3652 19.4287 15.3525 18.7865 15.3503 18.7503H5.05795V18.1889H15.2483C15.1927 17.9531 15.1165 17.7225 15.0207 17.4999H11.3184V16.9385H14.7209C14.5672 16.6911 14.3883 16.4602 14.1871 16.2495H11.3184V15.6881H13.5279C12.9282 15.282 12.2289 15.0474 11.5056 15.0098H2V33.1916H11.3184C11.7802 33.1859 12.2384 33.1099 12.6773 32.9662C12.756 32.9428 12.8304 32.913 12.907 32.8854H12.9261C13.1932 32.781 13.4508 32.6536 13.6959 32.5047H11.3184V31.9412H14.4551C14.4934 31.9093 14.5295 31.8753 14.5678 31.8391L14.589 31.82C14.6784 31.7335 14.7634 31.6421 14.8442 31.5457C14.925 31.4542 15.0016 31.3585 15.076 31.2628H11.3184V30.6908H15.4609C15.5077 30.6079 15.5524 30.5207 15.5949 30.4356C15.6653 30.2972 15.7285 30.1552 15.7842 30.0103H5.05795V29.4425H15.9585C15.9585 29.4064 15.9777 29.3702 15.9862 29.3341C15.9862 29.3341 16.0351 29.1086 16.0691 28.7833C16.0701 28.7734 16.0701 28.7634 16.0691 28.7535H5.05795V28.1836Z" fill="url(#paint0_linear_538_13912)"/>
</g>
<defs>
<linearGradient id="paint0_linear_538_13912" x1="13.0537" y1="15.401" x2="2.72302" y2="33.1895" gradientUnits="userSpaceOnUse">
<stop stop-color="#FAC03D"/>
<stop offset="0.01" stop-color="#F9BA3C"/>
<stop offset="0.09" stop-color="#F58F32"/>
<stop offset="0.18" stop-color="#F16829"/>
<stop offset="0.27" stop-color="#ED4822"/>
<stop offset="0.37" stop-color="#EB2E1C"/>
<stop offset="0.48" stop-color="#E91918"/>
<stop offset="0.6" stop-color="#E70B14"/>
<stop offset="0.75" stop-color="#E60313"/>
<stop offset="1" stop-color="#E60012"/>
</linearGradient>
<clipPath id="clip0_538_13912">
<rect width="44" height="18.3052" fill="white" transform="translate(2 15)"/>
</clipPath>
</defs>
</svg>
