<svg width="48" height="48" viewBox="0 0 48 48" fill="none" xmlns="http://www.w3.org/2000/svg">
<g clip-path="url(#clip0_538_13913)">
<path d="M45.9989 23.8375C45.9989 18.1983 38.3467 13.6334 28.922 13.6334C21.3843 13.6334 14.9839 16.5605 12.7263 20.6185L12.7289 20.615C12.51 20.9931 12.402 21.404 12.402 21.8375C12.402 22.8479 13.0367 23.7488 14.0371 24.3381L22.6947 29.3354C23.1421 29.5752 23.6706 29.7209 24.2524 29.7209C24.8206 29.7209 25.3594 29.5752 25.8099 29.3354L34.0185 24.596C34.5693 24.2685 34.9192 23.7706 34.9192 23.2114C34.9192 22.6633 34.588 22.1836 34.0672 21.8604L31.0078 20.0992L24.2521 24.0044L19.1358 21.0488C21.1052 19.2633 24.7918 18.0671 29.0096 18.0671C35.3213 18.0671 40.4316 20.7428 40.4316 24.047C40.3003 29.1634 32.7958 33.1285 23.6803 32.8906C14.5575 32.6508 7.26817 28.3059 7.41144 23.1862H7.40735C7.46784 16.4354 16.3151 11.0461 27.1616 11.153C28.1304 11.1677 29.0705 11.2191 30.0011 11.3086C27.7725 10.4883 24.9907 10 21.9733 10C19.5556 10 17.3013 10.3137 15.3474 10.8513C7.50195 13.0096 2 18.0094 2 23.8374C2 31.6365 11.8535 37.9588 24.0028 37.9588C36.1523 37.9588 46 31.6365 46 23.8374L45.9989 23.8375Z" fill="#003E8D"/>
</g>
<defs>
<clipPath id="clip0_538_13913">
<rect width="44" height="27.9588" fill="white" transform="translate(2 10)"/>
</clipPath>
</defs>
</svg>
