<svg width="48" height="48" viewBox="0 0 48 48" fill="none" xmlns="http://www.w3.org/2000/svg">
<g clip-path="url(#clip0_538_13897)">
<path d="M28.0908 16.3661V40.6069C29.2771 40.314 30.4162 39.8992 31.4917 39.3752V11.6329C31.1345 11.7972 30.4208 12.1305 29.8571 12.5799C28.6939 13.5062 28.0908 14.6854 28.0908 16.3661ZM18.1477 12.5799C17.5841 12.1305 16.8703 11.7971 16.5143 11.6329V39.3764C17.5894 39.9009 18.7277 40.3164 19.9146 40.6081V16.3661C19.9146 14.6854 19.3121 13.5062 18.1477 12.5799ZM30.7756 8.29683C28.698 7.39852 26.4067 6.89976 24.0002 6.89976C21.604 6.89976 19.3234 7.39252 17.2548 8.28258C16.9321 8.44994 16.4955 8.76892 16.4955 9.27671C16.4955 10.1834 17.752 9.99228 19.3234 11.2447C20.779 12.4039 21.5321 14.0343 21.5321 15.8624V40.9206C22.3382 41.0362 23.1619 41.0985 24.0002 41.0985C24.8401 41.0985 25.6662 41.0361 26.4734 40.9206V15.8624C26.4734 14.0342 27.2272 12.4037 28.6808 11.2446C30.2542 9.99221 31.5107 10.1833 31.5107 9.27664C31.5107 8.78261 31.0943 8.46596 30.7756 8.29683ZM24.0002 42.3421C13.8695 42.3421 5.65721 34.1295 5.65721 24.0001C5.65721 13.8699 13.8695 5.65791 24.0002 5.65791C34.1301 5.65791 42.3415 13.87 42.3415 24.0001C42.3415 34.1295 34.1301 42.3421 24.0002 42.3421ZM24.0002 4C12.9546 4 4 12.955 4 24.0001C4 35.0451 12.9546 44 24.0002 44C35.0469 44 44 35.0451 44 24.0001C44 12.955 35.0469 4 24.0002 4V4ZM6.90026 24.0001C6.90026 30.0761 10.069 35.4093 14.8438 38.443V25.3454C12.8978 25.3954 12.1817 26.5747 11.9643 27.0337C11.7864 27.4093 11.6709 27.8052 11.3335 27.8052C10.7686 27.8052 10.3108 26.1729 10.3108 24.1584C10.3108 22.1433 10.7686 20.5111 11.3335 20.5111C11.6709 20.5111 11.7865 20.9069 11.9643 21.2826C12.1816 21.741 12.8977 22.9196 14.8438 22.9691V9.55646C10.069 12.5889 6.90026 17.9239 6.90026 24.0001ZM38.3043 27.0336C38.1268 27.4086 38.0126 27.8052 37.6744 27.8052C37.11 27.8052 36.6523 26.1722 36.6523 24.1583C36.6523 22.1432 37.11 20.5111 37.6744 20.5111C38.0126 20.5111 38.1268 20.9069 38.3043 21.2825C38.5175 21.732 39.2074 22.8726 41.0676 22.9648C40.7307 17.3239 37.6597 12.4192 33.161 9.55886V38.4399C37.5751 35.6332 40.6157 30.859 41.0457 25.3512C39.2039 25.4524 38.5175 26.586 38.3043 27.0336Z" fill="#D7000F"/>
</g>
<defs>
<clipPath id="clip0_538_13897">
<rect width="40" height="40" fill="white" transform="translate(4 4)"/>
</clipPath>
</defs>
</svg>
