<svg width="48" height="48" viewBox="0 0 48 48" fill="none" xmlns="http://www.w3.org/2000/svg">
<g clip-path="url(#clip0_538_13914)">
<path d="M19.7998 37.067H23.5328V20.267H19.7998V37.067ZM26.3328 19.944V23.11H29.1528V32.609C29.1528 33.894 29.5048 34.996 30.1658 35.822C30.8268 36.603 31.7518 37.015 32.8098 37.062C33.9998 37.108 35.0128 36.786 35.7618 36.281H35.8058L35.8498 36.235L36.5548 33.252L36.5988 33.022L36.4228 33.114C35.4978 33.711 34.7478 33.986 33.9548 33.986C32.9418 33.986 32.4128 33.39 32.4128 32.105V23.11H35.8058V19.944H32.4128V14.666L29.1968 16.502H29.1528V19.944H26.3328Z" fill="#302F68"/>
<path d="M39.4 37.066H43.133V20.266H39.4V37.066ZM11.896 19.332C9.407 19.332 7.333 20.121 5.673 21.653C3.876 23.278 3 25.459 3 28.199C3 30.891 3.876 33.12 5.673 34.745C7.332 36.277 9.406 37.066 11.896 37.066C14.246 37.066 16.274 36.091 17.887 34.141L17.933 34.094L17.887 34.048L16.043 31.774L15.951 31.681L15.905 31.774C14.706 33.074 13.324 33.724 11.757 33.724C10.236 33.724 8.992 33.213 7.977 32.145C7.01 31.124 6.502 29.824 6.502 28.199C6.502 26.574 7.009 25.274 7.977 24.253C8.991 23.185 10.236 22.674 11.757 22.674C13.324 22.674 14.707 23.324 15.905 24.624L15.951 24.717L16.043 24.624L17.887 22.349L17.933 22.303L17.887 22.256C16.274 20.307 14.246 19.332 11.896 19.332Z" fill="#302F68"/>
<path d="M21.8321 17.419C24.4761 14.526 27.7021 13.079 31.4661 13.079C35.2301 13.079 38.4571 14.526 41.0561 17.419L41.1461 17.465H44.9991L44.8641 17.232C43.3411 14.992 41.3691 13.218 38.9491 11.912C36.5741 10.605 34.1091 9.99805 31.4651 9.99805C28.8671 9.99805 26.3571 10.605 23.9821 11.912C21.6071 13.218 19.5901 14.992 18.0671 17.232L17.9321 17.465H21.7861L21.8311 17.419" fill="#D82F32"/>
</g>
<defs>
<clipPath id="clip0_538_13914">
<rect width="42" height="28" fill="white" transform="translate(3 10)"/>
</clipPath>
</defs>
</svg>
