<svg width="48" height="48" viewBox="0 0 48 48" fill="none" xmlns="http://www.w3.org/2000/svg">
<g clip-path="url(#clip0_538_13898)">
<path d="M43.907 22.071H32.595V22.074C29.784 22.074 27.262 23.299 25.529 25.244C26.574 22.269 29.405 20.136 32.738 20.136H43.626C43.43 19.132 43.159 18.154 42.818 17.209H32.738V17.213C29.852 17.213 27.27 18.505 25.534 20.542C26.533 17.485 29.406 15.275 32.796 15.275H42C38.76 8.601 31.918 4 24 4C12.954 4 4 12.955 4 24C4 35.047 12.954 44.001 24 44.001C35.046 44.001 44 35.047 44 24C44 23.35 43.968 22.706 43.907 22.071ZM29.383 25.705V29.526H25.618C26.369 27.843 27.711 26.481 29.383 25.705ZM24 40.301C14.998 40.301 7.7 33.003 7.7 24C7.7 14.999 14.998 7.7 24 7.7C28.437 7.7 32.454 9.475 35.393 12.35H32.954L32.797 12.353C30.109 12.353 27.683 13.473 25.959 15.273V15.275L25.957 15.276H15.276V32.727H32.727V24.997H40.269C39.751 33.535 32.667 40.301 24 40.301ZM22.335 18.463V29.525H18.617V18.463H22.335Z" fill="#C81528"/>
</g>
<defs>
<clipPath id="clip0_538_13898">
<rect width="40" height="40.001" fill="white" transform="translate(4 4)"/>
</clipPath>
</defs>
</svg>
