<svg width="48" height="48" viewBox="0 0 48 48" fill="none" xmlns="http://www.w3.org/2000/svg">
<g clip-path="url(#clip0_538_13751)">
<path fill-rule="evenodd" clip-rule="evenodd" d="M22.3438 32.091L27.7689 18.3907L33.4259 32.091H22.3438ZM10.9859 32.091L16.4125 18.3907L22.0695 32.091H10.9859ZM39.1728 28.9653H43.4071L43.1748 29.7471H39.5389L39.1728 28.9653ZM38.3473 27.036H43.7739L43.6334 27.8653H38.7144L38.3473 27.036ZM37.5166 25.1031H44L43.9084 25.9324H37.886L37.5166 25.1031ZM36.7347 23.1716H44.0002V23.9986H37.0582L36.7347 23.1716ZM35.9093 21.2399H43.8168L43.9087 22.0693H36.2274L35.9093 21.2399ZM35.0785 19.3119H43.45L43.6334 20.1381H35.448L35.0785 19.3119ZM24.0014 4H24.8247L25.7037 4.09038L26.5296 4.13617L27.3088 4.27331L28.1381 4.41092L28.92 4.59578L29.7006 4.82498L30.4832 5.05394L30.85 5.19155L31.2195 5.33206L31.956 5.6514L32.6889 5.97532L33.3789 6.3419L34.0665 6.71016L34.7601 7.12422L35.4051 7.58358L36.0469 8.04343L36.6427 8.50328L37.2411 9.00892L37.8403 9.56059L38.3898 10.112L38.9429 10.6666L39.4502 11.2655L39.6789 11.5848L39.905 11.9054L40.4126 12.553L40.8276 13.1936L41.2436 13.8397L41.653 14.5283L41.9765 15.2634L42.3467 15.9536L42.6212 16.6887L42.8964 17.4691L43.1743 18.2071H34.6194L29.3326 5.83602L23.8151 19.7717L18.0203 5.97532L7.81447 32.3257L12.4599 38.1184H36.0927L40.4135 31.8155L40.0038 30.8505H42.8053L42.5277 31.5868L42.2071 32.2768L41.8863 32.9646L41.5622 33.6091L41.1527 34.2996L40.7832 34.9411L40.3246 35.5432L39.9062 36.1353L39.4512 36.7374L38.9438 37.3365L38.4396 37.8436L37.8865 38.3934L37.3337 38.9012L36.7805 39.4015L36.1848 39.8662L35.5863 40.3215L34.9874 40.7338L34.3461 41.1496L33.704 41.5159L33.014 41.8892L32.323 42.2069L31.633 42.4879L30.8999 42.7629L30.2091 43.0379L29.4726 43.2676L28.6908 43.4534L27.9528 43.637L27.1739 43.7718L26.807 43.8207L26.3913 43.866L25.608 43.9549L24.8255 44.0034H22.9885L21.9791 43.9087L20.965 43.7718L19.952 43.5881L18.9879 43.3555L18.0695 43.1295L17.1483 42.8051L16.2272 42.4392L15.3535 42.0268L14.4827 41.6075L14.0677 41.333L13.6554 41.1069L12.8251 40.5991L12.042 40.0465L11.2628 39.4504L10.896 39.1265L10.574 38.8055L10.2075 38.485L9.88668 38.161L9.19449 37.471L8.54835 36.7372L8.27625 36.3677L7.9986 35.9524L7.40258 35.1735L7.17194 34.8069L6.89574 34.3907L6.66654 33.9759L6.43589 33.517L5.97604 32.6923L5.56199 31.7692L5.2412 30.8989L4.91897 29.9301L4.64374 29.014L4.50347 28.5064L4.41309 28.0485L4.32151 27.5412L4.23016 27.0358L4.09086 26.0696L4.04507 25.0113L4 24.5059V23.9986L4.0441 22.9892L4.0899 21.9743L4.2292 20.9635L4.41237 19.952L4.64302 18.9879L4.91825 18.0668L5.24048 17.1505L5.56126 16.2308L5.97532 15.3557L6.43517 14.4801L6.66581 14.0677L6.89502 13.6554L7.4021 12.827L7.99812 12.0452L8.54786 11.266L8.87347 10.8958L9.19401 10.5738L9.51673 10.2072L9.88619 9.88378L10.5738 9.19425L11.2626 8.54955L11.6783 8.27311L12.042 7.99836L12.8251 7.40114L13.2411 7.1717L13.6556 6.8955L14.068 6.66292L14.483 6.4342L15.3538 5.9758L16.2274 5.56199L17.1486 5.19204L18.0697 4.91729L18.9882 4.64085L19.4924 4.50323L19.9522 4.41165L20.4596 4.32151L20.9652 4.228L21.9794 4.09086L22.9887 4.04338L23.4944 4H24.0014V4Z" fill="#D71718"/>
</g>
<defs>
<clipPath id="clip0_538_13751">
<rect width="40" height="40.0029" fill="white" transform="translate(4 4)"/>
</clipPath>
</defs>
</svg>
