<svg width="48" height="48" viewBox="0 0 48 48" fill="none" xmlns="http://www.w3.org/2000/svg">
<g clip-path="url(#clip0_538_13905)">
<path d="M28.7793 19.9001L34.2132 17.4085L24.0003 12.8203L13.785 17.4085L23.9253 21.9744L24.0003 21.9905C31.6647 21.9905 37.8943 25.4386 37.8943 29.6728C37.8943 33.9151 31.6647 37.362 24.0003 37.362C16.3355 37.362 10.1047 33.9151 10.1047 29.6728V29.4979H3V29.6728C3 35.3958 12.4199 40.0471 24.0001 40.0471C35.5781 40.0471 44.9998 35.3958 44.9998 29.6728C45 24.8902 38.075 21.073 28.7793 19.9001ZM24.0003 19.2782L19.8429 17.4085L24.0003 15.5408L28.1555 17.4085L24.0003 19.2782Z" fill="#0C63AA"/>
<path d="M24.0001 7C12.4219 7 3 11.649 3 17.3719C3 22.1513 9.91866 25.9752 19.2209 27.1443L13.7848 29.6372L24.0001 34.2216L34.213 29.6372L24.0717 25.0695L24.0001 25.0528C16.3353 25.0528 10.1061 21.6075 10.1061 17.3719C10.1061 13.1363 16.3353 9.68624 24.0001 9.68624C31.6645 9.68624 37.8941 13.1363 37.8941 17.3719V17.5452H44.9998V17.3721C44.9998 11.649 35.5784 7 24.0001 7V7ZM24.0001 27.7683L28.1573 29.6374L24.0001 31.5039L19.8427 29.6374L24.0001 27.7683Z" fill="#129452"/>
</g>
<defs>
<clipPath id="clip0_538_13905">
<rect width="42" height="33.0465" fill="white" transform="translate(3 7)"/>
</clipPath>
</defs>
</svg>
