<svg width="48" height="48" viewBox="0 0 48 48" fill="none" xmlns="http://www.w3.org/2000/svg">
<g clip-path="url(#clip0_538_13899)">
<path d="M4 32.8001V32.3279V32.8001ZM30.6692 11.1501C28.0235 11.1501 25.5564 11.9223 23.4846 13.2551L16.431 17.8094V2L4.0002 12.4882V32.3277C4.0002 38.2159 7.83922 43.2286 13.1633 44.983L15.5361 45.7197C10.6776 43.2948 7.34577 38.3958 7.34577 32.7249C7.34577 24.6703 14.0949 18.1345 22.4031 18.1345C30.164 18.1345 36.548 23.8317 37.3696 31.1502L28.7873 31.1384C28.0413 28.2723 25.43 26.1578 22.337 26.1578C18.6538 26.1578 15.6649 29.148 15.6649 32.8266C15.6649 36.5024 18.654 39.4874 22.337 39.4874C25.7357 39.4874 28.5449 36.9494 28.9443 33.6507L37.433 33.646C37.243 36.5998 36.1461 39.3008 34.4249 41.5199C34.4249 41.5199 39.6771 35.3698 41.4785 32.5906C43.1063 30.0642 43.9996 27.4554 43.9996 24.485C44.0008 17.1199 38.0355 11.1501 30.6692 11.1501Z" fill="#103771"/>
</g>
<defs>
<clipPath id="clip0_538_13899">
<rect width="40" height="43.7197" fill="white" transform="translate(4 2)"/>
</clipPath>
</defs>
</svg>
