<svg width="48" height="48" viewBox="0 0 48 48" fill="none" xmlns="http://www.w3.org/2000/svg">
<path fill-rule="evenodd" clip-rule="evenodd" d="M31.7294 39.9386C29.1969 42.4466 25.7171 43.9998 21.8859 43.9998C17.9926 43.9998 14.4625 42.3958 11.9201 39.8153C7.40503 38.8544 4 34.8294 4 30.0339C4 26.7728 5.57528 23.8688 8.00287 22.0414C8.94738 17.7925 12.7508 14.5996 17.2767 14.5996C18.2452 14.5996 19.1808 14.7459 20.0623 15.0178C16.4178 17.3254 13.9893 21.3927 13.9893 26.0094C13.9893 33.1699 19.8294 39.0091 26.9899 39.0091C28.3154 39.0091 29.5963 38.8087 30.8032 38.4367C30.8945 38.4056 30.9923 38.3878 31.0944 38.3878C31.593 38.3878 31.9994 38.7942 31.9994 39.2927C31.9999 39.5444 31.8973 39.7739 31.7294 39.9386Z" fill="#008CD6"/>
<path fill-rule="evenodd" clip-rule="evenodd" d="M7.00697 21.0002C6.74215 20.1046 6.6001 19.1488 6.6001 18.1695C6.6001 15.176 7.92702 12.4832 10.023 10.6473C10.4482 6.91584 13.6312 4 17.4742 4C18.9888 4 20.4008 4.45344 21.5819 5.23096C22.2056 5.07433 22.8576 4.99013 23.5288 4.99013C26.0594 4.99013 28.3214 6.17594 29.7895 8.0198C29.9249 8.18067 30.0002 8.38622 30.0002 8.59742C30.0002 9.18633 29.4414 9.60496 28.8896 9.47231C27.5307 9.1614 26.1163 8.99677 24.6657 8.99677C16.6717 8.99677 9.80522 13.9851 7.00697 21.0002Z" fill="#B8D200"/>
<path fill-rule="evenodd" clip-rule="evenodd" d="M21.9897 20.9941H31.01C31.5542 20.9941 31.9997 21.4396 31.9997 21.9843V31.0046C31.9997 31.5484 31.5542 31.9943 31.01 31.9943H21.9897C21.4454 31.9943 21 31.5488 21 31.0046V21.9843C21 21.4396 21.4454 20.9941 21.9897 20.9941Z" fill="#004187"/>
<path fill-rule="evenodd" clip-rule="evenodd" d="M42.949 18.1337C43.6212 19.4761 43.9998 20.9888 43.9998 22.5872C43.9998 26.9179 41.2227 30.6197 37.3586 32.005C38.3859 30.2373 38.9748 28.187 38.9748 26.0025C38.9748 19.3929 33.5839 14.0024 26.9747 14.0024C25.2978 14.0024 23.699 14.3495 22.247 14.9756C22.1383 15.0231 22.0184 15.0495 21.8923 15.0495C21.4008 15.0495 21 14.6487 21 14.1572C21 13.9356 21.0814 13.7334 21.2154 13.5772C22.8678 11.5518 25.3815 10.2549 28.1892 10.2549C29.1116 10.2549 30.002 10.3951 30.8416 10.6552C32.0486 9.92239 33.4635 9.5 34.9743 9.5C39.3807 9.5 42.9749 13.0941 42.9749 17.5001C42.9744 17.7136 42.9655 17.9248 42.949 18.1337Z" fill="#009E96"/>
</svg>
