<svg width="48" height="48" viewBox="0 0 48 48" fill="none" xmlns="http://www.w3.org/2000/svg">
<g clip-path="url(#clip0_538_13901)">
<path fill-rule="evenodd" clip-rule="evenodd" d="M37.6153 29.5573C37.4487 29.4862 37.2521 29.5573 37.0942 29.6755C36.9718 29.7492 36.8636 29.8443 36.775 29.9564H36.7566L36.6767 29.9273L36.5818 29.9787L36.5266 30.0639C36.4454 30.097 36.3676 30.1382 36.2946 30.1869L36.0961 30.0838C36.1842 29.9559 36.2946 29.8189 36.4036 29.675C36.5983 29.7138 36.7223 29.5201 36.899 29.5389C37.0051 29.5389 37.0414 29.5389 37.0947 29.5201C37.13 29.5201 37.1799 29.4697 37.2729 29.3985C37.5044 29.2382 37.5751 29.1966 37.7785 28.9743C37.8811 28.8295 37.9906 28.8861 38.0434 28.8009C38.2405 29.029 37.8274 29.2876 37.6153 29.5573ZM35.9164 30.3966L35.8835 30.4484C35.7038 30.5259 35.53 30.5792 35.3484 30.6465C35.2641 30.753 35.143 30.8751 35.0675 30.9831L34.7943 31.0484L34.8529 30.9618L34.6936 31.0731C34.6216 31.0433 34.553 31.0059 34.4888 30.9618C34.3997 31.0484 34.3498 31.1395 34.2907 31.2286C34.2026 31.3506 34.1018 31.3506 34.0292 31.5308H33.9895L33.6907 31.3192C33.0645 31.4707 32.403 31.5652 31.8141 31.7351C31.6917 31.7686 31.5725 31.8125 31.4577 31.8664C31.4049 31.6678 31.4412 31.5366 31.7632 31.4393L31.8141 31.4029C31.9255 31.3506 31.9255 31.4572 32.0461 31.4393C32.1318 31.4393 32.1879 31.4252 32.2407 31.386C32.5483 31.4029 32.8291 31.3656 32.9178 31.1642C32.9405 31.1296 32.9539 31.0897 32.9565 31.0484L33.189 30.9429C33.1352 30.8954 33.08 30.861 33.0258 30.8247L33.08 30.8436C33.3129 30.8746 33.3308 30.9618 33.6902 30.9429L33.7251 30.9274C34.0616 30.6978 34.3493 30.631 34.7939 30.4915C35.143 30.3143 35.2738 30.3816 35.6147 30.1874L35.7038 30.139C35.8472 30.1346 35.9794 30.2053 35.9164 30.3966ZM31.153 31.5656L31.1322 31.5313L31.1066 31.5376L31.0392 31.4581C31.1187 31.4262 31.169 31.4039 31.2426 31.3869L31.3472 31.3516L31.4397 31.4407C31.3758 31.4748 31.31 31.5052 31.2426 31.5317C31.2213 31.5313 31.1923 31.5371 31.153 31.5656ZM30.5656 31.8272L30.4949 31.8795C30.3525 31.8906 30.1743 31.9143 30.0116 31.8906C29.8891 31.8906 29.7796 31.8795 29.675 31.8412L29.7089 31.817C29.6416 31.7884 29.5636 31.7516 29.4968 31.7351L29.4576 31.7666C29.3694 31.7277 29.2946 31.6639 29.2421 31.5831C29.4247 31.4247 29.2968 31.1913 29.6063 31.1095L30.0121 31.139H30.0281C30.2368 31.1913 30.5429 31.2998 30.7366 31.3652L30.7792 31.4388C30.4586 31.6126 30.4058 31.5313 30.5656 31.8272ZM27.9239 31.5313C27.7302 31.493 27.4086 31.3196 27.1916 31.2814C26.8207 31.1923 26.3548 31.2291 26.0313 31.1104C25.947 31.0736 25.8894 30.9831 25.8168 30.9274C25.5848 30.8959 25.3732 30.8436 25.1456 30.8058C24.9964 30.753 24.8361 30.631 24.6777 30.5971L24.5373 30.554L24.1237 30.491C24.0012 30.4329 23.9484 30.3327 23.8031 30.2804C23.6046 30.2048 23.5155 30.2964 23.3566 30.2421C23.3237 30.1869 23.2656 30.1496 23.2147 30.1152C23.0331 30.0363 23.1058 30.1385 22.9276 30.0838C22.7813 30.0528 22.5566 29.9477 22.4113 29.9123H22.129C21.9459 29.8561 21.9653 29.7845 21.7106 29.7351C21.6631 29.782 21.7106 29.785 21.591 29.7666C21.4989 29.7351 20.8059 29.5564 20.7154 29.5196L20.6297 29.4503C20.7686 29.398 20.9299 29.3263 21.019 29.2745C21.3992 29.2861 21.8917 29.3089 22.0907 29.5385C22.1769 29.6266 22.1445 29.7346 22.236 29.8184L22.3217 29.7975C22.5358 29.7467 22.5019 29.7002 22.8975 29.7133C23.2496 29.9264 23.529 29.9782 23.9838 30.0833C24.2463 30.1336 24.3581 30.1051 24.5378 30.1147C24.5998 30.1147 24.6782 30.138 24.7654 30.168C24.9092 30.2039 25.0313 30.3317 25.146 30.369C25.1954 30.3801 25.8754 30.447 26.0318 30.4717C26.2274 30.6126 26.3195 30.6799 26.4991 30.8736C26.6367 30.7864 26.5674 30.6969 26.889 30.6799C27.4091 30.9821 28.1016 30.7366 28.3544 31.3497L28.444 31.4567C28.2435 31.4577 28.0876 31.5656 27.9239 31.5313ZM20.3091 29.4518L20.25 29.3835H20.4471L20.5367 29.4518H20.3091ZM19.0228 29.0818V29.1007C18.8969 29.1196 18.7352 29.1336 18.6659 29.166C18.5608 29.1849 18.4688 29.1849 18.3647 29.197C18.3238 29.1387 18.2873 29.0773 18.2557 29.0135C18.3802 28.935 18.3221 28.92 18.5923 28.8726L18.6659 28.8866C18.8257 28.935 18.9502 28.9195 19.0543 29.0813L19.0228 29.0818ZM17.5056 29.0818C17.2373 29.0629 17.3269 29.1535 17.2174 29.197C16.8789 29.197 16.9501 29.2246 16.8968 29.0285C16.7181 29.0813 16.5569 29.1196 16.4009 29.1535L16.2557 29.0508C16.0392 28.9195 15.8101 28.9195 15.4919 29.2387L15.4363 29.2755H15.3844L15.3481 29.2871H15.3224L15.1835 29.1535C15.0948 29.1844 15.0948 29.1844 15.0416 29.1535C15.0207 29.2242 14.9762 29.2755 14.9365 29.3491H14.814L14.7544 29.2755H14.7776C14.8832 29.197 14.8633 29.197 15.0207 29.1196C15.1481 29.1535 15.1326 29.1535 15.3099 29.1007L15.2939 29.0818L15.3481 29.0629L15.2939 28.9922C15.5249 28.9752 15.9205 28.9118 16.2557 28.8517C16.4712 28.8154 16.646 28.8014 16.7549 28.8154L16.9869 28.9205C17.291 28.9612 17.5061 28.8876 17.7535 28.9752C17.6635 29.029 17.6799 29.0513 17.5056 29.0818ZM14.7045 29.3104L14.6682 29.276H14.7374L14.7045 29.3104ZM14.4507 29.3627L14.4352 29.3835L14.3941 29.3627L14.3796 29.3496C14.3248 29.3278 14.2866 29.3278 14.2391 29.3278L14.2222 29.2246L14.3796 29.166H14.3941C14.4764 29.166 14.4507 29.2387 14.5365 29.2663L14.4241 29.2876L14.4507 29.3627ZM42.0532 15.8353L42.0721 15.8479C42.0852 15.874 42.1287 15.874 42.1447 15.874C42.1287 15.9191 42.1089 15.9757 42.1089 16.014L42.0721 15.9946L41.9999 15.9394C42.0203 15.9196 42.0532 15.8842 42.0532 15.8353ZM43.983 24.7848L43.8775 24.8133L43.8542 24.8351C43.8775 24.8531 43.8775 24.8981 43.8775 24.9155L43.8242 24.9296C43.8014 24.9436 43.7845 25.0289 43.8014 25.0531L43.8242 25.0884L43.8014 25.102C43.7152 25.102 43.7351 25.2119 43.6595 25.2584V25.2463C43.6595 25.1911 43.7467 25.102 43.7007 25.0531H43.6755C43.6434 25.0721 43.6076 25.0841 43.5704 25.0884H43.5506L43.4842 25.149C43.4474 25.149 43.4474 25.1204 43.398 25.1591H43.3782L43.398 25.1727C43.398 25.1906 43.3782 25.2114 43.3419 25.2327L43.2658 25.2584C43.2857 25.2831 43.3022 25.3039 43.2857 25.3175L43.2658 25.332V25.349L43.3022 25.332L43.3235 25.3175H43.3419L43.3545 25.3698C43.4111 25.349 43.5012 25.332 43.5501 25.332L43.57 25.349L43.5501 25.3906L43.5196 25.3984L43.5501 25.4226L43.5007 25.4725L43.462 25.5252H43.447L43.3777 25.548L43.3976 25.5669H43.447L43.4111 25.579L43.3782 25.5998H43.2658L43.2857 25.5669L43.3419 25.5141H43.2155L43.1617 25.5252L43.1307 25.5998C43.1109 25.6066 43.0891 25.6662 43.0891 25.6841L43.0377 25.7374V25.7809H43C43.0377 25.7926 43.0377 25.811 43 25.8211V25.8497H43.0164L43.0547 25.8608L42.9825 25.9131H43V25.9838L42.9428 26.0008C42.9259 26.0318 42.9636 26.0318 42.9123 26.0754H42.8954C42.9123 26.0231 42.9123 25.9838 42.8954 25.9553H42.8716L42.7864 25.9635V25.9335C42.7612 25.914 42.7309 25.9022 42.6992 25.8996V25.8608C42.7201 25.8211 42.7627 25.8105 42.7864 25.7926L42.8397 25.7219L42.8949 25.7374L42.9254 25.7219L42.9423 25.6841L42.9254 25.5998L42.9423 25.548L42.9254 25.5252L42.9632 25.5141V25.4584L43.0159 25.4386C43.0542 25.3988 42.9995 25.3911 42.9995 25.3703L43.0542 25.2463L43.0159 25.2584L42.9995 25.3039H42.8556C42.8711 25.2584 42.9118 25.1591 42.8949 25.1204H42.8711V25.1591H42.8038C42.7622 25.1726 42.7256 25.1982 42.6987 25.2327C42.7196 25.2458 42.6401 25.3175 42.6222 25.349C42.5825 25.4052 42.5465 25.4639 42.5142 25.5248L42.5031 25.5785L42.4653 25.5993C42.4455 25.6376 42.5031 25.655 42.4455 25.6836C42.4455 25.7088 42.4096 25.7088 42.3927 25.7088C42.3927 25.7582 42.4096 25.7926 42.3568 25.8492C42.322 25.8206 42.322 25.8206 42.2871 25.8492L42.3215 25.8604C42.3564 25.8604 42.3922 25.8604 42.4256 25.8802H42.4455V25.8991H42.4256L42.3796 25.9127C42.3467 25.9127 42.2871 25.8802 42.2551 25.9127L42.2333 26.057L42.184 26.0909L42.1951 26.1495L42.1442 26.2056L42.1084 26.2502V26.2647L42.0716 26.2996H42.0527L41.9994 26.4347L41.9835 26.3664C41.9462 26.3354 41.8948 26.426 41.9103 26.4347C41.9321 26.4652 41.8774 26.4977 41.8774 26.5103V26.581C41.8534 26.6065 41.8402 26.6403 41.8406 26.6754V26.7229L41.7902 26.7519C41.7699 26.797 41.751 26.8459 41.7161 26.8686L41.6813 26.9016L41.5902 27.0585L41.6086 27.0764V27.0924H41.5723L41.5505 27.1427L41.6246 27.2696L41.5505 27.2875C41.5408 27.3132 41.5723 27.3374 41.5011 27.3718C41.4618 27.3542 41.4257 27.3303 41.3941 27.3011L41.3026 27.2347C41.3253 27.195 41.3253 27.1665 41.3253 27.1209L41.1805 27.0439C41.1636 26.9994 41.1636 26.9994 41.1999 26.9902C41.2135 26.9098 41.3026 26.934 41.3423 26.902L41.4319 26.8149C41.4624 26.8221 41.4921 26.8325 41.5205 26.8459L41.5723 26.8309L41.6086 26.7785V26.6173L41.643 26.5475L41.6086 26.5103L41.6658 26.4802L41.6808 26.4105C41.7157 26.4105 41.751 26.4105 41.751 26.3916C41.8217 26.3349 41.737 26.3204 41.751 26.2638C41.7699 26.2047 41.8217 26.1548 41.86 26.1088L41.8411 26.0899L41.7907 26.1088C41.7907 26.1165 41.7907 26.1485 41.7515 26.1553C41.6663 26.1165 41.6435 26.1732 41.5728 26.1485L41.5418 26.1165C41.5728 26.0899 41.6256 25.8981 41.6256 25.8594H41.5733C41.5912 25.8792 41.5733 25.8981 41.5515 25.8981H41.474C41.4159 25.8981 41.3602 25.932 41.3035 25.9621C41.3263 26.0216 41.2009 26.0904 41.1645 26.149C41.0906 26.2294 41.025 26.3172 40.9689 26.411L40.936 26.4977L40.8793 26.5103C40.8478 26.5679 40.8967 26.6003 40.8289 26.6313L40.7345 26.6759C40.7345 26.7233 40.7345 26.8149 40.6454 26.8686C40.6105 26.8459 40.596 26.8459 40.5563 26.8459L40.596 26.8846C40.6454 26.8846 40.7195 26.9093 40.7708 26.9335V26.9529L40.7868 26.9674L40.7708 26.9897V26.9694L40.6817 26.9916C40.61 26.9916 40.5156 26.9112 40.487 26.9694L40.4168 27.1839L40.3432 27.2362V27.3234C40.3232 27.361 40.2916 27.3912 40.2531 27.4096L40.2037 27.4488V27.4982L40.1059 27.5403L40.0018 27.7437C40.0018 27.7098 40.0018 27.6522 39.9737 27.6275C39.9287 27.5718 39.826 27.673 39.8638 27.7098C39.8807 27.7437 39.7916 27.7912 39.7722 27.812C39.7722 27.8352 39.7354 27.9064 39.7722 27.9171C39.7354 27.9607 39.7156 28.013 39.6986 28.0478V28.1399C39.6657 28.1399 39.6449 28.1399 39.6115 28.1868C39.5737 28.2217 39.5243 28.3089 39.4725 28.3399C39.4478 28.382 39.3819 28.382 39.3466 28.3975L39.3286 28.4706L39.273 28.4474C39.3127 28.5036 39.3286 28.5384 39.2221 28.5525L39.2361 28.5757V28.5873L39.2928 28.6358L39.2599 28.6818L39.1475 28.6934L39.1635 28.7283V28.8014L39.1117 28.8517H39.0037C38.9683 28.8871 39.0206 28.9205 38.8986 28.9612C38.8623 28.9205 38.8124 28.8731 38.7741 28.8154C38.7741 28.8019 38.716 28.7283 38.686 28.6934L38.716 28.5757L38.5543 28.382C38.5543 28.3399 38.5543 28.3399 38.5911 28.3268C38.6269 28.2556 38.7398 28.2919 38.8124 28.2711L38.9679 28.1868L39.0555 28.2711L39.1277 28.2556L39.1984 28.2222L39.2347 28.0348L39.2914 27.9418C39.3112 27.9176 39.2715 27.8861 39.2715 27.8754H39.3451L39.3926 27.7863L39.4967 27.7917C39.5882 27.7442 39.4846 27.6735 39.5233 27.628C39.5592 27.549 39.6434 27.518 39.7146 27.4498H39.6788L39.6105 27.4314L39.5596 27.4817C39.4473 27.411 39.3931 27.4662 39.3117 27.3902L39.272 27.3607C39.3277 27.3161 39.4715 27.1137 39.4468 27.0468L39.3931 27.0197C39.3931 27.0619 39.3814 27.0798 39.3456 27.0798L39.2347 27.0468C39.1621 27.0023 39.0739 27.0468 38.9834 27.0619C39.0027 27.1238 38.8221 27.1853 38.7586 27.2376C38.6365 27.2997 38.5259 27.3822 38.4318 27.4817L38.3644 27.5897H38.2724C38.2192 27.6401 38.2928 27.7108 38.1877 27.7316H38.0555C38.0235 27.813 38.0046 27.9181 37.8811 27.9616C37.8448 27.9181 37.8279 27.9079 37.7533 27.9079L37.7915 27.9616C37.8811 27.9926 37.9484 28.0488 38.0235 28.1016H38.0434V28.1408H38.0046C37.9698 28.1408 37.9383 28.1408 37.8971 28.1166C37.8095 28.1016 37.7049 27.9699 37.6443 28.0353C37.5421 28.0808 37.5751 28.2067 37.4845 28.2716L37.378 28.3094C37.3426 28.3273 37.378 28.3825 37.3654 28.4212C37.3257 28.4483 37.2734 28.4851 37.2196 28.5045L37.13 28.5137L37.1106 28.5883H36.9852L36.793 28.8314C36.793 28.7786 36.8109 28.7292 36.793 28.6823C36.7363 28.5762 36.5818 28.6823 36.5983 28.7292C36.6152 28.7786 36.5092 28.8024 36.4729 28.8527C36.4559 28.874 36.4031 28.9215 36.4331 28.9622L36.3072 29.1021L36.2743 29.2401L36.0457 29.4004L36.006 29.3849L35.8476 29.4532C35.7043 29.5414 35.5634 29.7031 35.3978 29.7869C35.206 29.876 35.0108 29.9583 34.8311 30.0387C34.7232 30.1177 34.6936 30.2445 34.5435 30.3157C34.3498 30.3719 34.2369 30.2828 34.0791 30.3346L33.9531 30.4746C33.7904 30.5409 33.834 30.4746 33.6902 30.493L33.6524 30.509C33.5062 30.5404 33.296 30.6639 33.1512 30.6998C33.064 30.6998 32.9914 30.6998 32.9081 30.7186L32.7957 30.6479C32.5972 30.6479 32.2088 30.6823 31.8141 30.7186L31.2436 30.7743C30.9395 30.8073 30.691 30.8262 30.5666 30.845C30.4387 30.8625 30.3201 30.876 30.1913 30.9114L30.0126 30.8765C29.5646 30.7743 29.4048 30.509 28.6755 30.6324C28.3927 30.7893 27.7829 30.5274 27.5297 30.4746C27.444 30.4746 27.3379 30.4746 27.2488 30.493C27.1787 30.4382 27.1072 30.3854 27.0343 30.3346C26.8759 30.3346 26.6977 30.3157 26.5301 30.2988L25.9485 30.1177C25.8376 30.1177 25.7499 30.1177 25.6429 30.1075L25.5465 30.0135C25.4492 29.9583 25.2134 29.892 25.1238 29.876L24.5388 29.8213L24.4298 29.8005C24.3233 29.7375 24.1906 29.6634 24.0923 29.598H23.6293C23.5596 29.5654 23.4867 29.5401 23.4118 29.5225C23.2506 29.3646 23.1392 29.3854 23.022 29.199C22.7818 29.1869 22.237 29.199 22.2137 29.199C21.7876 29.1215 21.3052 28.8319 20.9144 28.7118C20.7478 28.6602 20.5741 28.635 20.3996 28.6372C20.2374 28.6241 20.0756 28.6241 19.9134 28.5888C19.6873 28.5394 18.9647 28.3985 18.6674 28.4488L18.6126 28.4721L18.5938 28.5142L18.6674 28.5399L18.7371 28.5893L18.6674 28.6082L18.5429 28.6241L18.2901 28.4726C17.7879 28.5404 17.9003 28.4222 17.6136 28.4222C17.5204 28.4285 17.429 28.4501 17.3429 28.4861L16.6867 28.4493C16.5414 28.4861 16.4024 28.5147 16.2571 28.5776L16.0406 28.6246C15.6682 28.6953 15.1675 28.8329 14.7936 28.8755L14.7064 28.8895H14.3955L14.381 28.9142L14.2541 29.0537C14.1854 28.938 14.1331 28.8542 14.01 28.8329C13.9723 28.938 13.8788 29.1365 13.781 29.2271L13.0429 28.7665H13.0599C13.0802 28.7128 13.0802 28.6837 13.0802 28.6377L13.1393 28.6246C13.1393 28.5898 13.1393 28.5544 13.1166 28.5147L13.2086 28.3994C13.2967 28.3994 13.3829 28.3994 13.4541 28.4227C13.472 28.3287 13.472 28.3287 13.5795 28.2571L13.5263 28.0362C13.5563 27.9936 13.5999 27.9936 13.6352 27.9708C13.6522 27.9428 13.6522 27.8871 13.6522 27.8372H13.7582C13.7979 27.7616 13.7979 27.6871 13.8139 27.6294C13.7064 27.5001 14.0788 27.5505 14.134 27.4512C14.1185 27.3616 14.0992 27.2919 14.0788 27.2183C14.289 27.1708 14.241 27.0478 14.289 26.9059L14.382 26.9137H14.4929C14.4532 26.7272 14.5984 26.6357 14.6115 26.4691L14.7074 26.4386H14.7568L14.7074 26.2308L14.7801 26.1529C14.8987 26.0783 15.012 26.0604 15.012 25.8134C15.0977 25.8134 15.1142 25.7117 15.243 25.7117C15.3505 25.5814 15.2067 25.2487 15.4053 25.3349C15.4682 25.3063 15.5602 25.2487 15.6498 25.1935C15.6295 25.162 15.6295 25.1228 15.6169 25.0555C15.6861 25.0313 15.7428 25.0274 15.7985 24.9814C15.7985 24.932 15.7985 24.8787 15.8121 24.8293L16.1336 24.8163C16.1854 24.6676 16.1854 24.6516 16.2581 24.6177H16.2736L16.2581 24.5649C16.2272 24.4776 16.203 24.3881 16.1854 24.2971L16.2581 24.1969L16.3162 24.1291H16.4503L16.4402 24.0385L16.599 23.9862L16.7409 23.6661C16.7046 23.6661 16.6484 23.6535 16.6319 23.6356L16.599 23.3755C16.721 23.3755 16.721 23.3755 17.0804 23.5281C17.1346 23.5993 17.3826 23.2656 17.4484 23.1833C17.3065 22.9411 17.2983 22.7319 17.6504 22.5953C17.615 22.467 17.615 22.467 17.6664 22.3513C17.7327 22.3363 17.7889 22.3116 17.8441 22.2748C17.802 22.2158 17.7718 22.1492 17.7555 22.0786C17.9342 21.7638 18.1293 21.8234 18.2204 21.4907H18.0959C18.0596 21.3963 18.1695 21.5028 18.2204 21.3251C18.1492 21.3435 18.0959 21.3251 18.0233 21.3091L18.0765 20.9018C18.3473 20.6873 18.5439 20.5531 18.6683 20.3231C18.7177 20.2243 18.7574 20.0742 18.7574 19.9226C18.8281 19.9362 18.9197 19.9226 19.0035 19.9226C19.0035 19.8626 19.0252 19.7948 19.0446 19.7105C19.2722 19.6233 19.3638 19.4843 19.3415 19.1255L19.5952 19.0722C19.5749 18.9812 19.5749 18.9129 19.5749 18.8417C19.5952 18.8669 19.6267 18.8814 19.6877 18.9018C19.6877 19.0407 19.6461 18.9671 19.8243 18.9487L19.881 18.8335H20.111L20.22 18.5502C20.3275 18.4945 20.3275 18.4945 20.3604 18.4102L20.4001 18.3952C20.4858 18.3579 20.4321 18.3351 20.4001 18.2828C20.3771 18.2617 20.363 18.2326 20.3604 18.2015C20.3275 18.0223 20.3401 17.9191 20.4001 17.7923C20.4127 17.7417 20.4342 17.6938 20.4636 17.6509L20.5948 17.7574L20.9323 17.4586C20.9323 17.214 21.1963 17.4402 21.1154 17.2276L21.4011 17.1404C21.4011 17.0881 21.4011 17.0441 21.4181 16.97L21.2365 16.9811C21.1963 16.9414 21.1963 16.9099 21.1963 16.8615C21.2495 16.8334 21.3415 16.8048 21.4181 16.7864V16.8726L21.543 16.8615C21.5716 16.7516 21.5924 16.6469 21.6263 16.5758L21.4311 16.4193L22.2709 15.3452V15.4508C22.3455 15.4508 22.4259 15.4324 22.4825 15.4111H22.5372L22.5929 15.3762V15.2028C22.682 15.1399 22.7731 15.0672 22.7368 14.9433L22.899 14.8377H22.9416V14.7946C23.054 14.7108 23.1959 14.7849 23.2874 14.7108L23.3581 14.5355C23.3746 14.4982 23.4453 14.3616 23.4835 14.3224L23.5528 14.2996L23.606 14.2682L23.6409 14.181L23.699 14.1631L23.8574 14.181C24.0027 14.2367 24.4695 14.5171 24.4695 14.7229C24.4695 14.7946 24.5015 14.8343 24.5388 14.8343C24.6792 14.8449 24.9979 14.6198 25.1766 15.0638H25.2657C25.3034 15.0992 25.3223 15.1365 25.3364 15.1626L25.2129 15.3806C25.2652 15.4082 25.2652 15.4082 25.2652 15.5195H25.5165C25.5165 15.5568 25.4972 15.614 25.4821 15.6227C25.5165 15.6532 25.5465 15.6808 25.5863 15.6808C25.5863 15.7331 25.5693 15.7505 25.5465 15.7777L25.6952 15.8745C25.856 15.8033 25.9485 15.9084 25.995 15.9762H26.1955L26.2115 16.0145C26.1955 16.1694 26.3015 16.1486 26.3897 16.2445L26.2836 16.3995C26.3563 16.3995 26.4275 16.4155 26.4778 16.4528C26.4657 16.4988 26.4488 16.5617 26.4061 16.5859C26.4778 16.6436 26.4778 16.6436 26.4996 16.83C26.5882 16.8387 26.6841 16.8581 26.7495 16.8697C26.7635 16.9298 26.7495 16.9782 26.7267 17.0412L26.8556 17.1225C26.8556 17.1937 26.8362 17.2242 26.8226 17.2654L26.98 17.4368C27.1568 17.369 27.2691 17.524 27.318 17.6659L27.4444 17.6828L27.3718 17.754L27.3873 17.8247V17.9622L27.5849 17.9995C27.5631 18.0538 27.55 18.0901 27.5302 18.1027L27.6067 18.1531L27.7098 18.0538L27.7834 18.1245L27.6759 18.3739C27.8503 18.4068 27.9965 18.5623 28.1568 18.6649C28.1021 18.7909 28.2125 18.802 28.2808 18.8988L28.1568 19.0378C28.2977 19.0693 28.3927 19.1565 28.4953 19.2461C28.5854 19.3899 28.6958 19.5633 28.8067 19.7255H28.8687L28.8561 19.8248C28.8561 19.8597 28.8561 19.8839 28.8363 19.9192L28.8687 20.018C28.9781 19.9192 28.889 20.018 29.0343 20.0713L29.1041 19.9875C29.1733 19.9875 29.1607 20.0713 29.1874 20.1275L29.1607 20.1725C29.1874 20.2994 29.243 20.2742 29.3554 20.2853L29.3322 20.3517L29.4586 20.404C29.536 20.5502 29.659 20.5154 29.676 20.6844C29.8707 20.7401 29.8707 20.85 29.9239 21.0263L29.9738 21.0519L29.9942 20.9943H30.0131L30.1031 21.005L30.0847 21.0936L30.0135 21.08H29.9743C29.9743 21.1043 29.9946 21.1478 29.9743 21.1827H30.0135L30.139 21.1987C30.0852 21.3222 30.0852 21.3222 30.0736 21.4636C30.1763 21.4878 30.2838 21.4878 30.3874 21.4878C30.417 21.4709 30.442 21.447 30.46 21.4181C30.5123 21.5159 30.4964 21.59 30.46 21.7072C30.4077 21.7266 30.3322 21.7488 30.2562 21.7605C30.3211 21.7943 30.3211 21.7943 30.4397 21.8205C30.46 21.8699 30.46 21.8699 30.5322 21.8917C30.5123 22.0069 30.5123 22.0069 30.5433 22.1304H30.6775L30.6915 22.1827C30.8048 22.1827 30.8048 22.1304 30.8048 22.0665L30.8552 22.0307C30.8552 22.0665 30.8552 22.1149 30.8286 22.1527C30.8848 22.1527 30.9395 22.1721 30.9773 22.1827C30.9579 22.2719 30.9216 22.2956 30.9075 22.2999L30.9579 22.3087C30.9579 22.3426 30.9773 22.3982 30.9579 22.4152H31.1075C31.1075 22.592 31.154 22.6791 31.2436 22.7682C31.2978 22.8215 31.3482 22.8748 31.4155 22.9232L31.4407 23.1169H31.415C31.4183 23.1225 31.4221 23.1279 31.4262 23.1329L31.3347 23.1561C31.3395 23.2012 31.3903 23.1794 31.4354 23.144C31.4896 23.2821 31.6979 23.3029 31.8131 23.3973L31.8678 23.4685L31.8131 23.5741L31.9056 23.6094C31.9245 23.6617 31.9245 23.6617 31.9056 23.73C32.0775 23.8114 31.9763 24.1562 31.9056 24.2734C31.9763 24.3678 32.0775 24.3271 32.2078 24.3116L32.1686 24.209C32.3671 24.1252 32.3671 24.1252 32.418 24.1252C32.418 24.1722 32.418 24.2341 32.402 24.2559L32.3487 24.2734C32.3676 24.3509 32.4567 24.209 32.4746 24.2559L32.5473 24.2734V24.3271H32.617L32.6703 24.4027C32.6485 24.4734 32.7768 24.4211 32.7594 24.4734C32.8088 24.4913 32.8088 24.4913 32.8286 24.5794C32.8834 24.5794 32.9565 24.5794 33.0103 24.5606C33.0258 24.5794 33.1163 24.4027 33.1512 24.4211L33.1352 24.4918L33.2587 24.561C33.3628 24.5024 33.4369 24.5799 33.4936 24.6293H33.6718C33.6718 24.6642 33.6718 24.7 33.6902 24.7204C33.7047 24.7843 33.7744 24.7843 33.834 24.8259L33.7744 24.9649C33.9531 24.9431 34.0791 24.978 34.2587 24.978C34.2902 25.1586 34.326 25.1485 34.4689 25.1722C34.4888 25.1901 34.4888 25.2322 34.4888 25.2579L34.5435 25.3034L34.5653 25.2327C34.667 24.9291 34.7943 25.1485 34.8529 25.332H34.8825L34.9023 25.2458C34.9919 25.2579 35.0805 25.3698 35.1663 25.3698C35.2747 25.3175 35.2747 25.3175 35.6157 25.2327C35.9174 25.349 36.2017 25.2584 36.5615 25.3698C36.6695 25.2327 36.899 25.1906 37.0951 25.2114L37.2201 25.2458C37.3126 25.2327 37.422 25.2114 37.485 25.1906C37.5048 25.1591 37.5048 25.1485 37.5048 25.0879C37.7543 25.0879 37.7392 25.0245 37.9388 24.8971C38.056 24.8342 38.056 24.8342 38.3964 24.8342L38.4671 24.7C38.4337 24.561 38.8134 24.6482 38.8235 24.4918C39.1834 24.4555 39.3127 24.594 39.6115 24.3678C39.7722 24.1402 40.057 24.0225 40.2149 23.8119C40.3761 23.7305 40.473 23.6811 40.5742 23.5397L40.7699 23.5242C40.8275 23.2893 41.0178 23.0322 41.0953 22.7992C41.1442 22.7498 41.1999 22.728 41.1805 22.6443H41.2498L41.2333 22.5731C41.4449 22.4147 41.4319 22.3324 41.4871 22.1145C41.5505 22.066 41.5505 22.066 41.643 21.9401C41.6968 21.8965 41.7699 21.8689 41.8217 21.8375C41.8406 21.6573 41.8595 21.4631 41.7157 21.3401H41.7365L41.8774 21.3057C41.8953 21.1246 41.9999 20.9304 42.0721 20.759C42.0852 20.712 42.1089 20.6524 42.1089 20.5996C42.1583 20.5493 42.2179 20.5493 42.1961 20.4689C42.2179 20.4689 42.2338 20.4689 42.2556 20.435L42.2338 20.372C42.4256 20.2364 42.4096 20.1265 42.4459 19.9328C42.5036 19.8834 42.5036 19.8834 42.5738 19.7415C42.6369 19.725 42.6952 19.6939 42.7443 19.6509C42.7375 19.4805 42.7443 19.2834 42.5864 19.156C42.6411 19.1037 42.6794 19.0373 42.738 18.9637C42.7129 18.8809 42.6806 18.8003 42.6416 18.7231C42.6629 18.6456 42.6629 18.5618 42.6629 18.4906C42.7447 18.2078 42.8406 18.1022 42.6237 17.8959C42.6416 17.7739 42.6629 17.6465 42.6416 17.5032H42.5045C42.6237 17.4039 42.5869 17.2092 42.5869 17.0518L42.6237 17.0397V16.8683C42.582 16.8688 42.5409 16.8583 42.5045 16.8378L42.4837 16.7298C42.5535 16.7104 42.6087 16.6915 42.6416 16.6426L42.5869 16.6111C42.5748 16.5607 42.5535 16.4983 42.5535 16.4377H42.6087C42.5869 16.3811 42.5748 16.3244 42.5423 16.2866L42.3811 16.3244L42.4111 16.4377C42.2886 16.4377 42.1859 16.4523 42.1103 16.336C42.2193 16.2198 42.3583 15.8837 42.1859 15.8028C42.2188 15.7326 42.2188 15.7326 42.197 15.6527L42.1099 15.613C42.1457 15.5903 42.1593 15.5554 42.1854 15.5186L42.1694 15.4784L42.1854 15.4682L42.0861 15.2755C42.0847 15.2614 42.0802 15.2479 42.0731 15.2358C42.0642 15.2216 42.0578 15.206 42.0542 15.1898C38.8211 8.57402 31.9589 4 24.0046 4C12.9558 4 4 12.8265 4 23.7266C4 34.6181 12.9558 43.4547 24.0046 43.4547C34.3493 43.4547 42.8561 35.7164 43.9046 25.8003H43.8993L43.9104 25.7374H43.891L43.8775 25.7219L43.891 25.7093H43.9274L43.9104 25.6841V25.6381L43.8775 25.5998L43.9278 25.5252H43.9453V25.5141L43.9278 25.4913C43.9109 25.4226 43.9278 25.4226 43.9453 25.3911L43.983 24.9654V24.9296C43.983 24.8981 43.9831 24.8351 44 24.8133L43.983 24.7848ZM31.7768 23.8123C31.7768 23.8574 31.7623 23.8889 31.7424 23.9276L31.8131 23.9484L31.8398 23.9673C31.8398 23.9276 31.8398 23.8792 31.8683 23.8293H31.8136L31.7768 23.8123ZM39.4473 27.0454H39.472H39.4473ZM17.4455 23.1799V23.1862V23.1799Z" fill="#D80B24"/>
</g>
<defs>
<clipPath id="clip0_538_13901">
<rect width="40" height="39.4552" fill="white" transform="translate(4 4)"/>
</clipPath>
</defs>
</svg>
