<svg width="48" height="48" viewBox="0 0 48 48" fill="none" xmlns="http://www.w3.org/2000/svg">
<g clip-path="url(#clip0_538_13903)">
<path d="M34.7266 19.4349C35.364 18.0101 36.3198 18.1878 36.3198 18.1878C37.3695 18.1273 37.9785 19.4941 37.9785 19.4941L42.0006 26.6738V6H6V42H13.6178C13.6258 41.7007 13.7085 41.486 13.7085 41.486L19.1455 32.0096C19.7829 30.5848 20.7388 30.7625 20.7388 30.7625C21.7884 30.702 22.3975 32.0688 22.3975 32.0688L27.8012 41.7155C27.8308 41.8161 27.8407 41.9087 27.8493 42.0006H29.1988C29.2069 41.7013 29.2895 41.4866 29.2895 41.4866L34.7266 32.0096C35.364 30.5848 36.3198 30.7625 36.3198 30.7625C37.3695 30.702 37.9785 32.0688 37.9785 32.0688L42.0006 39.2485V30.9655C41.2947 30.9927 40.8004 30.4478 40.8004 30.4478L36.3532 22.6036L31.7881 30.4478C31.1204 31.237 29.9875 30.7983 29.9875 30.7983C28.8243 30.1004 29.2908 28.9119 29.2908 28.9119L34.7266 19.4349ZM27.2205 30.6829C26.1178 31.4413 25.2187 30.4478 25.2187 30.4478L20.7715 22.6042L16.2064 30.4478C15.5387 31.237 14.4058 30.7983 14.4058 30.7983C13.2426 30.1004 13.7091 28.9119 13.7091 28.9119L19.1461 19.4355C19.7835 18.0107 20.7394 18.1884 20.7394 18.1884C21.789 18.1279 22.3981 19.4948 22.3981 19.4948L27.8018 29.1414C28.093 30.1318 27.2205 30.6829 27.2205 30.6829ZM16.8006 42H24.6393L20.7715 35.1776L16.8006 42ZM32.3811 42H40.2204L36.3519 35.177L32.3811 42Z" fill="#F5A21B"/>
</g>
<defs>
<clipPath id="clip0_538_13903">
<rect width="36" height="36" fill="white" transform="translate(6 6)"/>
</clipPath>
</defs>
</svg>
