<svg width="48" height="48" viewBox="0 0 48 48" fill="none" xmlns="http://www.w3.org/2000/svg">
<g clip-path="url(#clip0_538_13904)">
<path d="M17.6149 23.7386C17.6149 19.6534 20.9265 16.3411 25.0125 16.3411C27.442 16.3411 29.5985 17.5124 30.9467 19.3211L28.1421 21.4301C27.4337 20.471 26.2959 19.8698 25.0125 19.8498C22.9105 19.8172 21.1241 21.5911 21.1241 23.7384C21.1241 25.8866 22.8651 27.6276 25.0125 27.6276C26.36 27.6276 27.5478 26.9417 28.2452 25.9006L31.0524 28.0108C29.7126 29.9019 27.5068 31.1364 25.0125 31.1364C20.9265 31.1368 17.6149 27.8244 17.6149 23.7386ZM13.8784 26.8521C13.8784 29.4074 11.8022 30.6855 8.64824 30.6855H2V16.7104H8.48863C11.3431 16.7104 13.1002 18.1276 13.1002 20.3239C13.1002 21.9406 12.2618 22.8194 11.2635 23.3784C12.8802 23.997 13.8782 24.9355 13.8782 26.8123V26.8521H13.8784ZM10.0457 20.8827C10.0457 19.9243 9.32706 19.4059 8.02902 19.4059H4.99431V22.3598H7.82961C9.18726 22.3598 10.0457 21.9214 10.0457 20.8827ZM10.8239 26.4727C10.8239 25.4945 10.1251 24.9157 8.54824 24.9157H4.99431V27.9908H8.64804C10.0059 27.9906 10.8239 27.5112 10.8239 26.4727ZM46 26.5527C46 29.3278 43.8839 30.8849 40.8692 30.8849C38.7531 30.8849 36.6167 30.1465 34.9398 28.6482L36.7571 26.4725C38.0149 27.511 39.3322 28.1694 40.9296 28.1694C42.1873 28.1694 42.9457 27.6708 42.9457 26.8521C42.9457 26.0335 42.4661 25.6341 40.131 25.0355C37.3161 24.3163 35.4988 23.538 35.4988 20.7637C35.4988 18.188 37.5355 16.5112 40.3906 16.5112C42.4265 16.5112 44.1637 17.1496 45.581 18.288L43.9835 20.6035C42.7463 19.7451 41.5284 19.2259 40.3508 19.2259C39.1726 19.2259 38.5533 19.7649 38.5533 20.4439C38.5533 21.4023 39.1527 21.7016 41.568 22.3202C44.4027 23.0586 46.0002 24.0772 46.0002 26.5125V26.5527H46ZM15.5977 17.2852C14.9117 17.9763 14.1097 17.0597 14.543 16.5193C16.9026 13.7519 20.4124 12 24.3337 12C28.2549 12 31.7645 13.7519 34.1241 16.5193C34.5574 17.0597 33.7556 17.9763 33.0697 17.2852C30.9498 14.843 27.8228 13.2994 24.3337 13.2994C20.8445 13.2994 17.7175 14.843 15.5977 17.2852ZM33.0697 30.0964C33.7556 29.4059 34.5576 30.3227 34.1241 30.8631C31.7645 33.6305 28.2549 35.3818 24.3337 35.3818C20.4124 35.3818 16.9028 33.6305 14.543 30.8631C14.1097 30.3227 14.9115 29.4061 15.5977 30.0964C17.7175 32.5394 20.8445 34.083 24.3337 34.083C27.8228 34.083 30.9498 32.5394 33.0697 30.0964Z" fill="#9E9E9F"/>
<path d="M17.6147 23.7394C17.6147 19.6541 20.9263 16.3418 25.0123 16.3418C27.4419 16.3418 29.5983 17.5131 30.9465 19.3219L28.1419 21.4308C27.4335 20.4718 26.2957 19.8706 25.0123 19.8506C22.9103 19.8179 21.1239 21.5918 21.1239 23.7392C21.1239 25.8873 22.8649 27.6283 25.0123 27.6283C26.3599 27.6283 27.5476 26.9424 28.245 25.9014L31.0522 28.0115C29.7124 29.9026 27.5066 31.1371 25.0123 31.1371C20.9263 31.1375 17.6147 27.8252 17.6147 23.7394Z" fill="#D70C18"/>
<path fill-rule="evenodd" clip-rule="evenodd" d="M13.8784 26.8529V26.8131C13.8784 24.936 12.8804 23.9976 11.2637 23.3792C12.2618 22.8201 13.1004 21.9413 13.1004 20.3643V20.3247C13.1004 18.1284 11.3433 16.7111 8.48883 16.7111H2V30.6862H8.64804C11.802 30.6862 13.8784 29.408 13.8784 26.8529ZM10.0457 20.8835C10.0457 21.9219 9.18726 22.3603 7.82961 22.3603H4.99431V19.4066H8.02902C9.32706 19.4066 10.0457 19.9252 10.0457 20.8439V20.8835ZM10.8239 26.4735C10.8239 27.5119 10.0059 27.9915 8.64824 27.9915H4.99431V24.9164H8.54824C10.1251 24.9164 10.8239 25.4952 10.8239 26.4337V26.4735ZM46 26.5535V26.5131C46 24.0778 44.4025 23.0592 41.5678 22.3207C39.1525 21.7021 38.5531 21.4027 38.5531 20.4843V20.4445C38.5531 19.7656 39.1724 19.2264 40.3506 19.2264C41.5282 19.2264 42.7461 19.7456 43.9833 20.6041L45.5808 18.2886C44.1635 17.1501 42.4263 16.5117 40.3904 16.5117C37.5351 16.5117 35.4986 18.1888 35.4986 20.7241V20.7645C35.4986 23.5388 37.3159 24.317 40.1308 25.0362C42.4661 25.6349 42.9455 26.0343 42.9455 26.8133V26.8531C42.9455 27.6717 42.1871 28.1703 40.9294 28.1703C39.332 28.1703 38.0147 27.5119 36.7569 26.4735L34.9396 28.6492C36.6165 30.1474 38.7531 30.8858 40.869 30.8858C43.8839 30.8856 46 29.3286 46 26.5535Z" fill="#9E9E9F"/>
<path d="M15.5977 17.2852C14.9117 17.9763 14.1097 17.0597 14.543 16.5193C16.9027 13.7519 20.4124 12 24.3337 12C28.2549 12 31.7645 13.7519 34.1242 16.5193C34.5574 17.0597 33.7556 17.9763 33.0697 17.2852C30.9498 14.843 27.8229 13.2994 24.3337 13.2994C20.8445 13.2994 17.7175 14.843 15.5977 17.2852ZM33.0697 30.0964C33.7556 29.4059 34.5576 30.3227 34.1242 30.8631C31.7645 33.6305 28.2549 35.3818 24.3337 35.3818C20.4124 35.3818 16.9029 33.6305 14.543 30.8631C14.1097 30.3227 14.9115 29.4061 15.5977 30.0964C17.7175 32.5394 20.8445 34.083 24.3337 34.083C27.8229 34.083 30.9498 32.5394 33.0697 30.0964Z" fill="#D70C18"/>
</g>
<defs>
<clipPath id="clip0_538_13904">
<rect width="44" height="23.3818" fill="white" transform="translate(2 12)"/>
</clipPath>
</defs>
</svg>
