<svg width="48" height="48" viewBox="0 0 48 48" fill="none" xmlns="http://www.w3.org/2000/svg">
<g clip-path="url(#clip0_538_13752)">
<path d="M43 35.5883C43 39.6817 39.6817 43 35.5883 43H12.4117C8.31832 43 5 39.6817 5 35.5883V12.4117C5 8.31832 8.31832 5 12.4117 5H35.5883C39.6817 5 43 8.31832 43 12.4117V35.5883Z" fill="#473527"/>
<path d="M27.207 24.2829C27.207 24.2829 25.3959 22.5389 24.075 24.5416C22.4421 23.5577 20.3058 23.6177 18.7091 24.856C18.1346 25.3015 17.691 25.8528 17.383 26.461C18.9334 25.4343 20.9434 25.5354 22.3763 26.6324C21.4916 27.8351 18.2331 30.3184 15.1144 28.0565C15.1144 28.0565 17.1193 30.387 21.4111 29.3459C21.4111 29.3459 20.3985 30.665 18.0208 30.7451C18.0208 30.7451 21.6301 31.4235 24.0295 29.48C24.2126 30.8501 23.7314 32.2738 22.6489 33.2512C23.3146 33.1043 23.959 32.8118 24.5335 32.3663C26.2274 31.0526 26.7883 28.8209 26.0609 26.9171C26.0478 26.8828 26.0325 26.8493 26.0204 26.8145C25.9495 26.6119 25.9191 26.3681 25.9096 26.1498C25.8243 24.1668 27.207 24.2829 27.207 24.2829ZM15.0635 29.8063C14.5887 28.7349 13.591 27.9236 12.3456 27.7433C11.8301 27.6681 11.3043 27.7086 10.8064 27.862C12.2012 28.1717 13.2025 29.3684 13.2975 30.7605C12.7579 31.0334 12.3381 30.9899 12.3381 30.9899C11.4773 31.0018 9.20165 30.3683 9.15592 28.1475C9.15592 28.1475 8.78249 29.8801 10.7548 31.4907C10.7548 31.4907 9.79599 31.4842 8.93164 30.4192C8.93164 30.4192 9.876 32.3144 11.6045 32.7409C12.0399 32.8357 12.4615 32.8003 12.7748 32.7411C12.1555 33.6761 11.0679 34.249 9.89384 34.1679C10.3278 34.4561 10.8206 34.644 11.3363 34.7181C13.1922 34.9867 14.9189 33.7561 15.2915 31.9428L15.2926 31.9424C16.3443 30.2115 17.0993 30.5328 17.0993 30.5328C17.0993 30.5328 16.3635 28.986 15.0635 29.8063ZM38.9284 20.5574C39.5692 19.5954 39.9582 18.5393 40.1131 17.4655C38.5723 19.4398 36.1196 20.3567 33.7485 20.0223C34.5107 18.3654 35.8539 18.8675 35.8539 18.8675C35.8539 18.8675 34.2994 16.2172 32.1047 17.8602C32.1047 17.8602 31.5799 18.3329 31.0158 19.0124C30.9731 18.9853 30.9299 18.9595 30.8876 18.9314C27.8681 16.9201 26.9435 12.9495 28.6852 9.85352C27.7542 10.4102 26.9295 11.1762 26.2887 12.1382C23.9753 15.6112 24.9295 20.3114 28.4199 22.6362C28.6142 22.7657 28.813 22.8835 29.0143 22.993C29.0052 23.3245 29.0321 23.6792 29.122 24.043C29.9913 27.1323 33.7823 28.9767 33.7823 28.9767C31.5146 27.3491 31.5277 25.6578 31.5277 25.6578C34.938 29.2921 38.6771 28.802 38.6771 28.802C34.7358 28.5575 33.1627 25.743 32.7603 23.9133C35.162 23.8743 37.5007 22.7008 38.9284 20.5574Z" fill="#D1D400"/>
</g>
<defs>
<clipPath id="clip0_538_13752">
<rect width="38" height="38" fill="white" transform="translate(5 5)"/>
</clipPath>
</defs>
</svg>
