<svg width="48" height="48" viewBox="0 0 48 48" fill="none" xmlns="http://www.w3.org/2000/svg">
<g clip-path="url(#clip0_538_13888)">
<path fill-rule="evenodd" clip-rule="evenodd" d="M33.7068 24.8918C33.7068 24.8918 37.9208 24.3407 38.9127 24.2864C39.9046 24.2312 41.3915 23.9561 41.6123 23.6258C41.8322 23.2955 42.2177 22.414 41.5571 21.0366C40.8955 19.6593 39.6166 18.0169 38.6919 17.3461C37.7681 16.6745 36.2683 15.0321 35.7724 13.0493C35.524 12.0574 35.2489 10.7904 35.1182 9.50965C34.9867 8.22887 35.0005 6.9619 34.891 5.91483C34.6711 3.82161 32.9624 2.69264 31.6955 2.19671C30.4285 1.70078 26.5374 2.05778 21.9719 4.37274C14.7215 7.48267 9.79713 15.2759 9.3012 16.0782C8.62216 17.5145 7.74991 18.8128 7.23558 20.4147C5.74042 24.4796 5.23436 30.2551 7.84192 35.4702C9.98943 39.7671 13.1306 44.3409 22.3859 45.9372C30.7597 46.5988 37.976 42.0001 41.0897 36.3507C42.3833 33.7174 42.6317 32.7173 42.687 32.3575C42.7422 31.9978 43.1286 29.7003 42.1082 29.0792C41.6344 28.7912 40.3904 28.252 38.5069 28.2364C37.9889 28.2327 34.1061 28.2382 34.1199 28.253C34.1484 28.2815 32.9348 35.9091 25.9669 37.0132C18.8049 37.9499 15.7198 32.5498 15.003 29.3562C14.2872 26.1607 15.3886 19.2194 23.156 17.8973C31.6596 17.1823 33.8697 24.7787 33.7068 24.8918Z" fill="#005BAC"/>
<path fill-rule="evenodd" clip-rule="evenodd" d="M19.9062 23.0195H28.8312V31.9445H19.9062V23.0195Z" fill="#F39800"/>
</g>
<defs>
<clipPath id="clip0_538_13888">
<rect width="36.8039" height="44" fill="white" transform="translate(6 2)"/>
</clipPath>
</defs>
</svg>
