<svg width="48" height="48" viewBox="0 0 48 48" fill="none" xmlns="http://www.w3.org/2000/svg">
<g clip-path="url(#clip0_538_13889)">
<path d="M7.71364 27.212C6.87975 26.4074 5.55367 26.4301 4.74872 27.2643C3.94377 28.0968 3.96684 29.4236 4.79999 30.2285L18.4512 43.411C19.2851 44.2163 20.6115 44.1929 21.4161 43.3601C22.2207 42.5262 22.1976 41.1994 21.3648 40.3948L7.71364 27.212ZM29.5598 4.5891C28.7273 3.78415 27.4009 3.80686 26.5959 4.64037C25.7903 5.47426 25.8133 6.80034 26.6465 7.60529L40.298 20.7881C41.1319 21.5934 42.4573 21.5704 43.2637 20.7365C44.0686 19.903 44.0456 18.5769 43.2106 17.7719L29.5598 4.5891ZM25.7046 15.4391C26.5384 16.2444 27.8649 16.2213 28.6687 15.3875C29.4741 14.5536 29.4513 13.2275 28.6178 12.4229L20.6628 4.74108C19.8289 3.93613 18.5036 3.95884 17.6979 4.79272C16.8937 5.62551 16.9164 6.95195 17.7503 7.75691L25.7046 15.4391ZM35.4046 18.9761C34.5696 18.1715 33.2443 18.1942 32.4379 19.0277C31.6348 19.8612 31.6567 21.188 32.491 21.9922L40.4464 29.6759C41.2803 30.479 42.6056 30.4567 43.4113 29.6224C44.2162 28.7896 44.1932 27.4628 43.3589 26.6579L35.4046 18.9761ZM21.3348 19.9637C22.168 20.7683 23.4955 20.7456 24.299 19.9121C25.1051 19.0782 25.0812 17.7525 24.2485 16.9472L16.2923 9.26573C15.4596 8.46041 14.1338 8.48385 13.3282 9.31737C12.5232 10.1513 12.5455 11.4766 13.3805 12.2816L21.3348 19.9637ZM31.0342 23.5011C30.2006 22.6957 28.8746 22.7188 28.0696 23.5523C27.2654 24.3862 27.2885 25.7119 28.1216 26.5176L36.077 34.1991C36.9105 35.0044 38.2362 34.9813 39.0423 34.1482C39.8458 33.3143 39.8227 31.9889 38.9895 31.1836L31.0342 23.5011ZM16.9658 24.488C17.7986 25.2926 19.1254 25.2699 19.9304 24.4364C20.7357 23.6029 20.7122 22.2768 19.8795 21.4715L11.9233 13.7904C11.0902 12.9854 9.76483 13.0085 8.95915 13.842C8.1531 14.6755 8.17654 16.0009 9.01152 16.8062L16.9658 24.488ZM26.6651 28.0253C25.8313 27.22 24.5059 27.2427 23.7002 28.0777C22.8953 28.9105 22.9176 30.2369 23.7526 31.0426L31.708 38.7248C32.5419 39.5298 33.8672 39.5067 34.6729 38.6732C35.4768 37.8397 35.4537 36.5132 34.6205 35.7068L26.6651 28.0253ZM12.5964 29.0134C13.4292 29.8176 14.756 29.7949 15.561 28.9618C16.3667 28.1279 16.3429 26.8014 15.509 25.9961L7.55396 18.3143C6.72118 17.5093 5.39583 17.5328 4.59015 18.367C3.7841 19.2005 3.80753 20.5259 4.64142 21.3316L12.5964 29.0134ZM22.2958 32.55C21.4619 31.7447 20.1362 31.7674 19.3309 32.6016C18.5259 33.4355 18.549 34.7609 19.3825 35.5673L27.3375 43.2487C28.1721 44.0548 29.4975 44.0313 30.3024 43.1971C31.1074 42.3632 31.0843 41.0382 30.2508 40.2318L22.2958 32.55Z" fill="#E60012"/>
</g>
<defs>
<clipPath id="clip0_538_13889">
<rect width="39.9996" height="40" fill="white" transform="translate(4 4)"/>
</clipPath>
</defs>
</svg>
