<svg width="48" height="48" viewBox="0 0 48 48" fill="none" xmlns="http://www.w3.org/2000/svg">
<g clip-path="url(#clip0_538_13890)">
<path fill-rule="evenodd" clip-rule="evenodd" d="M4 23.9995C4 26.1874 4.8574 28.1849 6.25056 29.6688L9.89724 26.0217C10.3052 24.7114 10.3052 23.2901 9.89724 21.9769L6.25056 18.3312C4.8574 19.8156 4 21.8116 4 23.9995ZM10.2692 21.6049L6.62204 17.9587C8.10893 16.5656 10.1035 15.7077 12.2894 15.7077C14.4822 15.7077 16.4768 16.5651 17.9607 17.9587L14.317 21.6049C13.0018 22.0153 11.5805 22.0153 10.2692 21.6049ZM6.62302 30.0403L10.2712 26.3941C11.5849 25.9837 13.0018 25.9837 14.3135 26.3941L17.9607 30.0403C16.4768 31.4344 14.4822 32.2914 12.2894 32.2914C10.1035 32.2914 8.10893 31.4344 6.62302 30.0403ZM18.3331 29.6683C19.7263 28.1844 20.5832 26.1869 20.5832 23.999C20.5832 21.8111 19.7263 19.8161 18.3331 18.3312L14.685 21.9788C14.275 23.2921 14.275 24.7074 14.685 26.0217L18.3331 29.6683ZM24.0015 44C21.8121 44 19.8166 43.1426 18.3331 41.7499L21.9759 38.1037C23.2921 37.6923 24.7084 37.6923 26.0226 38.1037L29.6683 41.7499C28.1844 43.1436 26.1899 44 24.0015 44ZM26.3956 37.7323L30.0408 41.3785C31.4354 39.8945 32.2923 37.897 32.2923 35.7081C32.2923 33.5207 31.4354 31.5247 30.0408 30.0398L26.3956 33.685C25.9842 34.9997 25.9842 36.418 26.3956 37.7323ZM17.9607 41.3765L21.6074 37.7293C22.0173 36.418 22.0173 34.9997 21.6054 33.6845L17.9607 30.0393C16.5651 31.5242 15.7086 33.5207 15.7086 35.7077C15.7081 37.897 16.567 39.8945 17.9607 41.3765ZM18.3331 29.6673C19.8166 28.2742 21.8121 27.4158 24.0015 27.4158C26.1904 27.4158 28.1844 28.2742 29.6683 29.6683L26.0226 33.3145C24.7079 33.724 23.2921 33.724 21.9803 33.3145L18.3331 29.6673ZM24.0015 4C21.8121 4 19.8166 4.85494 18.3331 6.25105L21.9774 9.89675C23.2931 10.3077 24.7104 10.3067 26.0226 9.89675L29.6713 6.25105C28.1879 4.85691 26.1899 4 24.0015 4ZM17.9607 6.62204L21.6054 10.2667C22.0168 11.5824 22.0168 12.9988 21.6054 14.3145L17.9607 17.9592C16.5651 16.4753 15.7086 14.4803 15.7086 12.2909C15.7081 10.102 16.567 8.10547 17.9607 6.62204ZM18.3331 18.3312C19.8166 19.7253 21.8121 20.5822 24.0015 20.5822C26.1904 20.5822 28.1844 19.7253 29.6683 18.3312L26.0226 14.684C24.7079 14.2745 23.2926 14.2745 21.9803 14.684L18.3331 18.3312ZM30.0408 17.9587L26.3956 14.3125C25.9842 12.9978 25.9842 11.5815 26.3956 10.2662L30.0408 6.62154C31.4354 8.10498 32.2923 10.1015 32.2923 12.2899C32.2928 14.4798 31.4354 16.4753 30.0408 17.9587ZM43.9985 23.9995C43.9985 26.1874 43.1441 28.1849 41.7499 29.6688L38.1042 26.0217C37.6938 24.7074 37.6938 23.2901 38.1042 21.9769L41.7499 18.3312C43.1441 19.8156 43.9985 21.8116 43.9985 23.9995ZM41.3799 30.0403L37.7308 26.3941C36.419 25.9837 35.0007 25.9837 33.6865 26.3961L30.0393 30.0393C31.5252 31.4345 33.5207 32.2909 35.7096 32.2909C37.8985 32.2909 39.8926 31.4344 41.3799 30.0403ZM29.6683 29.6683C28.2752 28.1844 27.4178 26.1869 27.4178 23.999C27.4178 21.8111 28.2747 19.8156 29.6683 18.3312L33.317 21.9769C33.7264 23.2901 33.7264 24.7074 33.317 26.0217L29.6683 29.6683ZM30.0408 17.9587L33.686 21.6049C35.0022 22.0153 36.4205 22.0153 37.7352 21.6049L41.3799 17.9587C39.8926 16.5656 37.8985 15.7077 35.7096 15.7077C33.5207 15.7077 31.5247 16.5656 30.0408 17.9587Z" fill="#A72126"/>
</g>
<defs>
<clipPath id="clip0_538_13890">
<rect width="39.9985" height="40" fill="white" transform="translate(4 4)"/>
</clipPath>
</defs>
</svg>
