<svg width="48" height="48" viewBox="0 0 48 48" fill="none" xmlns="http://www.w3.org/2000/svg">
<g clip-path="url(#clip0_538_13891)">
<path d="M26.8256 20.8505H21.1729C20.6964 20.8505 20.3095 21.2404 20.3095 21.7169V26.2838C20.3095 26.7626 20.6956 27.1495 21.1729 27.1495H26.8256C27.3007 27.1495 27.6875 26.7633 27.6875 26.2838V21.7169C27.6875 21.2404 27.3007 20.8505 26.8256 20.8505ZM23.9981 4C12.9544 4 4 12.9574 4 24.0004C4 35.0441 12.9544 44 23.9981 44C35.0433 44 43.9978 35.0441 43.9978 24.0004C43.9978 12.9574 35.0433 4 23.9981 4V4ZM11.0994 34.008C8.95155 31.2443 7.6716 27.772 7.6716 24.0004C7.6716 20.2784 8.9182 16.8469 11.0171 14.0973C11.9969 17.2879 12.5261 20.6719 12.5261 24.1827C12.5261 27.5964 12.028 30.8967 11.0994 34.008ZM23.9981 40.3262C20.6141 40.3262 17.4702 39.2945 14.8629 37.5336C15.1408 36.7694 15.395 35.9942 15.6277 35.2094H32.3411C32.5731 35.9987 32.8303 36.7791 33.1127 37.5476C30.5083 39.3027 27.3755 40.3262 23.9981 40.3262ZM31.2672 30.4861H16.7016C17.0359 28.4324 17.2108 26.329 17.2108 24.1819C17.2108 21.9496 17.0225 19.7655 16.6631 17.6347H31.3058C30.9471 19.7655 30.7596 21.9496 30.7596 24.1819C30.7588 26.329 30.9308 28.4331 31.2672 30.4861ZM32.4138 12.9137H15.5566C15.3164 12.1095 15.0467 11.3187 14.7561 10.5398C17.3835 8.73439 20.5674 7.67012 23.9981 7.67012C27.42 7.67012 30.5972 8.72772 33.2194 10.525C32.9274 11.3091 32.6569 12.1044 32.4138 12.9137ZM36.8791 34.0339C35.9446 30.9137 35.4443 27.6045 35.4443 24.1819C35.4443 20.6615 35.9742 17.2686 36.9577 14.0706C39.0699 16.8224 40.3284 20.2621 40.3284 23.9996C40.3284 27.7839 39.0388 31.2658 36.8791 34.0339Z" fill="#CA0915"/>
</g>
<defs>
<clipPath id="clip0_538_13891">
<rect width="39.9978" height="40" fill="white" transform="translate(4 4)"/>
</clipPath>
</defs>
</svg>
