<svg width="48" height="48" viewBox="0 0 48 48" fill="none" xmlns="http://www.w3.org/2000/svg">
<g clip-path="url(#clip0_538_13892)">
<path fill-rule="evenodd" clip-rule="evenodd" d="M22.2805 4.07535C28.9968 3.5002 34.813 6.30153 38.1764 9.6203C41.4653 12.8658 44.4721 18.2724 44.0912 25.1467C43.4807 36.169 34.7037 43.9733 24.1289 43.9999C18.1654 44.015 13.4435 41.5666 10.2044 38.455C6.91501 35.2951 4.39474 30.9285 4.04327 25.27C3.62931 18.608 6.2512 14.0166 9.0954 10.7294C11.9739 7.40319 16.3823 4.58028 22.2805 4.07535ZM28.1952 14.5496C27.6025 14.3386 27.2055 13.449 26.5933 13.3171C24.9969 12.9727 24.3952 14.5932 23.3896 14.7958C22.6844 14.9377 21.8914 14.5321 21.2948 14.6729C20.6653 14.8214 20.2717 15.7173 19.5697 15.7815C18.3997 15.8893 17.1466 14.1785 15.8728 14.3029C13.7534 14.51 14.1869 18.276 14.3942 19.9713C15.3293 21.2664 17.0873 22.355 19.3233 21.9427C19.8586 20.9589 18.7433 19.4076 19.5697 18.8621C20.4438 19.3023 21.5981 19.4623 22.034 20.3407C21.7042 20.9555 21.4081 21.6042 21.4178 22.5589C22.2304 23.5056 24.0765 23.1596 25.1146 22.6822C26.5201 25.8822 21.6944 23.9969 20.925 25.3933C21.0733 28.5677 24.1229 29.3734 27.0863 29.3364C27.4134 30.0874 27.0543 30.7594 26.5933 30.9383C25.5222 31.3544 25.1864 30.5371 24.4985 30.4453C23.974 30.3751 23.2696 30.6204 23.0198 30.5688C21.6921 30.2915 21.2097 28.5551 19.8161 28.72C19.2054 28.7922 18.4791 29.608 18.0908 29.8292C17.4227 30.2097 17.0273 30.4073 16.1193 30.6917C15.3983 30.4163 14.7474 29.4397 15.5033 28.7201C18.4167 29.2185 19.4466 26.6294 18.707 24.2843C17.464 24.213 16.391 23.9714 15.5033 23.5447C14.5365 24.1609 14.1257 25.8095 14.2708 27.365C14.3513 28.2258 14.7429 28.7944 14.6407 29.4598C14.4616 30.6226 13.3619 31.5165 13.4084 32.5404C13.4575 33.6194 14.6604 34.5429 15.1335 35.1282C16.7563 35.3297 18.0363 34.1483 19.4463 33.8957C20.7109 33.6691 21.847 34.1409 22.5269 34.2653C25.5217 34.8149 28.8355 35.1919 31.3991 35.7439C33.819 35.8506 35.4103 33.2495 34.1099 31.1847C32.8908 31.3552 31.7542 31.306 31.2758 30.4455C32.6557 29.1971 35.2859 28.8506 34.2334 25.5163C32.8598 25.6577 31.9297 25.3559 31.8921 24.161C32.393 23.3478 33.6876 23.3277 34.3565 22.6825V20.8343C33.3689 20.0962 30.758 20.9822 30.783 19.2323C31.0128 18.5585 32.3375 18.9797 33.1243 18.8623C33.9855 18.1949 34.7999 16.8532 34.3565 15.2888C31.9693 14.6589 30.0106 15.1954 28.1952 14.5496Z" fill="#C8161E"/>
</g>
<defs>
<clipPath id="clip0_538_13892">
<rect width="40.1239" height="40" fill="white" transform="translate(4 4)"/>
</clipPath>
</defs>
</svg>
