<svg width="48" height="48" viewBox="0 0 48 48" fill="none" xmlns="http://www.w3.org/2000/svg">
<g clip-path="url(#clip0_538_13894)">
<path d="M43.9541 23.9993C43.9541 12.6223 34.6201 4 23.9768 4C12.7819 4 4 13.0247 4 23.9993C4 35.3825 13.3312 44 23.9783 44C35.1708 44 43.9541 34.9753 43.9541 24.0031V23.9993ZM7.12664 23.9993C7.12664 20.7068 8.0836 17.2188 10.2533 14.215C19.2364 1.81312 34.4342 10.716 30.982 16.4841C29.8969 18.2967 27.5518 19.1987 25.2741 17.5309C19.7178 13.4779 11.8871 17.2905 9.68205 23.9993C8.85128 26.3037 8.42968 30.852 11.4382 34.9399L11.2972 35.0694C8.9617 32.405 7.12664 28.6976 7.12664 23.9993ZM29.308 23.9993L24.0667 29.2449L18.821 23.9993H18.8253L24.0667 18.7575L29.308 23.9993ZM37.6975 33.7831C28.7143 46.1826 13.5176 37.2855 16.9712 31.5126C18.0543 29.7014 20.4004 28.8009 22.6814 30.4667C28.2296 34.5197 36.0675 30.7033 38.2716 23.9993C39.1004 21.6991 39.5177 17.1738 36.5436 13.0945L36.6903 12.9664C39.0106 15.6284 40.826 19.323 40.826 23.9993C40.826 27.2942 39.8715 30.7808 37.6975 33.7831Z" fill="#DF0011"/>
</g>
<defs>
<clipPath id="clip0_538_13894">
<rect width="39.9541" height="40" fill="white" transform="translate(4 4)"/>
</clipPath>
</defs>
</svg>
