<svg width="48" height="48" viewBox="0 0 48 48" fill="none" xmlns="http://www.w3.org/2000/svg">
<g clip-path="url(#clip0_538_13896)">
<path d="M5.50928 16.1937L13.0651 20.8483C13.0651 20.8483 29.8693 4.97234 41.6198 11.9811C41.7311 12.0472 38.9108 6.13154 29.024 7.10909C25.5086 7.45559 15.7846 9.58814 5.50928 16.1937Z" fill="#ED6C00"/>
<path d="M18.1167 22.0773L26.9104 27.9489L35.3493 22.0794L26.9146 16.6152L18.1167 22.0773Z" fill="#ED6C00"/>
<path d="M42.8782 13.2559C44.0972 16.5046 42.6902 23.6845 31.303 30.1336C31.303 30.1336 28.3294 32.0929 26.8594 32.1307C26.2735 32.1475 24.1829 30.9274 22.4662 29.785C21.3773 29.0867 20.1478 28.2793 18.9046 27.4477C18.0499 26.8901 17.2561 26.3546 16.519 25.8475C13.6955 23.9386 11.2459 22.2292 10.7618 21.9089C9.53123 21.0983 8.42033 20.6269 7.54253 20.8831C4.94798 21.6443 2.93093 23.7118 3.00233 23.737C3.20708 23.6404 6.39278 22.0076 8.60933 23.675C9.91448 24.6578 17.1164 33.2122 20.7263 37.3534C25.2004 41.7476 28.6034 41.6888 34.1663 36.4934C39.6305 31.3957 49.2916 20.9335 42.8782 13.2559Z" fill="#C8161E"/>
</g>
<defs>
<clipPath id="clip0_538_13896">
<rect width="42" height="33.5297" fill="white" transform="translate(3 7)"/>
</clipPath>
</defs>
</svg>
