<svg width="48" height="48" viewBox="0 0 48 48" fill="none" xmlns="http://www.w3.org/2000/svg">
<g clip-path="url(#clip0_538_13753)">
<path d="M34.0739 23.568C34.0739 23.568 34.0669 23.69 34.4219 23.935C36.6389 25.718 37.8069 27.435 37.7929 30.949C37.7739 35.326 33.9759 38.508 29.6599 38.508V44.563C37.1759 44.563 43.9999 39.206 43.9999 31.572C43.9999 28.833 43.2579 26.146 41.3969 23.524C41.4759 23.424 41.8799 22.941 42.2079 22.357C42.6689 21.55 42.7539 20.565 42.7539 17.269V3H23.4799V14.372H17.3359V20.621H29.7559V9.395H36.6959V19.074C36.6969 19.073 36.9779 21.779 34.0739 23.568Z" fill="#009EA1"/>
<path d="M17.396 3H15.61V3.006C12.34 3.091 8.918 4.123 6.637 6.716C4.23 9.458 4 11.885 4 15.897V44.553H23.581V33.309H29.775V26.982H17.34V38.32H10.232V14.571C10.232 14.571 9.771 9.41 15.977 9.264L17.398 9.2L17.396 3V3Z" fill="#0094CC"/>
</g>
<defs>
<clipPath id="clip0_538_13753">
<rect width="40" height="41.562" fill="white" transform="translate(4 3)"/>
</clipPath>
</defs>
</svg>
