<svg width="48" height="48" viewBox="0 0 48 48" fill="none" xmlns="http://www.w3.org/2000/svg">
<g clip-path="url(#clip0_538_13879)">
<path d="M40.8777 4C32.1324 4 24.7018 9.61172 21.983 17.4287C20.7857 20.5299 18.2409 22.96 15.0646 23.9997C17.1868 24.6952 19.0255 26.0118 20.3697 27.7338C18.9589 32.7502 14.7745 36.6069 9.57678 37.5411V10.4582C14.0954 11.2704 17.8473 14.2912 19.6781 18.3609C20.3302 15.9065 21.3969 13.6194 22.7991 11.5816C19.1369 6.96277 13.477 4 7.12297 4H4V43.9993H7.12297C15.8669 43.9993 23.2995 38.3876 26.0184 30.5693L26.017 30.572C27.2136 27.4707 29.7604 25.0393 32.9354 23.9997C30.8119 23.3055 28.9745 21.9896 27.629 20.2682C29.0405 15.2505 33.2235 11.3937 38.4245 10.4582V37.5411C33.9059 36.7289 30.154 33.7088 28.3232 29.6397C27.6705 32.0955 26.6018 34.3799 25.1995 36.4171C28.8631 41.0366 34.5236 43.9993 40.8777 43.9993H44V4H40.8777Z" fill="#942531"/>
</g>
<defs>
<clipPath id="clip0_538_13879">
<rect width="40" height="39.9993" fill="white" transform="translate(4 4)"/>
</clipPath>
</defs>
</svg>
