<svg width="48" height="48" viewBox="0 0 48 48" fill="none" xmlns="http://www.w3.org/2000/svg">
<g clip-path="url(#clip0_538_13881)">
<path fill-rule="evenodd" clip-rule="evenodd" d="M6.20049 42.652H16.2336L21.1948 36.6263C21.1948 36.6263 23.1407 34.2811 23.1407 32.0653C23.1407 29.3133 21.065 27.2112 21.065 27.2112L14.3062 19.5677C14.3062 19.5677 13.1306 18.295 13.1306 16.4578C13.1306 14.9467 13.9012 13.9866 13.9012 13.9866L19.8464 6.82936L17.8154 5L6.07231 19.1831C6.07231 19.1831 4.24577 20.9924 4.01801 22.8098C3.79181 24.6276 5.77134 27.0196 5.77134 27.0196C5.77134 27.0196 8.36977 30.4213 9.25885 31.47C10.152 32.5224 11.6628 33.5724 11.7608 35.2597C11.9192 36.3546 10.9283 37.3056 10.9283 37.3056L6.20049 42.652ZM41.8 42.652H31.7682L26.8057 36.6263C26.8057 36.6263 24.8595 34.2811 24.8595 32.0653C24.8595 29.3133 26.9352 27.2112 26.9352 27.2112L33.6959 19.5677C33.6959 19.5677 34.8709 18.295 34.8709 16.4578C34.8709 14.9467 34.099 13.9866 34.099 13.9866L28.1538 6.82936L30.1867 5L41.9266 19.1831C41.9266 19.1831 43.7532 20.9924 43.9822 22.8098C44.2087 24.6276 42.2263 27.0196 42.2263 27.0196C42.2263 27.0196 39.6336 30.4213 38.7432 31.47C37.8516 32.5224 36.3361 33.5724 36.2378 35.2597C36.0795 36.3546 37.0735 37.3056 37.0735 37.3056L41.8 42.652Z" fill="#00873C"/>
<path fill-rule="evenodd" clip-rule="evenodd" d="M27.9621 16.2642L24.1635 20.0653L19.999 15.9029L24.1635 11.7378L27.7475 15.3268H31.6082C31.3113 11.4726 28.0905 8.4375 24.1635 8.4375C20.0395 8.4375 16.6987 11.7811 16.6987 15.9029C16.6987 20.0263 20.0392 23.3683 24.1635 23.3683C28.1641 23.3683 31.4295 20.2195 31.6198 16.2645H27.9621V16.2642Z" fill="#E60012"/>
</g>
<defs>
<clipPath id="clip0_538_13881">
<rect width="40" height="37.652" fill="white" transform="translate(4 5)"/>
</clipPath>
</defs>
</svg>
