<svg width="48" height="48" viewBox="0 0 48 48" fill="none" xmlns="http://www.w3.org/2000/svg">
<g clip-path="url(#clip0_538_13882)">
<path d="M6 7.56055H42V40.4439H6V7.56055Z" fill="white"/>
<path d="M16.5361 33.9231V39.2166C16.5361 39.6522 16.2427 39.7931 15.8458 39.334C15.8458 39.334 12.3609 35.4046 11.9672 34.4387C9.96246 34.7194 7.96853 35.0668 6 35.489V40.4428C6 41.3019 6.69915 42.0004 7.56086 42.0004H40.4436C41.3028 42.0004 42 41.3013 42 40.4428V35.489C33.7214 33.7091 25.049 33.1903 16.5361 33.9231Z" fill="url(#paint0_linear_538_13882)"/>
<path d="M40.4436 6H7.56086C6.69915 6 6 6.69915 6 7.55959V33.3632C7.95583 32.9428 9.93579 32.5987 11.9285 32.318V30.1247H11.9297C11.8853 28.2736 14.0208 26.8569 18.471 26.8569L30.3685 26.8366C33.7137 26.8366 33.7684 24.522 30.373 24.522C30.373 24.522 17.3413 24.5125 16.8257 24.5125C8.1095 24.5125 8.1222 17.9325 16.9654 17.9325C18.6088 17.9325 30.3361 17.9369 30.3888 17.9369C33.7106 17.9369 33.7963 15.515 30.3603 15.515L12.7578 15.5131C12.5362 15.5131 12.4447 15.3016 12.4447 15.3016L11.4154 13.4747C11.3893 13.3826 11.4281 13.3312 11.5055 13.2956C13.6233 12.5 16.1379 11.2738 16.9984 9.51351C17.0397 9.42016 17.1146 9.39349 17.2073 9.39349H22.316C22.3852 9.39349 22.415 9.45001 22.3902 9.52558C22.048 10.668 20.0636 12.3755 18.4227 13.2137L18.4259 13.2156C18.3376 13.2613 18.3421 13.3433 18.4392 13.3433H31.1769C39.8949 13.3433 39.8835 19.9734 31.0372 19.9734H17.6975C14.3085 19.9734 14.2685 22.3922 17.6105 22.3922C17.6105 22.3922 30.9007 22.3998 31.1762 22.3998C39.8943 22.3991 39.8829 28.8915 31.0365 28.8915C29.3925 28.8915 19.8877 28.8889 19.7969 28.8889C17.2213 28.8889 16.5361 29.3315 16.5361 30.3444V31.7967C25.049 31.0651 33.7214 31.5827 42.0006 33.3626V7.55959C42 6.69915 41.3028 6 40.4436 6V6Z" fill="url(#paint1_radial_538_13882)"/>
</g>
<defs>
<linearGradient id="paint0_linear_538_13882" x1="24" y1="27.6524" x2="24" y2="42.2551" gradientUnits="userSpaceOnUse">
<stop stop-color="white"/>
<stop offset="0.5" stop-color="#FDD000"/>
<stop offset="1" stop-color="#F08300"/>
</linearGradient>
<radialGradient id="paint1_radial_538_13882" cx="0" cy="0" r="1" gradientUnits="userSpaceOnUse" gradientTransform="translate(23.525 42.0921) scale(35.5307 35.5307)">
<stop stop-color="white"/>
<stop offset="0.5" stop-color="#0097E0"/>
<stop offset="1" stop-color="#004EA2"/>
</radialGradient>
<clipPath id="clip0_538_13882">
<rect width="36" height="36.0006" fill="white" transform="translate(6 6)"/>
</clipPath>
</defs>
</svg>
