<svg width="48" height="48" viewBox="0 0 48 48" fill="none" xmlns="http://www.w3.org/2000/svg">
<g clip-path="url(#clip0_538_13883)">
<path fill-rule="evenodd" clip-rule="evenodd" d="M23.947 20.1566C22.1987 23.6625 20.2045 27.1041 18.0332 30.3712C12.4372 30.7087 6.97085 31.5484 2 32.9061C9.10308 25.1449 14.9807 15.0317 18.0808 5H18.0924C19.4398 9.97085 21.4499 15.1331 23.947 20.1566Z" fill="#B21E23"/>
<path fill-rule="evenodd" clip-rule="evenodd" d="M18.0315 30.3713C21.9529 30.136 25.9353 30.1448 29.8554 30.3976C32.9803 35.1038 36.4772 39.4351 40.1721 43.057C29.8814 40.7432 18.1289 40.6851 7.83742 43.0107L7.82715 42.9959L7.99997 42.8248L8.16974 42.6533L8.33994 42.4818L8.5084 42.3074L8.6786 42.1328L8.84706 41.9497L9.01442 41.7782L9.18418 41.6008L9.35286 41.4175L9.51978 41.2403L9.68736 41.0598L9.85429 40.8767L10.0217 40.6967L10.1888 40.5134L10.3548 40.3246L10.5218 40.1415L10.6878 39.9554L10.8534 39.7666L11.0175 39.5804L11.1821 39.3943L11.3477 39.2022L11.5104 39.0135L11.6761 38.8214L11.839 38.6324C14.0141 36.066 16.0939 33.2845 18.0315 30.3713Z" fill="#6E1318"/>
<path fill-rule="evenodd" clip-rule="evenodd" d="M29.8552 30.3974C27.6864 27.1275 25.6953 23.6741 23.9468 20.1594C26.4467 15.1364 28.4453 9.98243 29.7501 5C32.942 15.0726 38.8112 25.2581 45.9998 32.9583L45.9939 32.9727C40.9942 31.6244 35.4887 30.761 29.8552 30.3974Z" fill="#D71723"/>
<path fill-rule="evenodd" clip-rule="evenodd" d="M29.8555 30.3965C35.489 30.7601 40.9945 31.6235 45.9942 32.972L40.1721 43.056C36.477 39.4341 32.9801 35.1027 29.8555 30.3965Z" fill="#B21E23"/>
<path fill-rule="evenodd" clip-rule="evenodd" d="M18.033 30.3711C14.9311 35.0367 11.4645 39.3508 7.82689 42.9956L2 32.906C6.97085 31.5483 12.4372 30.7087 18.033 30.3711Z" fill="#D71723"/>
<path fill-rule="evenodd" clip-rule="evenodd" d="M29.7502 5C28.4452 9.98243 26.4484 15.1364 23.9467 20.1566C21.4498 15.1331 19.4397 9.97085 18.0923 5H29.7502Z" fill="#6E1318"/>
</g>
<defs>
<clipPath id="clip0_538_13883">
<rect width="44" height="38.0569" fill="white" transform="translate(2 5)"/>
</clipPath>
</defs>
</svg>
