<svg width="48" height="48" viewBox="0 0 48 48" fill="none" xmlns="http://www.w3.org/2000/svg">
<g clip-path="url(#clip0_538_13884)">
<path fill-rule="evenodd" clip-rule="evenodd" d="M31.3326 37.0178C28.1877 37.0178 25.4773 38.89 24.2651 41.5784H23.736C22.5227 38.8889 19.8145 37.0178 16.6674 37.0178V35.7088C19.8145 35.7088 22.5227 33.8366 23.7371 31.1482H24.2651C25.4795 33.8355 28.1877 35.7088 31.3326 35.7088V37.0178ZM24 28.6347C27.1471 28.6347 29.8553 30.5069 31.0708 33.1953H31.5977C32.8121 30.5069 35.5203 28.6347 38.6663 28.6347V27.3257C35.5214 27.3257 32.811 25.4557 31.5966 22.7673H31.0697C29.8553 25.4546 27.1482 27.3268 24 27.3268C20.854 27.3268 18.1447 25.4557 16.9325 22.7673H16.4034C15.1901 25.4546 12.4808 27.3257 9.3337 27.3257V28.6347C12.4808 28.6347 15.1901 30.5069 16.4023 33.1953H16.9303C18.1436 30.5069 20.854 28.6347 24 28.6347ZM16.6674 20.2527C13.5203 20.2527 10.811 22.1249 9.5977 24.8122H9.0697C7.8564 22.1249 5.1471 20.2516 2 20.2516V18.9426C5.1471 18.9426 7.8564 17.0704 9.0708 14.3831H9.5988C10.8121 17.0704 13.5203 18.9437 16.6674 18.9437C19.8145 18.9437 22.5227 17.0704 23.736 14.3831H24.264C25.4784 17.0704 28.1877 18.9426 31.3337 18.9426C34.4797 18.9426 37.189 17.0704 38.4045 14.3831H38.9314C40.1458 17.0704 42.8518 18.9437 46 18.9437V20.2527C42.8529 20.2527 40.1447 22.1249 38.9303 24.8122H38.4034C37.189 22.1249 34.4808 20.2516 31.3337 20.2516C28.1866 20.2516 25.4773 22.1249 24.2651 24.8122H23.7371C22.5227 22.1249 19.8145 20.2527 16.6674 20.2527ZM24 11.8685C27.1471 11.8685 29.8553 13.7407 31.0708 16.428H31.5977C32.811 13.7407 35.5192 11.8685 38.6663 11.8685V10.5595C35.5203 10.5595 32.8099 8.6873 31.5966 6H31.0697C29.8553 8.6873 27.1471 10.5595 24 10.5595C20.8529 10.5595 18.1447 8.6873 16.9325 6H16.4034C15.1901 8.6873 12.4808 10.5595 9.3337 10.5595V11.8685C12.4808 11.8685 15.1901 13.7407 16.4023 16.428H16.9292C18.1436 13.7407 20.8529 11.8685 24 11.8685Z" fill="#F39800"/>
</g>
<defs>
<clipPath id="clip0_538_13884">
<rect width="44" height="35.5784" fill="white" transform="translate(2 6)"/>
</clipPath>
</defs>
</svg>
