<svg width="48" height="48" viewBox="0 0 48 48" fill="none" xmlns="http://www.w3.org/2000/svg">
<g clip-path="url(#clip0_538_13885)">
<path d="M43.9992 24.0008C43.9992 23.6094 43.9854 23.2071 43.9551 22.8032C43.7649 20.1895 42.9601 18.0534 41.6869 16.5568C42.646 16.1254 42.081 14.8191 41.764 14.0887C40.4053 10.9441 36.4393 6.86917 33.2559 5.82727C32.5724 5.65084 31.7153 5.43175 31.4727 6.27928C29.9678 4.86264 27.5675 4.20948 24.7616 4.03163C24.5052 4.01511 24.2518 4.00551 24.0009 4C23.7474 4.00551 23.4938 4.01511 23.2375 4.03163C20.4317 4.20948 18.0312 4.86264 16.5263 6.27928C16.2838 5.43175 15.4238 5.65084 14.7431 5.82727C11.5598 6.86917 7.59378 10.9439 6.23506 14.0887C5.91808 14.8191 5.35306 16.1254 6.31218 16.5568C5.03891 18.0534 4.23404 20.1893 4.04108 22.8032C4.01385 23.2069 4 23.6094 4 24.0008V24.0022C4 24.3949 4.01385 24.7945 4.04139 25.1984C4.23435 27.8126 5.03923 29.9497 6.31249 31.4463C5.35337 31.8763 5.91839 33.1854 6.23537 33.913C7.5941 37.0564 11.5601 41.1326 14.7434 42.1759C15.4241 42.3522 16.2841 42.5727 16.5266 41.7239C18.0316 43.1391 20.4319 43.7924 23.2378 43.9714C23.4942 43.9866 23.7475 43.9962 24.0013 44.0003C24.2521 43.9964 24.5055 43.9866 24.7619 43.9714C27.5677 43.7923 29.9681 43.1391 31.4731 41.7239C31.7156 42.5728 32.5727 42.3522 33.2563 42.1759C36.4396 41.1326 40.4056 37.0564 41.7643 33.913C42.0813 33.1854 42.6463 31.8765 41.6872 31.4463C42.9605 29.9497 43.7652 27.8126 43.9555 25.1984C43.9857 24.7947 43.9995 24.395 43.9995 24.0022V24.0008H43.9992ZM35.8576 8.69235C36.0395 8.65237 36.238 8.57242 36.2463 8.35617C36.2518 8.23482 36.1774 8.10687 36.0974 8.01716C37.2275 8.91836 38.6882 10.4301 39.8456 11.8991C39.2338 11.5215 39.2283 12.3842 39.253 12.8774C39.2696 13.1228 39.311 13.3956 39.3468 13.5969C38.3353 11.494 36.4805 9.75062 34.4382 8.67724C34.7606 8.73232 35.4443 8.78473 35.8576 8.69235ZM32.7073 9.74653C33.6803 11.1646 35.6756 13.3776 37.4176 14.713C37.5498 14.815 37.8172 15.0547 38.2003 15.3221C37.0098 15.6253 36.2186 16.408 35.5875 17.2748C34.9509 18.1499 34.4574 19.211 34.1323 20.381C32.9361 17.3189 30.8441 15.15 27.7989 13.9318C30.0367 13.1407 32.0404 12.1099 32.7073 9.74653ZM30.734 24.0008V24.0022C27.8262 24.9903 25.7124 26.8726 24.4832 29.5116C24.3067 29.8975 24.1717 30.3054 24.0009 30.7134C23.8272 30.3054 23.6923 29.8975 23.5159 29.5116C22.2865 26.8726 20.1728 24.9903 17.2651 24.0022V24.0008C20.1728 23.0113 22.2865 21.1289 23.5159 18.4903C23.6923 18.1073 23.8273 17.6979 24.0009 17.2915C24.1719 17.6981 24.3067 18.1073 24.4832 18.4903C25.7124 21.1289 27.8264 23.0113 30.734 24.0008ZM20.622 5.21692C21.6197 5.3422 22.813 5.39603 24.0009 5.3891C25.1861 5.39603 26.3794 5.3422 27.3744 5.21692C26.9858 5.57104 26.7461 6.06303 26.7985 6.7782C26.884 8.0074 27.6391 8.86327 28.1572 9.65288C27.041 9.11541 25.6491 8.73783 24.0121 8.69786H23.9873C22.3503 8.73783 20.9583 9.11541 19.8421 9.65288C20.3603 8.86327 21.1154 8.0074 21.2009 6.7782C21.2531 6.06303 21.0106 5.57104 20.622 5.21692ZM15.2918 9.74653C15.9586 12.1099 17.9596 13.1406 20.2004 13.9316C17.1547 15.1498 15.0629 17.3188 13.8669 20.3809C13.5444 19.2109 13.0484 18.1498 12.4117 17.2747C11.7806 16.408 10.9896 15.6253 9.79894 15.322C10.1792 15.0546 10.4494 14.8149 10.5816 14.7129C12.3234 13.3778 14.3216 11.1646 15.2918 9.74653ZM11.899 8.01716C11.8218 8.10671 11.7472 8.23482 11.7527 8.35617C11.7611 8.57258 11.9594 8.65237 12.1415 8.69235C12.5548 8.78473 13.2385 8.73232 13.561 8.67724C11.5186 9.75078 9.66374 11.494 8.64954 13.5969C8.6881 13.3957 8.72949 13.1228 8.74602 12.8774C8.77073 12.3842 8.76522 11.5214 8.15613 11.8991C9.31104 10.4301 10.7691 8.91836 11.899 8.01716ZM5.37258 27.4142C5.48023 26.4482 5.54066 25.2382 5.5435 24.0022V24.0008C5.54066 22.7618 5.48023 21.5575 5.37258 20.5863C5.64816 20.925 6.13874 21.191 6.71761 21.1798C7.6602 21.1604 8.79307 20.5587 9.62801 19.882C9.1154 20.9897 8.735 22.391 8.735 24.0006V24.002C8.735 25.6102 9.1154 27.0144 9.62801 28.121C8.79292 27.443 7.6602 26.8435 6.71761 26.8215C6.13874 26.8105 5.64816 27.0779 5.37258 27.4142ZM12.1415 39.3094C11.9596 39.3479 11.7611 39.4307 11.7527 39.6482C11.7472 39.7668 11.8217 39.8949 11.899 39.986C10.7689 39.0846 9.31104 37.5731 8.15613 36.104C8.76522 36.4816 8.77073 35.6161 8.74602 35.1241C8.72949 34.8788 8.6881 34.606 8.64954 34.4049C9.66374 36.5092 11.5186 38.2511 13.561 39.3259C13.2385 39.2694 12.5548 39.217 12.1415 39.3094ZM15.2918 38.258C14.3216 36.8359 12.3234 34.6241 10.5815 33.2874C10.4493 33.1867 10.179 32.947 9.79878 32.681C10.9893 32.3751 11.7804 31.5938 12.4116 30.7283C13.0482 29.8532 13.5443 28.7921 13.8668 27.6209C15.0629 30.6842 17.1547 32.8507 20.2002 34.0701C17.9596 34.8624 15.9586 35.8946 15.2918 38.258ZM27.3744 42.7875C26.3795 42.6608 25.1862 42.6057 24.0009 42.6126C22.813 42.6057 21.6197 42.661 20.622 42.7875C21.0106 42.432 21.2531 41.94 21.2007 41.2262C21.1152 39.9943 20.3601 39.1385 19.842 38.3503C20.9582 38.8863 22.3501 39.2641 23.9871 39.304H24.012C25.6489 39.2641 27.0409 38.8865 28.1571 38.3503C27.639 39.1386 26.8838 39.9943 26.7983 41.2262C26.7459 41.94 26.9858 42.432 27.3744 42.7875ZM32.7073 38.258C32.0404 35.8946 30.0366 34.8626 27.7987 34.0701C30.8441 32.8507 32.9361 30.6842 34.1321 27.6209C34.4573 28.7921 34.9507 29.8534 35.5873 30.7283C36.2185 31.5938 37.0095 32.3751 38.2001 32.681C37.817 32.9468 37.5496 33.1867 37.4174 33.2874C35.6758 34.6241 33.6803 36.8357 32.7073 38.258ZM36.0973 39.986C36.1772 39.895 36.2517 39.7668 36.2462 39.6482C36.2378 39.4306 36.0395 39.3479 35.8574 39.3094C35.4441 39.217 34.7604 39.2694 34.4379 39.3258C36.4803 38.251 38.3352 36.5092 39.3465 34.4047C39.3106 34.6059 39.2694 34.8788 39.2527 35.124C39.228 35.616 39.2335 36.4815 39.8453 36.1039C38.688 37.5731 37.2273 39.0846 36.0973 39.986ZM42.6266 27.4142C42.3509 27.0779 41.8605 26.8106 41.2816 26.8216C40.339 26.8437 39.2061 27.4432 38.3712 28.1212C38.8838 27.0146 39.2642 25.6104 39.2642 24.0022V24.0008C39.2642 22.3912 38.8838 20.9898 38.3712 19.8821C39.2063 20.5587 40.339 21.1606 41.2816 21.1799C41.8605 21.191 42.3509 20.925 42.6266 20.5864C42.519 21.5577 42.4557 22.762 42.4529 24.0009V24.0024C42.4557 25.2382 42.519 26.448 42.6266 27.4142Z" fill="url(#paint0_radial_538_13885)"/>
</g>
<defs>
<radialGradient id="paint0_radial_538_13885" cx="0" cy="0" r="1" gradientUnits="userSpaceOnUse" gradientTransform="translate(32.1243 13.6) scale(35.4976 35.4976)">
<stop offset="0.093" stop-color="#D80C18"/>
<stop offset="0.267" stop-color="#C90613"/>
<stop offset="0.635" stop-color="#A30000"/>
<stop offset="0.808" stop-color="#910000"/>
<stop offset="0.861" stop-color="#930000"/>
<stop offset="0.894" stop-color="#990000"/>
<stop offset="0.921" stop-color="#A20000"/>
<stop offset="0.945" stop-color="#AF0006"/>
<stop offset="0.968" stop-color="#BE020E"/>
<stop offset="0.988" stop-color="#CE0814"/>
<stop offset="1" stop-color="#D80C18"/>
</radialGradient>
<clipPath id="clip0_538_13885">
<rect width="39.9992" height="40" fill="white" transform="translate(4 4)"/>
</clipPath>
</defs>
</svg>
