<svg width="48" height="48" viewBox="0 0 48 48" fill="none" xmlns="http://www.w3.org/2000/svg">
<g clip-path="url(#clip0_538_13886)">
<path d="M16.8643 18.0716C16.7312 18.1981 16.6498 18.373 16.6498 18.5699C16.6487 18.7943 16.8093 19.0176 16.8093 19.0176L9.48771 11.6916C8.54061 10.7489 9.36231 9.7259 9.39531 9.694L10.0751 9.0164C10.7021 8.3894 11.5579 8 12.5116 8H19.402C19.7793 8 20.117 8.1573 20.3546 8.4114L23.4313 11.4958L16.8643 18.0716Z" fill="url(#paint0_linear_538_13886)"/>
<path d="M45.0881 16.1812C45.0881 16.1812 41.3305 12.4236 38.6058 9.69336C38.6377 9.72526 39.4583 10.7483 38.5134 11.6921L24 26.2099L9.4877 11.691C8.5406 10.7483 9.3623 9.72526 9.3953 9.69336C6.6706 12.4236 2.9119 16.1812 2.9119 16.1812C2.3498 16.7334 2 17.5034 2 18.3548C2 19.2062 2.3498 19.9718 2.9119 20.5284L20.7495 38.3649C21.591 39.1866 22.7372 39.7003 23.9989 39.7069C25.2628 39.7003 26.4079 39.1866 27.2505 38.3649L45.0881 20.5284C45.6513 19.9718 46 19.2062 46 18.3548C46 17.5034 45.6513 16.7334 45.0881 16.1812Z" fill="url(#paint1_linear_538_13886)"/>
<path d="M27.6819 14.6154L31.137 18.0716C31.2712 18.1981 31.3515 18.373 31.3515 18.5699C31.3537 18.7943 31.192 19.0176 31.192 19.0176L38.5136 11.6927C39.4585 10.7489 38.6379 9.7259 38.606 9.694L37.9251 9.0164C37.2992 8.3894 36.4423 8 35.4886 8H28.5982C28.2209 8 27.8832 8.1573 27.6456 8.4114L21.8486 14.215H26.6336C27.034 14.215 27.4025 14.3624 27.6819 14.6154Z" fill="url(#paint2_linear_538_13886)"/>
</g>
<defs>
<linearGradient id="paint0_linear_538_13886" x1="12.6161" y1="14.8431" x2="21.2335" y2="6.2257" gradientUnits="userSpaceOnUse">
<stop stop-color="#C23A1E"/>
<stop offset="1" stop-color="#F18D00"/>
</linearGradient>
<linearGradient id="paint1_linear_538_13886" x1="24" y1="39.6596" x2="24" y2="11.196" gradientUnits="userSpaceOnUse">
<stop stop-color="#C23A1E"/>
<stop offset="1" stop-color="#F18D00"/>
</linearGradient>
<linearGradient id="paint2_linear_538_13886" x1="34.0982" y1="15.8254" x2="27.2243" y2="8.9515" gradientUnits="userSpaceOnUse">
<stop stop-color="#C23A1E"/>
<stop offset="1" stop-color="#F18D00"/>
</linearGradient>
<clipPath id="clip0_538_13886">
<rect width="44" height="31.7075" fill="white" transform="translate(2 8)"/>
</clipPath>
</defs>
</svg>
