<svg width="48" height="48" viewBox="0 0 48 48" fill="none" xmlns="http://www.w3.org/2000/svg">
<g clip-path="url(#clip0_538_13887)">
<path d="M31.4614 16.5403H31.4622C36.0638 16.9625 41.4405 22.586 42.3849 23.9999C45.5581 19.2479 44.0294 15.9598 38.0354 9.96453C32.0401 3.97229 28.752 2.44135 24 5.61547H24.0013C25.4156 6.55981 31.04 11.9378 31.4614 16.5403Z" fill="url(#paint0_linear_538_13887)"/>
<path d="M31.4624 31.4609H31.4615C31.0415 36.063 25.4158 41.4405 24.0028 42.3849L24.0015 42.3862C28.7521 45.5586 32.0402 44.0263 38.0355 38.0341C44.0295 32.0383 45.5583 28.7533 42.385 24C41.4403 25.4152 36.0644 31.0392 31.4624 31.4609Z" fill="url(#paint1_linear_538_13887)"/>
<path d="M31.4624 16.541V31.4611C36.0644 31.0394 41.4407 25.4154 42.385 24.0002C41.4403 22.5872 36.064 16.9632 31.4624 16.541Z" fill="url(#paint2_linear_538_13887)"/>
<path d="M16.5394 16.5405C16.9602 11.9372 22.586 6.55961 23.9998 5.61527C19.2479 2.44159 15.9606 3.9721 9.96709 9.96434C3.97178 15.9601 2.44172 19.2482 5.61496 24.0002L5.61583 24.0019L5.61715 24.0002C6.56061 22.5854 11.9369 16.961 16.5394 16.5405Z" fill="url(#paint3_linear_538_13887)"/>
<path d="M16.5396 16.5405H31.4614C31.0401 11.9376 25.4157 6.55958 24.0014 5.61523H24C22.5862 6.56002 16.9604 11.9372 16.5396 16.5405Z" fill="url(#paint4_linear_538_13887)"/>
<path d="M16.5394 31.4607C11.9395 31.0389 6.56456 25.4176 5.61583 24.002C2.44259 28.753 3.9731 32.0411 9.96797 38.0338C15.9598 44.0261 19.2483 45.5583 24.0012 42.386L23.9998 42.3846C22.586 41.4399 16.9602 36.0627 16.5394 31.4607Z" fill="url(#paint5_linear_538_13887)"/>
<path d="M31.4614 31.4609H16.5396C16.9604 36.063 22.5862 41.4406 24 42.3849L24.0014 42.3862L24.0027 42.3849C25.4157 41.4401 31.0414 36.063 31.4614 31.4609Z" fill="url(#paint6_linear_538_13887)"/>
<path d="M16.5397 31.4616V16.541C11.9373 16.9615 6.56099 22.5859 5.61753 24.0006L5.61621 24.0028C6.56494 25.4185 11.9399 31.0398 16.5397 31.4616Z" fill="url(#paint7_linear_538_13887)"/>
</g>
<defs>
<linearGradient id="paint0_linear_538_13887" x1="34.0002" y1="70.2666" x2="34.0002" y2="-27.1783" gradientUnits="userSpaceOnUse">
<stop stop-color="#F19EC2"/>
<stop offset="1" stop-color="#9C308D"/>
</linearGradient>
<linearGradient id="paint1_linear_538_13887" x1="34.0008" y1="48.339" x2="34.0008" y2="18.0757" gradientUnits="userSpaceOnUse">
<stop stop-color="#00A0E9"/>
<stop offset="1" stop-color="#674498"/>
</linearGradient>
<linearGradient id="paint2_linear_538_13887" x1="36.9233" y1="31.4616" x2="36.9233" y2="4.00238" gradientUnits="userSpaceOnUse">
<stop stop-color="#3B1E87"/>
<stop offset="1" stop-color="#7F1084"/>
</linearGradient>
<linearGradient id="paint3_linear_538_13887" x1="13.9996" y1="69.5636" x2="13.9996" y2="-19.6698" gradientUnits="userSpaceOnUse">
<stop stop-color="#F19EC2"/>
<stop offset="1" stop-color="#9C308D"/>
</linearGradient>
<linearGradient id="paint4_linear_538_13887" x1="24.0005" y1="26.2733" x2="24.0005" y2="-13.0906" gradientUnits="userSpaceOnUse">
<stop stop-color="#A50082"/>
<stop offset="1" stop-color="#51318F"/>
</linearGradient>
<linearGradient id="paint5_linear_538_13887" x1="14.0009" y1="48.3383" x2="14.0009" y2="18.075" gradientUnits="userSpaceOnUse">
<stop stop-color="#00A0E9"/>
<stop offset="1" stop-color="#674498"/>
</linearGradient>
<linearGradient id="paint6_linear_538_13887" x1="24.0005" y1="48.3403" x2="24.0005" y2="18.074" gradientUnits="userSpaceOnUse">
<stop stop-color="#0075C2"/>
<stop offset="1" stop-color="#1D2088"/>
</linearGradient>
<linearGradient id="paint7_linear_538_13887" x1="11.078" y1="31.4616" x2="11.078" y2="4.00194" gradientUnits="userSpaceOnUse">
<stop stop-color="#3B1E87"/>
<stop offset="1" stop-color="#7F1084"/>
</linearGradient>
<clipPath id="clip0_538_13887">
<rect width="40" height="40" fill="white" transform="translate(4 4)"/>
</clipPath>
</defs>
</svg>
