<svg width="48" height="48" viewBox="0 0 48 48" fill="none" xmlns="http://www.w3.org/2000/svg">
<g clip-path="url(#clip0_538_13763)">
<path d="M26.5293 9.12638C26.5293 10.4224 25.4743 11.4793 24.18 11.4793C22.8779 11.4793 21.8299 10.4224 21.8299 9.12638V2.34582C21.8296 1.05154 22.8779 0 24.1796 0C25.4739 0 26.529 1.05154 26.529 2.34582V9.12638H26.5293ZM20.394 9.98252C21.5183 10.6323 21.8985 12.0701 21.2568 13.193C20.6049 14.3215 19.1693 14.7017 18.0446 14.054L12.1774 10.6708C11.0503 10.0157 10.6673 8.58366 11.316 7.45262C11.963 6.33713 13.3993 5.94775 14.5194 6.59648L20.394 9.98252ZM18.0718 15.7275C19.1937 15.0826 20.6357 15.4593 21.2823 16.5875C21.9275 17.7115 21.5483 19.1467 20.4205 19.7887L14.5505 23.1854C13.4325 23.8387 11.987 23.4529 11.3414 22.3289C10.6909 21.1978 11.0778 19.7654 12.199 19.1139L18.0718 15.7275ZM28.0176 19.747C26.8866 19.0997 26.5014 17.662 27.1544 16.5401C27.8028 15.4162 29.2377 15.0317 30.3691 15.6776L36.2366 19.0736C37.3574 19.7188 37.7447 21.1505 37.0952 22.2794C36.4479 23.409 35.0059 23.7899 33.8848 23.1356L28.0176 19.747ZM30.3394 14.0074C29.2179 14.6554 27.7749 14.2724 27.1276 13.1442C26.4795 12.0269 26.8551 10.5832 27.9862 9.94154L33.8579 6.55019C34.9777 5.89828 36.4214 6.28413 37.0694 7.41022C37.7231 8.53596 37.3373 9.96945 36.2098 10.621L30.3394 14.0074ZM20.394 28.2448C21.5183 28.8971 21.8985 30.3324 21.2568 31.4496C20.6049 32.5824 19.1693 32.9647 18.0446 32.3185L12.1774 28.925C11.0503 28.2752 10.6673 26.84 11.316 25.7146C11.963 24.5941 13.3993 24.2055 14.5194 24.8584L20.394 28.2448ZM18.0718 33.988C19.1937 33.3442 20.6357 33.7251 21.2823 34.8445C21.9275 35.9639 21.5448 37.4062 20.4205 38.0549L14.5505 41.4484C13.4325 42.0957 11.987 41.7095 11.3414 40.5852C10.6909 39.4633 11.0778 38.0214 12.199 37.3769L18.0718 33.988ZM21.8819 38.8666C21.8819 37.5751 22.9345 36.5172 24.2337 36.5172C25.5298 36.5172 26.5834 37.5751 26.5834 38.8666V45.6514C26.5834 46.9478 25.5298 47.9996 24.2337 47.9996C22.9341 47.9996 21.8819 46.9474 21.8819 45.6514V38.8666ZM28.0176 38.0019C26.8866 37.3631 26.5014 35.9225 27.1544 34.7971C27.8028 33.6689 29.2377 33.2891 30.3691 33.9449L36.2366 37.3306C37.3574 37.9747 37.7447 39.4139 37.0952 40.5385C36.4479 41.6593 35.0059 42.0462 33.8848 41.4L28.0176 38.0019ZM30.3394 32.2662C29.2179 32.9149 27.7749 32.533 27.1276 31.41C26.4795 30.2882 26.8551 28.8459 27.9862 28.2056L33.8579 24.809C34.9777 24.1602 36.4214 24.5507 37.0694 25.6711C37.7231 26.7951 37.3373 28.2254 36.2098 28.8731L30.3394 32.2662Z" fill="#FABE00"/>
</g>
<defs>
<clipPath id="clip0_538_13763">
<rect width="26.4099" height="48" fill="white" transform="translate(11)"/>
</clipPath>
</defs>
</svg>
