<svg width="48" height="48" viewBox="0 0 48 48" fill="none" xmlns="http://www.w3.org/2000/svg">
<g clip-path="url(#clip0_538_13754)">
<path d="M30.921 7.961C31.939 8.979 32.449 10.316 32.449 11.652C32.449 12.904 32.001 14.156 31.107 15.147C30.967 15.275 30.833 15.41 30.702 15.55C29.745 16.404 28.546 16.845 27.34 16.87C26.678 17.711 25.86 18.418 24.932 18.952C25.679 19.187 26.455 19.305 27.23 19.305C27.764 19.305 28.299 19.25 28.825 19.138C28.577 20.283 28.6 21.457 28.87 22.572C29.335 24.48 30.522 26.21 32.323 27.304C32.889 27.649 33.508 27.92 34.154 28.11C34.788 28.296 35.451 28.399 36.125 28.415L37.104 27.17L36.181 25.99C35.727 25.98 35.272 25.908 34.831 25.779C34.403 25.654 33.983 25.467 33.588 25.227C32.353 24.476 31.54 23.299 31.226 22.006C30.912 20.71 31.092 19.288 31.843 18.054C32.012 17.776 32.202 17.52 32.411 17.285L32.64 17.065V17.064L32.846 16.851C33.489 16.282 34.253 15.889 35.063 15.692C36.359 15.377 37.78 15.557 39.015 16.309L39.046 16.328C40.263 17.079 41.065 18.247 41.376 19.53C41.466 19.899 41.516 20.277 41.522 20.658C42.366 21.322 43.07 22.141 43.601 23.065C44.025 21.716 44.057 20.296 43.732 18.963C43.268 17.056 42.08 15.326 40.28 14.23L40.02 14.072L40.004 14.071C38.335 13.148 36.453 12.913 34.705 13.287C34.822 12.749 34.881 12.201 34.881 11.652C34.881 9.694 34.133 7.734 32.639 6.241V6.24C31.147 4.747 29.189 4 27.23 4C25.273 4 23.313 4.747 21.819 6.24V6.241C20.325 7.734 19.578 9.694 19.578 11.652C19.578 13.25 20.076 14.848 21.07 16.194C21.975 16.134 22.806 15.806 23.487 15.29C22.504 14.279 22.011 12.965 22.011 11.653C22.011 10.317 22.521 8.98 23.539 7.962C24.557 6.944 25.894 6.435 27.229 6.435C28.566 6.434 29.902 6.943 30.921 7.961ZM40.039 30.921C39.021 31.939 37.685 32.449 36.349 32.449C35.097 32.449 33.843 32.001 32.853 31.107C32.725 30.967 32.591 30.834 32.453 30.704C31.598 29.746 31.156 28.547 31.131 27.34C30.291 26.679 29.583 25.861 29.05 24.932C28.815 25.68 28.697 26.455 28.697 27.23C28.697 27.764 28.752 28.299 28.863 28.825C27.719 28.577 26.545 28.599 25.429 28.87C23.522 29.334 21.792 30.522 20.697 32.323C20.353 32.889 20.081 33.508 19.892 34.153C19.706 34.788 19.602 35.451 19.586 36.124L20.832 37.104L22.011 36.181C22.022 35.727 22.094 35.272 22.222 34.832C22.347 34.402 22.534 33.982 22.774 33.587C23.526 32.353 24.702 31.54 25.995 31.226C27.293 30.912 28.714 31.091 29.947 31.843C30.225 32.012 30.482 32.202 30.717 32.412L30.937 32.641L31.15 32.845C31.72 33.489 32.113 34.252 32.31 35.064C32.625 36.36 32.445 37.781 31.693 39.015L31.674 39.046C30.922 40.263 29.754 41.066 28.472 41.377C28.103 41.466 27.725 41.517 27.344 41.523C26.679 42.366 25.861 43.07 24.937 43.601C26.287 44.026 27.706 44.057 29.039 43.733C30.946 43.268 32.676 42.081 33.771 40.28L33.929 40.021L33.93 40.004C34.854 38.336 35.088 36.453 34.713 34.705C35.252 34.822 35.8 34.881 36.349 34.881C38.307 34.881 40.267 34.133 41.759 32.64H41.76C43.252 31.147 44 29.188 44 27.23C44 25.272 43.253 23.313 41.76 21.819L41.759 21.818C40.267 20.325 38.307 19.577 36.349 19.577C34.75 19.577 33.153 20.075 31.807 21.069C31.867 21.974 32.195 22.805 32.711 23.486C33.722 22.503 35.035 22.01 36.349 22.01C37.685 22.01 39.022 22.52 40.039 23.538C41.058 24.556 41.567 25.892 41.567 27.228C41.567 28.564 41.057 29.903 40.039 30.921ZM7.962 17.079C8.98 16.061 10.316 15.551 11.652 15.551C12.904 15.551 14.157 15.999 15.148 16.893C15.276 17.032 15.409 17.166 15.549 17.297C16.404 18.254 16.845 19.454 16.87 20.66C17.711 21.322 18.419 22.14 18.953 23.068C19.188 22.321 19.306 21.545 19.306 20.77C19.306 20.235 19.25 19.701 19.139 19.175C20.283 19.423 21.459 19.4 22.573 19.13C24.48 18.666 26.21 17.478 27.305 15.677C27.65 15.11 27.92 14.492 28.111 13.846C28.296 13.212 28.4 12.548 28.416 11.875L27.17 10.895L25.99 11.819C25.979 12.273 25.907 12.728 25.779 13.168C25.654 13.597 25.466 14.016 25.226 14.412C24.475 15.647 23.298 16.459 22.005 16.774C20.708 17.088 19.287 16.908 18.052 16.157C17.774 15.988 17.517 15.796 17.282 15.587L17.063 15.358L16.851 15.153C16.281 14.51 15.888 13.745 15.691 12.935C15.376 11.639 15.556 10.218 16.308 8.983L16.327 8.952C17.079 7.735 18.247 6.933 19.529 6.621C19.898 6.532 20.276 6.482 20.657 6.474C21.322 5.632 22.14 4.928 23.064 4.396C21.715 3.972 20.296 3.94 18.963 4.265C17.055 4.729 15.326 5.918 14.23 7.718L14.072 7.977V7.993C13.147 9.663 12.913 11.544 13.288 13.293C12.749 13.176 12.201 13.117 11.652 13.117C9.694 13.117 7.735 13.866 6.241 15.359H6.24C4.747 16.853 4 18.812 4 20.77C4 22.728 4.747 24.687 6.24 26.181H6.241C7.735 27.675 9.694 28.422 11.652 28.422C13.25 28.422 14.848 27.925 16.194 26.931C16.134 26.026 15.806 25.194 15.29 24.514C14.279 25.497 12.965 25.989 11.653 25.989C10.317 25.989 8.98 25.479 7.963 24.462H7.962C6.944 23.444 6.434 22.107 6.434 20.772C6.433 19.434 6.943 18.097 7.962 17.079ZM11.819 22.01C12.273 22.021 12.728 22.093 13.168 22.221C13.596 22.346 14.016 22.533 14.412 22.774C15.647 23.525 16.459 24.702 16.773 25.995C17.088 27.292 16.908 28.712 16.156 29.947C15.987 30.225 15.795 30.483 15.586 30.718L15.358 30.936V30.937L15.154 31.149C14.511 31.719 13.746 32.112 12.935 32.309C11.639 32.624 10.218 32.444 8.983 31.692L8.952 31.673C7.735 30.921 6.933 29.753 6.621 28.471C6.531 28.103 6.481 27.725 6.474 27.343C5.631 26.679 4.927 25.86 4.396 24.936C3.972 26.285 3.94 27.704 4.264 29.038C4.728 30.944 5.917 32.674 7.717 33.77L7.976 33.927L7.991 33.929C9.66 34.853 11.543 35.086 13.291 34.712C13.173 35.25 13.115 35.799 13.115 36.347C13.115 38.306 13.863 40.265 15.357 41.758V41.759C16.853 43.254 18.812 44 20.77 44C22.728 44 24.687 43.254 26.18 41.76L26.181 41.759C27.675 40.266 28.422 38.307 28.422 36.348C28.422 34.75 27.925 33.152 26.93 31.807C26.026 31.867 25.194 32.195 24.513 32.71C25.495 33.721 25.989 35.035 25.989 36.348C25.989 37.684 25.479 39.022 24.461 40.038V40.039C23.443 41.058 22.106 41.567 20.771 41.567C19.435 41.567 18.098 41.057 17.08 40.039V40.038C16.062 39.021 15.552 37.684 15.552 36.348C15.552 35.096 16 33.842 16.895 32.852C17.033 32.724 17.167 32.591 17.296 32.453C18.254 31.598 19.453 31.157 20.66 31.132C21.322 30.29 22.14 29.583 23.068 29.05C22.321 28.814 21.546 28.696 20.77 28.696C20.235 28.696 19.7 28.752 19.175 28.863C19.423 27.718 19.4 26.544 19.13 25.429C18.666 23.522 17.478 21.792 15.677 20.697C15.111 20.352 14.492 20.081 13.846 19.892C13.212 19.706 12.548 19.602 11.875 19.586L10.896 20.832L11.819 22.01Z" fill="#CF712E"/>
</g>
<defs>
<clipPath id="clip0_538_13754">
<rect width="40" height="40" fill="white" transform="translate(4 4)"/>
</clipPath>
</defs>
</svg>
