<svg width="48" height="48" viewBox="0 0 48 48" fill="none" xmlns="http://www.w3.org/2000/svg">
<g clip-path="url(#clip0_538_13857)">
<path d="M32.7737 4.00195L30.9694 5.42506L36.1941 12.4945C36.1941 12.4945 38.7723 15.7379 36.1929 19.0114L27.6509 28.7507C27.6509 28.7507 24.1349 31.8979 27.2543 36.6588L32.7902 43.9991H43.3306L40.3843 40.2948C40.3843 40.2948 37.4089 36.9479 40.8122 32.8959L46.252 26.1036C46.252 26.1036 48.5929 23.881 46.6793 21.5595L32.7737 4.00195ZM14.6586 4.00195L16.4629 5.42506L11.2382 12.4951C11.2382 12.4951 8.66003 15.7384 11.2399 19.012L19.7814 28.7507C19.7814 28.7507 23.2974 31.8979 20.1792 36.6588L14.6426 43.9991H4.10222L7.04801 40.2948C7.04801 40.2948 10.0234 36.9479 6.62011 32.8959L1.18034 26.1036C1.18034 26.1036 -1.16116 23.881 0.753007 21.5595L14.6586 4.00195Z" fill="#007F41"/>
<path d="M27.2506 16.1872L23.7341 19.7043L19.4124 15.3832L23.7341 11.061L27.2261 14.553H31.6291C31.2103 10.562 27.8361 7.45117 23.7335 7.45117C19.3481 7.45117 15.7935 11.0058 15.7935 15.3906C15.7935 19.7749 19.3481 23.3301 23.7335 23.3301C27.8497 23.3301 31.2342 20.1971 31.6331 16.1867H27.2506V16.1872Z" fill="#D80C18" stroke="#D80C18" stroke-miterlimit="10"/>
</g>
<defs>
<clipPath id="clip0_538_13857">
<rect width="47.4313" height="40" fill="white" transform="translate(0 4)"/>
</clipPath>
</defs>
</svg>
