<svg width="48" height="48" viewBox="0 0 48 48" fill="none" xmlns="http://www.w3.org/2000/svg">
<g clip-path="url(#clip0_538_13756)">
<path fill-rule="evenodd" clip-rule="evenodd" d="M19.1245 4.7217L19.0104 4.77531C15.9394 6.06237 14.085 8.56798 13.6849 11.9194H34.8015C37.4133 11.9194 39.6509 12.6217 41.411 13.9545C37.9271 8.0071 31.456 4 24.0702 4C22.2362 4 20.8131 4.24868 19.122 4.71476L19.1245 4.7217ZM29.1341 43.2411C32.2065 41.9505 34.0639 39.434 34.4605 36.0781H13.3176C10.7276 36.0781 8.498 35.3832 6.74536 34.0594C10.2343 39.9979 16.6958 44 24.0702 44C25.9187 44 27.3551 43.7429 29.0542 43.2748L29.1341 43.2411ZM43.4178 19.0928L43.3691 18.9786C42.0791 15.8952 39.5571 14.0433 36.1913 13.6482V34.6729C36.1913 37.2748 35.4875 39.5114 34.1592 41.268C40.119 37.7965 44.139 31.3498 44.139 23.9988C44.139 22.1761 43.8873 20.768 43.4257 19.0878L43.4178 19.0928ZM4.75397 29.0179C6.04599 32.1053 8.57642 33.9597 11.9477 34.3523V13.337C11.9477 10.7222 12.659 8.47467 14.0036 6.71309C8.03043 10.1806 4 16.6318 4 23.9988C4 25.8368 4.25662 27.2683 4.72766 28.9613L4.75397 29.0179Z" fill="#E60012"/>
</g>
<defs>
<clipPath id="clip0_538_13756">
<rect width="40.1395" height="40" fill="white" transform="translate(4 4)"/>
</clipPath>
</defs>
</svg>
