<svg width="48" height="48" viewBox="0 0 48 48" fill="none" xmlns="http://www.w3.org/2000/svg">
<g clip-path="url(#clip0_538_13757)">
<path fill-rule="evenodd" clip-rule="evenodd" d="M23.9991 4C12.9477 4 4 12.9477 4 23.9997C4 35.0529 12.9477 44 23.9991 44C35.0523 44 44 35.0529 44 23.9997C43.9994 12.9477 35.0523 4 23.9991 4V4ZM23.9991 38.8743C15.7931 38.8743 9.12571 32.2069 9.12571 23.9997C9.12571 15.7931 15.7931 9.12571 23.9991 9.12571C30.7258 9.12571 36.4159 13.5986 38.2518 19.7622H34.015C32.3552 15.8506 28.4739 13.1251 23.9991 13.1251C17.9857 13.1251 13.1258 18.0141 13.1258 23.9997C13.1258 30.0143 17.9851 34.8742 23.9991 34.8742C29.5105 34.8742 34.0453 30.7851 34.7562 25.4524H29.3344L29.3041 25.4808L25.3936 29.3344C25.0066 29.7176 24.5054 29.9265 23.9991 29.9265C23.4662 29.9265 22.9346 29.7182 22.5192 29.3344L18.6669 25.4221C17.8664 24.6222 17.8664 23.3179 18.6669 22.5476L22.5767 18.6663C22.9631 18.2824 23.4959 18.0753 23.9984 18.0753C24.5332 18.0753 25.0673 18.2824 25.4524 18.6663L29.3337 22.6076H38.7859C38.8446 23.0824 38.8762 23.5268 38.8762 24.0009C38.8756 32.2069 32.2088 38.8743 23.9991 38.8743Z" fill="#B81C22"/>
</g>
<defs>
<clipPath id="clip0_538_13757">
<rect width="39.9994" height="40" fill="white" transform="translate(4 4)"/>
</clipPath>
</defs>
</svg>
