<svg width="48" height="48" viewBox="0 0 48 48" fill="none" xmlns="http://www.w3.org/2000/svg">
<g clip-path="url(#clip0_538_13758)">
<path d="M14.6624 25.7205L12.8549 23.9519L14.6624 22.2172L31.4902 5.97528C27.1093 1.94286 20.136 2.01178 15.7946 6.16704L5.25192 16.3545C0.916026 20.5732 0.916026 27.4319 5.25192 31.6555L14.2572 40.3179L22.0175 32.8044L14.6624 25.7205ZM42.2407 16.3545L33.2977 7.72166L25.5258 15.2346L32.8864 22.3412L34.6833 24.0759L32.8864 25.8106L16.0536 42.052C20.4356 46.0616 27.3966 45.9721 31.6697 41.838L42.2407 31.6555C46.5772 27.4319 46.5772 20.5732 42.2407 16.3545Z" fill="#E60012"/>
<path d="M31.0513 24.0754L23.6907 16.9688L16.459 23.9514L23.8196 31.058L31.0513 24.0754Z" fill="#DEB866"/>
</g>
<defs>
<clipPath id="clip0_538_13758">
<rect width="43.4929" height="42" fill="white" transform="translate(2 3)"/>
</clipPath>
</defs>
</svg>
