<svg width="48" height="48" viewBox="0 0 48 48" fill="none" xmlns="http://www.w3.org/2000/svg">
<g clip-path="url(#clip0_538_13861)">
<path d="M17.4641 7.13867H18.7291L19.6151 7.51767C19.6151 7.51767 14.3441 13.3367 13.3741 15.0657C12.4041 16.7947 12.9941 18.2287 14.5971 20.1257C16.2001 22.0227 20.5851 26.3247 21.8501 28.1797C23.1151 30.0347 23.7471 32.1017 21.8501 34.5887C19.9531 37.0767 16.1151 42.1797 16.1151 42.1797L12.9041 41.6737L10.6751 40.4497C10.6751 40.4497 14.1331 32.1007 14.2171 32.3117C14.3011 32.5227 9.91605 27.1247 9.83105 26.9987C9.74605 26.8727 6.12105 23.4567 6.20505 22.9927C6.29005 22.5297 8.06105 18.6497 8.06105 18.6497L17.4641 7.13867Z" fill="url(#paint0_linear_538_13861)"/>
<path d="M17.7589 6L19.6149 7.518L18.1389 7.392L17.4639 7.139L17.7589 6Z" fill="url(#paint1_linear_538_13861)"/>
<path d="M12.3201 40.7882L16.1151 42.1802H6.03711L9.83211 40.5352L12.3201 40.7882Z" fill="url(#paint2_linear_538_13861)"/>
<path d="M17.7589 6L18.1379 7.392C18.1379 7.392 10.0839 16.922 9.32491 18.229C8.56591 19.536 7.72191 20.506 10.2099 23.5C12.6979 26.494 17.2099 30.669 17.3789 32.608C17.5469 34.547 16.9149 35.264 15.5239 36.909L12.3189 40.789L6.03591 42.181C6.03591 42.181 10.6739 37.753 11.3909 36.7C12.1079 35.645 12.2759 34.254 10.6739 32.567C9.07191 30.88 5.14991 26.498 4.43291 25.252C3.71591 24.006 3.84291 22.404 5.14991 20.802C6.45791 19.199 17.7589 6 17.7589 6V6Z" fill="url(#paint3_linear_538_13861)"/>
<path d="M30.5369 7.13867H29.2709L28.3849 7.51767C28.3849 7.51767 33.6559 13.3367 34.6259 15.0657C35.5959 16.7947 35.0059 18.2287 33.4029 20.1257C31.7999 22.0227 27.4149 26.3247 26.1499 28.1797C24.8849 30.0347 24.2519 32.1017 26.1499 34.5887C28.0469 37.0767 31.8839 42.1797 31.8839 42.1797L35.0949 41.6737L37.3239 40.4497C37.3239 40.4497 33.8659 32.1007 33.7809 32.3117C33.6969 32.5227 38.0829 27.1247 38.1669 26.9987C38.2519 26.8717 41.8779 23.4567 41.7939 22.9927C41.7099 22.5297 39.9399 18.6497 39.9399 18.6497L30.5369 7.13867Z" fill="url(#paint4_linear_538_13861)"/>
<path d="M30.2408 6L28.3848 7.518L29.8618 7.392L30.5368 7.139L30.2408 6Z" fill="url(#paint5_linear_538_13861)"/>
<path d="M35.6808 40.7882L31.8848 42.1802H41.9638L38.1678 40.5352L35.6808 40.7882Z" fill="url(#paint6_linear_538_13861)"/>
<path d="M30.2408 6L29.8618 7.392C29.8618 7.392 37.9158 16.922 38.6748 18.229C39.4348 19.536 40.2778 20.506 37.7898 23.5C35.3018 26.494 30.7898 30.669 30.6208 32.608C30.4518 34.547 31.0848 35.264 32.4758 36.909L35.6808 40.789L41.9638 42.181C41.9638 42.181 37.3248 37.753 36.6088 36.7C35.8918 35.645 35.7228 34.254 37.3258 32.567C38.9288 30.88 42.8488 26.498 43.5658 25.252C44.2828 24.006 44.1568 22.404 42.8488 20.802C41.5418 19.199 30.2408 6 30.2408 6V6Z" fill="url(#paint7_linear_538_13861)"/>
<path d="M26.6219 17.0728L23.974 19.7208L20.8149 16.5618L23.974 13.4028L26.5389 15.9668H31.1639C30.8779 12.2828 27.7999 9.38281 24.0429 9.38281C20.0969 9.38281 16.8979 12.5818 16.8979 16.5278C16.8979 20.4738 20.0969 23.6738 24.0429 23.6738C27.8059 23.6738 30.8879 20.7638 31.1659 17.0718H26.6219V17.0728Z" fill="url(#paint8_radial_538_13861)"/>
</g>
<defs>
<linearGradient id="paint0_linear_538_13861" x1="6.86405" y1="21.1477" x2="24.7071" y2="27.6427" gradientUnits="userSpaceOnUse">
<stop offset="0.164" stop-color="#8DAB41"/>
<stop offset="0.519" stop-color="#60903F"/>
<stop offset="0.825" stop-color="#387E3D"/>
<stop offset="1" stop-color="#24783C"/>
</linearGradient>
<linearGradient id="paint1_linear_538_13861" x1="17.5999" y1="6.125" x2="19.0389" y2="7.967" gradientUnits="userSpaceOnUse">
<stop offset="0.164" stop-color="#8DAB41"/>
<stop offset="0.519" stop-color="#60903F"/>
<stop offset="0.825" stop-color="#387E3D"/>
<stop offset="1" stop-color="#24783C"/>
</linearGradient>
<linearGradient id="paint2_linear_538_13861" x1="6.03711" y1="41.3572" x2="16.1151" y2="41.3572" gradientUnits="userSpaceOnUse">
<stop stop-color="#24783C"/>
<stop offset="0.209" stop-color="#387E3D"/>
<stop offset="0.575" stop-color="#60903F"/>
<stop offset="1" stop-color="#8DAB41"/>
</linearGradient>
<linearGradient id="paint3_linear_538_13861" x1="11.0689" y1="42.181" x2="11.0689" y2="6" gradientUnits="userSpaceOnUse">
<stop offset="0.164" stop-color="#8DAB41"/>
<stop offset="0.519" stop-color="#60903F"/>
<stop offset="0.825" stop-color="#387E3D"/>
<stop offset="1" stop-color="#24783C"/>
</linearGradient>
<linearGradient id="paint4_linear_538_13861" x1="41.1369" y1="21.1477" x2="23.2939" y2="27.6427" gradientUnits="userSpaceOnUse">
<stop offset="0.164" stop-color="#8DAB41"/>
<stop offset="0.519" stop-color="#60903F"/>
<stop offset="0.825" stop-color="#387E3D"/>
<stop offset="1" stop-color="#24783C"/>
</linearGradient>
<linearGradient id="paint5_linear_538_13861" x1="30.4018" y1="6.125" x2="28.9618" y2="7.968" gradientUnits="userSpaceOnUse">
<stop offset="0.164" stop-color="#8DAB41"/>
<stop offset="0.519" stop-color="#60903F"/>
<stop offset="0.825" stop-color="#387E3D"/>
<stop offset="1" stop-color="#24783C"/>
</linearGradient>
<linearGradient id="paint6_linear_538_13861" x1="41.9648" y1="41.3572" x2="31.8858" y2="41.3572" gradientUnits="userSpaceOnUse">
<stop stop-color="#24783C"/>
<stop offset="0.209" stop-color="#387E3D"/>
<stop offset="0.575" stop-color="#60903F"/>
<stop offset="1" stop-color="#8DAB41"/>
</linearGradient>
<linearGradient id="paint7_linear_538_13861" x1="36.9308" y1="42.181" x2="36.9308" y2="6" gradientUnits="userSpaceOnUse">
<stop offset="0.164" stop-color="#8DAB41"/>
<stop offset="0.519" stop-color="#60903F"/>
<stop offset="0.825" stop-color="#387E3D"/>
<stop offset="1" stop-color="#24783C"/>
</linearGradient>
<radialGradient id="paint8_radial_538_13861" cx="0" cy="0" r="1" gradientUnits="userSpaceOnUse" gradientTransform="translate(24.0319 16.6728) scale(7.14)">
<stop stop-color="#DF9750"/>
<stop offset="0.271" stop-color="#D4763F"/>
<stop offset="0.591" stop-color="#CA5333"/>
<stop offset="0.845" stop-color="#C43D2D"/>
<stop offset="1" stop-color="#C2332B"/>
</radialGradient>
<clipPath id="clip0_538_13861">
<rect width="40" height="36.181" fill="white" transform="translate(4 6)"/>
</clipPath>
</defs>
</svg>
