<svg width="48" height="48" viewBox="0 0 48 48" fill="none" xmlns="http://www.w3.org/2000/svg">
<g clip-path="url(#clip0_538_13755)">
<path d="M23.9992 43.9984C35.0445 43.9984 43.9984 35.0445 43.9984 23.9992C43.9984 12.9539 35.0445 4 23.9992 4C12.9539 4 4 12.9539 4 23.9992C4 35.0445 12.9539 43.9984 23.9992 43.9984Z" fill="#D7000F"/>
<path d="M13.277 13.2803C13.0288 13.5301 12.8628 15.69 12.8628 16.3964C12.8628 19.3425 13.8988 22.0012 15.5982 23.9959C13.8988 25.9889 12.8628 28.6461 12.8628 31.593C12.8628 32.2986 13.0288 34.4616 13.277 34.7091C13.5261 34.9597 15.6476 35.1241 16.3947 35.0842C19.3049 35.0842 22.0051 34.0442 23.999 32.3409V15.6493C22.0051 13.9452 19.3041 12.9068 16.3947 12.9068C15.6476 12.8653 13.5269 13.0305 13.277 13.2803ZM35.1352 16.4052C35.1352 15.6996 34.97 13.5397 34.721 13.2891C34.4703 13.0393 32.3504 12.874 31.6041 12.9163C28.6963 12.9163 25.9937 13.9556 23.9998 15.6589V32.3504C25.9937 34.0538 28.6963 35.093 31.6041 35.093C32.3512 35.1337 34.4703 34.9685 34.721 34.7178C34.97 34.4688 35.1352 32.3081 35.1352 31.601C35.1352 28.6541 34.0984 25.9985 32.3991 24.0047C34.0984 22.01 35.1352 19.3529 35.1352 16.4052Z" fill="white"/>
<path d="M24.0342 17.4788L24.0358 17.4668H23.9879V17.4788C23.9879 21.0586 21.0649 23.9592 17.4556 23.9656V24.0294C21.0641 24.0358 23.9879 26.9364 23.9879 30.5162L23.9871 30.5314H24.0358L24.0342 30.5162C24.0342 26.9444 26.9459 24.0494 30.5441 24.0318V23.9624C26.9459 23.9448 24.0342 21.0506 24.0342 17.4788Z" fill="#F39800"/>
</g>
<defs>
<clipPath id="clip0_538_13755">
<rect width="39.9976" height="40" fill="white" transform="translate(4 4)"/>
</clipPath>
</defs>
</svg>
