<svg width="48" height="48" viewBox="0 0 48 48" fill="none" xmlns="http://www.w3.org/2000/svg">
<g clip-path="url(#clip0_538_13760)">
<path d="M30.181 27.5502C30.09 26.9962 29.937 26.4572 29.714 25.9582C29.013 24.4452 28.033 23.1682 26.569 22.3132C24.288 20.9852 21.528 20.9932 19.276 22.3602C18.252 22.9802 17.413 23.8662 16.872 24.9312C16.69 25.2912 16.54 25.6702 16.417 26.0562C15.824 27.9502 15.843 30.4892 16.915 32.2152C17.266 32.7772 17.771 33.2572 18.387 33.4992C19.007 33.7372 19.742 33.7062 20.298 33.3462C21.016 32.8852 21.143 32.0032 21.009 31.2152C20.84 30.2092 20.712 29.2232 21.081 28.2422C21.199 27.9262 21.365 27.6252 21.607 27.3892C21.755 27.2482 21.931 27.1352 22.111 27.0472C22.502 26.8552 22.945 26.7722 23.373 26.8382C24.117 26.9592 24.729 27.5392 25.062 28.2232C25.393 28.8992 25.483 29.6702 25.519 30.4242C25.676 33.7162 24.891 37.1292 24.049 40.2922L23.78 41.2652C23.709 41.5162 23.584 41.8322 23.74 42.0752C23.81 42.1822 23.919 42.2552 24.033 42.3032C24.522 42.5012 24.923 42.1972 25.25 41.8722C27.178 39.9252 28.414 37.4242 29.262 34.8452C29.577 33.8842 29.849 32.9052 30.03 31.9082C30.284 30.5472 30.424 28.9892 30.181 27.5502ZM44 12.3332C44 11.8362 43.562 11.5102 43.096 11.5302C42.616 11.5452 42.174 11.7912 41.736 11.9592C33.247 15.1872 23.668 15.7992 14.72 14.5082C13.19 14.2862 11.64 13.9792 10.099 13.7372C9.13899 13.5902 8.18599 13.3692 7.21199 13.2972C6.38299 13.2332 5.35399 13.2042 4.68299 13.7782C3.79999 14.5422 3.86299 15.9852 4.36399 16.9422C4.96599 18.0872 6.01799 18.9452 7.11399 19.6012C8.17699 20.2332 9.44799 20.9092 10.715 20.8292C14.135 20.6112 17.546 20.2812 20.947 19.8392C26.742 19.0842 32.821 18.3732 38.265 16.1292C40.043 15.3912 41.801 14.4752 43.328 13.2902C43.603 13.0762 44 12.7332 44 12.3332Z" fill="#008E90"/>
<path d="M19.647 9.422C19.647 11.265 21.144 12.764 22.987 12.764C24.834 12.764 26.329 11.265 26.329 9.422C26.329 9.15 26.265 8.874 26.149 8.623C25.861 8.014 25.539 7.723 25.571 6.991C25.613 6.011 24.354 6 23.678 6C22.94 6 22.156 6.102 21.49 6.434C20.96 6.705 20.502 7.117 20.18 7.617C19.847 8.132 19.662 8.733 19.65 9.347L19.647 9.422Z" fill="#E1005B"/>
</g>
<defs>
<clipPath id="clip0_538_13760">
<rect width="40" height="36.368" fill="white" transform="translate(4 6)"/>
</clipPath>
</defs>
</svg>
