<svg width="48" height="48" viewBox="0 0 48 48" fill="none" xmlns="http://www.w3.org/2000/svg">
<g clip-path="url(#clip0_538_13860)">
<path fill-rule="evenodd" clip-rule="evenodd" d="M5.23672 20.257L18.4382 7L19.8942 8.22301L13.5455 15.139C11.9972 16.8261 12.5548 18.0633 13.6274 19.3921L21.2398 28.8213C23.0734 31.0931 23.2212 33.1344 21.2398 35.5321L16.1361 41.711H5.66913L10.8671 36.9564C12.0469 35.878 11.8804 34.0864 10.3992 32.2825L5.35483 26.1378C3.79169 24.2326 3.36703 22.1344 5.23672 20.257ZM24.0705 10.6826C27.5801 10.6826 30.4928 13.3177 30.9336 16.7105H27.1226L24.6565 14.2445C24.4261 14.0141 24.0498 14.0141 23.8194 14.2445L21.0152 17.0487C20.7848 17.2791 20.7848 17.6554 21.0152 17.8858L23.8194 20.69C24.0498 20.9204 24.4261 20.9204 24.6565 20.69L27.0838 18.2627H30.96C30.6257 21.7672 27.6608 24.5243 24.0711 24.5243C20.2595 24.5243 17.1506 21.4154 17.1506 17.6031C17.15 13.7914 20.2588 10.6826 24.0705 10.6826ZM42.7642 20.457L29.5621 7.20007L28.1061 8.42309L34.4542 15.3391C36.0025 17.0255 35.4449 18.2634 34.3722 19.5916L26.7605 29.022C24.9263 31.2938 24.7791 33.3345 26.7605 35.7328L31.8642 41.9117H42.3318L37.1332 37.1572C35.9534 36.0781 36.1199 34.2871 37.6011 32.4826L42.6455 26.3372C44.2086 24.4326 44.6333 22.3345 42.7642 20.457Z" fill="#004098"/>
</g>
<defs>
<clipPath id="clip0_538_13860">
<rect width="40" height="34.9117" fill="white" transform="translate(4 7)"/>
</clipPath>
</defs>
</svg>
