<svg width="48" height="48" viewBox="0 0 48 48" fill="none" xmlns="http://www.w3.org/2000/svg">
<g clip-path="url(#clip0_538_13764)">
<path d="M46 23.8934C46 20.0104 44.0002 15.8194 39.4374 12.548C35.4928 9.7276 30.8134 8.445 26.2572 8.06C19.4724 7.4902 18.951 11.096 21.701 13.9098C24.3938 16.6708 30.017 19.6386 30.017 19.6386L25.4036 22.6746L28.8576 25.3586L37.2198 19.6386C37.2198 19.6386 28.5848 16.4046 25.2452 12.5502C23.846 10.9442 23.8592 9.6968 26.0614 9.8112C29.2668 9.9872 33.988 11.1576 37.4816 13.9516C40.1348 16.0768 41.5054 18.7476 41.5054 21.4228C41.5054 25 38.8918 29.3318 32.3952 31.7474C32.6108 33.2368 32.6768 37.0384 29.324 39.355C38.5838 37.7072 46 31.5538 46 23.8934ZM26.7764 25.8778C23.67 22.9584 17.9566 19.6408 17.9566 19.6408L22.8274 16.4618L20.084 14.3256L10.7516 19.6408C10.7516 19.6408 18.7816 23.7416 21.833 27.4244C24.627 30.7948 23.923 33.91 18.236 32.535C10.9034 30.7574 6.499 26.3266 6.499 21.414C6.499 18.8664 7.808 16.2638 10.228 14.1936C12.428 12.2884 15.332 10.986 18.6672 10.26C18.7728 9.8838 18.9466 8.9246 20.0664 8.236C15.1208 8.8938 11.1344 10.6428 8.1446 12.8824C4.4354 15.6544 2 19.5968 2 23.8472C2 31.2722 8.8024 37.551 18.8652 39.3748C30.7452 41.522 33.8406 32.5152 26.7764 25.8778Z" fill="#0075C2"/>
</g>
<defs>
<clipPath id="clip0_538_13764">
<rect width="44" height="31.6976" fill="white" transform="translate(2 8)"/>
</clipPath>
</defs>
</svg>
