<svg width="48" height="48" viewBox="0 0 48 48" fill="none" xmlns="http://www.w3.org/2000/svg">
<g clip-path="url(#clip0_538_13858)">
<path fill-rule="evenodd" clip-rule="evenodd" d="M27.7562 15.8905L23.9385 19.7103L19.6729 15.4447L23.9364 11.1812L27.7541 14.9989H31.5174C31.4127 13.2073 30.676 11.4449 29.3071 10.074C26.3392 7.10815 21.5315 7.10815 18.5657 10.074C15.5999 13.0398 15.5999 17.8496 18.5657 20.8154C21.5315 23.7834 26.3392 23.7813 29.3071 20.8154C30.6739 19.4466 31.4127 17.6843 31.5174 15.8905H27.7562Z" fill="#C41B1F"/>
<path fill-rule="evenodd" clip-rule="evenodd" d="M17.5779 4L17.5654 4.01465L14.9553 7.14165L11.5709 11.2021H11.573L11.0707 11.7987L7.7532 15.7754L6.44505 17.3912C6.08296 17.8475 5.61202 18.3687 5.13481 18.9171L4.32899 19.884C3.73248 20.6396 3.23643 21.3994 3.09829 22.0587C2.73829 23.7876 3.43945 24.8299 4.03388 25.9141C4.7769 27.2725 11.0121 34.3469 11.0832 36.0904C11.1062 36.6555 10.9158 37.1893 10.6228 37.6937C10.0618 38.6523 7.15878 42.156 5.50319 43.9791L15.7402 44C16.927 42.2105 18.1179 40.6574 19.5328 38.78C20.4684 37.5388 22.8021 34.8744 22.8858 33.1518C22.9591 31.5841 22.6598 29.8113 21.5358 28.4153C18.0593 24.0848 13.3311 19.4466 12.72 17.8287C11.8849 15.6163 12.6949 13.9335 13.8502 12.4433L19.5223 5.62001L17.5779 4V4ZM30.2826 4L30.2973 4.01465L32.9052 7.14374L36.2896 11.2021H36.2876L36.7899 11.7987L40.1073 15.7754L41.4176 17.3912C41.7797 17.8433 42.2506 18.3666 42.7278 18.915L43.5336 19.8799C44.1302 20.6354 44.6241 21.3952 44.7622 22.0566C45.1243 23.7834 44.4232 24.8257 43.8288 25.912C43.0878 27.2704 36.8506 34.3448 36.7815 36.0883C36.7585 36.6534 36.9469 37.1872 37.242 37.6916C37.8008 38.6502 40.706 42.1539 42.3594 43.977L32.1224 43.9979C30.9378 42.2084 29.7447 40.6553 28.3298 38.7779C27.3963 37.5367 25.0605 34.8723 24.9789 33.1497C24.9035 31.582 25.2028 29.8092 26.3247 28.4132C29.8012 24.0827 34.5315 19.4466 35.1406 17.8266C35.9757 15.6143 35.1678 13.9315 34.0124 12.4412L28.3403 5.61792L30.2826 4V4Z" fill="#148D3B"/>
</g>
<defs>
<clipPath id="clip0_538_13858">
<rect width="41.8607" height="40" fill="white" transform="translate(3 4)"/>
</clipPath>
</defs>
</svg>
