<svg width="48" height="48" viewBox="0 0 48 48" fill="none" xmlns="http://www.w3.org/2000/svg">
<g clip-path="url(#clip0_538_13872)">
<path d="M27.7346 26.0368L45.8687 26.045L47.9999 23.9143L45.8687 21.7852L23.4723 21.7729L27.7346 26.0368ZM34.3612 10.2664L30.0999 6L25.8314 10.2618L34.3612 10.2664ZM39.612 32.2945L28.845 32.291L24.7062 36.4304L24.8296 36.5533L35.3471 36.5569L39.612 32.2945ZM24.8368 11.2595L20.5729 15.5208L39.6176 15.5265L35.3579 11.2652L24.8368 11.2595ZM28.7283 27.0371L31.4141 29.7198L29.8376 31.2958L40.6041 31.2973L44.873 27.0427L28.7283 27.0371ZM25.8232 37.5454L30.085 41.8128L34.354 37.5484L25.8232 37.5454ZM19.5777 16.5175L18.895 17.1956L22.4792 20.7778L44.873 20.7844L40.6112 16.5226L19.5777 16.5175Z" fill="#BCA070"/>
<path d="M16.5852 18.0909L23.2988 11.3824L17.9159 6L0 23.8959L17.9051 41.8102L29.1023 30.6228L16.5852 18.0909Z" fill="#172C53"/>
</g>
<defs>
<clipPath id="clip0_538_13872">
<rect width="48" height="35.8128" fill="white" transform="translate(0 6)"/>
</clipPath>
</defs>
</svg>
