<svg width="48" height="48" viewBox="0 0 48 48" fill="none" xmlns="http://www.w3.org/2000/svg">
<g clip-path="url(#clip0_538_13873)">
<path fill-rule="evenodd" clip-rule="evenodd" d="M24.2801 38.0582C16.4254 38.0582 10.0224 31.7413 10.0224 23.9989C10.0224 16.809 15.5411 10.8509 22.6159 10.0337V4.06287C12.2191 4.90342 4 13.5343 4 23.9989C4 35.0138 13.1077 44 24.2794 44C30.3822 44 35.8685 41.3144 39.5931 37.0813L35.3444 32.8347C32.7287 36.0168 28.7379 38.0582 24.2801 38.0582ZM38.5745 24.6629C38.0002 24.1572 37.9607 23.7538 38.5237 23.2799C39.7718 22.0614 41.0178 20.8444 42.2659 19.6224C43.0634 18.8256 43.5027 17.6227 42.9984 16.3138C39.9879 9.22065 32.9491 4.18012 24.7293 4V9.94466C29.7515 10.0993 34.0348 12.7397 36.4463 16.7532L33.5573 19.6457L27.3414 13.4284C25.62 11.7134 22.8384 11.7169 21.1191 13.434L13.6777 20.8755C11.9592 22.5961 11.9592 25.3827 13.6777 27.1019L20.8762 34.299C22.5869 36.014 25.3636 36.0196 27.0843 34.3166L33.44 28.1445L36.7606 31.2461L37.7721 32.271L40.9118 35.4108C41.7361 34.2439 42.4411 32.9837 43.004 31.6558C43.3643 30.7135 43.1905 29.3185 42.499 28.5846C41.1831 27.2905 39.8926 25.9619 38.5745 24.6629ZM28.634 24.3684L24.6474 28.3571C24.5167 28.4913 24.3345 28.5761 24.1303 28.5761C23.9347 28.5761 23.7574 28.4977 23.6281 28.367L19.6294 24.3684H19.6309C19.491 24.2384 19.4091 24.0554 19.4091 23.8534C19.4091 23.6557 19.4882 23.4777 19.6181 23.3484L23.6302 19.3391C23.7581 19.2099 23.9368 19.1308 24.131 19.1308C24.3352 19.1308 24.5188 19.2155 24.6488 19.3511L28.646 23.3484C28.7746 23.4777 28.8537 23.6557 28.8537 23.8534C28.8537 24.0569 28.7711 24.2391 28.6326 24.3684H28.634Z" fill="#0086B3"/>
</g>
<defs>
<clipPath id="clip0_538_13873">
<rect width="39.2138" height="40" fill="white" transform="translate(4 4)"/>
</clipPath>
</defs>
</svg>
