<svg width="48" height="48" viewBox="0 0 48 48" fill="none" xmlns="http://www.w3.org/2000/svg">
<g clip-path="url(#clip0_538_13874)">
<path d="M24.9226 37.6095V36.357C30.5925 35.8711 35.1667 32.0808 36.8444 26.9731C35.9618 27.5014 34.9492 27.9917 33.773 28.3945C32.4374 30.7149 30.2919 32.5615 27.6882 33.51C28.6263 31.8409 29.3643 29.9605 29.8432 27.9233C32.8445 27.2425 35.3927 26.1303 37.2125 24.9454C37.3832 24.1182 37.4256 22.948 37.4256 22.5548C37.4256 22.1694 37.3832 20.9983 37.2125 20.1651C35.3919 18.9802 32.8419 17.8689 29.8407 17.1872C29.3599 15.1552 28.6211 13.2696 27.6882 11.604C30.2928 12.555 32.4383 14.3956 33.773 16.723C34.9501 17.124 35.9618 17.6142 36.8444 18.1426C35.1667 13.0349 30.5925 9.24369 24.9226 8.75431V7.52002C29.6648 7.30001 34.1507 5.85526 36.1324 3.89168L34.8548 2.15244C32.5976 3.88129 29.0195 5.061 24.9226 5.26195V2H22.4246V5.26195C18.3277 5.06186 14.7487 3.88129 12.4898 2.15244L11.2148 3.89168C13.1939 5.85613 17.6806 7.30521 22.4246 7.52002V8.75431C16.7521 9.24369 12.1788 13.0349 10.5002 18.1426C11.3828 17.6151 12.3945 17.124 13.5733 16.723C14.9072 14.3947 17.0527 12.5541 19.6572 11.604C18.7226 13.2748 17.9847 15.1561 17.5057 17.1924C14.5062 17.8732 11.9605 18.9793 10.1416 20.1651C9.97442 20.9983 9.92853 22.1685 9.92853 22.5548C9.92853 22.948 9.97442 24.1182 10.1416 24.9454C11.9605 26.1303 14.5044 27.2425 17.5039 27.9233C17.9812 29.9613 18.7226 31.8409 19.6581 33.51C17.0535 32.5607 14.9072 30.714 13.5742 28.3945C12.3953 27.9917 11.3837 27.5023 10.5011 26.9731C12.1788 32.0808 16.7521 35.8711 22.4246 36.357V37.6095C16.2896 38.0166 11.1299 41.353 9 45.8138H11.7553C13.8886 42.5224 17.9119 40.2496 22.4246 39.8927V46H24.9226V39.8927C29.4344 40.2496 33.456 42.5224 35.5919 45.8138H38.3455C36.2182 41.353 31.0567 38.0166 24.9226 37.6095ZM35.061 21.2227C35.1034 21.6246 35.1285 22.1867 35.1285 22.554C35.1285 22.9273 35.1034 23.4851 35.061 23.887C33.708 24.6059 32.0805 25.2044 30.2555 25.6366C30.3881 24.6319 30.46 23.6081 30.46 22.554C30.46 21.5068 30.3881 20.4786 30.2573 19.4739C32.0805 19.9104 33.708 20.5072 35.061 21.2227ZM19.1566 22.554C19.1566 21.3448 19.2527 20.1746 19.4381 19.0339C20.7806 18.8424 22.202 18.735 23.6771 18.735C25.1495 18.735 26.5666 18.8424 27.9065 19.0339C28.0901 20.1703 28.1889 21.3448 28.1889 22.554C28.1889 23.7648 28.0901 24.9394 27.9065 26.0809C26.5674 26.2724 25.1495 26.3798 23.6771 26.3798C22.202 26.3798 20.7815 26.2724 19.4381 26.0809C19.2527 24.9394 19.1566 23.7657 19.1566 22.554ZM22.6437 10.9483C22.9824 10.9188 23.3245 10.8981 23.6719 10.8981C24.0183 10.8981 24.3613 10.918 24.7 10.9483C25.8788 12.6234 26.81 14.5862 27.4102 16.7516C26.2166 16.5844 24.9659 16.4969 23.6771 16.4969C22.3856 16.4969 21.134 16.5844 19.9344 16.7516C20.5355 14.5862 21.4658 12.6234 22.6437 10.9483ZM12.2931 23.8878C12.2507 23.4859 12.223 22.9281 12.223 22.5548C12.223 22.1876 12.2507 21.6254 12.2931 21.2235C13.6443 20.5081 15.2693 19.9104 17.0899 19.48C16.9565 20.4786 16.8855 21.5076 16.8855 22.5548C16.8855 23.6089 16.9565 24.6319 17.0899 25.6323C15.2684 25.2053 13.6435 24.6033 12.2931 23.8878ZM19.9431 28.3641C21.1384 28.5261 22.3856 28.6188 23.6771 28.6188C24.965 28.6188 26.2097 28.5261 27.405 28.3641C26.8004 30.5287 25.8745 32.494 24.6974 34.1665C24.3622 34.1968 24.0192 34.2159 23.6727 34.2159C23.3271 34.2159 22.9867 34.1977 22.6481 34.1665C21.4692 32.4931 20.5416 30.5287 19.9431 28.3641Z" fill="#E60020"/>
</g>
<defs>
<clipPath id="clip0_538_13874">
<rect width="29.3455" height="44" fill="white" transform="translate(9 2)"/>
</clipPath>
</defs>
</svg>
