<svg width="48" height="48" viewBox="0 0 48 48" fill="none" xmlns="http://www.w3.org/2000/svg">
<mask id="mask0_538_13875" style="mask-type:luminance" maskUnits="userSpaceOnUse" x="6" y="6" width="36" height="36">
<path fill-rule="evenodd" clip-rule="evenodd" d="M6 9.18146V38.8158C6.0027 40.2036 6.8919 41.379 8.1312 41.8146C9.9474 42.2439 17.2959 40.2504 18.0933 36.4713C18.5622 34.2492 16.6542 31.8552 14.0982 29.7789C11.8878 27.9834 9.654 26.295 9.4839 24.6732C9.195 21.9102 13.7544 18.2166 13.5465 15.3618C13.3512 12.6501 9.3624 9.76646 6.1404 8.25176C6.0504 8.54696 6.0009 8.85746 6 9.18146ZM9.18773 6C8.41913 6 7.71623 6.2718 7.16543 6.7236L7.23113 6.7488C10.4063 7.9674 16.169 11.3631 16.7774 14.4798C17.5316 18.3246 12.3899 22.488 12.3899 24.4023C12.3899 26.3184 19.0445 29.3613 21.2594 32.6751C22.8164 35.0016 22.892 39.1542 16.7693 41.9973H25.4417C33.7352 38.0274 30.5789 32.2557 26.8565 28.7583H19.2407V19.2381H22.7039C23.6291 17.8017 24.8927 16.305 25.1555 14.6976C25.5749 12.1281 20.1227 8.6667 15.5372 6H9.18773ZM18.2634 6C22.6185 8.3652 27.1113 11.1759 27.4641 13.9092C27.7053 15.7677 26.1789 17.6712 24.9837 19.2381H28.7601V27.6864L29.1939 28.0887C32.4375 31.1496 37.6116 36.9285 29.895 41.9973H38.8104C40.5699 41.9973 41.9991 40.5699 41.9991 38.8104V35.1204L41.9982 35.1186C41.9982 32.3727 40.6635 30.2037 39.219 28.7601C36.8718 26.4129 33.4554 24.0819 32.7795 21.7833C32.0523 19.3137 34.5246 17.1555 34.8585 13.2108C35.061 10.833 31.6221 8.4075 27.6279 6H18.2634ZM29.5762 6C33.1906 7.9854 36.4639 10.0347 36.337 12.9255C36.1507 17.1717 33.5434 19.2273 34.2553 21.4269C34.96 23.6157 38.7598 25.08 41.9998 28.3668V9.1869C41.9998 7.4274 40.5715 6 38.812 6H29.5762Z" fill="white"/>
</mask>
<g mask="url(#mask0_538_13875)">
<path d="M6 6H42V42.2439H6V6Z" fill="url(#paint0_linear_538_13875)"/>
</g>
<defs>
<linearGradient id="paint0_linear_538_13875" x1="41.8533" y1="42.0121" x2="41.8533" y2="5.96577" gradientUnits="userSpaceOnUse">
<stop stop-color="#004EA2"/>
<stop offset="0.143" stop-color="#005DAD"/>
<stop offset="0.736" stop-color="#0099DC"/>
<stop offset="1" stop-color="#00AFEC"/>
</linearGradient>
</defs>
</svg>
