<svg width="48" height="48" viewBox="0 0 48 48" fill="none" xmlns="http://www.w3.org/2000/svg">
<g clip-path="url(#clip0_538_13864)">
<path d="M16.3361 42.813H6.48008L11.4871 36.976C11.4871 36.976 12.6351 35.322 10.7971 33.162C8.85408 30.878 5.00908 26.317 5.00908 26.317C5.00908 26.317 2.62008 23.562 5.19208 20.251C7.76508 16.944 17.6891 5 17.6891 5L19.4351 6.331L13.2791 14.096C13.2791 14.096 11.3481 16.44 13.6001 19.148C15.8521 21.86 20.0791 26.271 20.0791 26.271C20.0791 26.271 22.9741 28.982 22.9291 31.508C22.8811 34.036 22.2841 35.184 16.3361 42.813ZM31.6641 42.813H41.5211L36.5121 36.976C36.5121 36.976 35.3631 35.322 37.2011 33.162C39.1461 30.878 42.9901 26.317 42.9901 26.317C42.9901 26.317 45.3791 23.562 42.8061 20.251C40.2341 16.944 30.3101 5 30.3101 5L28.5641 6.331L34.7211 14.097C34.7211 14.097 36.6501 16.441 34.3981 19.149C32.1481 21.861 27.9211 26.272 27.9211 26.272C27.9211 26.272 25.0261 28.983 25.0721 31.509C25.1191 34.036 25.7161 35.184 31.6641 42.813Z" fill="#008842"/>
<path d="M19.8649 21.7086C14.1059 17.6656 16.6769 9.14958 23.6009 8.53758C25.4809 8.37258 27.0059 9.16858 28.0129 9.88458C30.5839 11.7226 30.7689 14.8476 30.7689 14.8476H27.2779L23.9079 11.4156L19.6209 15.8276L23.9699 20.1766L27.3389 16.6226H30.8919C30.8919 16.6226 30.4019 22.1976 24.4599 22.9336C22.0229 23.2346 19.8649 21.7086 19.8649 21.7086Z" fill="#E60012"/>
</g>
<defs>
<clipPath id="clip0_538_13864">
<rect width="40" height="37.813" fill="white" transform="translate(4 5)"/>
</clipPath>
</defs>
</svg>
