<svg width="48" height="48" viewBox="0 0 48 48" fill="none" xmlns="http://www.w3.org/2000/svg">
<g clip-path="url(#clip0_538_13876)">
<path d="M13.2816 16.3769C13.2816 16.3769 9.84725 18.4265 10.6056 21.9785C11.4696 26.0201 17.9136 27.9233 20.628 28.3817C23.988 28.9481 27 28.6721 27.1968 28.6721C27.1968 28.6721 34.272 34.9289 34.4376 35.0969C34.4376 35.0969 22.3128 38.4401 10.7352 34.2401C3.93605 31.7705 -0.117551 27.9593 4.92528e-05 23.4161C0.163249 17.1977 8.76725 13.7945 9.86885 13.4009L13.2816 16.3769ZM21.42 11.0777C21.42 11.0777 31.1496 10.3265 38.556 13.5569C42.6456 15.3425 44.916 17.2121 46.1112 18.7721C51.4416 25.7297 43.7952 30.8105 43.7952 30.8105L37.4952 25.2881C37.4952 25.2881 40.5744 23.2217 39.9456 20.2217C38.9016 15.2585 30.7584 12.9113 23.8032 13.2041L21.42 11.0777ZM24.48 23.9201C23.988 24.0617 23.5152 24.0809 23.2008 23.8145L18.84 19.9697C18.5256 19.7009 18.5856 19.3145 18.9744 19.1057L25.5432 17.0969C26.0592 16.9481 26.508 16.9361 26.8248 17.2025L31.1832 21.0473C31.4976 21.3185 31.4376 21.7025 31.044 21.9113L24.48 23.9201Z" fill="#C8161E"/>
</g>
<defs>
<clipPath id="clip0_538_13876">
<rect width="48" height="25.356" fill="white" transform="translate(0 11)"/>
</clipPath>
</defs>
</svg>
