<svg width="48" height="48" viewBox="0 0 48 48" fill="none" xmlns="http://www.w3.org/2000/svg">
<g clip-path="url(#clip0_538_13877)">
<path d="M22.4575 41.3176C21.5166 40.4609 20.6846 39.4817 19.9867 38.404C18.5999 36.269 17.8538 33.4372 17.8318 30.2166L17.8313 30.1737H17.7873C14.4394 30.1522 11.7972 29.4826 9.70884 28.1272C8.62222 27.4204 7.63147 26.579 6.76909 25.6244L6.73608 25.5888L6.02354 26.2977L6.02197 42.0008L21.843 41.9997L22.4921 41.3495L22.4575 41.3176ZM26.29 6.00548L25.5749 6.72326L25.6084 6.75469C26.563 7.62022 27.4018 8.60729 28.1044 9.6913C29.4525 11.7697 30.1168 14.4072 30.1372 17.7561V17.7996H30.1828C33.395 17.8232 36.2315 18.5729 38.3823 19.9671C39.4589 20.6655 40.4402 21.4985 41.299 22.4452L41.3314 22.4803L41.9858 21.8239L41.989 6.00391L26.29 6.00548Z" fill="#D10D22"/>
<path d="M22.2595 37.0536C23.5856 39.1011 24.9651 40.4927 26.5992 41.4336C26.9565 41.639 27.1886 41.7721 27.7125 41.9025C28.249 42.0351 28.7368 41.9942 28.7766 41.9916L41.989 41.9906L41.9801 28.3392C41.9691 28.1835 41.9445 27.8938 41.8931 27.69C41.8082 27.3599 41.7281 27.1462 41.5976 26.8984C40.6629 25.1401 39.2185 23.6657 37.0526 22.2621C35.3042 21.1263 33.0382 20.551 30.3159 20.551L29.9979 20.5636L29.9937 20.6023C29.7768 23.1486 29.2445 26.486 27.9473 27.9211L27.8849 27.9913L27.8797 27.9808C26.4122 29.255 23.1104 29.7951 20.5809 30.0241L20.5368 30.0288L20.551 30.1687L20.5499 30.3652C20.5547 33.0634 21.1299 35.3147 22.2595 37.0536ZM27.0199 17.9859C27.2567 17.9612 27.4118 17.9471 27.4375 17.9256V17.8837L27.439 17.6731C27.439 14.9497 26.8633 12.6837 25.7263 10.937C24.2635 8.67726 22.7227 7.20136 20.8816 6.28816C20.7019 6.19909 20.4273 6.12679 20.2958 6.09169C19.9637 6.00681 19.6058 6.00367 19.6032 6.00367L6 6V19.4806C6 19.5194 6.00157 19.8725 6.08278 20.2503C6.15351 20.5683 6.26511 20.8622 6.43643 21.1745C7.37007 22.8982 8.80143 24.3463 10.9359 25.7321C12.6832 26.8648 14.9502 27.439 17.6699 27.439H17.7318L17.9618 27.4501L17.9665 27.406C18.1457 25.3161 18.6533 21.5784 20.0486 20.0381C21.1331 19.0269 23.4776 18.3369 27.0199 17.9859Z" fill="#EB5C01"/>
<path d="M27.5988 20.5629L27.5873 20.4355L27.4668 20.4366C27.4233 20.4366 23.0889 20.4748 21.7256 21.7249C20.4991 23.0777 20.4556 27.3084 20.4546 27.4865V27.5332L20.5033 27.5358C20.682 27.5332 24.9247 27.4839 26.2822 26.2386C27.5559 24.837 27.5988 20.6053 27.5988 20.5629Z" fill="#D10D22"/>
</g>
<defs>
<clipPath id="clip0_538_13877">
<rect width="35.989" height="36" fill="white" transform="translate(6 6)"/>
</clipPath>
</defs>
</svg>
