<svg width="48" height="48" viewBox="0 0 48 48" fill="none" xmlns="http://www.w3.org/2000/svg">
<g clip-path="url(#clip0_538_13878)">
<path d="M32.7771 35.136C33.7814 35.136 35.0478 34.4373 35.0478 32.8653C35.0478 29.3281 35.0478 21.7299 35.0478 20.9002C35.0478 19.6775 33.9561 18.7168 32.8644 18.7168C32.8644 18.7168 20.7247 18.7168 20.419 18.7168C20.0697 18.7168 19.502 19.0661 19.502 19.6775C19.502 21.6862 19.502 21.8172 19.502 21.9046C19.502 22.3413 19.764 22.8653 20.5063 22.8653C22.1657 22.8653 29.3279 22.8653 29.8083 22.8653C30.5069 22.8653 31.1183 23.3456 31.1183 24.1316C31.1183 24.9613 31.1183 29.5902 31.1183 30.1142C31.1183 30.8129 30.5506 31.3806 29.8956 31.3806C28.6729 31.3806 14.3497 31.3806 13.8257 31.3806C13.3017 31.3806 12.9087 31.8172 12.9087 32.2976C12.9087 33.826 12.9087 33.6076 12.9087 34.1316C12.9087 34.8303 13.4327 35.136 13.8257 35.136C15.7028 35.136 32.2967 35.136 32.7771 35.136Z" fill="#C7000B"/>
<path d="M15.1353 12.7773C14.1309 12.7773 12.9082 13.476 12.9082 15.0481C12.9082 18.5852 12.9082 26.1835 12.9082 27.0568C12.9082 28.2359 13.9562 29.1966 15.0479 29.1966C15.0479 29.1966 27.1877 29.1966 27.4934 29.1966C27.887 29.1966 28.4104 28.8909 28.4104 28.2359C28.4104 26.2271 28.4104 26.1398 28.4104 26.0088C28.4104 25.6158 28.1484 25.0481 27.4497 25.0481C25.7903 25.0481 18.5851 25.0918 18.1047 25.0918C17.4497 25.0918 16.8383 24.6114 16.8383 23.7817C16.8383 22.952 16.8383 18.3232 16.8383 17.7992C16.8383 17.1442 17.3624 16.5328 18.061 16.5328C19.2401 16.5328 33.5632 16.5328 34.0872 16.5328C34.6113 16.5328 35.0479 16.0961 35.0479 15.6594C35.0479 14.0874 35.0479 14.3494 35.0479 13.7817C35.0479 13.083 34.5239 12.821 34.0872 12.821C32.2532 12.821 15.6156 12.7773 15.1353 12.7773Z" fill="#C7000B"/>
<path d="M24 44C35.048 44 44 35.048 44 24C44 12.952 35.048 4 24 4V7.79913C32.952 7.79913 40.2445 15.048 40.2445 24C40.2445 32.952 32.9514 40.2009 24 40.2009V44ZM24 4C12.952 4 4 12.952 4 24C4 35.048 12.952 44 24 44V40.2009C15.048 40.2009 7.79913 32.952 7.79913 24C7.79913 15.048 15.048 7.79913 24 7.79913V4Z" fill="#C7000B"/>
</g>
<defs>
<clipPath id="clip0_538_13878">
<rect width="40" height="40" fill="white" transform="translate(4 4)"/>
</clipPath>
</defs>
</svg>
