<svg width="48" height="48" viewBox="0 0 48 48" fill="none" xmlns="http://www.w3.org/2000/svg">
<g clip-path="url(#clip0_538_13761)">
<path fill-rule="evenodd" clip-rule="evenodd" d="M26.1956 40.3799L24.2988 40.1805C24.3698 39.8486 24.4754 39.5868 24.6094 39.3976C24.7434 39.2076 24.9382 39.0437 25.192 38.9025C25.3733 38.8032 25.6232 38.7236 25.9401 38.6692C26.2586 38.614 26.6024 38.5864 26.9752 38.5864C27.5697 38.5864 28.0466 38.6195 28.4069 38.685C28.7695 38.752 29.0691 38.8931 29.3103 39.1036C29.4783 39.2502 29.6123 39.456 29.7092 39.724C29.8062 39.9944 29.8543 40.249 29.8543 40.4919V42.7812C29.8543 43.024 29.8724 43.2156 29.9024 43.3551C29.9331 43.4923 29.9994 43.6689 30.1042 43.8833H28.2421C28.1688 43.7493 28.1215 43.6492 28.0979 43.5782C28.0742 43.5089 28.0529 43.3993 28.0293 43.2487C27.7691 43.4994 27.5097 43.6784 27.252 43.7848C26.9027 43.9298 26.4928 44 26.03 44C25.4135 44 24.9429 43.8565 24.6228 43.5704C24.3027 43.2858 24.1451 42.9334 24.1451 42.5132C24.1451 42.119 24.2586 41.795 24.4896 41.5427C24.7237 41.2873 25.1463 41.0997 25.7659 40.9767C26.5117 40.8269 26.995 40.722 27.2157 40.6621C27.4364 40.603 27.6706 40.5226 27.9142 40.4264C27.9142 40.1805 27.8677 40.0117 27.7675 39.9132C27.6643 39.8162 27.4885 39.7658 27.2338 39.7658C26.9082 39.7658 26.6662 39.8194 26.503 39.9219C26.3761 40.0054 26.2713 40.1568 26.1956 40.3799ZM22.9901 4C34.027 4 42.9811 12.958 42.9811 24.0028C42.9811 27.9863 41.8143 31.7002 39.8048 34.8189H35.3223C37.8284 31.943 39.346 28.1842 39.346 24.0698C39.346 15.0329 32.0199 7.70524 22.9901 7.70524C13.9573 7.70524 6.63429 15.0329 6.63429 24.0698C6.63429 31.2035 11.1972 37.2691 17.5632 39.5104C17.8864 37.6845 18.1836 36.4248 18.2837 34.405C18.4303 31.4329 18.4461 28.993 18.3547 27.5748C18.0204 22.4623 17.4213 21.4375 12.5729 21.9672C12.5729 21.9672 18.3255 18.981 20.6472 22.9464C22.5376 25.7103 20.9263 39.8659 18.3964 43.4718C9.57167 41.3945 3 33.4653 3 24.0028C3 12.958 11.9509 4 22.9901 4ZM9.83104 19.6692C18.4564 11.3174 30.1373 12.6955 35.6447 16.9195C32.984 18.139 30.1137 20.0531 28.3746 22.7674C30.0585 22.5427 33.7984 22.3898 36.7342 23.6575C29.8291 26.6989 25.5373 32.2473 21.9314 39.8588C24.093 29.4652 28.939 25.4383 30.4258 24.5365C30.4258 24.5365 28.1877 24.1857 25.2306 24.907C25.6264 22.8124 27.494 19.0275 29.6454 17.2143C23.3189 14.9809 16.9546 16.4685 9.83104 19.6692ZM39.0338 36.733H41.0638V40.4209L42.5451 38.7039H44.9882L43.1285 40.5194L45.0962 43.8841H42.8581L41.8104 41.806L41.0646 42.5376V43.8841H39.0346V36.733H39.0338ZM31.7109 38.7039H33.5603V39.5466C33.8362 39.2013 34.1145 38.9585 34.3983 38.8095C34.6814 38.6605 35.0266 38.5864 35.4311 38.5864C35.9798 38.5864 36.4078 38.7512 36.7208 39.0768C37.0306 39.4024 37.1859 39.9077 37.1859 40.5904V43.8833H35.1922V41.035C35.1922 40.711 35.1323 40.4808 35.0132 40.3468C34.8903 40.2104 34.7247 40.1434 34.504 40.1434C34.2651 40.1434 34.0712 40.2349 33.9214 40.417C33.7716 40.5975 33.6983 40.9254 33.6983 41.3977V43.8833H31.7124V38.7039H31.7109ZM27.9126 41.4253C27.643 41.5238 27.3568 41.6082 27.0628 41.6838C26.6607 41.7918 26.4029 41.8975 26.2973 42.0008C26.1845 42.108 26.1294 42.2309 26.1294 42.3665C26.1294 42.5234 26.1845 42.6496 26.2949 42.7497C26.4029 42.8482 26.5629 42.8979 26.7758 42.8979C26.9957 42.8979 27.2007 42.8443 27.3923 42.7371C27.5815 42.6299 27.7155 42.4966 27.7967 42.3445C27.8763 42.1915 27.9118 41.9889 27.9118 41.7414V41.4253H27.9126Z" fill="#D7000F"/>
</g>
<defs>
<clipPath id="clip0_538_13761">
<rect width="42.0954" height="40" fill="white" transform="translate(3 4)"/>
</clipPath>
</defs>
</svg>
