<svg width="48" height="48" viewBox="0 0 48 48" fill="none" xmlns="http://www.w3.org/2000/svg">
<g clip-path="url(#clip0_538_13762)">
<path d="M24.008 43.994C35.039 43.994 44 35.038 44 23.99C44 12.95 35.039 4 24.008 4C12.959 4 4 12.95 4 23.99C4 35.038 12.959 43.994 24.008 43.994Z" fill="#E60012"/>
<path d="M7.34785 23.9772C7.34785 14.7742 14.7939 7.33116 24.0029 7.33116C33.1839 7.33116 40.6369 14.7742 40.6369 23.9772C40.6369 33.1742 33.1839 40.6282 24.0029 40.6282C14.7929 40.6282 7.34785 33.1742 7.34785 23.9772ZM24.0029 41.4342C33.6259 41.4342 41.4439 33.6182 41.4439 23.9772C41.4439 14.3462 33.6259 6.53516 24.0029 6.53516C14.3569 6.53516 6.54785 14.3462 6.54785 23.9772C6.54785 33.6182 14.3569 41.4342 24.0029 41.4342Z" fill="white"/>
<path d="M23.5981 15.1656H22.3851C22.1531 15.1656 21.9781 14.9716 21.9781 14.7346C21.9781 14.4886 22.1531 14.3036 22.3851 14.3036H23.5981V10.4336H20.6921L21.3941 15.8546H17.3221C17.3221 15.8546 18.8601 26.3576 14.7231 35.1166C17.1911 35.1316 20.1631 35.1166 20.1631 35.1166H20.1461C23.0071 27.0526 22.6941 26.0896 22.6941 26.0896H23.5981V22.4866H22.6831C22.4441 22.4866 22.2681 22.2866 22.2681 22.0606C22.2681 21.8146 22.4441 21.6176 22.6831 21.6176H23.5981V15.1656ZM24.4171 15.1656H25.6071C25.8341 15.1656 26.0161 14.9716 26.0161 14.7346C26.0161 14.4886 25.8331 14.3036 25.6071 14.3036H24.4171V10.4336H27.3091L26.6071 15.8546H30.6971C30.6971 15.8546 29.1381 26.3576 33.2761 35.1166C30.8121 35.1316 27.8371 35.1166 27.8371 35.1166C24.9781 27.0526 25.3021 26.0896 25.3021 26.0896H24.4181V22.4866H25.3211C25.5501 22.4866 25.7351 22.2866 25.7351 22.0606C25.7351 21.8146 25.5501 21.6176 25.3211 21.6176H24.4181V15.1656H24.4171Z" fill="white"/>
<path d="M21.0492 26.8785L20.9792 26.9545L21.3502 28.3665C21.4002 28.5815 21.2792 28.8115 21.0702 28.8555C20.8632 28.9255 20.6592 28.7985 20.5992 28.5715L20.2632 27.2965L20.0652 27.3095L19.9062 27.2965L19.5762 28.5715C19.5132 28.7995 19.3112 28.9255 19.1022 28.8555C18.8872 28.8115 18.7652 28.5815 18.8252 28.3665L19.1872 26.9605L19.1032 26.8825C18.8362 26.6055 18.6992 26.2455 18.6992 25.8545V20.0095C18.6992 19.2165 19.3332 18.5645 20.1022 18.5645C20.8562 18.5695 21.4712 19.2215 21.4612 20.0165V25.8565C21.4602 26.2505 21.3232 26.6055 21.0492 26.8785ZM19.4742 22.4585V25.8545C19.4742 26.0295 19.5362 26.1915 19.6442 26.3115C19.7662 26.4345 19.9202 26.4965 20.0702 26.4965C20.2372 26.5005 20.3902 26.4325 20.5202 26.3065C20.6242 26.1855 20.6962 26.0245 20.6962 25.8575V22.4595H19.4742V22.4585ZM20.6962 21.6385V20.0165C20.6962 19.6545 20.4252 19.3635 20.0972 19.3635C19.7602 19.3635 19.4792 19.6545 19.4742 20.0095V21.6375H20.6962V21.6385ZM29.6082 22.0485L27.9372 18.6345L26.2762 22.0485L27.5622 24.6695V28.4605C27.5622 28.6935 27.7332 28.8715 27.9412 28.8715C28.1552 28.8715 28.3292 28.6935 28.3292 28.4605V24.6545L29.6082 22.0485ZM27.9382 23.7065L27.1242 22.0485L27.9382 20.3765L28.7552 22.0485L27.9382 23.7065Z" fill="#E60012"/>
</g>
<defs>
<clipPath id="clip0_538_13762">
<rect width="40" height="39.994" fill="white" transform="translate(4 4)"/>
</clipPath>
</defs>
</svg>
