<svg width="48" height="48" viewBox="0 0 48 48" fill="none" xmlns="http://www.w3.org/2000/svg">
<path d="M24.0119 4.02539C23.2529 4.02539 22.5038 4.06734 21.7687 4.15223V14.8818H17.8456C17.8456 14.8818 15.9021 14.7939 15.9021 16.7125V21.3457C15.9021 21.3457 15.8791 23.0616 17.6868 23.0616H30.2731C30.2731 23.0616 32.2167 23.0406 32.2167 21.2559V17.1889C32.2167 17.1889 32.6641 14.9018 30.0314 14.9018H26.2561L26.2841 8.73151C33.4321 9.78719 38.9872 15.7378 39.4277 23.0666L43.973 23.0696C43.4796 12.4688 34.7315 4.02539 24.0119 4.02539ZM24.9338 21.2878H23.1101V16.7165H24.9338V21.2878ZM39.4306 24.9133C39.0092 32.2571 33.4591 38.2216 26.3071 39.2913V33.0741H30.1173C30.1173 33.0741 32.2346 33.3218 32.2346 30.8918V26.9168C32.2346 26.9168 32.4634 24.8833 30.0584 24.8833H17.9026C17.9026 24.8833 15.9001 24.8264 15.9001 26.6002V31.1755C15.9001 31.1755 15.7013 33.0641 17.9325 33.0641H21.7378L21.7468 39.2933C14.2871 38.1957 8.56423 31.7737 8.56423 24.0114C8.56423 18.4574 11.4916 13.5904 15.8881 10.8668L15.8871 5.74524C8.89582 8.85835 4.0249 15.8646 4.0249 24.0114C4.0249 35.0466 12.9727 43.9954 24.0119 43.9954C34.7445 43.9954 43.5046 35.529 43.974 24.9133H39.4306ZM24.9338 31.2803H23.1101V26.709H24.9338V31.2803Z" fill="#D80C18"/>
</svg>
