<svg width="48" height="48" viewBox="0 0 48 48" fill="none" xmlns="http://www.w3.org/2000/svg">
<g clip-path="url(#clip0_538_13768)">
<path d="M18.2318 9.45876C20.2107 7.81451 22.5481 6.44243 25.4948 5.65178C27.2504 5.18205 29.0371 4.97074 30.7656 5.00325C30.8706 5.1187 31.3299 6.59164 31.8884 6.86589C32.4482 7.13889 34.6063 6.47828 35.6692 7.91871C36.1355 8.83274 35.4695 9.24286 36.0659 9.81762C40.0409 12.1354 40.7907 9.25912 42.3699 11.952C43.0714 14.1944 39.6437 13.7488 38.7447 16.3071C38.4787 15.8757 37.5556 15.3881 37.2317 15.1609C34.4284 13.4116 31.1344 12.7585 27.6892 13.6813C21.0977 15.4477 17.1623 22.1172 18.9278 28.71C20.6946 35.3028 27.3804 39.1215 33.9741 37.3551C35.918 36.8341 38.2849 35.5187 39.6845 34.2592C40.8653 33.3651 41.8602 31.8872 42.9343 31.4033C42.9343 31.4033 42.2186 32.254 42.054 32.915C42.0527 32.9125 42.3637 33.0125 42.9659 32.4169C43.5657 31.8234 44.0192 30.7018 43.9992 30.6881C43.9446 31.0953 44.1976 32.1248 43.076 33.5323C42.3983 34.4897 41.6872 35.144 41.7043 35.1611C41.9081 35.0807 42.3178 34.8048 42.8684 34.4292C43.3511 34.0799 43.9992 32.8988 43.9992 32.8988C43.9654 33.4643 43.1923 35.6688 42.2365 36.8062C40.7386 38.8314 38.9255 40.1755 38.9255 40.1755C37.9836 40.9153 37.04 41.5243 35.2711 42.0599C25.2093 44.7553 14.9225 38.7672 12.1958 28.8096C11.5452 26.4818 11.5439 23.8156 11.7419 21.2548C11.7682 21.2815 9.91929 22.3752 7.77406 22.3585C5.51337 22.3427 4 20.5209 4 18.4661C4 16.5384 6.25902 13.8997 6.26193 14.0289C6.28569 14.121 6.13731 16.2433 8.2071 16.3067C12.4196 15.8824 14.4515 12.5797 17.7496 9.87305L18.2318 9.45876ZM27.3441 20.8439H36.4365C37.4647 20.8439 38.2974 21.6766 38.2974 22.7053V28.4062C38.2974 29.4327 37.4647 30.268 36.4365 30.268H27.3441C26.3163 30.268 25.4827 29.4327 25.4827 28.4062V22.7048C25.4832 21.6766 26.3167 20.8439 27.3441 20.8439Z" fill="#CB191D"/>
</g>
<defs>
<clipPath id="clip0_538_13768">
<rect width="40" height="37.7064" fill="white" transform="translate(4 5)"/>
</clipPath>
</defs>
</svg>
