<svg width="48" height="48" viewBox="0 0 48 48" fill="none" xmlns="http://www.w3.org/2000/svg">
<g clip-path="url(#clip0_538_13769)">
<path d="M16.1781 9.50921C16.2328 9.47347 16.4756 9.17095 16.9321 9.11446C16.9321 9.11446 16.7958 9.53803 16.3169 9.66577C16.3169 9.66577 16.7428 9.6992 16.8786 10.0425C16.8786 10.0425 16.5431 10.3307 16.1375 9.85669C16.1375 9.85669 16.4027 10.3342 15.916 10.6095C15.916 10.6095 15.6081 10.4391 15.9314 9.91894C15.9314 9.91894 15.4885 10.4114 15.1846 10.2999C15.1846 10.2999 15.1668 10.0282 15.8325 9.77045C15.8325 9.77045 15.3192 9.80043 15.2065 9.48269C15.2065 9.48269 15.455 9.18686 15.9482 9.5627C15.9482 9.5627 15.6637 9.05567 16.1168 8.68444C16.1166 8.68467 16.4225 8.96159 16.1781 9.50921ZM24.551 17.5614C25.3082 17.8406 25.1526 18.177 24.8789 18.2323C24.575 18.1477 24.4657 18.058 24.2967 17.9268C24.3366 18.0742 24.519 18.364 24.3818 18.5432C24.2185 18.6794 24.0299 18.495 23.9363 18.4055C23.8805 18.3515 23.812 18.1719 23.7509 17.9958C23.7106 18.0442 23.1583 18.4239 22.9393 18.1353C22.9255 17.8611 23.3802 17.7776 23.5226 17.673C23.3195 17.7345 22.8724 17.471 22.7993 17.4009C22.6843 17.2914 22.8169 17.2397 22.8837 17.2132C23.1659 17.1041 23.4696 17.2017 23.7244 17.3778C23.6718 17.2374 23.3933 16.9826 23.6398 16.7656L23.7848 16.708C23.9723 16.7115 24.0276 16.7977 24.0853 16.8519C24.2095 16.9704 24.2409 17.1523 24.2158 17.287C24.2607 17.1904 24.5939 17.0566 24.5939 17.0566C24.8805 16.9139 25.1025 17.1682 24.872 17.3444L24.551 17.5614ZM14.2152 21.0903C13.999 21.1915 14.3026 21.6997 14.3234 21.7505C14.3234 21.7505 13.9918 21.7325 13.7884 21.7705C13.7884 21.7705 14.016 21.1837 13.7216 21.0318C13.1064 20.7463 12.4184 21.3885 12.0769 21.1918C12.5189 21.0698 12.7054 20.5226 13.1011 20.5588C13.253 20.5727 13.6381 20.8454 13.7444 20.8189C13.7444 20.8189 13.7456 20.5047 13.7836 20.4585C13.8825 20.519 13.9826 20.7555 14.0285 20.7956C14.0762 20.8365 14.4202 20.6651 14.8883 20.7186C15.1869 20.8049 15.562 21.3124 15.5862 21.5967C14.9667 21.035 14.3303 21.035 14.2152 21.0903ZM35.1446 18.0301C36.1755 18.9169 36.6429 18.4415 37.2223 19.0209C37.244 18.5996 36.7581 18.135 36.6546 18.0059C37.7962 18.5192 37.9242 18.64 37.6705 19.224C37.4934 19.6377 38.2816 19.0924 38.7374 19.5342C38.395 19.5134 38.3196 19.682 37.929 19.8869C37.1448 20.2605 36.7879 19.8323 36.3586 20.2455L36.181 19.9243C36.181 19.9243 36.8967 19.7449 36.9283 19.5411C36.9615 19.3386 35.3968 19.6082 35.1446 18.0301ZM44.1257 20.7553C44.1223 20.6483 44.0831 20.3755 44.2004 20.0705C44.1859 20.0809 43.5859 20.0306 43.6713 20.3214C43.7241 20.5063 43.9814 20.4745 44.1257 20.7553ZM30.7507 15.5985C30.4673 15.625 30.1189 15.5708 29.8157 15.4696C30.0486 15.6711 30.3892 16.0186 30.2661 16.2522C30.4102 16.0991 30.6541 15.7756 30.7507 15.5985ZM29.8854 16.4454C29.6472 16.3596 29.4826 16.2053 29.3809 15.8632C29.3511 16.0047 29.3193 16.174 29.1026 16.2798C29.2425 16.4696 29.5769 16.5627 29.8854 16.4454ZM28.6583 15.8344C28.7067 15.7783 28.7466 15.7251 28.7655 15.6743C28.7286 15.7135 28.6709 15.744 28.6045 15.7663L28.6583 15.8344ZM14.7366 19.0832C14.2899 18.5295 14.6284 18.3236 14.8143 18.4834C14.9782 18.6273 15.0269 18.7465 15.0933 18.922C15.1302 18.7943 15.1246 18.491 15.3077 18.418C15.4947 18.3896 15.5517 18.6158 15.5826 18.7228C15.6021 18.7908 15.5826 18.9289 15.5491 19.0898C15.6019 19.0721 16.1784 19.064 16.215 19.3799C16.097 19.5941 16.1166 19.3177 15.5636 19.4664C15.8295 19.4756 16.0718 19.9358 15.8426 20.0647C15.6102 20.1966 15.3642 19.9319 15.2773 19.5964C15.3192 19.7398 15.3769 20.0502 15.0935 20.1046C14.9406 20.1339 14.7682 19.9854 14.7649 19.8302C14.7601 19.6806 14.785 19.5323 14.8627 19.4424C14.4343 19.524 14.061 19.0184 14.411 19.0373L14.7366 19.0832ZM29.7666 19.2351C29.0738 19.0728 28.305 19.9976 28.305 19.9976C28.3984 19.2997 28.4397 19.2639 28.5381 19.1062C28.7353 18.791 29.6098 18.9658 29.6135 18.7996C29.6214 18.5925 29.564 18.4348 29.564 18.4348L29.8792 18.6056C30.1773 18.6564 30.1828 17.9727 30.5838 17.8966C30.9578 17.8247 31.3219 17.9494 31.6629 18.0486C30.8111 18.1758 30.2109 18.6688 30.3198 19.0158C30.3836 19.1809 30.6726 19.3333 30.6726 19.3333L29.9465 19.7539C29.9462 19.7541 29.9647 19.2821 29.7666 19.2351ZM28.0945 18.2028C28.0565 18.1293 28.1093 18.0797 28.0756 18.0331L27.8725 17.7553C27.8051 17.7942 27.726 17.8175 27.6435 17.8175L27.6366 18.1685L27.7147 18.3147C27.7235 18.3732 27.6813 18.4348 27.6158 18.4313C27.5508 18.429 27.5088 18.3801 27.5153 18.3179C27.5282 18.234 27.5995 18.2259 27.5995 18.1685V17.815C27.5153 17.8081 27.4383 17.7776 27.3737 17.7299L27.1644 18.0193L27.1411 18.1839C27.1166 18.2367 27.0458 18.2605 26.9926 18.2213C26.9407 18.1805 26.9361 18.1157 26.9804 18.0705C27.0385 18.0094 27.1003 18.044 27.1351 17.9967L27.3458 17.708C27.2859 17.6561 27.2393 17.5872 27.2142 17.5102L26.8718 17.6218C26.8141 17.6402 26.819 17.7103 26.7567 17.7426C26.7039 17.7691 26.6326 17.7472 26.6142 17.684C26.5962 17.6218 26.6301 17.5657 26.6935 17.5551C26.7751 17.5402 26.8049 17.6059 26.8593 17.5874L27.2029 17.4758C27.1943 17.4401 27.1895 17.4039 27.1895 17.3665C27.1895 17.3216 27.1964 17.2791 27.2079 17.2388L26.8669 17.1283C26.81 17.1099 26.7731 17.1687 26.7041 17.1583C26.646 17.1502 26.5999 17.0887 26.6248 17.0271C26.646 16.9662 26.7053 16.9413 26.7629 16.9686C26.8367 17.0066 26.824 17.0755 26.8787 17.094L27.2199 17.2044C27.2497 17.1283 27.2981 17.0617 27.3613 17.011L27.1544 16.7278C27.1199 16.6778 27.0541 16.7036 27.0057 16.654C26.9624 16.6125 26.9624 16.5367 27.0175 16.5C27.0703 16.465 27.1332 16.4804 27.1625 16.5355C27.2033 16.6105 27.1496 16.6587 27.1844 16.7048L27.391 16.9902C27.4572 16.9441 27.5386 16.9178 27.6248 16.9132V16.5715L27.5434 16.423C27.5347 16.3654 27.5778 16.304 27.6437 16.3068C27.7094 16.3103 27.7519 16.3587 27.7438 16.4214C27.7306 16.5046 27.661 16.5127 27.661 16.5703V16.9132C27.7475 16.9167 27.8296 16.9443 27.8955 16.9902L28.0952 16.7198L28.1171 16.554C28.1422 16.5021 28.2144 16.4781 28.2677 16.5178C28.3165 16.5586 28.3228 16.6236 28.2794 16.669C28.2204 16.7283 28.1579 16.6944 28.124 16.7394L27.9262 17.0133C27.9935 17.0661 28.0424 17.1376 28.0712 17.2192L28.3876 17.1157L28.5028 16.996C28.5556 16.9683 28.628 16.9902 28.6465 17.0548C28.6649 17.1157 28.6294 17.1722 28.5656 17.1837C28.4839 17.1991 28.4551 17.133 28.3998 17.1514L28.0823 17.2545C28.0892 17.2907 28.0952 17.3276 28.0952 17.3668C28.0952 17.4149 28.0878 17.4622 28.0719 17.5065L28.3912 17.6102L28.5552 17.5796C28.6128 17.59 28.6587 17.6494 28.6361 17.7112C28.6128 17.7723 28.5533 17.797 28.4971 17.7693C28.4219 17.7325 28.4362 17.663 28.3816 17.6451L28.0595 17.5404C28.0269 17.6185 27.9737 17.6866 27.9036 17.735L28.103 18.0124L28.2554 18.0843C28.2974 18.1258 28.2974 18.2012 28.2428 18.2374C28.1895 18.2729 28.1245 18.2582 28.0945 18.2028ZM20.8055 19.2582C20.7562 19.1846 20.821 19.1362 20.7797 19.0901L20.5381 18.8115C20.4569 18.853 20.3608 18.8747 20.2612 18.8747L20.2533 19.2222C20.2533 19.2833 20.3333 19.3004 20.3462 19.3688C20.3596 19.4276 20.3066 19.4881 20.2277 19.4857C20.1507 19.4839 20.1004 19.4346 20.1097 19.3712C20.1224 19.2888 20.2086 19.2808 20.2086 19.2238V18.8733C20.1087 18.8641 20.0174 18.8341 19.9404 18.788L19.6877 19.0746L19.6594 19.2393C19.6296 19.2911 19.5438 19.3154 19.4786 19.275C19.42 19.236 19.4124 19.1703 19.4654 19.1254C19.5339 19.0661 19.6091 19.1 19.6513 19.0534L19.904 18.764C19.8332 18.714 19.7774 18.6467 19.7449 18.5685L19.3347 18.6801L19.1966 18.7993C19.1339 18.8263 19.0479 18.8051 19.0257 18.7424C19.0036 18.6801 19.0453 18.625 19.1187 18.6146C19.219 18.5973 19.2558 18.6628 19.3225 18.6451L19.7324 18.5351C19.7232 18.4982 19.7182 18.4627 19.7182 18.4246C19.7182 18.3811 19.7241 18.3382 19.7389 18.2992L19.3303 18.1888C19.2607 18.1696 19.2167 18.2284 19.1334 18.2185C19.0631 18.2093 19.008 18.1484 19.0361 18.0873C19.0631 18.0274 19.1357 18.0022 19.2024 18.0287C19.2937 18.0668 19.2778 18.1357 19.3439 18.1544L19.7523 18.2646C19.7859 18.1876 19.848 18.1214 19.9227 18.0725L19.6746 17.7894L19.4947 17.7175C19.4426 17.6753 19.4426 17.6006 19.5086 17.5637C19.5743 17.5291 19.6478 17.5429 19.6847 17.5994C19.732 17.6725 19.67 17.7207 19.7101 17.7668L19.9586 18.0504C20.0387 18.0055 20.1336 17.978 20.2372 17.9743V17.6335C20.2372 17.5727 20.1562 17.5554 20.141 17.4873C20.1295 17.4288 20.1825 17.3677 20.2612 17.37C20.3393 17.3723 20.391 17.4219 20.3799 17.485C20.3658 17.5657 20.2796 17.5747 20.2796 17.6324V17.9741C20.3854 17.9771 20.4832 18.0052 20.5651 18.0511L20.8009 17.7806C20.8443 17.7325 20.7903 17.6794 20.8291 17.616C20.8618 17.5632 20.9476 17.5402 21.0078 17.5803C21.0675 17.6206 21.0751 17.685 21.0225 17.7299C20.9515 17.7899 20.8782 17.7553 20.8376 17.8023L20.6013 18.0728C20.6783 18.1263 20.7405 18.1959 20.7751 18.2782L21.1546 18.1758C21.222 18.1581 21.2171 18.0885 21.2911 18.0557C21.3548 18.028 21.4429 18.0511 21.4638 18.1147C21.4839 18.1761 21.4429 18.2312 21.37 18.2423C21.2697 18.2572 21.2349 18.1915 21.1685 18.2111L20.7853 18.3135C20.7968 18.3492 20.8025 18.3854 20.8025 18.4239C20.8025 18.4735 20.7945 18.5196 20.776 18.5644L21.1592 18.6667L21.3548 18.6391C21.4265 18.6467 21.4797 18.7071 21.4514 18.768C21.4263 18.8279 21.3536 18.8526 21.2845 18.8256C21.1948 18.7901 21.2109 18.7198 21.1452 18.7025L20.7622 18.5983C20.7216 18.6771 20.6564 18.7433 20.5724 18.7922L20.8129 19.0661C20.8563 19.1143 20.9326 19.0892 20.9937 19.1385C21.0456 19.18 21.0465 19.2552 20.9801 19.2904C20.9178 19.3283 20.8399 19.3128 20.8055 19.2582ZM18.3896 20.0573C18.9778 20.2732 18.8565 20.5344 18.6448 20.5775C18.4099 20.5137 18.3248 20.4424 18.1947 20.3412C18.2245 20.4551 18.3663 20.679 18.2616 20.8159C18.1339 20.9248 17.9877 20.7786 17.9146 20.7117C17.8712 20.6698 17.8184 20.5298 17.7707 20.3942C17.7403 20.4323 17.3114 20.7258 17.1429 20.5024C17.132 20.2895 17.4823 20.225 17.5946 20.1445C17.4387 20.1911 17.0907 19.9886 17.0338 19.9338C16.9446 19.8473 17.0472 19.8072 17.1 19.7883C17.3197 19.7036 17.5528 19.7795 17.7502 19.9153C17.7112 19.806 17.4963 19.6084 17.684 19.4401L17.7986 19.3963C17.942 19.3986 17.9875 19.4666 18.031 19.5079C18.1253 19.5999 18.1498 19.7403 18.1313 19.8445C18.1657 19.7691 18.4246 19.6667 18.4246 19.6667C18.6467 19.5551 18.8171 19.753 18.6395 19.8893L18.3896 20.0573ZM40.7994 12.9342C40.8933 12.6121 41.1257 12.4394 41.267 12.5221C41.4753 12.642 41.2281 12.895 40.9297 13.0193C41.2108 12.9146 41.5297 12.9388 41.5034 13.1424C41.4778 13.3335 41.2122 13.399 40.8933 13.1873C41.1469 13.4071 41.1783 13.6914 40.9933 13.7557C40.8068 13.8237 40.6763 13.628 40.7183 13.2494C40.6366 13.6095 40.3948 13.75 40.276 13.6935C40.0867 13.6038 40.1188 13.3794 40.5949 13.1578C40.2301 13.2909 39.9883 13.2033 40.0139 13.0485C40.0457 12.8754 40.3454 12.8461 40.6274 12.9904C40.4628 12.88 40.3413 12.5337 40.5755 12.453C40.7238 12.4036 40.8981 12.5687 40.7994 12.9342ZM47.0395 19.1604C47.3683 18.8254 47.7985 18.7691 47.9466 18.9676C48.1672 19.2616 47.666 19.4044 47.17 19.3516C47.6328 19.417 48.0619 19.6635 47.9014 19.8999C47.7513 20.1191 47.3392 20.0202 47.0213 19.5369C47.2459 19.9856 47.1135 20.3569 46.8168 20.3131C46.514 20.2665 46.4497 19.9374 46.7384 19.4954C46.4068 19.886 45.98 19.8941 45.8453 19.7421C45.6371 19.5044 45.8165 19.2469 46.6187 19.2962C46.0257 19.2134 45.7416 18.9384 45.8721 18.7657C46.021 18.5699 46.4596 18.7403 46.7651 19.1127C46.6028 18.8618 46.6436 18.3479 47.0194 18.4103C47.2572 18.4498 47.4001 18.7747 47.0395 19.1604ZM45.1857 16.275C45.3081 15.8618 45.6072 15.6379 45.7895 15.744C46.0579 15.901 45.7377 16.2268 45.3528 16.3845C45.7176 16.2499 46.128 16.281 46.0923 16.5443C46.0619 16.7896 45.7176 16.8752 45.3081 16.6008C45.6341 16.8855 45.6733 17.2505 45.4352 17.3352C45.1935 17.4216 45.0289 17.1705 45.0828 16.6826C44.9763 17.1447 44.6623 17.3271 44.5092 17.2545C44.2664 17.1389 44.309 16.8505 44.9224 16.5639C44.4515 16.7359 44.1407 16.622 44.1755 16.4235C44.2133 16.1991 44.6028 16.1618 44.9645 16.3488C44.7515 16.2053 44.5965 15.7585 44.8991 15.6559C45.09 15.5916 45.3136 15.8055 45.1857 16.275ZM36.6788 12.9618C37.1448 12.4693 37.7203 12.3709 37.9011 12.6478C38.1649 13.0587 37.4861 13.2865 36.8342 13.2312C37.442 13.3049 37.9913 13.6374 37.7561 13.9833C37.5356 14.3038 36.9966 14.1791 36.6177 13.503C36.873 14.1329 36.6661 14.6699 36.2749 14.6204C35.8757 14.5685 35.8202 14.1002 36.2453 13.455C35.7667 14.0287 35.1988 14.0587 35.0367 13.8459C34.7796 13.5127 35.0422 13.1403 36.1045 13.176C35.3253 13.0815 34.9709 12.7018 35.1602 12.4486C35.3738 12.1631 35.9444 12.3854 36.3164 12.9054C36.1224 12.5544 36.2234 11.8191 36.718 11.8904C37.0309 11.9365 37.1914 12.3956 36.6788 12.9618ZM28.9794 7.5228C29.0671 7.18916 29.3479 7.01646 29.5416 7.10961C29.8263 7.24496 29.5324 7.50159 29.1577 7.61711C29.513 7.51934 29.929 7.55739 29.9179 7.77251C29.9082 7.97404 29.5711 8.0303 29.1328 7.79442C29.4886 8.03606 29.5582 8.33535 29.3278 8.39622C29.0924 8.4594 28.9013 8.24888 28.9119 7.85137C28.8473 8.22767 28.5483 8.36532 28.3866 8.29961C28.1321 8.19723 28.1478 7.96297 28.7415 7.74946C28.2824 7.87489 27.9601 7.77136 27.9762 7.61019C27.9958 7.42827 28.3825 7.40982 28.7657 7.5756C28.5386 7.45132 28.3417 7.07964 28.6359 7.00723C28.8217 6.9602 29.0671 7.14373 28.9794 7.5228ZM22.6061 10.441C22.5602 10.1394 21.8012 9.57331 21.1422 9.5325C21.7959 9.18502 22.1002 9.32867 22.1002 9.32867C22.5462 9.42597 22.7235 10.1827 22.9614 10.1078C23.0894 10.0409 23.3013 9.86153 23.3013 9.86153L23.2367 10.2563C23.2563 10.4975 24.062 10.1924 24.3451 10.521C24.3451 10.521 24.6891 10.7995 24.7179 11.5867C24.3601 10.933 23.3783 10.5383 23.0573 10.7799C22.9075 10.8927 22.9962 11.2667 22.9962 11.2667C22.797 11.0469 22.4991 10.8904 22.2206 10.8184C22.2206 10.8184 22.6372 10.6538 22.6061 10.441ZM26.053 13.562C26.2607 12.9434 26.7712 12.6109 27.0809 12.7695C27.5383 13.002 26.9935 13.4878 26.3364 13.7237C26.9589 13.5242 27.6553 13.5671 27.596 13.9619C27.5434 14.3289 26.9608 14.4544 26.261 14.0483C26.8196 14.4696 26.8835 15.0144 26.4802 15.1406C26.0687 15.2694 25.7848 14.8955 25.8784 14.1668C25.6988 14.8567 25.1637 15.1288 24.9024 15.0202C24.4918 14.8482 24.5614 14.4177 25.6064 13.9897C24.8037 14.2464 24.2748 14.0778 24.3338 13.7832C24.4007 13.4465 25.0606 13.3912 25.6769 13.6704C25.3149 13.4576 25.0509 12.7905 25.5646 12.6377C25.8895 12.5417 26.2693 12.8595 26.053 13.562ZM19.8544 13.1569C19.652 12.8618 19.7128 12.5971 19.9155 12.5768C20.2148 12.5452 20.2134 12.8788 20.0483 13.1447C20.2148 12.9007 20.5289 12.7361 20.6877 12.903C20.8362 13.0608 20.6508 13.2634 20.1675 13.2909C20.5978 13.3075 20.8793 13.5025 20.768 13.658C20.6541 13.8166 20.3605 13.7465 20.0617 13.438C20.3077 13.7546 20.2102 14.0031 20.0513 14.0285C19.7968 14.0711 19.6252 13.8846 19.8641 13.4426C19.6483 13.7546 19.3474 13.8281 19.2339 13.6981C19.1055 13.5496 19.3571 13.3534 19.7451 13.2987C19.4943 13.3114 19.0735 13.1214 19.2169 12.927C19.3077 12.803 19.6179 12.8272 19.8544 13.1569ZM13.3776 14.4301C13.4442 14.088 13.6584 13.9111 13.802 14.0068C14.0163 14.1472 13.7963 14.4082 13.5115 14.5258C13.782 14.4269 14.0942 14.4659 14.0863 14.6847C14.0806 14.8906 13.8237 14.9494 13.4938 14.7066C13.7619 14.9552 13.8154 15.2614 13.6411 15.3246C13.4631 15.3877 13.3192 15.1714 13.3284 14.7659C13.2784 15.1498 13.0511 15.2913 12.9291 15.2245C12.7375 15.1203 12.7495 14.8802 13.1972 14.6612C12.8498 14.7896 12.6067 14.6849 12.619 14.5192C12.6323 14.3326 12.9263 14.3153 13.2145 14.4846C13.0418 14.3568 12.8957 13.9775 13.1179 13.9024C13.2584 13.8549 13.4442 14.0414 13.3776 14.4301ZM9.85898 15.2473C9.87904 14.8699 10.1055 14.6501 10.2971 14.7283C10.5818 14.8468 10.3577 15.1599 10.0377 15.3308C10.345 15.1818 10.7306 15.1784 10.7591 15.4131C10.7845 15.6351 10.4852 15.7364 10.0434 15.5258C10.4105 15.7509 10.5263 16.0714 10.3275 16.1657C10.1228 16.2614 9.91155 16.0518 9.85344 15.6144C9.85852 16.0333 9.6088 16.2187 9.44947 16.1657C9.19976 16.0829 9.17394 15.824 9.67797 15.5224C9.28069 15.7112 8.96734 15.6363 8.95466 15.4567C8.9399 15.2554 9.29199 15.1908 9.6699 15.3285C9.4414 15.2192 9.19746 14.8341 9.45363 14.7202C9.61641 14.649 9.87027 14.8205 9.85898 15.2473ZM13.5041 16.6066C13.732 16.0575 14.2079 15.8159 14.4744 16.0064C14.8668 16.2865 14.3474 16.6663 13.7458 16.7963C14.3155 16.6939 14.9328 16.8314 14.8544 17.1911C14.782 17.5272 14.2531 17.5655 13.6584 17.088C14.1262 17.5593 14.1474 18.0783 13.7792 18.1394C13.4015 18.2037 13.1749 17.8148 13.3065 17.1475C13.1011 17.7689 12.6051 17.9497 12.3805 17.8127C12.0227 17.5941 12.1135 17.2017 13.0757 16.945C12.3439 17.0762 11.8846 16.8459 11.9563 16.5766C12.037 16.2729 12.6307 16.3107 13.1613 16.6573C12.8539 16.4076 12.663 15.7481 13.1313 15.6769C13.4281 15.631 13.7458 15.9805 13.5041 16.6066ZM9.23619 20.2662C8.93506 20.2697 8.28853 20.9545 8.15894 21.5921C7.90923 20.9072 8.02844 20.679 8.02844 20.679C8.14004 20.3061 9.00885 20.1374 8.97034 19.8946C8.921 19.7622 8.77712 19.5309 8.77712 19.5309L9.15295 19.6483C9.39114 19.6621 9.20299 18.8323 9.56384 18.6015C9.56384 18.6015 9.88134 18.304 10.6545 18.3841C9.96758 18.6441 9.44394 19.5206 9.66368 19.8996C9.75568 20.0601 10.1034 20.0211 10.1034 20.0211C9.8629 20.1844 9.67014 20.4551 9.56361 20.7163C9.56361 20.7163 9.44717 20.2639 9.23619 20.2662ZM31.8589 11.8087C31.7035 11.6988 30.5815 12.1896 30.5815 12.1896C30.783 11.8768 30.8808 11.5429 30.8808 11.5429C31.1097 11.3483 31.6373 11.4875 31.804 11.4398C31.7763 11.3748 31.8211 11.1421 31.8211 11.1421L32.0456 11.3275C32.1974 11.3114 32.4127 10.8327 32.7434 10.8327C32.7434 10.8327 33.1976 11.087 33.5467 11.1606C32.9131 11.233 32.2967 11.4287 32.3302 11.7211C32.3548 11.8615 32.5621 12.0273 32.5621 12.0273L31.9209 12.2505C31.9207 12.2505 31.9912 11.906 31.8589 11.8087ZM42.52 12.4899C43.4056 13.4936 43.8684 13.0562 44.3597 13.7041C44.4119 13.2782 43.9975 12.7559 43.9124 12.6153C44.9235 13.2494 45.0333 13.3852 44.7605 13.9561C44.5677 14.3589 45.3323 13.8841 45.7185 14.3785C45.4063 14.3222 45.3252 14.4866 44.9523 14.6554C44.2034 14.9584 43.9048 14.4869 43.4808 14.8643L43.3427 14.5215C43.3427 14.5215 44.012 14.4087 44.0561 14.2056C44.1006 14.0034 42.6413 14.1196 42.52 12.4899ZM21.2353 13.1873C21.0345 12.696 21.1622 12.2955 21.4239 12.2955C21.8152 12.2955 21.7484 12.8124 21.4851 13.1993C21.747 12.8484 22.1791 12.6383 22.3516 12.925C22.5102 13.1931 22.233 13.4786 21.6093 13.444C22.1595 13.5371 22.4798 13.8848 22.3114 14.1092C22.1371 14.3377 21.774 14.1839 21.447 13.658C21.7023 14.1878 21.5296 14.5572 21.3204 14.5717C20.9879 14.5975 20.8053 14.2824 21.1943 13.6326C20.8588 14.082 20.4604 14.1505 20.3421 13.9305C20.2017 13.6796 20.5618 13.4145 21.0712 13.3907C20.7472 13.37 20.2439 13.0098 20.4659 12.7308C20.607 12.5533 20.996 12.6367 21.2353 13.1873ZM32.6161 15.7832C32.2398 15.9116 32.4406 16.4133 32.7152 16.575C32.2398 16.3587 31.7323 16.403 31.6809 16.6607C31.6373 16.8874 32.0419 17.0186 32.659 16.8208C31.8552 17.1498 31.8012 17.4802 32.1178 17.6119C32.3191 17.6965 32.7279 17.488 32.8695 16.9554C32.7992 17.5164 33.0157 17.8046 33.3336 17.705C33.6419 17.6089 33.5935 17.189 33.1644 16.8643C33.7019 17.1786 34.1517 17.0806 34.1932 16.7975C34.237 16.495 33.7019 16.4608 33.223 16.6155C33.727 16.4336 34.1473 16.0585 33.795 15.8802C33.6242 15.7933 33.3714 15.901 33.184 16.1454C33.184 16.1454 33.1482 15.4883 33.6938 14.91C33.845 14.9815 33.9712 15.1286 34.1854 15.5602C34.1425 15.2305 34.2428 14.8788 34.3574 14.758C34.4591 14.8327 34.7434 15.0458 34.8568 15.6718C34.9045 15.9111 35.0825 15.9058 35.1317 15.6414C35.1805 15.367 35.439 14.7534 35.7849 14.5996C35.8098 14.9342 35.7687 15.3416 35.4904 15.9307C35.8458 15.9058 36.2011 14.9524 36.7805 14.895C36.5663 14.9342 36.4379 15.2554 36.9022 15.3047C36.6355 15.8883 36.0369 16.2266 36.0369 16.2266C36.3673 16.2877 36.561 16.0469 36.9133 15.9411C37.0969 15.8858 37.3224 16.1276 37.0706 16.3158C36.8933 16.45 37.4752 16.3654 37.4801 16.6294C37.484 16.7258 37.3235 16.7629 37.267 16.7841C37.2815 16.8369 37.386 16.8996 37.5089 16.8796C37.4881 16.9407 37.3443 17.0361 37.1992 17.055C37.4503 17.0908 37.4282 17.2667 37.5089 17.3063C37.3346 17.456 36.9954 17.296 36.8767 17.5037C36.5449 18.0732 37.8993 18.2386 38.3802 17.6268C38.6299 17.314 39.0916 17.0981 39.5451 17.2171C40.2228 17.3944 40.419 17.9743 40.4563 18.0619C40.4932 18.1426 40.5114 18.2081 40.5133 18.2625C40.804 18.222 41.2177 18.1348 41.2786 17.955C41.3699 17.6776 39.3065 17.6259 39.3717 15.3213C40.4688 16.8618 41.1838 16.3167 41.7794 17.2967C41.9103 16.7073 41.4088 15.9132 41.3085 15.7027C42.6357 16.7419 42.7679 16.9478 42.3026 17.7099C41.9714 18.2462 43.1144 17.6903 43.5862 18.4435C43.1541 18.3186 43.019 18.5374 42.4665 18.7179C41.3722 19.0331 41.0233 18.3289 40.3731 18.7961L40.2857 18.494C39.9728 18.5614 39.4605 18.4871 39.555 18.9723C39.6749 19.5718 39.6297 19.1166 40.2719 18.8307C40.3477 18.7972 40.8679 18.7548 41.0538 19.2151C41.1165 19.3686 41.1275 19.9561 40.8557 20.3889C40.7655 20.5775 40.7107 20.8194 40.7307 21.0846C40.6645 20.4325 40.2228 20.3209 39.9784 20.5224C39.591 20.8436 40.0593 21.2831 40.4467 21.3165C39.817 21.3257 39.2698 21.6239 39.3334 21.9206C39.3915 22.1826 39.905 22.1187 40.5001 21.6031C39.7575 22.3488 39.8536 22.7239 40.2673 22.7057C40.5336 22.6942 40.8937 22.2702 40.7999 21.6423C40.9811 22.2683 41.3616 22.4629 41.6675 22.2003C41.9687 21.9453 41.7167 21.5273 41.0851 21.3988C41.8324 21.4615 42.2878 21.1376 42.2025 20.8182C42.1107 20.4775 41.4951 20.7066 41.0323 21.1083C41.5126 20.6658 41.8057 20.0633 41.3293 20.0497C41.2956 20.0488 41.2636 20.0518 41.2313 20.061C41.3302 19.9937 41.181 19.6559 41.3982 19.5086C41.5661 19.3935 41.7752 19.5651 41.823 19.97C42.0379 19.3647 42.5513 19.2609 42.7289 19.4774C42.9357 19.7283 42.8061 20.1311 42.4271 20.3774C43.1361 20.4246 43.2622 19.8607 44.0381 19.771C43.7162 19.6674 43.2996 19.1685 43.4762 18.9388C43.6606 18.6983 44.1792 19.0241 44.3927 19.5316C44.3282 19.2192 44.3503 18.6179 44.7054 18.6575C44.9851 18.688 44.9523 19.2911 44.8297 19.584C44.9235 19.4809 45.7061 19.1553 45.7644 19.5736C45.8193 19.9575 44.9747 20.0092 44.9747 20.0092C45.4833 20.1657 45.716 20.6421 45.6081 20.8009C45.4326 21.0622 44.8297 20.5524 44.736 20.2819C44.7563 20.6755 44.7766 20.9022 44.5419 21.0714C44.3199 21.1669 44.2203 21.0207 44.146 20.8717C44.1045 20.9068 44.0353 20.9218 43.9724 20.969C43.749 21.138 43.4135 21.1244 43.2825 21.1048C42.849 21.0421 42.671 21.1268 42.6429 21.4897C42.6016 22.0426 43.2749 21.8639 43.8509 21.7009C44.0268 21.5236 44.0791 21.3303 44.0791 21.3303L44.2973 21.617C44.4199 21.6146 44.5188 21.6446 44.5857 21.7239C44.9332 21.7078 45.3291 21.4131 45.71 21.6001C45.71 21.6001 45.8262 21.8102 46.259 22.3626C45.0067 21.9506 44.4568 22.2935 44.2956 22.5877C44.1834 22.7913 44.4534 23.1238 44.4534 23.1238L43.704 23.0474C43.5274 23.1821 28.0013 34.1019 28.0013 34.1019L11.7587 22.6735C11.3003 22.3765 11.4036 21.9149 11.8742 22.0899C12.0619 22.1602 12.2846 22.2314 12.4267 22.1452C13.0003 21.7862 12.625 20.8713 12.0568 21.4258C11.6406 21.8332 11.0902 21.8701 11.0757 21.61C11.0584 21.2769 11.4755 21.3361 11.9798 21.0795C12.2927 20.9206 12.3792 20.6785 12.5247 20.4834C12.4366 20.3672 12.3997 20.2245 12.402 20.0622C12.3243 20.4938 12.0741 20.7445 11.788 20.6365C11.5168 20.533 11.58 20.0887 11.9067 19.7447C11.5848 19.8609 10.9957 19.7332 11.0707 19.4085C11.1368 19.115 11.5655 19.1685 11.9452 19.3407C11.669 19.1279 11.5223 18.6179 11.7432 18.4908C12.043 18.3211 12.3054 18.7687 12.3245 19.2418C12.387 18.9056 12.6727 18.5019 12.957 18.6365C13.2097 18.7546 12.957 19.2983 12.7216 19.4207C12.8899 19.3545 13.1972 19.3765 13.3042 19.4276C13.3434 18.8814 14.669 19.0606 14.2982 19.5422C14.2982 19.5422 14.0123 19.8381 14.1585 20.0059C14.4917 20.3926 15.2381 19.4996 15.1177 19.0841C15.1177 19.0841 15.9791 19.2752 16.1339 19.4915C16.4255 19.8943 17.0873 19.7458 16.8964 19.0933C17.3492 19.2729 17.4871 19.0702 17.4811 18.9713C17.4742 18.8678 17.343 18.7182 17.1518 18.7993C16.83 18.9344 16.539 18.777 16.465 18.4754C16.4338 18.7089 16.2561 19.0405 16.0206 18.9298C15.7529 18.8049 15.9695 18.4288 16.0852 18.3211C15.0647 18.5955 15.1897 17.5058 16.0979 17.8321C15.2314 17.3716 16.2895 16.6432 16.4915 17.5397C16.4523 16.6098 17.5849 17.0829 16.8966 17.6651C17.4594 17.2289 17.6884 17.6571 17.5607 17.8263C17.2983 18.13 17.9381 18.503 18.0878 17.9102C17.8724 17.6939 17.6326 17.0873 18.1728 16.4129C18.1728 16.4129 18.5929 16.6568 18.6333 17.2715C18.684 17.0126 19.1193 16.5821 19.6893 17.0889C19.4481 16.8593 19.2457 16.5014 19.218 16.2482C19.3319 16.2641 19.6439 16.3672 19.9358 16.7753C19.8576 16.6637 19.6653 16.2771 19.6942 16.0273C19.7267 16.017 20.0573 16.1389 20.1214 16.2436C20.3446 15.479 21.1795 15.5164 21.3963 15.8484C21.5298 16.0529 21.5127 16.0792 21.5586 16.3116C21.607 16.1579 21.7555 15.9056 22.0343 15.7719C22.1076 16.0227 21.9849 16.3672 21.913 16.5706C22.0204 16.4175 22.243 16.2127 22.4763 16.1668C22.5067 16.5362 22.3047 16.8998 22.002 17.206C22.002 17.206 23.0022 17.0495 22.8879 16.5016C22.8607 16.3681 22.6997 16.2955 22.619 16.1701C22.3748 15.7931 22.3912 15.494 22.512 15.1528C22.5535 15.1678 22.592 15.3324 22.6098 15.3887C22.6495 15.1894 22.7179 15.0571 22.7756 15.0174C22.7756 15.0174 22.8671 15.102 22.8976 15.2976C22.9344 15.0926 23.0138 14.8201 23.2623 14.7022C23.3057 14.7497 23.3151 14.8957 23.3008 14.9994C23.3631 14.8551 23.4685 14.7128 23.5706 14.6773C23.595 14.747 23.5773 14.9097 23.5349 14.9704C23.6248 14.8512 23.7237 14.8399 23.7237 14.8399C23.7385 14.948 23.7108 15.0043 23.6864 15.0649C23.7341 15.0276 23.9135 14.978 24.0382 14.9999C23.8247 15.1622 23.8413 15.4177 24.1528 15.3946C24.023 15.5798 23.8697 15.687 23.6914 15.7283C23.9199 15.7585 24.1187 15.8553 24.1989 15.9344C24.1613 16.0195 23.9743 16.183 23.7915 16.2019C23.9935 16.3442 24.3931 16.2611 24.4219 15.9107C24.9135 16.2127 24.6532 16.8572 25.2538 17.0269C24.9626 16.3476 25.2538 16.1581 25.0864 15.4802C25.168 15.4899 25.317 15.5521 25.3802 15.7237C25.4044 15.6522 25.447 15.5971 25.4643 15.5039C25.744 15.8618 25.9783 16.2381 25.901 16.9725C25.8847 17.1371 26.065 17.1507 26.0479 16.9483C25.9903 16.3246 26.2651 15.7405 26.7339 15.5344C26.7604 15.619 26.7798 16.1715 26.6137 16.5581C26.5483 16.7066 26.8353 16.8655 26.8605 16.4039C26.8826 15.9861 27.1786 16.0064 27.2702 16.023C27.3371 15.8687 27.5351 15.749 27.7961 15.8159C27.566 15.6813 27.6382 15.4332 27.697 15.3499C27.8955 15.0615 28.2589 15.0771 28.7996 15.1267C28.3534 14.8367 28.1955 14.2095 28.448 14.0633C28.6919 13.9217 29.1429 14.2648 29.3036 14.8943C29.367 14.3082 29.6908 13.8572 29.9804 13.9423C30.2905 14.0368 30.0332 14.764 29.7726 15.0665C30.4784 14.9042 30.9027 15.0515 30.955 15.2646C31.0549 15.1299 31.1701 15.0322 31.332 15.0045C31.8838 14.9183 32.2983 15.305 32.6161 15.7832ZM29.0037 12.1309C28.777 11.5353 27.0345 11.1262 27.0345 11.1262C27.6502 10.9881 28.1761 10.7096 28.1761 10.7096C28.6825 10.7396 29.136 11.5002 29.3892 11.6326C29.4374 11.5233 29.7735 11.3033 29.7735 11.3033L29.8127 11.7751C30.0117 11.927 30.8508 11.6118 31.2391 11.9867C31.2391 11.9867 31.5418 12.6024 31.7879 13.2837C30.9541 12.6473 29.9871 12.1788 29.67 12.5597C29.5278 12.7541 29.569 13.1823 29.569 13.1823L28.5402 12.714C28.54 12.7144 29.0982 12.3771 29.0037 12.1309ZM36.4439 10.2136C36.7904 10.0409 37.1194 10.0997 37.1605 10.2839C37.2239 10.556 36.8146 10.5463 36.4741 10.3886C36.7872 10.5475 37.0168 10.8341 36.8227 10.9715C36.6426 11.1023 36.3768 10.9296 36.3055 10.4933C36.3221 10.8811 36.104 11.1274 35.9027 11.0257C35.7 10.9199 35.7625 10.6568 36.1144 10.3944C35.7461 10.6084 35.4344 10.5129 35.3917 10.3679C35.3193 10.1389 35.5326 9.98973 36.0936 10.2159C35.6933 10.0137 35.5804 9.74117 35.7295 9.64156C35.9004 9.52996 36.1628 9.76123 36.2608 10.1133C36.2246 9.88597 36.425 9.51198 36.6747 9.64617C36.8347 9.73148 36.8312 10.01 36.4439 10.2136ZM14.6985 13.794C15.9761 14.5789 16.3271 13.9598 17.0661 14.4903C16.9803 14.0195 16.367 13.5973 16.2295 13.473C17.5185 13.8212 17.6808 13.931 17.5743 14.6307C17.5012 15.124 18.1606 14.3649 18.7384 14.7668C18.3857 14.8092 18.3529 15.0121 18.0075 15.3144C17.3079 15.883 16.8337 15.4767 16.5049 16.0188L16.2429 15.6972C16.2429 15.6972 16.9224 15.3582 16.9035 15.1263C16.8841 14.8952 15.3642 15.4961 14.6985 13.794Z" fill="url(#paint0_linear_538_13769)"/>
<path d="M27.7261 39.1398C27.7261 40.1949 27.2416 41.3086 26.0597 41.3086C24.7374 41.3086 24.2741 40.1949 24.2741 39.1398C24.2741 38.0861 24.7374 36.971 26.0597 36.971C27.2416 36.9706 27.7261 38.0856 27.7261 39.1398ZM23.6546 41.6833H24.2248V40.7177H24.2439C24.5317 41.4089 25.2416 41.8323 26.0599 41.8323C27.6078 41.8323 28.3466 40.5798 28.3466 39.1401C28.3466 37.7013 27.6076 36.4488 26.0599 36.4488C25.3004 36.4488 24.561 36.8334 24.2951 37.5629H24.2744V34.6448H23.6546V41.6833ZM32.555 39.7119C32.555 40.527 31.8836 41.2678 30.7902 41.2678C30.208 41.2678 29.647 40.9035 29.647 40.3045C29.647 39.1147 30.5774 39.0287 31.6323 38.8417C31.9779 38.7808 32.4633 38.6102 32.5121 38.5332H32.5329L32.555 39.7119ZM29.3477 37.3561C29.3477 37.3561 30.1948 37.0089 31.2121 37.0089C31.9428 37.0089 32.4757 37.2281 32.4757 37.7163C32.4757 38.0753 32.1029 38.2099 30.9036 38.3858C29.7902 38.547 28.9783 39.0162 28.9783 40.1846C28.9783 41.2095 29.7939 41.832 30.7298 41.832C31.7074 41.832 32.2232 41.4025 32.5843 40.7963L32.5815 41.6835H33.1762L33.175 38.0856C33.175 36.7252 32.1988 36.449 31.3021 36.449C30.116 36.449 29.3588 36.8175 29.3588 36.8175L29.3477 37.3561ZM12.5005 41.6833H13.6236V38.6759C13.6236 37.9279 14.106 37.336 14.8577 37.336C15.5183 37.336 15.8325 37.6801 15.8521 38.4804V41.6833H16.9764V38.1846C16.9764 37.0407 16.2764 36.449 15.1733 36.449C14.503 36.449 13.9868 36.6782 13.643 37.067H13.6241V34.645H12.5007V41.6833H12.5005ZM18.136 37.4742H20.8934L18.074 40.8954V41.6833H22.56V40.7963H19.5845L22.4115 37.3755V36.5874H18.136V37.4742ZM34.181 41.6833H34.8036V38.717C34.8237 37.7213 35.4144 36.971 36.3987 36.971C37.4045 36.971 37.6909 37.6312 37.6909 38.5094V41.684H38.3129V38.411C38.3129 37.1991 37.8785 36.4497 36.4497 36.4497C35.7294 36.4497 35.0498 36.8631 34.8234 37.4746H34.8034V36.5973H34.1808L34.181 41.6833ZM39.2715 41.6833H39.8915V39.7527L40.8979 38.9143L42.9085 41.6833H43.687L41.3715 38.4806L43.5392 36.5968H42.7114L39.8915 39.0614V34.6445H39.2715V41.6833Z" fill="#727171"/>
</g>
<defs>
<linearGradient id="paint0_linear_538_13769" x1="28.2268" y1="6.99179" x2="27.7537" y2="34.0978" gradientUnits="userSpaceOnUse">
<stop stop-color="#5CAD35"/>
<stop offset="0.102" stop-color="#5CAD35"/>
<stop offset="0.48" stop-color="#219AD7"/>
<stop offset="1" stop-color="#054A97"/>
</linearGradient>
<clipPath id="clip0_538_13769">
<rect width="40" height="34.8316" fill="white" transform="translate(8 7)"/>
</clipPath>
</defs>
</svg>
