<svg width="48" height="48" viewBox="0 0 48 48" fill="none" xmlns="http://www.w3.org/2000/svg">
<g clip-path="url(#clip0_538_13770)">
<path d="M32.057 42.251C33.081 40.716 33.678 38.869 33.678 36.886C33.678 33.632 32.073 30.753 29.608 28.999C29.608 28.999 29.131 28.902 28.11 28.939C27.27 28.975 26.689 29.1 26.689 29.1C29.918 30.213 32.237 33.278 32.237 36.885C32.237 39.485 31.033 41.803 29.151 43.313L29.117 43.342C30.107 43.081 31.065 42.747 31.988 42.345L32.057 42.251ZM18.461 38.148C18.031 38.373 17.589 38.573 17.135 38.754L17.139 38.771C17.965 41.787 20.726 44.002 24.004 44.002C27.933 44.002 31.12 40.815 31.12 36.885C31.12 32.955 27.933 29.769 24.004 29.769C23.702 29.769 23.404 29.788 23.11 29.825C23.11 29.825 22.589 29.877 21.903 30.088C21.413 30.239 20.837 30.491 20.315 30.763C19.027 31.433 17.955 32.381 17.955 32.381C16.096 33.9 13.722 34.809 11.135 34.809C9.508 34.809 7.963 34.449 6.578 33.803L6.568 33.806C6.96 34.501 7.392 35.17 7.86 35.811L7.934 35.828C8.955 36.104 10.027 36.252 11.134 36.252C13.738 36.252 16.151 35.438 18.135 34.051C18.135 34.051 18.414 33.852 18.8 33.543C19.371 33.087 20.213 32.418 21.036 32.013C21.499 31.784 21.997 31.555 22.439 31.436C23.315 31.2 24.003 31.213 24.003 31.213C27.136 31.213 29.677 33.754 29.677 36.887C29.677 40.022 27.136 42.563 24.003 42.563C21.301 42.563 19.04 40.673 18.467 38.143L18.461 38.148ZM24.009 34.888C22.905 34.888 22.009 35.784 22.009 36.889C22.009 37.994 22.905 38.888 24.009 38.888C25.114 38.888 26.009 37.993 26.009 36.889C26.009 35.785 25.114 34.888 24.009 34.888ZM24.007 37.445C23.698 37.445 23.448 37.196 23.448 36.888C23.448 36.579 23.698 36.328 24.007 36.328C24.314 36.328 24.566 36.579 24.566 36.888C24.566 37.196 24.314 37.445 24.007 37.445ZM21.467 38.695C21.101 38.184 20.886 37.558 20.886 36.882L20.902 36.564L20.904 36.541C20.246 37.008 19.494 37.553 19.494 37.553C19.816 39.754 21.713 41.446 24.004 41.446C26.521 41.446 28.562 39.404 28.562 36.886C28.562 34.368 26.521 32.327 24.004 32.327L23.666 32.34C23.666 32.34 23.275 32.357 22.772 32.498C22.361 32.612 21.873 32.828 21.482 33.042C20.918 33.351 19.863 34.159 19.168 34.681C18.785 34.97 18.495 35.158 18.495 35.158C16.385 36.554 13.855 37.368 11.135 37.368C10.411 37.368 9.701 37.31 9.009 37.199L8.977 37.2C9.467 37.758 9.988 38.288 10.536 38.788L10.54 38.797L11.136 38.809C13.996 38.809 16.668 37.997 18.93 36.591C18.93 36.591 19.275 36.381 19.706 36.07C20.558 35.456 21.856 34.49 22.253 34.271C22.526 34.121 22.918 33.956 23.26 33.873C23.667 33.773 24.005 33.769 24.005 33.769C25.726 33.769 27.121 35.165 27.121 36.885C27.121 38.608 25.726 40.002 24.005 40.002C22.963 40.002 22.041 39.491 21.474 38.706L21.467 38.695ZM16.59 40.462C16.389 40.044 16.219 39.597 16.09 39.146L16.025 39.167C14.474 39.677 12.716 39.875 11.898 39.921L11.893 39.926C12.474 40.368 13.078 40.78 13.706 41.155L13.754 41.161C14.093 41.16 14.548 41.051 15.176 40.904C15.933 40.727 16.365 40.557 16.583 40.466L16.59 40.462ZM17.918 42.427C17.583 42.059 17.282 41.661 17.018 41.239L17 41.241C16.56 41.41 15.918 41.597 14.751 41.722L14.708 41.72C15.457 42.115 16.235 42.463 17.037 42.76L17.059 42.756C17.488 42.644 17.808 42.488 17.914 42.434L17.918 42.427ZM42.248 15.932C40.714 14.907 38.868 14.31 36.885 14.31C33.63 14.31 30.75 15.917 28.998 18.381C28.998 18.381 28.899 18.858 28.937 19.88C28.972 20.719 29.098 21.301 29.098 21.301C30.21 18.072 33.276 15.752 36.884 15.752C39.483 15.752 41.801 16.957 43.31 18.838L43.34 18.873C43.079 17.883 42.744 16.925 42.342 16.002L42.248 15.932ZM38.146 29.528C38.37 29.958 38.572 30.401 38.752 30.855L38.769 30.848C41.784 30.023 43.999 27.262 43.999 23.984C43.999 20.053 40.813 16.868 36.884 16.868C32.953 16.868 29.767 20.054 29.767 23.984C29.767 24.286 29.787 24.584 29.822 24.877C29.822 24.877 29.875 25.398 30.085 26.085C30.235 26.574 30.488 27.15 30.762 27.673C31.431 28.96 32.38 30.032 32.38 30.032C33.896 31.891 34.806 34.266 34.806 36.853C34.806 38.481 34.447 40.024 33.8 41.409L33.804 41.42C34.499 41.028 35.168 40.597 35.809 40.128L35.827 40.054C36.101 39.033 36.249 37.961 36.249 36.854C36.249 34.25 35.436 31.835 34.048 29.852C34.048 29.852 33.85 29.574 33.541 29.187C33.085 28.616 32.416 27.774 32.011 26.952C31.783 26.488 31.552 25.991 31.433 25.549C31.198 24.673 31.21 23.985 31.21 23.985C31.21 20.851 33.751 18.31 36.886 18.31C40.02 18.31 42.56 20.851 42.56 23.985C42.56 26.688 40.671 28.949 38.141 29.521L38.146 29.528ZM36.886 21.979C35.782 21.979 34.886 22.875 34.886 23.979C34.886 25.083 35.782 25.979 36.886 25.979C37.99 25.979 38.887 25.083 38.887 23.979C38.887 22.875 37.99 21.979 36.886 21.979ZM36.886 24.541C36.577 24.541 36.327 24.291 36.327 23.982C36.327 23.673 36.577 23.423 36.886 23.423C37.195 23.423 37.445 23.673 37.445 23.982C37.445 24.291 37.194 24.541 36.886 24.541ZM38.692 26.523C38.182 26.887 37.556 27.103 36.88 27.103L36.562 27.086L36.538 27.084C37.006 27.741 37.551 28.494 37.551 28.494C39.751 28.171 41.444 26.275 41.444 23.984C41.444 21.467 39.401 19.426 36.885 19.426C34.366 19.426 32.326 21.467 32.326 23.984L32.338 24.322C32.338 24.322 32.354 24.712 32.495 25.216C32.609 25.626 32.824 26.114 33.039 26.506C33.349 27.069 34.157 28.125 34.679 28.82C34.967 29.203 35.155 29.493 35.155 29.493C36.551 31.602 37.366 34.133 37.366 36.853C37.366 37.577 37.308 38.287 37.196 38.978L37.199 39.011C37.758 38.521 38.287 38 38.786 37.451L38.796 37.447L38.808 36.852C38.808 33.991 37.995 31.321 36.59 29.057C36.59 29.057 36.379 28.711 36.069 28.282C35.456 27.428 34.49 26.131 34.272 25.734C34.121 25.461 33.956 25.069 33.873 24.727C33.773 24.319 33.769 23.982 33.769 23.982C33.769 22.26 35.164 20.865 36.886 20.865C38.607 20.865 40.002 22.26 40.002 23.982C40.002 25.024 39.491 25.946 38.706 26.512L38.692 26.523ZM40.46 31.398C40.042 31.6 39.595 31.769 39.145 31.899L39.166 31.963C39.675 33.516 39.873 35.273 39.918 36.092L39.923 36.097C40.365 35.517 40.777 34.912 41.154 34.284L41.159 34.236C41.159 33.898 41.049 33.442 40.903 32.814C40.726 32.058 40.555 31.626 40.465 31.407L40.46 31.398ZM42.424 30.07C42.058 30.405 41.659 30.707 41.236 30.97L41.239 30.989C41.408 31.429 41.595 32.071 41.72 33.237L41.718 33.281C42.112 32.532 42.46 31.755 42.759 30.952L42.754 30.931C42.642 30.501 42.486 30.183 42.432 30.075L42.424 30.07ZM15.959 5.752C14.935 7.287 14.337 9.132 14.337 11.116C14.337 14.371 15.943 17.25 18.407 19.003C18.407 19.003 18.885 19.1 19.907 19.064C20.747 19.028 21.328 18.903 21.328 18.903C18.099 17.79 15.779 14.724 15.779 11.116C15.779 8.516 16.984 6.198 18.866 4.689L18.899 4.659C17.91 4.92 16.951 5.255 16.028 5.657L15.959 5.752ZM29.556 9.854C29.985 9.631 30.427 9.429 30.882 9.248L30.876 9.231C30.05 6.216 27.29 4 24.012 4C20.082 4 16.895 7.186 16.895 11.116C16.895 15.047 20.082 18.233 24.012 18.233C24.314 18.233 24.612 18.214 24.905 18.178C24.905 18.178 25.426 18.125 26.112 17.915C26.602 17.765 27.178 17.511 27.701 17.24C28.988 16.57 30.061 15.623 30.061 15.623C31.918 14.105 34.293 13.195 36.879 13.195C38.508 13.195 40.052 13.555 41.437 14.201L41.448 14.197C41.055 13.502 40.625 12.833 40.156 12.193L40.081 12.176C39.061 11.9 37.988 11.753 36.88 11.753C34.277 11.753 31.863 12.566 29.88 13.953C29.88 13.953 29.601 14.152 29.215 14.46C28.644 14.917 27.802 15.585 26.98 15.99C26.517 16.219 26.018 16.45 25.577 16.569C24.701 16.805 24.014 16.792 24.014 16.792C20.878 16.792 18.338 14.251 18.338 11.117C18.338 7.983 20.879 5.443 24.014 5.443C26.717 5.443 28.976 7.331 29.548 9.86L29.556 9.854ZM24.008 9.113C22.903 9.113 22.007 10.01 22.007 11.114C22.007 12.218 22.903 13.114 24.008 13.114C25.112 13.114 26.007 12.218 26.007 11.114C26.007 10.011 25.112 9.113 24.008 9.113ZM24.01 11.673C23.702 11.673 23.451 11.422 23.451 11.115C23.451 10.806 23.702 10.556 24.01 10.556C24.318 10.556 24.567 10.806 24.567 11.115C24.567 11.422 24.318 11.673 24.01 11.673ZM26.55 9.308C26.916 9.818 27.131 10.443 27.131 11.12L27.114 11.439L27.112 11.462C27.768 10.995 28.522 10.45 28.522 10.45C28.199 8.248 26.303 6.558 24.012 6.558C21.494 6.558 19.453 8.599 19.453 11.116C19.453 13.634 21.494 15.676 24.012 15.676L24.349 15.663C24.349 15.663 24.74 15.647 25.244 15.505C25.655 15.39 26.143 15.175 26.535 14.962C27.098 14.653 28.152 13.844 28.848 13.322C29.231 13.034 29.521 12.846 29.521 12.846C31.631 11.45 34.162 10.637 36.88 10.637C37.605 10.637 38.315 10.694 39.008 10.804L39.039 10.803C38.549 10.246 38.028 9.716 37.479 9.216L37.475 9.207L36.879 9.195C34.02 9.195 31.349 10.007 29.085 11.413C29.085 11.413 28.74 11.624 28.31 11.934C27.457 12.548 26.16 13.513 25.763 13.732C25.49 13.882 25.097 14.047 24.755 14.131C24.349 14.23 24.011 14.234 24.011 14.234C22.289 14.234 20.894 12.839 20.894 11.117C20.896 9.395 22.291 8 24.012 8C25.054 8 25.975 8.511 26.542 9.295L26.55 9.308ZM31.426 7.541C31.628 7.958 31.797 8.405 31.927 8.857L31.991 8.836C33.543 8.327 35.301 8.129 36.119 8.083L36.124 8.077C35.544 7.636 34.939 7.224 34.312 6.847L34.263 6.843C33.924 6.843 33.469 6.954 32.841 7.099C32.085 7.275 31.653 7.447 31.434 7.537L31.426 7.541ZM30.099 5.577C30.432 5.943 30.734 6.342 30.998 6.765L31.017 6.763C31.457 6.594 32.098 6.406 33.265 6.281L33.308 6.284C32.559 5.889 31.782 5.541 30.98 5.243L30.959 5.247C30.529 5.359 30.21 5.514 30.104 5.569L30.099 5.577ZM5.752 32.059C7.287 33.084 9.132 33.682 11.116 33.682C14.37 33.682 17.249 32.076 19.003 29.611C19.003 29.611 19.1 29.133 19.063 28.112C19.027 27.272 18.901 26.691 18.901 26.691C17.788 29.92 14.723 32.24 11.115 32.24C8.515 32.24 6.197 31.036 4.687 29.153L4.66 29.119C4.921 30.107 5.255 31.066 5.658 31.989L5.752 32.059ZM9.854 18.463C9.631 18.033 9.429 17.59 9.248 17.136L9.231 17.141C6.216 17.968 4 20.728 4 24.006C4 27.936 7.187 31.123 11.117 31.123C15.047 31.123 18.233 27.936 18.233 24.006C18.233 23.703 18.214 23.405 18.178 23.112C18.178 23.112 18.125 22.59 17.914 21.905C17.765 21.414 17.512 20.839 17.24 20.317C16.569 19.029 15.621 17.957 15.621 17.957C14.103 16.098 13.193 13.724 13.193 11.137C13.193 9.508 13.553 7.964 14.199 6.58L14.197 6.57C13.501 6.962 12.833 7.394 12.192 7.863L12.175 7.937C11.899 8.957 11.752 10.03 11.752 11.138C11.752 13.741 12.566 16.155 13.953 18.138C13.953 18.138 14.152 18.416 14.461 18.804C14.917 19.375 15.585 20.216 15.991 21.039C16.219 21.502 16.45 22.001 16.569 22.442C16.805 23.317 16.792 24.006 16.792 24.006C16.792 27.14 14.251 29.68 11.117 29.68C7.983 29.68 5.442 27.14 5.442 24.006C5.442 21.303 7.331 19.042 9.86 18.47L9.854 18.463ZM11.115 22.01C10.011 22.01 9.114 22.906 9.114 24.01C9.114 25.114 10.01 26.01 11.115 26.01C12.22 26.01 13.115 25.114 13.115 24.01C13.115 22.906 12.219 22.01 11.115 22.01ZM11.115 24.567C10.806 24.567 10.557 24.317 10.557 24.009C10.557 23.7 10.806 23.45 11.115 23.45C11.423 23.45 11.673 23.7 11.673 24.009C11.673 24.317 11.422 24.567 11.115 24.567ZM9.308 21.469C9.818 21.103 10.444 20.887 11.12 20.887L11.438 20.904L11.462 20.905C10.995 20.248 10.45 19.496 10.45 19.496C8.249 19.818 6.558 21.714 6.558 24.006C6.558 26.523 8.6 28.564 11.117 28.564C13.634 28.564 15.675 26.523 15.675 24.006L15.663 23.668C15.663 23.668 15.646 23.277 15.505 22.773C15.39 22.363 15.174 21.874 14.961 21.484C14.653 20.92 13.844 19.865 13.321 19.169C13.033 18.786 12.846 18.497 12.846 18.497C11.449 16.387 10.636 13.856 10.636 11.137C10.636 10.413 10.693 9.703 10.804 9.01L10.802 8.979C10.244 9.468 9.714 9.989 9.214 10.538L9.206 10.542L9.194 11.138C9.194 13.998 10.006 16.669 11.412 18.932C11.412 18.932 11.622 19.277 11.933 19.708C12.547 20.56 13.512 21.858 13.732 22.255C13.882 22.527 14.047 22.919 14.13 23.262C14.23 23.669 14.234 24.006 14.234 24.006C14.234 25.726 12.838 27.122 11.117 27.122C9.395 27.122 8 25.727 8 24.006C8 22.964 8.511 22.042 9.295 21.476L9.308 21.469ZM7.541 16.592C7.958 16.391 8.405 16.221 8.856 16.092L8.836 16.027C8.327 14.476 8.128 12.719 8.083 11.899L8.078 11.894C7.636 12.474 7.224 13.079 6.847 13.706L6.843 13.753C6.843 14.092 6.953 14.548 7.099 15.174C7.275 15.931 7.446 16.363 7.537 16.582L7.541 16.592ZM5.576 17.92C5.942 17.586 6.341 17.284 6.764 17.02L6.761 17C6.593 16.562 6.405 15.919 6.28 14.752L6.282 14.709C5.888 15.458 5.54 16.236 5.241 17.038L5.245 17.06C5.357 17.49 5.512 17.809 5.568 17.915L5.576 17.92Z" fill="#DF3635"/>
</g>
<defs>
<clipPath id="clip0_538_13770">
<rect width="40" height="40.003" fill="white" transform="translate(4 4)"/>
</clipPath>
</defs>
</svg>
