<svg width="48" height="48" viewBox="0 0 48 48" fill="none" xmlns="http://www.w3.org/2000/svg">
<g clip-path="url(#clip0_538_13771)">
<path fill-rule="evenodd" clip-rule="evenodd" d="M23.2689 16.297V13.2208H13.2861V22.446H19.4042V25.5222H13.2861V34.7422H23.2689V31.673H16.357V28.5967H22.5016V19.368H16.357V16.2979H23.2689V16.297ZM4 24C4 12.9483 12.9465 4 24 4C35.0482 4 44.0044 12.9483 44.0044 24C44.0044 35.0456 35.0482 44.0009 24 44.0009C12.9465 44 4 35.0456 4 24H4ZM7.09653 24C7.09653 14.669 14.6663 7.093 24.0009 7.093C33.3328 7.093 40.9044 14.669 40.9044 24C40.9044 33.3328 33.3328 40.9026 24.0009 40.9026C14.6663 40.9017 7.09653 33.3319 7.09653 24ZM24.8176 31.6791V34.7483H34.7898V25.5302H28.6549V22.4592H34.7898V13.2305H24.8176V16.305H31.7118V19.3812H25.5681V28.6047H31.7118V31.68H24.8176V31.6791Z" fill="#C7000B"/>
</g>
<defs>
<clipPath id="clip0_538_13771">
<rect width="40.0044" height="40" fill="white" transform="translate(4 4)"/>
</clipPath>
</defs>
</svg>
