<svg width="48" height="48" viewBox="0 0 48 48" fill="none" xmlns="http://www.w3.org/2000/svg">
<g clip-path="url(#clip0_538_13772)">
<path d="M40.4394 6H26.6772C26.4942 6.02702 26.3494 6.17692 26.3494 6.36352C26.3494 6.45223 26.3845 6.52718 26.4365 6.5904L26.5013 6.65464L41.2128 21.3682L41.2755 21.4289C41.3357 21.4798 41.4132 21.515 41.5014 21.515C41.6987 21.515 41.8521 21.359 41.871 21.1668V7.41328C41.8297 6.64444 41.2133 6.03008 40.4394 6V6ZM11.7791 34.1239H6.36607C6.17386 34.1265 6.02753 34.2728 6.00612 34.4553V39.9346C6.03059 40.1207 6.1815 40.267 6.37524 40.267C6.45682 40.267 6.53228 40.2354 6.5904 40.1865L6.66891 40.1105L11.9901 34.7924L12.0666 34.7174C12.1145 34.6511 12.1482 34.5803 12.1482 34.4987C12.1482 34.2912 11.9805 34.1296 11.7791 34.1239ZM6 8.10208V13.5166C6.00969 13.7053 6.15244 13.8551 6.33191 13.8766H11.8142C12.0034 13.8551 12.1513 13.7007 12.1513 13.5085C12.1513 13.4248 12.1171 13.3504 12.0681 13.2913L11.9927 13.2107L6.67197 7.89254L6.59652 7.81453C6.53177 7.76813 6.46141 7.7355 6.3783 7.7355C6.17233 7.7355 6.00969 7.9012 6 8.10208V8.10208ZM26.4432 41.4004L26.5013 41.3423L26.4432 41.4004ZM41.507 26.4789C41.4157 26.4789 41.3423 26.514 41.2791 26.565L41.2179 26.6252L26.5013 41.3423L26.4432 41.4004C26.3958 41.4631 26.356 41.5417 26.356 41.6242C26.356 41.8246 26.5079 41.9827 26.7047 41.9995H40.4567C41.2225 41.9567 41.8297 41.3494 41.8715 40.5877V26.8052C41.8455 26.6221 41.6992 26.4789 41.507 26.4789ZM31.7272 14.1916L31.5441 14.0137L24.0153 6.48231L23.9245 6.39054C23.6712 6.16009 23.3418 6.01631 22.9737 6H7.92823C7.74519 6.02396 7.60091 6.17692 7.60091 6.36607C7.60091 6.4507 7.63201 6.52055 7.67942 6.58428L7.7559 6.6628L23.3647 22.2701L23.4585 22.3644C23.5891 22.4756 23.7553 22.5424 23.9378 22.5424C24.1193 22.5424 24.287 22.4756 24.4176 22.3644L24.5083 22.2701L31.5518 15.2292L31.7241 15.0594C31.8098 14.9355 31.8653 14.7861 31.8653 14.623C31.8659 14.4619 31.8103 14.3135 31.7272 14.1916ZM22.2956 23.5126L22.2171 23.4325L14.4394 15.6574L14.3242 15.5407C14.1978 15.4408 14.0458 15.378 13.8766 15.3755H6.34414C6.16009 15.3923 6.02141 15.5351 6.00612 15.7176V32.2778C6.02141 32.4664 6.17233 32.6174 6.36301 32.624H13.8934C14.0484 32.6174 14.1901 32.5623 14.3084 32.4741L14.4532 32.3298L22.2222 24.5654L22.2915 24.4874C22.4067 24.3574 22.4827 24.1876 22.4827 24.0005C22.4822 23.8103 22.4067 23.6446 22.2956 23.5126ZM41.301 23.766L41.2444 23.713L33.9017 16.3666L33.7706 16.2376C33.6447 16.1377 33.4846 16.077 33.3113 16.077C33.142 16.077 32.988 16.1377 32.8621 16.2305L32.7163 16.3743L7.7559 41.3423L7.69778 41.3984C7.64526 41.4631 7.60855 41.5381 7.60855 41.6242C7.60855 41.8246 7.76355 41.9827 7.95423 41.9964H22.9895C23.3479 41.9781 23.6676 41.8379 23.9164 41.6135L24.0224 41.506L41.2439 24.285L41.3005 24.2299C41.3479 24.1657 41.3851 24.0882 41.3851 23.9995C41.3856 23.9098 41.3484 23.8287 41.301 23.766Z" fill="#C51729"/>
</g>
<defs>
<clipPath id="clip0_538_13772">
<rect width="35.8715" height="36" fill="white" transform="translate(6 6)"/>
</clipPath>
</defs>
</svg>
