<svg width="48" height="48" viewBox="0 0 48 48" fill="none" xmlns="http://www.w3.org/2000/svg">
<g clip-path="url(#clip0_538_13773)">
<path d="M25.1354 17.5698C24.9125 17.3473 24.7415 17.3319 24.4964 17.4469L19.4192 20.1921L17.774 14.6612C17.6769 14.4081 17.5499 14.2988 17.2341 14.2988H14.8565C14.5393 14.2988 14.413 14.4081 14.3181 14.6612H14.3166L12.6698 20.1921L7.59309 17.4469C7.34798 17.3363 7.17921 17.3473 6.95918 17.5698L5.27209 19.2495C5.04982 19.4745 5.0393 19.6468 5.15144 19.8874L7.89796 24.9646L2.35255 26.6228C2.107 26.7112 2.00246 26.8451 2.00246 27.1515H2V29.5309H2.00246C2.00246 29.8434 2.11214 29.9759 2.3671 30.0661L7.90065 31.7158L5.14898 36.7923H5.15144C5.0393 37.0392 5.04982 37.2073 5.27209 37.4322L6.95268 39.116V39.1124C7.17428 39.334 7.34798 39.3494 7.59309 39.2359V39.2377L12.6698 36.4903L14.3181 42.0203C14.413 42.2743 14.5393 42.3843 14.8565 42.3843V42.386H17.2366L17.2341 42.3843C17.5499 42.3843 17.6769 42.2743 17.774 42.0203L19.4192 36.4903L24.4964 39.2362C24.7417 39.3497 24.9125 39.3358 25.1354 39.1126L26.8156 37.4311C27.0336 37.2174 27.0486 37.0499 26.9517 36.8207L24.1928 31.7156L29.7233 30.0686V30.0659C29.9764 29.9759 30.0883 29.8434 30.0901 29.5379L30.0919 27.1515C30.0919 26.8381 29.9778 26.7076 29.7235 26.6132L24.1931 24.9646L26.9389 19.8874C27.054 19.6468 27.0412 19.4745 26.8129 19.2495H26.8203L25.1354 17.5698Z" fill="#F08300"/>
<path d="M16.5606 24.585C16.461 19.1753 16.3079 16.0469 16.0445 16.0469C15.781 16.0469 15.6342 19.1753 15.5285 24.585C15.4916 26.3419 15.0211 26.5369 13.7521 25.3165C9.85239 21.5697 7.53654 19.4586 7.34807 19.6469C7.16049 19.832 9.27063 22.1492 13.0229 26.0498C14.2372 27.3201 14.0404 27.788 12.2835 27.8224C6.87532 27.9254 3.74268 28.0774 3.74268 28.3408C3.74268 28.6036 6.87532 28.7514 12.2851 28.8561C14.0404 28.8939 14.2372 29.3629 13.0155 30.6312C9.26593 34.5289 7.1578 36.8517 7.34807 37.0379C7.5287 37.2268 9.84992 35.1145 13.7492 31.3636C15.0211 30.1495 15.4882 30.3433 15.5234 32.102C15.6252 37.5102 15.7727 40.6395 16.0407 40.6395C16.305 40.6395 16.4516 37.5104 16.5555 32.102C16.5967 30.3435 17.0647 30.1495 18.3339 31.3672C22.2307 35.1212 24.5493 37.2286 24.7368 37.0406C24.9253 36.8544 22.8147 34.5383 19.0612 30.6354C17.8482 29.3665 18.042 28.8966 19.8032 28.8633C25.2125 28.761 28.3411 28.6117 28.3411 28.3462C28.3411 28.0834 25.2125 27.933 19.8007 27.8291C18.0474 27.7913 17.8484 27.3208 19.067 26.0532C22.8244 22.1564 24.9282 19.8345 24.7402 19.6467C24.5569 19.4627 22.2388 21.5706 18.3375 25.3215C17.0647 26.5367 16.5967 26.3435 16.5606 24.585Z" fill="white"/>
<path d="M42.246 7.47992L42.2395 7.48216C42.0693 7.31339 41.9404 7.30219 41.7515 7.39106V7.38546L38.0691 9.0862L36.6578 5.27488C36.5853 5.08394 36.4857 5 36.2455 5H34.4438C34.2043 5 34.1089 5.08394 34.0335 5.27488H34.0317L32.6251 9.0862L28.9322 7.39106C28.7459 7.30689 28.6179 7.31339 28.4482 7.47992L27.1739 8.75738C27.0033 8.92503 26.9922 9.05643 27.083 9.24199L28.7775 12.9331L24.9606 14.3471C24.7755 14.4174 24.6929 14.5148 24.6929 14.7505V16.5548C24.6929 16.7939 24.7755 16.8902 24.9693 16.9633L28.7775 18.3717L27.0803 22.0642H27.083C26.9924 22.2504 27.0036 22.3796 27.1739 22.552L28.4482 23.8263V23.8211C28.6179 23.9957 28.7459 24.0015 28.9322 23.9165L28.9349 23.9189L32.6251 22.2171L34.0335 26.0309C34.1089 26.2218 34.2043 26.3075 34.4438 26.3075H36.2455C36.4857 26.3075 36.5853 26.2216 36.6578 26.0309L38.0691 22.2171L41.7515 23.9165C41.9404 24.0015 42.0693 23.9957 42.2395 23.8211V23.8263L43.5189 22.5468C43.6767 22.3847 43.6958 22.2581 43.615 22.0859L41.9129 18.3717L45.7206 16.9633C45.9098 16.8926 45.9955 16.7939 46.0004 16.5598V14.7505C46.0004 14.5125 45.9145 14.4143 45.7206 14.3404L41.9129 12.9358L43.6096 9.24199C43.6958 9.05643 43.687 8.92503 43.5133 8.75738H43.5187L42.246 7.47992Z" fill="#FABE00"/>
<path d="M35.7401 12.4325C35.6611 8.56457 35.5442 6.32617 35.3434 6.32617C35.1458 6.32617 35.0314 8.56457 34.9535 12.4336C34.926 13.6903 34.566 13.8279 33.6069 12.9583C30.6446 10.2769 28.8863 8.76804 28.7455 8.9019C28.6038 9.03508 30.2083 10.6895 33.0504 13.4792C33.9729 14.3875 33.8265 14.7249 32.4906 14.7482C28.3852 14.8213 26.0151 14.931 26.0151 15.1195C26.0151 15.3075 28.3852 15.4114 32.4906 15.4911C33.8265 15.5177 33.9729 15.8517 33.046 16.7591C30.1989 19.5459 28.5985 21.205 28.7449 21.3393C28.8861 21.4712 30.6441 19.963 33.6015 17.2793C34.5656 16.4122 34.9222 16.5534 34.9472 17.8092C35.0256 21.6747 35.1404 23.9175 35.3432 23.9175C35.5406 23.9175 35.6582 21.6747 35.7332 17.8092C35.7587 16.5534 36.1195 16.4122 37.0795 17.2834C40.0351 19.9699 41.7965 21.4754 41.9398 21.3393C42.079 21.205 40.4783 19.5506 37.6376 16.7591C36.71 15.8541 36.8595 15.5177 38.1943 15.4938C42.2986 15.4221 44.6704 15.3122 44.6704 15.1222C44.6704 14.9339 42.2986 14.8299 38.1943 14.754C36.8595 14.7278 36.71 14.3898 37.6394 13.4844C40.4868 10.6987 42.0837 9.03598 41.9396 8.90212C41.7985 8.76804 40.0418 10.2794 37.0811 12.9608C36.1197 13.8313 35.7643 13.6916 35.7401 12.4325Z" fill="white"/>
</g>
<defs>
<clipPath id="clip0_538_13773">
<rect width="44" height="37.386" fill="white" transform="translate(2 5)"/>
</clipPath>
</defs>
</svg>
