<svg width="48" height="48" viewBox="0 0 48 48" fill="none" xmlns="http://www.w3.org/2000/svg">
<g clip-path="url(#clip0_538_13777)">
<path fill-rule="evenodd" clip-rule="evenodd" d="M16.8207 4.24533C19.8631 3.56104 22.9036 4.3458 25.1934 6.13141C33.3519 6.67543 40.5588 12.51 42.4448 20.875C44.7404 31.058 38.3049 41.239 28.1201 43.5345C17.9391 45.8319 7.75998 39.3984 5.46446 29.2117C4.86925 26.5731 4.86167 23.9364 5.35262 21.4342L5.42465 21.7735C6.96384 28.5975 13.7841 32.908 20.608 31.3707C27.4339 29.8334 31.7444 23.0113 30.2052 16.1892C29.9456 15.0348 29.5342 13.9544 28.9997 12.9592C29.5342 17.9502 26.2416 22.6834 21.2317 23.8131C15.8426 25.0282 10.4574 21.6257 9.2423 16.2347C8.02725 10.8457 11.4317 5.46038 16.8207 4.24533Z" fill="#D80C18"/>
</g>
<defs>
<clipPath id="clip0_538_13777">
<rect width="37.9111" height="40" fill="white" transform="translate(5 4)"/>
</clipPath>
</defs>
</svg>
