<svg width="48" height="48" viewBox="0 0 48 48" fill="none" xmlns="http://www.w3.org/2000/svg">
<g clip-path="url(#clip0_538_13871)">
<path fill-rule="evenodd" clip-rule="evenodd" d="M23.8948 45.9994C31.5411 45.9994 37.7896 41.0014 37.7896 34.8557C37.7896 28.7226 31.5411 23.7246 23.8948 23.7246C16.2485 23.7246 10 28.7226 10 34.8557C10 41.0014 16.2478 45.9994 23.8948 45.9994Z" fill="#F1D350"/>
<path fill-rule="evenodd" clip-rule="evenodd" d="M23.8948 45.9994C31.5411 45.9994 37.7896 41.0014 37.7896 34.8557C37.7896 28.7226 31.5411 23.7246 23.8948 23.7246C16.2485 23.7246 10 28.7226 10 34.8557C10 41.0014 16.2478 45.9994 23.8948 45.9994Z" fill="url(#paint0_radial_538_13871)"/>
<path fill-rule="evenodd" clip-rule="evenodd" d="M23.8371 15.7802C22.8971 14.2441 21.6361 11.9973 21.6132 8.8557C21.5903 6.19623 22.5073 3.72018 23.6196 2C24.6631 3.27276 25.7518 6.39076 25.8553 7.98449C26.0158 9.74983 25.3968 13.6369 23.8371 15.7802Z" fill="url(#paint1_linear_538_13871)"/>
<path fill-rule="evenodd" clip-rule="evenodd" d="M29.3519 13.0293C32.3782 11.4127 34.0859 11.1834 37.2504 11.2751C36.2875 12.7084 35.2329 14.4619 32.4699 16.0556C29.6041 17.6264 27.0016 17.8328 24.479 17.9363C25.6608 16.2849 26.8182 14.4855 29.3519 13.0293Z" fill="url(#paint2_linear_538_13871)"/>
<path fill-rule="evenodd" clip-rule="evenodd" d="M24.4561 19.2655C25.5683 18.8986 27.8381 18.6812 29.718 19.4489C31.862 20.2284 33.2612 21.7874 34.1206 22.8649C32.8826 23.2547 30.8303 23.6444 28.6176 22.6815C26.4854 21.6609 25.4308 20.3541 24.4561 19.2655Z" fill="url(#paint3_linear_538_13871)"/>
<path fill-rule="evenodd" clip-rule="evenodd" d="M18.5066 13.0172C15.4803 11.4117 13.772 11.1713 10.6074 11.263C11.5703 12.7074 12.6249 14.4498 15.3879 16.0435C18.2537 17.6143 20.8562 17.8318 23.3781 17.9353C22.1985 16.2846 21.0403 14.4734 18.5066 13.0172Z" fill="url(#paint4_linear_538_13871)"/>
<path fill-rule="evenodd" clip-rule="evenodd" d="M23.1264 19.2769C22.0148 18.9101 19.7562 18.7037 17.8644 19.4603C15.7322 20.2398 14.3219 21.7995 13.4736 22.8881C14.7117 23.2661 16.7639 23.6676 18.9649 22.6929C21.0977 21.673 22.1634 20.3773 23.1264 19.2769Z" fill="url(#paint5_linear_538_13871)"/>
<path fill-rule="evenodd" clip-rule="evenodd" d="M23.9176 24.3672L18.9995 25.6052L23.8835 27.3706L28.8468 25.5934L23.9176 24.3672Z" fill="white"/>
<path fill-rule="evenodd" clip-rule="evenodd" d="M18.9995 25.6052L23.9176 24.3672L28.8468 25.5934L28.4 25.7546L23.9405 24.6423L19.4692 25.7768L18.9995 25.6052Z" fill="#F08300"/>
</g>
<defs>
<radialGradient id="paint0_radial_538_13871" cx="0" cy="0" r="1" gradientUnits="userSpaceOnUse" gradientTransform="translate(23.9622 23.6482) scale(26.2522 26.2522)">
<stop stop-color="#FDE72A"/>
<stop offset="0.21" stop-color="#F7BE1C"/>
<stop offset="0.485" stop-color="#F08D03"/>
<stop offset="1" stop-color="#EA5514"/>
</radialGradient>
<linearGradient id="paint1_linear_538_13871" x1="23.7461" y1="2" x2="23.7461" y2="15.7802" gradientUnits="userSpaceOnUse">
<stop stop-color="#197A3B"/>
<stop offset="0.167" stop-color="#29803C"/>
<stop offset="0.438" stop-color="#4A9041"/>
<stop offset="0.779" stop-color="#71AE4C"/>
<stop offset="1" stop-color="#8DC556"/>
</linearGradient>
<linearGradient id="paint2_linear_538_13871" x1="37.1149" y1="10.9611" x2="24.6332" y2="18.1669" gradientUnits="userSpaceOnUse">
<stop stop-color="#197A3B"/>
<stop offset="0.167" stop-color="#29803C"/>
<stop offset="0.438" stop-color="#4A9041"/>
<stop offset="0.779" stop-color="#71AE4C"/>
<stop offset="1" stop-color="#8DC556"/>
</linearGradient>
<linearGradient id="paint3_linear_538_13871" x1="32.7832" y1="24.5413" x2="25.7754" y2="17.5328" gradientUnits="userSpaceOnUse">
<stop stop-color="#197A3B"/>
<stop offset="0.167" stop-color="#29803C"/>
<stop offset="0.438" stop-color="#4A9041"/>
<stop offset="0.779" stop-color="#71AE4C"/>
<stop offset="1" stop-color="#8DC556"/>
</linearGradient>
<linearGradient id="paint4_linear_538_13871" x1="10.6102" y1="10.8719" x2="23.324" y2="18.2125" gradientUnits="userSpaceOnUse">
<stop stop-color="#197A3B"/>
<stop offset="0.167" stop-color="#29803C"/>
<stop offset="0.438" stop-color="#4A9041"/>
<stop offset="0.779" stop-color="#71AE4C"/>
<stop offset="1" stop-color="#8DC556"/>
</linearGradient>
<linearGradient id="paint5_linear_538_13871" x1="14.5039" y1="24.8584" x2="21.9738" y2="17.3893" gradientUnits="userSpaceOnUse">
<stop stop-color="#197A3B"/>
<stop offset="0.167" stop-color="#29803C"/>
<stop offset="0.438" stop-color="#4A9041"/>
<stop offset="0.779" stop-color="#71AE4C"/>
<stop offset="1" stop-color="#8DC556"/>
</linearGradient>
<clipPath id="clip0_538_13871">
<rect width="27.7896" height="44" fill="white" transform="translate(10 2)"/>
</clipPath>
</defs>
</svg>
