<svg width="48" height="48" viewBox="0 0 48 48" fill="none" xmlns="http://www.w3.org/2000/svg">
<g clip-path="url(#clip0_538_13774)">
<path d="M17.4832 17.4067H30.489V23.3527H43.9707C43.6311 12.6074 34.8151 4 23.9837 4C13.1549 4 4.34376 12.6074 4 23.3527H17.4832V17.4067Z" fill="#AE0B2A"/>
<path d="M31.0501 25.3945C31.9844 25.5878 32.5319 25.8222 32.5319 26.0728C32.5319 26.4449 31.3119 26.7817 29.3986 26.9982C32.2137 27.2469 34.0872 27.6838 34.0872 28.1775C34.0872 28.7186 31.8556 29.1896 28.5956 29.4208C30.2474 29.674 31.3036 30.0599 31.3036 30.4955C31.3036 31.2592 28.0286 31.8769 23.9848 31.8769C19.9413 31.8769 16.6679 31.2589 16.6679 30.4955C16.6679 30.0599 17.7222 29.674 19.3762 29.4208C16.1188 29.1896 13.8853 28.7189 13.8853 28.1775C13.8853 27.6838 15.7559 27.2469 18.5723 26.9982C16.6571 26.7814 15.4367 26.4449 15.4367 26.0728C15.4367 25.8222 15.9893 25.5878 16.9198 25.3945H4.03613C4.75331 35.7871 13.4086 43.9991 23.9851 43.9991C34.5613 43.9991 43.2172 35.7871 43.9319 25.3945H31.0501Z" fill="#AA7433"/>
</g>
<defs>
<clipPath id="clip0_538_13774">
<rect width="39.9707" height="40" fill="white" transform="translate(4 4)"/>
</clipPath>
</defs>
</svg>
