<svg width="48" height="48" viewBox="0 0 48 48" fill="none" xmlns="http://www.w3.org/2000/svg">
<g clip-path="url(#clip0_538_13778)">
<path d="M10.7564 10.9254L10.7582 8.70076C17.9651 9.05644 22.3103 14.6343 22.3103 20.6339H25.6897C25.6897 14.6352 30.0349 9.05644 37.2427 8.70076L37.2445 10.9254C39.3216 10.6367 40.8113 10.7027 40.8113 10.7027V5.03077C40.8113 5.03077 39.5569 5 39.0655 5C34.1067 5 27.5179 6.29332 24 12.8341C20.4803 6.29332 13.8942 5 8.93451 5C8.44397 5 7.18776 5.03077 7.18776 5.03077V10.7027C7.18776 10.7027 8.67838 10.6367 10.7564 10.9254ZM44.9375 12.5979C44.5402 12.5101 43.0939 12.225 41.1372 12.225C38.86 12.225 35.5159 12.6287 32.5319 14.5483C30.2005 16.0462 27.4799 19.3967 27.4799 23.9111V27.7584H20.5174V23.9111C20.5174 19.3976 17.7986 16.0471 15.4681 14.5483C12.4841 12.6287 9.13995 12.225 6.86194 12.225C4.90793 12.225 3.45804 12.5101 3.06163 12.5979C2.44891 12.7183 2 13.2667 2 13.8994C2 14.5664 2.57199 15.0452 2.67155 15.1248C5.32154 17.6472 6.84112 21.2384 6.84112 24.9781C6.84112 34.4413 14.5377 42.1415 24.0009 42.1415C33.4623 42.1415 41.1598 34.4413 41.1598 24.9781C41.1598 21.2384 42.6794 17.6472 45.3294 15.1248C45.4253 15.0452 45.9991 14.5655 45.9991 13.8994C46 13.2667 45.5511 12.7183 44.9375 12.5979ZM37.5749 24.9265C37.5622 32.4041 31.4793 38.4842 24 38.4842C16.5197 38.4842 10.436 32.4032 10.4242 24.9265C10.4242 24.9265 10.6396 20.3886 7.95977 16.0905C8.18603 16.0652 8.43763 16.048 8.84038 16.048C13.3059 16.048 16.9406 19.6166 16.9406 24.0043L16.9415 28.0173C16.9415 29.6138 18.2077 31.337 20.2585 31.337H27.7379C29.7869 31.337 31.0558 29.6138 31.0558 28.0173L31.0576 24.0043C31.0576 19.6166 34.6914 16.048 39.1569 16.048C39.5578 16.048 39.8113 16.0652 40.0366 16.0905C37.3595 20.3886 37.5749 24.9265 37.5749 24.9265Z" fill="#008236"/>
</g>
<defs>
<clipPath id="clip0_538_13778">
<rect width="44" height="37.1424" fill="white" transform="translate(2 5)"/>
</clipPath>
</defs>
</svg>
