<svg width="48" height="48" viewBox="0 0 48 48" fill="none" xmlns="http://www.w3.org/2000/svg">
<g clip-path="url(#clip0_538_13779)">
<path d="M31.1445 16.9961C28.9256 16.9961 26.8238 17.3391 24.9418 17.9535C27.8698 18.4071 30.1117 20.9401 30.1117 23.9968C30.1117 29.5574 23.5899 34.0636 15.5451 34.0636C13.0367 34.0636 10.6728 33.6252 8.61182 32.851C12.7607 37.9539 18.0078 42.1232 23.9965 45.0019C33.1631 40.5994 40.5961 33.1652 45.0001 23.9987C44.8828 23.756 44.762 23.5137 44.6416 23.2733C42.4758 19.5913 37.2495 16.9961 31.1445 16.9961Z" fill="#DFB329"/>
<path d="M16.8352 30.8994C18.9768 30.8994 21.0109 30.5807 22.8436 30.0064C20.0925 29.4805 17.9967 27.1212 17.8805 24.2478C17.8763 24.1683 17.8748 24.0857 17.8748 23.9983C17.8748 18.4366 24.3966 13.9296 32.4414 13.9296C34.9525 13.9296 37.3156 14.3703 39.377 15.1429C35.2296 10.0427 29.9817 5.87531 23.9968 3C14.8359 7.40137 7.40364 14.8299 3 23.9892C4.91523 28.0029 10.3861 30.8994 16.8352 30.8994Z" fill="#0C63AA"/>
</g>
<defs>
<clipPath id="clip0_538_13779">
<rect width="42" height="42.0023" fill="white" transform="translate(3 3)"/>
</clipPath>
</defs>
</svg>
