<svg width="48" height="48" viewBox="0 0 48 48" fill="none" xmlns="http://www.w3.org/2000/svg">
<g clip-path="url(#clip0_538_13775)">
<path d="M4.298 18.7363H6.86011C7.02105 18.7363 7.1581 18.8738 7.1581 19.0347V21.5969C7.1581 21.7574 7.02063 21.8949 6.86011 21.8949H4.298C4.13747 21.8949 4 21.757 4 21.5964V19.0343C4 18.8734 4.13747 18.7363 4.298 18.7363Z" fill="#E60012"/>
<path d="M4.298 22.4219H6.86011C7.02105 22.4219 7.1581 22.5577 7.1581 22.7186V25.282C7.1581 25.4417 7.02063 25.5804 6.86011 25.5804H4.298C4.13747 25.5804 4 25.4417 4 25.282V22.7186C4 22.5577 4.13747 22.4219 4.298 22.4219Z" fill="#EF857D"/>
<path d="M4.298 26.105H6.86011C7.02105 26.105 7.1581 26.2424 7.1581 26.4013V28.9651C7.1581 29.126 7.02063 29.2635 6.86011 29.2635H4.298C4.13747 29.2635 4 29.126 4 28.9651V26.4013C4 26.2424 4.13747 26.105 4.298 26.105ZM7.98336 11.3685H10.5438C10.7047 11.3685 10.8418 11.5064 10.8418 11.6653V14.2295C10.8418 14.3883 10.7043 14.5271 10.5438 14.5271H7.98336C7.82284 14.5271 7.68369 14.3883 7.68369 14.2295V11.6653C7.68369 11.5064 7.82284 11.3685 7.98336 11.3685ZM7.98336 15.0526H10.5438C10.7047 15.0526 10.8418 15.1901 10.8418 15.3502V17.9128C10.8418 18.0733 10.7043 18.2103 10.5438 18.2103H7.98336C7.82284 18.2103 7.68369 18.0729 7.68369 17.9128V15.3502C7.68369 15.1901 7.82284 15.0526 7.98336 15.0526ZM7.98336 18.7363H10.5438C10.7047 18.7363 10.8418 18.8738 10.8418 19.0347V21.5969C10.8418 21.7574 10.7043 21.8949 10.5438 21.8949H7.98336C7.82284 21.8949 7.68369 21.757 7.68369 21.5969V19.0347C7.68369 18.8734 7.82284 18.7363 7.98336 18.7363ZM7.98336 22.4213H10.5438C10.7047 22.4213 10.8418 22.5571 10.8418 22.718V25.2814C10.8418 25.4411 10.7043 25.5798 10.5438 25.5798H7.98336C7.82284 25.5798 7.68369 25.4411 7.68369 25.2814V22.718C7.68369 22.5571 7.82284 22.4213 7.98336 22.4213ZM7.98336 26.105H10.5438C10.7047 26.105 10.8418 26.2424 10.8418 26.4013V28.9651C10.8418 29.126 10.7043 29.2635 10.5438 29.2635H7.98336C7.82284 29.2635 7.68369 29.126 7.68369 28.9651V26.4013C7.68369 26.2424 7.82284 26.105 7.98336 26.105ZM7.98336 29.7882H10.5438C10.7047 29.7882 10.8418 29.9261 10.8418 30.0866V32.6509C10.8418 32.8097 10.7043 32.9468 10.5438 32.9468H7.98336C7.82284 32.9468 7.68369 32.8097 7.68369 32.6509V30.0866C7.68369 29.9261 7.82284 29.7882 7.98336 29.7882ZM7.98336 33.474H10.5438C10.7047 33.474 10.8418 33.6111 10.8418 33.7699V36.3341C10.8418 36.493 10.7043 36.6325 10.5438 36.6325H7.98336C7.82284 36.6325 7.68369 36.493 7.68369 36.3341V33.7699C7.68369 33.6111 7.82284 33.474 7.98336 33.474ZM11.6654 7.68359H14.2296C14.3901 7.68359 14.5259 7.82149 14.5259 7.98159V10.5437C14.5259 10.703 14.3901 10.8421 14.2296 10.8421H11.6654C11.5065 10.8421 11.3686 10.703 11.3686 10.5437V7.98159C11.3686 7.82149 11.5065 7.68359 11.6654 7.68359ZM11.6654 11.3685H14.2296C14.3901 11.3685 14.5259 11.5064 14.5259 11.6653V14.2295C14.5259 14.3883 14.3901 14.5271 14.2296 14.5271H11.6654C11.5065 14.5271 11.3686 14.3883 11.3686 14.2295V11.6653C11.3686 11.5064 11.5065 11.3685 11.6654 11.3685ZM11.6654 15.0526H14.2296C14.3901 15.0526 14.5259 15.1901 14.5259 15.3502V17.9128C14.5259 18.0733 14.3901 18.2103 14.2296 18.2103H11.6654C11.5065 18.2103 11.3686 18.0729 11.3686 17.9128V15.3502C11.3686 15.1901 11.5065 15.0526 11.6654 15.0526Z" fill="#E60012"/>
<path d="M11.6654 18.7363H14.2296C14.3901 18.7363 14.5259 18.8738 14.5259 19.0347V21.5969C14.5259 21.7574 14.3901 21.8949 14.2296 21.8949H11.6654C11.5065 21.8949 11.3687 21.757 11.3687 21.5969V19.0347C11.3687 18.8734 11.5065 18.7363 11.6654 18.7363Z" fill="#F08300"/>
<path d="M11.6654 22.4219H14.2296C14.3901 22.4219 14.5259 22.5577 14.5259 22.7186V25.282C14.5259 25.4417 14.3901 25.5804 14.2296 25.5804H11.6654C11.5065 25.5804 11.3687 25.4417 11.3687 25.282V22.7186C11.3687 22.5577 11.5065 22.4219 11.6654 22.4219Z" fill="#E60012"/>
<path d="M11.6654 26.1055H14.2296C14.3901 26.1055 14.5259 26.2429 14.5259 26.4018V28.9656C14.5259 29.1265 14.3901 29.264 14.2296 29.264H11.6654C11.5065 29.264 11.3687 29.1265 11.3687 28.9656V26.4018C11.3687 26.2429 11.5065 26.1055 11.6654 26.1055Z" fill="#D6007F"/>
<path d="M11.6654 29.7891H14.2296C14.3901 29.7891 14.5259 29.927 14.5259 30.0875V32.6517C14.5259 32.8105 14.3901 32.9476 14.2296 32.9476H11.6654C11.5065 32.9476 11.3687 32.8105 11.3687 32.6517V30.0875C11.3687 29.927 11.5065 29.7891 11.6654 29.7891Z" fill="#E60012"/>
<path d="M11.6654 33.4746H14.2296C14.3901 33.4746 14.5259 33.6117 14.5259 33.7705V36.3347C14.5259 36.4936 14.3901 36.6331 14.2296 36.6331H11.6654C11.5065 36.6331 11.3687 36.4936 11.3687 36.3347V33.7705C11.3687 33.6117 11.5065 33.4746 11.6654 33.4746Z" fill="#A40000"/>
<path d="M11.6654 37.1573H14.2296C14.3901 37.1573 14.5259 37.2948 14.5259 37.4557V40.0178C14.5259 40.1783 14.3901 40.3158 14.2296 40.3158H11.6654C11.5065 40.3158 11.3687 40.1783 11.3687 40.0178V37.4557C11.3687 37.2948 11.5065 37.1573 11.6654 37.1573ZM15.3503 7.68359H17.9145C18.0734 7.68359 18.2113 7.82149 18.2113 7.98159V10.5437C18.2113 10.703 18.0734 10.8421 17.9145 10.8421H15.3503C15.1898 10.8421 15.0528 10.703 15.0528 10.5437V7.98159C15.0528 7.82149 15.1898 7.68359 15.3503 7.68359Z" fill="#E60012"/>
<path d="M15.3503 11.3691H17.9145C18.0734 11.3691 18.2113 11.507 18.2113 11.6659V14.2301C18.2113 14.3889 18.0734 14.5277 17.9145 14.5277H15.3503C15.1898 14.5277 15.0527 14.3889 15.0527 14.2301V11.6659C15.0527 11.507 15.1898 11.3691 15.3503 11.3691Z" fill="#D6007F"/>
<path d="M15.3503 15.0527H17.9145C18.0734 15.0527 18.2113 15.1902 18.2113 15.3503V17.9128C18.2113 18.0734 18.0734 18.2104 17.9145 18.2104H15.3503C15.1898 18.2104 15.0527 18.0729 15.0527 17.9128V15.3503C15.0527 15.1902 15.1898 15.0527 15.3503 15.0527ZM15.3503 18.7364H17.9145C18.0734 18.7364 18.2113 18.8739 18.2113 19.0348V21.5969C18.2113 21.7575 18.0734 21.8949 17.9145 21.8949H15.3503C15.1898 21.8949 15.0527 21.7571 15.0527 21.5969V19.0348C15.0527 18.8735 15.1898 18.7364 15.3503 18.7364Z" fill="#E60012"/>
<path d="M15.3503 22.4219H17.9145C18.0734 22.4219 18.2113 22.5577 18.2113 22.7186V25.282C18.2113 25.4417 18.0734 25.5804 17.9145 25.5804H15.3503C15.1898 25.5804 15.0527 25.4417 15.0527 25.282V22.7186C15.0527 22.5577 15.1898 22.4219 15.3503 22.4219Z" fill="#EF857D"/>
<path d="M15.3503 26.1055H17.9145C18.0734 26.1055 18.2113 26.2429 18.2113 26.4018V28.9656C18.2113 29.1265 18.0734 29.264 17.9145 29.264H15.3503C15.1898 29.264 15.0527 29.1265 15.0527 28.9656V26.4018C15.0527 26.2429 15.1898 26.1055 15.3503 26.1055ZM15.3503 29.7887H17.9145C18.0734 29.7887 18.2113 29.9266 18.2113 30.0872V32.6514C18.2113 32.8102 18.0734 32.9473 17.9145 32.9473H15.3503C15.1898 32.9473 15.0527 32.8102 15.0527 32.6514V30.0872C15.0527 29.9266 15.1898 29.7887 15.3503 29.7887Z" fill="#E60012"/>
<path d="M15.3503 33.4746H17.9145C18.0734 33.4746 18.2113 33.6117 18.2113 33.7705V36.3347C18.2113 36.4936 18.0734 36.6331 17.9145 36.6331H15.3503C15.1898 36.6331 15.0527 36.4936 15.0527 36.3347V33.7705C15.0527 33.6117 15.1898 33.4746 15.3503 33.4746Z" fill="#F08300"/>
<path d="M15.3503 37.1574H17.9145C18.0734 37.1574 18.2113 37.2948 18.2113 37.4558V40.0179C18.2113 40.1784 18.0734 40.3159 17.9145 40.3159H15.3503C15.1898 40.3159 15.0527 40.1784 15.0527 40.0179V37.4558C15.0527 37.2948 15.1898 37.1574 15.3503 37.1574ZM19.0344 4H21.5965C21.7566 4 21.8962 4.13747 21.8962 4.29674V6.86053C21.8962 7.01979 21.7566 7.15727 21.5965 7.15727H19.0344C18.8751 7.15727 18.7377 7.01979 18.7377 6.86053V4.29674C18.7377 4.13747 18.8751 4 19.0344 4V4Z" fill="#E60012"/>
<path d="M19.0345 7.68359H21.5966C21.7567 7.68359 21.8963 7.82149 21.8963 7.98159V10.5437C21.8963 10.703 21.7567 10.8421 21.5966 10.8421H19.0345C18.8753 10.8421 18.7378 10.703 18.7378 10.5437V7.98159C18.7378 7.82149 18.8753 7.68359 19.0345 7.68359Z" fill="#EF857D"/>
<path d="M19.0345 11.3691H21.5966C21.7567 11.3691 21.8963 11.507 21.8963 11.6659V14.2301C21.8963 14.3889 21.7567 14.5277 21.5966 14.5277H19.0345C18.8753 14.5277 18.7378 14.3889 18.7378 14.2301V11.6659C18.7378 11.507 18.8753 11.3691 19.0345 11.3691Z" fill="#E60012"/>
<path d="M19.0345 15.0527H21.5966C21.7567 15.0527 21.8963 15.1902 21.8963 15.3503V17.9128C21.8963 18.0734 21.7567 18.2104 21.5966 18.2104H19.0345C18.8753 18.2104 18.7378 18.0729 18.7378 17.9128V15.3503C18.7378 15.1902 18.8753 15.0527 19.0345 15.0527Z" fill="#A40000"/>
<path d="M19.0345 29.7883H21.5966C21.7567 29.7883 21.8963 29.9262 21.8963 30.0867V32.6509C21.8963 32.8098 21.7567 32.9468 21.5966 32.9468H19.0345C18.8753 32.9468 18.7378 32.8098 18.7378 32.6509V30.0867C18.7378 29.9262 18.8753 29.7883 19.0345 29.7883ZM19.0345 33.4741H21.5966C21.7567 33.4741 21.8963 33.6112 21.8963 33.77V36.3342C21.8963 36.4931 21.7567 36.6326 21.5966 36.6326H19.0345C18.8753 36.6326 18.7378 36.4931 18.7378 36.3342V33.77C18.7378 33.6112 18.8753 33.4741 19.0345 33.4741ZM19.0345 37.1574H21.5966C21.7567 37.1574 21.8963 37.2948 21.8963 37.4558V40.0179C21.8963 40.1784 21.7567 40.3159 21.5966 40.3159H19.0345C18.8753 40.3159 18.7378 40.1784 18.7378 40.0179V37.4558C18.7378 37.2948 18.8753 37.1574 19.0345 37.1574ZM19.0345 40.8411H21.5966C21.7567 40.8411 21.8963 40.9781 21.8963 41.1395V43.7012C21.8963 43.8625 21.7567 43.9996 21.5966 43.9996H19.0345C18.8753 43.9996 18.7378 43.8625 18.7378 43.7012V41.1395C18.7378 40.9785 18.8753 40.8411 19.0345 40.8411ZM22.7182 4H25.2816C25.443 4 25.58 4.13747 25.58 4.29674V6.86053C25.58 7.01979 25.443 7.15727 25.2816 7.15727H22.7182C22.559 7.15727 22.4215 7.01979 22.4215 6.86053V4.29674C22.4215 4.13747 22.5585 4 22.7182 4V4ZM22.7182 7.68369H25.2816C25.443 7.68369 25.58 7.82158 25.58 7.98168V10.5438C25.58 10.7031 25.443 10.8422 25.2816 10.8422H22.7182C22.559 10.8422 22.4215 10.7031 22.4215 10.5438V7.98168C22.4215 7.82158 22.5585 7.68369 22.7182 7.68369Z" fill="#E60012"/>
<path d="M22.7181 11.3691H25.2815C25.4429 11.3691 25.5799 11.507 25.5799 11.6659V14.2301C25.5799 14.3889 25.4429 14.5277 25.2815 14.5277H22.7181C22.5589 14.5277 22.4214 14.3889 22.4214 14.2301V11.6659C22.4214 11.507 22.5584 11.3691 22.7181 11.3691Z" fill="#A40000"/>
<path d="M22.7181 15.0527H25.2815C25.4429 15.0527 25.5799 15.1902 25.5799 15.3503V17.9128C25.5799 18.0734 25.4429 18.2104 25.2815 18.2104H22.7181C22.5589 18.2104 22.4214 18.0729 22.4214 17.9128V15.3503C22.4214 15.1902 22.5584 15.0527 22.7181 15.0527Z" fill="#EF857D"/>
<path d="M22.7181 29.7891H25.2815C25.4429 29.7891 25.5799 29.927 25.5799 30.0875V32.6517C25.5799 32.8105 25.4429 32.9476 25.2815 32.9476H22.7181C22.5589 32.9476 22.4214 32.8105 22.4214 32.6517V30.0875C22.4214 29.927 22.5584 29.7891 22.7181 29.7891Z" fill="#A40000"/>
<path d="M22.7181 33.4746H25.2815C25.4429 33.4746 25.5799 33.6117 25.5799 33.7705V36.3347C25.5799 36.4936 25.4429 36.6331 25.2815 36.6331H22.7181C22.5589 36.6331 22.4214 36.4936 22.4214 36.3347V33.7705C22.4214 33.6117 22.5584 33.4746 22.7181 33.4746Z" fill="#E60012"/>
<path d="M22.7181 37.1582H25.2815C25.4429 37.1582 25.5799 37.2957 25.5799 37.4566V40.0187C25.5799 40.1793 25.4429 40.3167 25.2815 40.3167H22.7181C22.5589 40.3167 22.4214 40.1793 22.4214 40.0187V37.4566C22.4214 37.2957 22.5584 37.1582 22.7181 37.1582Z" fill="#EF857D"/>
<path d="M22.7181 40.8411H25.2815C25.4429 40.8411 25.5799 40.9781 25.5799 41.1395V43.7012C25.5799 43.8625 25.4429 43.9996 25.2815 43.9996H22.7181C22.5589 43.9996 22.4214 43.8625 22.4214 43.7012V41.1395C22.4214 40.9785 22.5584 40.8411 22.7181 40.8411ZM26.4031 4H28.9652C29.1265 4 29.2636 4.13747 29.2636 4.29674V6.86053C29.2636 7.01979 29.1265 7.15727 28.9652 7.15727H26.4031C26.2425 7.15727 26.1051 7.01979 26.1051 6.86053V4.29674C26.1051 4.13747 26.2425 4 26.4031 4V4Z" fill="#E60012"/>
<path d="M26.403 7.68359H28.9651C29.1264 7.68359 29.2635 7.82149 29.2635 7.98159V10.5437C29.2635 10.703 29.1264 10.8421 28.9651 10.8421H26.403C26.2425 10.8421 26.105 10.703 26.105 10.5437V7.98159C26.105 7.82149 26.2425 7.68359 26.403 7.68359Z" fill="#D6007F"/>
<path d="M26.403 11.3691H28.9651C29.1264 11.3691 29.2635 11.507 29.2635 11.6659V14.2301C29.2635 14.3889 29.1264 14.5277 28.9651 14.5277H26.403C26.2425 14.5277 26.105 14.3889 26.105 14.2301V11.6659C26.105 11.507 26.2425 11.3691 26.403 11.3691ZM26.403 15.0532H28.9651C29.1264 15.0532 29.2635 15.1907 29.2635 15.3508V17.9134C29.2635 18.0739 29.1264 18.2109 28.9651 18.2109H26.403C26.2425 18.2109 26.105 18.0735 26.105 17.9134V15.3508C26.105 15.1907 26.2425 15.0532 26.403 15.0532ZM26.403 29.7888H28.9651C29.1264 29.7888 29.2635 29.9267 29.2635 30.0872V32.6515C29.2635 32.8103 29.1264 32.9474 28.9651 32.9474H26.403C26.2425 32.9474 26.105 32.8103 26.105 32.6515V30.0872C26.105 29.9267 26.2425 29.7888 26.403 29.7888Z" fill="#E60012"/>
<path d="M26.403 33.4746H28.9651C29.1264 33.4746 29.2635 33.6117 29.2635 33.7705V36.3347C29.2635 36.4936 29.1264 36.6331 28.9651 36.6331H26.403C26.2425 36.6331 26.105 36.4936 26.105 36.3347V33.7705C26.105 33.6117 26.2425 33.4746 26.403 33.4746Z" fill="#D6007F"/>
<path d="M26.403 37.1582H28.9651C29.1264 37.1582 29.2635 37.2957 29.2635 37.4566V40.0187C29.2635 40.1793 29.1264 40.3167 28.9651 40.3167H26.403C26.2425 40.3167 26.105 40.1793 26.105 40.0187V37.4566C26.105 37.2957 26.2425 37.1582 26.403 37.1582Z" fill="#E60012"/>
<path d="M26.403 40.8418H28.9651C29.1264 40.8418 29.2635 40.9788 29.2635 41.1402V43.7019C29.2635 43.8633 29.1264 44.0003 28.9651 44.0003H26.403C26.2425 44.0003 26.105 43.8633 26.105 43.7019V41.1402C26.105 40.9793 26.2425 40.8418 26.403 40.8418Z" fill="#947F39"/>
<path d="M30.0882 7.68359H32.6508C32.8096 7.68359 32.9484 7.82149 32.9484 7.98159V10.5437C32.9484 10.703 32.8096 10.8421 32.6508 10.8421H30.0882C29.9277 10.8421 29.7886 10.703 29.7886 10.5437V7.98159C29.7886 7.82149 29.9277 7.68359 30.0882 7.68359ZM30.0882 11.3685H32.6508C32.8096 11.3685 32.9484 11.5064 32.9484 11.6653V14.2295C32.9484 14.3883 32.8096 14.5271 32.6508 14.5271H30.0882C29.9277 14.5271 29.7886 14.3883 29.7886 14.2295V11.6653C29.7886 11.5064 29.9277 11.3685 30.0882 11.3685Z" fill="#E60012"/>
<path d="M30.0882 15.0527H32.6508C32.8096 15.0527 32.9484 15.1902 32.9484 15.3503V17.9128C32.9484 18.0734 32.8096 18.2104 32.6508 18.2104H30.0882C29.9277 18.2104 29.7886 18.0729 29.7886 17.9128V15.3503C29.7886 15.1902 29.9277 15.0527 30.0882 15.0527Z" fill="#EF857D"/>
<path d="M30.0882 18.7363H32.6508C32.8096 18.7363 32.9484 18.8738 32.9484 19.0347V21.5969C32.9484 21.7574 32.8096 21.8949 32.6508 21.8949H30.0882C29.9277 21.8949 29.7886 21.757 29.7886 21.5969V19.0347C29.7886 18.8734 29.9277 18.7363 30.0882 18.7363ZM30.0882 22.4213H32.6508C32.8096 22.4213 32.9484 22.5571 32.9484 22.718V25.2814C32.9484 25.4411 32.8096 25.5798 32.6508 25.5798H30.0882C29.9277 25.5798 29.7886 25.4411 29.7886 25.2814V22.718C29.7886 22.5571 29.9277 22.4213 30.0882 22.4213ZM30.0882 26.105H32.6508C32.8096 26.105 32.9484 26.2424 32.9484 26.4013V28.9651C32.9484 29.126 32.8096 29.2635 32.6508 29.2635H30.0882C29.9277 29.2635 29.7886 29.126 29.7886 28.9651V26.4013C29.7886 26.2424 29.9277 26.105 30.0882 26.105ZM30.0882 29.7882H32.6508C32.8096 29.7882 32.9484 29.9261 32.9484 30.0866V32.6508C32.9484 32.8097 32.8096 32.9468 32.6508 32.9468H30.0882C29.9277 32.9468 29.7886 32.8097 29.7886 32.6508V30.0866C29.7886 29.9261 29.9277 29.7882 30.0882 29.7882Z" fill="#E60012"/>
<path d="M30.0882 33.4746H32.6508C32.8096 33.4746 32.9484 33.6117 32.9484 33.7705V36.3347C32.9484 36.4936 32.8096 36.6331 32.6508 36.6331H30.0882C29.9277 36.6331 29.7886 36.4936 29.7886 36.3347V33.7705C29.7886 33.6117 29.9277 33.4746 30.0882 33.4746Z" fill="#EF857D"/>
<path d="M30.0882 37.1573H32.6508C32.8096 37.1573 32.9484 37.2948 32.9484 37.4557V40.0178C32.9484 40.1783 32.8096 40.3158 32.6508 40.3158H30.0882C29.9277 40.3158 29.7886 40.1783 29.7886 40.0178V37.4557C29.7886 37.2948 29.9277 37.1573 30.0882 37.1573ZM33.7703 7.68359H36.334C36.4946 7.68359 36.6312 7.82149 36.6312 7.98159V10.5437C36.6312 10.703 36.4946 10.8421 36.334 10.8421H33.7703C33.6127 10.8421 33.4739 10.703 33.4739 10.5437V7.98159C33.4739 7.82149 33.6127 7.68359 33.7703 7.68359Z" fill="#E60012"/>
<path d="M33.7704 11.3691H36.3342C36.4948 11.3691 36.6314 11.507 36.6314 11.6659V14.2301C36.6314 14.3889 36.4948 14.5277 36.3342 14.5277H33.7704C33.6129 14.5277 33.4741 14.3889 33.4741 14.2301V11.6659C33.4741 11.507 33.6129 11.3691 33.7704 11.3691Z" fill="#D6007F"/>
<path d="M33.7704 15.0527H36.3342C36.4948 15.0527 36.6314 15.1902 36.6314 15.3503V17.9128C36.6314 18.0734 36.4948 18.2104 36.3342 18.2104H33.7704C33.6129 18.2104 33.4741 18.0729 33.4741 17.9128V15.3503C33.4741 15.1902 33.6129 15.0527 33.7704 15.0527ZM33.7704 18.7364H36.3342C36.4948 18.7364 36.6314 18.8739 36.6314 19.0348V21.5969C36.6314 21.7575 36.4948 21.8949 36.3342 21.8949H33.7704C33.6129 21.8949 33.4741 21.7571 33.4741 21.5969V19.0348C33.4741 18.8735 33.6129 18.7364 33.7704 18.7364ZM33.7704 22.4214H36.3342C36.4948 22.4214 36.6314 22.5572 36.6314 22.7181V25.2815C36.6314 25.4412 36.4948 25.5799 36.3342 25.5799H33.7704C33.6129 25.5799 33.4741 25.4412 33.4741 25.2815V22.7181C33.4741 22.5572 33.6129 22.4214 33.7704 22.4214Z" fill="#E60012"/>
<path d="M33.7704 26.1055H36.3342C36.4948 26.1055 36.6314 26.2429 36.6314 26.4018V28.9656C36.6314 29.1265 36.4948 29.264 36.3342 29.264H33.7704C33.6129 29.264 33.4741 29.1265 33.4741 28.9656V26.4018C33.4741 26.2429 33.6129 26.1055 33.7704 26.1055Z" fill="#D6007F"/>
<path d="M33.7704 29.7888H36.3342C36.4948 29.7888 36.6314 29.9267 36.6314 30.0872V32.6515C36.6314 32.8103 36.4948 32.9474 36.3342 32.9474H33.7704C33.6129 32.9474 33.4741 32.8103 33.4741 32.6515V30.0872C33.4741 29.9267 33.6129 29.7888 33.7704 29.7888ZM33.7704 33.4746H36.3342C36.4948 33.4746 36.6314 33.6117 36.6314 33.7705V36.3347C36.6314 36.4936 36.4948 36.6331 36.3342 36.6331H33.7704C33.6129 36.6331 33.4741 36.4936 33.4741 36.3347V33.7705C33.4741 33.6117 33.6129 33.4746 33.7704 33.4746ZM33.7704 37.1579H36.3342C36.4948 37.1579 36.6314 37.2954 36.6314 37.4563V40.0184C36.6314 40.1789 36.4948 40.3164 36.3342 40.3164H33.7704C33.6129 40.3164 33.4741 40.1789 33.4741 40.0184V37.4563C33.4741 37.2954 33.6129 37.1579 33.7704 37.1579ZM37.4558 11.3691H40.0196C40.1801 11.3691 40.3159 11.507 40.3159 11.6659V14.2301C40.3159 14.3889 40.1801 14.5277 40.0196 14.5277H37.4558C37.2965 14.5277 37.1578 14.3889 37.1578 14.2301V11.6659C37.1578 11.507 37.2965 11.3691 37.4558 11.3691ZM37.4558 15.0532H40.0196C40.1801 15.0532 40.3159 15.1907 40.3159 15.3508V17.9134C40.3159 18.0739 40.1801 18.2109 40.0196 18.2109H37.4558C37.2965 18.2109 37.1578 18.0735 37.1578 17.9134V15.3508C37.1578 15.1907 37.2965 15.0532 37.4558 15.0532Z" fill="#E60012"/>
<path d="M37.4557 18.7363H40.0195C40.18 18.7363 40.3158 18.8738 40.3158 19.0347V21.5969C40.3158 21.7574 40.18 21.8949 40.0195 21.8949H37.4557C37.2964 21.8949 37.1577 21.757 37.1577 21.5969V19.0347C37.1577 18.8734 37.2964 18.7363 37.4557 18.7363Z" fill="#F08300"/>
<path d="M37.4557 22.4219H40.0195C40.18 22.4219 40.3158 22.5577 40.3158 22.7186V25.282C40.3158 25.4417 40.18 25.5804 40.0195 25.5804H37.4557C37.2964 25.5804 37.1577 25.4417 37.1577 25.282V22.7186C37.1577 22.5577 37.2964 22.4219 37.4557 22.4219Z" fill="#E60012"/>
<path d="M37.4557 26.1055H40.0195C40.18 26.1055 40.3158 26.2429 40.3158 26.4018V28.9656C40.3158 29.1265 40.18 29.264 40.0195 29.264H37.4557C37.2964 29.264 37.1577 29.1265 37.1577 28.9656V26.4018C37.1577 26.2429 37.2964 26.1055 37.4557 26.1055Z" fill="#D6007F"/>
<path d="M37.4557 29.7891H40.0195C40.18 29.7891 40.3158 29.927 40.3158 30.0875V32.6517C40.3158 32.8105 40.18 32.9476 40.0195 32.9476H37.4557C37.2964 32.9476 37.1577 32.8105 37.1577 32.6517V30.0875C37.1577 29.927 37.2964 29.7891 37.4557 29.7891Z" fill="#E60012"/>
<path d="M37.4557 33.4746H40.0195C40.18 33.4746 40.3158 33.6117 40.3158 33.7705V36.3347C40.3158 36.4936 40.18 36.6331 40.0195 36.6331H37.4557C37.2964 36.6331 37.1577 36.4936 37.1577 36.3347V33.7705C37.1577 33.6117 37.2964 33.4746 37.4557 33.4746Z" fill="#F08300"/>
<path d="M41.1409 18.7363H43.703C43.8635 18.7363 43.9993 18.8738 43.9993 19.0347V21.5969C43.9993 21.7574 43.8635 21.8949 43.703 21.8949H41.1409C40.9795 21.8949 40.8408 21.757 40.8408 21.5969V19.0347C40.8408 18.8734 40.9795 18.7363 41.1409 18.7363Z" fill="#A40000"/>
<path d="M41.1409 22.4219H43.703C43.8635 22.4219 43.9993 22.5577 43.9993 22.7186V25.282C43.9993 25.4417 43.8635 25.5804 43.703 25.5804H41.1409C40.9795 25.5804 40.8408 25.4417 40.8408 25.282V22.7186C40.8408 22.5577 40.9795 22.4219 41.1409 22.4219Z" fill="#EF857D"/>
<path d="M41.1409 26.1055H43.703C43.8635 26.1055 43.9993 26.2429 43.9993 26.4018V28.9656C43.9993 29.1265 43.8635 29.264 43.703 29.264H41.1409C40.9795 29.264 40.8408 29.1265 40.8408 28.9656V26.4018C40.8408 26.2429 40.9795 26.1055 41.1409 26.1055Z" fill="#E60012"/>
</g>
<defs>
<clipPath id="clip0_538_13775">
<rect width="39.9996" height="40" fill="white" transform="translate(4 4)"/>
</clipPath>
</defs>
</svg>
