<svg width="48" height="48" viewBox="0 0 48 48" fill="none" xmlns="http://www.w3.org/2000/svg">
<g clip-path="url(#clip0_538_13870)">
<path d="M5.41123 30.7331C10.6031 39.5136 19.841 41.1543 27.0497 32.3743C31.8122 26.5757 35.496 22.3897 43.9088 22.9792C44.4316 32.4986 38.0391 41.4124 28.4474 43.4891C16.0049 46.1822 7.56018 37.6832 5.21083 30.8574C5.13246 30.6234 4.8453 29.763 5.41123 30.7331Z" fill="url(#paint0_linear_538_13870)"/>
<path d="M42.5272 17.2742C37.3353 8.48805 28.0958 6.84457 20.8921 15.6245C16.1268 21.4277 12.4452 25.6125 4.02961 25.0197C3.50902 15.5014 9.90103 6.58987 19.4927 4.50977C31.9363 1.82064 40.3799 10.3202 42.7242 17.1398C42.8082 17.3817 43.0948 18.232 42.5272 17.2742Z" fill="url(#paint1_linear_538_13870)"/>
<path d="M30.9485 24.0186C29.6783 24.0146 23.9687 29.7254 23.9637 30.9978C23.9681 29.7254 18.2529 24.0214 16.9839 24.0186C18.2529 24.0214 23.9637 18.305 23.9637 17.0332C23.9642 18.3056 29.6789 24.0146 30.9485 24.0186Z" fill="#AA8420"/>
</g>
<defs>
<linearGradient id="paint0_linear_538_13870" x1="39.0276" y1="33.5239" x2="20.5798" y2="33.3579" gradientUnits="userSpaceOnUse">
<stop stop-color="#AC1244"/>
<stop offset="0.037" stop-color="#AF1144"/>
<stop offset="0.459" stop-color="#C60241"/>
<stop offset="0.794" stop-color="#D30040"/>
<stop offset="1" stop-color="#D7003F"/>
</linearGradient>
<linearGradient id="paint1_linear_538_13870" x1="4.07868" y1="14.444" x2="42.8936" y2="14.7933" gradientUnits="userSpaceOnUse">
<stop stop-color="#F08300"/>
<stop offset="0.037" stop-color="#F08600"/>
<stop offset="0.459" stop-color="#F5A500"/>
<stop offset="0.794" stop-color="#F9B800"/>
<stop offset="1" stop-color="#FABE00"/>
</linearGradient>
<clipPath id="clip0_538_13870">
<rect width="39.939" height="40" fill="white" transform="translate(4 4)"/>
</clipPath>
</defs>
</svg>
