<svg width="48" height="48" viewBox="0 0 48 48" fill="none" xmlns="http://www.w3.org/2000/svg">
<g clip-path="url(#clip0_538_13781)">
<path d="M32.425 23.4512L22.998 32.8142C16.804 38.9682 9.11599 36.4052 6.56299 33.5492C6.56299 33.5492 7.85499 36.6842 11.965 39.8782C15.911 42.9412 23.483 45.4512 30.95 42.6342C40.455 39.0432 37.507 27.2092 32.425 23.4512Z" fill="url(#paint0_linear_538_13781)"/>
<path d="M25.6089 17.7274C26.8289 18.9324 26.0539 18.1734 32.2699 24.4164C39.0259 31.2014 35.0459 40.5244 29.1299 43.1954C29.1299 43.1954 35.2889 41.9264 39.8329 36.0154C43.3529 31.4364 44.7769 25.8764 43.5849 20.1834C42.4479 14.7444 32.0449 10.2344 25.6089 17.7274Z" fill="url(#paint1_linear_538_13781)"/>
<path d="M15.5741 24.4105L25.0011 15.0465C31.1971 8.89355 38.8831 11.4575 41.4381 14.3125C41.4381 14.3125 40.1461 11.1775 36.0351 7.98355C32.0901 4.91955 24.5191 2.41055 17.0501 5.23055C7.54513 8.81555 10.4931 20.6515 15.5741 24.4105Z" fill="url(#paint2_linear_538_13781)"/>
<path d="M22.3911 30.1311C21.1711 28.9281 21.9451 29.6861 15.7301 23.4441C8.97511 16.6581 12.9551 7.33506 18.8701 4.66406C18.8701 4.66406 12.7131 5.93106 8.16711 11.8441C4.64711 16.4241 3.22211 21.9831 4.41511 27.6761C5.55211 33.1141 15.9551 37.6251 22.3911 30.1311Z" fill="url(#paint3_linear_538_13781)"/>
</g>
<defs>
<linearGradient id="paint0_linear_538_13781" x1="6.56299" y1="33.6552" x2="37.172" y2="33.6552" gradientUnits="userSpaceOnUse">
<stop stop-color="#D0121B"/>
<stop offset="0.661" stop-color="#CC141D"/>
<stop offset="0.714" stop-color="#C3141C"/>
<stop offset="0.811" stop-color="#AA1219"/>
<stop offset="0.942" stop-color="#82070E"/>
<stop offset="1" stop-color="#6E0106"/>
</linearGradient>
<linearGradient id="paint1_linear_538_13781" x1="26.6719" y1="38.5524" x2="40.5499" y2="12.4794" gradientUnits="userSpaceOnUse">
<stop stop-color="#D0121B"/>
<stop offset="0.661" stop-color="#CC141D"/>
<stop offset="0.714" stop-color="#C3141C"/>
<stop offset="0.811" stop-color="#AA1219"/>
<stop offset="0.942" stop-color="#82070E"/>
<stop offset="1" stop-color="#6E0106"/>
</linearGradient>
<linearGradient id="paint2_linear_538_13781" x1="52.7851" y1="-4.17745" x2="8.75313" y2="21.7235" gradientUnits="userSpaceOnUse">
<stop offset="0.382" stop-color="#D9A43A"/>
<stop offset="0.456" stop-color="#DFB35B"/>
<stop offset="0.525" stop-color="#E9CD90"/>
<stop offset="0.82" stop-color="#BB7A2A"/>
<stop offset="0.955" stop-color="#A45600"/>
</linearGradient>
<linearGradient id="paint3_linear_538_13781" x1="5.22611" y1="-20.4409" x2="16.2101" y2="42.2961" gradientUnits="userSpaceOnUse">
<stop offset="0.382" stop-color="#D9A43A"/>
<stop offset="0.456" stop-color="#DFB35B"/>
<stop offset="0.525" stop-color="#E9CD90"/>
<stop offset="0.82" stop-color="#BB7A2A"/>
<stop offset="0.955" stop-color="#A45600"/>
</linearGradient>
<clipPath id="clip0_538_13781">
<rect width="40" height="39.86" fill="white" transform="translate(4 4)"/>
</clipPath>
</defs>
</svg>
