<svg width="48" height="48" viewBox="0 0 48 48" fill="none" xmlns="http://www.w3.org/2000/svg">
<g clip-path="url(#clip0_538_13865)">
<path d="M4.148 28.5619L4 28.4439C4.788 27.6519 5.672 26.8559 6.236 26.3599C12.348 20.9719 20.274 19.6139 23.938 23.3299C27.602 27.0459 25.618 34.4259 19.506 39.8159C18.726 40.5059 17.918 41.1259 17.094 41.6819H11.756C12.798 40.9779 13.834 40.1839 14.838 39.2979C21.104 33.7719 23.8 26.8799 20.864 23.9019C17.926 20.9219 10.466 22.9879 4.202 28.5119L4.148 28.5619Z" fill="#095CA2"/>
<path fill-rule="evenodd" clip-rule="evenodd" d="M24.714 35.8484C26.14 33.8204 27.252 31.2544 27.466 28.1444C27.516 27.4084 27.978 27.5664 28.4 27.6464C29.132 27.7784 31.192 28.0804 34.486 26.4224C34.778 26.2744 35.362 26.3904 34.886 27.1004C34.408 27.8104 33.076 29.6964 32.702 34.6864C32.672 35.0804 32.234 35.0204 32.102 34.9784C31.984 34.9444 28.648 34.3144 25.132 36.2504C24.83 36.4124 24.476 36.2024 24.714 35.8484ZM15.48 20.5964C15.288 20.6404 15.212 20.4764 15.382 20.3344C18.308 17.7784 19.122 14.3584 19.2 13.7544C19.282 13.1104 19.544 13.1504 19.908 13.3044C22.366 14.3504 24.532 14.0024 25.392 13.8044C26.348 13.5844 26.734 13.7704 26.128 14.4944C24.218 16.7744 23.734 19.7864 23.62 20.7964C23.584 21.1284 23.288 21.0864 23.124 21.0164C21.034 19.8624 17.506 19.8964 15.48 20.5964Z" fill="#0E918E"/>
<path fill-rule="evenodd" clip-rule="evenodd" d="M4.76423 35.8341C6.70223 34.2681 9.26823 31.6161 10.1442 28.0661C10.2142 27.7861 10.5182 27.6181 11.0202 27.8821C11.5222 28.1461 13.7702 29.0081 17.3962 27.6321C17.7362 27.5041 18.1622 27.6741 17.5782 28.2421C16.9962 28.8061 14.5522 31.4021 12.8322 36.5861C12.6822 37.0421 12.1742 36.9781 11.8842 36.8681C10.5122 36.3421 8.65423 35.5061 5.04423 36.5161C4.53223 36.6781 4.21423 36.2001 4.76423 35.8341Z" fill="#095CA2"/>
<path fill-rule="evenodd" clip-rule="evenodd" d="M28.7601 25.5585C28.2181 26.0725 27.6581 26.5485 27.0861 26.9945C27.0001 25.6225 26.5921 24.3645 25.8401 23.3085C30.5101 18.0345 32.1541 12.2285 29.4541 9.67649C26.4221 6.81049 19.0761 9.11649 13.0381 14.8245L12.4061 15.4625L12.2681 15.3685C13.2201 14.2905 14.3241 13.1405 14.9781 12.5245C20.8881 6.93449 28.7641 5.31849 32.5701 8.91649C36.3761 12.5165 34.6701 19.9665 28.7601 25.5585Z" fill="#0E918E"/>
<path d="M33.2102 21.7189C37.0002 20.9129 40.4462 21.5529 42.4182 23.7729C45.8722 27.6649 43.4802 34.9389 37.0802 40.0209C36.3062 40.6349 35.5082 41.1909 34.6982 41.6829H28.9282C30.1102 40.9909 31.2942 40.1849 32.4482 39.2669C39.0102 34.0589 42.0842 27.3109 39.3182 24.1929C37.9482 22.6489 35.4082 22.2829 32.3962 22.9349C32.6862 22.5329 32.9582 22.1289 33.2102 21.7189Z" fill="#0E918E"/>
</g>
<defs>
<clipPath id="clip0_538_13865">
<rect width="40" height="34.682" fill="white" transform="translate(4 7)"/>
</clipPath>
</defs>
</svg>
