<svg width="48" height="48" viewBox="0 0 48 48" fill="none" xmlns="http://www.w3.org/2000/svg">
<g clip-path="url(#clip0_538_13783)">
<path fill-rule="evenodd" clip-rule="evenodd" d="M16.6357 16.6553H16.6298H16.6357ZM42.1161 32.6945L42.0993 32.7176L42.1161 32.6945ZM42.8641 30.9725C42.8619 30.982 42.8608 30.9917 42.8609 31.0015L42.8641 30.9725ZM43.944 26.4156L43.9526 26.4011L43.944 26.4156ZM13.295 41.2871L13.3652 41.3029C13.3442 41.2892 13.32 41.2811 13.295 41.2794V41.2871ZM42.0604 32.7035C42.2039 32.3807 42.3361 32.0624 42.4584 31.7608C42.568 31.5385 42.6671 31.3139 42.7282 31.0739L42.8039 30.8666L42.0604 32.7035ZM43.1815 29.7975L43.2725 29.5313C43.2892 29.4851 43.234 29.4271 43.239 29.3936L43.3178 29.2211L43.2218 29.2501L43.239 29.2261C43.2186 29.4267 43.2775 29.2338 43.2625 29.3855C43.3726 29.1785 43.3526 29.1247 43.4024 28.9128C43.4464 28.7208 43.536 28.5148 43.565 28.3151C43.5702 28.3193 43.5745 28.3245 43.5777 28.3305L43.6293 28.3047L43.6311 28.2847V28.2843L43.6143 28.0506C43.6329 27.9936 43.6537 27.9257 43.6202 27.875C43.6057 27.8528 43.5994 27.8469 43.6275 27.8134C43.6972 27.7264 43.6782 27.6119 43.6429 27.5059C43.6288 27.4584 43.6316 27.4539 43.6587 27.4303C43.6747 27.4161 43.6878 27.3988 43.6972 27.3796C43.7226 27.4435 43.6492 27.5195 43.6918 27.5969L43.8208 26.8684L43.8258 26.8752C43.8256 26.8703 43.825 26.8655 43.824 26.8607L43.8222 26.8584L43.8389 26.7702C43.8295 26.7766 43.8214 26.7847 43.8149 26.7942L43.8154 26.7724L43.8222 26.7643C43.8465 26.7419 43.8647 26.7138 43.8752 26.6826C43.8858 26.6513 43.8882 26.6179 43.8824 26.5854L43.872 26.5569C43.9023 26.5107 43.9254 26.4641 43.9444 26.4152L43.9177 26.4328L43.9444 26.3812C43.9508 26.2974 44.0463 25.064 43.9739 24.9617C43.969 24.9535 43.9644 24.945 43.9603 24.9363C44.0794 23.5413 43.8874 22.019 43.6959 20.955C43.7869 20.7299 43.7742 20.4542 43.6356 20.1771C43.6003 20.1073 43.5704 20.0349 43.5292 19.9796C43.5414 19.7943 43.4866 19.6108 43.3748 19.4626L43.3581 19.3874L43.3798 19.161C43.3839 19.0872 43.3391 19.0229 43.2775 18.9794C43.271 18.9404 43.2565 18.9031 43.2349 18.8699C43.1327 18.4819 43.0156 18.0979 42.884 17.7189C42.8759 17.6895 42.8657 17.6608 42.8537 17.6328C42.7925 17.463 42.7314 17.2951 42.668 17.1284C42.6716 16.9799 42.6137 16.8309 42.4969 16.7051L42.4896 16.6838C42.5589 16.36 42.3637 16.1835 42.265 16.116C42.2627 16.0181 42.2467 15.921 42.2175 15.8276L42.2071 15.8027C42.2145 15.7426 42.2033 15.6817 42.175 15.6282C42.1466 15.5748 42.1025 15.5313 42.0486 15.5038L41.9884 15.4748C41.9691 15.4632 41.9491 15.4526 41.9286 15.4431C41.8293 15.2398 41.7271 15.0378 41.6221 14.8373C41.6103 14.7236 41.5552 14.6188 41.4681 14.5448V14.5443L41.3739 14.3746L41.3676 14.2894C41.3649 14.1769 41.3178 14.07 41.2367 13.9919C41.2027 13.9616 41.1632 13.938 41.1204 13.9222L40.9624 13.6505L40.9701 13.541C40.9845 13.4681 40.8944 13.3617 40.827 13.2956L40.6499 13.1316C40.5043 12.8957 40.355 12.6621 40.2021 12.4307L40.1994 12.3723C40.1993 12.3442 40.1923 12.3165 40.1792 12.2917C40.166 12.2668 40.147 12.2456 40.1238 12.2297C40.0088 12.1609 40.0636 12.0993 39.9449 12.0477C39.7158 11.7176 39.5768 11.5315 39.5768 11.5315C39.5676 11.5124 39.5568 11.4941 39.5447 11.4767C39.5231 11.4485 39.4976 11.4235 39.4691 11.4024L39.4278 11.3667L39.321 11.2661C39.2295 11.0701 39.0801 10.9107 38.966 10.7318C38.8505 10.5498 38.6767 10.4081 38.4879 10.2039C38.4159 10.198 38.3774 10.188 38.3479 10.1659C38.3456 10.1629 38.343 10.1602 38.3402 10.1577L38.3208 10.1387L38.1704 9.85389C38.1152 9.75563 37.93 9.67051 37.8562 9.58538C37.6819 9.3857 37.4582 9.31552 37.3341 9.08777C37.2169 8.87314 37.0588 8.79843 36.851 8.73549C36.7645 8.71014 36.65 8.6155 36.6423 8.53944C36.6242 8.32889 36.5508 8.4276 36.4095 8.32436L36.1958 8.26187C36.0586 8.1609 36.0138 7.85753 35.8028 7.84395L35.6135 7.86795C35.5951 7.84464 35.5727 7.82472 35.5474 7.80908L35.5334 7.80093C35.384 7.51794 35.2613 7.24717 34.9049 7.1222C34.573 7.00493 34.3023 6.73189 33.9894 6.55485C33.7856 6.4403 33.5493 6.47788 33.2771 6.36695C33.1775 6.13104 32.9149 6.01875 32.6224 5.92004C32.4336 5.85756 32.2516 5.84035 32.0777 5.76609C31.9174 5.69681 31.7915 5.54015 31.61 5.56007L31.6005 5.55781C31.4114 5.47196 31.2206 5.38998 31.0281 5.31194C30.9987 5.29664 30.9685 5.28303 30.9376 5.27119L30.871 5.25082C30.6782 5.17541 30.4837 5.10415 30.2878 5.0371C30.2306 5.01404 30.1723 4.99394 30.113 4.97688C29.9409 4.92032 29.7679 4.86643 29.5941 4.81523L29.5566 4.80029C29.5129 4.78208 29.4668 4.77019 29.4198 4.76497L29.0875 4.67532C29.025 4.64091 28.9693 4.61012 28.9208 4.62642L28.9082 4.63004C28.3465 4.48976 27.7787 4.37509 27.2066 4.28637L27.2052 4.28365L27.1848 4.2823L26.7882 4.22434C26.5917 4.17815 26.3938 4.12065 26.1828 4.12472L26.1674 4.1048C26.0799 4.11742 25.9914 4.12288 25.903 4.1211C25.5247 4.08566 25.1456 4.05894 24.766 4.04096C24.6157 4.00926 24.4939 3.97666 24.2507 4.0233C23.8125 4.01265 23.374 4.01431 22.9358 4.02828C22.8934 4.02763 22.8509 4.02899 22.8086 4.03236C22.2078 4.0559 21.8261 4.09529 21.7559 4.10344C21.6178 4.11205 21.6237 4.14419 21.3828 4.17589C18.5478 4.49058 16.8983 5.25761 16.8983 5.25761C16.2155 5.44008 15.3439 5.88744 14.7286 6.23337C14.524 6.30347 14.3252 6.38946 14.134 6.49056L14.1277 6.49192V6.49418C13.9153 6.60738 13.7881 6.70744 13.7202 6.77219L13.6595 6.79574C13.6165 6.82019 13.53 6.83196 13.4938 6.89173L13.4802 6.8632C13.3924 6.95422 13.3367 6.9429 13.3154 7.0167C13.2818 7.05017 13.2477 7.08308 13.2131 7.11541L13.2081 7.12175L13.1814 7.14982C13.1392 7.19392 13.1015 7.24198 13.0686 7.29336L13.0668 7.29381C13.0185 7.3427 12.9862 7.40504 12.974 7.47266L12.8988 7.63476L12.8644 7.65197L12.7263 7.73166C12.6638 7.77694 12.619 7.82901 12.5778 7.87429L12.5524 7.90326C12.5031 7.95413 12.4736 8.02092 12.4691 8.09163C12.4291 8.12047 12.3971 8.15894 12.3759 8.20346L12.3695 8.21388L12.3084 8.3316C11.9928 8.60192 11.7809 8.73549 11.7646 9.23402C11.7463 9.2797 11.7416 9.3297 11.751 9.378C11.7108 9.39794 11.6756 9.42656 11.6479 9.46181C11.6202 9.49705 11.6006 9.53803 11.5907 9.58176C11.5861 9.60332 11.5844 9.62541 11.5857 9.64741C11.5595 9.65684 11.5355 9.67154 11.5151 9.69062C11.4948 9.70971 11.4786 9.73276 11.4676 9.75835C11.4569 9.78432 11.4515 9.81218 11.4518 9.84026C11.4521 9.86834 11.4581 9.89608 11.4694 9.92181C11.4706 9.92526 11.4726 9.92836 11.4753 9.93086L11.4368 10.0219L11.377 10.1772C11.3603 10.2238 11.3523 10.273 11.3535 10.3225C11.3092 10.3588 11.2783 10.4089 11.2656 10.4647C11.2612 10.4881 11.2598 10.512 11.2615 10.5358C11.2502 10.5599 11.244 10.5861 11.2434 10.6128C11.2429 10.658 11.2498 10.7029 11.2638 10.7459C11.2027 10.8287 11.2249 10.9265 11.2321 10.9623L11.2348 10.9709L11.2384 11.0108C11.2407 11.0204 11.2419 11.0303 11.2421 11.0402C11.1927 11.0787 11.0673 11.1851 11.1225 11.378L11.1239 11.4409L11.1225 11.503C11.1239 11.5319 11.1239 11.5609 11.1225 11.5899H11.1207C11.113 11.6234 11.0922 11.7017 11.1366 11.7832C11.1379 11.8064 11.137 11.8296 11.1339 11.8525C11.1293 11.9 11.1243 11.9594 11.1352 12.0255L11.1415 12.1382L11.1533 12.3139C11.1181 12.3411 11.0926 12.3789 11.0804 12.4217C11.0708 12.4582 11.0716 12.4966 11.0825 12.5328C11.0935 12.5689 11.1142 12.6013 11.1425 12.6263L11.1782 12.6612L11.1918 12.6748C11.1771 12.7232 11.1771 12.7749 11.1918 12.8233C11.2113 12.8957 11.2344 12.9668 11.2597 13.0347L11.3145 13.205L11.3245 13.2702C11.3322 13.3363 11.3426 13.4183 11.3919 13.4966C11.4377 13.5695 11.4617 13.6492 11.4725 13.7606C11.4766 13.8194 11.5024 13.9104 11.5672 13.9711C11.5572 14.0341 11.5518 14.1418 11.6283 14.2337C11.6586 14.27 11.7084 14.3107 11.7859 14.3275L11.7922 14.3365L11.8126 14.3673C11.8375 14.4126 11.8801 14.4896 11.9616 14.5244C11.9661 14.5792 11.9756 14.6358 11.9919 14.6915C12.0073 14.7477 12.0517 14.8364 12.1318 14.8826C12.1558 15.0574 12.327 15.2747 12.514 15.2973C12.5728 15.3037 12.6317 15.3241 12.6824 15.4323C12.7666 15.6138 12.9101 15.708 13.055 15.7818L13.1325 15.8199C13.2271 15.8633 13.2814 15.8909 13.3027 15.9403C13.3924 16.1427 13.5776 16.1871 13.6862 16.2138L13.7442 16.2278L13.856 16.2554C13.9602 16.2767 13.9629 16.2844 13.9724 16.3025C14.0267 16.4216 14.1576 16.4443 14.202 16.452L14.288 16.4692C14.3776 16.4895 14.4877 16.514 14.609 16.5009C14.763 16.5982 14.9246 16.6344 15.0885 16.6082L15.1021 16.6055C15.1741 16.6743 15.2674 16.6702 15.3416 16.6562C15.3809 16.681 15.4279 16.6909 15.4739 16.6838C15.5363 16.6765 15.5984 16.6616 15.6631 16.6444L15.8057 16.6634C15.8451 16.6983 15.9253 16.7562 16.034 16.7254L16.2037 16.6693L16.2866 16.6666C16.3676 16.693 16.4547 16.6944 16.5366 16.6707L16.566 16.6575L16.6285 16.6557C16.6322 16.6343 16.6427 16.6146 16.6584 16.5996L16.6683 16.5905L16.6688 16.591C16.7053 16.6057 16.7452 16.6098 16.784 16.6028C16.8228 16.5959 16.8588 16.5781 16.8879 16.5516C16.9441 16.499 16.959 16.4411 16.9667 16.4153L17.0079 16.3723C17.0142 16.3736 17.0204 16.3753 17.0265 16.3772C17.0699 16.4325 17.1125 16.4891 17.1437 16.5516C17.2108 16.691 17.4313 16.7404 17.5762 16.6453C17.7428 16.533 17.9017 16.3727 18.1209 16.5208C18.1544 16.5425 18.225 16.533 18.2644 16.5117C18.6058 16.3234 18.9726 16.1653 19.2773 15.9285C19.573 15.6967 19.8129 15.3847 20.067 15.099C20.2404 14.9025 20.3577 14.9052 20.5465 14.6738C20.6425 14.7277 20.8385 14.7812 20.9571 14.807C21.3547 14.8916 21.6803 14.7535 22.0058 14.5353C22.1127 14.4647 22.2793 14.4185 22.3957 14.4447C23.0083 14.5733 23.6119 14.3863 24.2204 14.3401C24.4598 14.3202 24.7007 14.3289 24.9381 14.3659C25.2772 14.4225 25.6078 14.4619 25.9632 14.4325C26.2181 14.4094 26.4857 14.3293 26.7683 14.505C26.9494 14.6186 27.1771 14.8106 27.4647 14.7522C27.5009 14.7445 27.5466 14.8133 27.5892 14.8432C27.7839 14.9826 27.9609 15.1891 28.1792 15.2407C28.4305 15.2973 28.6763 15.2131 28.9679 15.3607C29.2758 15.5188 29.5203 15.7085 29.7698 15.9258C29.8907 16.0281 30.0152 16.1816 30.1533 16.1939C30.463 16.2224 30.531 16.5027 30.718 16.6521C30.924 16.8187 31.0761 17.0533 31.2903 17.2063C31.5674 17.4064 31.9808 17.4445 32.0392 17.8905C32.0433 17.9208 32.1243 17.9326 32.1624 17.9625C32.305 18.0806 32.4612 18.1889 32.5848 18.3256C32.698 18.4501 32.7754 18.6059 32.8719 18.7485C33.1956 19.2298 33.1839 19.1343 33.3469 19.7365C33.4714 20.2029 34.1637 20.6932 34.3235 21.1506C34.4865 21.6156 34.5717 22.11 34.8212 22.5438C34.8746 22.6412 34.8972 22.7652 34.9045 22.8802C34.9371 23.3923 34.9964 23.6364 35.0711 23.8542C35.1408 24.0661 35.1177 24.2789 35.1082 24.494C35.0684 25.237 35.2296 25.9655 35.1612 26.7077C35.1123 27.1777 35.0448 27.6457 34.9588 28.1104C34.9463 28.1825 34.9299 28.2539 34.9094 28.3241C34.9018 28.3333 34.8936 28.3421 34.885 28.3504C34.8594 28.3826 34.8416 28.4202 34.8329 28.4604L34.6971 28.9263C34.636 29.0762 34.5748 29.2279 34.5228 29.3778L34.463 29.4941C34.3656 29.7233 34.285 29.9578 34.1818 30.1846C34.0786 30.4174 33.9581 30.6433 33.8449 30.8711L33.7621 30.9743C33.7231 31.0255 33.6819 31.0766 33.6498 31.1328L33.5266 31.38C33.4655 31.4991 33.3953 31.6041 33.2572 31.6585C33.1908 31.6933 33.1396 31.7515 33.1137 31.8219C33.0602 31.9777 32.9126 32.056 32.8289 32.1878C32.7822 32.2639 32.7111 32.3241 32.6527 32.3952C32.5916 32.4667 32.535 32.5437 32.4784 32.6189L32.386 32.7384C32.2466 32.8987 32.1166 33.0658 31.9645 33.2116C31.8776 33.2967 31.7535 33.3447 31.6471 33.4126L31.5579 33.4932L31.4116 33.6236C31.2753 33.7178 31.1268 33.7979 31.0539 33.9605C30.9981 34.0903 30.898 34.1961 30.7714 34.2589C30.574 34.3603 30.3503 34.4318 30.2489 34.6596L30.204 34.6999C30.0718 34.8131 29.9396 34.924 29.8151 35.0417C29.739 35.1128 29.6621 35.1631 29.552 35.1549C29.5045 35.1542 29.4579 35.1676 29.418 35.1934C29.2663 35.2835 29.1259 35.3954 28.967 35.4692C28.7723 35.5593 28.5649 35.6204 28.3625 35.691C28.2747 35.7205 28.1832 35.7386 28.099 35.7744C27.9922 35.8192 27.874 35.8386 27.7889 35.9383C27.7295 36.0094 27.6539 36.09 27.5702 36.1153C27.3947 36.1707 27.2128 36.2032 27.0291 36.2122C26.8507 36.2172 26.6899 36.2647 26.5704 36.3806C26.4472 36.5002 26.3318 36.5133 26.1946 36.4345C26.1063 36.3825 26.0252 36.3933 25.9433 36.4458C25.8794 36.4857 25.8201 36.55 25.7527 36.5581C25.553 36.5858 25.4072 36.7116 25.236 36.7931C25.0857 36.8638 24.9399 36.9453 24.7592 36.914C24.5097 36.8742 24.2607 36.8466 24.0112 36.8176C23.9619 36.8117 23.908 36.8266 23.8586 36.8312C23.6694 36.8511 23.4796 36.876 23.2913 36.8887C23.213 36.8937 23.1351 36.8755 23.0558 36.8656C22.9363 36.8493 22.8059 36.8506 22.6941 36.809C22.56 36.7583 22.4441 36.7868 22.3164 36.8208C22.1638 36.8629 22.0058 36.8882 21.8491 36.9176C21.8218 36.9204 21.7943 36.9148 21.7704 36.9014C21.5209 36.7542 21.2528 36.7868 20.9843 36.8176C20.928 36.8253 20.8706 36.8166 20.819 36.7927C20.7226 36.742 20.6384 36.6645 20.5188 36.7248L20.4586 36.7166C20.3069 36.6659 20.1516 36.6261 20.0076 36.5577C19.8658 36.4881 19.7046 36.4686 19.5503 36.5024C19.4566 36.5224 19.3765 36.4961 19.299 36.4422C19.208 36.3822 19.1129 36.3288 19.0142 36.2824C18.9074 36.2303 18.7928 36.1887 18.6846 36.1411C18.5599 36.085 18.422 36.0653 18.2866 36.0841C18.1245 36.1044 17.9502 36.0931 17.8365 35.9442C17.7183 35.7866 17.5635 35.7504 17.3787 35.7571C17.3285 35.7599 17.2705 35.7155 17.2234 35.6838L17.0754 35.5516C16.9509 35.4805 16.8186 35.4252 16.6905 35.3582C16.641 35.3294 16.5952 35.2946 16.5542 35.2545C16.4093 35.1115 16.24 35.0146 16.0294 35.0087C15.8719 35.0051 15.7066 35.0272 15.5599 34.986C15.3344 34.9227 15.2348 35.0137 15.1727 35.2034L15.1678 35.2115L15.1578 35.3075L15.2529 35.3066C15.3407 35.2555 15.424 35.2011 15.5069 35.14C15.5698 35.0925 15.6187 35.0934 15.6586 35.1617C15.6826 35.2038 15.7179 35.245 15.7197 35.2894C15.7192 35.3103 15.7138 35.3308 15.7039 35.3492C15.694 35.3676 15.6799 35.3835 15.6627 35.3954C15.6283 35.4162 15.5762 35.4067 15.5332 35.4099C15.3996 35.4194 15.2665 35.4316 15.1365 35.4348C15.0817 35.4375 15.017 35.4366 14.9799 35.4067C14.9581 35.3899 14.9776 35.3084 14.9971 35.2636C15.0283 35.1921 15.0233 35.1359 14.9491 35.0734C14.8866 35.236 14.7399 35.2215 14.6122 35.2414C14.4795 35.2618 14.4035 35.1907 14.4157 35.0789C14.4315 34.9331 14.4012 34.9113 14.2663 34.9661C14.1952 34.9933 14.0027 34.9467 14.01 34.8955C14.0177 34.8235 14.0616 34.7488 14.1096 34.689C14.1313 34.6614 14.1974 34.6704 14.2427 34.6605C14.2916 34.6501 14.3709 34.6492 14.3822 34.6211C14.4379 34.493 14.5615 34.4739 14.6615 34.4173C14.7385 34.3757 14.7947 34.3929 14.8404 34.4581C14.8735 34.502 14.8974 34.5559 14.9382 34.5894C14.9681 34.6166 15.0238 34.6388 15.06 34.6315C15.0872 34.6238 15.1189 34.5668 15.1202 34.5305C15.1261 34.4124 15.1383 34.2901 15.0093 34.2149C14.9812 34.2005 14.9676 34.1615 14.9531 34.1303C14.926 34.061 14.8852 34.042 14.8069 34.0628C14.7661 34.075 14.6982 34.0655 14.6683 34.0374C14.5488 33.9179 14.4166 33.9813 14.2789 33.9836L14.2889 34.0655C14.2997 34.1488 14.2919 34.2334 14.266 34.3133C14.2401 34.3932 14.1967 34.4663 14.139 34.5274C14.0729 34.5998 13.9878 34.5885 13.9253 34.5373C13.8923 34.512 13.8732 34.4309 13.8886 34.3875C13.9348 34.2498 13.9805 34.1045 14.0634 33.9885C14.1553 33.8636 14.1512 33.7286 14.1698 33.5946C14.1979 33.3986 14.1553 33.399 13.9982 33.356C13.8393 33.3107 13.7274 33.2378 13.6663 33.0716C13.5975 32.8815 13.5441 32.8634 13.3507 32.8855C13.1777 32.9059 13.0858 32.7814 13.1316 32.6139C13.1497 32.5446 13.1216 32.4545 13.0895 32.3843C13.0759 32.3531 13.003 32.3413 12.9554 32.3354L12.9133 32.4364C12.8966 32.498 12.8952 32.57 12.8649 32.622C12.8051 32.7126 12.8237 32.7973 12.8531 32.8865C12.9174 33.0793 13.108 33.1622 13.2842 33.0707C13.3629 33.03 13.4069 33.0576 13.4417 33.1233C13.497 33.2233 13.5554 33.3175 13.6754 33.3555C13.7428 33.3755 13.7302 33.4321 13.7057 33.4828C13.6496 33.6005 13.4743 33.6806 13.3444 33.6653C13.2479 33.6544 13.1483 33.6684 13.0519 33.6684L12.9577 33.6544L13.0048 33.5661C13.0435 33.536 13.0712 33.4939 13.0834 33.4463C13.0956 33.3988 13.0917 33.3485 13.0722 33.3035C13.031 33.2152 12.9871 33.1989 12.902 33.2478C12.8483 33.2781 12.7968 33.3123 12.748 33.3501C12.6131 33.4588 12.6195 33.5511 12.7662 33.6476C12.8327 33.6938 12.868 33.7436 12.8499 33.8355C12.8273 33.9636 12.926 34.1113 13.0433 34.1751C13.108 34.2091 13.1628 34.262 13.218 34.3118C13.2602 34.3499 13.2986 34.3947 13.3344 34.44C13.3829 34.5034 13.4381 34.5654 13.468 34.6369C13.501 34.7098 13.5373 34.7633 13.6115 34.7995C13.7659 34.8719 13.9606 34.8923 14.0308 35.0866L14.039 35.0934L14.6597 35.5923C14.6966 35.6223 14.7388 35.6449 14.7843 35.6589C14.979 35.7101 15.0881 35.8491 15.1696 36.017C15.2447 36.1674 15.3539 36.2308 15.5237 36.2122C15.8393 36.1787 15.9248 36.2321 16.0263 36.5269C16.0534 36.6125 16.1019 36.6645 16.2074 36.655C16.2431 36.6514 16.3002 36.6845 16.3192 36.7166C16.3649 36.79 16.4188 36.8185 16.5021 36.8298C16.6864 36.8552 16.8381 36.9308 16.9269 37.1101C16.9912 37.236 17.1021 37.2713 17.2461 37.2672C17.386 37.2631 17.5304 37.2844 17.6685 37.3166C17.731 37.331 17.7795 37.3994 17.8338 37.4411C17.8859 37.4814 17.9375 37.5253 17.9941 37.5556C18.0566 37.59 18.1403 37.5964 18.187 37.643C18.259 37.7109 18.3287 37.725 18.4193 37.7019C18.5922 37.6598 18.7625 37.6987 18.872 37.83C19.0002 37.9849 19.1582 38.0415 19.3375 38.0501C19.5028 38.0578 19.6567 38.0922 19.8043 38.1533C19.8818 38.1841 19.9506 38.2452 20.0285 38.2552C20.2057 38.2751 20.3813 38.3072 20.5542 38.3512L20.8449 38.4087C21.0101 38.4485 21.1722 38.511 21.3411 38.5296C21.5426 38.5513 21.75 38.5309 21.9537 38.5423C22.0823 38.5486 22.2105 38.5821 22.3391 38.5934C22.4129 38.6007 22.4944 38.5667 22.5632 38.5857C22.6877 38.6233 22.805 38.6709 22.9372 38.6161L23.006 38.6319L23.2754 38.6876L23.5679 38.7406C23.6214 38.7496 23.6771 38.7542 23.7278 38.7487L24.8484 38.6247L25.0309 38.6355L25.5272 38.5803C25.5779 38.5753 25.6358 38.6016 25.6884 38.6133L25.682 38.6636L25.5498 38.6659C25.5091 38.6699 25.4538 38.665 25.4266 38.6876C25.3085 38.7886 25.1749 38.7949 25.0309 38.7841C24.9476 38.7759 24.8607 38.794 24.7792 38.8067C24.6229 38.8307 24.4753 38.8973 24.306 38.8597C24.1806 38.8321 24.0397 38.8511 23.9112 38.8733C23.8292 38.8873 23.7572 38.9185 23.6739 38.8791C23.6499 38.8678 23.6028 38.8746 23.5793 38.8918C23.4072 39.0136 23.2089 38.9892 23.0187 38.9892C22.8272 38.9896 22.6352 38.9421 22.4455 38.9548C22.196 38.9733 21.9469 39.0018 21.6975 38.9923C21.5965 38.9887 21.5118 38.9688 21.4421 38.8873C21.3782 38.8112 21.2881 38.7963 21.1989 38.8461C21.1043 38.9001 21.0123 38.9586 20.9232 39.0213C20.8353 39.0843 20.7439 39.0625 20.6597 39.0286C20.6393 39.02 20.656 38.933 20.647 38.8828L20.613 38.7678C20.5759 38.7967 20.5297 38.8198 20.5057 38.8579C20.4903 38.8823 20.508 38.928 20.5143 38.9634L20.5374 39.0766C20.4853 39.0811 20.4292 39.1024 20.3853 39.0874C20.2739 39.0498 20.2517 38.948 20.2436 38.847C20.2372 38.7682 20.2404 38.6817 20.148 38.6505C20.0552 38.6197 19.9873 38.6681 19.9162 38.7266C19.8464 38.7864 19.7693 38.8371 19.6866 38.8773C19.5173 38.9575 19.3108 38.8515 19.2592 38.6745C19.2392 38.6099 19.2133 38.5473 19.1818 38.4875C19.1713 38.4698 19.1347 38.4522 19.1143 38.4571C19.0966 38.4603 19.0708 38.492 19.0672 38.5124C19.0622 38.5884 19.0264 38.5961 18.9653 38.5735C18.9402 38.5643 18.9131 38.5612 18.8865 38.5644C18.7249 38.5894 18.6819 38.5735 18.6058 38.4304C18.5859 38.3873 18.5558 38.3497 18.5181 38.3208C18.4804 38.2919 18.4362 38.2727 18.3894 38.2647C18.2649 38.2375 18.1521 38.1841 18.0683 38.0754C18.0493 38.0492 17.98 38.0342 17.9456 38.0483C17.8682 38.0795 17.8007 38.0818 17.7387 38.0188C17.6903 37.969 17.6396 37.9722 17.5834 38.0093C17.5173 38.0519 17.4512 38.0945 17.3778 38.1243C17.2882 38.1619 17.1985 38.0949 17.2221 38.0016C17.2443 37.9124 17.2144 37.8441 17.1791 37.7684C17.1492 37.7037 17.1139 37.6847 17.0428 37.7073C16.9815 37.726 16.9173 37.7329 16.8535 37.7277C16.7747 37.7214 16.729 37.6842 16.7489 37.5891C16.758 37.5488 16.7344 37.4859 16.7032 37.4547C16.59 37.3424 16.4677 37.3401 16.3369 37.4356C16.2277 37.5158 16.1508 37.518 16.0335 37.4528L15.909 37.4166C15.832 37.3922 15.7401 37.3867 15.6844 37.3383C15.5726 37.2455 15.4657 37.2138 15.3258 37.2613C15.2832 37.2754 15.213 37.2554 15.1786 37.2265C15.1578 37.2074 15.1614 37.1282 15.1832 37.0992C15.2117 37.0625 15.2665 37.039 15.3158 37.0277L15.4231 37.0499C15.4713 37.0353 15.5141 37.007 15.5463 36.9684C15.5617 36.9484 15.5526 36.8796 15.5309 36.8651C15.4086 36.7818 15.2841 36.7098 15.1207 36.7619C15.0456 36.7831 14.9657 36.7801 14.8925 36.7533C14.8455 36.7337 14.7943 36.7264 14.7437 36.7322C14.6932 36.738 14.6449 36.7566 14.6036 36.7863C14.5515 36.8185 14.4931 36.8642 14.4383 36.8633C14.24 36.8601 14.1599 37.0032 14.082 37.1404C14.0109 37.2663 13.9706 37.288 13.8642 37.192C13.8208 37.1468 13.7899 37.0911 13.7745 37.0304C13.7492 36.9412 13.7288 36.9195 13.6518 36.9647C13.5857 37.0041 13.5323 36.9978 13.4703 36.9598C13.4289 36.9293 13.382 36.9072 13.3322 36.8946C13.0795 36.8524 12.9341 36.6528 12.7535 36.5079C12.6281 36.4046 12.3899 36.3539 12.2518 36.44C12.1572 36.4988 12.0693 36.5753 11.9692 36.622C11.8117 36.6967 11.8026 36.698 11.8239 36.8633C11.8398 36.9711 11.904 37.0114 12.0055 36.9656L12.1599 36.8588C12.1074 37.0639 12.1961 37.1862 12.3342 37.2966C12.4143 37.3618 12.3795 37.4533 12.2803 37.4972C12.096 37.581 12.087 37.6276 12.2296 37.7802L12.2563 37.8115C12.3596 37.9296 12.3623 37.9672 12.279 38.0976C12.2409 38.1601 12.2572 38.1932 12.3256 38.2058L12.3962 38.2181C12.4356 38.247 12.5094 38.2959 12.5017 38.3177C12.4802 38.3742 12.442 38.4228 12.3922 38.4571L12.2337 38.4992C12.1472 38.5346 12.1083 38.5042 12.0856 38.4196C12.0702 38.3666 12.0498 38.2996 12.0095 38.2729C11.9348 38.2217 11.9099 38.1692 11.9303 38.0836C11.9443 38.0202 11.9258 37.9595 11.857 37.9478C11.6732 37.9166 11.4843 37.9374 11.3118 38.008C11.2534 38.0315 11.2221 38.0877 11.2588 38.1424C11.3747 38.3159 11.3421 38.5011 11.3132 38.6853C11.2864 38.8647 11.4096 38.9901 11.5957 38.9629C11.6908 38.9498 11.7202 38.9122 11.6989 38.818C11.6758 38.7216 11.7207 38.6758 11.8031 38.6523C11.9774 38.6043 12.0557 38.6496 12.0965 38.8266C12.1146 38.9031 12.1418 38.9326 12.2328 38.9131C12.3455 38.8886 12.4352 38.852 12.4963 38.7451C12.528 38.693 12.5746 38.641 12.6425 38.7207C12.6593 38.7401 12.7073 38.7487 12.7358 38.7419C12.9441 38.6912 13.0754 38.7931 13.1882 38.9484L13.2823 38.9951C13.2955 38.9543 13.3204 38.9136 13.3208 38.8723L13.2756 38.7831C13.2736 38.7409 13.2838 38.6989 13.305 38.6623C13.3177 38.6432 13.3697 38.6355 13.3964 38.6432C13.4784 38.669 13.5359 38.7886 13.4992 38.8696C13.4626 38.9493 13.4816 39.0145 13.521 39.082C13.5518 39.1341 13.5776 39.1929 13.6183 39.2382C13.66 39.2826 13.7161 39.3369 13.7646 39.3401C13.7994 39.3419 13.8388 39.2608 13.8755 39.2178C13.9117 39.173 13.9407 39.1105 13.9887 39.091C14.015 39.0811 14.082 39.1332 14.1114 39.1716C14.1793 39.2608 14.2613 39.3088 14.3745 39.3011L14.456 39.3052C14.5031 39.3346 14.5791 39.3749 14.5809 39.4116C14.5814 39.461 14.5307 39.5235 14.485 39.5592L14.3233 39.6185C14.1757 39.691 14.0417 39.6629 13.914 39.5823C13.8578 39.5475 13.8175 39.5479 13.7632 39.5782C13.665 39.6317 13.5997 39.595 13.554 39.4949C13.5287 39.4382 13.4854 39.3914 13.4309 39.3618C13.3559 39.3301 13.2758 39.3123 13.1945 39.3093C13.1175 39.302 13.0777 39.2744 13.084 39.1965C13.0904 39.1105 13.0406 39.0657 12.9667 39.0367C12.8889 39.0059 12.7988 38.9833 12.7327 38.9344C12.6312 38.8619 12.5615 38.9045 12.4868 38.9652C12.4098 39.029 12.4252 39.1055 12.4673 39.178C12.49 39.2165 12.5271 39.2509 12.5638 39.2771C12.6996 39.3713 12.7159 39.4705 12.6032 39.5891L12.566 39.6253L12.5457 39.6597C12.5299 39.6578 12.5138 39.6598 12.499 39.6656C12.4474 39.6883 12.4053 39.7327 12.3618 39.7707C12.2771 39.8458 12.2011 39.8345 12.1436 39.7372C12.063 39.5955 11.9969 39.5878 11.8882 39.7077L11.8411 39.7612C11.7655 39.844 11.6826 39.8323 11.6464 39.7263C11.6233 39.657 11.6161 39.5805 11.6038 39.5076C11.5866 39.3903 11.5694 39.2595 11.4413 39.2237C11.3276 39.1925 11.2027 39.1653 11.0809 39.2233C10.9727 39.2749 10.9296 39.2423 10.9025 39.1255C10.8916 39.0797 10.8685 39.0254 10.8332 39.0009C10.758 38.9493 10.734 38.8923 10.7698 38.8094C10.8001 38.7433 10.8454 38.7025 10.9224 38.7216C11.0107 38.7447 11.0605 38.7949 11.0406 38.8936C11.032 38.9416 11.0324 39.0028 11.0985 38.9987C11.132 38.9951 11.1719 38.9493 11.1923 38.9126L11.2493 38.7619C11.295 38.6754 11.2806 38.6165 11.1923 38.5672C11.1488 38.5427 11.0936 38.5242 11.0655 38.487C11.0012 38.406 10.9287 38.4073 10.8477 38.444L10.7245 38.4947C10.6462 38.5205 10.5855 38.4902 10.5756 38.4146L10.3895 38.2606L10.3025 38.2339C10.2056 38.2226 10.1033 38.195 10.01 38.2113C9.87238 38.2362 9.74424 38.2937 9.60025 38.3417L9.63511 38.3919C9.72748 38.4499 9.83525 38.5676 9.852 38.5884C9.93712 38.7071 10.01 38.7361 10.0657 38.8167L10.1087 38.8334C10.2025 38.7863 10.1979 38.9018 10.2831 38.8085C10.3102 38.7795 10.4021 38.8008 10.4601 38.8162C10.4705 38.8189 10.4714 38.9049 10.4587 38.9457C10.4257 39.0426 10.4334 39.1372 10.5185 39.1938C10.6258 39.2627 10.6883 39.3568 10.734 39.47C10.7603 39.5321 10.8708 39.4823 10.9115 39.5366C10.96 39.6 11.008 39.6652 11.0718 39.7132C11.1156 39.7458 11.1704 39.7598 11.2244 39.7521C11.3639 39.7145 11.3983 39.8495 11.4916 39.9581C11.6016 40.0854 11.7207 40.2063 11.8361 40.3281C11.8544 40.3438 11.8764 40.3547 11.9 40.3598C11.9534 40.3721 12.0028 40.398 12.0433 40.4349C12.0838 40.4719 12.1142 40.5187 12.1313 40.5708C12.1454 40.607 12.2088 40.6577 12.2319 40.6514C12.3179 40.6242 12.4239 40.5966 12.4714 40.5323C12.5533 40.4236 12.6512 40.3901 12.7711 40.3906C12.8372 40.3906 12.8735 40.3661 12.8943 40.3077C12.9246 40.2221 12.9654 40.1497 13.0532 40.1017C13.0804 40.0867 13.1003 40.0102 13.0854 39.9758C13.0709 39.9426 13.0487 39.9133 13.0208 39.8903C12.9929 39.8673 12.96 39.8511 12.9246 39.8431L12.9414 39.7693L12.9364 39.5955C12.9387 39.5715 12.9654 39.537 12.9871 39.5312C13.0107 39.5244 13.0596 39.5398 13.0646 39.5579C13.118 39.6973 13.2439 39.7254 13.3648 39.7634C13.4322 39.7852 13.4875 39.8286 13.4766 39.9011C13.4743 39.9219 13.3992 39.9432 13.3552 39.9482C13.2733 39.9581 13.2212 40.0043 13.2217 40.0777C13.2221 40.1284 13.2579 40.1877 13.295 40.228C13.3254 40.2588 13.3801 40.2647 13.4254 40.2837C13.5812 40.3525 13.7646 40.3661 13.8868 40.5087C13.9339 40.5644 13.9697 40.5259 14.0109 40.4807C14.0358 40.4535 14.0851 40.4467 14.1236 40.4313C14.1232 40.4739 14.1354 40.5255 14.1173 40.5599C14.0485 40.688 14.0738 40.7682 14.2101 40.8243L14.2952 40.861L14.379 40.9638C14.3428 40.9833 14.3052 41.019 14.2685 41.0181C14.1985 41.0153 14.1288 41.0298 14.0656 41.0603C14.0025 41.0909 13.9479 41.1366 13.9067 41.1934C13.8624 41.2504 13.8017 41.2857 13.7184 41.2549C13.5875 41.2078 13.5866 41.2151 13.5599 41.3459L13.3634 41.3007C13.4123 41.341 13.3448 41.4139 13.5246 41.4763C13.616 41.5067 13.6822 41.5692 13.7994 41.5429C14.1128 41.4732 14.2545 41.705 14.4614 41.8712L14.4768 41.8979C14.4732 42.0233 14.6217 42.0197 14.6588 42.0749C14.6878 42.1184 14.758 42.1193 14.8078 42.1401C14.849 42.1578 14.8934 42.1863 14.9319 42.1809C15.0242 42.1678 15.0876 42.2434 15.1524 42.2982C15.1852 42.3281 15.2241 42.3507 15.2665 42.3643C15.3088 42.3779 15.3536 42.3822 15.3978 42.3769C15.4207 42.3762 15.4435 42.3801 15.4649 42.3883C15.4863 42.3966 15.5058 42.409 15.5223 42.4249C15.6065 42.52 15.7147 42.5585 15.8302 42.597C15.9194 42.626 16.0109 42.674 16.0724 42.7387C16.1499 42.8225 16.2373 42.8555 16.34 42.8732C16.3821 42.8805 16.6267 43.0086 16.6615 43.0272C16.9644 43.1725 16.9989 43.153 17.2569 43.2277C17.5273 43.307 17.8216 43.3142 18.062 43.4664C18.1231 43.5035 18.216 43.499 18.2943 43.5012L18.4347 43.5963C18.527 43.5882 18.6203 43.5945 18.7027 43.5673C18.8743 43.5116 18.9662 43.5275 19.088 43.6633C19.1365 43.719 19.1976 43.7602 19.2651 43.7163C19.4036 43.6298 19.3796 43.8458 19.5146 43.8426L19.6278 43.8499L19.6201 43.7312V43.7281V43.7312L19.6694 43.7403L19.9864 43.5556C20.0575 43.5116 20.0756 43.4265 20.0276 43.3726C19.9732 43.3133 19.7301 43.3061 19.6939 43.374C19.6341 43.4849 19.688 43.2105 19.5893 43.2653C19.4638 43.3341 19.4063 43.3061 19.3271 43.1874C19.2955 43.1313 19.272 43.0709 19.2574 43.0081C19.2329 42.9049 19.2447 42.8153 19.3565 42.7573C19.3659 42.7525 19.3739 42.7453 19.3796 42.7365L19.3706 42.7383C19.2483 42.7777 19.3932 42.5164 19.4063 42.6414C19.408 42.6751 19.3986 42.7085 19.3796 42.7365C19.4587 42.7122 19.5419 42.7044 19.6241 42.7134C19.7063 42.7225 19.7858 42.7482 19.8578 42.789C19.9239 42.8234 19.9746 42.8189 20.0402 42.7858C20.1068 42.7514 20.1847 42.7324 20.2599 42.7147C20.4201 42.6758 20.5967 42.7107 20.7416 42.5956C20.7665 42.5766 20.8548 42.5993 20.8824 42.631C20.93 42.683 20.8784 42.727 20.8326 42.7627C20.8091 42.7817 20.7683 42.8193 20.776 42.832C20.7901 42.8614 20.8218 42.8958 20.8521 42.9031C20.9708 42.9352 21.0917 42.9585 21.2139 42.9728C21.2793 42.9782 21.3447 42.9629 21.4009 42.9289C21.5173 42.8555 21.6381 42.8397 21.7563 42.8881C21.9904 42.9873 22.2232 43.0693 22.4871 43.048C22.6266 43.0367 22.6651 43.1091 22.6429 43.2472L22.6361 43.3545L22.6655 43.364L22.7375 43.2843C22.8303 43.1204 22.9938 43.0416 23.1423 42.9506C23.2641 42.8768 23.3071 42.9031 23.3465 43.0376C23.3809 43.1548 23.4335 43.1915 23.5498 43.1594C23.6463 43.134 23.6988 43.1639 23.7364 43.2517C23.7749 43.3414 23.8247 43.3527 23.9062 43.2975L24.1593 43.1209C24.1974 43.0914 24.2427 43.0725 24.2905 43.0662C24.3383 43.06 24.3869 43.0665 24.4314 43.0851C24.4894 43.1067 24.5513 43.1155 24.613 43.1109C24.6746 43.1062 24.7346 43.0883 24.7887 43.0584C25.0259 42.9357 25.0241 42.9339 25.2043 43.1231C25.2827 43.2069 25.3062 43.201 25.3691 43.1005C25.405 43.0388 25.4497 42.9827 25.5018 42.9339C25.5598 42.8818 25.6259 42.9121 25.6775 42.9565C25.7042 42.981 25.7305 43.0272 25.7259 43.0575C25.7069 43.1567 25.4774 43.3088 25.375 43.3115C25.3232 43.311 25.2725 43.3268 25.2301 43.3568C25.1246 43.4374 25.0631 43.4469 24.9381 43.3908C24.8971 43.3764 24.8533 43.3722 24.8104 43.3785C24.6655 43.3948 24.5197 43.4111 24.378 43.4387C24.2888 43.4559 24.205 43.4922 24.1199 43.5211C24.0823 43.5343 24.0284 43.571 24.0117 43.5578C23.8976 43.4763 23.783 43.494 23.663 43.5347L23.5938 43.5248C23.4538 43.4867 23.3262 43.508 23.1939 43.5664C23.1152 43.6017 23.0178 43.5931 22.9281 43.6054C22.8924 43.6104 22.8485 43.6076 22.8226 43.6276C22.7366 43.688 22.6539 43.7532 22.575 43.8227C22.5378 43.8565 22.4923 43.8799 22.4432 43.8905C22.394 43.901 22.343 43.8984 22.2951 43.8829C22.2037 43.8544 22.2309 43.7602 22.2304 43.6873L22.229 43.6574C22.2277 43.5334 22.1629 43.4867 22.042 43.5175L21.9125 43.5488C21.8261 43.5714 21.7341 43.585 21.6549 43.6217C21.6087 43.6443 21.5585 43.6574 21.5071 43.6602C21.4558 43.663 21.4044 43.6554 21.3561 43.638C21.1817 43.58 21.0296 43.4464 20.8272 43.4781L20.7711 43.4546C20.7172 43.4252 20.4668 43.4614 20.4265 43.5067L20.4043 43.5519C20.3586 43.6212 20.3192 43.6968 20.263 43.7575C20.1892 43.8372 20.1829 43.8594 20.2771 43.9069C20.3622 43.9509 20.4595 43.8603 20.4383 43.9658C20.4256 44.0296 20.4672 44.0659 20.5311 44.0496C20.5762 44.037 20.6184 44.016 20.6556 43.9875C20.7294 43.9368 20.7511 44.0043 20.8349 43.9712C20.9042 43.95 20.9789 43.9551 21.0445 43.9857C21.0776 44.0029 21.1374 43.9477 21.1374 44.0029C21.1374 44.0899 21.1908 44.1741 21.2736 44.151C21.385 44.1211 21.4593 44.2216 21.5444 44.1478C21.683 44.026 21.8686 44.0446 21.9519 44.2103C21.9714 44.2497 22.0072 44.2162 22.047 44.2234C22.0783 44.2275 22.138 44.2615 22.162 44.2266C22.2571 44.0944 22.3413 44.0917 22.4283 44.2261C22.5039 44.3393 22.728 44.2886 22.8666 44.3153C22.9327 44.3294 23.0006 44.285 23.0712 44.2791L23.3257 44.3615C23.4833 44.3602 23.6395 44.3597 23.7971 44.3529C23.8432 44.3516 23.898 44.3452 23.9338 44.3194C24.056 44.2266 24.1457 44.3756 24.2711 44.3371C24.4314 44.2886 24.5034 44.4009 24.5491 44.2307C24.5876 44.0917 24.6737 44.0364 24.8004 44.1003C24.9834 44.1863 25.1477 44.1383 25.3157 44.0758C25.4443 44.0269 25.49 43.9155 25.5457 44.0437C25.6023 44.1727 25.7798 44.2601 25.898 44.1935C25.9931 44.141 26.0723 44.1632 26.1651 44.18C26.2168 44.1899 26.272 44.189 26.3254 44.1786C26.4282 44.1596 26.531 44.1329 26.632 44.1053L26.8149 44.0441C26.963 44.0106 27.1029 43.9101 27.2691 43.9948C27.3152 44.0179 27.3823 44.0088 27.4389 44.0007C27.5081 43.9902 27.576 43.9676 27.6444 43.9481L27.835 43.9323L28.1361 43.8775L28.2317 43.892C28.2878 43.8657 28.339 43.825 28.397 43.8105C28.6003 43.7638 28.7289 43.6434 28.7845 43.446L28.7936 43.427C28.852 43.2902 28.9073 43.273 29.039 43.3473C29.1223 43.3948 29.1993 43.4243 29.2944 43.3581C29.3342 43.331 29.4062 43.3468 29.4637 43.3468L29.5751 43.3536L29.8242 43.3744C29.8857 43.3794 29.9559 43.4012 30.013 43.384C30.0927 43.3595 30.1656 43.3129 30.2371 43.2658C30.344 43.1924 30.4576 43.1671 30.5857 43.1879C30.6786 43.2033 30.7628 43.2006 30.8502 43.1453C30.9303 43.0937 31.0308 43.0697 31.1246 43.0453C31.2799 43.0059 31.4388 42.9678 31.5647 42.8655C31.6638 42.7831 31.7716 42.7582 31.8943 42.7496C31.9672 42.7437 32.0433 42.7202 32.108 42.688C32.2226 42.6301 32.3322 42.5603 32.4404 42.4933C32.5151 42.448 32.5821 42.3896 32.6604 42.3507C32.8696 42.2461 33.077 42.1379 33.293 42.05C33.513 41.9617 33.7227 41.8676 33.897 41.7C34.1578 41.4465 34.4666 41.2631 34.7976 41.115L35.0086 41.0236C35.1404 40.9529 35.3016 40.9149 35.3405 40.7347C35.3506 40.7014 35.3718 40.6726 35.4007 40.6532L35.6588 40.4979C35.7707 40.429 35.897 40.3733 35.9894 40.2828C36.1179 40.1601 36.2366 40.0338 36.4109 39.9772C36.4326 39.9699 36.4566 39.9409 36.4625 39.9174C36.5105 39.7299 36.7061 39.6815 36.8148 39.5488C36.8918 39.4551 37.0253 39.4098 37.1336 39.3419L37.196 39.2894L37.5714 38.9339L37.6832 38.8081L37.9631 38.4997C38.0763 38.3756 38.2429 38.3086 38.3172 38.1411C38.3594 38.0519 38.4136 37.9688 38.4783 37.8943C38.5653 37.7857 38.6649 37.686 38.7564 37.5828C38.8759 37.4542 38.9461 37.2781 39.1326 37.2197L39.1833 37.159L39.2404 37.1042C39.3771 37.0906 39.4111 36.9847 39.4541 36.8832C39.4745 36.8384 39.4998 36.7764 39.5379 36.7623C39.6651 36.7175 39.7045 36.6161 39.7566 36.5088C39.8009 36.4182 39.8634 36.32 39.9449 36.2634C40.021 36.2095 40.0722 36.1474 40.1138 36.0687L40.1949 35.9269C40.2099 35.9099 40.2223 35.8907 40.2315 35.8699L40.2691 35.8205C40.3977 35.6544 40.5363 35.4941 40.668 35.3306C40.7124 35.274 40.7577 35.217 40.7876 35.154L40.9524 34.7846C41.3173 34.2349 41.6687 33.5521 41.9789 32.8711L43.1815 29.7975ZM16.5212 35.979C16.5027 35.9633 16.4882 35.9435 16.4787 35.9211C16.4692 35.8988 16.465 35.8746 16.4664 35.8504C16.4763 35.7811 16.5796 35.7544 16.6991 35.7997C16.7054 35.8174 16.7426 35.8595 16.7385 35.8989C16.7362 35.955 16.5773 36.0175 16.5212 35.979ZM17.8279 36.5731C17.7867 36.5554 17.7623 36.5006 17.7292 36.463L17.8931 36.4164L17.9606 36.5541C17.9167 36.5618 17.8641 36.588 17.8279 36.5731ZM12.8988 37.6838C12.8891 37.705 12.8747 37.7237 12.8566 37.7384C12.8386 37.7532 12.8174 37.7636 12.7947 37.7689C12.6643 37.7879 12.5389 37.7562 12.4537 37.6525C12.427 37.6213 12.4243 37.5488 12.4411 37.5081C12.466 37.4524 12.5434 37.4528 12.633 37.5094L12.7793 37.5185C12.8164 37.523 12.8717 37.5239 12.8812 37.5443C12.9051 37.5867 12.9115 37.6368 12.8988 37.6838ZM13.6595 38.3729C13.6342 38.4047 13.5975 38.4254 13.5572 38.4306C13.5169 38.4359 13.4761 38.4252 13.4435 38.401C13.2955 38.3005 13.1538 38.19 13.0161 38.0745C12.9844 38.0474 12.9681 37.9813 12.9781 37.9391C12.9817 37.9174 13.0569 37.9002 13.1008 37.8988C13.2348 37.8966 13.3159 37.993 13.3869 38.0881C13.4589 38.1832 13.5486 38.2122 13.6573 38.1592L13.7628 38.1302L13.78 38.1551C13.7406 38.228 13.7098 38.3086 13.6595 38.3729ZM14.4736 38.631L14.3795 38.7759C14.3278 38.8597 14.264 38.8791 14.1925 38.8298C14.1019 38.7687 14.0933 38.7121 14.1576 38.6283L14.2237 38.5373C14.2862 38.4558 14.3446 38.4408 14.4401 38.4789C14.5262 38.5151 14.5339 38.559 14.4736 38.631ZM14.4736 37.5443L14.4025 37.5303L14.3446 37.5126L14.2522 37.4311C14.2165 37.3886 14.1372 37.3424 14.2002 37.2799C14.2586 37.2246 14.35 37.2052 14.4184 37.2645C14.4736 37.3147 14.5221 37.3831 14.5538 37.4519C14.5918 37.5276 14.561 37.5561 14.4736 37.5443ZM12.7209 39.9219C12.6878 39.9695 12.4066 40.2946 12.3469 40.3068C12.2618 40.3263 12.4175 40.0827 12.3632 40.1506C12.2998 40.2307 12.1698 40.2497 12.0947 40.1936C12.0756 40.1714 12.0636 40.1439 12.0603 40.1148C12.1685 40.0464 12.2269 39.897 12.3872 39.9106C12.428 39.9154 12.4693 39.9093 12.507 39.8928C12.5446 39.8764 12.5772 39.8501 12.6013 39.8169L12.629 39.8314L12.7766 39.868C12.7539 39.8812 12.7348 39.8997 12.7209 39.9219ZM15.8139 38.1941C15.8904 38.1488 15.9525 38.0641 16.0964 38.1098C16.115 38.1587 16.1585 38.2271 16.1621 38.2969C16.1631 38.3691 16.1407 38.4398 16.0982 38.4983C16.0584 38.5536 15.9973 38.5223 15.9515 38.4707C15.9074 38.4167 15.8603 38.3653 15.8103 38.3168C15.7618 38.271 15.7541 38.228 15.8139 38.1941ZM15.0586 37.744L15.2176 37.7078L15.3194 37.8345L15.4888 38.0881C15.5246 38.1406 15.5092 38.1723 15.448 38.1805C15.3806 38.1886 15.3099 38.2027 15.2429 38.1941C15.1946 38.1873 15.1508 38.1624 15.1202 38.1243C15.07 38.0523 15.0383 37.9677 14.9953 37.8902C14.9477 37.8106 14.9699 37.7648 15.0586 37.744ZM14.8214 41.5049L14.811 41.5053C14.7394 41.5139 14.6416 41.5325 14.6253 41.451C14.6113 41.3776 14.6439 41.2812 14.6887 41.2174C14.7154 41.1802 14.8033 41.1857 14.8644 41.1712L14.8671 41.2083C15.0016 41.274 15.1374 41.3373 15.2696 41.4057L15.3122 41.4655L15.2425 41.4895C15.098 41.4161 14.9572 41.4551 14.8214 41.5049ZM14.9477 40.1085C14.9064 40.0854 14.8736 40.0497 14.854 40.0066C14.8481 39.9907 14.9029 39.9446 14.9368 39.9224L15.0428 39.8866C15.0976 39.8703 15.1714 39.8282 15.1931 39.9034C15.2153 39.9808 15.1976 40.0709 15.1909 40.1565L15.098 40.1651L15.0953 40.1433C15.0473 40.132 14.9912 40.1307 14.9477 40.1085ZM15.07 40.9031L15.0002 40.9158L14.9337 40.8239L15.0451 40.8375L15.07 40.9031ZM15.9502 41.6738L15.8981 41.6199C15.878 41.6429 15.8602 41.6679 15.8451 41.6946C15.8264 41.73 15.7976 41.759 15.7623 41.7779C15.6296 41.8522 15.4856 41.9088 15.3865 42.0351C15.3679 42.0595 15.3113 42.0713 15.2782 42.0627C15.2592 42.0577 15.2361 41.9962 15.2438 41.9694C15.2687 41.8983 15.3 41.8236 15.3475 41.7648C15.4634 41.6203 15.4512 41.8046 15.5295 41.6267C15.5694 41.5325 15.6839 41.5248 15.8411 41.5723L15.8977 41.6199C15.9366 41.5673 15.9932 41.5307 16.057 41.5166C16.1395 41.4985 15.9995 41.7453 15.9502 41.6738ZM15.5585 40.3109L15.655 40.2887C15.6758 40.2986 15.6876 40.3362 15.6853 40.3598C15.6853 40.3711 15.6409 40.3933 15.6233 40.3878L15.5585 40.3109ZM16.0045 40.5395L15.9402 40.4653L16.0516 40.4435L16.0906 40.5092L16.0045 40.5395ZM16.3699 41.9328C16.3102 41.9998 16.398 41.7544 16.3246 41.8024C16.2836 41.8287 16.2342 41.8388 16.1861 41.8304C16.1607 41.8232 16.1435 41.7589 16.1395 41.7186L16.1585 41.6172C16.2033 41.5035 16.2273 41.6864 16.3201 41.7036C16.3491 41.71 16.3844 41.7557 16.3898 41.787C16.398 41.8345 16.3966 41.9011 16.3699 41.9328ZM16.3179 39.9925L16.1395 40.0383L16.0122 40.0609C15.9774 40.0161 15.9402 39.9799 15.9208 39.9369C15.8569 39.7983 15.7654 39.7046 15.6052 39.6751C15.5454 39.6643 15.4847 39.5973 15.4485 39.5416C15.3914 39.4537 15.3317 39.398 15.2153 39.3854C15.0777 39.3731 14.9427 39.3288 14.8082 39.2862C14.7507 39.2661 14.6993 39.2317 14.6588 39.1861C14.6303 39.1535 14.6271 39.0978 14.6135 39.0521L14.7603 39.0191L14.878 39.0286C14.926 39.0041 14.978 38.9625 14.9943 38.9167C15.0229 38.8348 14.9491 38.7795 14.859 38.8085C14.7856 38.8316 14.7005 38.8547 14.6792 38.7632C14.6692 38.7157 14.7163 38.6369 14.7607 38.5975C14.8268 38.54 14.8893 38.5776 14.9441 38.6419C14.9771 38.6826 15.0292 38.7166 15.0786 38.732C15.1809 38.7619 15.2656 38.7999 15.3294 38.8936C15.4173 39.0218 15.559 39.0797 15.7098 39.0843C15.813 39.0874 15.8954 39.1078 15.9678 39.1825C16.0516 39.2667 16.153 39.3378 16.2191 39.4329C16.2948 39.5438 16.268 39.5787 16.1349 39.5977C16.1069 39.6013 16.0706 39.6213 16.0629 39.643C16.0557 39.6638 16.0693 39.7055 16.0896 39.7227C16.1227 39.7535 16.168 39.7739 16.2096 39.7965L16.3491 39.8612L16.4039 39.9391L16.3179 39.9925ZM17.2796 38.8565C17.3185 38.8013 17.3656 38.7515 17.4177 38.7093C17.4323 38.6991 17.4491 38.6923 17.4667 38.6894C17.4844 38.6865 17.5024 38.6876 17.5196 38.6926C17.5399 38.7012 17.5567 38.7478 17.5567 38.7782L17.535 38.9475C17.4978 39.0281 17.4548 39.0874 17.3543 39.0562C17.2411 39.02 17.213 38.9538 17.2796 38.8565ZM16.8775 38.5794C16.8915 38.5205 16.9404 38.4965 16.9984 38.5223C17.0772 38.5586 17.0609 38.6238 17.0491 38.7084C17.0047 38.7333 16.9423 38.7913 16.9183 38.7777C16.8358 38.7374 16.863 38.65 16.8775 38.5794ZM17.2578 42.213C17.2248 42.3018 17.0315 42.3765 16.9373 42.3376C16.8775 42.3131 16.8598 42.2284 16.8947 42.1397C16.9327 42.0491 17.0758 42.0038 17.2012 42.0573C17.252 42.0813 17.285 42.1343 17.2578 42.213ZM17.5884 40.4834C17.5139 40.4786 17.4402 40.466 17.3683 40.4458L17.2062 40.3869L17.1202 40.4005L17.1388 40.4757C17.2094 40.5748 17.1863 40.6704 17.1279 40.7627C17.0822 40.8357 17.0084 40.8343 16.969 40.7555C16.9257 40.6712 16.8898 40.5833 16.8617 40.4929C16.8558 40.4693 16.882 40.425 16.9069 40.4059L17.0179 40.3629C17.0145 40.3439 17.0103 40.325 17.0052 40.3063L16.9749 40.185C17.0238 40.1764 17.0727 40.1592 17.1211 40.1623C17.1685 40.1694 17.2142 40.1851 17.256 40.2085C17.3538 40.2543 17.4476 40.2851 17.5585 40.2466C17.6386 40.2203 17.6998 40.2737 17.7088 40.357C17.7206 40.4485 17.6672 40.4861 17.5884 40.4834ZM18.9735 41.3147C18.9594 41.3441 18.8784 41.374 18.8526 41.36C18.8118 41.3351 18.7928 41.2753 18.767 41.2305L18.9345 41.1494C18.9567 41.2273 18.9893 41.2821 18.9735 41.3147ZM19.9171 41.1494C19.8433 41.1635 19.7645 41.1594 19.688 41.1594C19.6345 41.1594 19.5743 41.1666 19.529 41.1463C19.4919 41.1291 19.4743 41.0747 19.4349 41.0159L19.5775 40.962C19.6644 40.9384 19.7532 40.9126 19.8433 40.8977C19.8886 40.8895 19.9601 40.8836 19.9818 40.909C20.019 40.9543 20.0421 41.0236 20.0421 41.0833C20.0407 41.1073 19.9642 41.1422 19.9171 41.1494ZM20.6257 42.1492C20.5655 42.1401 20.5361 42.0414 20.575 41.9518L20.666 41.9368C20.6973 41.9878 20.7178 42.0447 20.7262 42.1039C20.7271 42.1157 20.6574 42.1546 20.6257 42.1492ZM26.9163 43.384C26.8796 43.4001 26.8384 43.4035 26.7995 43.3935C26.675 43.3568 26.5826 43.1508 26.6333 43.0244C26.661 42.933 26.7438 42.9026 26.8285 42.8909C26.9113 42.8782 26.9607 42.9316 26.9892 43.0054L27.0146 43.0507C27.1183 43.2205 27.0993 43.2939 26.9163 43.384ZM27.927 43.0779C27.888 43.1155 27.8242 43.1281 27.7676 43.1544L27.6901 43.0516C27.6354 42.9511 27.5792 42.8497 27.533 42.7455C27.5199 42.7165 27.5108 42.6772 27.5222 42.6504C27.533 42.6242 27.5679 42.5947 27.5946 42.5911C27.61 42.5884 27.6494 42.6319 27.6508 42.6568C27.6616 42.7609 27.7214 42.8207 27.8088 42.8655C27.8492 42.8843 27.8831 42.9146 27.9066 42.9524C27.927 42.9896 27.9437 43.0602 27.927 43.0779ZM28.4368 42.9122C28.3376 42.8705 28.2715 42.8954 28.2023 42.971C28.1248 43.0593 28.075 43.0421 28.0311 42.9325C27.9845 42.8166 27.999 42.7048 28.037 42.5934C28.061 42.5241 28.1171 42.4707 28.1846 42.5001C28.3245 42.5585 28.4314 42.4956 28.5459 42.4449C28.6704 42.3887 28.6827 42.3973 28.6922 42.5318L28.7189 42.6817L28.7279 42.7645C28.679 42.8791 28.536 42.9529 28.4368 42.9122ZM29.2156 42.7193L29.1445 42.8429C29.1214 42.8714 29.0834 42.9135 29.0585 42.9085C29.0384 42.903 29.0197 42.8932 29.0037 42.8797C28.9878 42.8663 28.9749 42.8495 28.9661 42.8306C28.9471 42.789 28.9548 42.7365 28.9548 42.6894C28.9521 42.6183 28.9661 42.5454 28.9552 42.4757C28.9367 42.3606 28.9802 42.2855 29.0748 42.2275C29.1966 42.1515 29.279 42.1786 29.3243 42.3163L29.3768 42.5119L29.2156 42.7193ZM43.004 30.3966C43.0022 30.4504 42.9691 30.5093 42.9284 30.5664C42.9304 30.5513 42.9315 30.5362 42.9315 30.5211L42.9361 30.5079C42.9656 30.4755 42.9887 30.4377 43.004 30.3966ZM43.8702 25.8813C43.8901 25.8437 43.9073 25.7957 43.9173 25.7382L43.8919 25.9017L43.8702 25.8813ZM13.1877 40.7632C13.1433 40.6437 13.0713 40.631 12.9835 40.7206L12.8182 40.8664C12.7997 40.8868 12.792 40.947 12.806 40.9638C12.9142 41.0851 13.1098 40.9176 13.0809 41.0765C13.0641 41.1662 13.1451 41.2708 13.233 41.2739L13.2955 41.2798C13.2579 41.1028 13.1918 40.9783 13.1981 40.7922L13.1877 40.7632ZM43.8358 26.9558C43.8566 26.9277 43.8407 26.9019 43.8258 26.8761L43.8358 26.9499V26.9558ZM6.65665 25.0948C6.6553 25.2062 6.65892 25.3171 6.67567 25.4267C6.70103 25.592 6.71371 25.7554 6.66526 25.9185L6.66707 25.9393C6.6562 26.2019 6.79476 26.4401 6.79611 26.7027L6.81875 26.8639C6.81881 26.9142 6.80897 26.9641 6.78977 27.0106C6.71733 27.1609 6.7205 27.155 6.83777 27.2777C6.88169 27.3207 6.89754 27.3923 6.91158 27.4543C6.9324 27.5426 6.92018 27.6422 6.95685 27.7228C7.04787 27.9266 7.08092 28.1398 7.08862 28.3576C7.09043 28.4237 7.0936 28.4966 7.00259 28.5093C6.91429 28.5215 6.81015 28.4428 6.80608 28.359L6.78932 27.9832C6.78027 27.87 6.78932 27.7477 6.64307 27.697C6.615 27.6871 6.6073 27.6232 6.58964 27.5856L6.52218 27.4607C6.4864 27.4987 6.4366 27.5327 6.41396 27.5784C6.3972 27.6119 6.41894 27.6631 6.41894 27.7056L6.41396 27.8831L6.39675 27.9922C6.37955 28.2195 6.3637 28.4464 6.34332 28.6741C6.33472 28.7543 6.25865 28.8122 6.1939 28.7982C6.13006 28.7855 6.10199 28.7031 6.13413 28.618L6.17126 28.5455C6.19662 28.4935 6.23148 28.4423 6.24326 28.3875C6.25141 28.3508 6.24144 28.2884 6.21473 28.2712C6.11567 28.2012 6.00996 28.1411 5.89913 28.0919C5.80994 28.0565 5.76692 28.0149 5.78232 27.9189C5.7873 27.8872 5.78232 27.8419 5.76285 27.8211C5.73522 27.7926 5.69266 27.7808 5.65463 27.7622L5.6184 27.8578C5.61705 27.894 5.62474 27.9347 5.64104 27.9669C5.72526 28.1331 5.69266 28.277 5.57765 28.4206C5.4803 28.5469 5.49615 28.5967 5.6184 28.6981L5.65961 28.7425C5.74519 28.9431 5.79182 29.1536 5.7556 29.3683C5.73794 29.4661 5.73341 29.5281 5.82669 29.5806C5.85533 29.5996 5.87646 29.6279 5.88646 29.6608C5.93989 29.8926 5.99513 30.1235 6.03905 30.3558C6.05173 30.4183 6.06169 30.4604 6.12191 30.4953C6.17036 30.5229 6.20839 30.5695 6.24552 30.6143C6.39358 30.8027 6.42301 31.0404 6.50361 31.256C6.54436 31.3705 6.56202 31.4932 6.59598 31.6109C6.61454 31.6847 6.63401 31.7622 6.67386 31.8265C6.77076 31.9917 6.88169 32.1489 6.98312 32.3123C7.07096 32.4563 7.14476 32.6107 7.2394 32.7506C7.27471 32.8054 7.34218 32.8466 7.4015 32.8738C7.45447 32.8969 7.483 32.9204 7.47258 32.977L7.43681 33.1776L7.46715 33.2555L7.53597 33.2224L7.63649 33.0671C7.68223 33.0087 7.6786 32.963 7.61748 32.9209C7.55363 32.8765 7.54141 32.8158 7.55363 32.7411C7.57854 32.6062 7.5491 32.5496 7.41689 32.5097C7.22219 32.45 7.12348 32.2874 7.0053 32.148C6.92697 32.0556 6.88577 31.9333 6.8269 31.826C6.71823 31.6286 6.71642 31.6277 6.87535 31.4579C6.91746 31.4126 6.9238 31.3759 6.88939 31.323C6.77121 31.145 6.65394 30.9657 6.54572 30.7828C6.52444 30.7479 6.54708 30.6872 6.5498 30.6388L6.65077 30.6483C6.6879 30.6433 6.7445 30.6347 6.75808 30.6089C6.78096 30.5535 6.79222 30.494 6.79113 30.4341C6.78977 30.3418 6.82781 30.3105 6.91429 30.3458C6.99308 30.3762 7.03247 30.469 7.03519 30.574C7.03609 30.6193 7.06326 30.6972 7.09043 30.7035C7.25389 30.7389 7.28875 30.867 7.32769 30.9947L7.40376 31.2704C7.41372 31.2981 7.45492 31.3153 7.48254 31.3361L7.53779 31.2505L7.54548 31.1699C7.56495 31.0744 7.59846 30.9961 7.72388 31.0037C7.80946 31.0096 7.88055 30.9707 7.92628 30.8874C7.96205 30.8177 8.06846 30.7986 8.12098 30.8512C8.19977 30.9313 8.25953 31.035 8.22648 31.1459C8.19433 31.2627 8.23871 31.3488 8.28353 31.4461C8.3193 31.5245 8.33289 31.6128 8.36232 31.6943C8.38088 31.7409 8.40941 31.7844 8.43793 31.8251L8.50495 31.893C8.49272 31.9813 8.55702 32.0257 8.59596 32.0877C8.65074 32.1729 8.68833 32.2688 8.72863 32.363C8.79609 32.5301 8.82869 32.713 8.97404 32.8439L9.12708 33.0341C9.20089 33.102 9.28284 33.1618 9.37068 33.2102C9.42773 33.2401 9.56538 33.1708 9.58802 33.1097C9.61972 33.0232 9.52961 33.0182 9.49158 32.9788L9.46486 32.9621C9.36434 32.8951 9.36163 32.8516 9.45354 32.7764C9.53776 32.7062 9.54365 32.6727 9.47256 32.5826L9.26382 32.3291C9.22036 32.2747 9.16602 32.2657 9.09856 32.2874C8.99034 32.3214 8.94687 32.2978 8.89118 32.1978L8.71821 31.8785C8.70417 31.8541 8.70734 31.8188 8.71459 31.7907L8.80469 31.4552C8.81993 31.3992 8.82295 31.3406 8.81355 31.2833C8.80415 31.2261 8.78256 31.1715 8.75022 31.1233C8.71789 31.0751 8.67557 31.0345 8.62614 31.0041C8.57671 30.9737 8.52133 30.9543 8.46374 30.9471C8.36594 30.9349 8.32021 30.8829 8.32247 30.7837C8.32474 30.6574 8.39673 30.5673 8.47551 30.4799C8.49589 30.4554 8.51944 30.4101 8.50993 30.3861C8.45921 30.2571 8.39718 30.1317 8.33832 30.0058C8.30842 29.941 8.27686 29.877 8.24369 29.8138C8.22188 29.7683 8.19628 29.7247 8.16716 29.6834C8.07706 29.5639 8.00688 29.4434 8.04808 29.28C8.06166 29.2234 8.03495 29.1546 8.02272 29.0921C8.00597 29.0092 7.97382 28.9272 7.96929 28.843C7.96613 28.7538 7.93986 28.6868 7.8647 28.6338C7.79452 28.5831 7.77776 28.5193 7.81308 28.4364C7.82725 28.4058 7.82998 28.3711 7.82078 28.3386C7.75831 28.1806 7.68959 28.0252 7.61476 27.8727C7.52963 27.7088 7.45492 27.5422 7.48119 27.3565C7.49856 27.2522 7.47627 27.1451 7.4187 27.0563C7.36527 26.9739 7.30822 26.8915 7.27109 26.8009C7.24936 26.7502 7.25524 26.68 7.27109 26.6266C7.30098 26.5302 7.2806 26.3912 7.20679 26.316C7.08771 26.1951 7.08137 26.0615 7.18506 25.9239C7.21359 25.8831 7.24302 25.8392 7.26249 25.7935C7.30052 25.7047 7.27698 25.6699 7.17963 25.6549C7.03383 25.6336 6.97814 25.5576 6.98493 25.4095C6.98669 25.3494 6.97346 25.2898 6.94644 25.2361C6.88939 25.1238 6.89165 25.0831 7.00123 25.0219C7.0782 24.9785 7.13525 24.9146 7.11307 24.8318C7.07178 24.697 7.02172 24.5651 6.96319 24.4369C6.93512 24.3735 6.90569 24.3215 6.92606 24.2454C6.94644 24.1702 6.95414 24.0837 6.93738 24.0086L6.68971 24.0747C6.66571 24.1413 6.67069 24.2173 6.67069 24.2902C6.67069 24.3708 6.68201 24.4496 6.68971 24.5293L6.69876 24.6298C6.73453 24.7136 6.71144 24.7874 6.68609 24.8671C6.66591 24.9413 6.656 25.0179 6.65665 25.0948ZM6.64126 28.9119C6.69831 28.9454 6.70374 29.0454 6.64715 29.1333C6.60956 29.193 6.55885 29.2569 6.4864 29.2107C6.44928 29.1872 6.45199 29.1052 6.43796 29.05C6.50904 28.9377 6.58466 28.8811 6.64126 28.9119ZM7.21042 28.8217L7.36256 29.1441C7.39425 29.2216 7.42595 29.3044 7.43093 29.3868C7.43225 29.4259 7.44259 29.4641 7.46112 29.4985C7.47966 29.5329 7.5059 29.5626 7.53779 29.5852C7.6288 29.6576 7.63966 29.7002 7.56948 29.7866C7.49703 29.874 7.50201 29.956 7.55952 30.0488C7.59529 30.1068 7.62472 30.1715 7.63604 30.2372C7.65551 30.3517 7.71754 30.4355 7.79588 30.5152C7.83354 30.5537 7.86161 30.6006 7.87783 30.6519C7.91722 30.7882 7.91088 30.7905 7.76961 30.8172L7.66728 30.8607C7.62563 30.8752 7.56631 30.9064 7.54322 30.8901C7.49346 30.8529 7.45581 30.8019 7.435 30.7434C7.40195 30.6316 7.38882 30.5129 7.36663 30.3979L7.33901 30.2892C7.33901 30.1539 7.32633 30.028 7.21404 29.9279C7.19457 29.9107 7.19819 29.8464 7.21495 29.8174C7.26385 29.7273 7.20634 29.6793 7.14748 29.6549C7.08137 29.6268 6.99987 29.6273 6.92516 29.6191L6.90976 29.6522C6.91746 29.7205 6.8912 29.7694 6.82192 29.7799C6.7205 29.7966 6.61817 29.8595 6.52218 29.7649C6.45426 29.697 6.3886 29.6866 6.32748 29.7767L6.26907 29.8057L6.24144 29.7703L6.18575 29.2754L6.21609 29.1939C6.2668 29.2496 6.31027 29.2868 6.33698 29.3334C6.37004 29.39 6.4049 29.4063 6.47192 29.3828C6.52263 29.3637 6.58376 29.3628 6.64171 29.3579C6.73136 29.3502 6.82555 29.3565 6.91339 29.3339C6.95776 29.3216 7.01617 29.2677 7.02523 29.2238C7.03519 29.1876 6.99081 29.1165 6.95278 29.0975C6.82419 29.035 6.82555 28.9327 6.84139 28.8208C6.84446 28.8003 6.85255 28.7809 6.86494 28.7642C6.9238 28.6995 7.17419 28.7448 7.21042 28.8217ZM5.89597 25.2891L6.02546 25.3171C6.12825 25.3443 6.15541 25.3968 6.11919 25.4928C6.10739 25.5321 6.08784 25.5686 6.06169 25.6001C5.97747 25.6853 6.01052 25.8025 5.96977 25.8945C5.91136 26.0357 6.03724 26.0801 6.08252 26.1652L6.14681 26.2295C6.16719 26.2685 6.18892 26.3156 6.18168 26.3554C6.17488 26.3984 6.14047 26.4392 6.11376 26.4776C6.06938 26.5401 6.0644 26.5967 6.12508 26.6506C6.23465 26.7475 6.2419 26.8177 6.16447 26.9508L6.08795 27.1048L5.98109 27.2433C5.94487 27.2863 5.90366 27.3257 5.87695 27.3746C5.86699 27.395 5.88419 27.4548 5.90004 27.4593C5.92857 27.467 5.98924 27.4575 5.99558 27.4403C6.04539 27.2981 6.25503 27.2999 6.27405 27.1315L6.34423 27.0948C6.41894 27.0744 6.43569 27.0224 6.44792 26.9504C6.45969 26.8856 6.49818 26.8254 6.53123 26.7661L6.61273 26.6877C6.68473 26.6121 6.67522 26.5324 6.57334 26.5098C6.47373 26.4867 6.45878 26.426 6.46377 26.3463C6.46875 26.2436 6.45471 26.1516 6.3723 26.076C6.35283 26.0584 6.34468 26.0199 6.34559 25.9914C6.3637 25.7373 6.30619 25.4792 6.39449 25.2302L6.39539 25.17L6.40037 24.8906L6.40536 24.7276C6.42075 24.5266 6.33789 24.3273 6.38996 24.1227C6.39811 24.0951 6.36823 24.0561 6.34785 24.0267L6.28401 24.0357C6.17488 24.1041 6.09067 24.3255 6.121 24.4528C6.13187 24.5021 6.14772 24.5533 6.14772 24.6022L6.09927 24.6792L5.87921 24.781C6.0875 24.753 6.1536 24.8263 6.12779 25.0301C6.12372 25.0631 6.10425 25.1048 6.07799 25.1193L5.99241 25.0821L5.87785 25.0369C5.84072 25.0844 5.80405 25.1419 5.79771 25.2003C5.79409 25.2257 5.85657 25.2678 5.89597 25.2891ZM9.2765 25.0251C9.39966 25.0328 9.42502 25.0613 9.43588 25.175C9.44992 25.3049 9.44449 25.4245 9.27922 25.482C9.40283 25.5644 9.36751 25.6445 9.3254 25.7278C9.27379 25.832 9.28012 25.9243 9.35846 26.0217C9.39649 26.0706 9.39876 26.1512 9.41143 26.2187C9.42094 26.2762 9.41324 26.3391 9.43317 26.3921C9.45444 26.4409 9.4627 26.4943 9.45714 26.5473C9.45159 26.6002 9.43241 26.6508 9.40147 26.6941C9.31635 26.8168 9.31635 26.872 9.40147 26.9875C9.47075 27.079 9.50878 27.1682 9.46532 27.2904C9.44494 27.3488 9.45626 27.4317 9.47935 27.4928C9.52644 27.6142 9.5921 27.7274 9.69126 27.8193C9.73222 27.8614 9.76209 27.9131 9.77819 27.9696C9.81623 28.0964 9.87871 28.2227 9.80219 28.3617C9.76416 28.431 9.48071 28.4912 9.54772 28.5315C9.74107 28.6452 9.75737 28.8299 9.77321 29.0237C9.78227 29.1292 9.81532 29.2338 9.84521 29.3366C9.85155 29.3583 9.88822 29.376 9.9163 29.3886C10.0449 29.4457 10.0562 29.4937 10.0811 29.6286C10.1096 29.7939 10.1671 29.9569 10.2355 30.109L10.5597 30.7429C10.6349 30.9064 10.6806 31.0839 10.7454 31.2519C10.7816 31.3483 10.8205 31.342 10.9102 31.2935C11.0365 31.2261 11.1741 31.1794 11.3086 31.1233L11.3947 31.0798L11.3444 30.9924L11.2883 30.9349L11.2955 30.8036C11.3353 30.8081 11.391 30.7977 11.4132 30.8199C11.4775 30.8797 11.5482 30.9449 11.5798 31.0228C11.6537 31.2084 11.7682 31.3524 11.9348 31.4588C12.0086 31.5059 12.0331 31.5734 12.0313 31.6598C12.0286 31.8025 12.1083 31.8604 12.2531 31.8423C12.3319 31.8315 12.4143 31.8468 12.494 31.8459L12.629 31.8301C12.6181 31.778 12.6249 31.7119 12.5959 31.6761C12.5117 31.5774 12.4089 31.4964 12.3224 31.4013C12.2703 31.3417 12.227 31.2749 12.1938 31.203C12.1449 31.0952 12.1083 30.9807 12.0661 30.8693L11.9421 30.5582C11.918 30.5028 11.885 30.4517 11.8443 30.407C11.7198 30.2772 11.5907 30.152 11.4571 30.0316C11.425 30.0026 11.358 29.9768 11.3286 29.9918C11.2937 30.0085 11.272 30.0719 11.2683 30.1167L11.2937 30.2553C11.2901 30.3128 11.2783 30.3825 11.2389 30.4192C11.2158 30.4423 11.128 30.4332 11.094 30.407C11.0265 30.3561 10.9713 30.2909 10.9324 30.2159C10.8572 30.0615 10.7988 29.8994 10.7404 29.7377C10.7327 29.7147 10.7653 29.6594 10.7934 29.6449C10.8613 29.6078 10.9373 29.5829 11.0111 29.5598C11.0696 29.5412 11.1574 29.5503 11.1805 29.5136C11.2099 29.472 11.1746 29.3914 11.1882 29.3307C11.2058 29.2329 11.1692 29.1704 11.099 29.1088C10.9102 28.939 10.7775 28.7439 10.8518 28.4699C10.8541 28.4466 10.8529 28.4231 10.8481 28.4002C10.8092 28.2005 11.037 28.0389 10.9106 27.8763C10.8708 27.8261 10.8527 27.7563 10.835 27.6938C10.7929 27.5666 10.7766 27.424 10.7141 27.309C10.6353 27.1741 10.5902 27.0222 10.5828 26.8661C10.5792 26.7389 10.624 26.6108 10.5588 26.4863L10.5602 26.4048C10.5425 26.2254 10.5312 26.0457 10.5018 25.8673L10.4103 25.5454C10.3886 25.3968 10.3963 25.2415 10.38 25.0908L10.1599 24.5085C10.1572 24.6642 10.1554 24.8204 10.1332 24.9744C10.1205 25.0595 10.1056 25.1347 10.1318 25.2225C10.1477 25.2705 10.1205 25.3421 10.0933 25.39C10.0603 25.4489 10.0526 25.4955 10.0897 25.5503L10.1558 25.6653C10.1819 25.6993 10.1985 25.7396 10.2039 25.782C10.2094 25.8245 10.2036 25.8676 10.1871 25.9071C10.1751 25.952 10.1741 25.9991 10.1843 26.0443C10.1943 26.1068 10.2188 26.1806 10.1422 26.2005C10.1028 26.2096 10.0435 26.1616 10.0037 26.1267C9.97749 26.0997 9.96287 26.0634 9.96293 26.0258L9.98965 25.5517C9.99101 25.5168 9.99101 25.4666 9.97063 25.4471C9.87147 25.357 9.89683 25.2642 9.95795 25.1723C9.99372 25.1193 9.98965 25.0785 9.9652 25.0219C9.93513 24.9544 9.91676 24.8823 9.91086 24.8087L9.91132 24.4143C9.91086 24.3776 9.88596 24.3405 9.87147 24.3038L9.78001 24.3477C9.72477 24.3966 9.68356 24.4061 9.63647 24.3391C9.59074 24.2762 9.5432 24.292 9.52146 24.3545C9.49793 24.4318 9.48528 24.5119 9.48388 24.5927L9.49429 24.8779C9.49294 24.9151 9.45264 24.9513 9.42955 24.9884C9.39287 24.9613 9.34578 24.9422 9.32133 24.9074L9.28194 24.7829C9.2679 24.7575 9.23168 24.7389 9.20224 24.7308C9.18911 24.7263 9.15832 24.7507 9.14882 24.7679C9.06279 24.9105 9.11757 25.0142 9.2765 25.0251ZM10.5814 28.1973L10.6539 28.2847L10.4166 28.5283C10.4311 28.5944 10.4642 28.632 10.5321 28.6361C10.6181 28.642 10.6344 28.6864 10.614 28.7615C10.5855 28.877 10.557 28.9929 10.6217 29.1093C10.6294 29.1274 10.6231 29.1659 10.6104 29.1826L10.5176 29.2075C10.4551 29.1278 10.3727 29.0581 10.3369 28.9694C10.2729 28.7978 10.2215 28.6218 10.183 28.4428C10.1703 28.3816 10.4895 28.3314 10.5067 28.2675C10.5131 28.2404 10.5561 28.2209 10.5814 28.1973ZM9.73654 26.5755C9.76416 26.5189 9.80853 26.4967 9.87826 26.5415C9.97018 26.6013 10.0132 26.5908 10.0576 26.4849C10.0924 26.4007 10.1517 26.3753 10.2342 26.3735C10.336 26.3708 10.3908 26.4156 10.3944 26.5161L10.3831 26.8086L10.3972 26.9377C10.4162 27.0296 10.4411 27.122 10.4542 27.2143C10.4836 27.4163 10.5117 27.62 10.5289 27.8233C10.5325 27.8718 10.5131 27.9519 10.48 27.9691C10.4166 28.0017 10.3655 27.9451 10.3428 27.884C10.3125 27.8048 10.3034 27.7156 10.2627 27.6427C10.168 27.4697 10.1056 27.2922 10.1201 27.0916C10.1219 27.0518 10.0911 27.0088 10.0793 26.9667C10.0413 26.8363 10.0363 26.8344 9.91403 26.8856C9.88596 26.8965 9.84385 26.8992 9.81985 26.8865C9.75872 26.8548 9.7053 26.6533 9.73654 26.5755ZM9.66636 25.5023C9.68583 25.5666 9.70892 25.6083 9.70394 25.6445C9.70031 25.6635 9.62877 25.6952 9.61383 25.6839C9.57489 25.6567 9.54908 25.6087 9.51648 25.5698L9.66636 25.5023ZM4.73954 30.4839L4.77938 30.575C4.77015 30.5323 4.75681 30.4906 4.73954 30.4504V30.4839ZM4.76399 30.1018C4.72595 29.9809 4.70014 29.8681 4.77033 29.7495C4.7793 29.7335 4.78478 29.7158 4.78642 29.6976C4.78806 29.6793 4.78582 29.6609 4.77984 29.6436C4.74609 29.5519 4.70139 29.4646 4.64672 29.3837C4.58106 29.2958 4.56657 29.2066 4.63132 29.131C4.69245 29.0622 4.67479 29.0323 4.75584 28.9852C4.76987 28.9771 4.83236 29.0106 4.83779 29.0337C4.87492 29.1745 4.91975 29.3171 4.92473 29.4602C4.93107 29.5725 4.9202 29.6771 4.98586 29.7812C5.01529 29.8288 5.00759 29.9062 4.99944 29.9682C4.99627 29.989 4.94329 30.0072 4.91431 30.0221C4.85455 30.0542 4.85319 30.1004 4.9116 30.1394L5.05785 30.2336C5.11128 30.2766 5.13211 30.3309 5.10449 30.4056C5.07278 30.5007 5.04812 30.598 5.03068 30.6968C5.01529 30.7783 5.04744 30.8249 5.13754 30.8317C5.22357 30.838 5.26161 30.8919 5.29511 30.9721C5.33858 31.0794 5.40061 31.1835 5.46763 31.2795C5.53011 31.3651 5.61705 31.3519 5.66368 31.2605C5.69312 31.2043 5.71666 31.1432 5.7959 31.155C5.87785 31.1668 5.92811 31.2147 5.94623 31.2999C5.95573 31.3461 5.97339 31.3922 5.99649 31.4334C6.0309 31.4932 6.0807 31.5403 6.15677 31.5059C6.2256 31.4742 6.23148 31.4076 6.20522 31.3479C6.1822 31.2917 6.15075 31.2393 6.11195 31.1926C6.05535 31.1278 6.02999 31.0603 6.07708 30.9874C6.12462 30.9136 6.11149 30.8493 6.07889 30.776C6.04765 30.7049 6.0146 30.6311 6.0069 30.5564C6.00192 30.4925 5.98426 30.4482 5.92268 30.4346C5.83432 30.4127 5.74414 30.3989 5.65327 30.3934C5.50838 30.3866 5.43955 30.3164 5.46763 30.2254C5.55275 30.2041 5.6252 30.2068 5.66776 30.1729C5.73975 30.1167 5.69719 30.0443 5.65553 29.9813C5.62828 29.9398 5.61131 29.8924 5.60604 29.8431C5.60076 29.7937 5.60733 29.7438 5.6252 29.6974C5.65463 29.6173 5.64829 29.5535 5.5763 29.4869C5.53645 29.4502 5.53102 29.3723 5.51472 29.3121L5.50068 29.2021C5.43502 29.0558 5.43412 28.9046 5.45585 28.7507C5.47125 28.613 5.43684 28.5066 5.31911 28.4215C5.29421 28.4038 5.28787 28.3413 5.29285 28.3015L5.3422 28.201C5.37163 28.1222 5.32952 27.9922 5.26342 27.9542C5.17558 27.9053 5.13165 27.9696 5.08139 28.0226L5.07506 28.0298C5.02887 28.0769 4.99582 28.0656 4.98269 28.0036L4.95914 27.8736C4.89122 27.6626 4.89032 27.6626 5.09453 27.5739C5.16878 27.5422 5.24531 27.3914 5.21361 27.3239C5.17422 27.2374 5.09815 27.2759 5.03249 27.2859C4.93333 27.3026 4.86904 27.2619 4.82919 27.1731C4.78844 27.0862 4.74225 27.0029 4.70784 26.9137C4.68601 26.8511 4.67483 26.7853 4.67479 26.719C4.6766 26.5347 4.78799 26.3563 4.71192 26.167L4.71554 26.1267C4.75629 26.0113 4.72595 25.9012 4.6766 25.7994L4.49458 25.8655C4.49413 25.9461 4.48054 26.0344 4.50726 26.1064C4.57336 26.2897 4.60189 26.4709 4.55978 26.6633C4.55027 26.7077 4.56431 26.7597 4.57699 26.8064C4.62136 26.9431 4.7015 27.069 4.63042 27.2257C4.60301 27.292 4.5998 27.3659 4.62136 27.4344C4.71554 27.6938 4.79931 27.9524 4.74361 28.2345L4.74452 28.2648L4.82466 28.6932C4.83598 28.7656 4.82149 28.8204 4.75222 28.8566L4.76354 28.8987C4.67705 28.9567 4.56114 28.9476 4.52265 28.858C4.46198 28.723 4.39949 28.5786 4.38998 28.4355C4.3773 28.253 4.42394 28.0814 4.31708 27.9352C4.27814 27.879 4.15408 27.803 4.1663 27.7346C4.19936 27.5453 4.26139 27.3828 4.16132 27.2229L4.10608 27.0939C4.08886 27.0547 4.07105 27.0157 4.05265 26.9771C3.98292 27.0563 4.02956 27.1138 4.05401 27.1686C4.10789 27.2999 4.08344 27.4222 4.00919 27.5743C3.99153 27.6114 4.00013 27.6739 4.01824 27.7147C4.1251 27.9574 4.16993 28.3056 4.2229 28.5532L4.20253 28.6723C4.20253 28.7258 4.20887 28.7792 4.21928 28.8313C4.24464 28.9621 4.29671 29.093 4.29037 29.222C4.28131 29.4434 4.33972 29.639 4.46017 29.8147C4.53442 29.9257 4.68384 30.071 4.64762 30.2C4.63951 30.2415 4.64675 30.2845 4.668 30.3209L4.73863 30.4518C4.72641 30.3377 4.79976 30.2105 4.76399 30.1018ZM5.02027 28.301C5.03476 28.2775 5.07913 28.2553 5.10585 28.2603C5.16833 28.273 5.21587 28.3939 5.20003 28.479C5.15927 28.4953 5.11535 28.5311 5.07868 28.5243C5.01574 28.5116 4.98269 28.3739 5.02027 28.301ZM5.536 32.1208C5.64738 32.0089 5.81582 32.028 5.86427 32.1792C5.89597 32.2806 5.94985 32.3562 6.04041 32.4056L6.16175 32.4454C6.16809 32.3947 6.18983 32.3386 6.17217 32.296C6.12146 32.1674 6.04991 32.0447 5.99422 31.9175C5.94532 31.807 5.90457 31.797 5.79816 31.855C5.75741 31.8767 5.71168 31.884 5.66459 31.8926C5.645 31.9043 5.62198 31.9089 5.59939 31.9057H5.59848L5.58943 31.9043C5.57172 31.9002 5.55476 31.8933 5.53917 31.884C5.37752 31.7912 5.38476 31.6245 5.35941 31.4733C5.34492 31.3877 5.26976 31.289 5.23308 31.2161L4.94601 30.8638C4.91431 30.7701 4.83281 30.6709 4.77938 30.575C4.78844 30.6216 4.79342 30.6705 4.78844 30.7289L4.80655 30.7855C4.87266 30.9001 4.92745 30.8317 4.98314 30.9508C5.03159 31.0572 4.9691 31.1686 5.00487 31.2813C5.02525 31.337 5.04562 31.399 5.07958 31.4439C5.14479 31.5222 5.25255 31.6005 5.23127 31.7006C5.22357 31.7373 5.25164 31.8084 5.28334 31.8242C5.37435 31.8695 5.39382 31.9487 5.41827 32.0298L5.44997 32.1579C5.47713 32.3064 5.64059 32.5206 5.65734 32.67C5.66504 32.7488 5.69583 32.7656 5.76285 32.7443C5.85521 32.7162 5.89597 32.6333 5.86472 32.5215C5.81627 32.3571 5.40514 32.2539 5.536 32.1208ZM5.66459 31.8926C5.67811 31.8847 5.69045 31.8749 5.70127 31.8636C5.73568 31.8305 5.60527 31.8908 5.58943 31.9043L5.59939 31.9057L5.66459 31.8926ZM9.42819 37.3904H9.38064L9.38517 37.3845C9.38064 37.3342 9.35982 37.2858 9.33582 37.2074L9.23394 37.2767L9.26428 37.3519L9.15244 37.2654C9.12753 37.2477 9.09448 37.2246 9.06595 37.2246C8.86899 37.2278 8.84363 37.1957 8.89933 37.0155L8.89435 36.9054C8.85993 36.9258 8.81284 36.9376 8.79383 36.9684C8.73678 37.0567 8.66523 37.0657 8.57196 37.0422C8.47687 37.0186 8.47823 36.9358 8.44925 36.8692C8.35507 36.6727 8.35643 36.6627 8.53981 36.5513C8.5946 36.5183 8.61588 36.4789 8.58871 36.4146C8.53076 36.2729 8.53619 36.2548 8.6512 36.1429C8.71549 36.0809 8.72319 35.9799 8.66569 35.8713C8.62267 35.7893 8.54343 35.7734 8.46238 35.7839C8.35236 35.7979 8.31342 35.8916 8.38088 35.9831C8.43431 36.0587 8.42299 36.1126 8.34511 36.1592L8.23282 36.2335C8.16852 36.272 8.07842 36.2448 8.03721 36.1778C7.99012 36.0981 8.05125 36.0827 8.10332 36.0524L8.15222 35.9731L8.06257 35.9591L7.92628 35.9835L7.82531 35.9233C7.78637 35.8599 7.73022 35.7925 7.72524 35.7232C7.7189 35.6376 7.8081 35.6109 7.88191 35.5837C7.9942 35.5443 8.10242 35.514 8.21516 35.5932C8.23191 35.6041 8.27674 35.5747 8.30979 35.5638L8.28625 35.5027C8.31821 35.5333 8.35591 35.5573 8.39718 35.5733C8.46555 35.6 8.5063 35.5733 8.53302 35.509C8.56471 35.4289 8.53438 35.3786 8.47144 35.3496C8.37771 35.313 8.25953 35.3361 8.23689 35.389V35.3958L8.21063 35.3496C8.16173 35.2903 8.08159 35.3016 8.01095 35.3406L7.85293 35.4071C7.7592 35.4465 7.66728 35.4895 7.56993 35.5231C7.53416 35.5357 7.47485 35.5448 7.45809 35.5267C7.38882 35.4492 7.31456 35.3809 7.29554 35.2632C7.28015 35.1726 7.2154 35.0861 7.15744 35.0105C7.14386 34.9919 7.05602 35.0019 7.02704 35.0268C7.01358 35.0378 7.00247 35.0514 6.99438 35.0668C6.98629 35.0822 6.98138 35.099 6.97995 35.1164C6.97851 35.1337 6.98058 35.1511 6.98602 35.1676C6.99147 35.1841 7.00018 35.1994 7.01164 35.2124C7.0619 35.2745 7.12801 35.3211 7.19004 35.3736L7.272 35.4456C7.35078 35.6204 7.42142 35.7997 7.49703 35.9754L7.53824 36.042C7.63559 36.0927 7.70577 36.1579 7.71573 36.2742L7.74245 36.3154C7.85927 36.4241 7.98197 36.5283 8.09472 36.6424C8.14407 36.694 8.20022 36.7596 8.21154 36.8271C8.23056 36.9349 8.25093 37.0222 8.36956 37.0598L8.42616 37.1305C8.45242 37.1644 8.47506 37.2083 8.50993 37.2301C8.64305 37.3107 8.76485 37.3962 8.87171 37.5199C8.97223 37.6335 9.04286 37.7508 9.10308 37.8844L9.15968 37.9595L9.23168 37.8934C9.28511 37.8047 9.35257 37.7417 9.45943 37.7186C9.49113 37.7123 9.5355 37.6697 9.53686 37.6421C9.5362 37.5743 9.52458 37.507 9.50245 37.4429C9.4952 37.4193 9.44811 37.3863 9.42819 37.3904ZM12.1015 35.9319C12.1386 35.8604 12.101 35.8115 12.0494 35.7635C12.0209 35.735 11.9995 35.7003 11.9869 35.6621C11.9539 35.5375 11.905 35.5068 11.7822 35.5394C11.7252 35.5538 11.6681 35.5742 11.6115 35.5742C11.5101 35.5733 11.3856 35.4569 11.4245 35.4003C11.5015 35.2885 11.439 35.2315 11.3702 35.1595C11.3381 35.1273 11.3231 35.0752 11.3082 35.0318C11.2633 34.9276 11.2104 34.9036 11.1071 34.9408C10.9672 34.991 10.9355 34.9706 10.8871 34.8371C10.8454 34.7189 10.8187 34.5871 10.6743 34.5323C10.6353 34.5179 10.5987 34.464 10.5882 34.4223C10.533 34.1792 10.3188 34.0949 10.1395 33.9818C10.077 33.941 10.0299 33.8966 10.0435 33.8292C10.059 33.7766 10.0931 33.7315 10.1395 33.7024C10.221 33.6494 10.231 33.5919 10.1477 33.5448C10.1024 33.5236 10.0506 33.5206 10.0032 33.5367C9.87464 33.5815 9.75646 33.6055 9.665 33.4914L9.48433 33.5901C9.45898 33.6073 9.42547 33.6435 9.42728 33.6702C9.43362 33.8206 9.55814 33.9415 9.71345 33.9555C9.80672 33.9632 9.86468 34.0098 9.89864 34.094L9.99327 34.2969C10.0105 34.344 10.0123 34.397 10.0195 34.4481V34.5265L10.1028 34.5188C10.1536 34.5219 10.2251 34.5129 10.2509 34.5423C10.3329 34.6288 10.4207 34.7212 10.4633 34.8271C10.5149 34.9607 10.5923 35.0164 10.7281 35.015C10.8124 35.015 10.9328 35.1355 10.9496 35.2346C10.965 35.3198 10.9165 35.3804 10.8404 35.4234C10.816 35.4384 10.787 35.4769 10.7906 35.5009C10.7938 35.5267 10.8278 35.5624 10.8545 35.5692C10.8994 35.5816 10.9469 35.5813 10.9917 35.5683C11.1787 35.5081 11.3222 35.5683 11.3987 35.7481L11.4793 35.9374C11.5042 35.9989 11.5495 36.0189 11.6174 36.0143C11.6704 36.0103 11.7229 36.0288 11.7741 36.041L11.9113 36.0777C12.01 36.0813 12.0607 36.0103 12.1015 35.9319ZM7.74516 24.8105C7.77025 24.8403 7.78775 24.8758 7.79618 24.9139C7.80462 24.952 7.80374 24.9915 7.79361 25.0292C7.7669 25.146 7.76554 25.2687 7.75558 25.3896L7.74109 25.6599C7.73747 25.7088 7.72796 25.7654 7.74924 25.8057C7.81987 25.9483 7.90319 26.0851 7.98469 26.2227C8.03042 26.3011 8.04355 26.3708 7.96929 26.4432C7.91451 26.4967 7.91451 26.5492 7.99827 26.585C8.07706 26.6198 8.08747 26.6837 8.06529 26.7643C8.0354 26.8684 8.01095 26.9748 7.9942 27.0821C7.98288 27.1586 8.05442 27.2121 8.12777 27.1876C8.28489 27.1365 8.3347 26.9812 8.23463 26.8539C8.18709 26.7923 8.14045 26.7235 8.18935 26.6493C8.27583 26.5184 8.27946 26.3912 8.20112 26.2562L8.18482 26.1978C8.15992 26.0828 8.20203 26.0221 8.32021 26.0095L8.43024 25.9932L8.51989 25.9189C8.48819 25.8976 8.4574 25.8614 8.42209 25.8573C8.33107 25.8474 8.29757 25.7953 8.27629 25.7133C8.26361 25.6653 8.23644 25.6056 8.1966 25.5838C8.10513 25.5331 8.09472 25.4584 8.09336 25.3688C8.08994 25.2649 8.08042 25.1613 8.06483 25.0586C8.05034 24.9739 7.99782 24.8852 8.01457 24.8127C8.06393 24.6153 7.98152 24.446 7.94711 24.2649L7.68132 24.1385C7.69671 24.206 7.69264 24.2789 7.694 24.35C7.69581 24.4039 7.70351 24.4605 7.69038 24.5125C7.6614 24.6217 7.67272 24.7172 7.74516 24.8105ZM8.45106 28.2105C8.40262 28.1448 8.35688 28.1498 8.31976 28.2209C8.26814 28.321 8.20927 28.4183 8.17079 28.5225C8.14724 28.5791 8.15675 28.6474 8.15811 28.7108L8.17667 28.8308C8.15947 28.9562 8.21924 29.0119 8.33379 29.0549C8.52849 29.1278 8.58735 29.2587 8.54208 29.4624L8.53302 29.5123C8.51627 29.6531 8.55204 29.6834 8.68697 29.6472C8.71232 29.6399 8.76304 29.6531 8.77119 29.6694C8.78205 29.6925 8.7653 29.7305 8.75262 29.7586L8.71187 29.788C8.58283 29.8777 8.57015 29.9533 8.66025 30.0755C8.68859 30.1098 8.70868 30.1501 8.71896 30.1934C8.72924 30.2366 8.72945 30.2817 8.71957 30.325C8.68969 30.4681 8.6924 30.4681 8.83956 30.5125C8.92604 30.5383 9.01524 30.5641 9.03879 30.6664C9.06958 30.8014 9.17598 30.8765 9.27469 30.953C9.30922 30.9742 9.35005 30.9827 9.39015 30.977C9.51558 30.9621 9.55904 30.9032 9.5604 30.7665C9.56176 30.6076 9.52237 30.5573 9.39015 30.5297C9.13568 30.4744 9.12663 30.3671 9.21583 30.2105C9.29099 30.0398 9.28963 30.0293 9.19545 29.8681L9.07501 29.6549C9.01977 29.572 8.97268 29.4692 8.89389 29.4163C8.6915 29.2786 8.67248 29.2501 8.70825 29.006C8.71902 28.9262 8.7116 28.8449 8.68652 28.7683C8.6358 28.6089 8.56698 28.4532 8.50359 28.2961L8.45106 28.2105ZM12.2006 35.2844C12.2418 35.2536 12.2808 35.2183 12.3279 35.1989C12.446 35.1509 12.5434 35.1961 12.5556 35.3021C12.566 35.4139 12.5651 35.5258 12.581 35.6363C12.586 35.6797 12.6145 35.7372 12.6507 35.754C12.6874 35.7725 12.7476 35.7621 12.792 35.7436L12.993 35.6308C13.1044 35.5769 13.1239 35.5122 13.0578 35.4103L12.9541 35.2478C12.9097 35.15 12.8454 35.1042 12.7363 35.125L12.6548 35.1241L12.5814 35.0657C12.5044 34.9793 12.4343 34.8919 12.3174 34.847C12.2654 34.828 12.2237 34.7596 12.1929 34.7049C12.1345 34.6016 12.1499 34.5726 12.2545 34.5142L12.3034 34.4581L12.2296 34.4187L12.1698 34.4259C12.0757 34.4481 11.9964 34.4441 11.9335 34.3558C11.8936 34.3019 11.833 34.3127 11.8112 34.3707C11.7906 34.4267 11.7831 34.4866 11.7895 34.5459C11.7958 34.6084 11.8216 34.67 11.8443 34.7298L11.8977 34.8384L12.0381 35.1042L12.0897 35.2591C12.1114 35.3188 12.1504 35.322 12.2006 35.2844ZM9.35302 36.1751C9.47075 36.2625 9.60794 36.3322 9.65956 36.4893C9.70394 36.6242 9.76959 36.6442 9.90769 36.6016L10.1327 36.5541C10.2016 36.526 10.2722 36.4821 10.322 36.4282C10.3424 36.4078 10.312 36.3399 10.2994 36.2683L10.2256 36.3281C10.1146 36.4363 10.0766 36.4282 10.01 36.2951C9.99146 36.2588 9.94437 36.219 9.90769 36.2163C9.7791 36.205 9.70167 36.1538 9.66862 36.0216C9.63738 35.898 9.55859 35.8142 9.41551 35.8079C9.38472 35.8056 9.33944 35.7558 9.32993 35.72C9.31046 35.6544 9.28375 35.6068 9.21085 35.5969C9.08588 35.5787 9.00211 35.5049 8.94461 35.3949C8.93045 35.3606 8.90691 35.3309 8.87669 35.3093C8.83148 35.2848 8.78169 35.2698 8.73044 35.2654L8.68199 35.3329L8.80152 35.4126C8.84907 35.4461 8.91155 35.4719 8.93872 35.5181C8.99713 35.6154 9.0329 35.7268 9.08633 35.8278C9.12301 35.8943 9.10897 35.9464 9.06007 35.9926L8.9677 36.0564C8.89752 36.1062 8.87986 36.1638 8.93646 36.2385L9.02339 36.3978L9.12255 36.4757C9.12753 36.4363 9.15063 36.3911 9.1384 36.3598C9.1135 36.2928 9.11848 36.2439 9.17327 36.1964C9.23032 36.147 9.29642 36.1307 9.35302 36.1751ZM6.71642 34.1031C6.55161 34.0153 6.50406 33.8772 6.52263 33.7006C6.52716 33.6557 6.52353 33.5991 6.50044 33.5643C6.45607 33.495 6.46105 33.4352 6.49184 33.3632C6.54255 33.2423 6.45471 33.0599 6.32838 33.016C6.22786 32.9793 6.11647 32.9589 6.04991 32.8579C6.03769 32.8403 5.98969 32.8299 5.96932 32.8403C5.95075 32.848 5.93898 32.8896 5.93989 32.9154C5.94577 33.0404 5.96796 33.1663 5.96162 33.2885C5.9549 33.3598 5.9682 33.4316 6.00004 33.4958C6.03187 33.5599 6.08098 33.6139 6.14183 33.6517C6.17941 33.6775 6.22152 33.7332 6.21745 33.773C6.20839 33.9098 6.25186 33.9908 6.39313 34.0266C6.43162 34.0365 6.46512 34.1072 6.48097 34.1552C6.49999 34.2158 6.49999 34.2829 6.50995 34.3472C6.51855 34.4038 6.52127 34.4631 6.543 34.5156C6.56972 34.5908 6.62586 34.5912 6.66752 34.5237L6.754 34.3775C6.81423 34.2276 6.80472 34.1506 6.71642 34.1031ZM5.34673 25.8759L5.35216 26.028C5.37933 26.1711 5.35624 26.3251 5.44182 26.4573L5.4468 26.5184C5.4314 26.7366 5.4142 26.9585 5.40107 27.179C5.39976 27.2123 5.40547 27.2455 5.41782 27.2764L5.51562 27.5286L5.57222 27.5933L5.63108 27.5322C5.64201 27.5036 5.64375 27.4722 5.63606 27.4425C5.58128 27.2637 5.66323 27.1202 5.75062 26.9793C5.78639 26.9246 5.79001 26.8852 5.7479 26.834C5.69936 26.7732 5.65561 26.7087 5.61705 26.6411C5.54324 26.508 5.56407 26.4618 5.70987 26.4197C5.81537 26.3894 5.84933 26.3246 5.82171 26.2177C5.79635 26.1177 5.72934 26.0534 5.64104 26.0054C5.56724 25.9646 5.5446 25.9022 5.54324 25.8188C5.54228 25.6829 5.53382 25.5472 5.51789 25.4122C5.51019 25.3615 5.46898 25.3149 5.45631 25.2864C5.34266 25.2474 5.31322 25.2995 5.31322 25.3633C5.31322 25.4738 5.32454 25.5852 5.33224 25.6957L5.34673 25.8759ZM11.1311 37.624C11.1642 37.6512 11.2163 37.667 11.257 37.6634C11.2837 37.6611 11.3295 37.6054 11.3258 37.5905C11.3091 37.5516 11.271 37.5212 11.2416 37.4891L11.2058 37.466C11.0913 37.3886 11.0718 37.3315 11.1103 37.197L11.128 37.1096L11.0569 37.0286L11.0111 37.1087L11.0034 37.3424C10.993 37.4166 10.9613 37.4918 10.8767 37.4963C10.7132 37.5054 10.6217 37.6439 10.4823 37.6964C10.4497 37.7082 10.4207 37.778 10.427 37.8151C10.4334 37.8504 10.4832 37.8966 10.5199 37.9038C10.6018 37.921 10.61 37.9722 10.6 38.032C10.5733 38.1864 10.7386 38.3208 10.8749 38.3335C10.9206 38.3376 10.9881 38.3005 11.013 38.262C11.0261 38.2402 10.9781 38.1778 10.9586 38.1329C10.9432 38.1012 10.9115 38.0578 10.9228 38.0392C10.9636 37.9677 10.9505 37.9065 10.9215 37.8355C10.9011 37.7866 10.9043 37.7281 10.8975 37.6734C10.9785 37.5312 11.0152 37.5257 11.1311 37.624ZM11.4866 32.2761C11.5432 32.3295 11.5744 32.3141 11.6188 32.263C11.6842 32.1871 11.7559 32.1168 11.833 32.0529C11.9131 31.9881 11.9222 31.8971 11.9104 31.8147C11.8991 31.7318 11.8189 31.697 11.7374 31.7065C11.6355 31.7187 11.5581 31.6784 11.4825 31.6214C11.4404 31.5897 11.387 31.5489 11.3394 31.5494C11.2389 31.5516 11.1674 31.524 11.1175 31.4267C11.0469 31.5566 11.0822 31.6834 11.128 31.7984C11.2036 31.9881 11.3408 32.1353 11.4866 32.2761ZM10.5289 37.2219C10.5891 37.2043 10.6453 37.1699 10.7037 37.1427C10.7218 37.0598 10.6797 36.972 10.5955 36.9032C10.5421 36.8574 10.5027 36.8914 10.4619 36.9217C10.3283 37.0218 10.1961 37.1137 10.0155 37.0965C9.97606 37.0929 9.92762 37.1196 9.89366 37.1445C9.79766 37.2138 9.79766 37.3686 9.89818 37.4216C9.99599 37.4737 10.0571 37.5402 10.0757 37.6534C10.0902 37.7331 10.1703 37.7508 10.2391 37.7368C10.3102 37.7232 10.3052 37.6607 10.2953 37.6041L10.2812 37.5434C10.2926 37.4474 10.2912 37.3419 10.3297 37.2586C10.346 37.2233 10.4628 37.24 10.5289 37.2219ZM13.6111 36.2991C13.6604 36.3091 13.7057 36.3412 13.751 36.3675L13.8424 36.4336L13.9697 36.4703C14.0716 36.4961 14.1336 36.4667 14.1476 36.3901C14.1603 36.3159 14.0697 36.1932 13.9978 36.1873C13.8003 36.171 13.756 36.1348 13.7012 35.9401C13.6935 35.907 13.6681 35.8554 13.6464 35.8536C13.5332 35.8432 13.5015 35.7707 13.4847 35.6761C13.4802 35.6562 13.4467 35.6281 13.4309 35.6308C13.41 35.6335 13.382 35.6625 13.3779 35.6842C13.3754 35.7174 13.3797 35.7507 13.3906 35.7821C13.4236 35.912 13.4657 36.0401 13.4911 36.1719C13.5069 36.248 13.5359 36.2842 13.6111 36.2991ZM10.0888 32.6678C10.2097 32.7479 10.3048 32.7262 10.3727 32.5994L10.4406 32.4617L10.4606 32.4142C10.5113 32.3268 10.485 32.2562 10.4098 32.2005C10.3342 32.1443 10.274 32.1846 10.2201 32.2408C10.159 32.3078 10.0902 32.3096 10.005 32.2924C9.96791 32.2856 9.90452 32.2992 9.88551 32.3263C9.85836 32.3736 9.84517 32.4276 9.84747 32.4821C9.84747 32.5097 9.8769 32.5473 9.90452 32.565L10.0888 32.6678ZM11.5857 37.7372C11.6604 37.7635 11.7442 37.7005 11.7936 37.6054L11.9213 37.4289C11.9398 37.3994 11.9561 37.3537 11.9466 37.3252C11.9154 37.2491 11.8719 37.1744 11.8316 37.1015C11.7999 37.0431 11.6532 37.0164 11.6147 37.0711C11.5989 37.092 11.6306 37.1581 11.6532 37.1934C11.708 37.2704 11.7039 37.3016 11.6183 37.341L11.5613 37.3636C11.4757 37.3922 11.4096 37.4592 11.4132 37.5402C11.4168 37.5955 11.4866 37.6503 11.53 37.7019L11.5857 37.7372ZM9.84883 35.13C9.80446 35.1056 9.7053 35.1771 9.6324 35.2056L9.57851 35.2337L9.44177 35.3573L9.45173 35.5203L9.60749 35.5068C9.6427 35.4949 9.67563 35.4772 9.70484 35.4542C9.77502 35.4067 9.84113 35.4062 9.91448 35.4492C9.95252 35.4719 10.005 35.4859 10.0472 35.4796C10.1038 35.4737 10.1382 35.4216 10.1001 35.3754C10.0263 35.2844 9.94799 35.1862 9.84883 35.13ZM8.82281 34.4373C8.97359 34.5346 9.10897 34.4776 9.24707 34.4092C9.33537 34.3666 9.35891 34.286 9.28601 34.2204L9.19953 34.1669C9.07229 34.0868 9.07275 34.0909 9.02792 34.2294C9.01524 34.2697 8.96544 34.3281 8.93691 34.3268C8.88891 34.325 8.84092 34.2842 8.80017 34.2498L8.72455 34.1452C8.70734 34.1289 8.66433 34.1248 8.64124 34.1353C8.6272 34.142 8.62358 34.1873 8.62856 34.2136C8.64848 34.3254 8.69285 34.4223 8.82281 34.4373ZM12.216 32.2435C12.1992 32.2062 12.1744 32.173 12.1436 32.1461L12.0498 32.1221L12.0313 32.2059C12.0218 32.3033 12.0172 32.4029 11.9996 32.498C11.9815 32.5872 12.015 32.6673 12.1255 32.7144L12.2785 32.6863C12.3731 32.6718 12.3926 32.6438 12.3568 32.5591L12.216 32.2435ZM12.3247 39.3754L12.374 39.3691L12.4383 39.327L12.4053 39.2622L12.3034 39.1504C12.2816 39.1257 12.2593 39.1016 12.2364 39.0779C12.1169 39.0236 12.0326 39.0734 11.9552 39.1169C11.9394 39.1255 11.9353 39.1952 11.9534 39.2201C12.0716 39.4094 12.0987 39.4175 12.3247 39.3754ZM10.696 36.2031C10.7272 36.2059 10.7612 36.1683 10.7938 36.1479C10.7544 36.0827 10.7195 36.0103 10.6693 35.9532C10.6299 35.9097 10.5688 35.8871 10.5217 35.8504C10.4655 35.8079 10.4135 35.7685 10.3342 35.7993L10.3582 35.9011C10.3953 36.0786 10.5153 36.1905 10.696 36.2031ZM8.42435 34.4323C8.40035 34.4522 8.37364 34.5106 8.38496 34.531C8.44654 34.6302 8.51989 34.7216 8.59913 34.8303C8.67474 34.804 8.74493 34.7954 8.79564 34.7606C8.85676 34.7203 8.83367 34.6646 8.76938 34.6297L8.51944 34.4599C8.49182 34.4427 8.43974 34.4205 8.42435 34.4323ZM9.95478 35.7064C9.90498 35.7304 9.83027 35.763 9.82121 35.8042C9.81468 35.8692 9.83331 35.9342 9.87328 35.9858C9.91947 36.0465 9.98421 36.0053 10.0363 35.9695L10.0816 35.9437C10.1187 35.9043 10.1839 35.8599 10.1825 35.8214C10.1789 35.7784 10.1128 35.7395 10.0766 35.7019C10.0272 35.7024 9.98603 35.6924 9.95478 35.7064ZM9.80808 38.1203C9.90362 38.1538 10.0091 38.1248 10.0309 38.0578C10.0716 37.9391 10.0358 37.8228 9.94437 37.7879C9.88188 37.778 9.80627 37.7558 9.76959 37.8459C9.73427 37.9269 9.76371 38.104 9.80808 38.1203ZM7.99556 31.9963C7.96146 31.9456 7.91544 31.9041 7.86153 31.8754C7.84931 31.8677 7.78637 31.9071 7.77822 31.9351C7.7515 32.0148 7.73701 32.0986 7.72117 32.1828C7.70713 32.2584 7.74879 32.3042 7.81897 32.2729C7.88236 32.2444 7.93352 32.1873 7.97518 32.1529C7.98605 32.0809 8.01367 32.0252 7.99556 31.9963ZM8.22195 32.3897C8.14453 32.3947 8.09879 32.4645 8.11781 32.5446L8.14951 32.6931C8.16354 32.7293 8.19252 32.7828 8.21742 32.785C8.25999 32.7868 8.30345 32.7547 8.34783 32.7361L8.33379 32.5129C8.33424 32.4355 8.30753 32.3843 8.22195 32.3897ZM12.2147 33.0454C12.1875 33.0784 12.1748 33.1554 12.1956 33.1889C12.235 33.2537 12.3025 33.3008 12.37 33.3678C12.4017 33.356 12.4515 33.3501 12.4578 33.3293C12.4737 33.2903 12.4795 33.2337 12.461 33.1993C12.4347 33.1509 12.3822 33.116 12.3414 33.0744C12.3039 33.0341 12.2554 32.9933 12.2147 33.0454ZM14.7498 36.4255C14.7897 36.3906 14.6973 36.2815 14.5968 36.243C14.5343 36.2163 14.4899 36.2367 14.4682 36.2987C14.4397 36.3716 14.4922 36.5273 14.5533 36.5215C14.6269 36.5095 14.6952 36.4761 14.7498 36.4255ZM10.7395 33.2686L10.8115 33.2174L10.8427 33.0259C10.8527 32.9553 10.8391 32.8969 10.7571 32.8923C10.6788 32.8887 10.6353 32.9385 10.6394 33.016C10.6417 33.0798 10.6548 33.1445 10.6743 33.2057C10.6806 33.2324 10.7159 33.2673 10.7395 33.2686ZM8.06981 33.1436C8.04944 33.1251 8.00099 33.131 7.96703 33.1368C7.83119 33.1631 7.85655 33.2686 7.86515 33.361L7.90726 33.4556L8.0191 33.4004L8.05668 33.3193L8.05487 33.318L8.08159 33.2423C8.08566 33.2079 8.08928 33.1599 8.06981 33.1436ZM8.31885 27.8831C8.351 27.8021 8.38858 27.7455 8.39265 27.6866C8.39401 27.6445 8.35824 27.5779 8.32202 27.5625C8.27448 27.5435 8.20973 27.5639 8.15358 27.568C8.15992 27.6178 8.15494 27.6753 8.17622 27.7165C8.20656 27.7722 8.25772 27.8143 8.31885 27.8831ZM6.92878 33.917L6.82419 33.8264C6.75808 33.96 6.83324 34.0845 6.85724 34.2095C6.86992 34.2734 6.93105 34.2498 6.96591 34.2054C7.02658 34.128 7.01164 33.9962 6.92878 33.917ZM7.24347 33.5022C7.15246 33.5317 7.14205 33.5806 7.2077 33.7169C7.22083 33.7463 7.25207 33.7852 7.27969 33.7884C7.30233 33.7902 7.33312 33.7504 7.35576 33.7305L7.37116 33.5901C7.36754 33.4891 7.3381 33.4701 7.24347 33.5022ZM9.66228 31.3474C9.60318 31.3257 9.54156 31.3115 9.4789 31.3053C9.44992 31.3044 9.41913 31.3356 9.37476 31.3615C9.39151 31.4054 9.39242 31.4502 9.41732 31.4733C9.4789 31.5317 9.63149 31.4919 9.66092 31.4108L9.66228 31.3474ZM11.3657 36.6994C11.3441 36.6997 11.3229 36.7047 11.3034 36.714C11.2839 36.7233 11.2667 36.7367 11.2529 36.7533C11.2167 36.8022 11.2701 36.9371 11.3231 36.9448L11.411 36.9195C11.4494 36.8226 11.4205 36.7021 11.3657 36.6994ZM9.06867 28.7783C9.07456 28.8304 9.09765 28.8815 9.11893 28.9309C9.13116 28.9558 9.15515 28.9884 9.17644 28.9897L9.2525 28.9386C9.23213 28.8652 9.21764 28.7964 9.18821 28.7335C9.17598 28.7045 9.13387 28.6882 9.10354 28.6669C9.09086 28.7031 9.0655 28.743 9.06867 28.7783ZM8.73723 36.6686C8.71549 36.7619 8.70916 36.8348 8.78794 36.8638C8.82099 36.8737 8.86808 36.8402 8.90748 36.8262C8.88484 36.7632 8.86446 36.6999 8.83186 36.6405L8.73723 36.6686ZM6.25322 32.119C6.28491 32.1833 6.34423 32.2326 6.39404 32.287L6.44928 32.2611C6.48097 32.2032 6.43252 32.0741 6.3723 32.0479C6.31072 32.0203 6.22786 32.0674 6.25322 32.119ZM6.64262 33.6281C6.65077 33.6675 6.6476 33.7219 6.67431 33.7449C6.71325 33.7807 6.76985 33.7979 6.82056 33.8215C6.80245 33.7662 6.79521 33.7028 6.76261 33.6576C6.7445 33.6317 6.68427 33.6372 6.64262 33.6281ZM6.82056 33.8215L6.82192 33.8246L6.82464 33.8264V33.8233L6.82056 33.8215ZM5.61388 31.4751C5.65463 31.5385 5.67093 31.5874 5.7067 31.6109C5.72119 31.6232 5.77235 31.5906 5.80495 31.5783C5.78277 31.534 5.76601 31.4851 5.73387 31.4484L5.61388 31.4751ZM15.6486 39.3396C15.6115 39.3976 15.6676 39.4392 15.7206 39.4447C15.7668 39.4506 15.8157 39.4275 15.8651 39.4175L15.8067 39.2694C15.7365 39.2989 15.6704 39.3057 15.6486 39.3396Z" fill="#B21E28"/>
<path d="M27.8933 29.6147L27.4057 24.2768H25.8019V23.675C26.2365 23.4871 27.0099 23.1027 27.6714 22.5127H25.9024L27.0815 21.258C26.3095 21.3496 25.535 21.4191 24.7591 21.4663C24.3077 21.2861 23.729 21.028 23.2368 20.7246C22.7292 21.037 22.1311 21.3019 21.6738 21.4835C20.2697 21.3947 19.5918 21.1846 19.4302 21.1267L19.3908 21.1131L20.6944 22.5127H18.8031C18.8031 22.5127 19.4116 23.1833 20.6727 23.7339V24.2768H19.0553L18.415 29.6147H21.4193V26.6639H25.0439V29.6147H27.8933Z" fill="#4D4D4D"/>
</g>
<defs>
<clipPath id="clip0_538_13783">
<rect width="40" height="40.3636" fill="white" transform="translate(4 4)"/>
</clipPath>
</defs>
</svg>
