<svg width="48" height="48" viewBox="0 0 48 48" fill="none" xmlns="http://www.w3.org/2000/svg">
<g clip-path="url(#clip0_538_13869)">
<path d="M13.2971 0H27.7629L27.6961 0.134116C24.8445 1.3958 21.5603 5.85946 20.3292 8.8402H30.3746C31.632 8.8402 33.7431 8.53146 34.7278 8.97431L36.2015 11.4522C37.443 13.569 38.3386 16.2322 39.0142 18.819C41.0538 26.6283 39.1746 35.9286 36.1343 41.1205C35.568 42.0868 35.1886 43.2652 34.3931 44H20.3957L20.5298 43.7994C21.5198 43.3932 22.1625 42.4835 22.9409 41.8572C27.0908 38.5188 31.1865 30.2376 29.3032 22.2346C28.4163 18.4664 26.8887 15.6515 24.8831 13.0593C23.9561 11.8611 21.7976 9.32508 20.262 8.90706C19.6992 10.7385 19.0041 12.5167 18.5876 14.6668C17.159 22.0455 20.7385 27.851 23.7448 31.6105C24.7184 32.8282 26.1818 34.4766 27.6964 35.0929V35.2271H13.4312C12.578 33.6047 11.4535 32.0889 10.6855 30.3381C8.48996 25.3353 7.04831 17.2907 8.74291 10.5814C9.4857 7.64003 10.4406 4.77698 11.8238 2.41103L13.2971 0V0Z" fill="#D7000F"/>
</g>
<defs>
<clipPath id="clip0_538_13869">
<rect width="31.8673" height="44" fill="white" transform="translate(8)"/>
</clipPath>
</defs>
</svg>
