<svg width="48" height="48" viewBox="0 0 48 48" fill="none" xmlns="http://www.w3.org/2000/svg">
<g clip-path="url(#clip0_538_13782)">
<path d="M24.091 25.0938L6.93604 29.9237C7.42804 31.8267 6.66204 34.3728 7.77504 35.9128C8.93504 37.5278 11.764 37.5438 13.361 38.7218C14.965 39.9058 15.846 42.6098 17.778 43.2398C19.657 43.8598 21.981 42.2268 24.068 42.2208C26.085 42.2188 28.336 43.8737 30.16 43.2877C32.076 42.6757 32.957 39.9827 34.557 38.8258C36.164 37.6667 38.995 37.6777 40.174 36.0798C41.35 34.4827 40.521 31.7808 41.146 29.8488L24.091 25.0938Z" fill="#C7000B"/>
<path d="M20.313 23.8147C20.313 23.5467 20.157 23.3147 19.931 23.2007L6.83301 18.8047C6.11601 20.5967 3.99601 22.2367 4.00001 24.2407C4.00601 26.2407 6.25801 27.8647 6.86401 29.6757L19.905 24.4307C20.15 24.3257 20.313 24.0887 20.313 23.8147Z" fill="url(#paint0_linear_538_13782)"/>
<path d="M21.1022 21.5306C21.1952 21.3266 21.1782 21.1076 21.0822 20.9256L13.2922 9.72461C11.6572 10.7466 9.02218 10.8066 7.89518 12.3386C6.72118 13.9276 7.53818 16.6076 6.93018 18.5386L20.4842 21.9266C20.7432 21.9256 20.9912 21.7816 21.1022 21.5306Z" fill="url(#paint1_linear_538_13782)"/>
<path d="M22.9302 20.2522C23.1622 20.1562 23.3112 19.9412 23.3362 19.7132L23.8572 6.18324C21.8782 6.11624 19.6902 4.55624 17.9072 5.12424C16.0012 5.74324 15.1172 8.41024 13.5342 9.57024L22.2012 20.1172C22.3892 20.3002 22.6752 20.3612 22.9302 20.2522Z" fill="url(#paint2_linear_538_13782)"/>
<path d="M27.688 23.8147C27.688 23.5467 27.844 23.3147 28.07 23.2007L41.169 18.8047C41.887 20.5967 44.005 22.2377 44 24.2407C43.998 26.2407 41.746 27.8647 41.137 29.6757L28.097 24.4307C27.855 24.3257 27.688 24.0887 27.688 23.8147Z" fill="url(#paint3_linear_538_13782)"/>
<path d="M26.8969 21.5306C26.8039 21.3266 26.8209 21.1076 26.9179 20.9256L34.7069 9.72461C36.3439 10.7466 38.9779 10.8066 40.1049 12.3386C41.2759 13.9276 40.4629 16.6076 41.0739 18.5386L27.5169 21.9266C27.2609 21.9256 27.0109 21.7816 26.8969 21.5306Z" fill="url(#paint4_linear_538_13782)"/>
<path d="M25.073 20.2522C24.84 20.1562 24.693 19.9412 24.666 19.7132L24.145 6.18324C26.129 6.11624 28.316 4.55624 30.098 5.12424C32.001 5.74324 32.884 8.40924 34.471 9.56924L25.8 20.1172C25.613 20.3002 25.326 20.3612 25.073 20.2522Z" fill="url(#paint5_linear_538_13782)"/>
</g>
<defs>
<linearGradient id="paint0_linear_538_13782" x1="20.0484" y1="24.6519" x2="4.21899" y2="24.8957" gradientUnits="userSpaceOnUse">
<stop stop-color="#FFE100"/>
<stop offset="1" stop-color="#F08300"/>
</linearGradient>
<linearGradient id="paint1_linear_538_13782" x1="20.8559" y1="21.3645" x2="8.13208" y2="12.0512" gradientUnits="userSpaceOnUse">
<stop stop-color="#FFE100"/>
<stop offset="1" stop-color="#F08300"/>
</linearGradient>
<linearGradient id="paint2_linear_538_13782" x1="22.9956" y1="19.856" x2="18.2749" y2="5.1696" gradientUnits="userSpaceOnUse">
<stop stop-color="#FFE100"/>
<stop offset="1" stop-color="#F08300"/>
</linearGradient>
<linearGradient id="paint3_linear_538_13782" x1="28.3249" y1="23.729" x2="43.4063" y2="23.8598" gradientUnits="userSpaceOnUse">
<stop stop-color="#FFE100"/>
<stop offset="1" stop-color="#F08300"/>
</linearGradient>
<linearGradient id="paint4_linear_538_13782" x1="27.4463" y1="21.1384" x2="40.038" y2="12.4815" gradientUnits="userSpaceOnUse">
<stop stop-color="#FFE100"/>
<stop offset="1" stop-color="#F08300"/>
</linearGradient>
<linearGradient id="paint5_linear_538_13782" x1="25.9414" y1="19.8874" x2="30.2699" y2="5.32895" gradientUnits="userSpaceOnUse">
<stop stop-color="#FFE100"/>
<stop offset="1" stop-color="#F08300"/>
</linearGradient>
<clipPath id="clip0_538_13782">
<rect width="40" height="38.414" fill="white" transform="translate(4 5)"/>
</clipPath>
</defs>
</svg>
