<svg width="48" height="48" viewBox="0 0 48 48" fill="none" xmlns="http://www.w3.org/2000/svg">
<g clip-path="url(#clip0_538_13784)">
<path d="M7.81573 26.5655C9.23076 35.5031 17.6245 41.5985 26.5621 40.1828C31.6664 39.3752 35.8425 36.2879 38.2259 32.1286C34.5025 31.0376 21.5864 27.779 10.5145 31.404L13.9487 26.4135L16.9421 18.6024L15.884 17.0768C29.5248 13.1391 34.4683 14.7115 34.4683 14.7115L29.9795 23.1307L29.358 23.5734L31.0208 16.6348C25.4812 16.8337 21.6192 19.1917 21.6192 19.1917L19.8117 25.8376C19.8117 25.8376 29.5904 25.7291 38.8293 31.0397L39.0275 31.1461L39.2351 31.2653L39.4534 31.3932C40.0572 31.7423 40.6481 32.1133 41.2247 32.5056L41.2863 32.3248L39.4715 29.3963C40.3619 26.8428 40.6051 24.1083 40.1794 21.4378C38.7657 12.5002 30.3719 6.40145 21.4343 7.8205C12.4975 9.23754 6.40002 17.6246 7.81573 26.5655ZM4.24968 27.1274C2.51989 16.2216 9.96205 5.97687 20.8711 4.2491C31.7782 2.52132 42.0217 9.96549 43.7508 20.8746C45.4792 31.7817 38.0344 42.0231 27.1233 43.7509C16.2162 45.48 5.97545 38.0345 4.24968 27.1274Z" fill="#DC092B"/>
</g>
<defs>
<clipPath id="clip0_538_13784">
<rect width="40" height="40" fill="white" transform="translate(4 4)"/>
</clipPath>
</defs>
</svg>
