<svg width="48" height="48" viewBox="0 0 48 48" fill="none" xmlns="http://www.w3.org/2000/svg">
<g clip-path="url(#clip0_538_13785)">
<path fill-rule="evenodd" clip-rule="evenodd" d="M24 4C35.042 4 44 12.956 44 24C44 35.042 35.042 44 24 44C12.956 44 4 35.042 4 24C4 12.956 12.956 4 24 4Z" fill="#E60012"/>
<path fill-rule="evenodd" clip-rule="evenodd" d="M18.778 16.6686C16.88 12.0686 18.04 9.30061 21.042 9.80261C23.902 10.2826 24.944 10.2526 25.996 9.97861C29.2 9.14461 31.152 11.9546 29.134 16.7466C32.462 13.9966 36.1 13.6806 36.508 17.1646C36.788 19.5766 36.744 20.0126 37.936 21.6086C39.884 24.2206 37.422 27.1166 32.04 26.5046C35.554 28.5466 37.502 31.0446 34.484 33.4386C33.214 34.4446 32.402 34.9346 30.824 35.9466L28.116 37.6806C31.768 28.6706 26.256 21.9726 19.564 24.1426C29.072 24.8686 21.864 41.3246 17.734 36.7966C15.992 34.8886 15.608 34.6466 13.106 33.2526C10.274 31.6726 11.49 27.9626 15.328 26.4266C11.396 26.6506 9.15199 26.0686 9.27799 22.7626C9.33199 21.3686 10.784 20.5706 10.862 19.1786C11.154 13.7966 14.012 12.2926 18.778 16.6686Z" fill="white"/>
<path fill-rule="evenodd" clip-rule="evenodd" d="M23.8002 20.6173C24.8622 20.1173 25.4202 21.0333 24.6742 21.5453C23.8482 22.1173 22.5922 22.5753 23.0102 22.4253C23.9622 22.0853 24.9562 21.8393 26.0122 21.9893C27.1922 22.1553 28.2702 22.1133 29.0062 21.4573C29.1522 23.6353 25.9562 23.8033 24.5682 23.3053C23.4662 22.9113 22.4102 22.8993 21.2822 23.3793C21.2822 22.6653 23.2242 20.8873 23.8002 20.6173Z" fill="#E60012"/>
</g>
<defs>
<clipPath id="clip0_538_13785">
<rect width="40" height="40" fill="white" transform="translate(4 4)"/>
</clipPath>
</defs>
</svg>
