<svg width="48" height="48" viewBox="0 0 48 48" fill="none" xmlns="http://www.w3.org/2000/svg">
<g clip-path="url(#clip0_538_13786)">
<path d="M4.58387 27.16V33.962H11.1259L11.5179 34.014H23.9679V18.408H4.58387V24.36H17.0219V27.16H4.58387ZM39.9799 27.292C39.3759 27.114 38.9319 26.564 38.9319 25.902C38.9319 25.232 39.3899 24.674 40.0059 24.506V24.496C42.0379 23.224 43.9999 20.954 43.9999 16.938C43.9999 7.956 35.5259 7.674 35.5259 7.674H30.4999C31.9539 6.616 33.6219 5.088 35.0699 4H23.9779C22.0559 5.042 22.0819 5.614 20.2239 5.614H14.6239L11.1819 8.106H7.39787C5.94987 8.106 5.59187 9 5.59187 9L4.21987 15.602L8.58587 15.606H36.3959V18.406H27.1779V34.014H36.3959V36.816H7.12587C2.67387 38.194 4.28187 44.54 4.28187 44.54H35.8859C35.8859 44.54 43.9779 44.28 43.9779 35.318C43.9779 31.048 42.0259 28.616 39.9799 27.292Z" fill="#FABF13"/>
</g>
<defs>
<clipPath id="clip0_538_13786">
<rect width="40" height="40.542" fill="white" transform="translate(4 4)"/>
</clipPath>
</defs>
</svg>
