<svg width="48" height="48" viewBox="0 0 48 48" fill="none" xmlns="http://www.w3.org/2000/svg">
<g clip-path="url(#clip0_538_13788)">
<path d="M40.313 23.651C42.556 21.699 44 18.855 44 15.651C44 9.265 40.191 5 34.125 5H17.72V14.221C17.72 16 18.804 16.715 20.111 16.715H22.807V16.719H29.633V30.589H17.752L15.72 30.583L15.719 28.87V21.067C15.719 19.704 14.806 18.716 12.91 18.716H4.00098V42.302H33.353C40.503 42.302 44 37.531 44 31.651C44 28.448 42.556 25.604 40.313 23.651Z" fill="#0068B7"/>
<path d="M4 5H15.718V16.714H4V5Z" fill="#F39800"/>
</g>
<defs>
<clipPath id="clip0_538_13788">
<rect width="40" height="37.303" fill="white" transform="translate(4 5)"/>
</clipPath>
</defs>
</svg>
