<svg width="48" height="48" viewBox="0 0 48 48" fill="none" xmlns="http://www.w3.org/2000/svg">
<g clip-path="url(#clip0_538_13787)">
<path fill-rule="evenodd" clip-rule="evenodd" d="M42.3204 16.1717H16.1464C15.9072 20.1414 16.1108 24.5548 16.0431 28.6997C20.0173 28.7648 24.2577 28.5612 28.0624 28.7989V30.427H4.94134C0.912194 16.4435 10.3839 4.83033 22.5641 4.04827C32.6226 3.40249 39.1702 9.33038 42.3204 16.1717ZM20.0132 17.8005H43.0354C45.2654 24.825 43.3886 32.0498 39.878 36.3371C36.3213 40.6785 31.2803 44.1403 24.09 44.18C14.6985 44.2311 8.63775 38.572 5.65451 32.0589H31.8292C32.0684 28.0536 31.8618 23.605 31.9318 19.429H19.9113V18.103C19.9026 17.9595 19.8951 17.8168 20.0132 17.8005Z" fill="#D80C18"/>
</g>
<defs>
<clipPath id="clip0_538_13787">
<rect width="40" height="40.1802" fill="white" transform="translate(4 4)"/>
</clipPath>
</defs>
</svg>
