<svg width="48" height="48" viewBox="0 0 48 48" fill="none" xmlns="http://www.w3.org/2000/svg">
<g clip-path="url(#clip0_538_13797)">
<path fill-rule="evenodd" clip-rule="evenodd" d="M24.107 4.00021C34.107 3.95521 42.441 11.2432 43.964 20.7682C44.189 22.2932 43.011 22.5742 42.391 22.5772L35.902 22.6072C35.824 22.4932 35.732 22.3842 35.63 22.2832L25.781 12.5322C24.861 11.6212 23.354 11.6282 22.434 12.5482L12.585 22.3892C11.664 23.3092 11.664 24.8072 12.585 25.7182L22.434 35.4692C23.354 36.3812 24.861 36.3742 25.781 35.4542L35.63 25.6122C35.733 25.5102 35.824 25.4002 35.902 25.2862L42.334 25.2572C43.51 25.2232 44.344 25.4082 43.861 27.6442C42.093 36.8932 33.9 43.9552 24.107 44.0002C13.033 44.0502 4 35.1082 4 24.0922C4 13.0762 13.033 4.05121 24.107 4.00021ZM19.167 21.3962C19.167 21.3962 20.576 21.6312 20.771 23.0322C21.062 24.7292 22.268 25.6272 22.57 25.8132C22.294 25.0252 22.687 24.7182 22.708 24.0762C22.741 23.8762 22.899 23.7502 23.2 23.8152C23.501 23.8802 23.396 24.3142 23.128 25.4152C23.01 25.8972 23.791 26.7322 24.243 26.6542C23.398 25.7192 24.198 24.6252 24.117 24.0442C24.151 23.8442 24.308 23.7442 24.609 23.8092C25.232 23.9442 23.431 26.5882 25.904 26.9622C24.629 25.8152 25.572 24.5522 25.5 24.0382C25.534 23.8382 25.717 23.7382 26.019 23.8032C26.298 23.8632 26.276 24.2912 26.128 25.1452C25.972 26.4882 27.767 27.3462 29.275 27.9732L32.723 24.4812C32.723 24.4812 32.992 24.3472 32.628 23.8002C31.607 22.1622 30.003 23.0872 28.594 22.3202C27.185 21.5532 26.407 18.8502 23.443 18.8632C20.479 18.8752 19.167 21.3962 19.167 21.3962ZM23 22.7502C22.809 22.7512 22.652 22.9072 22.652 23.0972C22.652 23.2872 22.808 23.4422 23 23.4412C23.191 23.4402 23.348 23.2842 23.348 23.0932C23.348 22.9042 23.192 22.7502 23 22.7502ZM25.883 22.7372C25.692 22.7382 25.535 22.8942 25.535 23.0852C25.535 23.2762 25.691 23.4302 25.883 23.4292C26.075 23.4282 26.231 23.2722 26.231 23.0822C26.231 22.8912 26.075 22.7372 25.883 22.7372ZM24.442 22.7442C24.251 22.7442 24.094 22.9002 24.094 23.0912C24.094 23.2812 24.25 23.4362 24.442 23.4352C24.634 23.4342 24.79 23.2782 24.79 23.0882C24.79 22.8982 24.633 22.7432 24.442 22.7442ZM15.085 23.8792C15.085 23.8792 23.104 32.3502 23.881 32.5402C24.658 32.7302 24.804 32.5842 25.777 31.5172C26.749 30.4492 28.11 28.9932 28.11 28.9932C28.11 28.9932 27.332 28.3682 26.262 28.4702C25.194 28.5722 22.861 28.8722 21.743 27.4272C20.625 25.9822 18.779 22.9942 17.077 22.9532C15.571 23.0072 15.085 23.8792 15.085 23.8792Z" fill="#E60012"/>
</g>
<defs>
<clipPath id="clip0_538_13797">
<rect width="40" height="40" fill="white" transform="translate(4 4)"/>
</clipPath>
</defs>
</svg>
