<svg width="48" height="48" viewBox="0 0 48 48" fill="none" xmlns="http://www.w3.org/2000/svg">
<g clip-path="url(#clip0_538_13796)">
<path d="M15.1578 15.0142V6.07812C13.6539 6.59873 11.9766 7.95769 11.9766 7.95769V17.6457C11.9766 17.646 15.0132 18.4558 15.1578 15.0142Z" fill="#E58C26"/>
<path d="M10.4726 37.8902V23.344C7.46514 22.8522 7.40723 25.9464 7.40723 25.9464L7.43603 34.3039C7.43603 34.3039 9.11336 36.7914 10.4726 37.8902Z" fill="#E58C26"/>
<path d="M15.1578 25.947L15.129 41.1591C13.1912 40.0309 11.9766 39.1346 11.9766 39.1346V23.345C11.9766 23.3446 14.9552 22.6794 15.1578 25.947Z" fill="#E58C26"/>
<path d="M7.40731 15.2745C7.40731 15.2745 7.43611 18.1374 10.4727 17.6459L10.5015 9.23047C9.02642 10.503 7.35645 12.8744 7.35645 12.8744L7.40731 15.2745Z" fill="#E58C26"/>
<path d="M5.81676 15.3613C5.93228 15.3613 1.59434 23.5745 5.93228 31.5852V25.5699C5.93228 25.5699 6.48169 21.3187 10.4728 21.926V19.1787C5.9902 19.3521 5.81676 15.3613 5.81676 15.3613Z" fill="#E58C26"/>
<path d="M20.7389 29.2718H27.2171C27.2171 29.2718 27.5931 29.2718 28.3736 28.8955V33.0891C27.5349 42.4015 19.4087 42.5749 19.4087 42.5749C18.1218 42.6037 16.6614 41.6486 16.6614 41.6486L16.6326 25.801C16.1411 21.2317 11.9766 21.926 11.9766 21.926V19.1787C11.9766 19.1787 16.2857 19.7407 16.7196 15.3179L18.2088 13.7852L18.18 26.5097C18.1797 26.5097 18.3099 28.7362 20.7389 29.2718Z" fill="#E58C26"/>
<path d="M16.7192 15.3184V5.39911C16.7192 5.39911 20.4499 3.77939 25.0915 4.02544C25.0915 4.02544 18.9028 5.68837 18.2087 13.7857" fill="#E58C26"/>
<path d="M19.6982 18.206V13.9642C19.6982 13.9642 19.9682 4.63292 29.685 4.78704C34.9293 6.52229 36.0505 8.08563 38.4764 10.0697C38.4764 10.0697 37.9653 9.86714 37.4836 9.77092C37.0019 9.6744 34.5337 9.77092 34.5337 9.77092C34.5337 9.77092 31.5937 10.1757 31.3623 13.5595L31.343 41.7174C31.343 41.7174 27.5931 43.395 23.3225 43.0861C25.366 42.2089 29.0388 39.8758 29.8777 33.6681L29.8875 20.5387C29.8875 20.5387 29.7043 18.1386 27.0722 17.8107L20.7198 17.8398C20.7201 17.8395 19.9872 18.0034 19.6982 18.206Z" fill="#BD1D21"/>
<path d="M32.8711 13.7863C32.8711 13.7863 32.8417 11.2559 35.2137 11.2559H37.0497C37.0497 11.2559 39.1468 11.3573 39.1321 13.6995V30.8344C39.1321 30.8344 39.1612 33.4803 36.2546 33.582H32.8711V13.7863Z" fill="#BD1D21"/>
<path d="M40.4623 12.4707C40.4623 12.4707 40.6792 12.9334 40.6936 13.5119L40.708 30.7191C40.708 30.7191 40.7368 34.6231 36.5726 35.1146H32.8711V41.0579C32.8711 41.0579 39.4502 38.3541 42.5156 30.8925C42.5156 30.8925 44.5401 26.4534 43.8604 21.4359C43.8598 21.4356 43.7155 16.9821 40.4623 12.4707Z" fill="#BD1D21"/>
</g>
<defs>
<clipPath id="clip0_538_13796">
<rect width="40" height="39.124" fill="white" transform="translate(4 4)"/>
</clipPath>
</defs>
</svg>
