<svg width="48" height="48" viewBox="0 0 48 48" fill="none" xmlns="http://www.w3.org/2000/svg">
<g clip-path="url(#clip0_538_13795)">
<path d="M33.493 22.4713C38.31 22.4713 42.215 18.5664 42.215 13.7493C42.215 8.93232 38.31 5.02734 33.493 5.02734C28.676 5.02734 24.771 8.93232 24.771 13.7493C24.771 18.5664 28.676 22.4713 33.493 22.4713Z" fill="url(#paint0_radial_538_13795)"/>
<path d="M37.8782 14.1651C38.2472 13.5251 37.8652 13.0301 37.8652 13.0301C37.8652 13.0301 37.2892 12.0311 37.0652 11.6291C36.6932 10.9591 37.2682 10.5391 37.2682 10.5391H35.6192C35.1272 10.5391 34.7552 11.0531 35.0172 11.5311C35.1442 11.7661 37.2052 15.3311 37.2052 15.3311L37.8782 14.1651ZM34.9802 14.1651C35.3492 13.5251 34.9672 13.0301 34.9672 13.0301C34.9672 13.0301 34.3902 12.0311 34.1652 11.6291C33.7932 10.9591 34.3692 10.5391 34.3692 10.5391H32.7212C32.2292 10.5391 31.8562 11.0531 32.1182 11.5311C32.2462 11.7661 34.3062 15.3311 34.3062 15.3311L34.9802 14.1651ZM34.4172 17.4121C34.4172 17.4121 31.1802 11.8771 30.7212 11.0891C30.4002 10.5391 29.8462 10.5391 29.8462 10.5391H27.1882C27.1102 10.5391 27.0252 10.6641 27.1492 10.7041C27.9102 10.9561 28.1302 11.4971 28.5622 12.2361C28.7712 12.5931 31.8462 17.8701 31.8462 17.8701C31.8462 17.8701 32.6372 19.4271 33.8772 19.4271C34.5962 19.4271 35.3702 18.9501 35.5462 17.9711C34.7982 18.1031 34.4172 17.4121 34.4172 17.4121ZM29.7302 11.9811C29.5362 12.0861 29.2922 12.0141 29.1882 11.8191C29.0832 11.6251 29.1542 11.3821 29.3492 11.2771C29.5432 11.1721 29.7862 11.2441 29.8912 11.4391C29.9962 11.6341 29.9242 11.8761 29.7302 11.9811ZM38.5082 10.5391C38.0182 10.5391 37.6462 11.0531 37.9072 11.5311C37.9542 11.6191 38.2752 12.1681 38.6562 12.8181L39.9722 10.5391H38.5082Z" fill="white"/>
<path d="M32.3489 24.0234L24.7959 31.5764V43.9974C35.4659 43.5724 43.9859 34.7954 43.9989 24.0234H32.3489Z" fill="url(#paint1_linear_538_13795)"/>
<path d="M15.657 23.973L23.209 16.42V4C12.53 4.425 4 13.214 4 23.999C4 34.78 12.53 43.571 23.208 43.998V31.526L15.657 23.973Z" fill="url(#paint2_linear_538_13795)"/>
<path d="M12.7671 15.934C12.7671 18.973 13.7981 21.854 15.6571 23.973L23.2091 16.411V4C17.3131 4.783 12.7671 9.828 12.7671 15.934Z" fill="url(#paint3_linear_538_13795)"/>
<path d="M35.2349 32.0614C35.2349 29.0224 34.2039 26.1414 32.3489 24.0234L24.7959 31.5864V43.9974C30.6869 43.2104 35.2349 38.1674 35.2349 32.0614Z" fill="url(#paint4_linear_538_13795)"/>
</g>
<defs>
<radialGradient id="paint0_radial_538_13795" cx="0" cy="0" r="1" gradientUnits="userSpaceOnUse" gradientTransform="translate(30.197 9.64634) scale(13.353)">
<stop stop-color="#FFE73F"/>
<stop offset="0.07" stop-color="#FFDD39"/>
<stop offset="0.638" stop-color="#F18806"/>
<stop offset="0.891" stop-color="#EB6100"/>
</radialGradient>
<linearGradient id="paint1_linear_538_13795" x1="42.0279" y1="22.2404" x2="26.3139" y2="41.1244" gradientUnits="userSpaceOnUse">
<stop stop-color="#E94820"/>
<stop offset="0.292" stop-color="#CA251F"/>
<stop offset="0.467" stop-color="#BC121F"/>
<stop offset="1" stop-color="#701318"/>
</linearGradient>
<linearGradient id="paint2_linear_538_13795" x1="9.241" y1="3.125" x2="23.635" y2="44.591" gradientUnits="userSpaceOnUse">
<stop stop-color="#E94820"/>
<stop offset="0.292" stop-color="#CB311F"/>
<stop offset="0.467" stop-color="#BD261F"/>
<stop offset="1" stop-color="#701318"/>
</linearGradient>
<linearGradient id="paint3_linear_538_13795" x1="22.7811" y1="3.932" x2="14.5941" y2="22.684" gradientUnits="userSpaceOnUse">
<stop stop-color="#CA3A1C"/>
<stop offset="0.134" stop-color="#C4371C"/>
<stop offset="0.349" stop-color="#B12D1B"/>
<stop offset="0.618" stop-color="#931D16"/>
<stop offset="0.882" stop-color="#70070C"/>
</linearGradient>
<linearGradient id="paint4_linear_538_13795" x1="26.0439" y1="44.4534" x2="33.3079" y2="23.1904" gradientUnits="userSpaceOnUse">
<stop stop-color="#CA3A1C"/>
<stop offset="0.134" stop-color="#C4371C"/>
<stop offset="0.349" stop-color="#B12D1B"/>
<stop offset="0.618" stop-color="#931D16"/>
<stop offset="0.882" stop-color="#70070C"/>
</linearGradient>
<clipPath id="clip0_538_13795">
<rect width="40" height="39.998" fill="white" transform="translate(4 4)"/>
</clipPath>
</defs>
</svg>
