<svg width="48" height="48" viewBox="0 0 48 48" fill="none" xmlns="http://www.w3.org/2000/svg">
<g clip-path="url(#clip0_538_13792)">
<path d="M47.9996 20.9052C47.9996 21.3366 47.8292 21.7506 47.525 22.0566L47.534 22.0656L31.8892 37.4764L31.873 37.4662C31.297 37.9702 30.4522 38.0188 29.8229 37.5838L29.8145 37.5934L29.7545 37.534C29.6459 37.4506 29.5481 37.354 29.4635 37.2466L21.2574 29.1425L21.321 29.0795C20.9526 28.5347 20.9454 27.8232 21.3024 27.2712L21.2196 27.213L37.0582 11.5058L37.0594 11.507C37.7152 10.8728 38.7585 10.8818 39.4035 11.5268L39.4155 11.5154L47.6834 19.9129L47.6726 19.9237C47.885 20.2063 48.0002 20.5513 47.9996 20.9052Z" fill="#94C5FF"/>
<path d="M39.9918 29.448L31.9867 37.3499L31.9447 37.3913L31.8481 37.4867L31.8439 37.4807C31.2259 37.9793 30.3433 37.9757 29.7295 37.4723L29.7199 37.4855L14.2095 22.2127V22.2121C13.8633 21.9481 13.6365 21.5569 13.5801 21.1249C13.5237 20.6929 13.6431 20.2567 13.9107 19.9135L13.8945 19.8979L21.9716 11.6978C22.2536 11.3024 22.6946 11.0498 23.1788 11.0066C23.663 10.9634 24.1412 11.1338 24.4892 11.4728L24.4934 11.4686L40.0524 26.892C40.4315 27.213 40.6445 27.6882 40.6331 28.1844C40.6217 28.6806 40.386 29.1456 39.9918 29.448Z" fill="#0092FF"/>
<path d="M30.0457 37.6772C29.9473 37.628 29.8531 37.5692 29.7637 37.4996L23.1896 31.0401L22.9448 29.0517L26.9942 27.7852L30.0457 37.6772Z" fill="#1A32AF"/>
<path d="M26.5519 26.9835C26.8807 27.3045 27.0595 27.7485 27.0451 28.2081C27.0301 28.6671 26.8231 29.0991 26.4745 29.3979L18.3896 37.379L18.3806 37.3706C18.0638 37.6862 17.6348 37.862 17.1878 37.859C16.7408 37.856 16.3136 37.6742 16.0016 37.3544L16.0004 37.3556L0.473237 22.0666L0.482837 22.057C0.165441 21.742 -0.00915669 21.3112 -0.0001568 20.8642C0.00884309 20.4172 0.199641 19.9936 0.529037 19.6912L8.51434 11.5841C8.84553 11.2013 9.33213 10.9889 9.83792 11.0069C10.3437 11.0249 10.8141 11.2715 11.1171 11.6777L26.5543 26.9799L26.5519 26.9835Z" fill="#0055FF"/>
<path d="M11.5347 27.183L12.1311 22.5013L10.1169 27.183H7.46973L8.15012 20.1073L10.0695 20.1427L9.3105 25.6788L11.7759 20.1073H13.7408L13.1421 25.6788L15.383 20.1073H17.366L14.1464 27.183H11.5347ZM18.4046 25.6608C18.506 25.7568 18.6266 25.8294 18.7586 25.8744C18.9218 25.923 19.0916 25.944 19.262 25.9368C19.5104 25.9356 19.7576 25.9026 19.9976 25.839C20.2598 25.7718 20.5154 25.683 20.762 25.572L20.825 26.7468C20.4704 26.9562 20.0888 27.1152 19.6898 27.2184C19.322 27.3114 18.944 27.3588 18.5648 27.3606C18.146 27.3606 17.7656 27.2862 17.4236 27.138C17.1266 26.9976 16.8734 26.7792 16.6916 26.5062C16.5194 26.199 16.4288 25.8528 16.43 25.5006C16.436 25.1694 16.484 24.8406 16.5734 24.5214C16.6916 24.0786 16.874 23.6556 17.1158 23.2662C17.3438 22.9158 17.6294 22.6057 17.96 22.3495C18.2906 22.1065 18.6626 21.9259 19.058 21.8155C19.3718 21.7333 19.6946 21.6889 20.0192 21.6817C20.2934 21.6859 20.5652 21.7309 20.8262 21.8155C21.113 21.9133 21.3632 22.0963 21.5431 22.3405C21.7189 22.6093 21.8227 22.9188 21.8431 23.2392C21.8593 23.6448 21.8113 24.0504 21.7009 24.441C21.6505 24.6252 21.5954 24.8028 21.536 24.975H18.2072C18.1724 25.2546 18.2384 25.4826 18.4046 25.6608ZM20.1038 23.3646C19.988 23.1984 19.817 23.1126 19.5914 23.1066C19.355 23.1186 19.1306 23.2044 18.9194 23.3646C18.7208 23.5194 18.5678 23.7258 18.4772 23.961H20.1734C20.2232 23.7354 20.2004 23.5368 20.1038 23.3646ZM23.5837 20.1067H26.4103C26.7493 20.1121 27.0859 20.1565 27.4147 20.2405C27.7357 20.3317 28.0255 20.5105 28.2511 20.7565C28.4341 20.9911 28.5493 21.2713 28.5847 21.5665C28.6123 21.8893 28.5835 22.2145 28.5001 22.5277C28.3927 22.9116 28.2229 23.2752 27.9979 23.6046C27.7621 23.9334 27.4627 24.2118 27.1177 24.4236C26.9251 24.5364 26.7241 24.6348 26.5165 24.7176C26.2819 24.7998 26.0425 24.8652 25.7989 24.9132C25.3615 24.9888 24.9187 25.0278 24.4747 25.029H24.0259L23.4337 27.183H21.6392L23.5837 20.1067ZM25.6897 23.5428C25.8553 23.4936 26.0125 23.4186 26.1547 23.3202C26.4295 23.1246 26.6083 22.878 26.6899 22.5817C26.7667 22.3027 26.7379 22.0597 26.6035 21.8521C26.5231 21.7507 26.4181 21.6709 26.2993 21.6205C26.1547 21.5665 26.0023 21.5365 25.8481 21.5317H24.9871L24.4171 23.6052H25.1797C25.3513 23.6046 25.5229 23.5836 25.6897 23.5428ZM30.816 27.2544C30.4482 27.3246 30.075 27.3606 29.7012 27.3612C29.4355 27.3594 29.1733 27.3048 28.9285 27.201C28.7305 27.1002 28.5679 26.9418 28.4611 26.7474C28.3579 26.5158 28.3135 26.262 28.3321 26.0088C28.3471 25.755 28.3921 25.5042 28.4659 25.2612L29.9316 19.9297H31.6902L30.3372 24.8514C30.2676 25.0596 30.2202 25.2744 30.1968 25.4922C30.1866 25.617 30.2184 25.7178 30.2934 25.7946C30.369 25.8684 30.4662 25.9152 30.5712 25.9284C30.7146 25.9524 30.861 25.9584 31.0062 25.9464L30.816 27.2544ZM31.5612 26.4354C31.5408 26.1984 31.5666 25.9596 31.638 25.7322L32.7024 21.8605H34.461L33.492 25.3848C33.4464 25.551 33.462 25.6902 33.5382 25.803C33.6156 25.8918 33.726 25.9368 33.8694 25.9368C34.0296 25.9278 34.185 25.8792 34.3218 25.7946C34.4838 25.7052 34.6284 25.5876 34.749 25.4472L35.7354 21.8605H37.494L36.6204 25.038C36.4986 25.4592 36.3978 25.881 36.3174 26.3022C36.2616 26.5926 36.2286 26.8878 36.219 27.1836H34.5234C34.515 26.9724 34.5282 26.7606 34.5624 26.5518C34.2678 26.8062 33.9354 27.0138 33.5766 27.1662C33.2922 27.2868 32.988 27.3528 32.679 27.3618C32.2782 27.3618 31.971 27.228 31.7574 26.961C31.65 26.8044 31.5828 26.6238 31.5612 26.4354ZM40.1477 23.8272C40.4099 23.9202 40.6631 24.036 40.9049 24.1746C41.0795 24.276 41.2283 24.4164 41.3399 24.5838C41.5031 24.8808 41.5331 25.2186 41.4287 25.5984C41.3465 25.872 41.2205 26.13 41.0567 26.364C40.8785 26.5872 40.6649 26.7798 40.4243 26.9334C40.1579 27.0894 39.8693 27.2034 39.5687 27.2718C39.3095 27.3246 39.0461 27.354 38.7815 27.3606C38.0249 27.3486 37.3752 27.156 36.8316 26.7822L37.5954 25.6698C37.8119 25.7904 38.0429 25.8828 38.2823 25.9458C38.4761 25.9998 38.6759 26.0298 38.8769 26.0346C39.0659 26.0454 39.2549 26.0148 39.4307 25.9458C39.5399 25.9002 39.6239 25.809 39.6611 25.6968C39.6785 25.59 39.6503 25.5066 39.5771 25.4478C39.4289 25.3392 39.2645 25.2552 39.0893 25.1988C38.8523 25.1238 38.6243 25.0224 38.4095 24.8964C38.2301 24.7884 38.0741 24.6462 37.9499 24.4782C37.7585 24.1932 37.7189 23.8494 37.8299 23.4456C37.9037 23.1852 38.0201 22.9386 38.1743 22.7161C38.3435 22.4911 38.5487 22.2955 38.7821 22.1377C39.0461 21.9697 39.3377 21.8497 39.6431 21.7819C39.9143 21.7237 40.1909 21.6907 40.4687 21.6841C41.0981 21.7021 41.6573 21.8533 42.1475 22.1383L41.4083 23.2596C41.0825 23.103 40.7279 23.0154 40.3667 23.0016C40.1993 23.0028 40.0331 23.0328 39.8753 23.0904C39.7559 23.1348 39.6611 23.229 39.6155 23.3484C39.5891 23.4672 39.6185 23.556 39.7037 23.6154C39.8381 23.7108 39.9881 23.7834 40.1477 23.8272Z" fill="white"/>
</g>
<defs>
<clipPath id="clip0_538_13792">
<rect width="48" height="26.8797" fill="white" transform="translate(0 11)"/>
</clipPath>
</defs>
</svg>
