<svg width="48" height="48" viewBox="0 0 48 48" fill="none" xmlns="http://www.w3.org/2000/svg">
<mask id="mask0_538_13789" style="mask-type:luminance" maskUnits="userSpaceOnUse" x="4" y="4" width="40" height="40">
<path fill-rule="evenodd" clip-rule="evenodd" d="M29.7778 4.001C29.6858 4.01 29.7118 4.077 29.7778 4.12C30.6208 4.661 31.4268 5.312 32.1798 6.056C32.8928 6.758 33.5598 7.542 34.2578 8.325L34.3808 8.626L34.7158 8.852C35.3958 9.691 36.0588 10.901 36.7358 12.171C36.9538 12.58 36.8478 12.739 36.5538 12.3C36.1298 11.662 35.8798 11.469 35.6658 11.224C34.9438 10.405 35.2158 11.069 35.3528 11.302C37.4988 14.995 38.6658 20.002 37.6318 24.803C35.9248 32.737 28.3368 36.702 20.5618 34.776C13.6388 33.061 10.8818 25.205 12.9048 20.021C15.0158 14.614 20.6078 13.262 24.5068 14.435V25.046H16.1398C17.5988 31.379 24.4828 32.712 28.6158 30.407C31.5288 28.78 32.6498 25.704 31.8888 23.332C30.6838 19.58 28.8038 19.502 31.2978 15.684C33.8828 11.731 33.2818 4.347 22.4468 4.347C13.5488 4.347 4.96178 10.927 4.06478 21.934C3.15778 33.102 11.8848 43.081 23.3468 43.081C36.1348 43.081 44.3618 34.161 43.9878 21.862C43.9108 19.299 43.3028 16.723 42.2588 14.322C41.9798 13.673 41.6998 13.07 41.4088 12.494C41.2978 12.274 41.0818 12.161 40.9638 11.951L40.7828 11.349C40.2648 10.482 39.6758 9.659 38.9178 8.822C38.6328 8.506 37.7198 7.375 37.4168 7.078C36.9648 6.639 37.3438 7.366 37.7278 8.094C38.0758 8.755 38.4278 9.416 38.1658 9.201C37.8868 8.972 35.7798 5.964 35.4898 5.751C35.3578 5.656 35.2238 5.697 35.0908 5.737C34.9598 5.777 34.8278 5.817 34.6948 5.729C34.4018 5.539 34.0998 4.833 33.7958 4.66C33.4028 4.438 33.0038 4.234 32.5948 4.043C31.8018 3.71 34.1228 5.685 33.3358 5.804C33.2028 5.825 32.4318 5.364 31.6358 4.902C30.8568 4.452 30.0528 4 29.7978 4L29.7778 4.001Z" fill="white"/>
</mask>
<g mask="url(#mask0_538_13789)">
<path d="M26.4869 -16.7109L63.8769 25.9991L21.0369 63.5011L-16.3521 20.7921L26.4869 -16.7109Z" fill="url(#paint0_linear_538_13789)"/>
</g>
<defs>
<linearGradient id="paint0_linear_538_13789" x1="-4.78392" y1="21.8268" x2="21.7594" y2="52.1594" gradientUnits="userSpaceOnUse">
<stop stop-color="#FDD000"/>
<stop offset="0.011" stop-color="#FDD000"/>
<stop offset="0.028" stop-color="#FDCD00"/>
<stop offset="0.224" stop-color="#F5A000"/>
<stop offset="0.413" stop-color="#EE7700"/>
<stop offset="0.589" stop-color="#EA5405"/>
<stop offset="0.751" stop-color="#E8350D"/>
<stop offset="0.893" stop-color="#E61411"/>
<stop offset="1" stop-color="#E60012"/>
</linearGradient>
</defs>
</svg>
