<svg width="48" height="48" viewBox="0 0 48 48" fill="none" xmlns="http://www.w3.org/2000/svg">
<g clip-path="url(#clip0_538_13794)">
<path d="M15.1186 11.5911C17.5527 9.51176 20.6817 7.11728 26.3882 6.99085C32.0965 6.86312 42.2314 11.0543 43.9917 22.705C43.9917 22.705 44.7374 10.0214 32.2748 5.3848C19.811 0.746926 7.12084 8.40367 5.09983 18.7726C4.98701 19.3633 4.90596 19.6084 4.85668 20.6788C4.80417 21.7532 4.80935 23.6854 4.97599 24.953C5.68402 32.7245 12.5925 39.325 20.8173 39.325C29.514 39.325 36.5645 32.5118 36.5645 24.1094C36.5645 23.225 36.3078 21.1048 34.8606 18.9418C36.7889 21.1963 36.995 23.1797 37.1708 23.9901C38.4364 29.7374 34.9501 34.7656 32.8843 36.5318C30.4542 38.6118 27.3225 41.0063 21.6135 41.1314C15.909 41.2617 6.18068 37.776 4.0099 25.4146C4.0099 25.4146 3.26685 38.0989 15.7307 42.7381C28.1946 47.3773 40.8827 39.7218 42.9031 29.349C43.1067 28.2902 43.2351 26.9772 43.2053 25.7615C43.1702 23.9849 43.0496 23.3379 42.9239 22.4813C41.9597 14.8421 35.413 8.79594 27.1863 8.79594C18.4909 8.79594 11.441 15.6091 11.441 24.0102C11.441 24.8933 11.4326 26.8326 12.6872 28.899C10.9534 26.8326 10.7887 24.8376 10.6182 23.9791C9.48289 18.296 13.0736 13.3405 15.1186 11.5911ZM23.9995 18.2007L29.8628 24.0602L23.9995 29.9228L18.142 24.0602L23.9995 18.2007Z" fill="#003B90"/>
</g>
<defs>
<clipPath id="clip0_538_13794">
<rect width="40" height="40.1232" fill="white" transform="translate(4 4)"/>
</clipPath>
</defs>
</svg>
