<svg width="48" height="48" viewBox="0 0 48 48" fill="none" xmlns="http://www.w3.org/2000/svg">
<g clip-path="url(#clip0_538_13790)">
<path fill-rule="evenodd" clip-rule="evenodd" d="M36.101 8.095C40.896 11.754 44.001 17.526 44.001 24C44.001 30.474 40.896 36.245 36.101 39.905V34.922C38.775 32.025 40.411 28.167 40.411 23.943C40.411 19.938 38.941 16.264 36.511 13.424L36.494 13.434C36.44 13.485 36.3 13.62 36.101 13.841V8.095ZM33.452 6.384C34.381 6.885 35.266 7.458 36.1 8.095V13.841C35.512 14.495 34.405 15.903 33.452 18.126V12.649C33.978 12.366 34.531 12.135 35.094 11.976L35.105 11.981L35.113 11.979C34.591 11.5 34.035 11.055 33.453 10.646V6.384H33.452ZM36.101 39.905C35.267 40.541 34.381 41.114 33.453 41.616V37.239C34.417 36.562 35.306 35.785 36.101 34.922V39.905ZM24.002 4C27.416 4 30.635 4.865 33.452 6.384V10.646C30.785 8.773 27.533 7.67 24.03 7.67H24.002V4V4ZM33.452 41.616C30.635 43.136 27.416 44 24.002 44V40.214H24.03C26.784 40.214 29.382 39.532 31.663 38.331L31.695 38.381C31.453 38.02 29.586 35.105 28.546 29.674C28 29.932 26.233 30.158 24.002 30.168V27.253H27.319V20.774H24.002V12.144L25.682 12.155L25.685 13.21L26.739 13.214V15.406L25.648 15.412L25.611 16.573C25.611 16.573 28.916 16.901 29.345 17.325C29.637 15.773 31.337 13.788 33.452 12.651V18.128C32.754 19.757 32.137 21.823 31.868 24.35C31.544 31.075 32.302 34.951 33.129 37.464H33.128L33.452 37.241V41.616ZM24 4H24.002V7.671C19.173 7.679 14.823 9.782 11.826 13.111V8.151C15.202 5.551 19.426 4 24 4V4ZM24.002 44V40.214C21.223 40.21 18.604 39.511 16.308 38.284V38.293C17.43 36.657 19.247 31.028 19.213 29.854C20.866 30.087 22.533 30.174 24.002 30.168V27.253H20.676V20.774H24.002V12.144L22.262 12.133C22.262 12.133 22.216 15.568 22.187 16.534C21.437 16.451 19.095 16.816 18.651 17.098C17.172 13.379 13.131 12.923 11.825 13.21V16.443C13.378 18.003 15.541 20.918 15.89 25.472C16.429 31.662 14.806 36.675 14.595 37.239L14.602 37.236C13.585 36.521 12.653 35.695 11.824 34.775V39.849C15.202 42.449 19.426 44 24 44H24.002ZM11.826 39.849C7.073 36.187 4 30.44 4 24C4 17.559 7.073 11.814 11.826 8.151V13.111L11.71 13.241V13.24L11.826 13.211V16.444C11.135 15.749 10.565 15.322 10.33 15.14L10.283 15.116C8.619 17.661 7.652 20.694 7.652 23.944C7.652 28.097 9.233 31.895 11.826 34.776V39.849Z" fill="#E60012"/>
</g>
<defs>
<clipPath id="clip0_538_13790">
<rect width="40.001" height="40" fill="white" transform="translate(4 4)"/>
</clipPath>
</defs>
</svg>
