<svg width="48" height="48" viewBox="0 0 48 48" fill="none" xmlns="http://www.w3.org/2000/svg">
<g clip-path="url(#clip0_538_13793)">
<path d="M40.3294 35.6231C36.9412 37.9761 32.9882 39.2937 28.8471 39.2937C17.8353 39.2937 8.89412 30.3525 8.89412 19.3408C8.89412 15.1055 10.2118 10.9643 12.7529 7.57606L13.0353 7.10547L12.5647 7.2937C7.2 11.1525 4 17.2702 4 23.8584C4 34.9643 13.0353 43.9996 24.1412 43.9996C30.5412 43.9996 36.6588 40.8937 40.4235 35.7172L40.7059 35.2466L40.3294 35.6231Z" fill="url(#paint0_linear_538_13793)"/>
<path d="M24.6116 30.2595C24.5174 30.3536 24.3292 30.3536 24.141 30.3536C23.9527 30.3536 23.8586 30.2595 23.7645 30.1654L17.3645 23.7654C17.2704 23.6713 17.1763 23.483 17.1763 23.3889C17.1763 23.2007 17.2704 23.1065 17.3645 23.0124L23.8586 16.5183C23.9527 16.4242 24.141 16.3301 24.2351 16.3301C24.4233 16.3301 24.5174 16.4242 24.6116 16.5183L31.1057 23.0124C31.2939 23.2007 31.2939 23.5771 31.1057 23.7654L24.6116 30.2595Z" fill="url(#paint1_linear_538_13793)"/>
<path d="M23.7647 16.7058C23.8588 16.6117 24.047 16.5176 24.1412 16.5176C24.3294 16.5176 24.4235 16.6117 24.5176 16.7058L31.0117 23.1999C31.2 23.3882 31.2 23.7646 31.0117 23.9529L24.5176 30.447C24.4235 30.5411 24.2353 30.6352 24.1412 30.6352C23.9529 30.6352 23.8588 30.5411 23.7647 30.447L17.2706 23.9529C17.0823 23.7646 17.0823 23.3882 17.2706 23.1999L23.7647 16.7058Z" fill="url(#paint2_linear_538_13793)"/>
<path d="M24.6116 30.2595C24.5174 30.3536 24.3292 30.3536 24.141 30.3536C23.9527 30.3536 23.8586 30.2595 23.7645 30.1654L17.3645 23.7654C17.2704 23.6713 17.1763 23.483 17.1763 23.3889C17.1763 23.2007 17.2704 23.1065 17.3645 23.0124L23.8586 16.5183C23.9527 16.4242 24.141 16.3301 24.2351 16.3301C24.4233 16.3301 24.5174 16.4242 24.6116 16.5183L31.1057 23.0124C31.2939 23.2007 31.2939 23.5771 31.1057 23.7654L24.6116 30.2595Z" fill="url(#paint3_linear_538_13793)"/>
<path d="M29.7884 8.89384C37.6943 11.5291 41.459 20.188 39.6708 26.7762C39.2943 28.188 38.6355 29.8821 37.7884 31.0115C40.4237 29.2233 42.3061 26.588 43.3413 23.5762C44.9413 18.6821 43.9061 13.5997 40.9884 9.83502C40.1413 8.79972 39.2943 7.95266 38.259 7.1056C36.9413 6.07031 35.4355 5.31737 33.9296 4.75266C27.5296 2.58796 20.7531 5.12913 17.0825 10.3056C20.5649 7.95266 25.0825 7.38796 29.7884 8.89384Z" fill="url(#paint4_linear_538_13793)"/>
<g opacity="0.8">
<path opacity="0.8" d="M29.2234 38.9179C21.7881 38.9179 15.3881 34.8708 11.9058 28.9414C14.6352 35.3414 21.1293 39.8591 28.6587 39.8591C33.2705 39.8591 37.694 38.1649 40.9881 35.1532L40.7058 35.3414C37.3175 37.6943 33.2705 38.9179 29.2234 38.9179Z" fill="url(#paint5_linear_538_13793)"/>
</g>
<g opacity="0.3">
<path opacity="0.3" d="M31.0116 22.9183C31.0116 22.9183 31.1057 22.9183 31.0116 22.9183L30.9175 22.8242L31.0116 22.9183Z" fill="url(#paint6_linear_538_13793)"/>
<path opacity="0.3" d="M24.6116 30.166C24.5175 30.166 24.5175 30.166 24.6116 30.166L31.1057 23.6719L24.6116 30.166Z" fill="url(#paint7_linear_538_13793)"/>
<path opacity="0.3" d="M31.1998 23.2948C31.1998 23.2007 31.1998 23.0125 31.1057 22.9183L31.0116 22.8242H30.9175C31.0116 22.9183 31.0116 22.9183 31.0116 23.0125V23.1066V23.2007C31.0116 23.2948 30.9175 23.3889 30.8234 23.483L24.3292 29.9772C24.2351 30.0713 24.141 30.0713 23.9528 30.0713C23.8586 30.0713 23.7645 29.9772 23.6704 29.883L23.7645 29.9772C23.8586 30.0713 23.9528 30.1654 24.141 30.1654C24.2351 30.1654 24.4234 30.1654 24.5175 30.0713L31.0116 23.5772C31.1057 23.5772 31.1998 23.483 31.1998 23.2948C31.1998 23.3889 31.1998 23.2948 31.1998 23.2948Z" fill="url(#paint8_linear_538_13793)"/>
<path opacity="0.3" d="M24.4233 30.0722L30.9175 23.5781L24.4233 30.0722Z" fill="url(#paint9_linear_538_13793)"/>
</g>
<path d="M40.3294 35.6231C36.9412 37.9761 32.9882 39.2937 28.8471 39.2937C17.8353 39.2937 8.89412 30.3525 8.89412 19.3408C8.89412 15.1055 10.2118 10.9643 12.7529 7.57606L13.0353 7.10547L12.5647 7.2937C7.2 11.1525 4 17.2702 4 23.8584C4 34.9643 13.0353 43.9996 24.1412 43.9996C30.5412 43.9996 36.6588 40.8937 40.4235 35.7172L40.7059 35.2466L40.3294 35.6231Z" fill="url(#paint10_linear_538_13793)"/>
<path d="M24.2354 44.0008C13.1295 44.0008 4.09424 34.9655 4.09424 23.8596C4.09424 17.2714 7.29424 11.1537 12.6589 7.38904L12.7531 7.29492V7.48316C10.2119 10.8714 8.89424 15.0126 8.89424 19.342C8.89424 30.4479 17.9295 39.389 28.9413 39.389C33.0825 39.389 37.0354 38.1655 40.4236 35.7185L40.5178 35.6243L40.4236 35.7185C36.7531 40.8949 30.6354 44.0008 24.2354 44.0008Z" fill="url(#paint11_linear_538_13793)"/>
<path d="M29.7884 8.89384C37.6943 11.5291 41.459 20.188 39.6708 26.7762C39.2943 28.188 38.6355 29.8821 37.7884 31.0115C40.4237 29.2233 42.3061 26.588 43.3413 23.5762C44.9413 18.6821 43.9061 13.5997 40.9884 9.83502C40.1413 8.79972 39.2943 7.95266 38.259 7.1056C36.9413 6.07031 35.4355 5.31737 33.9296 4.75266C27.5296 2.58796 20.7531 5.12913 17.0825 10.3056C20.5649 7.95266 25.0825 7.38796 29.7884 8.89384Z" fill="url(#paint12_linear_538_13793)"/>
<path d="M33.2705 10.9648C38.5411 14.6354 40.894 21.506 39.3882 26.9648C39.0117 28.3766 38.3529 30.0707 37.5058 31.2001C38.3529 30.1648 39.1058 28.659 39.5764 27.4354C41.647 21.8825 39.294 14.3531 33.2705 10.9648Z" fill="url(#paint13_linear_538_13793)"/>
</g>
<defs>
<linearGradient id="paint0_linear_538_13793" x1="30.6119" y1="43.032" x2="5.4975" y2="13.1007" gradientUnits="userSpaceOnUse">
<stop stop-color="#E60012"/>
<stop offset="0.072" stop-color="#E10012"/>
<stop offset="0.181" stop-color="#D20211"/>
<stop offset="0.311" stop-color="#B7020E"/>
<stop offset="0.364" stop-color="#AB010B"/>
<stop offset="0.492" stop-color="#BD030F"/>
<stop offset="0.697" stop-color="#D40211"/>
<stop offset="0.874" stop-color="#E20012"/>
<stop offset="1" stop-color="#E60012"/>
</linearGradient>
<linearGradient id="paint1_linear_538_13793" x1="20.6225" y1="19.8426" x2="27.7688" y2="26.9495" gradientUnits="userSpaceOnUse">
<stop stop-color="#D8000F"/>
<stop offset="0.77" stop-color="#970000"/>
<stop offset="0.874" stop-color="#980000"/>
<stop offset="0.912" stop-color="#9D0000"/>
<stop offset="0.939" stop-color="#A60000"/>
<stop offset="0.96" stop-color="#B20004"/>
<stop offset="0.979" stop-color="#C10009"/>
<stop offset="0.995" stop-color="#D2000E"/>
<stop offset="1" stop-color="#D8000F"/>
</linearGradient>
<linearGradient id="paint2_linear_538_13793" x1="25.3941" y1="16.7017" x2="24.8773" y2="19.6355" gradientUnits="userSpaceOnUse">
<stop stop-color="white"/>
<stop offset="0.048" stop-color="white" stop-opacity="0.952"/>
<stop offset="1" stop-color="white" stop-opacity="0"/>
</linearGradient>
<linearGradient id="paint3_linear_538_13793" x1="20.5275" y1="19.7277" x2="22.088" y2="21.2882" gradientUnits="userSpaceOnUse">
<stop stop-color="white"/>
<stop offset="0.048" stop-color="white" stop-opacity="0.952"/>
<stop offset="1" stop-color="white" stop-opacity="0"/>
</linearGradient>
<linearGradient id="paint4_linear_538_13793" x1="20.4003" y1="10.3154" x2="49.2586" y2="24.3982" gradientUnits="userSpaceOnUse">
<stop offset="0.012" stop-color="#E60012"/>
<stop offset="0.137" stop-color="#E40012"/>
<stop offset="0.254" stop-color="#DC0011"/>
<stop offset="0.367" stop-color="#CD0311"/>
<stop offset="0.478" stop-color="#B8020E"/>
<stop offset="0.533" stop-color="#AB010B"/>
<stop offset="0.632" stop-color="#BC1313"/>
<stop offset="0.915" stop-color="#E83828"/>
</linearGradient>
<linearGradient id="paint5_linear_538_13793" x1="39.6385" y1="34.3715" x2="19.5971" y2="34.3715" gradientUnits="userSpaceOnUse">
<stop stop-color="white"/>
<stop offset="0.048" stop-color="white" stop-opacity="0.952"/>
<stop offset="1" stop-color="white" stop-opacity="0"/>
</linearGradient>
<linearGradient id="paint6_linear_538_13793" x1="30.7154" y1="23.1577" x2="20.8989" y2="32.7522" gradientUnits="userSpaceOnUse">
<stop stop-color="white"/>
<stop offset="0.048" stop-color="white" stop-opacity="0.952"/>
<stop offset="1" stop-color="white" stop-opacity="0"/>
</linearGradient>
<linearGradient id="paint7_linear_538_13793" x1="31.2585" y1="23.5555" x2="24.1949" y2="30.459" gradientUnits="userSpaceOnUse">
<stop stop-color="white"/>
<stop offset="0.048" stop-color="white" stop-opacity="0.952"/>
<stop offset="1" stop-color="white" stop-opacity="0"/>
</linearGradient>
<linearGradient id="paint8_linear_538_13793" x1="31.0136" y1="23.3015" x2="23.9472" y2="30.2069" gradientUnits="userSpaceOnUse">
<stop stop-color="white"/>
<stop offset="0.048" stop-color="white" stop-opacity="0.952"/>
<stop offset="1" stop-color="white" stop-opacity="0"/>
</linearGradient>
<linearGradient id="paint9_linear_538_13793" x1="31.141" y1="23.4346" x2="24.0756" y2="30.34" gradientUnits="userSpaceOnUse">
<stop stop-color="white"/>
<stop offset="0.048" stop-color="white" stop-opacity="0.952"/>
<stop offset="1" stop-color="white" stop-opacity="0"/>
</linearGradient>
<linearGradient id="paint10_linear_538_13793" x1="4.77487" y1="13.6423" x2="6.10287" y2="15.1322" gradientUnits="userSpaceOnUse">
<stop stop-color="white"/>
<stop offset="0.048" stop-color="white" stop-opacity="0.952"/>
<stop offset="1" stop-color="white" stop-opacity="0"/>
</linearGradient>
<linearGradient id="paint11_linear_538_13793" x1="3.84859" y1="18.5634" x2="5.98506" y2="19.835" gradientUnits="userSpaceOnUse">
<stop stop-color="white"/>
<stop offset="0.048" stop-color="white" stop-opacity="0.952"/>
<stop offset="1" stop-color="white" stop-opacity="0"/>
</linearGradient>
<linearGradient id="paint12_linear_538_13793" x1="26.4353" y1="3.94193" x2="27.1186" y2="5.46758" gradientUnits="userSpaceOnUse">
<stop stop-color="white"/>
<stop offset="0.048" stop-color="white" stop-opacity="0.952"/>
<stop offset="1" stop-color="white" stop-opacity="0"/>
</linearGradient>
<linearGradient id="paint13_linear_538_13793" x1="36.8008" y1="31.7752" x2="36.8008" y2="10.979" gradientUnits="userSpaceOnUse">
<stop stop-color="white"/>
<stop offset="0.048" stop-color="white" stop-opacity="0.952"/>
<stop offset="1" stop-color="white" stop-opacity="0"/>
</linearGradient>
<clipPath id="clip0_538_13793">
<rect width="40" height="40" fill="white" transform="translate(4 4)"/>
</clipPath>
</defs>
</svg>
