<svg width="48" height="48" viewBox="0 0 48 48" fill="none" xmlns="http://www.w3.org/2000/svg">
<path d="M7.99984 42C5.79075 42 4 40.2092 4 37.9999V11.0001C4 8.79076 5.79075 7 7.99984 7H13.3887C14.4602 7 15.4524 7.33832 16.2663 7.91236L16.2681 7.91168L24.4807 14.6448L17.5249 20.5186L17.5238 20.5175C17.2322 20.7707 16.8512 20.9242 16.4347 20.9242C16.0178 20.9242 15.6368 20.7707 15.345 20.517L15.3427 20.5193L13.2857 18.7185L13.2809 18.726C13.0064 18.5259 12.6683 18.4078 12.3027 18.4078C11.5367 18.4078 10.8917 18.9262 10.6993 19.6313C10.6612 19.7708 10.6407 19.9179 10.6407 20.0695C10.6407 20.5102 10.7868 20.8699 11.0693 21.2472L18.852 31.5383C19.5689 32.4037 19.9998 33.737 19.9998 34.9487V34.9493V40C19.9998 41.1045 19.1043 42 17.9998 42V41.9998H7.99984" fill="#1677FF"/>
<path d="M26.9888 27.2328C26.539 27.6199 25.9852 27.9999 25.2172 27.9999C24.4389 27.9999 23.8575 27.6149 23.3993 27.2328L17.0757 21.8974H17.0759C17.6162 21.7898 18.1064 21.5427 18.5067 21.1948V21.1941C18.5085 21.192 18.8361 20.8984 19.4266 20.3677L34.0738 8.28055C34.9595 7.48445 36.1311 7 37.4157 7H39.9998C42.2089 7 43.9999 8.79076 43.9999 10.9999V37.9999H43.9858C43.9858 40.209 42.1948 42 39.9857 42H29.9999C28.8953 42 27.9998 41.1045 27.9998 40L27.9996 34.5716V34.5714C27.9996 33.4 28.4022 32.1008 29.0766 31.2486L35.1984 24.5374L35.1986 24.5376C35.4818 24.2397 35.6555 23.8368 35.6555 23.3932C35.6555 22.4756 34.9114 21.7314 33.9936 21.7314C33.6106 21.7314 33.2579 21.8612 32.9768 22.0787L32.9866 22.0716L26.9888 27.2328Z" fill="#00B6FF"/>
</svg>
