<svg width="48" height="48" viewBox="0 0 48 48" fill="none" xmlns="http://www.w3.org/2000/svg">
<g clip-path="url(#clip0_538_13791)">
<path d="M43.9998 23.9992C43.9998 35.0435 35.0453 43.9982 24.0006 43.9982C12.9543 43.9982 4 35.0441 4 23.9992C4 12.9529 12.9543 3.99643 24.0006 4C35.0451 4 43.9998 12.9529 43.9998 23.9992Z" fill="url(#paint0_radial_538_13791)"/>
<path opacity="0.5" d="M28.5114 4.51063C27.0624 4.17457 25.5511 4 24.0008 4C23.852 4 23.7032 4.00178 23.5599 4.00555C28.1474 9.45064 27.8775 17.6208 22.7519 22.7483C17.6264 27.8777 9.45222 28.1439 4.00713 23.5544C4.00357 23.7034 4 23.8502 4 23.9992C4 25.5491 4.17635 27.0584 4.51063 28.5094C11.2229 32.1383 19.7953 31.121 25.459 25.459C31.1246 19.7955 32.1383 11.2209 28.5114 4.51063ZM18.3007 18.2969C21.3785 15.2191 21.3785 10.2127 18.3007 7.13687C17.6524 6.48873 16.9234 5.97989 16.1409 5.60539C13.9191 6.55293 11.9061 7.89359 10.1838 9.53703C11.7779 8.26631 14.1176 8.3636 15.594 9.84C17.1788 11.4268 17.1788 14.0053 15.594 15.592C14.0092 17.1768 11.4287 17.1768 9.84396 15.592C8.36558 14.1136 8.26453 11.7753 9.54099 10.1798C7.89736 11.9025 6.55669 13.9173 5.60559 16.1375C5.98187 16.9196 6.49269 17.6524 7.13885 18.2989C10.2127 21.3767 15.2209 21.3767 18.3007 18.2969ZM43.5153 19.6156C36.8397 16.1026 28.3699 17.1491 22.7596 22.7556C17.1495 28.366 16.1042 36.8362 19.6176 43.5135C21.03 43.8314 22.4953 43.998 24.0012 43.998C24.1664 43.998 24.3279 43.9945 24.4898 43.9907C20.0824 38.5494 20.4072 30.524 25.4629 25.4667C30.5244 20.4014 38.5531 20.0785 43.9947 24.488C43.9964 24.3244 44 24.1649 44 23.9996C44 22.4913 43.8328 21.0258 43.5153 19.6156ZM18.3116 18.3098C24.1405 12.4811 32.2485 10.2884 39.7945 11.7299C38.5185 10.0879 36.9919 8.6521 35.2714 7.47649C28.1498 7.47649 21.0296 10.1838 15.6087 15.6047C10.1838 21.0258 7.47867 28.148 7.47867 35.2716C8.65428 36.9907 10.0903 38.5167 11.7301 39.7912C10.292 32.2467 12.4807 24.1389 18.3116 18.3098ZM38.1325 38.1489L38.1436 38.138L38.1489 38.1307L38.1325 38.1489ZM40.8469 29.692C37.7708 26.6142 32.77 26.6142 29.6902 29.692C26.6197 32.7645 26.6197 37.7689 29.6942 40.8447C30.3478 41.4988 31.0879 42.0112 31.876 42.3873C34.2303 41.3771 36.3476 39.932 38.1327 38.1487C36.5497 39.7242 33.9785 39.7222 32.3975 38.1374C30.8147 36.5546 30.8147 33.9799 32.3975 32.3965C33.9805 30.8097 36.559 30.8097 38.1438 32.3965C39.7234 33.9759 39.7248 36.5453 38.1491 38.1305C39.9324 36.3472 41.3795 34.226 42.3879 31.8754C42.0148 31.0859 41.4988 30.3461 40.8469 29.692Z" fill="white"/>
</g>
<defs>
<radialGradient id="paint0_radial_538_13791" cx="0" cy="0" r="1" gradientUnits="userSpaceOnUse" gradientTransform="translate(23.9293 23.9623) scale(19.9938 19.9938)">
<stop stop-color="#F3C91E"/>
<stop offset="0.226" stop-color="#F3C71F"/>
<stop offset="0.408" stop-color="#F1C11C"/>
<stop offset="0.574" stop-color="#EEB619"/>
<stop offset="0.731" stop-color="#ECA517"/>
<stop offset="0.88" stop-color="#E88D15"/>
<stop offset="1" stop-color="#E37610"/>
</radialGradient>
<clipPath id="clip0_538_13791">
<rect width="40" height="39.998" fill="white" transform="translate(4 4)"/>
</clipPath>
</defs>
</svg>
