<svg width="48" height="48" viewBox="0 0 48 48" fill="none" xmlns="http://www.w3.org/2000/svg">
<g clip-path="url(#clip0_538_13780)">
<path d="M37.2999 10.064C33.7659 6.916 29.1099 5 23.9999 5C18.8799 5 14.2119 6.922 10.6739 10.086C16.2279 6.998 23.5559 5.624 31.3019 7.422C13.0979 11.178 6.51188 24.12 6.73188 35.098C7.48188 36.378 8.36988 37.566 9.37788 38.644C8.49388 30.612 18.7419 14.272 37.2999 10.064ZM40.3259 13.446C36.0259 13.976 18.2319 22.954 12.0259 41.022C13.4379 42.08 14.9939 42.954 16.6599 43.612C23.6379 34.968 29.8539 26.682 40.4419 19.08C40.6219 18.926 42.3679 17.702 42.5679 17.558C41.9819 16.094 41.2259 14.714 40.3259 13.446Z" fill="#8FC31F"/>
<path d="M42.568 17.5574C42.38 17.6894 40.86 18.7554 40.504 19.0294C41.516 21.5494 42.074 24.2994 42.074 27.1814C42.074 29.2534 41.782 31.2574 41.246 33.1594L41.244 33.1234L41.234 33.1634C40.688 22.7414 33.968 11.1734 17.158 7.52344C14.832 8.11744 12.664 8.98544 10.714 10.0654C29.262 14.2714 39.506 30.5914 38.632 38.6314C41.962 35.0594 44 30.2694 44 24.9994C44 22.3714 43.492 19.8594 42.568 17.5574ZM7.674 13.4454C6.776 14.7134 6.02 16.0934 5.432 17.5574C4.508 19.8594 4 22.3714 4 24.9994C4 28.6834 4.998 32.1314 6.732 35.0934C6.72 34.4634 6.732 33.8254 6.764 33.1854C6.22 31.2774 5.928 29.2654 5.928 27.1814C5.928 24.3014 6.486 21.5514 7.496 19.0294L7.558 19.0794C18.144 26.6814 24.362 34.9654 31.34 43.6114C33.006 42.9534 34.562 42.0794 35.974 41.0214C29.77 22.9534 11.976 13.9734 7.674 13.4454Z" fill="#036EB8"/>
<path d="M6.75419 33.418L6.74219 33.738L6.75419 33.418Z" fill="#036EB8"/>
<path d="M6.75419 33.418L6.74219 33.738L6.75419 33.418Z" fill="#8FC31F"/>
<path d="M19.4561 19.398C17.6361 18.07 15.8741 16.968 14.2681 16.084C12.6981 17.672 11.4001 19.386 10.3481 21.174C11.8481 22.352 13.2561 23.544 14.5921 24.752C15.9581 22.918 17.5841 21.106 19.4561 19.398Z" fill="#036EB8"/>
<path d="M19.4561 19.398C17.6361 18.07 15.8741 16.968 14.2681 16.084C12.6981 17.672 11.4001 19.386 10.3481 21.174C11.8481 22.352 13.2561 23.544 14.5921 24.752C15.9581 22.918 17.5841 21.106 19.4561 19.398Z" fill="#2A6E3A"/>
<path d="M42.1519 17.8506L42.5679 17.5586L42.1519 17.8506Z" fill="#8FC31F"/>
<path d="M42.1519 17.8506L42.5679 17.5586L42.1519 17.8506Z" fill="#036EB8"/>
<path d="M33.7338 16.0859C32.1278 16.9679 30.3678 18.0679 28.5498 19.3919C30.4218 21.0999 32.0458 22.9119 33.4178 24.7459C34.7498 23.5419 36.1558 22.3519 37.6538 21.1739C36.6018 19.3859 35.3018 17.6719 33.7338 16.0859Z" fill="#2A6E3A"/>
<path d="M11.5282 9.63477L11.3862 9.70877L11.5282 9.63477Z" fill="#8FC31F"/>
<path d="M11.5282 9.63477L11.3862 9.70877L11.5282 9.63477Z" fill="#036EB8"/>
<path d="M12.2218 9.29297L12.1958 9.30897L12.2218 9.29297Z" fill="#8FC31F"/>
<path d="M12.2218 9.29297L12.1958 9.30897L12.2218 9.29297Z" fill="#036EB8"/>
<path d="M10.7139 10.0665L10.7259 10.0605L10.7139 10.0665Z" fill="#8FC31F"/>
<path d="M10.7139 10.0665L10.7259 10.0605L10.7139 10.0665Z" fill="#036EB8"/>
<path d="M24.0002 9.64844C21.9202 10.5164 20.0542 11.5324 18.3882 12.6644C20.4002 13.5844 22.2742 14.6504 24.0062 15.8184C25.7342 14.6504 27.6062 13.5884 29.6162 12.6684C27.9482 11.5344 26.0782 10.5184 24.0002 9.64844ZM24.0002 23.1284C22.1922 24.7944 20.4142 26.6784 18.7602 28.7824C20.6082 30.6904 22.3342 32.6304 24.0002 34.5924C25.6662 32.6304 27.3922 30.6904 29.2402 28.7824C27.5862 26.6804 25.8082 24.7944 24.0002 23.1284Z" fill="#2A6E3A"/>
</g>
<defs>
<clipPath id="clip0_538_13780">
<rect width="40" height="38.612" fill="white" transform="translate(4 5)"/>
</clipPath>
</defs>
</svg>
