<svg width="48" height="48" viewBox="0 0 48 48" fill="none" xmlns="http://www.w3.org/2000/svg">
<g clip-path="url(#clip0_538_13805)">
<path d="M15.528 38.676H10.464C13.072 41.076 16.316 42.796 19.912 43.548V40.448C18.356 40.06 16.88 39.46 15.528 38.676ZM9.868 33.36H6.348C6.924 34.428 7.588 35.448 8.344 36.396L12.448 36.392C11.472 35.484 10.604 34.472 9.868 33.36ZM34.504 10.64C36.352 12.1 37.888 13.936 39 16.024H25.712V13.408C29.512 12.8 32.644 10.18 33.976 6.676C33.636 6.392 31.244 5.344 31.244 5.344C30.404 7.832 28.308 9.74 25.712 10.324V4.052L24.02 4L22.304 4.056L22.312 10.308C19.736 9.716 17.66 7.808 16.828 5.332L16.656 5.396C16.352 5.492 14.076 6.62 14.076 6.62C15.392 10.132 18.52 12.776 22.312 13.396L22.316 16.024H9.004C10.116 13.928 11.656 12.096 13.504 10.64C12.684 9.592 12 7.98 12 7.98C7.148 11.628 4 17.44 4 23.968L4.056 25.468H7.088L7.028 23.968C7.028 22.256 7.284 20.604 7.756 19.044H15.688L17.484 20.724L13.216 25.448L17.276 25.452L19.684 22.788L22.304 25.464V27.9H9.932C9.932 27.9 10.324 29.84 11.248 30.92H22.304V33.372H12.92C12.92 33.372 13.936 34.996 16.252 36.396H22.304V43.924L23.996 43.988L25.716 43.92L25.708 36.4H31.812C34.12 34.996 35.144 33.372 35.144 33.372H25.708V30.92H36.816C37.736 29.836 38.132 27.9 38.132 27.9H25.708V25.444L28.308 22.752L30.748 25.456L34.836 25.452L30.516 20.696L32.296 19.044H40.248C40.72 20.604 40.976 22.256 40.976 23.968C40.976 31.912 35.488 38.6 28.108 40.44L28.096 43.548C37.168 41.652 44 33.592 44 23.968C44 17.448 40.86 11.644 36.012 7.988C36.012 7.992 35.448 9.428 34.504 10.64ZM24.016 22.76L19.856 18.868H28.064L24.016 22.76ZM7.484 27.9H4.388C4.6 28.94 4.884 29.952 5.252 30.928L8.516 30.92C8.076 29.96 7.732 28.944 7.484 27.9ZM33.984 6.844L33.976 6.872V6.876L33.984 6.844Z" fill="#CE0E2D"/>
</g>
<defs>
<clipPath id="clip0_538_13805">
<rect width="40" height="39.988" fill="white" transform="translate(4 4)"/>
</clipPath>
</defs>
</svg>
