<svg width="48" height="48" viewBox="0 0 48 48" fill="none" xmlns="http://www.w3.org/2000/svg">
<g clip-path="url(#clip0_538_13799)">
<path d="M28.063 5.794C29.148 4.113 31.038 3 33.187 3C36.553 3 39.282 5.729 39.282 9.094C39.282 10.61 38.728 11.997 37.812 13.064C35.65 9.525 32.174 6.876 28.063 5.794ZM8.63402 9.094C8.63402 5.729 11.363 3 14.729 3C16.869 3 18.751 4.103 19.839 5.772C15.717 6.832 12.227 9.466 10.047 12.995C9.16402 11.938 8.63402 10.578 8.63402 9.094ZM38.721 14.773C42.104 18.357 45.313 24.308 43.453 33.319C42.271 39.044 37.547 44.043 33.394 44.137C30.088 44.212 28.694 42.097 29.308 39.366C29.578 38.165 30.217 36.998 32.115 35.603C36.945 32.779 40.189 27.538 40.189 21.539C40.19 19.125 39.664 16.834 38.721 14.773ZM28.063 22.18C26.159 19.654 26.005 16.559 27.719 15.267C29.433 13.975 32.366 14.975 34.271 17.502C36.176 20.028 36.331 23.123 34.616 24.415C32.901 25.707 29.968 24.708 28.063 22.18ZM19.752 22.18C21.656 19.654 21.809 16.559 20.095 15.267C18.38 13.975 15.447 14.975 13.543 17.502C11.639 20.028 11.486 23.123 13.201 24.415C14.916 25.708 17.849 24.708 19.752 22.18ZM23.578 32.954C22.587 34.887 19.651 34.094 19.105 32.174C18.78 31.031 19.293 29.706 19.981 28.997C21.974 26.944 25.454 27.263 27.25 29.858C30.222 34.15 28.651 43.054 19.81 44.052C12.641 44.862 7.52703 40.496 5.28103 35.142C2.16402 27.711 5.25702 18.887 9.04602 14.881C8.13402 16.914 7.62703 19.168 7.62703 21.539C7.62703 27.21 10.431 31.984 14.607 34.779C18.901 37.655 24.177 36.027 23.578 32.954Z" fill="#040000"/>
</g>
<defs>
<clipPath id="clip0_538_13799">
<rect width="40" height="41.149" fill="white" transform="translate(4 3)"/>
</clipPath>
</defs>
</svg>
