<svg width="48" height="48" viewBox="0 0 48 48" fill="none" xmlns="http://www.w3.org/2000/svg">
<g clip-path="url(#clip0_538_13868)">
<path fill-rule="evenodd" clip-rule="evenodd" d="M33.4141 21.0741C33.3073 21.1764 24.8036 29.6556 24.4975 29.961C24.1874 30.2724 23.742 30.2014 23.4953 29.9562C23.3098 29.7691 20.7965 27.2587 20.0337 26.4968C19.6897 26.1529 19.0649 26.4315 19.0649 26.8944V33.9429C19.0649 34.2766 19.201 34.8055 19.7665 35.0579C22.5667 36.3037 25.8469 36.2569 28.6563 34.8667C29.7281 34.3375 30.6662 33.6445 31.4568 32.8373L31.6171 32.669C34.4651 29.6228 35.3497 25.0926 33.4141 21.0741ZM14.5899 29.9836C14.698 29.8813 23.3369 21.2654 23.5017 21.1012C23.7978 20.8041 24.2412 20.8341 24.5052 21.098C24.7695 21.3626 27.2075 23.7974 27.9706 24.5609C28.3509 24.9412 28.9458 24.6431 28.9458 24.1631V17.1149C28.9458 16.7814 28.8074 16.2513 28.2374 16.0004C25.4344 14.7616 22.1564 14.7996 19.347 16.1904C18.2763 16.7196 17.3384 17.4123 16.5469 18.2207L16.3859 18.3878C13.5402 21.4353 12.6546 25.9661 14.5899 29.9836ZM13.1917 18.1949C12.5752 16.7846 12.1787 14.7903 12.5609 12.7814C8.03071 13.1148 4.46135 16.652 4.03642 21.2322C3.61149 25.8223 6.93922 30.5925 12.223 31.1893C9.92266 26.3228 10.9785 21.3709 13.1917 18.1949ZM13.6929 33.5237C12.1614 33.6725 10.1426 33.4306 8.35141 32.4417C7.26182 36.8517 9.5159 41.3436 13.7375 43.1699C14.8618 43.6557 16.0799 43.8938 17.3046 43.8916C20.69 43.8836 24.123 42.0322 25.7449 38.4797C20.4054 39.1555 16.0257 36.6139 13.6929 33.5237ZM28.4459 37.7513C28.1166 39.2547 27.2652 41.1026 25.7749 42.5014C29.6356 44.8945 34.6028 44.131 37.6369 40.6758C40.681 37.211 40.7916 31.3958 36.8677 27.8077C35.8687 33.0965 32.1042 36.4829 28.4459 37.7513ZM37.0482 25.0815C38.3778 25.8561 39.8738 27.2339 40.7485 29.0815C44.2121 26.1411 45.0093 21.1787 42.652 17.2296C40.2898 13.2707 34.789 11.381 30.1696 14.0132C34.8961 16.5879 36.963 21.2102 37.0482 25.0815ZM27.605 12.9998C28.7535 11.9758 30.5263 10.9793 32.555 10.7205C31.1036 7.18014 27.7025 4.99332 23.9849 5.00002H23.9572C23.2706 5.0032 22.5731 5.08162 21.8753 5.24006C17.3789 6.25983 13.8793 10.9041 14.9508 16.1123C18.8628 12.4154 23.8976 11.8815 27.605 12.9998Z" fill="#E60012"/>
</g>
<defs>
<clipPath id="clip0_538_13868">
<rect width="40" height="38.8916" fill="white" transform="translate(4 5)"/>
</clipPath>
</defs>
</svg>
