<svg width="48" height="48" viewBox="0 0 48 48" fill="none" xmlns="http://www.w3.org/2000/svg">
<g clip-path="url(#clip0_538_13859)">
<path fill-rule="evenodd" clip-rule="evenodd" d="M32.1338 7.6329C32.6758 8.3149 43.0778 21.2389 43.0778 21.2389C43.0778 21.2389 45.1518 23.4899 43.0778 25.9569L38.1168 32.0579C38.1168 32.0579 35.9048 34.7169 38.0578 37.6629L40.5628 40.8789H31.8828L27.4078 35.2799C27.4078 35.2799 24.2018 31.8269 27.4078 28.0369L33.8468 19.8899C33.8468 19.8899 36.0238 17.3469 34.0088 14.7299L29.8698 9.3769C28.6408 7.7709 30.8848 6.0379 32.1338 7.6329Z" fill="#00894C"/>
<path d="M17.5928 17.5603C17.5928 14.0013 20.4818 11.1113 24.0438 11.1113C27.3558 11.1113 30.0858 13.6003 30.4598 16.8063H27.0088L24.0448 13.8393L20.3308 17.5603L24.0448 21.2743L27.0088 18.3173H30.4598C30.0858 21.5213 27.3558 24.0103 24.0438 24.0103C20.4818 24.0103 17.5928 21.1283 17.5928 17.5603Z" fill="#D33516"/>
<path fill-rule="evenodd" clip-rule="evenodd" d="M15.8588 7.6329C15.3228 8.3139 4.92085 21.2389 4.92085 21.2389C4.92085 21.2389 2.84785 23.4899 4.92085 25.9569L9.88585 32.0579C9.88585 32.0579 12.0938 34.7169 9.95385 37.6629L7.42884 40.8789H16.1148L20.5828 35.2799C20.5828 35.2799 23.7878 31.8269 20.5828 28.0369L14.1498 19.8899C14.1498 19.8899 11.9868 17.3469 13.9898 14.7299C13.9898 14.7299 17.4398 10.2689 18.1208 9.3769C19.3508 7.7709 17.1148 6.0379 15.8588 7.6329Z" fill="#00894C"/>
</g>
<defs>
<clipPath id="clip0_538_13859">
<rect width="40" height="33.879" fill="white" transform="translate(4 7)"/>
</clipPath>
</defs>
</svg>
