<svg width="48" height="48" viewBox="0 0 48 48" fill="none" xmlns="http://www.w3.org/2000/svg">
<g clip-path="url(#clip0_538_13803)">
<path fill-rule="evenodd" clip-rule="evenodd" d="M24 4C12.9722 4 4 12.9727 4 24C4 35.0283 12.9722 43.9995 24 43.9995C35.0283 43.9995 44 35.0283 44 24C44 12.9727 35.0283 4 24 4V4ZM24 40.7806C14.7482 40.7806 7.22211 33.2523 7.22211 24C7.22211 14.7482 14.7482 7.2205 24 7.2205C33.2534 7.2205 40.78 14.7482 40.78 24C40.78 33.2523 33.2534 40.7806 24 40.7806Z" fill="#3D9F2F"/>
<path d="M25.3463 31.4573C23.6544 29.0509 21.2453 28.6063 19.8672 28.5704C19.5646 28.5506 18.0987 28.4258 16.7506 27.8715C12.6175 25.6852 15.9692 22.341 15.9692 22.341C10.9935 23.9028 13.6319 30.9597 17.5647 30.2399C20.2935 29.7396 21.9083 30.655 22.6416 31.2607C23.0604 31.5794 23.9977 32.2757 24.4717 32.5167C27.7447 33.9456 28.562 30.6121 28.562 30.6121C26.7667 33.3061 25.3463 31.4573 25.3463 31.4573ZM29.4012 15.779C26.7324 14.1952 23.4653 14.9975 23.9623 17.3075C23.9623 17.3075 23.988 16.9396 24.2944 16.6718L24.2885 16.667C24.2885 16.667 24.9248 15.8464 26.8663 16.276C27.1293 16.3531 27.4281 16.4741 27.7179 16.6707C28.2835 17.0649 28.8501 17.766 27.5695 18.6069L27.4635 18.6738C26.238 19.5832 23.5446 20.6373 22.9972 22.476C22.9972 22.476 23.5654 22.0646 24.394 21.5735C24.5097 21.528 27.3269 20.4038 28.5427 19.9732C28.7382 19.9116 28.9128 19.8553 29.0172 19.8184L29.0563 19.8071H29.0579L29.1517 19.7707C30.9207 19.1071 31.7343 17.164 29.4012 15.779ZM19.6701 18.218C21.1505 16.6921 24.5359 17.6235 24.5359 17.6235L24.4272 17.5084C21.3556 14.9836 18.976 16.2738 18.0821 16.9594C17.87 17.149 17.6434 17.3921 17.5433 17.5014C13.303 23.2344 25.1701 27.5046 25.1701 27.5046C18.0933 21.6576 18.1919 19.7439 19.6701 18.218ZM34.4561 26.381L34.4545 26.3863C34.273 25.7773 33.8407 25.2396 32.8965 25.1732C32.7085 25.1534 32.5543 25.1593 32.4284 25.178L32.4241 25.1775L32.4252 25.178C32.0594 25.2337 31.9319 25.4019 31.9319 25.4019C32.2431 25.3633 32.5184 25.4324 32.7578 25.5604C32.9035 25.6606 33.1348 25.8705 33.3282 26.2856L33.3293 26.2883C33.702 27.1254 33.8536 28.5372 30.767 28.7236L30.6909 28.729C29.1035 28.6883 26.3644 28.8993 25.7507 30.7503C25.7962 30.6357 26.4635 29.1923 30.444 29.9833L30.7161 30.0444C31.6127 30.3004 32.2704 30.0808 32.2704 30.0808L32.2693 30.0803C32.4054 30.053 32.5468 30.0171 32.6908 29.9678C35.3077 29.1655 34.4561 26.381 34.4561 26.381ZM34.5697 19.8377L34.4722 19.6839L34.4224 19.6181L34.3983 19.5865C34.243 19.3883 33.3796 18.4157 31.8553 19.0396C31.6545 19.1178 31.4713 19.2115 31.3058 19.3171L31.2865 19.3278L31.2892 19.3288C31.1831 19.3958 31.0814 19.4665 30.9914 19.5372C30.774 19.7209 30.5469 19.9453 30.316 20.2227C30.316 20.2227 37.0039 17.8913 26.5187 28.9448C26.5192 28.9443 36.1866 22.702 34.5697 19.8377Z" fill="#3D9F2F"/>
</g>
<defs>
<clipPath id="clip0_538_13803">
<rect width="40" height="39.9995" fill="white" transform="translate(4 4)"/>
</clipPath>
</defs>
</svg>
