<svg width="48" height="48" viewBox="0 0 48 48" fill="none" xmlns="http://www.w3.org/2000/svg">
<g clip-path="url(#clip0_538_13804)">
<path d="M17.1359 23.9647H17.1481H17.1359ZM30.9108 23.9942L30.8991 23.9972L30.9108 23.9942ZM23.9647 30.8635V30.858V30.8635ZM24.0409 17.0923V17.1009V17.0923ZM10.7516 32.8468C12.7703 35.8122 15.7561 38.0717 19.2573 39.1636C19.2603 39.0783 19.2045 38.934 19.0338 38.6928C18.5453 38.1011 17.0918 35.0829 18.2776 31.9082C18.7601 30.8346 20.1633 29.1429 21.6138 28.9839C22.2847 28.9083 22.7819 28.9133 22.9556 28.9083L22.982 28.922H28.5253C29.0926 28.922 29.5573 29.3841 29.5573 29.9575V36.3592C29.5573 36.93 29.0926 37.3922 28.5253 37.3922H22.9469C22.3761 37.3922 21.917 36.93 21.917 36.3592V32.6609H25.9215L25.9276 33.5349L23.565 33.5669V34.7086C23.565 34.9879 23.8002 35.2175 24.0856 35.2175H26.7722C27.0551 35.2175 27.2902 34.9879 27.2902 34.7086V31.4014C27.2902 31.116 27.0551 30.8834 26.7722 30.8834H23.9769V30.8894H22.0968C22.0968 30.8894 20.0023 31.8016 20.0496 34.2789C19.9551 35.0702 20.2639 38.9594 23.7296 39.8771L24.0272 39.8802C28.4192 39.8802 32.3998 38.1149 35.2957 35.2464C37.0864 33.4369 38.4521 31.1982 39.2169 28.7C39.1407 28.6889 38.9909 28.7417 38.7375 28.9235C38.1463 29.409 35.1301 30.862 31.9534 29.6767C30.8762 29.1972 29.1937 27.7935 29.0286 26.3466C28.9555 25.6752 28.9585 25.1749 28.9555 25.0018L28.9702 24.9754V19.434C28.9702 18.8601 29.4314 18.4071 29.9992 18.4071H36.4033C36.9747 18.4071 37.4338 18.8601 37.4338 19.434V25.0119C37.4338 25.5797 36.9747 26.0475 36.4033 26.0475H32.7081V22.0374L33.5822 22.0282L33.6172 24.3908H34.7502C35.0382 24.3908 35.2652 24.1582 35.2652 23.8758V21.1897C35.2652 20.9074 35.0387 20.6753 34.7502 20.6753H31.4461C31.1632 20.6753 30.928 20.9074 30.928 21.1897V23.982L30.9306 23.9789V25.859C30.9306 25.859 31.8488 27.9601 34.3257 27.9037C35.1113 28.0068 39.0067 27.695 39.9223 24.2293L39.9254 23.9759C39.9254 19.5839 38.1595 15.6032 35.2952 12.7079C33.4821 10.9161 31.246 9.55097 28.7483 8.78917C28.7422 8.86281 28.7894 9.00959 28.9697 9.2686C29.4608 9.86026 30.9138 12.8729 29.7249 16.0471C29.2455 17.1212 27.8392 18.8155 26.3887 18.9744C25.7214 19.045 25.2181 19.0425 25.05 19.045L25.0211 19.0333H19.4808C18.9074 19.0333 18.4452 18.5712 18.4452 18.0008V11.5992C18.4452 11.0284 18.9074 10.5667 19.4808 10.5667H25.0592C25.6295 10.5667 26.0886 11.0284 26.0886 11.5992V15.2975H22.082L22.076 14.4178L24.4385 14.3853V13.2528C24.4385 12.9674 24.2029 12.7348 23.9205 12.7348H21.2344C20.952 12.7348 20.7255 12.9674 20.7255 13.2528V16.5539C20.7255 16.8388 20.952 17.0745 21.2344 17.0745H24.0297L24.0267 17.0689H25.9063C25.9063 17.0689 28.0043 16.1568 27.9504 13.6794C28.0479 12.8907 27.7392 8.99587 24.273 8.0807L24.0262 8.07765C18.5006 8.07765 13.6317 10.8668 10.7511 15.1151C9.91562 16.3741 9.24828 17.7632 8.78917 19.2426C8.86281 19.2837 9.00959 19.2517 9.30973 19.0338C9.90394 18.5427 12.9196 17.0923 16.0938 18.2776C17.1679 18.7576 18.8596 20.1638 19.0216 21.6143C19.0953 22.2791 19.0861 22.7793 19.0953 22.9556L19.0801 22.985V28.5192C19.0801 29.0957 18.6214 29.5548 18.0445 29.5548H11.6434C11.0725 29.5548 10.6134 29.0957 10.6134 28.5192V22.9439C10.6134 22.3731 11.0725 21.9144 11.6434 21.9144H15.3386V25.9246L14.4651 25.9271L14.4326 23.5645H13.297C13.0116 23.5645 12.782 23.7971 12.782 24.0825V26.7686C12.782 27.0515 13.0116 27.2806 13.297 27.2806H16.6007C16.8861 27.2806 17.1187 27.0515 17.1187 26.7686V23.9738H17.1156V22.0963C17.1156 22.0963 16.2035 19.9957 13.7205 20.0521C12.9201 19.9521 8.89227 20.2725 8.0807 23.9352L8.07765 23.9764C8.07765 27.2572 9.06037 30.3018 10.7516 32.8468ZM43.9 21.9464C43.9645 22.6117 44 23.2938 44 23.9764C44 25.7036 43.7847 27.3776 43.3702 28.9692C43.2087 29.6081 43.0142 30.2374 42.7908 30.8493C42.3433 32.0733 41.7781 33.2383 41.1102 34.3384C37.9361 39.5546 32.443 43.2057 26.0678 43.8502H26.0561C25.3888 43.9213 24.7087 43.9563 24.0267 43.9563H23.9794C12.9496 43.9558 4 35.0123 4 23.9764C4 12.9466 12.9496 4 23.9794 4H24.0267C28.5071 4 32.6406 5.47687 35.9762 7.97151C37.6415 9.21933 39.1098 10.7226 40.3129 12.4235C42.2611 15.1593 43.5383 18.4132 43.9 21.9409V21.9464Z" fill="#B42238"/>
</g>
<defs>
<clipPath id="clip0_538_13804">
<rect width="40" height="39.9558" fill="white" transform="translate(4 4)"/>
</clipPath>
</defs>
</svg>
