<svg width="48" height="48" viewBox="0 0 48 48" fill="none" xmlns="http://www.w3.org/2000/svg">
<g clip-path="url(#clip0_538_13800)">
<path d="M37.1917 23.0414V22.0489C37.6058 21.8835 38.0182 21.6767 38.2669 21.5526C38.5977 21.3872 38.6385 21.1805 38.6385 20.9323V20.6429H37.1912V19.7744H38.6385V19.2368C38.6385 19.1541 38.7218 19.1128 38.8045 19.1128H39.631C39.7143 19.1128 39.7551 19.1541 39.7551 19.2368V19.7744H40.9957C41.0784 19.7744 41.1197 19.8158 41.1197 19.8985V20.5188C41.1197 20.6015 41.0784 20.6429 40.9957 20.6429H39.7551V21.0564C39.7551 21.4699 39.5483 21.9248 39.0107 22.1729C38.8045 22.297 38.5558 22.4211 38.2663 22.5451C38.7626 22.7519 39.1761 22.8346 39.631 22.8346H40.7889C40.8722 22.8346 40.9549 22.8759 40.9549 22.9586V23.5789C40.9549 23.6617 40.8716 23.7444 40.7889 23.7444H39.6729C39.2175 23.7444 38.6385 23.6203 38.1842 23.4549C37.9774 23.3722 37.6466 23.2068 37.1917 23.0414ZM37.1917 18.5752H40.1272V18.9887C40.1272 19.0714 40.2105 19.1128 40.2519 19.1128H40.9555C40.9962 19.1128 41.0789 19.0714 41.0789 18.9887V18.5338C41.0789 18.1203 40.7481 17.7895 40.3352 17.7895H37.812V17.4586C37.812 17.3759 37.7707 17.2932 37.688 17.2932H37.1917V18.5752ZM37.1917 17.2932V18.5752H34.297V18.9887C34.297 19.0714 34.2143 19.1128 34.1316 19.1128H33.4699C33.4291 19.1128 33.3464 19.0714 33.3464 18.9887V18.5338C33.3464 18.1203 33.6767 17.7895 34.0902 17.7895H36.6134V17.4586C36.6134 17.3759 36.6547 17.2932 36.7374 17.2932H37.1917ZM37.1917 19.7744H35.7863V19.2368C35.7863 19.1541 35.703 19.1128 35.6203 19.1128H34.7938C34.7105 19.1128 34.6692 19.1541 34.6692 19.2368V19.7744H33.4286C33.3459 19.7744 33.3045 19.8158 33.3045 19.8985V20.5188C33.3045 20.6015 33.3459 20.6429 33.4286 20.6429H34.6686V21.0564C34.6686 21.4699 34.8759 21.9248 35.4135 22.1729C35.6197 22.297 35.8684 22.4211 36.1579 22.5451C35.6617 22.7519 35.2481 22.8346 34.7932 22.8346H33.6353C33.5521 22.8346 33.4694 22.8759 33.4694 22.9586V23.5789C33.4694 23.6617 33.5526 23.7444 33.6353 23.7444H34.7513C35.2062 23.7444 35.7857 23.6203 36.24 23.4549C36.4468 23.3722 36.7782 23.2068 37.1912 23.0414V22.0489C36.819 21.8835 36.4054 21.6767 36.1573 21.5526C35.8265 21.3872 35.7857 21.1805 35.7857 20.9323V20.6429H37.1912V19.7744H37.1917ZM30.8233 22.5865V21.6353H32.4367C32.5194 21.6353 32.5602 21.718 32.5602 21.8008V22.4211C32.5602 22.5038 32.5194 22.5865 32.4367 22.5865H30.8233ZM30.8233 21.1391V19.0301H31.8571C31.9399 19.0301 31.9812 19.1128 31.9398 19.1541L30.9893 21.015C30.9887 21.0977 30.9066 21.1391 30.8233 21.1391ZM30.8233 18.5338V17.6654H32.188C32.2707 17.6654 32.312 17.7068 32.312 17.7895V18.4098C32.312 18.4925 32.2707 18.5338 32.188 18.5338H30.8233ZM30.8233 17.6654V18.5338H29.3346V21.6353H30.8233V22.5865H29.3346V23.7444C29.3346 23.8271 29.2513 23.9098 29.1692 23.9098H28.218C28.1353 23.9098 28.094 23.8271 28.094 23.7444V22.5865H26.5639V21.6353H28.094V18.5338H26.5639V17.6654H30.8233ZM30.8233 19.0301C30.74 19.0714 30.6992 19.1128 30.6579 19.1541L29.7073 21.015C29.666 21.0977 29.7073 21.1391 29.7895 21.1391H30.8239V19.0301H30.8233ZM26.5639 21.1391H27.5977C27.6805 21.1391 27.7218 21.0977 27.6805 21.015L26.7299 19.1541C26.6885 19.1128 26.6472 19.0714 26.5645 19.0301V21.1391H26.5639ZM22.2632 21.2218H21.4361V21.5526H20.609V20.8083H22.015V20.1466H20.609V19.609H22.2632V18.8647H20.0301V22.297H22.2632V21.2218ZM26.5639 17.6654V18.5338H25.2406C25.1573 18.5338 25.0752 18.4925 25.0752 18.4098V17.7895C25.0752 17.7068 25.1579 17.6654 25.2406 17.6654H26.5639ZM26.5639 19.0301V21.1391C26.4806 21.1391 26.4398 21.0977 26.3985 21.015L25.4474 19.1541C25.4066 19.1128 25.4474 19.0301 25.5307 19.0301H26.5639ZM26.5639 21.6353V22.5865H24.9925C24.9098 22.5865 24.8276 22.5038 24.8276 22.4211V21.8008C24.8276 21.718 24.9104 21.6353 24.9925 21.6353H26.5639ZM20.0301 23.703V22.8346H22.8421V18.3684H20.0301V17.5414H23.1316C23.5865 17.5414 23.9586 17.9135 23.9586 18.3684V22.8759C23.9586 23.3308 23.5865 23.703 23.1316 23.703H20.0301ZM20.0301 18.8647H17.8383V19.609H19.4925V20.1466H18.0451V20.8083H19.4925V21.5526H17.8383V22.297H20.0301V18.8647ZM20.0301 17.5414V18.3684H17.2594V22.8346H20.0301V23.703H16.9699C16.515 23.703 16.1429 23.3308 16.1429 22.8759V18.3684C16.1429 17.9135 16.515 17.5414 16.9699 17.5414H20.0301ZM12.7519 22.5865V21.6767H13.8271V19.1128H12.7519V18.203H14.1579C14.6128 18.203 14.985 18.5752 14.985 19.0301V21.7594C14.985 22.2143 14.6128 22.5865 14.1579 22.5865H12.7519ZM12.7519 18.203V19.1128H11.6767V21.6767H12.7519V22.5865H11.6767V23.7444C11.6767 23.8271 11.594 23.9098 11.5113 23.9098H10.5188C10.4361 23.9098 10.3947 23.8271 10.3947 23.7444V22.5865H9.27877V21.6767H10.3947V19.1128H9.27877V18.203H10.3947V17.4586C10.3947 17.3759 10.4361 17.3346 10.5188 17.3346H11.5113C11.594 17.3346 11.6767 17.3759 11.6767 17.4586V18.203H12.7519ZM9.2782 18.203V19.1128H8.20301V21.6767H9.2782V22.5865H7.87218C7.41729 22.5865 7.04511 22.2143 7.04511 21.7594V19.0301C7.04511 18.5752 7.41729 18.203 7.87218 18.203H9.2782ZM43.312 12H24V12.9098H43.312C44.3051 12.9098 45.0902 13.6955 45.0902 14.688V26.8045C45.0902 27.797 44.3051 28.5833 43.312 28.5833H24V35.1579H43.312C44.8008 35.1579 46 33.9586 46 32.4699V14.688C46 13.1992 44.8008 12 43.312 12V12ZM24 12H4.68797C3.19925 12 2 13.1992 2 14.688V32.4699C2 33.9586 3.19925 35.1579 4.68797 35.1579H24V28.5833H4.68797C3.69491 28.5833 2.86842 27.797 2.86842 26.8045V14.688C2.86842 13.6955 3.69491 12.9098 4.68797 12.9098H24V12V12Z" fill="#EA5504"/>
<path d="M36.3653 32.8839V32.8431C36.4061 32.7598 36.448 32.7184 36.5301 32.7598C36.861 32.8431 37.2337 32.966 37.6467 33.2147L37.7294 33.2974V33.422L37.6467 33.4634H37.564C37.1918 33.2566 36.819 33.0912 36.4474 32.9666C36.4061 32.966 36.3653 32.9252 36.3653 32.8839ZM36.3653 32.2641V32.2228V32.2641ZM36.3653 32.0562H37.0683C37.151 32.0562 37.1924 32.0976 37.1924 32.1809V32.8012C37.1924 32.8839 37.2337 32.9252 37.3164 32.9252C37.3991 32.9252 37.4405 32.8839 37.4405 32.8012V32.0562C37.4405 31.9327 37.3578 31.8081 37.2343 31.8081H36.3659V32.0562H36.3653ZM36.3653 31.4359V31.0643C36.4061 30.9816 36.448 30.8575 36.448 30.7748H36.3653V30.5261H37.4813C37.688 30.5261 37.7294 30.6094 37.688 30.7748C37.6467 30.9402 37.564 31.0643 37.4393 31.2297C37.3566 31.2711 37.3153 31.2711 37.2331 31.2297C37.1918 31.1884 37.1918 31.1464 37.2331 31.0643C37.398 30.8575 37.4393 30.7748 37.3572 30.7748H36.7369L36.6961 30.9403C36.9023 31.2297 37.2337 31.4778 37.7294 31.5606C37.8127 31.6019 37.854 31.6438 37.854 31.726L37.7707 31.8087H37.6467C37.1504 31.726 36.8196 31.5192 36.5715 31.147C36.5301 31.2711 36.4474 31.3538 36.3653 31.4359ZM36.3653 30.5261V30.7748H35.9931C35.9098 30.8989 35.8277 30.9816 35.7869 31.0235C35.7036 31.0643 35.6623 31.0643 35.5796 31.0235C35.5388 30.9822 35.5388 30.8989 35.6209 30.8575C35.7869 30.6514 35.9104 30.4859 35.9931 30.3199C36.0345 30.2367 36.0764 30.1959 36.1585 30.2367L36.1993 30.3199V30.4032L36.1585 30.5267H36.3653V30.5261ZM36.3653 31.0643C36.1993 31.2711 35.9512 31.3951 35.579 31.5192L35.4963 31.5606V31.726C35.5377 31.7667 35.579 31.7667 35.6617 31.7667C35.9512 31.684 36.1993 31.6019 36.3653 31.4359V31.0643ZM36.3653 31.8087V32.0568H35.4963V31.8087H36.3653ZM36.3653 32.2222V32.2636C36.282 32.8425 36.0345 33.1733 35.4963 33.3382V33.0487C35.8685 32.9246 36.0758 32.6352 36.0758 32.2636C36.1166 32.1803 36.1585 32.0976 36.2407 32.0976C36.3234 32.1395 36.3234 32.1395 36.3653 32.2222ZM36.3653 32.8431V32.8839V32.8431ZM35.4963 31.4359V31.1464L35.5377 31.1057L35.6204 31.1464L35.6617 31.2711L35.5784 31.3538C35.5784 31.3951 35.5377 31.3951 35.4963 31.4359ZM35.4963 30.8575C35.5377 30.8168 35.5377 30.8168 35.5377 30.7748V30.6921L35.4963 30.6508V30.8575ZM35.4963 30.6508V30.857H35.3722C35.2068 30.7743 35.0414 30.7335 34.8346 30.6508H34.7933C34.71 30.6094 34.6687 30.5675 34.71 30.4854C34.7514 30.4032 34.7933 30.4027 34.876 30.4027C35.0822 30.4854 35.289 30.5675 35.4549 30.6088L35.4963 30.6508ZM35.4963 31.1464V31.4359C35.3309 31.5606 35.0828 31.6846 34.8352 31.7667C34.7519 31.8081 34.7106 31.8081 34.6692 31.726C34.6285 31.6433 34.6692 31.6019 34.7525 31.5606C35.0006 31.4359 35.2074 31.3124 35.4142 31.1464H35.4963ZM35.4963 31.5606C35.4555 31.6019 35.4555 31.6438 35.4555 31.6846L35.4963 31.726V31.5606ZM35.4963 31.8087V32.0568H35.3722C35.3309 32.0568 35.289 32.0981 35.289 32.1814V32.8844C35.289 32.9671 35.2062 33.0085 35.1655 33.0085C35.0822 33.0085 34.9995 32.9671 34.9995 32.8844V32.0574C34.9995 31.9339 35.1241 31.8092 35.2482 31.8092H35.4963V31.8087ZM35.4963 33.0493V33.3387C35.3309 33.3801 35.0828 33.422 34.8352 33.422C34.7519 33.422 34.7106 33.3807 34.6692 33.2974C34.6692 33.2566 34.7106 33.1739 34.8352 33.1739C35.0828 33.1739 35.3309 33.132 35.4963 33.0493ZM31.7745 33.3801V33.132C32.1053 33.0487 32.3534 32.9252 32.5596 32.8012C32.3948 32.6357 32.2288 32.4703 32.022 32.2222C31.9807 32.1389 31.9807 32.0562 32.0634 32.0154L32.1875 31.9741L32.2702 32.0568C32.4361 32.3055 32.601 32.5123 32.8083 32.6771C33.0564 32.4709 33.2632 32.2641 33.3465 32.016C33.3873 31.9747 33.3465 31.9333 33.3051 31.9333H32.1059C32.0226 31.9333 31.9813 31.892 31.9813 31.8087C31.9813 31.726 32.0226 31.6438 32.1059 31.6438H33.4292C33.5119 31.6438 33.5946 31.6846 33.636 31.7673C33.6768 31.8506 33.6768 31.9333 33.636 32.0568C33.47 32.3876 33.2638 32.6363 33.0157 32.8431C33.3051 33.0079 33.5946 33.0912 33.9254 33.1326C34.0082 33.1326 34.0489 33.2153 34.0489 33.2974C34.0489 33.3807 33.9668 33.422 33.8841 33.3807C33.4292 33.2974 33.057 33.1745 32.8089 33.0085C32.5194 33.1745 32.1886 33.298 31.8164 33.3807H31.7745V33.3801ZM31.7745 32.0562C31.7745 32.0562 31.8158 32.0154 31.8572 32.0154L31.8986 31.9327V31.8081C31.8572 31.7667 31.8158 31.7667 31.7745 31.7667V32.0562ZM31.7745 31.6019C31.8158 31.6846 31.8986 31.6846 31.9807 31.6433C32.2702 31.4359 32.3948 31.2291 32.3948 30.9397V30.7335C32.3948 30.6502 32.4361 30.6502 32.5189 30.6502H33.0978C33.1805 30.6502 33.1805 30.6502 33.1805 30.7335V31.1878C33.1805 31.3124 33.2219 31.3946 33.2638 31.4359C33.2638 31.4773 33.3471 31.5192 33.47 31.5192H33.8422C33.9254 31.5192 33.9668 31.4778 33.9668 31.3951C33.9668 31.3124 33.9254 31.2711 33.8422 31.2711H33.5527L33.4694 31.2297C33.4286 31.2297 33.4286 31.1884 33.4286 31.1464V30.6094C33.4286 30.4854 33.3459 30.4032 33.2219 30.4032H32.4367C32.2294 30.4032 32.188 30.4859 32.188 30.6514V30.8575C32.188 31.1062 32.064 31.2717 31.8164 31.4365C31.8164 31.4365 31.7751 31.4365 31.7751 31.4778V31.6019H31.7745ZM31.7745 31.2711V31.023H31.8158C31.8566 31.023 31.8986 31.0637 31.8986 31.1464C31.8986 31.2297 31.8572 31.2711 31.8158 31.2711H31.7745ZM31.7745 31.0235V31.2717H31.485V31.9333L31.6912 31.8087L31.7326 31.7673H31.7739V32.0568C31.6493 32.1401 31.5672 32.1814 31.4844 32.2228V33.1326C31.5258 33.3807 31.3598 33.4634 31.029 33.3387C30.9463 33.3387 30.9055 33.256 30.9055 33.1739L30.9474 33.0906H31.0715C31.1961 33.132 31.2783 33.132 31.2783 33.0906V32.3457H31.2369C31.1128 32.429 31.0301 32.4703 30.9888 32.4703C30.9474 32.4703 30.8647 32.4703 30.8647 32.387C30.8234 32.3043 30.8234 32.2636 30.9061 32.2222C30.9469 32.2222 30.9888 32.1809 31.0709 32.1389C31.1542 32.0976 31.2363 32.0556 31.2777 32.0556V31.2705H30.9474C30.9066 31.2705 30.8647 31.2291 30.8647 31.1459C30.8647 31.0632 30.9061 31.0224 30.9474 31.0224H31.2783V30.4021C31.2783 30.3607 31.319 30.3188 31.4023 30.3188C31.4437 30.3188 31.4856 30.3602 31.4856 30.4021V31.0224H31.7745V31.0235ZM31.7745 31.4778C31.7331 31.5192 31.7331 31.5611 31.7745 31.6025V31.4778ZM31.7745 33.132H31.7331C31.6499 33.1733 31.6091 33.2147 31.6091 33.2968C31.6499 33.3801 31.6918 33.3801 31.7745 33.3801V33.132ZM24.9098 33.3801V31.5192C24.9506 31.4359 25.0339 31.3538 25.0752 31.2297L25.158 31.1464H25.2412L25.3239 31.2297V31.3538C25.2826 31.3951 25.2412 31.4778 25.1999 31.5606L25.1585 31.6438V33.3387C25.1585 33.422 25.1177 33.4634 25.0345 33.4634C24.9512 33.4634 24.9506 33.4215 24.9098 33.3801ZM24.9098 31.1057V30.6508L25.0339 30.4027L25.1172 30.3194H25.2412L25.282 30.4434V30.5261C25.158 30.7748 25.0339 30.9402 24.9098 31.1057ZM29.4587 31.85C29.4587 31.9741 29.3346 32.0981 29.2519 32.0981C29.1279 32.0981 29.0038 31.9741 29.0038 31.85C29.0038 31.7667 29.1279 31.6438 29.2519 31.6438C29.3346 31.6438 29.4587 31.7673 29.4587 31.85ZM25.6128 31.2297H27.557C27.6397 31.2711 27.6805 31.313 27.6805 31.3951C27.6805 31.4773 27.6397 31.5192 27.557 31.5192H27.1429V32.9252C27.1429 33.1739 27.1016 33.3387 26.9367 33.3801C26.73 33.4634 26.4405 33.4215 26.0269 33.2968L25.9437 33.2141V33.1314L25.985 33.0481C26.0264 33.0068 26.0677 33.0068 26.1091 33.0481C26.4399 33.1314 26.6053 33.1314 26.7294 33.1314C26.8121 33.0901 26.8948 33.0481 26.8948 32.8827V31.518H25.6128C25.5301 31.518 25.4888 31.4767 25.4888 31.394C25.4888 31.3113 25.5301 31.2711 25.6128 31.2297ZM25.7783 30.4854H27.3497C27.4737 30.4854 27.5151 30.5261 27.5151 30.6094C27.5151 30.6927 27.4737 30.7341 27.3497 30.7341H25.7783C25.6955 30.7341 25.6128 30.6927 25.6128 30.6094C25.6128 30.5261 25.6955 30.4854 25.7783 30.4854ZM24.9098 30.6508V31.1057C24.8685 31.1884 24.8271 31.2297 24.7858 31.2711L24.6617 31.3538L24.579 31.313C24.4963 31.2297 24.4963 31.1884 24.579 31.1062C24.7031 30.9816 24.8277 30.8162 24.9098 30.6508ZM24.9098 31.5192V33.3801V33.3387V32.0154L24.7444 32.2222L24.6204 32.2636L24.5371 32.2222L24.4957 32.1389L24.5371 32.0149C24.6617 31.8914 24.7858 31.726 24.9098 31.5192ZM22.8422 33.0493V32.8431C22.9249 32.8839 22.9249 32.966 22.8422 33.0493ZM22.8422 32.6357C23.0489 32.9252 23.297 33.1739 23.6692 33.3387L23.7933 33.3801L23.876 33.2968V33.2141L23.7933 33.1314C23.5865 33.0068 23.3798 32.8827 23.2557 32.7173L23.297 32.6771C23.4625 32.5536 23.5452 32.429 23.6692 32.3055C23.7106 32.2647 23.7106 32.1814 23.6279 32.1401L23.5452 32.0987L23.4619 32.1401C23.3378 32.3055 23.2138 32.4295 23.0903 32.5123C22.9662 32.3463 22.8835 32.1814 22.8422 31.9741H23.4211C23.5452 31.9741 23.6279 31.8914 23.6279 31.7673V30.6514C23.6279 30.5267 23.5452 30.4446 23.4211 30.4446H22.8422V30.6933H23.297C23.3384 30.6933 23.3798 30.7346 23.3798 30.776V31.1068H22.8422V31.3549H23.3798V31.645C23.3798 31.6858 23.3384 31.7277 23.297 31.7277H22.8422V32.6357ZM19.3271 31.85C19.3271 31.9741 19.2031 32.0981 19.079 32.0981C18.9549 32.0981 18.8722 31.9741 18.8722 31.85C18.8722 31.7667 18.9549 31.6438 19.079 31.6438C19.2031 31.6438 19.3271 31.7673 19.3271 31.85ZM22.8422 30.444V30.6927H22.3873C22.3459 30.6927 22.3046 30.7341 22.3046 30.7754V31.1062H22.8422V31.3544H22.3046V31.7265H22.8422V32.6363C22.7181 32.4295 22.6354 32.2228 22.594 31.9747H22.3046V33.1326H22.3459C22.4286 33.0912 22.5521 32.9666 22.6354 32.8839L22.7181 32.8012L22.8422 32.8425V33.0487C22.6767 33.2555 22.5113 33.3795 22.3873 33.4209C22.1805 33.5449 22.0564 33.4622 22.0564 33.1728V30.6496C22.0564 30.525 22.1392 30.4429 22.2632 30.4429H22.8422V30.444ZM16.391 33.3387V33.0906H17.3008C17.3835 33.0906 17.4249 33.132 17.4249 33.2147C17.4249 33.2974 17.3835 33.3387 17.3008 33.3387H16.391ZM16.391 32.8012V31.726C16.4737 31.9741 16.5564 32.3049 16.5564 32.6357C16.5978 32.7184 16.5564 32.8012 16.4732 32.8012H16.391ZM16.391 31.4778V31.1884H16.8873C16.97 31.2297 17.0113 31.2717 17.0113 31.3538C17.0113 31.4359 16.97 31.4778 16.8873 31.4778H16.391ZM16.391 30.6921L16.4737 30.7335C16.6392 30.9397 16.8873 31.1051 17.2595 31.3124H17.3835L17.4668 31.2291V31.1459L17.3835 31.0632C17.0119 30.8977 16.7224 30.6916 16.5151 30.4021C16.4737 30.3607 16.4324 30.3188 16.391 30.3188V30.6921ZM16.9286 31.726C16.8459 32.1809 16.7632 32.553 16.6392 32.8425C16.6392 32.9252 16.6392 33.0073 16.7224 33.0073C16.8051 33.0487 16.8465 32.966 16.8878 32.9246C17.0119 32.553 17.136 32.1389 17.1773 31.7254C17.1773 31.6427 17.136 31.6013 17.0533 31.56C16.97 31.5606 16.9286 31.6019 16.9286 31.726ZM21.2707 30.8575H21.8497C21.9324 30.8575 21.9737 30.8168 21.9737 30.7341C21.9737 30.6508 21.9324 30.6094 21.8497 30.6094H21.3534C21.3948 30.4854 21.3948 30.444 21.3948 30.444C21.4361 30.3613 21.3948 30.2786 21.3121 30.2786C21.2294 30.2786 21.1467 30.2786 21.1467 30.3619C21.064 30.7754 20.8986 31.1062 20.6918 31.3957C20.6504 31.4784 20.6504 31.5611 20.6918 31.6025L20.8158 31.6438L20.9399 31.5606L21.0226 31.4773H21.1467V31.8914H20.8158C20.7326 31.9327 20.6918 31.9741 20.6918 32.0154C20.6918 32.0981 20.7331 32.1395 20.8158 32.1809H21.1467V33.1739C21.1467 33.2974 21.188 33.3801 21.2294 33.422C21.2707 33.464 21.3534 33.4634 21.4775 33.422C21.6016 33.2974 21.767 33.1739 21.9324 33.0079C21.9737 32.9252 21.9737 32.8431 21.9324 32.8017L21.8083 32.7604L21.7256 32.8017C21.6423 32.9258 21.5602 33.0079 21.4775 33.0498L21.4361 33.0906L21.3948 33.0493V32.1809H21.8497C21.891 32.1395 21.9324 32.0976 21.9324 32.0154C21.9324 31.9333 21.891 31.9327 21.8497 31.8914H21.3948V31.4773H21.767C21.8497 31.4773 21.891 31.4359 21.891 31.3532C21.891 31.2705 21.8497 31.2291 21.767 31.2291H21.1467V31.1459C21.2294 31.0235 21.2707 30.9403 21.2707 30.8575ZM16.391 30.3199V30.6921L16.3497 30.6508C16.3497 30.6508 16.3083 30.6921 16.2256 30.7341C16.1016 30.8989 15.9361 31.1057 15.564 31.3538C15.5226 31.3951 15.4813 31.3951 15.4399 31.3951V31.1057C15.7707 30.8989 15.9775 30.6921 16.1843 30.444C16.267 30.3199 16.3083 30.2786 16.391 30.3199ZM16.391 31.1884H15.8948C15.8121 31.2297 15.7707 31.2717 15.7707 31.3538C15.7707 31.4359 15.8121 31.4778 15.8948 31.4778H16.391V31.1884ZM16.391 31.726V32.8012L16.3083 32.6765C16.267 32.3457 16.2256 32.0154 16.1429 31.7667C16.1429 31.684 16.1429 31.6019 16.2256 31.6019C16.3083 31.5605 16.3497 31.6019 16.391 31.6846V31.726ZM16.391 33.0906V33.3387H15.5226C15.4813 33.3387 15.4813 33.3387 15.4399 33.2974V33.1326C15.4813 33.0912 15.4813 33.0912 15.564 33.0912H16.391V33.0906ZM15.4399 32.4703V32.0981C15.4813 32.1395 15.4813 32.2228 15.4813 32.2641C15.4813 32.3457 15.4813 32.3876 15.4399 32.4703ZM15.6053 31.726C15.564 31.7667 15.5226 31.8087 15.564 31.8914C15.7294 32.2636 15.8534 32.553 15.8948 32.8425C15.9361 32.9252 15.9775 32.966 16.0602 32.966C16.1429 32.9252 16.1429 32.8833 16.1429 32.7598C16.1016 32.4703 15.9775 32.1395 15.8121 31.8087C15.7707 31.726 15.688 31.6846 15.6053 31.726ZM15.4399 31.1057V31.3951L15.3572 31.3124C15.3572 31.2711 15.3158 31.1878 15.4399 31.1464V31.1057ZM15.4399 32.0981C15.4399 32.0154 15.3986 31.892 15.3572 31.85C15.3572 31.7667 15.3158 31.726 15.2739 31.6438L15.2326 31.5606V31.3946L15.398 30.7743V30.7335C15.398 30.6088 15.398 30.5675 15.3566 30.5261C15.3566 30.4854 15.2733 30.4434 15.1912 30.4434H14.695C14.5296 30.4434 14.4882 30.5261 14.4882 30.6921V33.3382C14.4882 33.4215 14.5296 33.4628 14.6123 33.4628C14.695 33.4628 14.7363 33.4215 14.7363 33.3382V30.8162C14.7363 30.7335 14.7777 30.7335 14.8604 30.7335H15.0258C15.0672 30.7335 15.1085 30.7335 15.1085 30.8162L14.9844 31.3538V31.4778C14.9844 31.5611 14.9844 31.6025 15.0258 31.6846L15.0672 31.7673C15.1085 31.8506 15.1499 31.9333 15.1499 32.016C15.1912 32.0987 15.2326 32.2228 15.2326 32.2647C15.2326 32.3468 15.1912 32.3882 15.1499 32.4295C15.1499 32.4709 15.1085 32.4709 15.0672 32.4709H14.9431C14.9017 32.4295 14.819 32.4709 14.819 32.5542C14.7777 32.595 14.819 32.6777 14.9023 32.6777C14.9437 32.719 15.0264 32.719 15.0677 32.719C15.1918 32.719 15.3158 32.6777 15.3572 32.595C15.3986 32.5542 15.4399 32.5123 15.4399 32.4709V32.0981ZM15.4399 33.132V33.2968V33.2141V33.132ZM12.4211 33.4634V31.2717H13.1241C13.1655 31.2717 13.2074 31.2303 13.2074 31.1884V30.7341C13.2074 30.6927 13.166 30.6508 13.1241 30.6508H12.4211V30.4027H13.2482C13.3722 30.4027 13.4549 30.4854 13.4549 30.6088V31.3124C13.4549 31.4359 13.3722 31.5186 13.2482 31.5186H12.5038V31.8908H13.6204C13.6617 31.8908 13.7031 31.9322 13.7031 31.9735C13.7031 32.0562 13.6617 32.0976 13.6204 32.0976H12.5865C12.7933 32.4284 13.1655 32.7179 13.7031 32.966L13.7858 33.0073L13.7444 33.132L13.6617 33.2147H13.579C13.1241 32.966 12.7525 32.7184 12.5038 32.3876V33.3387C12.5038 33.4215 12.4625 33.4634 12.4211 33.4634ZM12.4211 30.4032V30.6514H11.7181C11.6354 30.6514 11.594 30.6927 11.594 30.7346V31.1889C11.594 31.2303 11.6354 31.2722 11.7181 31.2722H12.4211V33.464H12.3798C12.297 33.464 12.2557 33.4226 12.2557 33.3393V32.3882C12.0903 32.6771 11.7595 32.9252 11.3046 33.1739C11.2632 33.2147 11.2219 33.1739 11.1805 33.1739V32.9252C11.7181 32.6357 12.0489 32.3457 12.2143 32.0981H11.2632C11.2219 32.0981 11.2219 32.0981 11.1805 32.0568V31.9333C11.2219 31.892 11.2219 31.892 11.2632 31.892H12.2557V31.5198H11.5527C11.4694 31.5198 11.3459 31.4365 11.3459 31.3136V30.6094C11.3459 30.4854 11.47 30.4032 11.5527 30.4032H12.4211ZM11.1805 30.7748L11.2632 30.5261C11.2632 30.4854 11.2632 30.4027 11.2219 30.4027L11.1805 30.3613V30.7748ZM11.1805 30.3613V30.7748L11.0564 31.1464V33.2968C11.0564 33.4215 11.0151 33.4628 10.9324 33.4628C10.8491 33.4628 10.8083 33.4215 10.8083 33.2968V31.6019C10.8083 31.6019 10.7256 31.726 10.6843 31.8081L10.5602 31.8494L10.4775 31.8081C10.3942 31.7254 10.3942 31.6433 10.4775 31.6019C10.7256 31.3124 10.891 30.9402 10.9737 30.4854C10.9737 30.3613 11.0564 30.3199 11.1392 30.3199L11.1805 30.3613ZM11.1805 31.9333V32.0568V31.9333ZM11.1805 32.9252C11.1392 32.966 11.0978 33.0079 11.1392 33.132C11.1805 33.132 11.1805 33.132 11.1805 33.1733V32.9252Z" fill="white"/>
</g>
<defs>
<clipPath id="clip0_538_13800">
<rect width="44" height="23.1579" fill="white" transform="translate(2 12)"/>
</clipPath>
</defs>
</svg>
