<svg width="48" height="48" viewBox="0 0 48 48" fill="none" xmlns="http://www.w3.org/2000/svg">
<g clip-path="url(#clip0_538_13798)">
<path d="M23.2655 25.6423L22.9172 27.4995H15.8042L16.1503 25.6423H23.2655ZM13.8012 27.5299H6.70535L7.05398 25.6423H14.1486L13.8012 27.5299ZM27.3926 14.3781L28.4309 8.73444H43.2815L44 5H27.1505L26.1122 10.6097H16.9705L14.8667 21.8771H5.76596L4 31.2859H13.0837L10.9729 42.5415H30.0837L32.2094 31.291H39.039L39.7385 27.5417L30.8856 27.5299L28.7684 38.7979H13.6773L14.0142 36.9407H27.1182L29.2445 25.6426L40.0878 25.6565L40.8145 21.9053L27.9777 21.899L25.8583 33.1625H14.7238L15.0699 31.271L24.209 31.304L25.975 21.8986L16.8593 21.8771L17.2083 19.9901H30.3087L31.3885 14.3657L42.209 14.3521L42.9199 10.5904L30.1034 10.6097L29.028 16.2467H17.916L18.2643 14.3781H27.3926Z" fill="#00744B"/>
</g>
<defs>
<clipPath id="clip0_538_13798">
<rect width="40" height="37.5415" fill="white" transform="translate(4 5)"/>
</clipPath>
</defs>
</svg>
