<svg width="48" height="48" viewBox="0 0 48 48" fill="none" xmlns="http://www.w3.org/2000/svg">
<g clip-path="url(#clip0_538_13801)">
<path d="M30.13 26.1053L27.632 28.6033C27.476 28.7633 27.292 28.7713 27.148 28.6273L23.492 24.9753C23.36 24.8433 23.356 24.7273 23.522 24.5633L27.23 20.8533C27.31 20.7753 27.432 20.7613 27.526 20.8573L30.076 23.4033C30.192 23.5213 30.366 23.5453 30.552 23.4673C31.992 22.8753 36.312 21.0833 36.312 21.0833C34.856 17.5813 31.406 15.1133 27.376 15.1133C22.034 15.1133 17.708 19.4433 17.708 24.7813C17.708 30.1233 22.036 34.4473 27.376 34.4473C31.406 34.4473 34.856 31.9873 36.312 28.4833L30.46 26.0613C30.338 26.0073 30.214 26.0233 30.13 26.1053Z" fill="#C9CACA"/>
<path d="M30.352 24.731C30.352 24.731 33.818 26.161 36.174 24.099C39.138 21.511 38.002 16.795 35.184 13.975C31.026 9.81904 22.874 9.98304 17.71 14.389C10.886 20.209 11.286 31.331 19.43 36.497C27.048 41.325 38.568 38.031 42.55 26.891C43.432 24.425 42.864 22.929 43.748 23.107C43.748 23.107 45.546 30.717 39.524 36.111C37.674 37.767 37.404 41.237 31.408 43.853C29.022 44.897 25.022 43.645 21.706 43.361C18.714 43.107 16.12 43.455 14.032 42.545C11.01 41.227 9.976 37.229 8.538 34.481C7.086 31.711 4 26.829 4 26.829C4.576 18.113 8.628 9.38704 18.084 5.47904C31.34 0.00103664 45.268 10.693 40.906 21.625C39.85 24.281 37.126 25.725 34.91 25.795C32.19 25.877 30.352 24.731 30.352 24.731Z" fill="#E60012"/>
</g>
<defs>
<clipPath id="clip0_538_13801">
<rect width="40" height="40.262" fill="white" transform="translate(4 4)"/>
</clipPath>
</defs>
</svg>
