<svg width="48" height="48" viewBox="0 0 48 48" fill="none" xmlns="http://www.w3.org/2000/svg">
<g clip-path="url(#clip0_538_13802)">
<path d="M35.7982 30.6651C37.7927 30.5109 39.8197 29.4972 41.2423 28.502V16.0358L30.3385 5H14.912L4 16.0358V30.8698C4 31.3932 4.17171 31.8124 4.4976 32.1558C4.82864 32.5049 12.8211 40.9971 13.5642 41.7984C13.937 42.2026 14.3866 42.2532 14.8012 42.1676L15.2823 41.8845C16.0733 41.2276 16.9251 40.8027 17.9115 40.3582C19.1367 39.8049 21.3519 39.0691 23.4769 39.0897C25.7901 39.115 28.2301 40.1808 29.7873 40.8759C31.7798 41.7633 33.5701 42.1954 35.7977 42.1954C38.101 42.1954 40.2853 40.9393 42.1035 39.8425C43.2162 39.1727 43.7571 38.6499 44 38.4023V29.3007C44 29.0831 43.7649 28.8562 43.4735 29.0965C43.1337 29.3714 42.664 29.7153 42.1091 30.0489C40.2838 31.1307 38.1041 32.409 35.7987 32.409C33.5711 32.409 31.4106 32.0171 29.6038 31.2416C27.8011 30.4681 25.9592 29.8844 23.4774 29.8844C21.3524 29.8844 18.9769 30.6197 17.9121 31.1529C17.3031 31.4535 16.2558 31.9795 16.2532 31.9841V16.0358H28.8308V29.1893C29.0948 29.2904 29.3562 29.392 29.6038 29.4977C31.4049 30.2913 33.5727 30.8348 35.7982 30.6651Z" fill="#D90514"/>
</g>
<defs>
<clipPath id="clip0_538_13802">
<rect width="40" height="37.2026" fill="white" transform="translate(4 5)"/>
</clipPath>
</defs>
</svg>
