<svg width="48" height="48" viewBox="0 0 48 48" fill="none" xmlns="http://www.w3.org/2000/svg">
<mask id="mask0_538_13806" style="mask-type:luminance" maskUnits="userSpaceOnUse" x="4" y="23" width="31" height="22">
<path fill-rule="evenodd" clip-rule="evenodd" d="M4 24.4644C4.244 35.3024 13.104 44.0124 24.001 44.0124C28.046 44.0124 31.807 42.8124 34.954 40.7484C34.095 39.1354 25.582 23.9854 9.148 23.9844C7.51 23.9844 5.796 24.1344 4 24.4644Z" fill="white"/>
</mask>
<g mask="url(#mask0_538_13806)">
<path d="M2.13721 24.1585L34.6852 21.1035L36.8172 43.8365L4.27121 46.8915L2.13721 24.1585Z" fill="url(#paint0_linear_538_13806)"/>
</g>
<mask id="mask1_538_13806" style="mask-type:luminance" maskUnits="userSpaceOnUse" x="13" y="23" width="31" height="22">
<path fill-rule="evenodd" clip-rule="evenodd" d="M13.0469 40.7474C16.1949 42.8104 19.9559 44.0114 24.0009 44.0114C34.8969 44.0114 43.7589 35.3014 43.9999 24.4634C42.2059 24.1344 40.4889 23.9844 38.8539 23.9844C22.4169 23.9814 13.9069 39.1344 13.0469 40.7474Z" fill="white"/>
</mask>
<g mask="url(#mask1_538_13806)">
<path d="M37.6431 56.5146L4.95605 39.8956L19.4051 11.4766L52.0921 28.0946L37.6431 56.5146Z" fill="url(#paint1_linear_538_13806)"/>
</g>
<mask id="mask2_538_13806" style="mask-type:luminance" maskUnits="userSpaceOnUse" x="13" y="4" width="31" height="21">
<path fill-rule="evenodd" clip-rule="evenodd" d="M13.0352 7.271C13.9042 8.908 24.1042 27.228 44.0002 23.579C43.7742 12.726 34.9062 4 24.0012 4C19.9522 4 16.1852 5.205 13.0352 7.271" fill="white"/>
</mask>
<g mask="url(#mask2_538_13806)">
<path d="M47.3173 26.7421L13.6803 31.6481L9.71826 4.48212L43.3553 -0.421875L47.3173 26.7421Z" fill="url(#paint2_linear_538_13806)"/>
</g>
<mask id="mask3_538_13806" style="mask-type:luminance" maskUnits="userSpaceOnUse" x="4" y="4" width="31" height="21">
<path fill-rule="evenodd" clip-rule="evenodd" d="M4 23.549C23.811 27.181 34.009 9.038 34.952 7.263C31.807 5.201 28.046 4 24.001 4C13.104 4 4.244 12.711 4 23.549Z" fill="white"/>
</mask>
<g mask="url(#mask3_538_13806)">
<path d="M10.5968 -8.67578L44.4448 8.94022L28.3548 39.8552L-5.49316 22.2392L10.5968 -8.67578Z" fill="url(#paint3_linear_538_13806)"/>
</g>
<defs>
<linearGradient id="paint0_linear_538_13806" x1="-1.77185" y1="59.3039" x2="59.6643" y2="48.8753" gradientUnits="userSpaceOnUse">
<stop stop-color="#003A13"/>
<stop offset="0.047" stop-color="#004016"/>
<stop offset="0.124" stop-color="#00501F"/>
<stop offset="0.22" stop-color="#006A2A"/>
<stop offset="0.332" stop-color="#008E35"/>
<stop offset="0.38" stop-color="#009E38"/>
<stop offset="0.403" stop-color="#21A536"/>
<stop offset="0.444" stop-color="#4CAE32"/>
<stop offset="0.494" stop-color="#61B52F"/>
<stop offset="0.564" stop-color="#6CB92D"/>
<stop offset="0.75" stop-color="#6FBA2C"/>
<stop offset="1" stop-color="#6FBA2C"/>
</linearGradient>
<linearGradient id="paint1_linear_538_13806" x1="59.5757" y1="26.9243" x2="23.1784" y2="6.65568" gradientUnits="userSpaceOnUse">
<stop stop-color="#003811"/>
<stop offset="0.058" stop-color="#003811"/>
<stop offset="0.114" stop-color="#003C14"/>
<stop offset="0.197" stop-color="#00491D"/>
<stop offset="0.297" stop-color="#005D29"/>
<stop offset="0.41" stop-color="#007736"/>
<stop offset="0.51" stop-color="#009140"/>
<stop offset="0.576" stop-color="#009D3D"/>
<stop offset="0.644" stop-color="#24AA37"/>
<stop offset="0.703" stop-color="#51B233"/>
<stop offset="0.746" stop-color="#5CB531"/>
<stop offset="1" stop-color="#5CB531"/>
</linearGradient>
<linearGradient id="paint2_linear_538_13806" x1="48.7729" y1="-14.2773" x2="-12.3071" y2="-2.03358" gradientUnits="userSpaceOnUse">
<stop stop-color="#003F7E"/>
<stop offset="0.047" stop-color="#004584"/>
<stop offset="0.124" stop-color="#005494"/>
<stop offset="0.22" stop-color="#006EB0"/>
<stop offset="0.332" stop-color="#0091D7"/>
<stop offset="0.38" stop-color="#00A0E9"/>
<stop offset="0.396" stop-color="#00A4EA"/>
<stop offset="0.429" stop-color="#00ACEC"/>
<stop offset="0.467" stop-color="#00B4ED"/>
<stop offset="0.512" stop-color="#16BBEF"/>
<stop offset="0.566" stop-color="#42BFF0"/>
<stop offset="0.643" stop-color="#51C2F1"/>
<stop offset="0.856" stop-color="#54C3F1"/>
<stop offset="1" stop-color="#54C3F1"/>
</linearGradient>
<linearGradient id="paint3_linear_538_13806" x1="-16.0358" y1="20.3987" x2="20.4637" y2="40.5117" gradientUnits="userSpaceOnUse">
<stop stop-color="#003477"/>
<stop offset="0.119" stop-color="#004186"/>
<stop offset="0.363" stop-color="#0064AE"/>
<stop offset="0.473" stop-color="#0075C2"/>
<stop offset="0.491" stop-color="#0079C5"/>
<stop offset="0.647" stop-color="#009EDD"/>
<stop offset="0.765" stop-color="#40B9EC"/>
<stop offset="0.83" stop-color="#54C3F1"/>
<stop offset="1" stop-color="#54C3F1"/>
</linearGradient>
</defs>
</svg>
