<svg width="48" height="48" viewBox="0 0 48 48" fill="none" xmlns="http://www.w3.org/2000/svg">
<g clip-path="url(#clip0_538_13855)">
<path d="M23.999 4C12.952 4 4 12.954 4 23.997C4 35.044 12.952 43.997 23.999 43.997C35.043 43.997 44 35.044 44 23.997C44 12.954 35.043 4 23.999 4ZM23.999 41.447C14.364 41.447 6.554 33.633 6.554 23.997C6.554 14.363 14.364 6.552 23.999 6.552C33.631 6.552 41.445 14.363 41.445 23.997C41.445 33.633 33.631 41.447 23.999 41.447ZM11.504 15.376C11.562 15.829 11.737 16.233 12.023 16.591L12.089 16.622L12.992 16.613L13.029 16.6C13.085 16.572 13.293 16.538 13.459 16.512L13.807 16.451C14.774 16.236 16.106 16.125 16.933 16.114L17.194 16.109L18.57 16.11L18.763 16.125L18.945 16.136C19.016 16.197 19.333 16.847 19.636 17.476C20.175 18.593 20.918 20.116 21.458 20.768L21.696 21.041L21.94 21.292C22.852 22.299 24.24 22.153 24.787 22.044C25.668 21.87 26.419 21.439 26.569 21.007C26.671 20.773 26.777 20.575 26.87 20.437L27.951 18.969C28.259 18.554 28.41 18.35 28.437 18.297C28.509 18.191 28.635 17.968 28.81 17.617C29.213 16.849 29.664 15.975 29.945 15.91L30.147 15.865C30.642 15.757 30.987 15.785 31.169 15.802L31.278 15.808L31.433 15.788C32.558 15.879 32.938 15.94 33.768 16.069L33.985 16.103C34.745 16.22 35.554 15.767 36.41 15.289L36.508 15.238C36.796 15.127 37.79 14.724 37.835 14.456L37.819 14.326C37.713 14.138 37.225 14.031 36.048 13.769L35.338 13.609L35.4 13.651C35.362 13.578 34.963 13.528 34.884 13.521C32.649 13.101 30.179 12.898 26.641 12.836L26.569 12.73L26.494 12.397L26.421 12.097L26.402 11.941C26.402 11.799 26.421 11.618 26.436 11.532L26.447 11.309L26.436 11.284C25.636 10.169 24.017 10.252 23.152 10.295L23.06 10.303L22.998 10.309C22.827 10.322 22.373 10.358 21.898 10.747L21.87 10.814V10.822C21.87 10.831 21.903 11.055 21.903 11.366C21.903 11.7 21.865 12.135 21.71 12.498C21.639 12.66 21.449 12.733 21.251 12.811L20.999 12.913C18.944 13.005 16.965 13.156 15.281 13.359C15.063 13.388 14.438 13.376 13.838 13.365C13.104 13.351 12.412 13.338 12.191 13.381L12.132 13.423L11.517 14.549L11.509 14.589L11.506 14.691C11.461 14.853 11.475 15.037 11.493 15.25L11.504 15.376ZM22.11 15.928C22.11 15.761 22.198 15.648 22.582 15.595L23.977 15.57L25.699 15.565C25.987 15.698 26.144 15.88 26.182 16.115C25.968 17.42 25.794 18.446 24.549 18.813L24.574 18.809L24.247 18.878L24.03 18.928L23.794 18.899L23.411 18.859C22.978 18.698 22.11 17.23 22.11 16.061V15.928ZM36.739 22.082L36.471 21.758L36.417 21.689C35.772 20.888 35.042 19.985 33.534 18.904C33.143 18.62 32.155 17.957 31.508 17.88C30.998 17.858 30.465 18.286 29.872 19.181L29.432 19.771L29.364 19.88C28.521 21.234 27.472 22.924 27.539 24.216C27.548 24.409 27.562 24.568 27.597 24.689L27.605 24.743C27.65 24.95 27.691 25.289 27.701 25.638L27.688 25.674C27.646 25.937 27.509 26.419 27.112 26.692C26.774 26.928 25.655 27.176 24.186 27.199C22.225 27.226 21.615 26.954 21.428 26.786C21.321 26.688 21.109 26.494 20.965 26.14C20.928 25.99 20.906 25.852 20.906 25.734L20.916 25.585L21.025 25.202C21.109 25.111 21.192 24.975 21.229 24.701L21.243 24.674L21.25 24.634L21.239 24.595L21.244 24.317C21.239 23.702 21.121 23.165 21.115 23.142L21.107 23.121C20.558 22.094 19.64 20.723 19.144 19.987L18.783 19.433L18.769 19.408C18.565 19.149 18.458 18.936 18.373 18.766C18.216 18.457 18.108 18.253 17.589 18.14L17.545 18.144C15.068 19.056 13.021 20.13 11.086 22.431C10.833 22.666 9.691 23.968 9.633 24.22C9.603 24.346 9.731 24.628 10.459 25.576C10.575 25.733 10.76 25.846 10.857 25.896C10.941 25.943 11.044 25.904 11.062 25.895L11.094 25.876L11.51 25.465L11.656 25.282L11.785 25.123L11.954 24.972L12.084 24.855C12.293 24.696 12.604 24.654 13.04 24.635L13.105 24.632C14.554 25.517 15.004 26.658 15.004 27.73C15.004 28.295 14.88 28.845 14.713 29.329C14.207 30.759 13.294 31.858 12.134 32.429C12.058 32.468 12.041 32.565 12.041 32.694V32.861L12.064 33.494C12.086 34.368 12.122 35.688 12.307 36.46L12.368 36.524L12.627 36.574L12.69 36.566C16.608 33.859 17.369 31.66 17.523 28.052C17.568 27.658 17.839 27.477 18.217 27.224L18.605 26.943C18.844 27.359 18.945 27.669 18.825 28.48L18.826 28.501C18.8 28.633 18.786 28.806 18.786 29.006C18.786 30.115 19.177 32.05 19.396 32.537C19.713 33.333 20.574 33.774 20.585 33.781C21.446 34.235 22.227 34.62 22.982 34.696L23.489 34.737C23.599 34.74 24.012 34.749 24.726 34.686L25.652 34.562L25.785 34.543C26.292 34.487 28.457 33.99 29.069 32.675C29.405 31.954 29.592 30.683 29.62 29.49L29.623 29.489L29.665 27.978L29.686 27.139C29.697 26.809 29.837 26.578 29.956 26.434C30.489 26.754 30.97 27.305 31.226 27.807C31.235 27.821 31.449 28.12 31.489 28.49C31.511 28.711 31.494 29.355 31.468 30.171C31.422 31.861 31.349 34.41 31.528 36.357C31.561 36.71 31.638 37.139 31.83 37.192C31.883 37.207 31.964 37.2 32.049 37.081C32.565 36.59 33.264 36.103 33.829 35.716C34.242 35.425 34.542 35.221 34.648 35.087L34.667 35.035V35.018C34.164 32.468 33.843 29.974 33.834 28.51C34.033 26.706 35.088 25.884 35.542 25.533L35.604 25.484C35.643 25.489 35.712 25.51 35.844 25.616C35.988 25.734 36.516 26.03 36.655 26.03C37.23 25.886 37.948 24.973 37.989 24.114C37.997 23.606 37.298 22.76 36.739 22.082ZM16.62 25.139L16.606 25.146L16.478 25.209C16.345 24.973 15.888 24.183 15.381 23.659C15.277 23.537 15.244 23.433 15.244 23.344C15.244 23.208 15.327 23.123 15.34 23.11C15.957 22.497 16.763 21.887 17.173 21.906C17.524 21.923 17.67 22.286 17.841 22.705L18.003 23.083C18.03 23.128 18.206 23.474 18.349 23.897C18.21 24.507 17.724 24.77 16.62 25.139ZM27.276 29.976C27.262 30.416 27.242 31.077 26.714 31.475C25.829 31.932 24.404 32.156 23.237 32.014C22.492 31.918 22.013 31.634 21.639 31.372C21.386 31.164 21.331 30.818 21.279 30.515L21.216 30.203C21.167 30.041 21.196 29.543 21.307 29.347C21.346 29.289 21.72 29.339 22.053 29.383C22.57 29.449 23.356 29.553 24.346 29.539C25.714 29.518 26.367 29.317 26.719 29.204C26.94 29.138 27.032 29.112 27.115 29.151C27.187 29.186 27.268 29.613 27.278 29.901L27.276 29.976ZM33.771 23.392C33.608 23.884 33.037 24.278 32.579 24.372C31.571 24.469 30.678 23.789 30.61 23.156C30.666 22.395 31.158 21.233 31.851 21.029C32.824 21.325 33.168 21.718 33.482 22.377C33.705 22.627 33.815 22.872 33.815 23.118C33.814 23.208 33.802 23.297 33.771 23.392Z" fill="#CF000E"/>
</g>
<defs>
<clipPath id="clip0_538_13855">
<rect width="40" height="39.997" fill="white" transform="translate(4 4)"/>
</clipPath>
</defs>
</svg>
