<svg width="48" height="48" viewBox="0 0 48 48" fill="none" xmlns="http://www.w3.org/2000/svg">
<g clip-path="url(#clip0_538_13856)">
<path d="M24 4C12.9557 4 4 12.9557 4 24C4 35.0443 12.9557 44 24 44C35.0443 44 44 35.0443 44 24C44 12.9557 35.0443 4 24 4ZM26.2785 40.8354C26.4684 42.2278 26.3734 41.7215 26.4367 42.1646C26.4684 42.3544 26.5949 42.5443 26.6266 42.7025L26.7215 43.1139C25.8354 43.2405 24.9177 43.3038 24 43.3038C23.4937 43.3038 23.019 43.2722 22.5443 43.2405C22.4494 41.6582 22.3861 40.1709 22.3228 38.3987C22.3228 38.1139 22.3544 37.6709 22.2595 37.3861L22.2278 35.6772C22.1962 32.7342 22.2911 29.6646 22.4177 26.6582L22.2595 26.3418C22.2595 26.1203 22.4177 25.3924 22.4494 25.1709V24.981C22.4494 24.7911 20.9304 25.0443 19.6962 24.8544V22.6392C19.6013 21.9114 20.8038 22.1962 22.924 22.1646L25.7089 22.2278C27.0696 22.2595 28.3354 22.0696 28.3038 22.3544C28.9684 22.4177 28.7468 23.4937 28.6835 24.1582C28.6203 24.8544 27.9557 24.8544 26.8797 25.0127L26.4684 25.076L25.8671 25.0443C25.6139 25.2025 25.7405 25.1709 24.8544 25.2342C24.6962 29.0633 25.5823 35.4557 26.2785 40.8354ZM35.519 27.7342C35.3924 29.1582 33.4937 28.7468 32.3544 28.6519C32.3544 28.8101 30.8038 29.0633 30.1709 29.1266L29.9177 29.6329C29.8544 30.7405 29.9177 32.6076 30.2658 34.4114C30.3291 34.8228 30.5823 34.9494 30.6456 35.3924C30.9937 37.1013 31.1203 37.3544 31.6266 39.0633C31.6899 39.2532 32.481 40.3291 32.576 40.5823C32.6709 40.8038 32.7342 41.0253 32.7658 41.2152C31.7532 41.7215 30.6772 42.1646 29.5696 42.5127C29.0316 40.6139 28.7785 39.443 28.3671 37.2595L27.6709 35.5506C27.5443 34.8228 27.4494 34.0949 27.3861 33.3671C27.2278 31.8797 27.1962 30.4241 27.2911 29.0633L27.2278 27.8291C27.4177 27.3228 26.6582 26.057 27.5127 26.2152C28.1456 26.3418 28.3038 25.962 28.7785 25.9937C30.076 25.6139 31.7532 25.519 31.7532 25.3291C31.7532 25.0443 31.7215 24.7595 31.7215 24.5063C31.6899 22.9557 31.6582 21.3734 31.6582 19.8228V19.6329L31.4684 19.4747L27.9557 19.538C27.481 19.5696 27.0063 19.6013 26.5 19.6329L26.3734 19C25.4873 19.0633 24.5696 19.1266 23.6835 19.1582C23.3671 19.1266 23.0823 19.0949 22.7658 19.0316C22.6076 19 22.9241 19.7911 22.7342 19.7595C22.2911 19.6962 21.8165 19.6329 21.2468 19.7911C20.6772 19.9494 19.3481 20.2975 17.6392 20.1709C17.1329 20.1392 17.0696 21.1519 16.7848 21.8481C16.1835 23.3038 16.0886 24.7595 16.0253 25.8038C16.0253 25.8987 16.0253 25.9937 15.9937 26.0886C16.2785 26.6899 16.8165 26.2785 17.4177 26.3101C17.9557 26.3418 18.462 26.3734 19 26.4367C20.2975 26.6899 20.5506 26.5 20.7089 26.6582C21.1519 27.4177 20.6139 29.1266 20.4557 31.0886C20.3608 31.8797 20.0759 32.5443 20.0443 33.2089C19.9177 35.4557 19.7595 35.0759 19.7278 35.3291C19.2532 37.8608 19.1266 40.1392 18.9367 42.5759C17.9557 42.3228 17.0063 41.9747 16.1203 41.5633V41.4684C16.2152 40.8987 16.3101 40.3291 16.5 39.7595C16.6899 39.2215 16.6582 38.5886 16.7532 37.9873L16.9747 36.1519L17.0696 35.2658C17.3861 32.8291 17.4494 30.8671 17.7025 29.4747C17.2278 29.2848 16.7532 29.0949 16.2468 28.9051C16.1519 28.9367 16.0886 28.9684 15.9937 28.9684C14.4114 28.6835 11.6266 28.4937 12.1013 28.4937C12.1962 27.7342 12.3228 26.7848 12.481 25.8671C12.6076 25.1709 12.1329 24.9494 12.2278 24.4114C12.2911 24.0949 12.6709 23.0506 12.7658 22.6392C13.019 21.3418 13.6203 19.8228 13.9367 18.8418C14.0949 18.3354 13.9367 18.4937 14.1266 17.9557C14.2848 17.5127 14.3481 17.8291 14.5696 17.5443C15.0443 16.9114 15.9304 17.4177 16.5316 17.4494C16.8797 17.481 17.2595 17.5127 17.6076 17.5127L18.8101 17.7025C18.8418 17.2595 19.6646 17.4494 20.4557 17.2278C20.8038 17.1329 21.1203 17.1329 21.3734 16.7532C21.5316 16.5 21.6899 16.1835 21.7848 15.7405C21.8797 15.3291 22.0696 15.4241 22.4494 15.3924L24.981 15.2025L25.8671 15.3291L26.2468 16.6582C26.9114 16.6582 27.5759 16.5633 28.2089 16.5633L31.5949 16.4367L34.0949 16.4684C34.6646 16.5 34.9494 16.8797 34.8861 17.5443C34.8544 18.1456 34.8544 18.8418 34.8544 19.5696L34.8861 20.4557C34.9494 21.3734 34.7595 23.557 34.8228 24.5063L35.3608 24.6013C35.3608 24.8228 35.4557 24.7911 35.4557 24.981L35.4873 25.9304C35.5506 26.6266 35.5506 27.2278 35.519 27.7342Z" fill="#005BAC"/>
</g>
<defs>
<clipPath id="clip0_538_13856">
<rect width="40" height="40" fill="white" transform="translate(4 4)"/>
</clipPath>
</defs>
</svg>
