<svg width="48" height="48" viewBox="0 0 48 48" fill="none" xmlns="http://www.w3.org/2000/svg">
<g clip-path="url(#clip0_538_13866)">
<path d="M12.376 12.0223C16.232 10.0593 20.612 9.70931 24.711 11.0413C28.969 12.4263 32.44 15.5453 34.334 19.5723C34.459 16.2823 33.274 11.0203 28.336 7.78031C26.135 6.33531 23.398 5.57031 20.422 5.57031C16.358 5.57031 12.531 7.15131 9.654 10.0163C6.354 13.3813 4.388 17.7123 4 22.3563C4.069 22.1023 4.133 21.8473 4.215 21.5943C5.574 17.4103 8.473 14.0113 12.376 12.0223Z" fill="url(#paint0_radial_538_13866)"/>
<path d="M9.83904 14.8563C7.78504 16.5033 6.21404 18.8713 5.29404 21.7013C4.79004 23.2533 4.54004 24.8473 4.54004 26.4323C4.54004 28.7983 5.09604 31.1463 6.19404 33.3143C8.38204 37.5063 11.91 40.7213 16.225 42.5213C15.993 42.3703 15.752 42.2313 15.525 42.0663C11.103 38.8513 8.74904 33.8413 8.74904 28.7813C8.74904 25.4853 9.74704 22.1673 11.822 19.3123C14.452 15.6923 18.488 13.3523 22.9 12.7923C19.878 11.6143 14.44 11.1693 9.83904 14.8563Z" fill="url(#paint1_radial_538_13866)"/>
<path d="M18.1948 33.764C19.9788 36.244 24.0778 40.061 29.9808 39.78C32.6088 39.656 35.2718 38.665 37.6798 36.916C40.9678 34.526 43.1348 31.001 43.7788 26.99C43.9268 25.993 43.9998 24.997 43.9998 24.005C43.9998 20.326 42.9878 16.738 41.0508 13.582C41.1588 13.864 41.2798 14.137 41.3738 14.425C41.9218 16.114 42.1838 17.828 42.1838 19.511C42.1838 26.392 37.8328 32.789 30.9958 35.011H30.9948C26.7358 36.394 22.0948 35.91 18.1948 33.764Z" fill="url(#paint2_radial_538_13866)"/>
<path d="M40.7831 23.1828C41.0801 22.0958 41.2271 20.9538 41.2271 19.7828C41.2271 18.2158 40.9621 16.5938 40.4371 14.9748C39.1811 11.1098 36.4971 7.95977 32.8821 6.10777C28.6281 3.99077 23.8561 3.45677 19.2861 4.55877C19.5871 4.54177 19.8861 4.51177 20.1901 4.51177C29.2161 4.51177 36.5611 11.7928 36.5611 20.7428C36.5611 25.2198 34.6661 29.4848 31.4241 32.5298C34.2681 31.8858 39.2271 28.8838 40.7831 23.1828Z" fill="url(#paint3_radial_538_13866)"/>
<path d="M13.6781 21.6074C11.7501 23.9444 9.13013 28.8084 10.9161 34.2464C11.7111 36.6694 13.3481 38.8874 15.6501 40.6624C18.7951 43.0874 22.7451 44.1524 26.7711 43.6664C27.7681 43.5354 28.7461 43.3334 29.6991 43.0644C33.2411 42.0664 36.4351 40.1474 38.9751 37.4834C38.7331 37.6594 38.5001 37.8474 38.2461 38.0134C36.7611 38.9834 35.1801 39.6914 33.5581 40.1474C26.9351 42.0144 19.6611 39.6874 15.7661 33.9024C13.3411 30.2984 12.6171 25.8314 13.6781 21.6074Z" fill="url(#paint4_radial_538_13866)"/>
<path d="M23.9999 29.7205C27.2192 29.7205 29.8289 27.1108 29.8289 23.8915C29.8289 20.6722 27.2192 18.0625 23.9999 18.0625C20.7806 18.0625 18.1709 20.6722 18.1709 23.8915C18.1709 27.1108 20.7806 29.7205 23.9999 29.7205Z" fill="url(#paint5_radial_538_13866)"/>
</g>
<defs>
<radialGradient id="paint0_radial_538_13866" cx="0" cy="0" r="1" gradientUnits="userSpaceOnUse" gradientTransform="translate(24.117 23.6823) scale(19.832)">
<stop offset="0.006" stop-color="#FDD000"/>
<stop offset="0.674" stop-color="#F08300"/>
<stop offset="1" stop-color="#E60012"/>
</radialGradient>
<radialGradient id="paint1_radial_538_13866" cx="0" cy="0" r="1" gradientUnits="userSpaceOnUse" gradientTransform="translate(24.11 23.6503) scale(19.861)">
<stop offset="0.006" stop-color="#FDD000"/>
<stop offset="0.674" stop-color="#F08300"/>
<stop offset="1" stop-color="#E60012"/>
</radialGradient>
<radialGradient id="paint2_radial_538_13866" cx="0" cy="0" r="1" gradientUnits="userSpaceOnUse" gradientTransform="translate(24.1088 23.687) scale(19.835 19.835)">
<stop offset="0.006" stop-color="#FDD000"/>
<stop offset="0.674" stop-color="#F08300"/>
<stop offset="1" stop-color="#E60012"/>
</radialGradient>
<radialGradient id="paint3_radial_538_13866" cx="0" cy="0" r="1" gradientUnits="userSpaceOnUse" gradientTransform="translate(24.1101 23.6428) scale(19.849)">
<stop offset="0.006" stop-color="#FDD000"/>
<stop offset="0.674" stop-color="#F08300"/>
<stop offset="1" stop-color="#E60012"/>
</radialGradient>
<radialGradient id="paint4_radial_538_13866" cx="0" cy="0" r="1" gradientUnits="userSpaceOnUse" gradientTransform="translate(24.1091 23.6934) scale(19.895)">
<stop offset="0.006" stop-color="#FDD000"/>
<stop offset="0.674" stop-color="#F08300"/>
<stop offset="1" stop-color="#E60012"/>
</radialGradient>
<radialGradient id="paint5_radial_538_13866" cx="0" cy="0" r="1" gradientUnits="userSpaceOnUse" gradientTransform="translate(24.1279 23.6505) scale(23.014 23.014)">
<stop offset="0.006" stop-color="#FDD000"/>
<stop offset="0.674" stop-color="#F08300"/>
<stop offset="1" stop-color="#E60012"/>
</radialGradient>
<clipPath id="clip0_538_13866">
<rect width="40" height="39.781" fill="white" transform="translate(4 4)"/>
</clipPath>
</defs>
</svg>
