<svg width="48" height="48" viewBox="0 0 48 48" fill="none" xmlns="http://www.w3.org/2000/svg">
<g clip-path="url(#clip0_538_13867)">
<path d="M18.6537 44.494C17.4934 45.1773 16.4524 45.5879 15.3471 45.5879C12.506 45.5879 10.1369 43.2623 10.0005 40.4619L15.5306 37.166L24.1409 41.0153L18.6537 44.494Z" fill="#8BBEDF"/>
<path d="M21.9428 30.3258L17.8243 28.5114C15.995 27.6939 14.2563 27.007 14.2563 24.9849C14.2563 23.9396 14.5712 23.3891 15.0725 22.8457L23.7735 26.6764L21.6222 27.9217C21.0238 28.2851 20.609 28.6028 20.609 29.0655C20.609 29.5575 21.1766 29.9759 21.9428 30.3258Z" fill="#B1D6A1"/>
<path d="M25.9754 11.3501L21.767 13.9098C21.3871 14.134 20.8895 14.4968 20.8895 15.058C20.8895 15.6977 21.8641 16.1883 22.7252 16.5974L17.4493 14.2718C15.9028 13.5878 14.3462 12.8117 14.3462 10.9374C14.3462 10.1498 14.5711 9.51219 14.9367 8.96526L26.3424 2C27.7126 2.77185 29.0364 4.33698 29.0364 6.44191C29.0364 8.68964 27.8968 10.1962 25.9754 11.3501Z" fill="#8BBEDF"/>
<path d="M34.9458 19.5846L33.9041 20.1815L25.1895 16.3351L35.3121 10.2402C36.6795 11.0307 38.0168 12.5822 38.0168 14.6786C38.0161 16.9306 36.9144 18.48 34.9458 19.5846Z" fill="#B1D6A1"/>
<path d="M27.5884 26.9805L32.7429 29.2468C34.6779 30.1064 35.267 31.1239 35.267 32.4056C35.267 33.1346 34.8571 33.8665 34.2695 34.3691L25.6006 30.5234L27.0665 29.6987C28.3074 29.019 28.7223 28.6013 28.7223 28.1472C28.7223 27.6738 28.4281 27.3618 27.5884 26.9805Z" fill="#8BBEDF"/>
<path d="M36.7798 46.0006C34.5849 44.3113 32.2437 43.171 29.4026 41.8807L16.2689 36.0665C12.9651 34.5956 10.7788 32.6349 10.7788 29.3376C10.7788 26.128 12.3247 24.5772 14.3468 23.2998L15.0729 22.8457C14.5724 23.3891 14.2568 23.9389 14.2568 24.9849C14.2568 27.007 15.9961 27.6946 17.8247 28.5114L33.1076 35.2475C35.7673 36.3906 38.2014 38.3549 38.2014 41.6951C38.2007 43.5344 37.5053 45.1781 36.7798 46.0006Z" fill="#00A439"/>
<path d="M35.222 33.7736L34.2688 34.3691C34.8564 33.8664 35.2663 33.1346 35.2663 32.4056C35.2663 31.1246 34.675 30.1064 32.7422 29.2467L16.4054 22.0509C13.1031 20.5921 11.0503 18.7107 11.0503 15.424C11.0503 12.4009 12.5576 10.4209 14.9374 8.96289C14.5718 9.50983 14.3469 10.1474 14.3469 10.935C14.3469 12.8093 15.9035 13.5847 17.45 14.2695L33.332 21.279C36.2195 22.5557 38.5607 24.4857 38.5607 28.0122C38.5607 30.7619 37.2805 32.4941 35.222 33.7736Z" fill="#007DBA"/>
</g>
<defs>
<clipPath id="clip0_538_13867">
<rect width="28.5608" height="44" fill="white" transform="translate(10 2)"/>
</clipPath>
</defs>
</svg>
