<svg width="48" height="48" viewBox="0 0 48 48" fill="none" xmlns="http://www.w3.org/2000/svg">
<g clip-path="url(#clip0_538_13807)">
<path d="M20.6001 12.5996C19.4001 13.9996 13.2001 19.9996 13.1001 22.4996C13.1001 23.4996 13.8001 24.2996 15.3001 26.0996C16.8001 27.8996 17.4001 28.5996 17.4001 29.2996C17.4001 29.9996 16.6001 30.6996 16.1001 31.3996C15.5001 32.0996 14.5001 33.2996 14.5001 33.2996H19.7001C19.7001 33.2996 22.4001 30.4996 22.9001 29.0996C23.5001 27.6996 23.8001 26.6996 22.6001 25.0996L18.4001 20.2996C18.4001 20.2996 17.6001 19.4996 17.9001 18.3996C18.3001 16.7996 20.4001 14.6996 21.5001 13.3996L20.6001 12.5996ZM27.4001 12.5996C28.6001 13.9996 34.8001 19.9996 34.9001 22.4996C34.9001 23.4996 34.2001 24.2996 32.7001 26.0996C31.1001 27.8996 30.6001 28.5996 30.6001 29.2996C30.6001 29.9996 31.4001 30.6996 31.9001 31.3996C32.5001 32.0996 33.5001 33.2996 33.5001 33.2996H28.3001C28.3001 33.2996 25.6001 30.4996 25.1001 29.0996C24.5001 27.6996 24.2001 26.6996 25.4001 25.0996L29.6001 20.2996C29.6001 20.2996 30.4001 19.4996 30.1001 18.3996C29.7001 16.7996 27.6001 14.6996 26.5001 13.3996C26.5001 13.2996 27.4001 12.5996 27.4001 12.5996Z" fill="#007C36"/>
<path d="M24.0001 14.4004C26.0001 14.4004 27.6001 15.9004 27.9001 17.8004H25.9001L24.0001 15.9004L21.6001 18.3004L24.0001 20.7004L25.9001 18.8004H27.9001C27.6001 20.7004 26.0001 22.2004 24.0001 22.2004C21.8001 22.2004 20.1001 20.4004 20.1001 18.3004C20.1001 16.2004 21.8001 14.4004 24.0001 14.4004Z" fill="#D7000F"/>
<path d="M24 10.4C31.5 10.4 37.6 16.5 37.6 24C37.6 31.5 31.5 37.6 24 37.6V37.3C31.3 37.3 37.3 31.3 37.3 24C37.3 16.7 31.3 10.7 24 10.7V10.4ZM24 10.4V10.7C16.7 10.7 10.7 16.7 10.7 24C10.7 31.3 16.7 37.3 24 37.3V37.6C16.5 37.6 10.4 31.5 10.4 24C10.4 16.5 16.5 10.4 24 10.4ZM19.8 40.1C20.4 39.5 20.1 38.9 20.3 38.4C20.3 38.3 20 38.1 19.8 38.1C19.7 37.9 19.3 37.8 19.2 38C19.2 37.8 18.7 37.7 18.6 37.8C18.4 37.7 18.1 37.7 18 37.8C17.9 37.7 17.6 37.7 17.4 37.9C17.2 37.8 17 37.9 16.9 38C16.6 38 16.5 38.1 16.5 38.3C16.9 39.4 19.8 40 18.6 41.6C18.3 42 17.7 42.3 17 42.5C16.6 42.5 16.9 42.7 17.4 42.5C18 42.3 18.4 42.1 18.8 41.7C19.6 40.9 20.3 40.7 22.2 41.5C22.3 41.4 22.3 41.1 22.2 40.9C22.3 40.7 22.2 40.4 22 40.4C22.2 40.3 21.9 39.9 21.7 39.8C21.9 39.6 21.5 39.2 21.3 39.3C21.4 39.1 21.2 38.9 20.9 38.8C20.9 38.6 20.6 38.4 20.4 38.5C20.3 38.9 20.4 39.5 19.8 40.1ZM14.2 37.4C14 37.3 14.2 36.7 14.4 36.9C14.3 36.7 14.5 36.4 14.7 36.5C14.8 37 15.1 37.1 15.1 37.6C15.1 37 14.7 36.7 14.8 36.3C14.9 36.2 15.1 36.1 15.2 36.2C15.3 36.1 15.7 36.2 15.7 36.3C15.9 36.2 16.2 36.5 16.1 36.7C16.4 36.6 16.5 37.1 16.3 37.4C16 37.8 15.4 38.7 16.5 39.4C16.6 39.5 16.8 39.6 17 39.6L17.2 39.7C17.2 39.8 16.7 39.5 16.5 39.5C15.9 39.2 15.3 38.7 14.6 39.2C14.3 39.4 14.1 38.6 14.3 38.5C14.1 38.5 14 37.9 14.2 37.9C13.9 37.9 14 37.4 14.2 37.4ZM11.9 35.5C11.7 35.4 11.9 34.8 12.1 35C12 34.8 12.2 34.5 12.4 34.6C12.5 35.1 12.8 35.2 12.8 35.7C12.8 35.1 12.4 34.8 12.5 34.4C12.6 34.3 12.8 34.2 12.9 34.3C13 34.2 13.4 34.3 13.4 34.4C13.6 34.3 13.9 34.6 13.8 34.8C14.1 34.7 14.2 35.2 14 35.5C13.7 35.9 13.1 36.8 14.2 37.5C14.3 37.6 14.5 37.7 14.7 37.7L14.9 37.8C14.9 37.9 14.4 37.6 14.2 37.6C13.6 37.3 13 36.8 12.3 37.3C12 37.5 11.8 36.7 12 36.6C11.8 36.6 11.7 36 11.9 36C11.7 35.9 11.7 35.4 11.9 35.5ZM9.9 33.3C9.7 33.2 9.9 32.6 10.1 32.8C10 32.6 10.2 32.3 10.4 32.4C10.5 32.9 10.8 33 10.8 33.5C10.8 32.9 10.4 32.6 10.5 32.2C10.6 32.1 10.8 32 10.9 32.1C11 32 11.4 32.1 11.4 32.2C11.6 32.1 11.9 32.4 11.8 32.6C12.1 32.5 12.2 33 12 33.3C11.7 33.7 11.1 34.6 12.2 35.3C12.3 35.4 12.5 35.5 12.7 35.5L12.9 35.6C12.9 35.7 12.4 35.4 12.2 35.4C11.6 35.1 11 34.6 10.3 35.1C10 35.3 9.8 34.5 10 34.4C9.8 34.4 9.7 33.8 9.9 33.8C9.6 33.7 9.7 33.2 9.9 33.3ZM8.6 30.4C8.5 30.2 8.9 29.8 8.9 30C8.8 29.8 9.1 29.6 9.3 29.7C9.2 30.2 9.5 30.4 9.3 30.9L9.6 29.6C9.7 29.6 10 29.6 10 29.7C10.2 29.6 10.5 29.9 10.4 30C10.6 30 10.7 30.4 10.6 30.5C10.9 30.5 10.8 31.1 10.5 31.3C10.1 31.5 9.1 32.1 9.9 33.3L10.2 33.7L10.4 33.8C10.3 33.9 10 33.5 9.8 33.3C9.4 32.8 9 32 8.1 32.3C7.8 32.4 7.9 31.6 8.1 31.5C7.9 31.4 8 30.8 8.2 30.9C8.2 30.8 8.4 30.3 8.6 30.4ZM7.8 27.2C7.7 27 8.2 26.8 8.2 27C8.2 26.8 8.6 26.7 8.7 26.9L8.3 28.1C8.7 27.7 8.6 27.2 9 26.9C9.1 26.8 9.4 26.9 9.4 27.1C9.6 27.1 9.8 27.4 9.7 27.5C9.9 27.5 9.9 28 9.8 28.1C10.1 28.2 9.8 28.7 9.4 28.8C9 28.9 7.9 29.2 8.2 30.5C8.2 30.6 8.3 30.9 8.4 31C8.3 31.1 8.1 30.5 8 30.3C7.7 29.7 7.6 28.8 6.7 28.8C6.4 28.8 6.7 28.1 7 28.1C6.8 28 7.2 27.4 7.3 27.6C7.3 27.5 7.6 27.1 7.8 27.2ZM7.1 24.2C7 24 7.5 23.7 7.5 23.9C7.5 23.7 7.9 23.6 8 23.8L7.6 25C8 24.5 7.9 24 8.2 23.8C8.3 23.7 8.6 23.8 8.6 24C8.8 24 9 24.3 8.9 24.4C9.1 24.4 9.1 24.9 9 25C9.3 25.1 9 25.6 8.6 25.7C8.2 25.8 7.1 26.1 7.4 27.4C7.4 27.5 7.5 27.8 7.6 27.9L7.7 28C7.6 28.1 7.4 27.5 7.3 27.3C7 26.7 6.9 25.8 6 25.8C5.7 25.8 6 25.1 6.3 25.1C6.1 25 6.5 24.4 6.6 24.6C6.6 24.4 6.9 24 7.1 24.2ZM7.6 21C7.6 20.8 8.2 20.7 8.1 20.9C8.2 20.7 8.6 20.8 8.6 21C8.1 21.3 8.2 21.6 7.8 21.9L8.9 21.1C9 21.1 9.3 21.3 9.2 21.4C9.4 21.5 9.5 21.8 9.3 21.9C9.5 22 9.3 22.4 9.2 22.4C9.4 22.6 9 23 8.6 22.9C8 22.8 6.9 22.6 6.7 24V24.7C6.6 24.7 6.6 24.2 6.6 23.9C6.6 23.3 6.8 22.4 6 22.1C5.7 21.9 6.3 21.4 6.5 21.5C6.5 21.4 7 21 7.1 21.2C7.1 21 7.5 20.8 7.6 21ZM8.4 18C8.5 17.8 9 17.8 8.9 18C9 17.8 9.4 17.8 9.4 18C8.9 18.3 9 18.6 8.5 18.8L9.6 18.1C9.7 18.1 9.9 18.3 9.8 18.4C10 18.5 10 18.8 9.9 18.9C10.1 19 9.8 19.4 9.7 19.4C9.9 19.6 9.4 20 9.1 19.8C8.7 19.7 7.6 19.4 7.3 20.7L7.2 21.2V21.4C7.1 21.4 7.2 20.9 7.2 20.6C7.2 20 7.5 19.1 6.7 18.7C6.4 18.5 7.1 18.1 7.3 18.2C7.2 18 7.7 17.7 7.8 17.9C7.9 17.9 8.4 17.7 8.4 18ZM9.9 15.1C10 14.9 10.6 15 10.4 15.2C10.5 15.1 10.9 15.2 10.8 15.4C10.3 15.6 10.3 15.9 9.7 16C10.3 15.9 10.5 15.5 11 15.5C11.1 15.5 11.3 15.8 11.2 15.9C11.4 16 11.3 16.4 11.2 16.4C11.4 16.6 11 16.9 10.9 16.9C11 17.2 10.5 17.4 10.2 17.2C9.8 17 8.8 16.5 8.2 17.7C8.1 17.8 8 18 8 18.2V18.4C7.9 18.4 8.1 17.9 8.1 17.6C8.3 17 8.7 16.2 8.1 15.7C7.9 15.5 8.6 15.2 8.8 15.3C8.8 15.1 9.3 14.9 9.4 15.1C9.4 14.9 9.9 14.9 9.9 15.1ZM11.8 12.5C11.9 12.3 12.5 12.4 12.3 12.6C12.4 12.5 12.8 12.6 12.7 12.8C12.3 12.9 12.3 13.3 11.7 13.4C12.3 13.4 12.6 12.9 13 12.9C13.1 12.9 13.3 13.2 13.2 13.3C13.4 13.4 13.3 13.8 13.2 13.8C13.4 14 13 14.3 12.9 14.3C13 14.6 12.5 14.8 12.2 14.6C11.8 14.4 10.8 13.9 10.2 15.1C10.2 15.2 10 15.4 10 15.6V15.8C9.9 15.8 10.1 15.3 10.1 15C10.3 14.4 10.7 13.6 10.1 13.1C9.8 12.9 10.5 12.6 10.7 12.7C10.7 12.5 11.2 12.3 11.3 12.5C11.3 12.3 11.8 12.3 11.8 12.5ZM24 4C35 4 44 13 44 24C44 35 35 44 24 44V42.7C34.3 42.7 42.7 34.3 42.7 24C42.7 13.7 34.3 5.3 24 5.3V4V4ZM24 4V5.3C13.7 5.3 5.3 13.7 5.3 24C5.3 34.3 13.7 42.7 24 42.7V44C13 44 4 35 4 24C4 13 13 4 24 4V4ZM15 11.7C14.6 11.6 13.8 11.4 13.6 11C14 11.2 14.6 11.6 15 11.5L15.2 11.7H15ZM16.2 8.7C16.3 8.6 16.5 8.6 16.7 8.6C17 8.5 17.2 8.6 17.4 9.1C17.2 9.7 17 10.1 16.5 10.3L16.3 10.5V10C16.5 9.8 16.7 9.3 16.6 8.9L16.3 9L16.2 8.7ZM15.5 11.1L15 11.2L15.2 11C15.1 10.7 14.9 10.5 14.7 10.3C14.8 10.3 14.9 10.3 15.1 10.5H15.2L15.4 10.8C15.9 10.7 15.8 10.3 15.6 9.8L15.2 9.7C14.8 10.1 14.6 10.3 14.1 10.4L14 10.2C14.7 9.7 15.3 9.1 16.1 8.8V9.2L15.7 9.4C16 9.6 16.1 9.7 16.2 10V10.5C15.9 10.8 15.6 11.1 15.5 11.1ZM23 9.7C22.9 9.7 22.9 9.7 22.8 9.6L22.7 9.5C22.7 9.4 22.6 9.2 22.6 9.2L22.5 8.5C22.5 8.3 22.4 8.2 22.3 8.1C22.1 7.6 22.1 6.7 21.8 6.2L21.5 6.1V6C21.6 5.9 22 5.8 22.2 5.8L22.3 6.1C22.2 6.3 22.2 6.4 22.3 6.7C22.3 6.8 22.4 7.6 22.5 7.7L22.7 8.3C22.7 8.5 22.9 9.1 23 9.2V9.7ZM21.6 8.1V7.9V8.1ZM21.6 7.8V8L21.5 8.1H21.4C21.1 8.1 21.1 7.9 21 7.8L20.9 7.5H20.8V7.4C20.9 7.3 20.9 7.3 21 7.3C21.1 7.3 21.2 7.3 21.2 7.4C21.3 7.4 21.5 7 21.5 6.9C21.5 7 21.4 7.1 21.5 7.2C21.5 7.3 21.5 7.7 21.6 7.8ZM20.2 9.3V7.1C20.4 7.2 20.4 7.4 20.5 7.6V7.8C20.5 8 20.6 8.2 20.5 8.3C20.6 8.6 20.5 9.1 20.2 9.3ZM20.2 7.1V7.5L20.1 7.3L20 7.1L19.9 6.9L20.2 7.1ZM20.2 8V9.2L20.1 9.3V9.2C20 9.1 20 9 20 8.8L20.1 8.2C20.2 8.2 20.2 8 20.2 8ZM28.3 40.1C27.7 39.5 28 38.9 27.7 38.4C27.7 38.3 28 38.1 28.2 38.1C28.3 37.9 28.7 37.8 28.8 38C28.8 37.8 29.3 37.7 29.4 37.8C29.6 37.7 29.9 37.7 30 37.8C30.1 37.7 30.4 37.7 30.6 37.9C30.8 37.8 31 37.9 31.1 38C31.4 38 31.5 38.1 31.5 38.3C31.1 39.4 28.2 40 29.4 41.6C29.7 42 30.3 42.3 31 42.5C31.4 42.5 31.1 42.7 30.6 42.5C30 42.3 29.6 42.1 29.2 41.7C28.4 40.9 27.7 40.7 25.8 41.5C25.7 41.4 25.7 41.1 25.8 40.9C25.7 40.7 25.8 40.4 26 40.4C25.8 40.3 26.1 39.9 26.3 39.8C26.1 39.6 26.5 39.2 26.7 39.3C26.6 39.1 26.8 38.9 27.1 38.8C27.1 38.6 27.4 38.4 27.6 38.5C27.8 38.9 27.7 39.5 28.3 40.1ZM33.9 37.4C34.1 37.3 33.9 36.7 33.7 36.9C33.8 36.7 33.6 36.4 33.4 36.5C33.3 37 33 37.1 33 37.6C33 37 33.4 36.7 33.3 36.3C33.2 36.2 33 36.1 32.9 36.2C32.8 36.1 32.4 36.2 32.4 36.3C32.2 36.2 31.9 36.5 32 36.7C31.7 36.6 31.6 37.1 31.8 37.4C32.1 37.8 32.7 38.7 31.6 39.4C31.5 39.5 31.3 39.6 31.1 39.6L30.9 39.7C30.9 39.8 31.4 39.5 31.6 39.5C32.2 39.2 32.8 38.7 33.5 39.2C33.8 39.4 34 38.6 33.8 38.5C34 38.5 34.1 37.9 33.9 37.9C34.1 37.9 34.1 37.4 33.9 37.4ZM36.2 35.5C36.4 35.4 36.2 34.8 36 35C36.1 34.8 35.9 34.5 35.7 34.6C35.6 35.1 35.3 35.2 35.3 35.7C35.3 35.1 35.7 34.8 35.6 34.4C35.5 34.3 35.3 34.2 35.2 34.3C35.1 34.2 34.7 34.3 34.7 34.4C34.5 34.3 34.2 34.6 34.3 34.8C34 34.7 33.9 35.2 34.1 35.5C34.4 35.9 35 36.8 33.9 37.5C33.8 37.6 33.6 37.7 33.4 37.7L33.2 37.8C33.2 37.9 33.7 37.6 33.9 37.6C34.5 37.3 35.1 36.8 35.8 37.3C36.1 37.5 36.3 36.7 36.1 36.6C36.3 36.6 36.4 36 36.2 36C36.4 35.9 36.4 35.4 36.2 35.5ZM38.2 33.3C38.4 33.2 38.2 32.6 38 32.8C38.1 32.6 37.9 32.3 37.7 32.4C37.6 32.9 37.3 33 37.3 33.5C37.3 32.9 37.7 32.6 37.6 32.2C37.5 32.1 37.3 32 37.2 32.1C37.1 32 36.7 32.1 36.7 32.2C36.5 32.1 36.2 32.4 36.3 32.6C36 32.5 35.9 33 36.1 33.3C36.4 33.7 37 34.6 35.9 35.3C35.8 35.4 35.6 35.5 35.4 35.5L35.2 35.6C35.2 35.7 35.7 35.4 35.9 35.4C36.5 35.1 37.1 34.6 37.8 35.1C38.1 35.3 38.3 34.5 38.1 34.4C38.3 34.4 38.4 33.8 38.2 33.8C38.4 33.7 38.4 33.2 38.2 33.3ZM39.5 30.4C39.6 30.2 39.2 29.8 39.2 30C39.3 29.8 39 29.6 38.8 29.7C38.9 30.2 38.6 30.4 38.8 30.9L38.5 29.6C38.4 29.5 38.1 29.5 38.1 29.7C37.9 29.6 37.6 29.9 37.7 30C37.5 30 37.4 30.4 37.5 30.5C37.2 30.5 37.3 31.1 37.6 31.3C38 31.5 39 32.1 38.2 33.3L37.9 33.7L37.7 33.8C37.8 33.9 38.1 33.5 38.3 33.3C38.7 32.8 39.1 32 40 32.3C40.3 32.4 40.2 31.6 40 31.5C40.2 31.4 40.1 30.8 39.9 30.9C39.9 30.8 39.7 30.3 39.5 30.4ZM40.3 27.2C40.4 27 39.9 26.7 39.8 26.9C39.8 26.7 39.4 26.6 39.3 26.8L39.7 28C39.3 27.6 39.4 27.1 39 26.8C38.9 26.7 38.6 26.8 38.6 27C38.4 27 38.2 27.3 38.3 27.4C38.1 27.4 38.1 27.9 38.2 28C37.9 28.1 38.2 28.6 38.6 28.7C39 28.8 40.1 29.1 39.8 30.4C39.8 30.5 39.7 30.8 39.6 30.9V31C39.7 31.1 39.9 30.5 40 30.3C40.3 29.7 40.4 28.8 41.3 28.8C41.6 28.8 41.3 28.1 41 28.1C41.2 28 40.8 27.4 40.7 27.6C40.8 27.5 40.4 27.1 40.3 27.2ZM41 24.2C41.1 24 40.6 23.7 40.5 23.9C40.5 23.7 40.1 23.6 40 23.8L40.4 25C40 24.6 40.1 24.1 39.7 23.8C39.6 23.7 39.3 23.8 39.3 24C39.1 24 38.9 24.3 39 24.4C38.8 24.4 38.8 24.9 38.9 25C38.6 25.1 38.9 25.6 39.3 25.7C39.7 25.8 40.8 26.1 40.5 27.4C40.5 27.5 40.4 27.8 40.3 27.9V28C40.4 28.1 40.6 27.5 40.7 27.3C41 26.7 41.1 25.8 42 25.8C42.3 25.8 42 25.1 41.7 25.1C41.9 25 41.5 24.4 41.4 24.6C41.5 24.4 41.1 24 41 24.2ZM40.5 21C40.5 20.8 39.9 20.7 40 20.9C39.9 20.7 39.5 20.8 39.5 21C40 21.3 39.9 21.6 40.3 21.9L39.2 21.1C39.1 21.1 38.8 21.3 38.9 21.4C38.7 21.5 38.6 21.8 38.8 21.9C38.6 22 38.8 22.4 38.9 22.4C38.7 22.6 39.1 23 39.5 22.9C39.9 22.8 41.1 22.6 41.3 24V24.7C41.4 24.7 41.4 24.2 41.4 23.9C41.4 23.3 41.2 22.4 42 22.1C42.3 21.9 41.7 21.4 41.5 21.5C41.6 21.3 41.1 20.9 41 21.1C41 21 40.5 20.8 40.5 21ZM39.7 18C39.6 17.8 39.1 17.8 39.2 18C39.1 17.8 38.7 17.9 38.7 18.1C39.2 18.4 39.1 18.7 39.6 18.9L38.5 18.2C38.4 18.2 38.2 18.4 38.3 18.5C38 18.6 38 18.9 38.1 19C37.9 19.1 38.2 19.5 38.3 19.5C38.1 19.7 38.6 20.1 38.9 19.9C39.3 19.8 40.4 19.5 40.7 20.8L40.8 21.3V21.5C40.9 21.5 40.8 21 40.8 20.7C40.8 20.1 40.5 19.2 41.3 18.8C41.6 18.6 40.9 18.2 40.7 18.3C40.8 18.1 40.3 17.8 40.2 18C40.2 17.9 39.7 17.7 39.7 18ZM38.1 15.1C38 14.9 37.4 15 37.6 15.2C37.5 15.1 37.1 15.2 37.2 15.4C37.7 15.6 37.7 15.9 38.3 16C37.7 15.9 37.5 15.5 37 15.5C36.9 15.5 36.7 15.8 36.8 15.9C36.6 16 36.7 16.4 36.8 16.4C36.6 16.6 37 16.9 37.1 16.9C37 17.2 37.5 17.4 37.8 17.2C38.2 17 39.2 16.5 39.8 17.7C39.8 17.8 40 18 40 18.2V18.4C40.1 18.4 39.9 17.9 39.9 17.6C39.7 17 39.3 16.2 39.9 15.7C40.1 15.5 39.4 15.2 39.2 15.3C39.2 15.1 38.7 14.9 38.6 15.1C38.7 14.9 38.1 14.9 38.1 15.1ZM36.2 12.5C36.1 12.3 35.5 12.4 35.7 12.6C35.6 12.5 35.2 12.6 35.3 12.8C35.8 13 35.8 13.3 36.4 13.4C35.8 13.3 35.6 12.9 35.1 12.9C35 12.9 34.8 13.2 34.9 13.3C34.7 13.4 34.8 13.8 34.9 13.8C34.7 14 35.1 14.3 35.2 14.3C35.1 14.6 35.6 14.8 35.9 14.6C36.3 14.4 37.3 13.9 37.9 15.1C37.9 15.2 38.1 15.4 38.1 15.6V15.8C38.2 15.8 38 15.3 38 15C37.8 14.4 37.4 13.6 38 13.1C38.2 12.9 37.5 12.6 37.3 12.7C37.3 12.5 36.8 12.3 36.7 12.5C36.7 12.3 36.2 12.3 36.2 12.5ZM34.1 9.3C34.3 9.4 34.3 9.5 34.3 9.8C34.2 9.9 34.2 9.9 34.1 9.8V9.3ZM34.1 10.5V10.1L34.6 10.3C34.9 10.4 35 10.5 34.9 10.7C34.8 10.8 34.7 10.9 34.6 10.8L34.1 10.5ZM33.9 9.7C33.9 9.5 33.9 9.5 34 9.4C34 9.3 33.9 9.2 34 9.1L34.1 9.2V9.7H33.9ZM34.1 10.1C33.6 9.9 33 9.8 32.6 9.5L32.5 9.4V9.8C32.8 9.8 33 9.9 33.1 10L33.9 10.4L34.2 10.6L34.1 10.1ZM32.6 12.3V11.5L32.7 11.4L32.6 11.3V11.1L32.7 11.2L33.1 11.5C33.2 11.6 33.3 11.6 33.3 11.7C33.3 11.9 33.5 11.8 33.3 12C33.2 12 33 11.9 33 11.9H32.9V12C32.9 12.1 32.9 12.2 32.8 12.2L32.6 12.3ZM32.6 11V10.9L32.7 10.8C32.7 10.7 32.8 10.5 32.9 10.5L33.1 10.4C33.1 10.2 33.1 10.3 33.2 10.2H33.3V10.3L33.5 10.5V10.7H33.2C33.3 10.8 33.5 10.9 33.4 11.1C33.3 11.2 33.3 11.2 33.2 11.2L32.6 11ZM32.6 9.1V8.4C32.8 8.5 32.9 8.7 32.8 8.9C32.8 9 32.7 9.1 32.6 9.1ZM32.6 8.4V9.1H32.2V8.7C32.4 8.7 32.6 8.6 32.6 8.4ZM32.6 9.4V9.8L32.4 9.7C32.3 9.6 32.3 9.4 32.5 9.3C32.5 9.2 32.6 9.3 32.6 9.4ZM32.6 10.9V11H32.5L32.6 11.1V11.4L32.4 11.2L32.3 11V10.9H32.6ZM32.6 11.5V12.3C32.5 12.3 32.4 12.3 32.4 12.2L32.3 12.1V11.8H32.5L32.6 11.5ZM32.3 8.7V9.2L31.6 9.3C31.5 9.4 31.7 9.5 31.7 9.6V9.8C31.5 10 30.9 10.3 30.9 10.6L30.7 10.8L30.6 10.5C30.7 10.2 30.9 10.1 31.1 9.9L31.4 9.6C31.3 9.5 31.2 9.6 31.1 9.6V9.5C31 9.1 31.2 9 31.6 8.9C31.9 8.8 32.1 8.8 32.3 8.7ZM32.3 10.9V11L32.1 11.3C32.1 11.4 32 11.5 31.9 11.6C31.8 11.7 31.7 11.6 31.7 11.6V11.3C31.7 11.2 31.8 11 31.9 11C32 10.9 32.1 10.9 32.2 10.9H32.3ZM32.3 11.8C32.2 11.8 32.1 11.7 32.1 11.8L32.2 12.1L32.3 12.2V11.8ZM26.9 7.2C27 7.1 27.1 7 27.1 6.9H26.9V6.7L27.3 6.6C27.4 6.5 27.3 6.4 27.3 6.4C27.4 6.2 27.8 6.4 27.8 6.6H28.5C28.6 6.6 28.7 6.6 28.8 6.8V6.9C28.7 7 28.7 7.2 28.6 7.2C28.5 7.3 28.2 7.3 28 7.3C28 7.2 27.8 7.1 27.7 7.2C27.6 7.2 27.3 7.5 27.3 7.6L27.2 7.7H27.1L27 7.8L26.9 7.2ZM26.9 8.3V8.7L27.3 8.5L27.2 8.7L26.9 9V9.4L27.2 9.1L27.5 8.7C27.6 8.6 27.6 8.5 27.8 8.7L28.4 9.3L28.5 9.5L28.6 9.7H28.7V9.3L28.5 8.9L28.3 8.6L28.1 8.4C27.8 8.3 28 8.1 28.1 8V7.9C28.1 7.9 27.8 8.1 27.8 8.2C27.7 8.2 27.7 8.1 27.7 8.1C27.8 8.1 28.1 7.9 28.1 7.9C28.2 7.9 28.4 7.8 28.4 7.7L28.5 7.6C28.6 7.5 28.8 7.2 28.6 7.2C28.6 7.2 28.5 7.2 28.4 7.3C28 7.5 27.7 7.7 27.2 7.9C27.1 8.2 26.9 8.3 26.9 8.3ZM26.3 9.8C26.2 9.8 26.2 9.7 26.2 9.7L26.1 9.4C26.1 9.2 26.2 8.9 26.3 8.7L26.6 8.2V8.1C26.6 8.2 26.2 8.5 26.1 8.6H26C25.9 8.6 25.9 8.4 25.9 8.4V8.3L26.1 8C26.2 8 26.5 7.7 26.6 7.6L27 7.2V7.7C26.9 7.9 26.7 8.3 26.8 8.4C26.9 8.4 27 8.4 27 8.3V8.7L26.8 8.8C26.8 8.8 26.5 9.4 26.7 9.3C26.8 9.3 26.9 9.2 27 9V9.4C26.8 9.6 26.5 9.8 26.3 9.8ZM26.9 7V6.7H26.7V6.6C26.7 6.5 26.8 6.1 26.6 6.1L26.4 6.4C26.4 6.5 26.3 6.6 26.2 6.6L26.1 6.7V7.2C26.1 7.3 26.1 7.3 26.2 7.4H26.4L26.6 7.3C26.7 7.1 26.8 7 26.9 7Z" fill="#72AF2D"/>
</g>
<defs>
<clipPath id="clip0_538_13807">
<rect width="40" height="40" fill="white" transform="translate(4 4)"/>
</clipPath>
</defs>
</svg>
