<svg width="48" height="48" viewBox="0 0 48 48" fill="none" xmlns="http://www.w3.org/2000/svg">
<g clip-path="url(#clip0_538_13809)">
<path fill-rule="evenodd" clip-rule="evenodd" d="M10.3622 5.18236L36.9991 5.07043C36.9991 5.07043 42.659 4.07053 42.953 9.60581L42.9485 37.215C42.9485 37.215 43.8962 43.6517 37.6513 43.7107L11.1278 43.6368C11.1278 43.6368 5.05596 44.2808 5 37.806L5.05596 11.193C5.05596 11.193 4.82241 5.06446 10.3622 5.18236ZM12.015 11.8377C12.015 11.8377 25.0935 23.206 36.2372 11.6049C36.2372 11.6049 25.5137 24.1469 36.1768 35.7458C36.1768 35.7458 22.1498 26.0303 11.9553 37.0412C11.9553 37.0404 22.7691 24.2141 12.015 11.8377Z" fill="#1179BD"/>
</g>
<defs>
<clipPath id="clip0_538_13809">
<rect width="38" height="38.7111" fill="white" transform="translate(5 5)"/>
</clipPath>
</defs>
</svg>
