<svg width="48" height="48" viewBox="0 0 48 48" fill="none" xmlns="http://www.w3.org/2000/svg">
<g clip-path="url(#clip0_538_13808)">
<path d="M43.5935 29.1752C42.287 34.2628 39.0088 38.8459 34.0918 41.6843C25.2442 46.7919 14.1548 44.4803 8.05591 36.6767C16.8062 25.9105 22.274 42.7516 33.2356 37.0693C21.0379 38.0813 19.9198 18.5545 5.75564 32.9736C4.87479 31.1446 4.29525 29.2376 4 27.3129C8.03635 23.125 13.3778 21.4134 16.069 21.7363C19.7451 22.178 22.9798 25.0772 26.9731 28.3197C32.0269 32.4241 37.1558 32.8937 43.5935 29.1752ZM4.40655 19.2309C5.71303 14.1428 8.99124 9.55975 13.9082 6.72185C22.7558 1.61372 33.8452 3.92562 39.9441 11.7296C31.1938 22.4954 25.7262 5.65402 14.7644 11.3366C26.9621 10.3253 28.0802 29.8514 42.2444 15.4325C43.1252 17.2618 43.7048 19.1683 44 21.0927C39.9637 25.2809 34.6222 26.9923 31.931 26.6696C28.2549 26.2281 25.0202 23.3287 21.0269 20.0859C15.9731 15.9816 10.8444 15.5122 4.40655 19.2309Z" fill="#0C377A"/>
</g>
<defs>
<clipPath id="clip0_538_13808">
<rect width="40" height="40.4058" fill="white" transform="translate(4 4)"/>
</clipPath>
</defs>
</svg>
