<svg width="48" height="48" viewBox="0 0 48 48" fill="none" xmlns="http://www.w3.org/2000/svg">
<g clip-path="url(#clip0_538_13817)">
<path d="M37.33 18.338V18.332C37.332 10.972 31.362 5 24 5C16.638 5 10.668 10.972 10.668 18.332V18.342C6.686 20.648 4 24.944 4 29.874C4 37.238 9.968 43.206 17.332 43.206C19.764 43.206 22.036 42.544 24 41.406C25.964 42.544 28.236 43.206 30.668 43.206C38.032 43.206 44 37.238 44 29.874C44 24.942 41.314 20.646 37.33 18.338Z" fill="#E50012"/>
<path d="M23.9999 18.3301C20.0159 20.6361 17.3359 24.9441 17.3359 29.8741V29.8821C19.2959 31.0161 21.5719 31.6641 23.9999 31.6641C26.4279 31.6641 28.7019 31.0161 30.6619 29.8821V29.8741C30.6619 24.9441 27.9819 20.6361 23.9999 18.3301Z" fill="#008C43"/>
<path d="M38.4481 17.6887C37.6961 17.2067 36.8941 16.7927 36.0561 16.4547C34.3901 15.7827 32.5721 15.4127 30.6681 15.4127C29.1221 15.4127 27.6421 15.6787 26.2441 16.1307L24.0001 13.8867L19.5541 18.3327L24.0001 22.7787L28.4461 18.3327L27.1601 17.0467C28.2821 16.7387 29.4501 16.5427 30.6681 16.5427C33.5701 16.5427 36.2541 17.4727 38.4421 19.0447L38.4621 18.3327L38.4481 17.6887ZM14.8121 27.9507C12.2721 25.5227 10.6681 22.1227 10.6681 18.3327C10.6681 17.8867 10.6901 17.4447 10.7341 17.0087C10.3301 17.2187 9.93613 17.4447 9.55213 17.6887L9.53613 18.3327C9.53613 19.0267 9.58613 19.7107 9.68213 20.3787C10.1481 23.6547 11.7221 26.5727 14.0021 28.7607L12.8861 29.8767L17.3321 34.3227L21.7761 29.8767L17.3321 25.4327L14.8121 27.9507ZM26.2221 29.8747L30.0921 33.7427C28.9741 37.4347 26.2981 40.4507 22.8301 42.0227C23.2101 42.2687 23.6001 42.4967 24.0021 42.7047C24.8001 42.2887 25.5541 41.8027 26.2561 41.2487C28.6561 39.3627 30.4441 36.7327 31.2761 33.7127L35.1141 29.8747L30.6681 25.4307L26.2221 29.8747Z" fill="white"/>
</g>
<defs>
<clipPath id="clip0_538_13817">
<rect width="40" height="38.208" fill="white" transform="translate(4 5)"/>
</clipPath>
</defs>
</svg>
