<svg width="48" height="48" viewBox="0 0 48 48" fill="none" xmlns="http://www.w3.org/2000/svg">
<g clip-path="url(#clip0_538_13815)">
<path d="M23.1089 4.28825C12.2189 4.78825 3.79291 14.0772 4.28091 25.0382C4.77591 36.0052 13.9999 44.4912 24.8899 43.9952C35.7799 43.5012 44.2069 34.2062 43.7099 23.2472C43.2199 12.2832 33.9959 3.79225 23.1089 4.28825Z" fill="url(#paint0_radial_538_13815)"/>
<path d="M23.0938 4.02082C12.0618 4.52382 3.5218 13.9408 4.0208 25.0518C4.5178 36.1638 13.8648 44.7658 24.9008 44.2638C35.9358 43.7578 44.4768 34.3478 43.9788 23.2328C43.4798 12.1208 34.1298 3.51982 23.0938 4.02082ZM25.4368 23.5688C28.9948 26.8658 30.9428 28.6448 30.9428 28.6448C37.2118 33.9008 35.0708 38.7028 32.6778 40.3738C30.8458 41.6488 28.8278 42.2478 26.1698 42.3858C25.9308 42.4218 25.4908 42.2858 25.4778 41.8568C25.4578 41.4028 26.1188 41.2878 26.1188 41.2878C32.0408 40.1168 30.3088 36.2078 28.2148 34.2138C27.3298 33.3788 19.0968 26.2228 19.0968 26.2228C11.2498 19.4138 11.8768 14.1008 11.8768 14.1008C12.2508 7.56282 17.9388 5.93582 22.2428 6.31182C22.7478 6.35882 23.0268 6.66382 22.9358 7.08882C22.8448 7.55182 22.1748 7.58282 22.1748 7.58282C20.8038 7.66582 19.5828 7.80582 18.6528 8.43582C15.1858 10.7858 16.2048 14.7798 20.8288 19.2278C21.4088 19.7868 22.0288 20.3738 22.6628 20.9768C22.6628 20.9748 23.5948 21.7958 25.4368 23.5688ZM22.7558 40.4738C22.7948 41.1078 21.2478 41.3928 19.4918 41.2168C17.2788 40.9958 14.6408 40.2958 12.3398 38.2928C10.2288 36.4548 8.9178 33.9228 8.2858 31.6988C7.6358 29.4278 7.3668 26.7658 8.4388 26.9748C8.7698 27.0408 9.3388 28.5028 9.9578 29.5718C10.5968 30.6688 11.1248 31.2738 11.6108 31.6458C11.8378 31.8148 12.5878 30.1238 13.6888 29.1628C14.3248 28.6328 15.0198 28.4528 15.1318 30.0368C15.2728 31.9748 14.9218 34.2828 15.4878 34.2828C16.0108 34.2828 17.1958 33.8848 19.8008 33.6618C20.7808 33.5748 21.3388 33.7628 20.3998 35.0888C19.9388 35.7468 19.3168 36.6868 17.8368 37.7498C20.0518 39.8398 22.7058 39.5858 22.7558 40.4738ZM24.5028 20.1758C24.3308 19.5218 24.2908 18.6978 24.4238 17.6428C24.7038 15.4488 25.2888 14.4138 25.9628 12.7098C26.8648 10.4198 24.6708 9.08082 25.0298 8.24182C25.5238 7.09982 27.0928 8.54882 28.8448 8.65582C30.3508 8.73982 31.2568 8.66482 32.4258 8.82082C33.9868 9.02982 35.8418 9.55982 36.6778 10.5428C37.4348 11.4398 36.2758 12.5298 34.8818 11.8448C33.8568 11.3458 32.5758 11.6538 33.3268 12.7258C34.2268 13.7428 34.6688 13.7718 35.5968 14.0148C38.1378 14.6908 38.1968 17.1518 36.4658 18.4228C34.5058 19.8668 32.5218 19.2678 31.7218 16.4308C31.3218 15.0148 30.3348 14.2948 29.3188 14.6998C28.3028 15.1048 28.9048 16.9588 29.6788 18.6898C31.2078 22.6418 27.3938 22.5108 26.9438 22.4578C24.9078 22.0268 24.5028 20.1758 24.5028 20.1758Z" fill="url(#paint1_radial_538_13815)"/>
</g>
<defs>
<radialGradient id="paint0_radial_538_13815" cx="0" cy="0" r="1" gradientUnits="userSpaceOnUse" gradientTransform="translate(25.7062 16.88) scale(18.7228 18.8663)">
<stop stop-color="white"/>
<stop offset="1" stop-color="#D3A243"/>
</radialGradient>
<radialGradient id="paint1_radial_538_13815" cx="0" cy="0" r="1" gradientUnits="userSpaceOnUse" gradientTransform="translate(27.4642 19.4322) scale(41.9564 42.273)">
<stop stop-color="#00B9EF"/>
<stop offset="0.219" stop-color="#0093D4"/>
<stop offset="0.22" stop-color="#0092D4"/>
<stop offset="0.283" stop-color="#007EC5"/>
<stop offset="0.349" stop-color="#006EBA"/>
<stop offset="0.417" stop-color="#0063B2"/>
<stop offset="0.489" stop-color="#005DAE"/>
<stop offset="0.573" stop-color="#005BAC"/>
</radialGradient>
<clipPath id="clip0_538_13815">
<rect width="40" height="40.285" fill="white" transform="translate(4 4)"/>
</clipPath>
</defs>
</svg>
