<svg width="48" height="48" viewBox="0 0 48 48" fill="none" xmlns="http://www.w3.org/2000/svg">
<g clip-path="url(#clip0_538_13816)">
<path fill-rule="evenodd" clip-rule="evenodd" d="M43.9999 24.2641C44.0759 35.2731 35.0609 44.2591 23.9359 44.2641C13.1669 44.2701 4.05885 35.3081 3.99985 24.6501C3.93685 13.0941 12.6848 4.03612 23.9429 4.00012C35.1319 3.96312 43.9219 12.8441 43.9999 24.2641ZM12.7799 33.8361C12.5969 33.2851 12.5149 32.9871 12.4009 32.7021C9.62985 25.7821 10.7499 22.3601 17.1039 18.3021C17.3899 18.1191 17.6329 17.8641 17.8759 17.6221C19.8659 15.6341 22.0429 14.6101 24.2038 14.5451C26.5528 14.4741 28.8829 15.5371 30.9298 17.7301C31.3258 18.1541 31.8109 18.5381 32.3228 18.8101C37.0089 21.3011 38.3438 27.6821 34.9988 31.8121C33.5698 33.5761 31.7959 34.5111 29.4118 34.4891C26.0359 34.4581 23.4018 29.3991 23.4018 29.3991C23.4018 29.3991 25.4238 29.3771 26.1008 29.1391C26.8348 28.8801 27.7789 28.4861 28.0889 27.8751C29.8379 24.4301 28.0219 21.6061 24.2008 21.6461C20.2948 21.6871 19.9029 22.0811 19.8959 25.9741C19.8948 26.6641 19.8919 27.3551 19.9059 28.0451C20.0119 33.2381 22.0468 36.2021 26.3538 37.4451C30.1398 38.5381 34.5589 36.6861 37.0629 32.9571C41.7139 26.0301 39.9978 16.4891 33.2608 11.8241C26.3769 7.05712 16.2069 8.56511 11.3888 15.0651C7.09585 20.8541 7.63385 29.5771 12.7799 33.8361Z" fill="#AF844A"/>
</g>
<defs>
<clipPath id="clip0_538_13816">
<rect width="40" height="40.265" fill="white" transform="translate(4 4)"/>
</clipPath>
</defs>
</svg>
