<svg width="48" height="48" viewBox="0 0 48 48" fill="none" xmlns="http://www.w3.org/2000/svg">
<g clip-path="url(#clip0_538_13814)">
<path fill-rule="evenodd" clip-rule="evenodd" d="M31.144 28.478C31.144 29.95 29.948 31.144 28.476 31.144H25.072V44H33.336C39.226 44 44 39.226 44 33.336V25.19H31.144V28.478ZM33.336 4H25.072V16.62H28.476C29.948 16.62 31.144 17.814 31.144 19.286V22.572H44V14.664C44 8.776 39.226 4 33.336 4V4ZM4 14.664V22.572H16.62V19.286C16.62 17.814 17.814 16.62 19.286 16.62H22.454V4H14.664C8.774 4 4 8.776 4 14.664H4ZM16.62 28.478V25.19H4V33.336C4 39.226 8.774 44 14.664 44H22.454V31.142H19.286C17.812 31.144 16.62 29.95 16.62 28.478Z" fill="#C7000B"/>
</g>
<defs>
<clipPath id="clip0_538_13814">
<rect width="40" height="40" fill="white" transform="translate(4 4)"/>
</clipPath>
</defs>
</svg>
