<svg width="48" height="48" viewBox="0 0 48 48" fill="none" xmlns="http://www.w3.org/2000/svg">
<g clip-path="url(#clip0_538_13813)">
<path d="M19.605 27.908C20.165 27.638 20.754 27.361 21.365 27.08H21.362L21.348 27.086C24.096 25.297 28.501 22.189 31.12 21.416C33.674 20.664 34.436 20.558 36.442 20.558C36.442 20.558 31.193 20.204 24.85 22.745C21.398 24.127 14.535 28.709 11.704 24.811C16.372 29.185 22.49 18.957 35.242 18.957C39.881 18.957 43.021 20.438 43.758 20.817L43.67 20.304C41.924 11.057 33.789 4 24.096 4C13.163 4 4 12.752 4 24.004C4 26.11 4.33 28.275 5.012 30.299C5.012 30.299 6.398 30.612 7.932 30.612C10.971 30.613 15.695 29.79 19.605 27.908Z" fill="url(#paint0_linear_538_13813)"/>
<path d="M36.4432 20.5566C34.4372 20.5566 33.6742 20.6626 31.1212 21.4146C28.5022 22.1876 24.0962 25.2956 21.3492 27.0846C21.3492 27.0846 24.6602 25.5676 28.7012 25.5676C32.3792 25.5676 36.1072 27.9216 36.1072 32.0486C36.1072 35.6086 30.6642 38.3156 23.9242 38.3156C17.1792 38.3156 11.6942 35.5036 11.6942 32.0506C11.6942 31.9166 11.7632 31.4606 11.7632 31.4606C11.7632 31.4606 10.3482 31.8626 8.59819 31.8626C6.81819 31.8626 5.49219 31.6186 5.49219 31.6186L5.62719 31.9106C8.79719 39.2376 16.0132 44.0076 23.9332 44.0076C29.1772 44.0076 34.0092 42.0806 37.9092 38.3746C41.7492 34.7236 44.0002 29.4456 44.0002 24.5486C44.0002 24.5486 43.8092 23.6446 42.6792 22.6736C41.3162 21.5046 38.8562 20.5566 36.4432 20.5566Z" fill="url(#paint1_linear_538_13813)"/>
<mask id="mask0_538_13813" style="mask-type:alpha" maskUnits="userSpaceOnUse" x="5" y="31" width="32" height="11">
<path d="M36.1061 32.0509C36.1061 35.6389 30.5361 38.3179 23.9231 38.3179C17.1781 38.3179 11.6931 35.5059 11.6931 32.0529C11.6931 31.9189 11.7621 31.4629 11.7621 31.4629C11.7621 31.4629 10.3391 31.8649 8.59712 31.8649C6.80412 31.8649 5.49512 31.6209 5.49512 31.6209L5.62612 31.9129C6.92412 34.9099 9.04312 37.7079 11.6291 39.7309L11.9421 39.9639C15.2531 41.3209 18.0811 41.6559 21.1171 41.6559C28.4171 41.6579 36.1061 37.6879 36.1061 32.0509Z" fill="url(#paint2_linear_538_13813)"/>
</mask>
<g mask="url(#mask0_538_13813)">
<path d="M36.1061 32.0509C36.1061 35.6389 30.5361 38.3179 23.9231 38.3179C17.1781 38.3179 11.6931 35.5059 11.6931 32.0529C11.6931 31.9189 11.7621 31.4629 11.7621 31.4629C11.7621 31.4629 10.3391 31.8649 8.59712 31.8649C6.80412 31.8649 5.49512 31.6209 5.49512 31.6209L5.62612 31.9129C6.92412 34.9099 9.04312 37.7079 11.6291 39.7309L11.9421 39.9639C15.2531 41.3209 18.0811 41.6559 21.1171 41.6559C28.4171 41.6579 36.1061 37.6879 36.1061 32.0509Z" fill="url(#paint3_linear_538_13813)"/>
</g>
</g>
<defs>
<linearGradient id="paint0_linear_538_13813" x1="3.963" y1="17.936" x2="42.951" y2="15.893" gradientUnits="userSpaceOnUse">
<stop stop-color="#004190"/>
<stop offset="0.08" stop-color="#004A94"/>
<stop offset="0.234" stop-color="#0061A0"/>
<stop offset="0.443" stop-color="#1987B4"/>
<stop offset="0.6" stop-color="#3AA7C2"/>
<stop offset="0.759" stop-color="#5FB6C2"/>
<stop offset="1" stop-color="#85CBBF"/>
</linearGradient>
<linearGradient id="paint1_linear_538_13813" x1="23.7612" y1="22.5056" x2="27.4992" y2="43.7006" gradientUnits="userSpaceOnUse">
<stop offset="0.1" stop-color="#0B6FAD"/>
<stop offset="0.241" stop-color="#046BAC"/>
<stop offset="0.424" stop-color="#0061A7"/>
<stop offset="0.629" stop-color="#0050A0"/>
<stop offset="0.8" stop-color="#004098"/>
</linearGradient>
<linearGradient id="paint2_linear_538_13813" x1="5.49412" y1="36.5599" x2="36.1061" y2="36.5599" gradientUnits="userSpaceOnUse">
<stop stop-color="white"/>
<stop offset="0.6" stop-color="white"/>
<stop offset="0.644" stop-color="#E0E0E0"/>
<stop offset="0.822" stop-color="#696969"/>
<stop offset="0.944" stop-color="#1E1E1E"/>
<stop offset="1"/>
</linearGradient>
<linearGradient id="paint3_linear_538_13813" x1="5.49412" y1="36.5599" x2="36.1061" y2="36.5599" gradientUnits="userSpaceOnUse">
<stop stop-color="#004190"/>
<stop offset="0.08" stop-color="#004A94"/>
<stop offset="0.234" stop-color="#0061A0"/>
<stop offset="0.443" stop-color="#1987B4"/>
<stop offset="0.6" stop-color="#3AA7C2"/>
<stop offset="0.759" stop-color="#5FB6C2"/>
<stop offset="1" stop-color="#85CBBF"/>
</linearGradient>
<clipPath id="clip0_538_13813">
<rect width="40" height="40.009" fill="white" transform="translate(4 4)"/>
</clipPath>
</defs>
</svg>
