<svg width="48" height="48" viewBox="0 0 48 48" fill="none" xmlns="http://www.w3.org/2000/svg">
<g clip-path="url(#clip0_538_13812)">
<path d="M30.8069 19.1808L30.9505 19.0518C33.8036 16.7366 37.2144 16.9408 38.3622 17.0963C37.8971 15.7578 35.8467 11.3126 29.7462 11.3126C26.295 11.3126 24.0452 13.1439 22.7696 14.6864C21.2569 16.5092 20.8847 18.6495 20.7979 19.7679C20.3033 25.0669 17.4727 27.6031 17.153 27.8809C13.9973 30.4905 10.7664 30.1448 9.60383 29.91C10.1556 31.3271 12.3863 35.861 18.4395 35.7125C20.8538 35.6394 22.9796 34.7 24.7607 32.9143C26.7524 30.9205 27.1782 27.8235 27.2623 26.9153C27.6869 22.3874 29.8759 20.0016 30.8069 19.1808ZM45.9916 10.5665C45.9916 9.53288 45.211 8.90079 45.211 8.90079L40.4706 5.25395C40.4706 5.25395 39.5169 4.46055 39.5169 5.6785C39.5169 9.81281 39.5094 20.2711 39.5094 20.2711C39.5169 20.3008 39.522 20.4282 39.522 20.6474C39.522 21.7504 39.2665 25.0368 36.3976 27.4921C32.9712 30.4272 29.2913 30.1599 28.0009 29.9501C28.6711 31.3315 31.2478 35.7487 37.058 35.7487C42.4099 35.7487 46 31.0329 46 26.6261C46 26.6261 45.9916 18.1677 45.9916 10.5665ZM11.5922 19.5C15.0295 16.5668 18.7041 16.8308 19.9977 17.0441C19.3304 15.656 16.7439 11.2462 10.9439 11.2462C5.59078 11.2462 2 15.9601 2 20.3632V36.6813C2 37.7147 2.78233 38.3428 2.78233 38.3428L7.53712 41.9919C7.53712 41.9919 8.48182 42.7871 8.48182 41.5656V26.7252C8.48182 26.7006 8.46759 26.5672 8.46759 26.3462C8.46794 25.2465 8.73258 21.9606 11.5922 19.5Z" fill="#0C3873"/>
</g>
<defs>
<clipPath id="clip0_538_13812">
<rect width="44" height="37.2462" fill="white" transform="translate(2 5)"/>
</clipPath>
</defs>
</svg>
