<svg width="48" height="48" viewBox="0 0 48 48" fill="none" xmlns="http://www.w3.org/2000/svg">
<g clip-path="url(#clip0_538_13810)">
<path fill-rule="evenodd" clip-rule="evenodd" d="M25.8732 22.037C30.7082 22.675 34.4112 25.865 34.4112 29.733C34.4112 33.518 30.8732 36.668 26.1602 37.427V41.728L38.0132 35.061C38.2602 34.939 38.4662 34.815 38.6922 34.693L38.7132 34.651C41.3472 33.025 43.1172 30.103 43.1172 26.75C43.1172 22.799 40.6072 19.383 37.0882 18.046L44.0002 14.239C41.7172 8.828 36.3462 5 30.0912 5C28.7132 5 27.4162 5.185 26.1602 5.515V10.884C30.4192 11.584 33.6912 14.197 34.2882 17.469L28.3212 20.534V16.911C28.3212 16.088 27.6422 15.389 26.7782 15.389H21.2222C20.3782 15.389 19.7002 16.088 19.7002 16.911V20.471C19.7002 21.336 20.3782 22.014 21.2222 22.014L25.8732 22.037Z" fill="#F6AB00"/>
<path fill-rule="evenodd" clip-rule="evenodd" d="M19.721 31.316V31.358C19.721 32.201 20.379 32.88 21.243 32.88H26.82C27.664 32.88 28.342 32.2 28.342 31.358V27.817C28.342 26.974 27.663 26.294 26.82 26.274C26.82 26.274 22.293 26.294 22.499 26.274H22.252H22.273C17.356 25.658 13.61 22.446 13.61 18.558C13.61 14.772 17.15 11.623 21.84 10.882L21.861 10.864V6.58203L10.008 13.23L9.33 13.6L9.309 13.621C6.676 15.267 4.906 18.187 4.906 21.522C4.906 25.513 7.416 28.909 10.934 30.246L4 34.053C6.304 39.485 11.675 43.312 17.93 43.312C19.288 43.312 20.606 43.128 21.839 42.798V37.405C17.621 36.727 14.349 34.112 13.711 30.821L13.753 30.842L19.7 27.777L19.721 31.316Z" fill="#EB6120"/>
</g>
<defs>
<clipPath id="clip0_538_13810">
<rect width="40" height="38.313" fill="white" transform="translate(4 5)"/>
</clipPath>
</defs>
</svg>
