<svg width="48" height="48" viewBox="0 0 48 48" fill="none" xmlns="http://www.w3.org/2000/svg">
<g clip-path="url(#clip0_538_13811)">
<path d="M11.5693 39.2116C18.8666 45.9868 30.496 45.659 38.09 38.4331C38.2174 38.3117 39.464 36.9862 40.1725 35.7745C43.1366 30.7077 42.415 25.6084 39.6522 22.6487C38.9496 21.8964 38.3451 21.5519 38.3451 21.5519C39.4922 23.1255 39.514 25.3751 39.1512 27.3051C38.5277 30.3841 37.0479 33.2847 34.0447 36.2562C29.5545 40.6986 23.3279 42.2663 17.794 41.3779V41.3773C15.6416 41.0089 13.5368 40.2861 11.5693 39.2116ZM36.4303 8.86974C29.1333 2.09456 17.5042 2.42165 9.90987 9.64694C9.78189 9.76964 8.53626 11.0939 7.82771 12.3056C4.86274 17.3723 5.58433 22.4717 8.34709 25.431C9.05036 26.1853 9.65423 26.5285 9.65423 26.5285C8.50675 24.9558 8.48594 22.7056 8.84876 20.775C9.47251 17.6969 10.9511 14.7957 13.9549 11.8242C18.446 7.38181 24.6717 5.8153 30.2053 6.70308H30.2056C32.3586 7.07211 34.4628 7.79402 36.4303 8.86974Z" fill="#EB9E16"/>
<path d="M39.3769 23.3646C43.0402 27.0269 42.4208 33.6387 38.0847 38.4376C45.8371 30.7157 46.0465 18.5392 38.2568 11.5659C32.0985 6.05401 22.0611 6.95018 14.9305 14.0798L24.9024 24.0508C29.3258 20.0243 35.6916 19.6799 39.3769 23.3646ZM8.62253 24.7158C4.95957 21.0522 5.57834 14.442 9.91538 9.64181C2.16295 17.3644 1.95328 29.5412 9.74298 36.5139C15.9009 42.0264 25.9387 41.1302 33.0689 33.9997L23.0973 24.029C18.6733 28.0551 12.3076 28.3999 8.62253 24.7158Z" fill="#014492"/>
</g>
<defs>
<clipPath id="clip0_538_13811">
<rect width="40" height="40.0811" fill="white" transform="translate(4 4)"/>
</clipPath>
</defs>
</svg>
