<svg width="48" height="48" viewBox="0 0 48 48" fill="none" xmlns="http://www.w3.org/2000/svg">
<g clip-path="url(#clip0_538_13818)">
<path fill-rule="evenodd" clip-rule="evenodd" d="M45 24.0011C45 18.3716 41.2161 13.6234 36.053 12.165L36.0548 12.1623C36.0051 12.1498 35.9593 12.1249 35.9218 12.09C35.8842 12.0551 35.8561 12.0113 35.8399 11.9627L35.839 11.9636C34.386 6.79197 29.6365 3 24.0002 3C18.3707 3 13.623 6.78526 12.1655 11.9484H12.1646C12.1521 11.9965 12.1282 12.0409 12.0948 12.0778C12.0615 12.1147 12.0197 12.1429 11.973 12.1601L11.9721 12.1592C6.7969 13.6091 3 18.3617 3 24.0011C3 29.6369 6.79332 34.3864 11.9645 35.8395L11.969 35.8412C12.0656 35.8748 12.1391 35.9545 12.1641 36.0543L12.1659 36.0525C13.623 41.2165 18.3711 45 24.0002 45C29.6347 45 34.3851 41.2085 35.8386 36.0382L35.8395 36.04C35.8558 35.9914 35.884 35.9475 35.9215 35.9125C35.959 35.8775 36.0047 35.8524 36.0543 35.8395L36.0512 35.8354C41.2143 34.377 45 29.6302 45 24.0011ZM35.0579 13.3732C34.8479 13.6564 34.6465 13.9458 34.454 14.2412L34.4737 14.2618C32.5646 17.1508 31.5493 20.5383 31.5546 24.0011C31.5546 27.5979 32.629 30.9454 34.4733 33.7391L34.4553 33.7597C34.6532 34.0632 34.8605 34.36 35.0776 34.6496L35.031 34.5937C35.0749 34.6482 35.0985 34.7162 35.0977 34.7862C35.0977 34.9563 34.9607 35.0923 34.7915 35.0923C34.731 35.093 34.6716 35.0752 34.6214 35.0413C34.3423 34.835 34.057 34.637 33.766 34.4477L33.7458 34.4665C30.8571 32.5585 27.4703 31.5435 24.0083 31.5484C20.5459 31.5433 17.1588 32.5582 14.2698 34.4665L14.2492 34.4468C13.9596 34.6366 13.6749 34.8341 13.3969 35.0395L13.4099 35.0292C13.3554 35.0724 13.2878 35.0957 13.2183 35.0955C13.1629 35.0954 13.1085 35.0804 13.061 35.0519C13.0134 35.0234 12.9745 34.9825 12.9483 34.9336C12.9221 34.8848 12.9097 34.8297 12.9123 34.7744C12.9149 34.719 12.9325 34.6654 12.9632 34.6192L12.9538 34.6304C13.1645 34.3459 13.3668 34.0553 13.5603 33.7588L13.5415 33.7382C15.4506 30.8497 16.466 27.4626 16.4606 24.0002C16.4659 20.5374 15.4506 17.1499 13.5415 14.2609L13.5603 14.2403C13.3688 13.9469 13.1687 13.659 12.9605 13.3772C12.9217 13.316 12.9059 13.243 12.9158 13.1712C12.9257 13.0994 12.9607 13.0334 13.0145 12.9849C13.0684 12.9364 13.1377 12.9085 13.2101 12.9062C13.2825 12.9038 13.3535 12.9272 13.4104 12.9721L13.3772 12.9448C13.661 13.1557 13.9525 13.358 14.2497 13.5523L14.2698 13.5335C17.1587 15.442 20.5459 16.457 24.0083 16.4516C27.4707 16.457 30.8579 15.442 33.7467 13.5335L33.766 13.5523C34.0643 13.3585 34.3561 13.155 34.6411 12.9421L34.6214 12.9609C34.6822 12.92 34.7556 12.9023 34.8283 12.9109C34.9011 12.9195 34.9683 12.9539 35.0178 13.0078C35.0674 13.0617 35.096 13.1317 35.0984 13.2049C35.1008 13.2781 35.0769 13.3497 35.031 13.4068L35.0579 13.3732Z" fill="#638F33"/>
</g>
<defs>
<clipPath id="clip0_538_13818">
<rect width="42" height="42" fill="white" transform="translate(3 3)"/>
</clipPath>
</defs>
</svg>
