<svg width="48" height="48" viewBox="0 0 48 48" fill="none" xmlns="http://www.w3.org/2000/svg">
<g clip-path="url(#clip0_538_13862)">
<path fill-rule="evenodd" clip-rule="evenodd" d="M22.587 30.951C23.4 31.718 24 32.681 24 33.798C24 34.712 23.649 35.59 23 36.278L18.596 40.944H6.117L11.851 35.225C12.247 34.831 12.561 34.36 12.561 33.797C12.561 33.222 12.223 32.753 11.833 32.362L4.88 25.393C4.271 24.781 4 23.894 4 23.079C4 22.131 4.377 21.222 5.047 20.551L18.591 7L20.373 8.787L11.464 17.72C11.091 18.094 10.827 18.562 10.827 19.09C10.827 19.618 11.079 20.097 11.459 20.455L22.587 30.951Z" fill="#009944"/>
<path fill-rule="evenodd" clip-rule="evenodd" d="M23.9999 12.3613C27.5539 12.3613 30.4349 15.2423 30.4349 18.7963C30.4349 22.3503 27.5539 25.2303 23.9999 25.2303C20.4459 25.2303 17.5649 22.3493 17.5649 18.7953C17.5649 15.2413 20.4459 12.3613 23.9999 12.3613ZM21.4979 16.2933V21.2983H26.5019V16.2933H21.4979Z" fill="#F39800"/>
<path fill-rule="evenodd" clip-rule="evenodd" d="M25.413 30.951C24.6 31.718 24 32.681 24 33.798C24 34.712 24.351 35.59 25 36.278L29.404 40.944H41.883L36.149 35.225C35.753 34.831 35.438 34.36 35.438 33.797C35.438 33.222 35.777 32.753 36.167 32.362L43.302 25.216C43.845 24.673 44 23.847 44 23.079C44 22.131 43.623 21.222 42.953 20.551L29.408 7L27.627 8.787L36.536 17.721C36.908 18.095 37.173 18.563 37.173 19.091C37.173 19.619 36.92 20.098 36.54 20.456L25.413 30.951Z" fill="#009944"/>
</g>
<defs>
<clipPath id="clip0_538_13862">
<rect width="40" height="33.944" fill="white" transform="translate(4 7)"/>
</clipPath>
</defs>
</svg>
