<svg width="48" height="48" viewBox="0 0 48 48" fill="none" xmlns="http://www.w3.org/2000/svg">
<g clip-path="url(#clip0_538_13819)">
<path fill-rule="evenodd" clip-rule="evenodd" d="M23.318 17.488L16.76 24.032C15.936 24.032 5.802 24.038 4 24.006V24C4 12.984 12.984 4 24 4C33.51 4 41.506 10.698 43.512 19.616H38.514C33.88 5.3 14.606 5.222 9.458 19.426H15.824L22.152 14.68C23.134 13.72 24.98 13.848 25.788 14.804L31.24 23.97L24.74 17.476C24.356 17.052 23.724 17.024 23.318 17.488ZM24.682 30.516L31.238 23.972C32.062 23.972 42.196 23.966 44 23.998V24.002C44 35.018 35.016 44.002 23.998 44.002C14.49 44.002 6.494 37.304 4.486 28.386H9.486C14.12 42.702 33.394 42.778 38.544 28.576H32.176L25.848 33.322C24.866 34.28 23.02 34.152 22.212 33.198L16.76 24.032L23.26 30.526C23.642 30.952 24.274 30.98 24.682 30.516Z" fill="#004F1A"/>
</g>
<defs>
<clipPath id="clip0_538_13819">
<rect width="40" height="40.004" fill="white" transform="translate(4 4)"/>
</clipPath>
</defs>
</svg>
