<svg width="48" height="48" viewBox="0 0 48 48" fill="none" xmlns="http://www.w3.org/2000/svg">
<g clip-path="url(#clip0_538_13821)">
<path d="M24.0352 26.0864C24.5325 25.5902 33.0341 17.0875 35.9681 14.1536L30.3411 8.52664C30.0525 8.23687 29.4799 8 29.0711 8H18.9292C18.5204 8 17.9483 8.23687 17.6586 8.52664L12.0662 14.1185L24.0352 26.0864ZM45.7822 23.9672L38.2028 16.3878L24.0352 30.5537L9.8331 16.3515L2.2169 23.9672C1.9277 24.2569 1.9277 24.7307 2.2169 25.0199L17.6517 40.4541C17.9409 40.7439 18.5129 40.9807 18.9229 40.9807H29.078C29.4868 40.9807 30.0594 40.7439 30.348 40.4541L45.7828 25.0199C46.072 24.7313 46.072 24.2569 45.7822 23.9672Z" fill="#006AB0"/>
</g>
<defs>
<clipPath id="clip0_538_13821">
<rect width="44" height="32.9813" fill="white" transform="translate(2 8)"/>
</clipPath>
</defs>
</svg>
