<svg width="48" height="48" viewBox="0 0 48 48" fill="none" xmlns="http://www.w3.org/2000/svg">
<g clip-path="url(#clip0_538_13831)">
<path d="M44 39.9998C44 42.1997 42.1997 43.9997 39.9998 43.9997H7.99992C5.8 43.9997 4 42.1997 4 39.9998V7.99992C4 5.8 5.8 4 7.99992 4H39.9998C42.1997 4 44 5.8 44 7.99992V39.9998Z" fill="#E7290F"/>
<path d="M44 38.9522V33.3639L36.6823 26.0465L38.7225 24.006L43.9997 29.283V23.6956L40.1197 19.8156C39.7492 19.4451 39.2466 19.2371 38.7225 19.2371C38.1989 19.2371 37.696 19.4451 37.3258 19.8159L33.8883 23.2531L25.3957 14.7602C25.0254 14.3899 24.5228 14.1816 23.9987 14.1816C23.4749 14.1816 22.9723 14.3899 22.602 14.7602L13.245 24.1172L10.4318 21.3038C9.66022 20.533 8.4097 20.5327 7.63783 21.3038L4 24.9419V30.5296L9.03482 25.4947L27.5389 43.9988H33.1266L16.039 26.9106L23.9987 18.9512L44 38.9522Z" fill="white"/>
</g>
<defs>
<clipPath id="clip0_538_13831">
<rect width="40" height="39.9997" fill="white" transform="translate(4 4)"/>
</clipPath>
</defs>
</svg>
