<svg width="48" height="48" viewBox="0 0 48 48" fill="none" xmlns="http://www.w3.org/2000/svg">
<g clip-path="url(#clip0_538_13823)">
<path fill-rule="evenodd" clip-rule="evenodd" d="M44 23.999C44 35.043 35.044 44.001 23.998 44.001C12.956 44.001 4 35.043 4 23.999C4 12.956 12.956 4 23.998 4C35.044 4 44 12.956 44 23.999Z" fill="#004EA2"/>
<path fill-rule="evenodd" clip-rule="evenodd" d="M23.9982 28.8039L19.1992 23.9999L23.9982 19.2009L28.8042 23.9999L23.9982 28.8039ZM37.3272 34.6859C37.3272 34.6859 37.0752 34.9759 36.9472 35.1009C35.6492 36.4579 34.0662 37.4279 32.3432 37.9699L32.3642 37.9549C31.0582 38.3819 29.8062 38.4979 28.6642 38.4419L28.6052 38.4559C25.0302 38.2979 21.5062 36.3729 19.0842 33.5169C16.2992 30.2339 14.1852 25.5049 15.5082 22.4179C15.6322 22.1369 16.1512 21.1659 17.0482 21.5329L17.0502 21.5369C17.2662 21.6209 17.4232 21.8269 17.4232 22.0739C17.4232 22.3879 17.1612 22.6499 16.8392 22.6499C16.5172 22.6499 16.2552 22.3889 16.2552 22.0739L16.2672 21.9579C16.0152 22.2689 15.9442 22.7239 16.2352 22.9929C17.2432 24.0469 20.1392 21.9399 19.3112 19.2009C18.4852 16.4519 16.2762 16.3179 16.2762 16.3179L16.2752 16.3189C15.3942 16.1589 14.4862 16.3779 13.8742 17.0999C12.9832 16.5759 11.9002 16.4679 11.0062 17.0849C10.8162 17.2149 10.6322 17.3629 10.4582 17.5449L10.2622 17.5349C8.76122 17.5349 7.53822 18.9489 7.53822 20.6969L7.55222 20.9949L7.54722 21.0339L7.47222 21.0839L7.34622 21.2299C6.82622 21.3309 6.54322 21.4159 6.19322 21.6269C6.06222 21.7009 5.93722 21.7849 5.81422 21.8749L5.67322 21.9799L5.57022 22.0999C5.03422 22.6269 4.69922 23.3739 4.69922 24.2029C4.69922 25.2999 5.28222 26.2509 6.14922 26.7539L6.14122 26.7469C6.54322 26.9379 6.37122 27.4759 6.34122 27.6139C5.98922 29.1219 6.82022 29.4159 7.07322 29.4669L7.13722 29.4789H7.18722L7.21122 29.4869C7.51622 29.4869 7.76322 29.2319 7.76322 28.9219C7.76322 28.6119 7.51522 28.3589 7.21122 28.3589C6.96922 28.3589 6.76622 28.5149 6.69122 28.7339C6.45322 28.3009 7.00422 27.9459 7.49722 28.1389C7.68022 28.2159 7.80322 28.3589 7.88622 28.4969C8.04422 28.7679 8.07722 29.0369 7.93022 29.3369C7.81922 29.5639 7.65322 29.6969 7.65322 29.6969C7.42022 29.9319 7.65222 30.2449 7.76722 30.5459C8.39022 32.1459 9.24422 33.6639 10.3032 35.0319C14.9152 41.0009 22.2132 42.8959 28.9082 40.6379C29.2242 40.5279 29.5302 40.4149 29.8322 40.2919C21.1072 42.9599 15.3132 38.8479 15.3132 38.8479C22.6652 42.0209 28.2362 40.9149 31.5412 39.4999C31.9522 39.2859 32.3562 39.0589 32.7712 38.8179C35.1372 37.4249 37.6342 35.2139 39.3262 31.7129L39.2612 31.6229C38.7532 32.7739 38.0942 33.7999 37.3272 34.6859ZM10.6712 13.3159C10.6712 13.3159 10.9242 13.0239 11.0512 12.9039C12.3522 11.5449 13.9322 10.5709 15.6552 10.0299L15.6392 10.0419C16.9402 9.61994 18.1922 9.50394 19.3302 9.55794L19.3932 9.53894C22.9652 9.70394 26.4932 11.6269 28.9182 14.4839C31.7012 17.7739 33.8152 22.4979 32.4922 25.5779C32.3662 25.8669 31.8512 26.8339 30.9512 26.4649H30.9492C30.7322 26.3789 30.5802 26.1749 30.5802 25.9289C30.5802 25.6119 30.8432 25.3529 31.1632 25.3529C31.4862 25.3529 31.7452 25.6119 31.7452 25.9289L31.7322 26.0459C31.9862 25.7319 32.0562 25.2749 31.7632 25.0079C30.7572 23.9539 27.8632 26.0619 28.6922 28.8029C29.5152 31.5469 31.7282 31.6849 31.7282 31.6849V31.6819C32.6102 31.8389 33.5162 31.6199 34.1272 30.8949C35.0192 31.4279 36.1022 31.5339 36.9982 30.9139C37.1802 30.7859 37.3692 30.6389 37.5452 30.4549L37.7362 30.4649C39.2392 30.4649 40.4572 29.0519 40.4572 27.2989L40.4482 27.0099L40.4542 26.9679L40.5262 26.9179L40.6542 26.7689C41.1782 26.6709 41.4572 26.5839 41.8082 26.3759C41.9382 26.2999 42.0642 26.2159 42.1842 26.1239L42.3282 26.0209L42.4322 25.9049C42.9722 25.3709 43.2992 24.6279 43.2992 23.7999C43.2992 22.7049 42.7132 21.7529 41.8532 21.2509H41.8632C41.4582 21.0619 41.6322 20.5309 41.6652 20.3899C42.0152 18.8789 41.1852 18.5869 40.9292 18.5339L40.8652 18.5249L40.8592 18.5209H40.8112L40.7902 18.5199C40.4882 18.5199 40.2392 18.7739 40.2392 19.0849C40.2392 19.3979 40.4882 19.6469 40.7902 19.6469C41.0352 19.6469 41.2332 19.4879 41.3102 19.2649C41.5492 19.7029 41.0002 20.0559 40.4992 19.8619C40.3212 19.7899 40.1952 19.6429 40.1152 19.5049C39.9602 19.2309 39.9262 18.9659 40.0742 18.6609C40.1802 18.4379 40.3462 18.3029 40.3462 18.3029C40.5772 18.0719 40.3482 17.7579 40.2322 17.4579C39.6102 15.8609 38.7562 14.3389 37.7012 12.9709C33.0892 7.00494 25.7842 5.10494 19.0942 7.36794C18.7792 7.47394 18.4702 7.58894 18.1722 7.71194C26.8952 5.04094 32.6932 9.15394 32.6932 9.15394C25.3342 5.97894 19.7662 7.08794 16.4602 8.49694C16.0502 8.71594 15.6432 8.94094 15.2292 9.18194C12.8652 10.5739 10.3692 12.7869 8.67522 16.2849L8.73922 16.3779C9.25122 15.2259 9.90422 14.2029 10.6712 13.3159Z" fill="white"/>
</g>
<defs>
<clipPath id="clip0_538_13823">
<rect width="40" height="40.001" fill="white" transform="translate(4 4)"/>
</clipPath>
</defs>
</svg>
