<svg width="48" height="48" viewBox="0 0 48 48" fill="none" xmlns="http://www.w3.org/2000/svg">
<g clip-path="url(#clip0_538_13822)">
<path d="M40.1143 4.1516C39.747 4.07752 39.3706 4.03445 38.9937 4.02756L38.9894 4C21.2318 4 21.8868 25.6157 14.1048 32.1367L14.0884 32.1432C13.9321 32.2672 13.7335 32.3413 13.5182 32.3413C13.1448 32.3413 12.814 32.1066 12.6645 31.781L12.6482 31.7431L12.6413 31.7216C12.6034 31.6113 12.581 31.5023 12.581 31.3994V14.1633C12.581 13.2882 13.2903 12.5793 14.1651 12.5793H21.5677C22.1048 12.5655 22.5712 12.2696 22.8232 11.8325C24.0433 9.73071 25.4809 7.81287 27.2829 6.28178C28.2235 5.44194 27.6968 4.0224 26.5675 4.00043H9.10019C6.2835 4 4 6.2835 4 9.10019V38.8989C4 41.7156 6.19564 44 9.01233 44C26.8173 44 26.1119 22.2689 33.9603 15.8124C34.1127 15.7 34.2992 15.6307 34.5034 15.6307C35.006 15.6307 35.413 16.0347 35.4207 16.536V33.797L35.4164 33.8199C35.4164 34.6946 34.7075 35.4039 33.8324 35.4039L33.7845 35.4125L26.4728 35.4186V35.419C25.9176 35.419 25.4331 35.7213 25.1756 36.171L25.1721 36.1749C23.9537 38.2727 22.5187 40.1871 20.7201 41.7165C19.7812 42.5512 20.2963 43.9608 21.4135 43.9991H38.8998C41.7161 43.9991 44 41.7156 44 38.8989V9.10019C44 6.70299 42.3436 4.69771 40.1143 4.1516Z" fill="#005098"/>
</g>
<defs>
<clipPath id="clip0_538_13822">
<rect width="40" height="40" fill="white" transform="translate(4 4)"/>
</clipPath>
</defs>
</svg>
