<svg width="48" height="48" viewBox="0 0 48 48" fill="none" xmlns="http://www.w3.org/2000/svg">
<g clip-path="url(#clip0_538_13820)">
<path d="M43.905 23.053V23.039C43.82 22.178 43.102 21.509 42.219 21.483V21.477C39.786 21.495 37.417 20.248 36.11 17.989C34.845 15.792 34.904 13.197 36.045 11.135H36.034L36.11 11.008C36.587 10.178 36.311 9.127 35.5 8.637C34.496 7.935 33.421 7.311 32.289 6.799L32.248 6.781L32.28 6.793C31.751 6.548 31.221 6.332 30.66 6.141C28.582 5.405 26.339 5 24.001 5C21.665 5 19.418 5.405 17.337 6.139C16.787 6.33 16.252 6.547 15.717 6.791L15.634 6.833L15.707 6.797L15.562 6.872L15.634 6.833C14.494 7.357 13.41 7.987 12.394 8.71L12.531 8.623L12.365 8.73L12.342 8.748C11.667 9.266 11.457 10.199 11.862 10.956H11.858C13.093 13.056 13.192 15.728 11.892 17.989C10.592 20.224 8.255 21.472 5.837 21.477H5.832C4.933 21.477 4.188 22.161 4.1 23.04V23.058C4.035 23.684 4 24.323 4 24.969C4 25.615 4.035 26.253 4.1 26.884V26.899C4.152 27.486 4.231 28.052 4.338 28.625C5.183 33.205 7.6 37.237 11.007 40.149C11.438 40.519 11.899 40.874 12.366 41.212L12.532 41.316L12.395 41.231C13.4 41.947 14.474 42.567 15.604 43.093L15.711 43.139L15.604 43.089L15.564 43.064C16.395 43.549 17.461 43.259 17.948 42.424L17.866 42.554L17.875 42.559C19.062 40.397 21.359 38.938 24.001 38.938C26.618 38.938 28.894 40.369 30.097 42.493L30.057 42.425C30.509 43.217 31.48 43.508 32.288 43.14C33.447 42.616 34.549 41.984 35.569 41.259L35.475 41.317L35.607 41.232L35.569 41.259L35.636 41.213C36.101 40.875 36.561 40.521 36.998 40.15C40.4 37.238 42.815 33.206 43.66 28.626C43.77 28.054 43.844 27.483 43.903 26.899V26.887C43.968 26.258 44 25.615 44 24.969C44 24.323 43.968 23.684 43.905 23.053ZM24 34.057C18.798 34.057 14.582 29.837 14.582 24.637C14.582 19.437 18.798 15.22 24 15.22C29.202 15.22 33.418 19.437 33.418 24.637C33.418 29.837 29.202 34.057 24 34.057Z" fill="#00915B"/>
<path d="M31.6591 30.1128H16.3401C16.6591 30.5638 17.0211 30.9838 17.4141 31.3698H30.5861C30.9801 30.9838 31.3391 30.5638 31.6591 30.1128ZM15.9511 29.5287H32.0491C32.2451 29.2077 32.4201 28.8738 32.5771 28.5298H15.4231C15.5801 28.8738 15.7541 29.2077 15.9511 29.5287ZM18.3111 32.1437C19.8931 33.3438 21.8621 34.0567 24.0001 34.0567C26.1371 34.0567 28.1071 33.3438 29.6881 32.1437H18.3111ZM32.7561 28.1087C33.1831 27.0327 33.4181 25.8628 33.4181 24.6357C33.4181 19.4337 29.2021 15.2188 24.0001 15.2188C18.7981 15.2188 14.5811 19.4337 14.5811 24.6357C14.5811 25.8628 14.8181 27.0327 15.2451 28.1087H32.7561Z" fill="#004EA2"/>
<path d="M35.4771 41.3135L35.5711 41.2555L35.6091 41.2285L35.4771 41.3135Z" fill="#00915B"/>
<path d="M37.5742 23.5242C37.3142 23.4712 37.0122 23.6082 36.6992 23.5402C36.1882 23.4312 35.5242 23.4362 34.9222 23.4392L34.6612 23.4602C34.3792 23.5292 34.0382 23.5552 33.8242 23.6832C33.7992 23.7942 33.6402 24.1132 33.7472 24.2762V24.3182C34.1972 24.4142 34.9432 24.1212 35.2432 24.2972L35.3432 25.3682C35.3742 25.4992 35.3562 25.7432 35.3032 25.8082C35.2432 25.9802 34.8622 26.1222 34.6062 26.0672C34.5202 26.0492 34.2722 26.0192 34.1922 26.0672L34.1302 26.0882C34.1302 26.1852 34.1432 26.2412 34.1922 26.2892C34.2932 26.5852 35.5582 26.7702 35.7832 26.4662C35.9782 26.1982 35.9592 25.6542 35.8812 25.2512L35.9462 24.2762H35.9682V24.2592C36.1982 24.2652 36.3622 24.3392 36.5562 24.3772C37.1752 24.5262 37.3712 23.8942 37.5922 23.6212L37.5742 23.5242ZM33.3642 23.4392C33.2582 23.5172 33.0222 23.4482 32.8692 23.4812C32.6272 23.5382 32.3642 23.5832 32.1762 23.6832C32.1072 23.7132 31.9882 23.7432 31.9072 23.7002C31.5132 23.6832 31.4972 23.9352 31.5132 24.2592L31.5692 24.3772L31.7742 24.5242C31.9882 24.5182 32.4032 24.4042 32.5332 24.3172C32.6462 24.3172 32.7462 24.3172 32.8152 24.3602C32.8092 24.8162 32.3902 25.4152 32.0562 25.5332C31.8652 25.6002 31.7192 25.5642 31.5512 25.6542C31.4962 25.9322 31.6222 26.1232 31.7322 26.2892C31.8772 26.3252 32.0452 26.4052 32.2322 26.3442C32.8032 26.1852 33.0922 25.1092 33.2742 24.5252C33.3522 24.2432 33.3942 23.8322 33.5532 23.6432L33.5212 23.4612L33.3642 23.4392ZM34.7672 22.9682C35.1562 22.8762 35.6302 22.9082 36.0412 22.8252C36.4072 22.7502 36.7202 22.9602 37.0582 22.8592C37.1722 22.8332 37.2642 22.7442 37.3562 22.6862C37.3792 22.6222 37.4152 22.5592 37.3792 22.5112C37.3792 22.1862 37.1282 22.2462 36.8582 22.1862C36.4452 22.0972 35.8472 22.1342 35.3642 22.1462C35.2342 22.2262 34.8552 22.1452 34.6622 22.1862L34.3302 22.2252L34.1112 22.3482C34.0752 22.4652 33.8862 22.7332 33.9912 22.8832C34.0782 23.0512 34.5202 23.0212 34.7672 22.9682ZM33.7082 22.2882C33.6282 22.1242 33.0932 22.1202 32.8152 22.1292L32.2952 22.1682H31.6942C31.5872 22.2132 31.4002 22.6952 31.5312 22.8592C31.6052 23.0692 31.9872 23.1102 32.2722 23.0442C32.7452 22.9282 33.5882 22.7252 33.7072 22.3102L33.7082 22.2882ZM28.4172 24.1572L28.0182 24.1752C27.9342 24.2002 27.7572 24.2852 27.6762 24.2362L27.5942 24.1572C27.5512 24.0902 27.5712 24.0252 27.5782 23.9412L27.7142 23.7572C27.8852 23.7182 28.5462 23.7252 28.6532 23.6592C28.7542 23.6592 28.9282 23.6382 28.9952 23.6822C29.0772 23.7122 29.1542 23.8932 29.0772 23.9982V24.0582L28.4172 24.1572ZM28.8542 25.3302L28.8422 25.3872L28.6792 25.4342C28.5412 25.4352 28.4272 25.4342 28.3582 25.3872C28.3782 25.1562 28.5732 24.9852 28.6792 24.8152H28.7422L28.7572 24.8382C28.7972 24.9322 28.9422 25.2062 28.8542 25.3302ZM27.9582 25.4532C27.8602 25.4812 27.6472 25.5882 27.5592 25.5322L27.4972 25.5132C27.4612 25.3292 27.4712 24.9842 27.5592 24.8562C27.6352 24.6402 27.8782 24.7012 28.0572 24.5922L28.1992 24.6362L28.2412 24.6792C28.2912 24.8132 28.0212 25.3362 27.9582 25.4532ZM27.5402 23.0042C27.5402 22.8942 27.5512 22.8412 27.5782 22.7872C27.6722 22.7872 28.3832 22.6952 28.4422 22.6642C28.5732 22.6622 28.9792 22.6562 29.0532 22.7062L29.1292 22.7882C29.1292 22.9242 29.1162 22.9772 29.0762 23.0642C28.8182 23.1172 27.9572 23.0782 27.7972 23.1872C27.6752 23.1872 27.6062 23.1872 27.5392 23.1482L27.5402 23.0042ZM30.8462 25.9322L30.5472 25.9522C30.2312 25.8672 29.5082 25.3482 29.3292 25.1182C29.2292 24.9702 29.1542 24.7732 29.0402 24.6382C29.0402 24.4032 29.2292 24.4612 29.3732 24.3612L29.4922 24.2382C29.5512 23.6402 29.5552 22.8782 29.8302 22.4872C29.8302 22.3122 29.7672 22.1962 29.6362 22.1482C29.5262 22.0792 28.8042 22.1172 28.6162 22.1112C28.5422 22.1592 28.4032 22.1262 28.2982 22.1482C28.0752 22.2082 27.8092 22.1702 27.5592 22.1882C27.4542 22.1972 27.2852 22.2362 27.2032 22.1702C27.0832 22.1962 26.9792 22.4002 27.0202 22.5712L27.1852 22.9242V23.1482C27.2212 23.3412 27.2792 24.0152 27.2212 24.2602C27.1472 24.5942 27.1712 24.9272 27.0622 25.2192C26.9662 25.4632 26.7322 25.6292 26.5832 25.8302C26.5152 25.9242 26.4642 26.0432 26.3832 26.1062C26.4002 26.4382 26.6572 26.2862 26.8402 26.2332L27.0212 26.2112C27.4552 26.0892 27.9162 26.0002 28.3222 25.8722C28.5922 25.7882 28.8232 25.8052 28.9972 25.6292C29.2682 25.6702 29.3262 26.1072 29.4572 26.2902C29.5102 26.3632 29.6132 26.4132 29.7002 26.4672C29.7692 26.5252 29.8412 26.6002 29.9512 26.6282C30.3892 26.7452 30.7022 26.2162 30.8892 26.0682L30.8462 25.9322ZM25.6632 25.2382L25.6422 25.2172C25.6752 24.8212 25.9332 24.7472 26.2432 24.6362C26.4142 24.5752 26.5832 24.5922 26.6392 24.4382C26.6982 24.3652 26.7022 24.1672 26.6392 24.1002C26.4512 23.8812 26.0382 24.2362 25.8222 24.0802L25.7872 24.0572C25.8002 23.9322 25.8602 23.8892 25.9032 23.7982C26.1532 23.7382 26.6242 23.7182 26.7022 23.4802C26.7532 23.4232 26.7532 23.3212 26.7022 23.2582C26.5722 23.1032 25.8522 23.1842 25.6652 23.2192C25.5402 23.2512 25.4002 23.2152 25.3042 23.2822C25.2202 23.2822 25.1702 23.2822 25.1312 23.2392C25.0892 23.1912 25.2082 23.0922 25.2472 23.0422C25.4382 22.8572 25.9032 22.8862 26.2022 22.8232L26.4982 22.7962C26.7102 22.7842 26.7532 22.5842 26.8582 22.4622C26.8582 22.1552 26.4842 22.1302 26.2022 22.1842L25.9722 22.2232C25.5402 22.2432 25.6242 22.2042 25.4832 21.9412C25.2482 21.9602 25.1702 22.1562 25.0522 22.2872C24.8592 22.5032 24.4642 22.8502 24.1772 22.9432C24.1862 23.1452 24.3722 23.2682 24.5252 23.3242C24.6082 23.3482 24.7462 23.3242 24.7902 23.3802C24.8732 23.4902 24.7262 23.6192 24.7702 23.7562L24.8532 23.8782L25.4082 23.9772L25.4202 24.0162C25.4012 24.2492 25.0602 24.2002 24.8982 24.2962C24.7712 24.3662 24.7592 24.5022 24.6712 24.5922C24.6712 24.6842 24.6742 24.7472 24.7122 24.7892C24.7562 24.9322 25.0532 25.0342 25.2092 24.9172L25.3052 24.9582C25.3002 25.3682 25.1172 25.5582 24.9872 25.8482L24.9122 26.1052C24.9122 26.2342 24.8982 26.3952 24.9272 26.4912L25.1542 26.5052L25.3542 26.3892L25.5032 26.2102C25.7662 26.0152 25.9852 25.8212 26.2042 25.5892C26.3862 25.4102 26.6002 25.2512 26.6042 24.8922C26.2772 24.9582 26.0292 25.2722 25.6632 25.2382ZM18.3152 25.1762C17.9542 25.3862 17.7072 25.5692 17.4312 25.8702C17.4462 25.9982 17.4612 26.1222 17.5162 26.1892L17.5942 26.2612C18.0492 26.2332 18.5122 25.8222 18.6982 25.4932C18.7702 25.3292 18.8122 25.1562 18.9292 25.0332V24.9792L18.7702 24.9572C18.6432 25.0602 18.4582 25.0892 18.3152 25.1762ZM17.6372 24.5922C18.2172 24.5922 18.6662 24.2492 18.8742 23.8562C18.7392 23.7812 18.5122 23.7422 18.3152 23.7422L17.9542 23.7762C17.7452 23.8422 17.5002 23.9522 17.4312 24.1582H17.4162C17.4162 24.4672 17.4922 24.4672 17.6372 24.5922ZM18.1922 23.3072C18.5762 23.1932 18.8742 23.0312 19.1732 22.8412C19.1942 22.7512 19.2302 22.6392 19.1732 22.5702C19.0272 22.3952 18.7022 22.3422 18.3802 22.3482C18.2412 22.4192 18.0672 22.3322 17.9292 22.3692C17.6972 22.4312 17.6372 22.6562 17.6372 22.9682C17.6372 23.0662 17.6362 23.1472 17.6762 23.2032C17.7422 23.2762 18.0222 23.3502 18.1922 23.3072ZM22.1842 23.9412C22.1072 23.9982 21.8592 24.1622 21.7032 24.0572H21.4842C21.5082 23.9902 21.5952 23.9162 21.6462 23.8782C21.6462 23.6442 21.5142 23.6552 21.3902 23.5642H21.3662V23.5402L21.6092 23.5242C21.7882 23.5242 22.0232 23.5032 22.1222 23.5762L22.2412 23.6822L22.1842 23.9412ZM21.7812 25.2382L21.4392 25.1762C21.2492 25.1282 21.0692 25.1642 20.8812 25.1552C20.7262 25.1342 20.4292 25.2062 20.3022 25.1342L20.1262 25.1162L20.1072 25.0692C20.1072 24.8842 20.1612 24.8452 20.2252 24.7392C20.3972 24.7002 20.6372 24.7132 20.8492 24.7132V24.8702L20.9782 25.0332L21.1632 25.1342C21.3642 25.1272 21.3882 24.9572 21.4382 24.8142L21.3882 24.7392C21.3572 24.6832 21.3222 24.6782 21.2442 24.6782C21.3322 24.6092 21.7192 24.5972 21.8392 24.6552L21.9502 24.7562C21.9332 24.9742 21.8722 25.0962 21.7812 25.2382ZM23.5982 24.3762C23.5012 24.1812 22.8232 24.3042 22.5842 24.2172C22.5172 23.8932 22.6602 23.5292 22.8222 23.3402C22.8172 23.0302 22.5522 23.1282 22.3222 23.0632C21.7452 22.9072 21.0392 22.9712 20.6252 23.2212L20.6452 23.3652C20.7082 23.5492 20.9792 23.5502 21.2462 23.5412V23.5652L21.0652 23.6212C21.0452 23.8162 21.2282 23.9352 21.3902 24.0172V24.0422L21.0062 24.0172C20.8962 24.0422 20.6642 24.0962 20.5532 24.0172L20.4832 23.9992C20.4522 23.8312 20.3022 23.2522 20.3722 23.1622C20.5012 22.8192 21.4232 22.6872 21.9042 22.7882C22.0662 22.8192 22.3422 22.7192 22.4662 22.8002C22.6792 22.8142 22.8982 22.8142 23.0422 22.7452C23.0772 22.6622 23.1022 22.5462 23.0422 22.4662C22.8232 22.2112 21.8162 22.4132 21.4402 22.3262C21.3082 22.2972 21.1652 22.3492 21.0652 22.2902C20.9702 22.2462 20.9072 22.0382 20.8642 21.9442C20.7952 21.9312 20.7142 21.8782 20.6452 21.9292C20.4882 21.9952 20.3822 22.2632 20.2942 22.3962L20.1702 22.4662L19.7072 22.8842L19.3742 23.0462L19.4092 23.1872C19.4702 23.3572 19.7372 23.4142 19.9882 23.4032V23.4252H20.0062C20.0142 23.6222 20.0692 23.9922 20.0062 24.0832C19.9012 24.3682 19.2062 24.1312 18.9762 24.2982C18.8512 24.3472 18.7272 24.6642 18.8512 24.8172L18.8752 24.8732C19.1092 24.9192 19.3542 24.7852 19.6282 24.7742C19.6282 24.8872 19.6282 25.0682 19.5632 25.1372C19.5222 25.2662 19.3862 25.2522 19.2712 25.3162C19.1342 25.3892 18.9962 25.6082 18.9532 25.7892C19.3282 26.1322 19.8042 25.8232 20.2142 25.7152C20.4042 25.6602 20.6272 25.6792 20.8262 25.6942C20.9772 25.7082 21.2672 25.6082 21.4022 25.6942C21.5712 25.6942 21.5712 25.7312 21.6472 25.8102C21.6092 26.1862 21.1412 26.0002 20.7882 26.0692C20.5292 26.1322 20.3332 26.1862 20.1482 26.2912C20.1752 26.4232 20.2622 26.3972 20.3722 26.4502C20.5532 26.5392 21.4542 26.7832 21.6852 26.5872C21.7782 26.5572 22.1092 26.0652 22.1862 25.9542C22.2962 25.9602 22.6722 26.0252 22.7362 26.0692C22.9252 26.0762 22.9402 26.0332 23.0432 25.9662L23.0122 25.6552L22.8582 25.4722L22.3242 25.2902C22.3242 25.1842 22.3182 25.0612 22.3582 24.9992C22.3672 24.8632 22.4112 24.8722 22.4762 24.8162C22.9392 24.8862 23.0782 25.1362 23.4772 24.7412C23.5372 24.6722 23.6662 24.4992 23.5982 24.3762ZM13.9632 25.8482L13.8172 25.8282C13.7122 25.8982 13.5002 25.8222 13.3612 25.8482L12.7462 25.9522L12.4792 26.0502C12.4562 26.1782 12.3732 26.3742 12.4512 26.4662C12.5942 26.6782 12.8412 26.6032 13.0412 26.5482L13.2642 26.5282L13.3462 26.4482L13.5802 26.3692C13.7552 26.2632 13.8442 26.0882 13.9812 25.9522L13.9622 25.8952V25.8482H13.9632ZM14.5842 25.8082L14.5442 25.8292V25.9522L14.9542 26.3892L15.0572 26.5052L15.4182 26.6512C15.6542 26.6032 15.8492 26.3152 15.8972 26.0882L15.8582 26.0502C15.6812 25.9222 14.9032 25.8032 14.5842 25.8082ZM11.7892 24.8712C11.6642 24.9752 11.5052 24.9852 11.3622 25.0702L11.2532 25.1972C11.0482 25.3252 10.8362 25.3782 10.6522 25.5142C10.5382 25.5882 10.5032 25.7432 10.4092 25.8482C10.4092 26.1222 10.5522 26.1772 10.6992 26.3122C10.9402 26.2942 11.0292 26.1772 11.1702 26.0672C11.6152 25.7432 11.7892 25.5882 11.9092 24.9322L11.8922 24.8912L11.7892 24.8712ZM11.3612 23.7422L11.1702 23.7582C10.8782 23.8422 10.2642 23.9522 10.4762 24.4042L10.6522 24.6372C11.0712 24.7332 11.5582 24.4132 11.7552 24.1582L11.9092 23.8942L11.8922 23.7762C11.7292 23.7562 11.5582 23.7312 11.3612 23.7422ZM13.6812 25.0162C13.4482 25.0322 13.3992 24.8692 13.4872 24.6982L13.8172 24.5932H14.0742L14.1552 24.6562L14.1862 24.6982C14.1862 25.0232 13.8872 24.8912 13.6812 25.0162ZM15.9772 24.8912C15.6702 24.9842 15.3252 24.9572 15.0352 24.8912C14.8202 24.8382 14.8202 24.9172 14.6642 24.7722L14.7202 24.5232C15.0352 24.4382 15.2772 24.3592 15.5132 24.2162L15.4752 24.0402C15.1632 23.9152 14.8892 23.9772 14.5442 24.0572L14.1372 24.0802C14.0302 24.1012 13.5462 24.1562 13.4862 24.1142H13.4432V23.9972C13.5072 23.7412 14.2132 23.7562 14.5012 23.6812C14.6192 23.6552 14.7542 23.6922 14.8342 23.6402C15.0832 23.6192 15.0952 23.3542 15.1592 23.1602L15.0832 23.1262C14.8982 23.0102 14.4952 23.1262 14.3272 23.1602H13.9232C13.5372 23.2582 13.1282 23.3582 12.8282 23.5392C12.8282 23.8182 12.9242 23.9512 12.9872 24.1562V24.4182C13.0312 24.7152 12.9242 24.9162 12.8122 25.0952C12.4682 25.1162 12.1212 25.2052 12.0292 25.4702C11.9612 25.5692 12.0362 25.7042 12.0722 25.7782C12.1442 25.7962 12.2222 25.8072 12.2732 25.8702L12.8282 25.6272H13.0432L13.7072 25.4942H14.2202C14.3302 25.4712 14.5862 25.4342 14.7212 25.4712L15.0212 25.5702H15.2772C15.4392 25.6162 15.9652 25.8292 16.1532 25.6922C16.3182 25.6282 16.5982 24.9422 16.5982 24.6982C16.3582 24.7162 16.1692 24.8382 15.9772 24.8912ZM11.8922 23.1852C12.0012 23.1372 12.1202 23.0252 12.2052 22.9682C12.1222 22.6082 11.7152 22.4852 11.3902 22.3952L11.1892 22.3692C11.0922 22.3322 11.0652 22.2632 10.8962 22.2722L10.7522 22.3482C10.6122 22.4912 10.5312 22.9072 10.6992 23.1042C10.8782 23.3702 11.5842 23.3072 11.8922 23.1852ZM12.3302 23.6592C12.7602 23.6562 12.6922 23.3092 12.9462 23.1462C13.1342 23.0242 13.3862 22.9222 13.6222 22.8582L14.0752 22.8242C14.5962 22.6942 15.1482 22.6552 15.5802 22.9212C15.6022 23.0612 15.5452 23.1842 15.5132 23.3242L15.5982 23.3802C15.9032 23.5162 16.0332 22.7172 16.1772 22.5682L16.1522 22.4252C15.8392 22.3542 15.4822 22.3082 15.1392 22.2232C15.0082 22.1932 14.8022 22.2702 14.6962 22.2042C14.3982 22.1922 14.4122 21.8632 13.9822 21.8692L13.8652 21.9412L13.7852 22.1452L13.6682 22.2702C13.1952 22.3092 12.8782 22.5262 12.4062 22.4632L12.2722 22.5682C12.2832 22.8282 12.4522 23.1052 12.2722 23.3382C12.2682 23.4472 12.2682 23.5652 12.2912 23.6402L12.3302 23.6592Z" fill="white"/>
</g>
<defs>
<clipPath id="clip0_538_13820">
<rect width="40" height="38.298" fill="white" transform="translate(4 5)"/>
</clipPath>
</defs>
</svg>
