<svg width="48" height="48" viewBox="0 0 48 48" fill="none" xmlns="http://www.w3.org/2000/svg">
<g clip-path="url(#clip0_538_13832)">
<path d="M36.3455 29.7733C36.3486 26.917 35.3372 24.3786 34.0617 22.8167C31.7992 20.0317 28.9735 19.0713 26.5064 19.0713C24.9445 19.0668 23.5291 19.4588 22.516 20.0169C23.4661 20.082 24.702 20.4309 25.8264 21.2446C27.0813 22.1516 28.1715 23.6569 28.4833 25.9432C28.5226 26.2267 28.5429 26.5208 28.5429 26.8205C28.5429 28.2397 28.092 29.8109 27.0251 31.1157C25.9559 32.4161 24.268 33.4344 21.8453 33.7716C21.4289 33.8278 21.0021 33.8577 20.5649 33.8577C17.886 33.8577 14.845 32.7857 12.4612 30.5339C10.0789 28.2907 8.36858 24.8557 8.37168 20.1895C8.37478 13.4668 12.3424 7.34757 17.7568 4.58043C14.7475 5.57217 12.0524 7.2587 9.8567 9.4454C6.23872 13.0648 4 18.0648 4 23.5873C4 29.2924 6.38719 34.187 9.89562 37.6597C13.4034 41.1319 18.0338 43.1746 22.4964 43.1702C25.4409 43.1702 28.3124 42.2914 30.7633 40.3465C34.9163 37.0582 36.3455 33.1908 36.3455 29.7733ZM38.1082 9.51498C34.5994 6.04134 29.9697 4 25.5026 4C22.5608 4.00448 19.6903 4.88632 17.237 6.82501C13.0816 10.1164 11.6573 13.9852 11.6528 17.401C11.6528 20.2573 12.6645 22.7943 13.939 24.3593C16.2005 27.1412 19.0251 28.1002 21.4933 28.1047C23.0534 28.1047 24.4692 27.7141 25.4823 27.1574C24.535 27.0937 23.2969 26.7447 22.1746 25.9301C20.9225 25.0227 19.826 23.5205 19.515 21.2342C19.4788 20.9476 19.4578 20.651 19.454 20.3538C19.4578 18.9314 19.9063 17.3638 20.9766 16.062C22.0448 14.7585 23.7303 13.7385 26.1557 13.403C26.5694 13.3452 26.9966 13.3169 27.4375 13.3169C30.1164 13.32 33.1581 14.3886 35.5388 16.6407C37.9246 18.8853 39.6338 22.3204 39.6304 26.9835C39.6266 33.7082 35.6562 39.8309 30.2453 42.5908C33.258 41.6066 35.9518 39.9187 38.1405 37.7275C41.7609 34.1109 44.0003 29.1109 44.0003 23.587C44 17.8822 41.6166 12.989 38.1082 9.51498Z" fill="#EA5703"/>
</g>
<defs>
<clipPath id="clip0_538_13832">
<rect width="40" height="39.1702" fill="white" transform="translate(4 4)"/>
</clipPath>
</defs>
</svg>
