<svg width="48" height="48" viewBox="0 0 48 48" fill="none" xmlns="http://www.w3.org/2000/svg">
<g clip-path="url(#clip0_538_13824)">
<path d="M17.321 30.6413V24.3663C17.321 23.4654 16.9565 22.6484 16.3664 22.059L12.1388 17.8294C11.8581 17.5493 11.8581 17.092 12.1388 16.8098L16.3601 12.5892C16.9537 11.9999 17.321 11.1766 17.321 10.2736V4C9.96358 4 4 9.96428 4 17.3224C4 24.6763 9.96358 30.6413 17.321 30.6413ZM22.0542 31.6329L17.828 35.864C17.5486 36.1419 17.0899 36.1419 16.8112 35.864L12.5878 31.6385C11.9957 31.0477 11.1772 30.6839 10.2722 30.6839H4C4 38.0357 9.96219 44.0007 17.321 44.0007C24.6742 44.0007 30.6385 38.0357 30.6385 30.6839H24.3649C23.4633 30.6839 22.6477 31.0449 22.0542 31.6329ZM35.4122 16.3615C36.0043 16.9551 36.8235 17.3224 37.7264 17.3224H43.9993C44 9.96358 38.0364 4 30.6797 4C23.323 4 17.3629 9.96358 17.3629 17.3224H23.6351C24.536 17.3224 25.3523 16.9586 25.9417 16.3671L30.1713 12.1395C30.4507 11.8588 30.9088 11.8588 31.1888 12.1395L35.4122 16.3615ZM30.6797 17.3587V23.6351C30.6797 24.5367 31.0435 25.3502 31.6301 25.9451L35.8612 30.1692C36.1419 30.4493 36.1419 30.9101 35.8612 31.1902L31.6385 35.4115C31.0463 36.0057 30.6797 36.8235 30.6797 37.7264V44.0007C38.0364 44.0007 44 38.0357 44 30.6839C44 23.3244 38.0364 17.3587 30.6797 17.3587Z" fill="#64C4D9"/>
<path d="M25.594 27.6719C26.7386 27.6719 27.6743 26.7375 27.6743 25.5937V22.4038C27.6743 21.2621 26.7386 20.3242 25.594 20.3242H22.4069C21.2624 20.3242 20.3267 21.2621 20.3267 22.4038V25.5937C20.3267 26.7375 21.2624 27.6719 22.4069 27.6719H25.594Z" fill="#FDD000"/>
</g>
<defs>
<clipPath id="clip0_538_13824">
<rect width="40" height="40.0007" fill="white" transform="translate(4 4)"/>
</clipPath>
</defs>
</svg>
