<svg width="48" height="48" viewBox="0 0 48 48" fill="none" xmlns="http://www.w3.org/2000/svg">
<g clip-path="url(#clip0_538_13851)">
<path d="M33.615 42.896C33.603 43.894 34.863 44.001 35.627 44.001H36.037L36.263 43.991C38.065 43.898 38.051 43.219 38.051 42.895V5.112C38.064 4.118 36.798 4 36.037 4H35.627C34.863 4 33.604 4.118 33.615 5.112L33.609 5.737V42.27L33.615 42.372V42.896ZM9.956 42.896C9.943 43.894 11.204 44.001 11.966 44.001H12.377L12.602 43.991C14.405 43.898 14.392 43.219 14.392 42.895V5.112C14.404 4.118 13.138 4 12.376 4H11.966C11.204 4 9.943 4.118 9.956 5.112L9.948 5.737V42.27L9.956 42.372V42.896ZM17.841 42.896C17.831 43.894 19.091 44.001 19.854 44.001H20.265L20.491 43.991C22.293 43.898 22.28 43.219 22.28 42.895C22.273 42.726 22.273 42.551 22.28 42.352V5.112C22.292 4.118 21.024 4 20.264 4H19.853C19.09 4 17.831 4.118 17.84 5.112L17.835 5.737V42.27L17.84 42.372V42.896H17.841ZM25.73 42.896C25.718 43.894 26.977 44.001 27.741 44.001H28.151L28.375 43.991C30.179 43.898 30.165 43.219 30.165 42.895V5.112C30.179 4.118 28.911 4 28.151 4H27.741C26.977 4 25.719 4.118 25.73 5.112L25.721 5.737V42.27L25.73 42.372V42.896ZM5.104 21.786C4.106 21.774 4 23.033 4 23.798V24.21L4.01 24.433C4.102 26.236 4.782 26.223 5.104 26.223H42.888C43.883 26.235 44 24.968 44 24.21V23.798C44 23.032 43.883 21.774 42.888 21.785L42.264 21.778H5.731L5.629 21.785H5.104V21.786Z" fill="#E6001C"/>
</g>
<defs>
<clipPath id="clip0_538_13851">
<rect width="40" height="40.001" fill="white" transform="translate(4 4)"/>
</clipPath>
</defs>
</svg>
