<svg width="48" height="48" viewBox="0 0 48 48" fill="none" xmlns="http://www.w3.org/2000/svg">
<g clip-path="url(#clip0_538_13852)">
<path fill-rule="evenodd" clip-rule="evenodd" d="M31.025 31.3582C31.106 31.0392 30.82 30.9962 30.82 30.9962C30.82 30.9962 30.916 30.7832 30.699 30.6282C30.426 30.4202 30.031 30.6922 29.813 31.0392C29.846 30.6592 29.866 30.2182 29.637 30.1102C29.366 29.9822 29.193 30.2442 29.193 30.2442C29.193 30.2442 29.009 30.1102 28.797 30.2502C28.502 30.4362 28.633 31.0282 29.25 31.3852C29.054 31.3962 28.823 31.4122 28.59 31.4972C27.914 31.7532 27.997 32.0732 28.059 32.2062C28.144 32.3882 28.372 32.4092 28.372 32.4092C28.372 32.4092 28.323 32.6482 28.577 32.7552C28.885 32.8782 29.215 32.4142 29.498 31.8922C29.261 32.7882 29.455 33.1232 29.686 33.1882C30.099 33.3112 30.249 32.9162 30.249 32.9162C30.77 33.1192 31.059 32.3732 30.259 31.7482L30.097 31.6152C30.45 31.6732 30.961 31.6302 31.025 31.3582ZM37.907 33.9292C37.907 33.9292 38.04 33.7262 37.871 33.5722C37.725 33.4382 37.35 33.5882 37.099 33.7262C37.272 33.4592 37.325 33.0172 37.101 32.8842C36.922 32.7772 36.808 32.9152 36.808 32.9152C36.808 32.9152 36.688 32.7242 36.491 32.8722C36.321 33.0012 36.46 33.4592 36.612 33.6942L36.471 33.6192C35.796 33.2352 35.427 33.6252 35.725 33.9442C35.725 33.9442 35.493 34.1692 35.702 34.4292C35.823 34.5742 36.048 34.6482 36.602 34.2052C36.321 34.5732 36.149 34.9782 36.327 35.1592C36.48 35.3142 36.631 35.2072 36.631 35.2072C36.631 35.2072 36.715 35.3622 36.862 35.3672C36.971 35.3732 37.18 35.2982 37.151 34.7442C37.137 34.5522 37.081 34.3752 37.031 34.2312C37.464 34.5672 37.986 34.4872 38.028 34.2152C38.055 34.0242 37.907 33.9292 37.907 33.9292ZM35.696 30.2072C35.706 29.8972 35.387 29.8332 35.387 29.8332C35.387 29.8332 35.462 29.4972 35.104 29.4072C34.646 29.2842 34.235 29.9292 34.11 30.3352L34.06 30.0892C33.769 28.9382 32.902 28.8042 32.906 29.4922C32.906 29.4922 32.329 29.3962 32.259 29.9082C32.224 30.1792 32.452 30.5692 33.513 30.8142C32.586 30.8142 32.211 30.9362 32.18 31.3102C32.161 31.5662 32.413 31.7262 32.413 31.7262C32.413 31.7262 32.349 32.0022 32.5 32.2012C32.597 32.3292 32.978 32.4832 33.41 32.0092C33.635 31.7592 33.779 31.5512 33.896 31.3482C33.938 32.1912 34.483 32.6552 34.832 32.4422C35.104 32.2712 34.981 31.9882 34.981 31.9882C34.981 31.9882 35.42 32.0582 35.423 31.6362C35.431 31.2412 34.866 31.0442 34.467 30.9162C35.245 30.7772 35.686 30.5962 35.696 30.2072ZM31.984 34.9102C32.804 33.8752 32.934 33.3952 32.56 33.0322C32.308 32.7822 31.899 32.9792 31.899 32.9792C31.899 32.9792 31.724 32.6912 31.378 32.6912C31.142 32.6862 30.635 32.8562 30.77 33.7632C30.841 34.2322 30.97 34.4922 31.083 34.8022C30.135 34.1042 28.95 34.3552 28.876 34.9412C28.817 35.3892 29.235 35.5122 29.235 35.5122C29.235 35.5122 28.774 35.9392 29.231 36.3172C29.649 36.6692 30.557 36.1572 31.045 35.8272C30.507 36.8132 30.298 37.6072 30.707 37.9602C31.036 38.2532 31.388 37.9492 31.388 37.9492C31.388 37.9492 31.688 38.3382 32.104 38.0132C32.632 37.6072 32.297 36.2902 31.967 35.7942L32.274 35.9482C33.807 36.7372 34.357 36.1832 33.929 35.4632C33.929 35.4632 34.316 35.0102 33.906 34.6002C33.635 34.3342 32.806 34.3082 31.984 34.9102ZM39.132 29.2362C39.241 29.0702 39.124 28.9052 39.124 28.9052C39.124 28.9052 39.3 28.6862 39.152 28.4952C38.994 28.2932 38.453 28.3892 38.165 28.5582C38.197 28.5102 38.311 28.2712 38.396 28.0522C38.616 27.4872 38.389 27.1452 37.951 27.3692C37.837 27.3002 37.695 27.2462 37.52 27.3212C37.315 27.4062 37.217 27.7482 37.661 28.5152C37.214 28.0402 36.864 27.9022 36.621 28.0822C36.428 28.2272 36.535 28.4662 36.535 28.4662C36.535 28.4662 36.343 28.5472 36.347 28.7382C36.349 28.8712 36.449 29.1382 37.05 29.1062C37.299 29.0892 37.475 29.0362 37.652 28.9892C37.231 29.5062 37.325 30.0662 37.603 30.1402C37.808 30.1942 37.932 30.0922 37.932 30.0922C37.932 30.0922 38.224 30.2202 38.363 30.0712C38.524 29.8952 38.406 29.4472 38.194 29.1062C38.463 29.2902 38.956 29.5082 39.132 29.2362ZM38.85 23.4882C38.792 23.3712 38.693 23.3552 38.693 23.3552C38.693 23.3552 38.639 23.1682 38.507 23.1632C38.36 23.1582 38.194 23.3822 38.12 23.6052C38.096 23.4192 37.963 23.0512 37.765 23.0722C37.639 23.0832 37.609 23.2002 37.609 23.2002C37.609 23.2002 37.432 23.2052 37.403 23.3442C37.367 23.4982 37.667 23.7652 37.871 23.8342C37.83 23.8342 37.672 23.8722 37.534 23.9192C37.175 24.0312 37.105 24.2662 37.388 24.3832C37.403 24.4632 37.432 24.5492 37.538 24.5962C37.666 24.6602 37.866 24.5692 38.053 24.0792C38.008 24.4632 38.039 24.6232 38.224 24.6652C38.373 24.7022 38.443 24.5582 38.443 24.5582C38.443 24.5582 38.56 24.6222 38.647 24.5422C38.713 24.4882 38.798 24.3442 38.538 24.0842C38.432 23.9722 38.38 23.9662 38.28 23.9022C38.702 23.8982 38.923 23.6432 38.85 23.4882ZM31.328 27.2642C31.45 27.0982 31.452 27.0242 31.511 26.8852C31.594 27.4452 31.968 27.6962 32.155 27.5682C32.294 27.4712 32.294 27.3392 32.294 27.3392C32.294 27.3392 32.526 27.2282 32.514 27.0622C32.492 26.8542 32.171 26.6782 31.867 26.6202C32.109 26.5512 32.558 26.3102 32.494 26.0502C32.452 25.8842 32.3 25.8632 32.3 25.8632C32.3 25.8632 32.265 25.6332 32.079 25.6172C31.875 25.6012 31.581 26.0502 31.536 26.3262L31.359 25.9002C31.149 25.4362 30.838 25.3872 30.735 25.7882C30.637 25.8142 30.53 25.8792 30.484 26.0332C30.427 26.2042 30.572 26.4542 31.245 26.6142C30.74 26.6252 30.542 26.6992 30.521 26.9512C30.504 27.1532 30.695 27.2222 30.695 27.2222C30.695 27.2222 30.639 27.3872 30.755 27.4932C30.832 27.5622 31.036 27.6522 31.328 27.2642ZM40.25 34.2802L40.683 33.9132C41.168 33.4592 40.785 33.1022 40.472 33.2352C40.472 33.2352 40.42 32.9212 40.109 32.9902C39.845 33.0532 39.706 33.4002 39.848 34.0622C39.581 33.5862 39.281 33.2132 39.053 33.3472C38.823 33.4912 38.915 33.6882 38.915 33.6882C38.915 33.6882 38.669 33.6722 38.595 33.8482C38.54 33.9652 38.475 34.2432 39.046 34.4242C39.257 34.4872 39.449 34.5142 39.628 34.5202C39.127 34.8882 38.965 35.3842 39.234 35.5602C39.438 35.6932 39.58 35.5492 39.58 35.5492C39.58 35.5492 39.779 35.8202 39.996 35.6722C40.185 35.5492 40.12 35.0592 40.09 34.7172C40.277 34.9622 40.669 35.4372 40.953 35.1962C41.168 35.0092 41.065 34.8292 41.065 34.8292C41.065 34.8292 41.313 34.7442 41.242 34.5192C41.177 34.3342 40.567 34.2222 40.25 34.2802ZM42.447 30.5052C42.276 30.4842 42.129 30.4952 41.998 30.5162C42.319 30.1692 42.413 29.7912 42.189 29.6962C42.019 29.6212 41.934 29.7542 41.934 29.7542C41.934 29.7542 41.745 29.5842 41.604 29.7172C41.481 29.8462 41.557 30.1872 41.626 30.4322C41.45 30.2722 41.031 29.9532 40.856 30.1762C40.723 30.3412 40.863 30.4532 40.863 30.4532C40.863 30.4532 40.666 30.5382 40.751 30.7202C40.853 30.9542 41.335 30.8742 41.566 30.7842L41.295 31.1192C40.992 31.5192 41.331 31.7382 41.547 31.5892C41.547 31.5892 41.628 31.8232 41.848 31.7282C42.034 31.6422 42.092 31.3602 41.898 30.8912C42.162 31.2052 42.383 31.3862 42.581 31.3122C42.76 31.2372 42.642 31.0352 42.642 31.0352C42.642 31.0352 42.831 31.0142 42.858 30.8702C42.879 30.7712 42.892 30.5632 42.447 30.5052ZM37.336 36.9252C37.336 36.9252 37.41 36.4192 36.905 36.3392C36.509 36.2762 36.135 36.5782 35.969 37.7572C35.894 36.9892 35.685 36.2762 35.26 36.2762C34.923 36.2762 34.87 36.6322 34.87 36.6322C34.87 36.6322 34.585 36.5632 34.407 36.7012C34.264 36.8082 33.965 37.1652 34.663 37.7412C34.919 37.9542 35.209 38.1032 35.433 38.2162C34.536 38.3182 34.058 38.9852 34.336 39.3412C34.502 39.5542 34.774 39.5542 34.774 39.5542C34.774 39.5542 34.816 40.0342 35.267 40.0022C35.694 39.9702 35.773 39.3622 35.925 38.9092C36.024 39.3362 36.385 40.1302 36.885 39.9752C37.216 39.8692 37.198 39.5532 37.198 39.5532C37.198 39.5532 37.536 39.6602 37.617 39.3352C37.741 38.8502 36.925 38.4292 36.48 38.3262L36.855 38.2302C38.047 37.8962 38.026 36.9622 37.336 36.9252ZM27.748 39.5272C27.748 39.5272 27.5 39.3142 27.132 39.5222C27.144 39.1972 27.127 38.9032 27.079 38.6852L27.426 39.0842C27.552 39.2232 27.678 39.3462 27.8 39.4522L27.748 39.5272ZM22.48 35.0322C22.48 35.0322 22.294 34.9632 21.993 35.2612C21.968 35.1762 22.123 34.9622 22.163 34.7822C22.19 34.6592 22.235 34.6272 22.254 34.6592C22.414 34.8732 22.584 34.8882 22.674 34.9632C22.649 35.0062 22.48 35.0322 22.48 35.0322ZM17.084 39.5862C16.7 39.5122 16.439 39.3572 16.089 39.1592C15.919 39.0632 15.215 38.6262 15.004 38.5732L14.817 38.5302C14.721 38.5092 14.371 38.3592 14.29 38.3062C13.654 37.8842 13.605 37.8042 13.057 37.2132C13.011 37.1862 12.885 37.2132 12.771 37.0952L12.601 36.8182C12.523 36.7332 12.386 36.6902 12.314 36.5842C12.268 36.5042 12.107 36.3282 12.083 36.2372L11.968 36.0032C12.121 36.1362 12.232 36.2272 12.357 36.3872L12.686 36.6542L12.898 36.8832C13.046 37.0482 13.303 37.1872 13.458 37.3362L13.566 37.4642L13.784 37.5982C14.022 37.8112 14.216 37.9222 14.466 38.0992L14.962 38.4132L15.142 38.5252C15.299 38.6042 15.456 38.6792 15.596 38.7862L15.734 38.8552L15.878 38.9192L16.102 39.0412L16.23 39.1102L16.448 39.2122C16.615 39.2862 16.665 39.3462 16.844 39.3992L17.255 39.5912C17.359 39.6282 17.473 39.6542 17.567 39.7192L17.574 39.7302C17.448 39.8112 17.206 39.6072 17.084 39.5862ZM11.597 14.4602C11.509 14.5452 11.394 14.7692 11.303 14.8922C10.779 15.6172 10.871 15.4522 10.398 16.2042C10.275 16.4072 9.88797 17.1432 9.78197 17.3512C9.32897 18.2362 8.98597 19.2282 8.75697 20.0602C8.67397 20.3532 8.57897 20.7322 8.52697 21.0362L8.43897 21.4472C8.10197 23.3132 8.14897 25.6012 8.56097 27.6542C8.60097 27.8512 8.35997 27.1422 8.33497 26.9612L8.28397 26.6792C8.26497 26.5142 8.19197 26.3592 8.19197 26.1452L8.12497 25.3562L8.08797 24.8982L8.05597 24.6952C8.03097 24.6102 8.05997 24.5092 8.06397 24.4392C8.06397 24.3642 8.10997 24.0822 8.05597 24.0232L8.02497 23.9002C7.97997 23.8252 7.97697 23.7512 7.98397 23.6872C8.01997 23.6022 8.01497 23.4252 8.01497 23.3832L8.00697 22.8922C8.00697 22.6892 8.19897 21.4152 8.22897 21.2282L8.24497 20.8282C8.29297 20.5182 8.42397 20.1832 8.48897 19.8842C8.71897 18.9292 8.93497 17.9912 9.43997 17.1492L9.70697 16.4722C10.173 15.7152 10.55 15.0802 11.064 14.3492L11.335 13.9382L11.522 13.6392L12.463 12.6262C12.951 12.1842 13.348 11.7942 13.709 11.3782C14.014 11.0212 14.479 10.8182 14.558 10.7702C14.866 10.5622 15.123 10.4392 15.455 10.2852C15.894 10.0772 16.136 9.87418 16.38 9.83717C16.55 9.81117 17.029 9.40018 17.331 9.53317C17.634 9.67217 17.656 9.36818 17.752 9.35218C18.08 9.29318 18.574 9.51717 18.188 9.66617C17.799 9.81518 17.397 9.97018 16.965 10.1882L15.994 10.7272C15.911 10.7652 15.569 10.9512 15.43 11.0372L15.099 11.2932C14.987 11.3622 13.838 12.1572 12.784 13.1542C12.433 13.5282 12.055 13.9652 11.949 14.0762L11.597 14.4602ZM7.33297 16.4012L7.92597 15.2652L8.03897 15.0302C8.10597 14.9022 8.19897 14.7962 8.29197 14.6732L8.56097 14.2092C8.63397 14.1082 8.85297 13.7452 8.91197 13.6872C8.95397 13.6072 9.19897 13.2872 9.27697 13.2132C9.37897 13.0642 9.99197 12.2852 10.172 12.0822C11.07 11.0472 12.079 10.2052 12.782 9.67718C13.161 9.38917 12.814 9.42718 12.689 9.46418C12.04 9.64517 11.525 10.2102 11.329 10.5572C11.137 10.9092 11.131 10.6952 10.793 11.1122C10.687 11.2502 10.146 11.4052 10.043 11.6402C9.96397 11.8212 9.92197 11.9122 9.78197 12.0402C9.71297 12.0982 9.55397 12.1782 9.54497 12.3432L9.08697 12.5782C9.02997 12.7012 8.95297 12.6472 8.91597 12.8392C8.88097 13.0262 8.69797 13.0212 8.70297 13.1172C8.71097 13.2182 8.65197 13.2712 8.59097 13.3892C8.52597 13.5122 8.35897 13.6292 8.26697 13.8952C8.23197 14.0012 7.84197 14.0442 7.83397 14.2312C7.82497 14.3642 8.01397 14.4712 7.92997 14.6102C7.87897 14.7002 7.71097 14.6152 7.68197 14.7642L7.71097 15.0682C7.68197 15.2442 7.27697 15.4042 7.33897 15.6872C7.40197 15.9642 7.00397 16.4982 7.00897 16.6312V16.8602C6.97597 16.9292 6.91797 16.9622 6.90397 17.0952C6.89497 17.2072 6.83497 17.4202 6.85797 17.4842C7.00397 17.1532 7.15797 16.7212 7.33297 16.4012ZM33.292 40.4982C33.075 40.4292 32.429 40.4662 32.335 40.4442C33.273 40.1772 33.849 39.3682 33.808 39.0422C33.756 38.6642 33.329 38.7112 33.329 38.7112C33.329 38.7112 33.35 38.3812 32.912 38.2702C32.318 38.1212 31.89 39.4112 31.792 39.9172C31.595 39.3952 31.407 38.4452 31.033 38.4022C30.611 38.3432 30.509 38.8922 30.509 38.8922C30.509 38.8922 30.2 38.7812 29.989 39.1272C29.719 39.5852 30.254 40.3642 31.25 40.5452C30.994 40.6842 30.786 40.6842 30.515 40.9502L30.293 41.1792C30.214 40.9992 30.014 40.9192 30.014 40.9192C30.306 40.4662 29.867 39.7632 29.046 40.3912C28.87 40.5252 28.429 40.9042 28.358 40.9672C28.462 40.7002 28.508 40.2902 28.486 39.9392C29.214 40.2692 29.605 39.8332 29.41 39.2462C29.41 39.2462 30.007 38.9322 29.747 38.3182C29.573 37.9182 28.768 37.6772 27.646 37.9612C28.949 37.2252 29.296 36.7672 29.049 36.2172C28.886 35.8502 28.422 35.8132 28.422 35.8132C28.422 35.8132 28.35 35.3752 27.982 35.2202C27.735 35.1142 27.078 35.1992 26.845 36.2172C26.719 36.7452 26.761 37.2512 26.752 37.6302C26.041 36.4732 24.878 36.0152 24.337 36.6282C24.272 36.5372 24.249 36.4732 24.148 36.3832C24.924 36.1542 25.143 35.8702 25.182 35.5462C25.221 35.2312 25.085 35.0072 25.055 34.9642C25.325 34.8902 25.468 34.7832 25.657 34.6602C25.433 35.1082 25.234 35.8592 25.426 36.1372C25.646 36.4512 26.061 36.1912 26.061 36.1912C26.061 36.1912 26.171 36.4622 26.527 36.3882C26.984 36.2972 27.01 35.3652 26.522 34.5912C26.768 34.6822 27.304 34.7362 27.631 34.7622C28.498 34.8252 28.539 34.3462 28.527 34.1592C28.519 33.8762 28.177 33.7692 28.177 33.7692C28.177 33.7692 28.437 33.5132 28.163 33.2312C27.816 32.8632 27.075 33.3532 26.464 33.8492C27.004 33.0332 27.067 32.4732 26.735 32.2442C26.355 31.9832 26.116 32.3842 26.116 32.3842C25.761 32.0362 24.985 32.3242 25.406 33.1942C25.445 33.2792 25.632 33.6902 25.709 33.8242C25.57 33.7752 24.464 32.9812 24.026 33.4282C23.779 33.6802 23.9 34.0422 24.026 34.1752C24.015 34.1962 23.918 34.3092 23.918 34.4202C23.783 34.5052 23.66 34.5912 23.561 34.6822C23.587 34.6072 23.654 34.2772 23.707 33.9782C23.835 33.2102 23.404 32.9442 22.881 33.3122C22.357 32.9122 22.021 33.3382 21.974 33.5032L21.948 33.5142C21.888 33.5312 21.812 33.3122 21.53 33.2952C21.264 33.2692 21.093 33.4012 20.783 33.2952L20.648 33.2412C20.232 33.0542 19.795 32.9222 19.388 32.7032L19.049 32.5212L18.792 32.3402L18.472 32.1742L18.426 32.1112L18.326 32.0682C18.18 31.9832 18.081 31.8602 17.939 31.7542L17.548 31.4832C17.195 31.1692 16.812 30.7952 16.475 30.4112C16.35 30.2722 16.091 29.8142 15.943 29.7712L15.958 29.7022C15.761 29.4562 15.59 29.1692 15.473 28.9182L15.346 28.7472L15.155 28.3102L15.075 28.1872H15.073L15.07 28.1822L15.046 28.1392L14.986 27.9742L14.959 27.9362L14.77 27.4242L14.616 26.9972C14.554 26.7732 14.505 26.5392 14.461 26.3052L14.425 26.2512L14.389 25.9522L14.34 25.8132L14.343 25.6742L14.291 25.3862L14.288 25.3442L14.267 25.0982L14.241 25.0502L14.238 24.8372L14.213 24.6502L14.205 24.6242L14.207 24.5972L14.201 24.5542L14.213 24.0212L14.207 23.9152L14.218 23.8732L14.224 23.6382L14.22 23.6172L14.226 23.5162L14.233 23.2712L14.248 23.2332L14.268 23.1582L14.276 23.0732L14.262 23.0042L14.292 22.8972L14.318 22.5712L14.394 22.3472C14.389 22.1822 14.423 22.0222 14.478 21.8622L14.635 21.2702L14.902 20.6152L14.907 20.5182L15.05 20.2842L15.09 20.1192L15.163 20.0282L15.233 19.8312L15.307 19.7352L15.361 19.5912L15.469 19.4632L15.603 19.1862L15.859 18.8242L16.082 18.5742L16.151 18.4192C16.275 18.2532 16.42 18.1202 16.564 17.9662C16.834 17.6672 17.132 17.3582 17.44 17.0752C17.576 16.9472 18.033 16.6862 18.069 16.5362L18.135 16.5522C18.375 16.3492 18.659 16.1782 18.907 16.0562L19.072 15.9282C19.201 15.8752 19.378 15.8052 19.505 15.7362L19.665 15.6242C20.035 15.4972 20.415 15.3042 20.788 15.1922C21.11 15.0962 21.473 15.0272 21.783 14.9682L21.945 14.9042L22.088 14.9152C22.338 14.8672 22.558 14.8302 22.787 14.8242L23.182 14.7712C23.598 14.7762 24.024 14.7872 24.436 14.7982L24.521 14.8352L25.124 14.8882L25.34 14.9682C25.514 14.9632 25.664 14.9952 25.816 15.0432L26.403 15.2092L27.048 15.4802L27.141 15.4862L27.371 15.6302L27.53 15.6732L27.621 15.7422L27.815 15.8112L27.909 15.8922L28.048 15.9452L28.171 16.0512L28.451 16.1902C28.561 16.2922 28.686 16.3712 28.803 16.4512L29.048 16.6752L29.197 16.7442C29.367 16.8722 29.507 17.0272 29.667 17.1872L30.188 17.6722L30.208 17.6882C30.559 18.0022 30.664 17.8052 31.065 18.0772C31.289 18.2212 31.527 18.4772 31.616 18.2692C31.804 17.8312 31.517 17.7092 31.51 17.4962L31.506 17.1972C31.508 16.8932 31.268 16.6642 31.394 16.4932C31.528 16.3172 32 16.8242 32.156 16.8552C32.299 16.8812 32.297 16.8452 32.404 16.9192C32.612 17.0742 32.661 17.1962 32.717 17.0952C32.767 16.9992 32.455 16.5562 32.65 16.3592C32.789 16.2152 33.116 16.5412 33.613 16.4502C33.889 16.4022 34.19 16.7602 34.461 16.5942C34.704 16.4502 34.544 16.1572 34.844 15.9542C35.135 15.7622 35.109 15.5332 35.301 15.3832C35.665 15.0952 36.197 15.3832 36.486 15.3142C36.89 15.2232 36.605 15.0472 36.939 14.8932C37.338 14.7062 38.654 15.3622 38.945 14.4932C39.107 14.0132 38.424 12.5202 38.049 11.9442C37.753 11.4962 37.696 11.3842 37.753 11.2942L38 11.2992C38.099 11.1972 37.677 10.6162 37.655 10.4242C37.635 10.3012 37.636 10.1952 37.795 10.1362C37.907 10.0942 37.971 9.76818 37.845 9.49118C37.685 9.13418 36.989 8.43017 36.236 7.89718L35.938 7.57718L35.75 7.47618C34.513 6.41517 32.972 5.76517 31.221 5.10317C30.745 4.92217 30.227 4.74117 29.731 4.60217C29.462 4.52717 29.288 4.46317 28.992 4.42617L28.669 4.31417C28.307 4.26117 27.954 4.26117 27.591 4.18117C27.264 4.10617 26.718 4.03217 26.335 4.01517C25.923 3.99417 25.47 3.99417 25.158 4.02017C24.93 4.03617 23.913 4.12217 23.43 4.09517C23.078 4.06317 22.055 4.20117 21.538 4.27117C20.686 4.39317 18.889 4.90017 18.713 4.99617C18.634 5.04417 17.368 5.41218 17.15 5.51818L16.932 5.53917L16.283 5.88017L16.057 5.91217C15.66 6.09917 14.426 6.68517 14.209 6.80317C13.703 7.07017 13.204 7.42718 12.759 7.70518C12.364 7.95018 12.147 8.07318 11.792 8.34518C11.716 8.43018 11.104 8.94218 10.922 9.10218C10.705 9.29918 10.508 9.50717 10.249 9.67718C10.076 9.80018 9.95497 10.0292 9.82397 10.1782L9.54097 10.3652L9.35597 10.6262L9.14797 10.7702L8.90597 11.1282L8.71197 11.2722C8.65597 11.3682 8.61997 11.4962 8.54197 11.5812C8.42697 11.6982 8.21797 11.8472 8.12297 11.9652L8.06297 12.1572C7.76097 12.5622 7.47697 12.9352 7.17197 13.3302C6.91697 13.6662 6.76797 14.0922 6.52797 14.4392C6.33597 14.7212 6.18197 15.0102 6.10197 15.3612L5.83297 15.7662L5.35797 16.9712L5.24497 17.1202C4.97597 17.9632 4.73197 18.8272 4.48797 19.6742L4.37997 20.5162C4.25797 20.9802 4.20997 21.4542 4.17097 21.9932L4.07797 22.2862L4.11397 22.6492C4.05297 23.3212 3.98997 24.0992 4.00197 24.8142C4.01097 25.6352 4.17997 26.5212 4.23997 27.3472C4.25097 27.4962 4.31897 27.6612 4.33997 27.7742C4.39497 28.0732 4.44397 28.4722 4.47897 28.7652C4.49797 28.9302 4.62197 29.0362 4.64497 29.1702C4.74197 29.7462 4.93197 30.4292 5.19597 31.0262L5.12697 31.1542C5.40297 31.3192 5.70397 32.3592 5.87697 32.7112C6.35297 33.6592 6.91997 34.6312 7.45497 35.4512C7.62597 35.7132 7.83397 36.0122 8.02597 36.2572C8.25897 36.5502 8.37997 36.8432 8.62297 37.1052L8.80897 37.2382L8.87097 37.4042C9.02597 37.5802 9.24797 37.7562 9.41897 37.9162L9.89997 38.3952C10.07 38.5722 10.292 38.7632 10.484 38.9452C11.192 39.5952 11.994 40.1242 12.723 40.7312L12.959 40.8222C13.742 41.3772 14.533 41.8452 15.412 42.2092L15.887 42.5022L16.092 42.5082L16.383 42.6842L17.081 42.9182L17.414 42.9712L17.665 43.1112L18.582 43.3022L19.069 43.5582L19.296 43.5532L19.938 43.7242L20.117 43.6702C20.257 43.6912 20.477 43.7982 20.629 43.8032C21.219 43.8412 21.863 43.9052 22.421 44.0062L22.674 43.9202C22.754 43.9372 23.126 43.9472 23.25 43.9472C23.324 43.9782 23.732 43.9522 23.876 43.9582C24.139 43.9632 24.469 43.9842 24.761 43.9692C25.2 43.9482 25.926 43.8572 26.055 43.8462C26.187 43.8352 26.255 43.7722 26.354 43.7352C26.474 43.6602 26.911 43.9162 27.171 43.8202L27.776 43.4412C28.047 43.3392 28.14 43.3822 28.285 43.4732C28.513 43.6172 28.703 43.6322 28.826 43.6012C29.11 43.5322 29.234 43.1532 29.234 43.1532C29.234 43.1532 29.633 43.1802 29.731 42.8342C29.891 42.2472 29.401 42.0552 28.512 41.7142C29.104 41.8902 29.585 41.9382 29.904 41.8472C29.811 42.1402 29.849 42.3702 29.986 42.4772C30.311 42.7162 30.627 42.5562 30.627 42.5562C30.627 42.5562 30.727 42.8342 31.17 42.8662C31.597 42.8982 31.847 41.9602 31.902 41.0642C32.159 42.1352 32.86 42.5512 33.293 42.4452C33.8 42.3282 33.655 41.8262 33.655 41.8262C34.206 41.7832 34.327 40.8022 33.292 40.4982ZM43.747 24.8372L43.528 24.8482C43.762 24.6672 43.789 24.4272 43.681 24.3732C43.598 24.3252 43.538 24.3622 43.538 24.3622C43.538 24.3622 43.434 24.2772 43.355 24.3252C43.265 24.3892 43.263 24.5862 43.315 24.7462C43.221 24.6452 43 24.4902 42.895 24.5862C42.832 24.6502 42.859 24.7302 42.859 24.7302C42.859 24.7302 42.76 24.7992 42.801 24.8952C42.842 24.9972 43.119 25.0232 43.261 24.9752L43.108 25.1672C42.949 25.3802 43.008 25.5452 43.216 25.4932C43.251 25.5302 43.306 25.5672 43.388 25.5522C43.485 25.5352 43.563 25.4032 43.469 25.0402C43.597 25.2802 43.685 25.3542 43.806 25.3012C43.903 25.2582 43.887 25.1522 43.887 25.1522C43.887 25.1522 43.975 25.1362 43.995 25.0562C44.009 24.9972 44.002 24.8802 43.747 24.8372Z" fill="#F8B500"/>
</g>
<defs>
<clipPath id="clip0_538_13852">
<rect width="40" height="40.008" fill="white" transform="translate(4 4)"/>
</clipPath>
</defs>
</svg>
