<svg width="48" height="48" viewBox="0 0 48 48" fill="none" xmlns="http://www.w3.org/2000/svg">
<g clip-path="url(#clip0_538_13849)">
<path d="M36.6097 6.31063C30.4824 0.793104 21.5806 3.83829 21.5806 3.83829C14.7786 6.14195 13.1866 11.9318 13.1866 11.9318C9.42973 11.8282 9.03964 13.5203 9.03964 13.5203C8.68469 15.2459 12.8984 16.2123 12.8984 16.2123C12.6454 17.8869 9.97094 22.2201 9.97094 22.2201C6.31426 27.3985 6.05771 32.1394 6.05771 32.1394C5.49542 37.251 9.19252 40.7706 9.19252 40.7706C7.45115 41.3505 6.6534 41.8196 6.30548 42.164H6.30372L6.29845 42.1711L6.16139 42.331L6.09462 42.4505L6.09286 42.4575C5.92417 42.8669 6.42321 43.1111 6.42321 43.1111V43.1059C8.86392 44.8754 25.7135 45.0001 25.7135 45.0001C33.5399 44.8332 36.55 43.7683 37.7132 42.9829C38.3634 42.5541 38.4319 42.0779 38.4143 41.8284C38.3757 41.5631 38.265 41.2819 38.1525 41.0588L37.8239 40.4684L37.7396 40.2926L37.6957 40.1925L37.5902 39.9605C37.36 39.3455 37.2985 38.6532 37.2827 38.3791C37.158 35.369 38.5725 30.9533 38.5725 30.9533C40.6389 24.9982 40.7742 19.7161 40.7742 19.7161C41.4859 9.89703 36.6097 6.31063 36.6097 6.31063ZM29.0363 15.8749C28.3141 17.5425 26.6202 20.5139 22.8352 23.8121C22.8352 23.8121 16.3354 29.3648 18.7041 39.0433C18.7041 39.0433 19.1539 40.5826 19.9095 41.4453L19.8972 41.4436C19.8972 41.4436 20.1555 41.7511 20.0782 41.8846C20.036 42.0445 19.8603 42.1992 19.298 42.0955L19.2752 42.0902C18.2139 41.9251 16.9645 41.4243 16.9645 41.4243H16.9663C14.1671 40.4279 8.82702 37.5497 10.2415 30.3418C10.2415 30.3418 10.8161 27.3792 13.3043 23.6223C15.3707 20.2608 15.4164 20.2854 15.912 19.2944L15.9137 19.2909C16.0244 19.0765 16.3846 18.3385 16.4215 17.8922C16.4215 17.8922 16.4988 17.6989 16.3073 17.365C16.0156 16.9468 14.8612 14.9313 17.1139 11.6577C17.1139 11.6577 19.4491 8.17148 24.6293 8.44209C24.6293 8.44209 28.9959 8.73905 29.4932 13.1654C29.5441 13.8278 29.5037 14.8048 29.0363 15.8749Z" fill="#363737"/>
<path d="M12.8984 16.2119C12.8984 16.2119 24.552 19.8932 40.7444 15.625C40.7444 15.625 41.7899 17.7371 40.4949 22.7644C40.4949 22.7644 21.7511 27.9428 9.96924 22.2214C9.971 22.2197 11.1553 18.259 12.8984 16.2119Z" fill="#D42D19"/>
<path d="M21.2944 15.3486C22.3319 15.3486 23.1729 14.5076 23.1729 13.4702C23.1729 12.4328 22.3319 11.5918 21.2944 11.5918C20.257 11.5918 19.416 12.4328 19.416 13.4702C19.416 14.5076 20.257 15.3486 21.2944 15.3486Z" fill="#363737"/>
</g>
<defs>
<clipPath id="clip0_538_13849">
<rect width="35.1435" height="42" fill="white" transform="translate(6 3)"/>
</clipPath>
</defs>
</svg>
