<svg width="48" height="48" viewBox="0 0 48 48" fill="none" xmlns="http://www.w3.org/2000/svg">
<g clip-path="url(#clip0_538_13833)">
<path fill-rule="evenodd" clip-rule="evenodd" d="M17.5865 37.978C21.3781 40.5455 25.8878 41.5487 30.2064 41.0295C34.4621 40.5178 38.5324 38.5275 41.5467 35.0972C42.3982 34.1292 43.166 33.0957 43.8208 31.901C44.4755 30.7071 45.0185 29.3487 45.4202 27.7284C45.7552 26.3756 45.9432 25.0136 45.9892 23.6672C46.1222 19.7547 45.0527 15.9795 42.9169 12.9306C40.784 9.88515 37.5856 7.56249 33.4568 6.55067C32.2578 6.25687 30.979 6.07314 29.6236 6.01464C26.0018 5.85777 22.3293 6.9645 19.3657 9.20655C16.6449 11.2657 14.5198 14.283 13.5782 18.16L13.5283 18.3654L13.3203 18.3052C12.8428 18.1665 12.3397 18.0747 11.8323 18.0257C11.3067 17.9754 10.7702 17.9715 10.2476 18.0114C9.36316 18.0786 8.64903 18.167 7.9765 18.3208C7.5371 18.4213 7.11157 18.5505 6.66524 18.7203C7.25977 18.7983 7.83177 18.9262 8.39597 19.1116C9.21193 19.3799 10.0093 19.7681 10.8335 20.3003C11.5259 20.7475 12.1014 21.2974 12.5941 21.8945C13.0811 22.4843 13.4902 23.1247 13.8516 23.7578C14.255 24.4641 14.694 25.2212 15.1715 25.9895C15.6443 26.75 16.1487 27.51 16.6813 28.2194C18.6269 30.8103 21.1047 32.3061 23.6185 32.7858C26.2761 33.2928 28.977 32.6636 31.1285 30.9918C32.2439 30.1256 32.9424 29.0432 33.3628 27.8797C33.7853 26.7088 33.9283 25.4513 33.93 24.2466V24.2431V24.2449C33.92 22.5887 33.9031 21.5808 33.8858 20.5728C33.8698 19.6056 33.8537 18.6384 33.8433 17.1001H25.1871L25.2842 25.2385C25.7591 25.2381 26.3497 25.2368 26.9911 25.235C28.7144 25.2307 30.8022 25.2259 31.9943 25.2385L32.3592 25.2428L32.1724 25.5449C31.5345 26.581 30.6813 27.3272 29.5989 27.8108C28.5246 28.2896 27.2316 28.5067 25.7067 28.4872C24.6866 28.4738 23.7134 28.1917 22.8389 27.718C21.9055 27.2119 21.0848 26.4882 20.44 25.6402C19.8415 24.8541 19.3935 23.9584 19.1031 23.0736C18.7894 22.119 18.6594 21.1765 18.7209 20.3943C18.932 17.7154 20.186 15.4301 22.0624 13.8016C23.9907 12.1285 26.5764 11.15 29.3618 11.1535C31.3881 11.1561 33.3337 11.6809 35.0467 12.6884C36.7111 13.6677 38.1541 15.1038 39.2348 16.9601C39.7293 17.8082 40.0811 18.7364 40.2952 19.7742C40.5093 20.809 40.5864 21.9504 40.5305 23.2291C40.4469 25.1523 39.9334 27.1911 39.0138 29.0674C38.1597 30.8085 36.9542 32.4119 35.415 33.6551C33.2445 35.4088 30.6891 36.5823 27.8768 36.824C25.3674 37.0398 22.6552 36.5138 19.8316 34.9963C19.1205 34.6141 18.4484 34.1452 17.8248 33.6339C17.096 33.0363 16.4278 32.3759 15.8384 31.7242C15.357 31.1916 14.9111 30.6551 14.4938 30.0974C14.0743 29.5367 13.6809 28.9517 13.3047 28.3256C12.8766 27.6123 12.3557 26.701 11.8422 25.804C11.4709 25.1544 11.103 24.5122 10.7459 23.9038C9.53043 22.1801 8.23867 21.1492 6.72418 20.6716C5.37175 20.2448 3.83126 20.2539 2 20.5997L2.02903 20.6084C2.52086 20.7609 3.18429 20.9667 3.76452 21.1825C6.60458 22.2381 8.01377 25.0075 9.2505 27.4385C9.55513 28.0365 9.84849 28.6133 10.1505 29.1381C10.6112 29.9371 11.093 30.7496 11.607 31.5474C12.1161 32.3382 12.6552 33.1113 13.2319 33.838C13.8468 34.6123 14.4934 35.3486 15.2049 36.0384C15.9182 36.7291 16.7003 37.3778 17.5865 37.978Z" fill="#D80C18"/>
</g>
<defs>
<clipPath id="clip0_538_13833">
<rect width="44" height="35.1626" fill="white" transform="translate(2 6)"/>
</clipPath>
</defs>
</svg>
