<svg width="48" height="48" viewBox="0 0 48 48" fill="none" xmlns="http://www.w3.org/2000/svg">
<g clip-path="url(#clip0_538_13830)">
<path fill-rule="evenodd" clip-rule="evenodd" d="M29.4769 24.3225C29.6755 24.1264 29.6746 23.8062 29.4769 23.6075C29.2829 23.4132 28.9559 23.4128 28.7658 23.6041L24.0006 28.3854C21.1928 31.1925 16.6254 31.1925 13.818 28.3854C12.4578 27.0257 11.7093 25.2165 11.7093 23.2937C11.7093 21.3704 12.4583 19.5616 13.818 18.2019L23.0199 9C11.3253 9.34067 2 15.7692 2 23.6501C2 29.9667 7.98873 35.349 16.3868 37.4138L29.4769 24.3225ZM31.6034 9.88293L18.5516 22.9356C18.4534 23.0334 18.4036 23.1554 18.4036 23.2945C18.4036 23.4332 18.4534 23.5535 18.5516 23.6518C18.746 23.8457 19.073 23.8466 19.2636 23.6548C19.2636 23.6548 24.0287 18.8739 24.0291 18.8739C26.8366 16.0677 31.4035 16.0677 34.211 18.8747C35.569 20.2327 36.3175 22.042 36.3175 23.9669C36.3175 25.8919 35.569 27.6994 34.211 29.0578L24.9669 38.3014C36.6679 37.9642 45.9996 31.5348 45.9996 23.6505C46 17.3322 40.0066 11.9474 31.6034 9.88293Z" fill="#0054A7"/>
<path d="M33.6834 24.0995C33.6834 22.8742 33.2075 21.7246 32.3449 20.8599C30.5599 19.0775 27.6547 19.0775 25.8688 20.8608L23.4875 23.2501L21.8509 24.8931L21.1075 25.6395C19.8877 26.8576 17.9037 26.8571 16.6848 25.6378C16.0936 25.047 15.7682 24.2615 15.7682 23.4245C15.7682 22.5896 16.0936 21.8058 16.6848 21.215L28.5942 9.30521C27.9881 9.21802 27.3727 9.14954 26.75 9.09766L15.6589 20.1884C14.7947 21.053 14.3184 22.2026 14.3184 23.4249C14.3184 24.6485 14.7947 25.7994 15.6589 26.6641C17.4227 28.4286 20.2777 28.4457 22.0679 26.7236L22.1355 26.6641C22.2635 26.5326 22.9716 25.8237 26.8963 21.8845C27.4854 21.2958 28.2697 20.9709 29.105 20.9709C29.9424 20.9709 30.7284 21.2958 31.3178 21.887C32.5372 23.1059 32.5372 25.0904 31.3178 26.3106L19.6053 38.0223C20.2156 38.1052 20.8349 38.1703 21.4622 38.2183L32.3449 27.3365C33.207 26.4731 33.683 25.3231 33.6834 24.0995Z" fill="#A3A3A3"/>
</g>
<defs>
<clipPath id="clip0_538_13830">
<rect width="44" height="29.3014" fill="white" transform="translate(2 9)"/>
</clipPath>
</defs>
</svg>
