<svg width="48" height="48" viewBox="0 0 48 48" fill="none" xmlns="http://www.w3.org/2000/svg">
<g clip-path="url(#clip0_538_13834)">
<path d="M24.0283 4C12.9803 4 4.02832 12.951 4.02832 23.999C4.02832 35.048 12.9803 44.001 24.0283 44.001C35.0198 44.001 43.9708 35.048 43.9708 23.999C43.9713 12.951 35.0198 4 24.0283 4ZM24.0283 39.864C15.2458 39.864 8.10682 32.7815 8.10682 23.999C8.10682 15.217 15.2458 8.0785 24.0283 8.0785C32.8108 8.0785 39.8913 15.2165 39.8913 23.999C39.8913 32.7815 32.8108 39.864 24.0283 39.864ZM23.8593 15.5015C23.8593 15.5015 20.5138 15.5015 18.4183 17.6535C18.4183 17.6535 23.5188 21.224 29.5228 17.6535C29.5233 17.6535 27.4838 15.5015 23.8593 15.5015ZM18.6993 26.3225C19.9478 22.8665 18.4763 20.1465 18.4763 20.1465C14.7928 17.6535 12.0723 17.031 12.0723 17.031C10.6003 19.6365 10.3173 21.96 10.3173 21.96C15.8698 23.0935 18.6993 26.3225 18.6993 26.3225ZM20.7408 20.7145C20.7408 20.7145 21.8178 23.3765 20.6848 27.117C24.6498 26.3795 27.3138 27.1725 27.3138 27.1725C26.1808 23.8865 27.3138 20.714 27.3138 20.714C24.0843 21.791 20.7408 20.7145 20.7408 20.7145ZM29.1828 26.3225C29.1828 26.3225 32.0723 23.0935 37.5688 21.9605C37.5688 21.9605 37.2863 19.637 35.8123 17.0315C35.8123 17.0315 33.0923 17.654 29.4673 20.147C29.4668 20.1465 27.9938 22.8665 29.1828 26.3225ZM23.8593 13.5185C28.2208 13.404 31.3373 16.6335 31.3373 16.6335C33.0913 15.614 34.5653 15.274 34.5653 15.274C34.5098 15.217 30.9963 10.2315 23.9148 10.175C23.9148 10.175 17.6258 9.8915 13.3183 15.274C13.3183 15.274 14.7923 15.6135 16.6043 16.6335C16.6043 16.6335 19.4958 13.575 23.8593 13.5185ZM37.6843 24.2265C33.0388 25.3605 30.5428 28.192 30.5428 28.192C33.8308 29.6095 35.4718 31.4785 35.4718 31.4785C37.8518 28.0225 37.6843 24.2265 37.6843 24.2265ZM23.9153 28.645C23.9153 28.645 17.7373 28.3635 13.7173 33.179C13.7173 33.179 14.5093 34.086 16.0388 35.2175C16.0388 35.2175 18.4183 31.876 23.9153 31.818C29.2988 31.761 31.9033 35.2175 31.9033 35.2175C33.3773 34.086 34.1713 33.179 34.1713 33.179C34.1713 33.179 30.6003 28.5895 23.9153 28.645ZM10.2603 24.2265C10.2603 24.2265 10.0328 28.0225 12.4703 31.478C12.4703 31.478 14.1113 29.609 17.3418 28.1915C17.3418 28.192 14.8478 25.3605 10.2603 24.2265ZM23.9708 33.802C23.9708 33.802 20.2888 33.689 17.7373 36.2955C17.7373 36.2955 20.4603 37.768 23.8593 37.768C27.5398 37.768 30.2048 36.2955 30.2048 36.2955C30.2048 36.2955 28.1648 33.747 23.9708 33.802Z" fill="#AE1F25"/>
</g>
<defs>
<clipPath id="clip0_538_13834">
<rect width="40" height="40" fill="white" transform="translate(4 4)"/>
</clipPath>
</defs>
</svg>
