<svg width="48" height="48" viewBox="0 0 48 48" fill="none" xmlns="http://www.w3.org/2000/svg">
<g clip-path="url(#clip0_538_13835)">
<path d="M23.3858 29.256C22.0781 27.2355 20.3533 25.5105 18.3325 24.2034C20.3533 22.8954 22.0781 21.1706 23.3858 19.1504C24.6931 21.1706 26.4178 22.8954 28.4385 24.2034C26.4178 25.5106 24.6931 27.2357 23.3858 29.256Z" fill="#E50020"/>
<path d="M19.1348 9.65401C15.5264 6.62798 8.30966 10.5687 5.53467 17.4908C4.70926 19.5485 3.53997 23.6532 4.18812 28.3799C4.66082 31.8278 6.24147 36.0541 9.82222 40.0462C6.69257 35.7238 7.00585 32.3771 7.69914 30.3055C7.82931 29.8875 7.99982 29.4686 8.20843 29.0567L8.25132 28.9778L8.26137 28.958V28.9588C10.8634 24.0805 17.96 21.2638 19.9499 15.7462C20.925 13.0412 20.4042 10.7186 19.1348 9.65401Z" fill="#E5002B"/>
<path d="M10.9669 40.0801L10.9673 40.0806C11.627 38.3478 11.7231 36.5839 11.7231 36.5839C7.92104 36.0952 6.79719 33.1998 7.69909 30.3047C7.00579 32.3763 6.69251 35.723 9.82217 40.0455L9.99178 40.234C10.0975 40.3586 10.2545 40.4394 10.4313 40.4394C10.6734 40.4394 10.8805 40.291 10.9669 40.0801Z" fill="#FFB98E"/>
<path d="M38.1119 27.7973C42.5369 26.1853 42.7326 17.9652 38.1251 12.1007C36.7558 10.3571 33.7857 7.29207 29.3681 5.48992C26.1459 4.17546 21.6954 3.43103 16.4478 4.53598C21.7558 3.98695 24.4975 5.93157 25.945 7.56771C26.2418 7.88938 26.5192 8.24645 26.7718 8.63307L26.8188 8.70955L26.831 8.7283L26.8304 8.728C29.7541 13.4206 28.6451 20.9747 32.4285 25.4568C34.2834 27.6541 36.5553 28.3643 38.1119 27.7973Z" fill="#E5002B"/>
<path d="M15.8452 5.51039L15.8446 5.51054C17.0152 6.94812 18.4948 7.9133 18.4948 7.9133C20.8191 4.86508 23.8885 5.33942 25.9448 7.56793C24.4973 5.93179 21.7557 3.98717 16.4476 4.5362L16.1995 4.58884C16.0388 4.61808 15.8902 4.71376 15.8017 4.86688C15.6808 5.07638 15.7057 5.32998 15.8452 5.51039Z" fill="#FFB98E"/>
<path d="M12.9101 35.1604C12.0937 39.7985 19.1147 44.078 26.4971 43.0201C28.6918 42.7061 32.8312 41.6664 36.6006 38.7417C39.3503 36.6084 42.2202 33.1264 43.8871 28.0293C41.7085 32.9008 38.6535 34.3028 36.5129 34.7382C36.0859 34.8345 35.6378 34.8961 35.1768 34.9216L35.087 34.924L35.0648 34.9252L35.0654 34.9248C29.5396 35.1106 23.5523 30.373 17.7789 31.4083C14.9483 31.9166 13.1973 33.5289 12.9101 35.1604Z" fill="#E5002B"/>
<path d="M43.3444 27.0189L43.3446 27.0183C41.5142 27.3133 39.9385 28.112 39.9385 28.112C41.4163 31.649 39.4706 34.0702 36.5127 34.7366C38.6535 34.3013 41.7083 32.8992 43.8868 28.0277L43.9653 27.7867C44.0203 27.6329 44.0119 27.4563 43.9234 27.3032C43.8024 27.0934 43.5704 26.9883 43.3444 27.0189Z" fill="#FFB98E"/>
</g>
<defs>
<clipPath id="clip0_538_13835">
<rect width="40" height="39.1819" fill="white" transform="translate(4 4)"/>
</clipPath>
</defs>
</svg>
