<svg width="48" height="48" viewBox="0 0 48 48" fill="none" xmlns="http://www.w3.org/2000/svg">
<g clip-path="url(#clip0_538_13829)">
<path fill-rule="evenodd" clip-rule="evenodd" d="M21.616 5.46538C25.57 4.48638 29.601 5.09638 32.954 6.87838C30.247 6.21137 27.313 6.17338 24.409 6.89338C15.655 9.06337 10.397 17.3284 12.704 25.2914C13.135 26.7794 13.796 28.1494 14.651 29.3874C12.96 27.6844 11.67 25.5794 10.976 23.1784C8.73096 15.4334 13.512 7.47537 21.616 5.46538ZM31.093 33.6704C29.686 34.5174 28.107 35.1654 26.386 35.5624C17.812 37.5234 8.89296 32.4744 6.53196 24.3164C4.38696 16.9114 8.34896 9.37738 15.515 6.59137C10.286 9.97638 7.70596 16.4904 9.57096 22.9334C11.942 31.1144 20.63 36.2404 28.91 34.3434C29.669 34.1714 30.397 33.9444 31.093 33.6704ZM4.38296 19.8464C5.76396 41.4444 34.368 42.6004 38.086 25.1884C40.362 14.5364 27.445 5.26838 16.482 13.7084C23.062 4.89038 37.431 6.17337 42.29 16.0354C42.697 16.8914 43.039 17.7904 43.308 18.7214C43.755 20.2624 43.981 21.8144 44.001 23.3444V23.5934C43.998 24.1404 43.97 24.6884 43.923 25.2414C43.262 32.0324 38.608 38.1214 31.65 40.7764L31.623 40.7854L31.171 40.9514L31.165 40.9534L30.703 41.1114L30.65 41.1294C16.996 45.5484 1.34196 34.9784 4.38296 19.8464Z" fill="#005BAC"/>
<path fill-rule="evenodd" clip-rule="evenodd" d="M25.1761 13.1816C30.7721 13.1816 35.3321 17.4636 35.3321 22.7116C35.3321 27.9616 30.7711 32.2456 25.1761 32.2456C19.5811 32.2456 15.0171 27.9616 15.0171 22.7116C15.0181 17.4636 19.5811 13.1816 25.1761 13.1816ZM25.1761 27.0536L30.1101 22.7126L25.1761 18.3746L20.2381 22.7126L25.1761 27.0536Z" fill="#F6AB00"/>
</g>
<defs>
<clipPath id="clip0_538_13829">
<rect width="40" height="37.141" fill="white" transform="translate(4 5)"/>
</clipPath>
</defs>
</svg>
