<svg width="48" height="48" viewBox="0 0 48 48" fill="none" xmlns="http://www.w3.org/2000/svg">
<g clip-path="url(#clip0_538_13836)">
<path fill-rule="evenodd" clip-rule="evenodd" d="M28.6135 19.7003V19.625V19.7003ZM28.7348 19.8683L28.5841 19.5925L28.547 19.5171L28.6722 18.5393L28.5091 17.2732L27.9578 16.1072L27.2805 15.3426L26.3154 14.5528L24.5853 13.5877C24.5853 13.5877 23.4193 12.9734 23.3942 12.8606C23.2563 12.8606 22.968 12.5345 22.8927 12.4341C22.805 12.3337 22.4793 11.87 22.4793 11.87L22.0655 11.1931C22.0029 11.2433 21.8522 11.6444 21.8522 11.7321C21.8522 11.7448 21.7394 12.1459 21.7394 12.2711C21.7394 12.2993 21.541 13.2475 22.0655 13.9262C22.5079 14.7063 23.1742 14.9302 23.1742 14.9302C23.1742 14.9302 24.7986 15.5809 24.8237 15.5809C24.8863 15.5933 25.8645 16.2327 25.9395 16.2957L27.2307 17.5996C27.2307 17.5996 27.6819 18.1513 27.7445 18.2641C27.7951 18.3646 27.782 18.4774 27.782 18.4774L27.7947 18.4021C27.7947 18.4021 27.481 18.0636 27.4436 18.0261L26.8544 17.4369C26.8544 17.4369 26.2903 16.9857 26.215 16.9103C26.1396 16.8354 25.5879 16.4591 25.5879 16.4591L25.1745 16.2462C25.1745 16.2462 22.5154 14.8195 18.8433 15.193C12.6055 16.2267 10.2555 21.173 10.2555 21.173L9.87954 21.9379L9.87495 21.9506C9.87495 21.9506 9.17754 23.8561 9.17754 23.9064C9.16516 23.9566 8.48791 27.3917 8.48791 27.3917C8.48791 27.3917 7.32296 35.1463 13.8663 40.2191C13.9211 40.2616 15.6484 41.4456 16.9159 42.0815C18.1834 42.7174 19.5018 43.413 25.137 43.9138C45.8571 42.9267 43.9547 22.4758 43.9547 22.4758C43.9547 22.4758 42.9981 16.8003 40.0362 12.8659C37.9291 10.0667 34.6546 7.97837 34.6147 7.95856C30.4875 5.00023 25.0741 5.03701 24.9485 5.03701C21.1927 4.74241 16.9626 6.30345 16.9626 6.30345C16.9626 6.30345 15.9699 6.65463 15.9568 6.66029C14.0421 7.50553 12.1988 8.7603 12.1988 8.7603L9.4159 11.1673C9.37841 11.1673 8.67605 11.9821 8.67605 11.9821L7.52278 13.4243C7.52278 13.4243 6.53254 15.0667 6.48232 15.1417C6.4321 15.2167 5.76758 16.5206 5.73044 16.5835C5.66749 16.6964 4.72747 19.3541 4.72747 19.3541L4.56444 19.8428C4.5517 19.8931 4.1503 22.0995 4.1503 22.0995L4 24.4567V25.7482L4.20052 27.5405C4.20052 27.5405 4.53049 30.7111 6.13114 33.383C6.16862 33.4583 6.62024 34.2858 6.62024 34.2858H6.65773C6.65773 34.2858 6.40699 33.0823 6.40699 33.0445C6.38188 32.8938 6.24431 32.2293 6.24431 32.0918C6.24431 31.916 6.08127 30.5498 6.08127 30.5498V27.5409L6.20647 26.1369L6.66056 23.8194C6.66056 23.8194 7.47256 21.2101 7.52278 21.122C7.573 21.0219 8.4002 19.179 8.4002 19.179C8.4002 19.179 9.50361 17.4613 9.55347 17.374C9.57328 17.3446 10.7322 15.8568 10.8574 15.7443C10.9327 15.6563 13.164 13.5502 13.164 13.5502C13.252 13.5127 15.1575 12.2088 15.1575 12.2088C15.1593 12.2095 15.7754 11.9266 16.372 11.6522L17.4768 11.1432L20.0847 10.4161L21.326 10.2531C21.326 10.2531 31.239 9.79086 34.0262 18.5474C34.0011 18.5099 34.0262 18.5849 34.0262 18.5474C34.0262 18.5474 36.1902 25.9572 31.0547 30.4748C30.9918 30.5502 29.2995 31.8039 29.2242 31.8414L28.3839 32.2926C28.3839 32.2926 23.6799 33.4088 20.4747 32.0963C18.8288 31.4223 17.6027 30.0649 16.8137 28.9368C16.1135 27.9359 15.7573 27.1162 15.7573 27.1162C15.7573 27.1162 15.3481 24.6186 15.9978 22.3885C16.8572 19.4386 21.1379 18.2263 21.1379 18.2263C21.1379 18.2263 22.4043 18.0756 22.4542 18.0756C25.5292 17.8323 28.2587 19.5928 28.2587 19.5928C28.2722 19.614 28.5848 19.9313 28.5848 19.9313L28.9607 20.4953L29.0736 20.7461" fill="#E60012"/>
<path fill-rule="evenodd" clip-rule="evenodd" d="M28.9394 27.5243C28.9394 28.5008 28.1479 29.2926 27.1711 29.2926H21.989C21.0125 29.2926 20.2207 28.5008 20.2207 27.5243V22.3581C20.2207 21.3817 21.0125 20.5898 21.989 20.5898H27.1708C28.1476 20.5898 28.939 21.3817 28.939 22.3581V27.5243H28.9394Z" fill="#E60012"/>
</g>
<defs>
<clipPath id="clip0_538_13836">
<rect width="40" height="38.9136" fill="white" transform="translate(4 5)"/>
</clipPath>
</defs>
</svg>
