<svg width="48" height="48" viewBox="0 0 48 48" fill="none" xmlns="http://www.w3.org/2000/svg">
<g clip-path="url(#clip0_538_13848)">
<path d="M34.7572 23.038L45.7312 6H37.9572L29.2692 19.489L34.7572 23.038ZM26.9582 17.917L34.6322 6H26.8582L21.4702 14.368L26.9582 17.917Z" fill="#FF9500"/>
<path d="M25.7632 30.412C25.1872 31.2823 24.4443 32.0298 23.5775 32.611C22.7106 33.1922 21.7371 33.5957 20.7132 33.798C19.6905 34.0059 18.6367 34.0088 17.6128 33.8068C16.589 33.6048 15.6153 33.2017 14.7482 32.621C13.8779 32.045 13.1304 31.3021 12.5492 30.4353C11.968 29.5684 11.5646 28.5949 11.3622 27.571C11.1544 26.5483 11.1514 25.4945 11.3534 24.4706C11.5554 23.4468 11.9585 22.4731 12.5392 21.606L22.9312 6H13.0772L5.71221 17.061C4.53174 18.8234 3.71251 20.8024 3.30192 22.8834C2.89134 24.9645 2.89756 27.1063 3.32021 29.185C3.73151 31.266 4.55156 33.2447 5.73287 35.0065C6.91418 36.7683 8.43329 38.2783 10.2022 39.449C12.8402 41.2158 15.9433 42.1596 19.1182 42.161C20.1832 42.161 21.2582 42.055 22.3262 41.841C24.4072 41.4297 26.3859 40.6096 28.1477 39.4283C29.9095 38.247 31.4195 36.7279 32.5902 34.959L39.6362 24.377H29.7822L25.7632 30.412Z" fill="#FF9500"/>
</g>
<defs>
<clipPath id="clip0_538_13848">
<rect width="42.731" height="36.16" fill="white" transform="translate(3 6)"/>
</clipPath>
</defs>
</svg>
