<svg width="48" height="48" viewBox="0 0 48 48" fill="none" xmlns="http://www.w3.org/2000/svg">
<g clip-path="url(#clip0_538_13825)">
<path d="M42.3966 2.54546C42.3954 2.24476 42.1669 2 41.8908 2H5.50658C5.22572 2 5 2.24476 5 2.54546V23.3954H35.4092C36.7032 22.6167 42.1296 19.3539 42.1296 19.3539C42.3093 19.2381 42.3962 19.0655 42.3962 18.8628V2.54546H42.3966ZM42.3966 25.15C42.3954 24.8485 42.1673 24.6062 41.8912 24.6062H5V45.4633C5 45.7612 5.22056 46 5.49468 46H35.4092C36.7032 45.2193 42.1296 41.9569 42.1296 41.9569C42.3093 41.845 42.3962 41.6685 42.3962 41.4717V25.15H42.3966Z" fill="#005EA6"/>
</g>
<defs>
<clipPath id="clip0_538_13825">
<rect width="37.3966" height="44" fill="white" transform="translate(5 2)"/>
</clipPath>
</defs>
</svg>
