<svg width="48" height="48" viewBox="0 0 48 48" fill="none" xmlns="http://www.w3.org/2000/svg">
<g clip-path="url(#clip0_538_13828)">
<path fill-rule="evenodd" clip-rule="evenodd" d="M16.8058 42.048V41.551C16.9868 41.506 17.1678 41.46 17.2588 41.369C17.4398 41.234 17.5298 41.053 17.5298 40.827C17.5298 40.6 17.4398 40.42 17.3028 40.284C17.1678 40.193 16.9868 40.148 16.8048 40.102V39.65C16.9408 39.605 17.0758 39.56 17.1668 39.469C17.3478 39.378 17.4378 39.198 17.4378 38.971C17.4378 38.79 17.3468 38.609 17.2118 38.519C17.0758 38.428 16.9408 38.382 16.8038 38.337V37.885C17.1658 37.93 17.4378 38.021 17.6638 38.156C17.8898 38.337 18.0258 38.608 18.0258 38.926C18.0258 39.152 17.9348 39.333 17.7988 39.514C17.6628 39.65 17.4818 39.785 17.2558 39.83C17.5268 39.921 17.7538 40.057 17.8888 40.192C18.0698 40.373 18.1158 40.599 18.1158 40.871C18.1158 41.233 17.9798 41.505 17.7538 41.73C17.4848 41.914 17.2138 42.003 16.8058 42.048ZM9.20477 37.886H9.88377L10.9248 39.515L11.9658 37.886H12.5988L11.2418 39.877L12.7348 42.048H12.0558L10.8788 40.194L9.70277 42.048H9.06877L10.5618 39.877L9.20477 37.886ZM16.8058 37.886V38.338H16.0818V39.651H16.8048V40.103H16.0808V41.551H16.8038V42.048H15.4918V37.886H16.8058ZM13.5938 37.886H14.1818V42.048H13.5938V37.886ZM37.7108 40.33V39.878C37.8918 39.832 38.0268 39.787 38.1178 39.696C38.2988 39.561 38.3888 39.335 38.3888 39.108C38.3888 38.837 38.2978 38.656 38.1618 38.52C38.0258 38.429 37.8908 38.383 37.7098 38.338V37.886C38.0718 37.931 38.3888 38.022 38.6138 38.203C38.8408 38.383 38.9758 38.7 38.9758 39.107C38.9758 39.514 38.8398 39.786 38.5688 40.011C38.3448 40.194 38.0728 40.285 37.7108 40.33ZM37.7108 37.886V38.338H37.0318V39.877H37.7098V40.329H37.0318V42.048H36.4428V37.886H37.7108ZM29.6108 42.094V41.642C30.0178 41.642 30.2898 41.46 30.5608 41.19C30.7878 40.873 30.8768 40.465 30.8768 39.967C30.8768 39.424 30.7868 39.017 30.5608 38.745C30.2898 38.429 30.0178 38.248 29.6108 38.248V37.795C30.1988 37.795 30.6518 38.022 30.9678 38.383C31.3298 38.745 31.5108 39.288 31.5108 39.967C31.5108 40.646 31.3298 41.144 30.9678 41.551C30.6518 41.914 30.1988 42.094 29.6108 42.094ZM32.2808 37.886H32.8688V40.329C32.8688 40.781 32.9598 41.099 33.0958 41.324C33.2768 41.506 33.5028 41.641 33.8648 41.641C34.1818 41.641 34.4538 41.505 34.5898 41.279C34.7708 41.052 34.8608 40.736 34.8608 40.284V37.886H35.4048V40.284C35.4048 40.917 35.2688 41.369 34.9978 41.641C34.7268 41.957 34.3638 42.093 33.8208 42.093C33.3238 42.093 32.9618 41.957 32.6898 41.686C32.4188 41.369 32.2828 40.916 32.2828 40.329V37.886H32.2808ZM29.6108 37.795V38.248C29.2038 38.248 28.9318 38.429 28.6608 38.745C28.4348 39.016 28.3448 39.424 28.3448 39.967C28.3448 40.465 28.4358 40.872 28.6608 41.19C28.9318 41.461 29.2038 41.642 29.6108 41.642V42.094C29.0228 42.094 28.5698 41.913 28.2538 41.551C27.8918 41.144 27.7108 40.646 27.7108 39.967C27.7108 39.288 27.8918 38.745 28.2538 38.383C28.5698 38.022 29.0228 37.795 29.6108 37.795ZM25.7658 40.24V39.741C25.9468 39.696 26.1268 39.651 26.2178 39.561C26.3998 39.424 26.4888 39.244 26.4888 39.017C26.4888 38.791 26.3988 38.61 26.2178 38.52C26.1268 38.429 25.9908 38.383 25.7658 38.338V37.886C26.1728 37.886 26.4898 37.977 26.7158 38.157C26.9418 38.338 27.0778 38.609 27.0778 38.927C27.0778 39.198 26.9868 39.424 26.8058 39.606C26.6698 39.787 26.4448 39.877 26.1728 39.967C26.2628 40.012 26.3998 40.058 26.4438 40.149C26.5348 40.194 26.6248 40.33 26.7148 40.556L27.3488 42.048H26.7148L26.1718 40.691C26.0808 40.511 25.9898 40.375 25.8998 40.285L25.7658 40.24ZM23.4578 38.067L23.3678 38.565C23.1868 38.474 23.0508 38.429 22.8698 38.383C22.6888 38.338 22.5078 38.338 22.3268 38.338C21.8288 38.338 21.4218 38.474 21.1048 38.791C20.8338 39.062 20.6518 39.47 20.6518 39.967C20.6518 40.465 20.8328 40.872 21.1048 41.144C21.4208 41.46 21.8288 41.596 22.3268 41.596C22.4628 41.596 22.5528 41.596 22.6888 41.551C22.7798 41.551 22.8698 41.506 23.0058 41.46V40.193H22.1008V39.74H23.5488V41.822C23.3678 41.913 23.1418 41.958 22.9608 42.003C22.7348 42.048 22.5088 42.048 22.2818 42.048C21.6028 42.048 21.0598 41.868 20.6528 41.506C20.2458 41.099 20.0648 40.601 20.0648 39.967C20.0648 39.334 20.2458 38.836 20.6528 38.429C21.0598 38.067 21.6028 37.886 22.2818 37.886C22.5088 37.886 22.6888 37.886 22.8698 37.931C23.0498 37.931 23.2308 38.022 23.4578 38.067ZM25.7658 37.886V38.338H25.0868V39.74H25.7658V40.239C25.6748 40.193 25.5838 40.193 25.4498 40.193H25.0878V42.047H24.4998V37.885H25.6308L25.7658 37.886ZM31.3758 6.71C34.8148 8.52 37.5748 11.552 38.9778 15.217C36.7608 17.117 34.1818 18.611 31.3758 19.561V16.213C32.6428 15.67 33.8638 15.036 34.9958 14.267C34.0918 12.728 32.8238 11.416 31.3758 10.421V6.71ZM31.3758 22.412C34.1818 23.362 36.7608 24.855 38.9778 26.756C37.7568 29.878 35.5388 32.593 32.6888 34.448C32.2818 34.719 31.8298 34.991 31.3758 35.218V31.553C32.8238 30.512 34.0918 29.199 34.9958 27.661C33.8638 26.891 32.6418 26.259 31.3758 25.76V22.412ZM29.7918 6.032C30.3358 6.213 30.8778 6.485 31.3758 6.711V10.421C31.1488 10.24 30.9688 10.104 30.7428 9.969C29.2488 12.14 28.2078 14.629 27.7108 17.299C28.9778 17.028 30.1988 16.666 31.3758 16.214V19.562C30.0638 20.015 28.7518 20.331 27.3948 20.557L27.3498 21.01L27.3948 21.463C28.7518 21.644 30.0648 21.961 31.3758 22.413V25.761C30.1988 25.309 28.9778 24.947 27.7108 24.721C28.2078 27.3 29.2488 29.788 30.7428 31.96L31.3758 31.554V35.219C30.8778 35.49 30.3358 35.716 29.7918 35.898C27.0318 32.685 25.1318 28.703 24.4528 24.359H23.5478C22.9138 28.702 21.0138 32.685 18.2088 35.898C17.6658 35.716 17.1678 35.49 16.6698 35.219V31.554C16.8508 31.689 17.0768 31.825 17.3028 31.96C18.7508 29.788 19.7918 27.3 20.2898 24.721C19.0228 24.947 17.8008 25.309 16.6698 25.761V22.413C17.9368 21.96 19.2948 21.643 20.6518 21.463V20.557C19.2948 20.331 17.9368 20.015 16.6698 19.562V16.214C17.8008 16.666 19.0228 17.028 20.2898 17.299C19.7918 14.63 18.7508 12.141 17.3028 9.969C17.0768 10.104 16.8508 10.24 16.6698 10.421V6.71C17.1678 6.484 17.6658 6.212 18.2088 6.031C21.0148 9.243 22.9148 13.225 23.5478 17.614H24.4528C25.1318 13.226 27.0318 9.244 29.7918 6.032ZM16.6698 35.217C13.1858 33.406 10.4708 30.374 9.02377 26.755C11.2408 24.855 13.8198 23.361 16.6698 22.411V25.759C15.3578 26.258 14.1358 26.891 13.0048 27.66C13.9558 29.198 15.1768 30.511 16.6698 31.552V35.217ZM16.6698 19.561C13.8188 18.611 11.2398 17.118 9.02377 15.217L9.29477 14.583C10.5618 11.687 12.6428 9.244 15.3128 7.524C15.7658 7.208 16.2178 6.981 16.6698 6.71V10.42C15.1768 11.416 13.9558 12.728 13.0048 14.266C14.1358 15.035 15.3578 15.668 16.6698 16.212V19.561ZM24.0008 45.94H40.0188C42.1898 45.94 43.9998 44.086 43.9998 41.959V6.982C43.9998 4.765 42.2798 3 40.0188 3H24.0008V4.493H40.0188C41.2408 4.493 42.5068 5.67 42.5068 6.982V41.959C42.5068 43.272 41.2398 44.447 40.0188 44.447H24.0008V45.94ZM8.02777 3C5.85577 3 4.00077 4.765 4.00077 6.982V41.959C3.95577 44.086 5.90177 45.94 8.02777 45.94H24.0008V44.447H8.02777C6.80577 44.447 5.49377 43.135 5.49377 41.959L5.53977 6.982C5.53977 5.715 6.76177 4.493 8.02877 4.493H24.0018V3H8.02777V3Z" fill="#0062AC"/>
</g>
<defs>
<clipPath id="clip0_538_13828">
<rect width="40" height="42.94" fill="white" transform="translate(4 3)"/>
</clipPath>
</defs>
</svg>
