<svg width="48" height="48" viewBox="0 0 48 48" fill="none" xmlns="http://www.w3.org/2000/svg">
<g clip-path="url(#clip0_538_13863)">
<path fill-rule="evenodd" clip-rule="evenodd" d="M27.654 16.3633L24.006 20.0113L19.932 15.9353L24.008 11.8593L27.656 15.5073H31.252C31.152 13.7953 30.45 12.1113 29.14 10.8013C26.306 7.96728 21.71 7.96728 18.876 10.8013C16.042 13.6353 16.042 18.2293 18.876 21.0653C21.71 23.8993 26.306 23.8993 29.14 21.0653C30.448 19.7573 31.152 18.0733 31.252 16.3593H27.654V16.3633Z" fill="#C41B1F"/>
<path fill-rule="evenodd" clip-rule="evenodd" d="M17.9299 5L17.9179 5.014L15.4239 8.004L12.1899 11.882L12.1919 11.884L11.7119 12.454L8.54192 16.254L7.29192 17.798C6.94592 18.232 6.49592 18.732 6.03992 19.254L5.26992 20.178C4.69992 20.9 4.22592 21.626 4.09392 22.258C3.74992 23.908 4.41992 24.904 4.98792 25.942C5.69792 27.24 11.6559 34 11.7219 35.666C11.7439 36.206 11.5619 36.716 11.2819 37.198C10.7479 38.112 7.97192 41.46 6.39192 43.204L16.1719 43.224C17.3059 41.512 18.4439 40.03 19.7959 38.234C20.6879 37.048 22.9199 34.504 22.9979 32.858C23.0699 31.358 22.7819 29.664 21.7119 28.332C18.3899 24.192 13.8699 19.76 13.2879 18.214C12.4899 16.1 13.2639 14.492 14.3659 13.068L19.7859 6.55L17.9299 5V5ZM30.0699 5L30.0819 5.014L32.5759 8.004L35.8079 11.882V11.884L36.2859 12.454L39.4559 16.254L40.7079 17.798C41.0539 18.232 41.5039 18.73 41.9599 19.254L42.7299 20.176C43.2999 20.898 43.7719 21.626 43.9059 22.256C44.2499 23.906 43.5799 24.902 43.0139 25.94C42.3039 27.238 36.3439 33.998 36.2799 35.664C36.2559 36.204 36.4379 36.714 36.7179 37.196C37.2539 38.11 40.0279 41.458 41.6079 43.202L31.8279 43.222C30.6939 41.51 29.5559 40.028 28.2039 38.232C27.3099 37.046 25.0799 34.502 25.0019 32.856C24.9299 31.356 25.2179 29.662 26.2879 28.33C29.6099 24.192 34.1279 19.76 34.7119 18.214C35.5099 16.1 34.7359 14.492 33.6339 13.068L28.2119 6.55L30.0699 5V5Z" fill="#11823B"/>
</g>
<defs>
<clipPath id="clip0_538_13863">
<rect width="40" height="38.222" fill="white" transform="translate(4 5)"/>
</clipPath>
</defs>
</svg>
