<svg width="48" height="48" viewBox="0 0 48 48" fill="none" xmlns="http://www.w3.org/2000/svg">
<g clip-path="url(#clip0_538_13826)">
<path d="M4 9.08984H39.291V44.3818H4V9.08984Z" fill="#005BAC"/>
<path d="M12.7699 9.16211C12.5969 12.3581 15.2929 17.1051 20.6529 19.9541C21.5859 17.7741 22.4249 17.2851 23.4749 16.7951C27.7769 19.0021 30.1799 22.6231 30.2109 23.1501C30.5979 21.1531 30.8809 14.8301 25.3129 9.16211H12.7699ZM39.2909 28.8691C38.2179 27.4451 36.8679 26.2071 35.2159 25.6091C34.2979 25.2981 32.1729 23.8271 31.0289 24.0901C33.0499 24.9211 35.5549 29.3941 35.5209 31.3821C32.6119 32.3561 26.7159 31.5031 24.8349 28.3041C23.9369 27.0071 24.1949 26.1771 25.6749 25.4131C22.8389 26.0231 23.8179 28.0101 24.9259 30.1641C27.1469 34.4771 33.5899 38.3561 39.2899 36.8461V28.8691H39.2909ZM25.5949 23.3431C17.8199 21.4631 9.82887 27.9241 6.19287 42.1511C13.4029 45.1311 20.1219 41.4061 22.4319 38.2041C21.2239 39.7201 20.8759 36.3471 17.8879 34.4781C18.8639 27.8811 22.8789 23.9771 27.2739 24.4981C28.2419 24.3491 29.7819 24.6411 29.5829 25.0191C28.0929 23.3791 31.2859 24.7171 25.5949 23.3431Z" fill="#004294"/>
<path d="M25.3099 21.7487C17.5339 19.8697 5.8859 24.4387 5.2749 39.4377C17.1349 44.8447 24.9509 39.0397 25.6739 32.5327C24.2289 33.6577 18.9299 34.6867 15.9419 32.8197C16.5879 26.2517 22.0659 23.8087 25.1849 24.1207C28.6329 24.4677 29.7949 26.2757 28.6349 27.9417C31.2889 26.0967 31.0009 23.1247 25.3099 21.7487Z" fill="url(#paint0_radial_538_13826)"/>
<path d="M24.2422 29.7354C28.4392 35.5894 38.3422 36.2174 44.0002 30.5584C42.9512 27.5624 39.6402 23.9264 35.6202 23.3714C34.6562 23.2614 31.9982 23.6234 30.9352 24.1204C33.7692 24.1814 36.1642 26.2534 36.5462 28.2044C33.9042 29.7644 28.5402 30.9124 26.0312 28.1774C24.8822 27.0974 24.9622 26.2334 26.2472 25.1764C22.5212 25.5054 22.9252 27.8984 24.2422 29.7354Z" fill="url(#paint1_radial_538_13826)"/>
<path d="M19.3531 4C15.2931 6.832 12.6071 15.525 20.6531 19.951C20.3311 17.254 21.8911 15.289 22.6921 14.474C26.9431 16.411 28.9581 19.001 29.8531 21.559C30.0381 22.12 30.4351 23.642 30.4851 24.166C30.9101 21.438 34.8351 9.211 19.3531 4Z" fill="url(#paint2_radial_538_13826)"/>
</g>
<defs>
<radialGradient id="paint0_radial_538_13826" cx="0" cy="0" r="1" gradientUnits="userSpaceOnUse" gradientTransform="translate(8.9599 30.1767) scale(20.182 20.182)">
<stop stop-color="#FFD900"/>
<stop offset="0.292" stop-color="#FDCD00"/>
<stop offset="0.55" stop-color="#FABE00"/>
<stop offset="0.729" stop-color="#F6BB00"/>
<stop offset="0.962" stop-color="#EAB200"/>
<stop offset="1" stop-color="#E7B000"/>
</radialGradient>
<radialGradient id="paint1_radial_538_13826" cx="0" cy="0" r="1" gradientUnits="userSpaceOnUse" gradientTransform="translate(38.3608 26.5044) scale(8.63168 8.853)">
<stop stop-color="#FFD900"/>
<stop offset="0.292" stop-color="#FDCD00"/>
<stop offset="0.55" stop-color="#FABE00"/>
<stop offset="0.729" stop-color="#F6BB00"/>
<stop offset="0.962" stop-color="#EAB200"/>
<stop offset="1" stop-color="#E7B000"/>
</radialGradient>
<radialGradient id="paint2_radial_538_13826" cx="0" cy="0" r="1" gradientUnits="userSpaceOnUse" gradientTransform="translate(26.946 9.713) scale(13.0179 13.617)">
<stop stop-color="#FFD900"/>
<stop offset="0.292" stop-color="#FDCD00"/>
<stop offset="0.55" stop-color="#FABE00"/>
<stop offset="0.729" stop-color="#F6BB00"/>
<stop offset="0.962" stop-color="#EAB200"/>
<stop offset="1" stop-color="#E7B000"/>
</radialGradient>
<clipPath id="clip0_538_13826">
<rect width="40" height="40.381" fill="white" transform="translate(4 4)"/>
</clipPath>
</defs>
</svg>
