<svg width="48" height="48" viewBox="0 0 48 48" fill="none" xmlns="http://www.w3.org/2000/svg">
<g clip-path="url(#clip0_538_13844)">
<path fill-rule="evenodd" clip-rule="evenodd" d="M2.44767 26.981C4.50027 20.3601 12.4588 14.8227 18.4252 12.428C18.9532 12.2168 19.5186 12.0573 19.5692 12.0573C19.5857 12.0496 20.1555 11.9011 20.1423 12.0111L20.0235 12.0573L19.8629 12.1585L19.644 12.3345L19.6363 12.4093C19.6198 12.5347 19.7122 12.5028 19.8552 12.4852C20.2248 12.4522 20.9409 12.1508 21.0762 12.1354L21.3193 12.0749C21.5635 12.0507 21.503 12.1101 21.3699 12.2179C21.2346 12.3092 21.008 12.4852 20.7715 12.6205C15.6323 15.541 8.37227 20.48 8.69897 26.8325C8.96847 31.9959 16.2461 31.9904 19.7881 32.085C20.2171 32.0916 20.6967 32.1103 21.0311 32.2005C21.3116 32.2753 21.5217 32.217 21.5217 32.3677L21.3523 32.4513C21.1675 32.5008 20.8562 32.6427 20.8056 32.7351C20.7891 32.767 20.6879 32.8946 20.7209 32.9441L20.9057 33.0266L21.0245 33.0849C21.0674 33.185 21.6383 33.0937 21.6031 33.251L21.3105 33.5337L21.3512 33.7042C21.3688 33.7878 21.3512 33.8615 21.3105 33.9286C21.1499 34.1882 20.5537 34.1046 20.5944 34.2872C20.6131 34.3708 21.184 34.5039 21.2335 34.5534L21.5371 34.6447L21.9144 34.7789C22.0673 34.8053 22.1916 34.912 22.3027 34.9714L22.5887 35.0825C22.5887 35.1397 22.4688 35.1628 22.3533 35.2145L21.5789 35.4884L21.6713 35.5489C21.7395 35.6226 21.7626 35.6908 21.8726 35.7337C22.0673 35.7997 22.3027 35.7733 22.4204 35.99L22.4039 36.0494C22.4523 36.1638 22.4776 36.2925 22.4281 36.4498C22.3357 36.7413 21.646 36.9008 21.8297 37.1516C21.9144 37.2682 22.0904 37.3705 22.2851 37.4431L22.7295 37.585C22.9913 37.6961 23.0331 37.9634 23.2278 38.0855C23.4302 38.2307 23.7734 38.2307 23.6051 38.2461C23.5963 38.2802 23.4368 38.3363 23.3719 38.3627C23.1772 38.4463 22.823 38.4881 23.4027 38.5794C24.1859 38.7048 25.2045 38.806 25.0285 38.7972L24.9262 38.8896L24.5984 39.0293C20.601 40.5176 15.0911 39.8906 11.0706 38.9633C5.17347 37.6213 0.502866 33.2455 2.44767 26.981ZM22.5975 16.1009L26.0471 15.1989C26.7115 15.0504 27.124 14.8733 27.4771 15.5476L27.6124 17.2273C27.6201 18.2998 27.0833 18.6243 26.1989 18.9169L22.5986 19.8497V16.1009H22.5975Z" fill="#6FBA2C"/>
<path fill-rule="evenodd" clip-rule="evenodd" d="M45.991 15.9002C45.6555 23.3153 31.1025 32.2 22.6226 32.9942V23.4902C31.0937 22.2384 38.1095 17.7526 38.2701 14.2381C38.4989 9.11097 26.4924 10.9458 23.0263 11.9655L23.0351 11.2648C25.1647 10.4387 29.5394 9.16707 33.9064 9.01857C40.0873 8.79967 46.2539 10.4816 45.991 15.9002Z" fill="#003990"/>
</g>
<defs>
<clipPath id="clip0_538_13844">
<rect width="44" height="30.921" fill="white" transform="translate(2 9)"/>
</clipPath>
</defs>
</svg>
