<svg width="48" height="48" viewBox="0 0 48 48" fill="none" xmlns="http://www.w3.org/2000/svg">
<g clip-path="url(#clip0_538_13838)">
<path d="M44 24C44 35.047 35.038 44 23.999 44C12.947 44 4 35.047 4 24C4 12.948 12.947 4 23.999 4C35.038 4 44 12.948 44 24Z" fill="#E60012"/>
<path d="M27.0938 28.4422C18.1488 27.1022 11.3268 30.9292 9.96381 31.7902L10.9948 33.0092C17.6418 29.2652 23.4778 29.5012 27.3598 30.0092C27.2528 29.5012 27.1838 28.9972 27.0938 28.4422ZM27.6108 31.2612C18.6838 30.0892 13.2768 33.2472 11.8038 33.9782L12.8538 35.2082C19.2238 31.8022 25.7298 32.3742 28.0248 32.8332L27.6108 31.2612ZM28.4398 34.0992C20.8288 32.3572 14.7688 35.6092 13.6578 36.1772L14.7078 37.4112C20.4138 34.3432 26.9768 35.0672 29.0588 35.6882C28.8328 35.2082 28.6298 34.6882 28.4398 34.0992ZM29.6098 36.9272C25.4588 35.8312 19.8908 36.1772 15.5298 38.3662L16.5618 39.5912C22.0318 37.0482 28.7908 38.0522 30.5318 38.6502C30.2788 38.2082 29.9788 37.6262 29.6098 36.9272ZM28.3268 21.0162C26.9958 29.9932 30.8328 36.8002 31.6758 38.1812L32.9108 37.1152C29.1508 30.4722 29.4048 24.6362 29.9128 20.7812C29.4048 20.8612 28.8668 20.9542 28.3268 21.0162ZM31.1648 20.5112C29.9778 29.4352 33.1338 34.8292 33.8758 36.3102L35.1018 35.2752C31.6928 28.8842 32.2608 22.3962 32.7398 20.1002C32.2448 20.2402 31.7188 20.3842 31.1648 20.5112ZM34.0038 19.6872C32.2608 27.2982 35.5118 33.3372 36.0808 34.4622L37.3028 33.4212C34.3068 27.6772 35.1148 21.0952 35.5858 19.0802C35.1018 19.2712 34.5578 19.4792 34.0038 19.6872ZM36.8268 18.4982C35.7158 22.6652 36.2408 28.1382 38.2548 32.6132L39.4808 31.5802C36.9378 26.0922 37.9408 19.3372 38.5388 17.5922C38.0978 17.8292 37.5258 18.1632 36.8268 18.4982ZM20.8888 19.5722C29.8638 20.8872 36.6718 17.0722 38.0338 16.2132L36.9898 14.9972C30.3408 18.7212 24.5078 18.4982 20.6358 17.9902C20.7308 18.4982 20.8108 19.0172 20.8888 19.5722ZM20.3818 16.7202C29.3108 17.9112 34.7198 14.7682 36.1758 14.0222L35.1298 12.7872C28.7718 16.1922 22.2698 15.6282 19.9698 15.1662C20.1128 15.6582 20.2428 16.1772 20.3818 16.7202ZM19.5578 13.8972C27.1708 15.6392 33.2268 12.3892 34.3228 11.8232L33.2928 10.5822C27.5478 13.5792 20.9698 12.7552 18.9368 12.3122C19.1438 12.7872 19.3548 13.3122 19.5578 13.8972ZM18.3708 11.0732C22.5398 12.1852 28.0118 11.6462 32.4838 9.63016L31.4218 8.41016C25.9658 10.9462 19.2098 9.95016 17.4528 9.34416C17.7068 9.79016 18.0218 10.3752 18.3708 11.0732ZM19.6708 26.9812C20.9878 18.0042 17.1638 11.2032 16.3068 9.83616L15.0888 10.8832C18.8288 17.5282 18.5888 23.3792 18.0818 27.2312C18.5888 27.1382 19.1138 27.0422 19.6708 26.9812ZM16.8318 27.4892C18.0058 18.5732 14.8648 13.1672 14.1208 11.6922L12.8808 12.7232C16.2908 19.1152 15.7208 25.6022 15.2608 27.8992C15.7538 27.7632 16.2768 27.6302 16.8318 27.4892ZM13.9908 28.3272C15.7398 20.7012 12.4898 14.6422 11.9268 13.5342L10.6948 14.5792C13.6938 20.3062 12.8678 26.9062 12.4048 28.9192C12.8968 28.7242 13.4228 28.5172 13.9908 28.3272ZM11.1688 29.5012C12.2658 25.3292 11.7578 19.8602 9.74381 15.3912L8.50781 16.4192C11.0568 21.9062 10.0438 28.6452 9.45881 30.4032C9.88781 30.1692 10.4568 29.8492 11.1688 29.5012Z" fill="#FFEA00"/>
</g>
<defs>
<clipPath id="clip0_538_13838">
<rect width="40" height="40" fill="white" transform="translate(4 4)"/>
</clipPath>
</defs>
</svg>
