<svg width="48" height="48" viewBox="0 0 48 48" fill="none" xmlns="http://www.w3.org/2000/svg">
<g clip-path="url(#clip0_538_13837)">
<path d="M24.0005 20.0474L20.5465 16.4226L24.0005 12.7991L26.7065 15.6389H29.5644C29.1526 12.6795 26.7343 10.4067 23.8014 10.4067C20.582 10.4067 17.9704 13.1483 17.9704 16.5312C17.9704 19.9077 20.582 22.6486 23.8014 22.6486C26.8029 22.6486 29.2715 20.2672 29.5942 17.2088H26.7065L24.0005 20.0474ZM17.3523 6.04224C17.3523 6.04224 19.2526 5.58962 19.186 7.64772C18.1036 8.96224 13.6777 13.9571 12.7589 15.6829C11.8421 17.4106 12.7589 18.6805 12.7589 18.6805C12.7589 18.6805 21.9444 27.5996 22.8619 29.3951C23.7794 31.1881 22.8619 33.2533 22.8619 33.2533L17.0458 41.0738H7.45301L12.2481 35.8242C12.2481 35.8242 13.3092 34.5769 12.2481 33.4661C11.1903 32.3552 4.59572 24.7901 4.59572 24.7901C4.59572 24.7901 3.25534 23.1135 4.59572 21.3619C5.93546 19.6116 17.3523 6.04224 17.3523 6.04224ZM30.6384 6.04224C30.6384 6.04224 28.7368 5.58962 28.7995 7.64772C29.8845 8.96224 34.3143 13.9571 35.2344 15.6829C36.1526 17.4106 35.2344 18.6805 35.2344 18.6805C35.2344 18.6805 26.0425 27.5995 25.1237 29.3958C24.2036 31.1888 25.1237 33.254 25.1237 33.254L30.9443 41.0745H40.5461L35.7471 35.8248C35.7471 35.8248 34.6861 34.5776 35.7471 33.4667C36.803 32.3552 43.4041 24.7901 43.4041 24.7901C43.4041 24.7901 44.7457 23.1135 43.4041 21.3619C42.0643 19.6116 30.6384 6.04224 30.6384 6.04224Z" fill="#C8161E"/>
</g>
<defs>
<clipPath id="clip0_538_13837">
<rect width="40" height="35.0736" fill="white" transform="translate(4 6)"/>
</clipPath>
</defs>
</svg>
