<svg width="48" height="48" viewBox="0 0 48 48" fill="none" xmlns="http://www.w3.org/2000/svg">
<g clip-path="url(#clip0_538_13839)">
<path fill-rule="evenodd" clip-rule="evenodd" d="M29.2723 17.3331C30.3127 16.0177 30.9418 14.2899 30.9216 12.3061C30.8823 10.3425 30.274 8.73189 29.2723 7.45576V17.3331ZM29.2723 43.6263V41.1329C31.6091 40.8383 33.9458 39.7389 35.5362 38.6587C39.3657 36.0082 42.4281 31.8442 44 27.6039C43.6066 29.7639 42.8799 31.7864 41.8596 33.6316C40.8579 35.497 39.6205 37.1463 38.1087 38.5997C35.7719 40.8377 32.4924 42.9001 29.2723 43.6263ZM29.2723 39.2081C30.5092 38.4426 31.4127 37.0088 31.5502 35.497C31.7859 33.2191 30.8431 31.1573 29.2723 29.7437V39.2081ZM29.2723 27.8385V19.3164C30.6663 17.4117 32.9638 16.1743 35.497 16.4296C38.2069 16.7046 40.583 19.2771 39.5818 22.0454C39.1688 23.184 38.1873 24.0483 36.754 23.9506C35.7916 23.8917 34.7315 23.1846 34.7315 22.1043C34.7315 21.2008 35.3404 20.5925 36.2433 20.5925C36.3415 20.5925 36.4397 20.5925 36.5183 20.6121C36.0862 20.6318 35.7523 21.005 35.7523 21.4764C35.7523 22.0263 36.204 22.3602 36.7344 22.3793C37.4218 22.3793 37.9712 21.7311 37.9712 21.083C37.9712 19.5711 36.3999 19.0997 35.222 19.3944C32.4929 20.1015 32.5715 24.2054 35.0458 25.1678C38.4039 26.4642 41.074 23.7935 41.2311 20.4157C41.3686 17.5879 40.0336 14.4268 38.6783 12.4632C36.3808 9.10564 32.9245 6.37605 29.2723 4.68745V4.37319C30.8038 4.78566 32.2769 5.3749 33.6512 6.12071C35.497 7.12242 37.1665 8.35927 38.6199 9.87166C40.8978 12.2673 42.9988 15.6451 43.7059 18.9437C44.8642 24.4029 42.0959 30.8043 35.6945 30.9025C32.9043 30.9407 30.6467 29.6842 29.2723 27.8385ZM18.7271 6.8278C19.2967 6.74924 19.8663 6.72959 20.4354 6.74924C23.7929 6.90637 26.4832 9.57704 25.1875 12.9346C24.2256 15.4285 20.1015 15.5071 19.4146 12.7578C19.12 11.5995 19.5913 10.0091 21.1032 10.0091C21.7513 10.0091 22.3989 10.5585 22.3793 11.2656C22.3793 11.796 22.0263 12.2281 21.4764 12.2281C21.0246 12.2281 20.6514 11.8942 20.6318 11.462C20.6121 11.5603 20.5931 11.6388 20.5931 11.737C20.5931 12.6405 21.2216 13.2489 22.1049 13.2489C23.2042 13.2489 23.9113 12.1888 23.9703 11.2264C24.0488 9.79309 23.1852 8.81102 22.0656 8.41875C20.8484 7.98664 19.6896 8.18306 18.7271 8.7723V18.2176C20.0824 19.455 21.9085 20.1812 23.8131 20.1419C25.9142 20.0829 27.9373 19.0425 29.2723 17.3337V7.45689C26.9945 4.57016 22.7531 3.49045 18.9634 4.29518C18.8843 4.29518 18.8063 4.31482 18.7277 4.33447V6.8278H18.7271ZM29.2723 4.37319V4.68745C28.7218 4.43211 28.173 4.19641 27.6224 4C28.173 4.09821 28.7218 4.21606 29.2723 4.37319ZM29.2723 19.3164V27.8385C28.389 26.66 27.8783 25.2666 27.8385 23.8131C27.7992 22.1638 28.3492 20.5925 29.2723 19.3164ZM29.2723 29.7437C27.9176 28.5259 26.0915 27.7801 24.1863 27.8385C22.0852 27.8778 20.0627 28.9188 18.7271 30.6467V40.524C21.005 43.3906 25.2469 44.4905 29.0563 43.6852L29.2723 43.6268V41.1335C28.7027 41.212 28.1337 41.2513 27.5635 41.2311C24.206 41.0549 21.5162 38.3848 22.812 35.0267C23.7744 32.5519 27.898 32.4739 28.5854 35.2029C28.8795 36.3814 28.4092 37.9516 26.8963 37.9516C26.2487 37.9516 25.6005 37.4218 25.6207 36.7147C25.6207 36.1838 25.9737 35.7327 26.5236 35.7327C26.9754 35.7327 27.348 36.0666 27.3677 36.4981C27.3873 36.4201 27.4069 36.3219 27.4069 36.2439C27.4069 35.3202 26.779 34.7119 25.8951 34.7119C24.7958 34.7119 24.0887 35.7719 24.0297 36.754C23.9512 38.1682 24.8148 39.1503 25.9344 39.5627C27.1522 39.9948 28.3104 39.7979 29.2729 39.2086V29.7437H29.2723ZM18.7271 43.6072V43.2923C19.2771 43.5477 19.827 43.7839 20.3764 43.9798C19.827 43.8816 19.2771 43.7441 18.7271 43.6072ZM18.7271 28.6438V20.1217C19.611 21.2996 20.1211 22.7138 20.1609 24.1667C20.2002 25.816 19.6503 27.3867 18.7271 28.6438ZM12.2079 9.49791L12.4828 9.3015C14.0536 8.22122 16.3904 7.1415 18.7271 6.82724V4.3339C16.4689 4.86422 14.1911 6.0225 12.2079 7.43668V9.49791ZM18.7271 8.77174V18.217C17.1564 16.8028 16.2136 14.7416 16.4493 12.4834C16.6064 10.9514 17.4903 9.53719 18.7271 8.77174ZM18.7271 20.1217C17.3528 18.2956 15.0946 17.0189 12.3061 17.0778H12.2079V22.5763C12.4632 22.6352 12.6989 22.7138 12.9537 22.812C15.4285 23.7744 15.5261 27.8783 12.7775 28.5652C12.6007 28.6039 12.4043 28.6438 12.2079 28.6438V31.5109L12.5019 31.5496C15.0351 31.8049 17.3326 30.5681 18.7266 28.6432V20.1217H18.7271ZM18.7271 30.6467V40.524C17.726 39.2479 17.1171 37.6367 17.0778 35.6737C17.0587 33.6899 17.6867 31.9626 18.7271 30.6467ZM18.7271 43.2923C16.3904 42.2126 14.1322 40.7002 12.2079 38.8747V40.5235C12.8953 41.0145 13.6018 41.4466 14.3482 41.8591C15.7226 42.6049 17.1957 43.1941 18.7271 43.6066V43.2923ZM12.2079 27.3284V26.7582C12.2275 26.6796 12.2471 26.582 12.2471 26.5029C12.2471 26.4052 12.2275 26.3267 12.2079 26.2481V24.2845C12.8162 24.5988 13.2679 25.1482 13.2679 25.8749C13.2679 26.6016 12.856 27.1516 12.2079 27.3284ZM9.8913 9.38062C8.37891 10.8139 7.14206 12.4828 6.14035 14.3286C5.11956 16.1939 4.39283 18.2164 4 20.3568C5.55111 16.2136 8.49676 12.1489 12.2079 9.49791V7.43668C11.3638 8.04501 10.5978 8.71281 9.8913 9.38062ZM12.2079 17.0778V22.5763C9.20329 21.909 6.90581 24.4417 6.76832 27.5641C6.63083 30.3919 7.96644 33.553 9.32114 35.5172C10.1455 36.7147 11.1276 37.8343 12.2079 38.8747V40.5235C11.2062 39.7967 10.2437 38.992 9.38006 38.0879C7.10222 35.7125 5.00115 32.3156 4.29406 29.0361C3.15598 23.5971 5.88501 17.2349 12.2079 17.0778ZM12.2079 24.2845C11.9132 24.1274 11.5597 24.0292 11.2454 24.0095C9.81217 23.931 8.8301 24.7952 8.41763 25.9142C7.45577 28.6039 9.63484 31.0978 12.2073 31.5109V28.6438C11.1669 28.7027 10.0277 28.1724 10.0277 26.8968C10.0277 26.2285 10.5776 25.5809 11.2651 25.5999C11.7168 25.5999 12.09 25.8553 12.2079 26.2481V24.2845ZM12.2079 26.7582C12.1097 27.0927 11.8347 27.3284 11.4811 27.3671L11.7561 27.3867C11.9132 27.3867 12.0704 27.3671 12.2079 27.3284V26.7582Z" fill="#D80C24"/>
</g>
<defs>
<clipPath id="clip0_538_13839">
<rect width="40" height="39.9798" fill="white" transform="translate(4 4)"/>
</clipPath>
</defs>
</svg>
