<svg width="48" height="48" viewBox="0 0 48 48" fill="none" xmlns="http://www.w3.org/2000/svg">
<g clip-path="url(#clip0_538_13845)">
<path d="M14.5519 23.2285C15.8889 23.2285 17.1729 23.4945 18.3579 23.9555C18.9219 24.1915 19.4289 24.5335 19.8529 24.9725L22.8529 28.0885C23.1679 28.3565 23.5709 28.5215 24.0049 28.5215C24.4349 28.5215 24.8249 28.3685 25.1369 28.0995L28.2319 24.8945C28.5859 24.5335 29.0019 24.2525 29.4609 24.0375C30.6989 23.5165 32.0469 23.2285 33.4649 23.2285C35.4049 23.2285 37.2179 23.7565 38.7879 24.6945L27.1919 36.7505C26.3499 37.5445 25.2349 38.0345 24.0029 38.0345C22.7729 38.0345 21.6539 37.5445 20.8239 36.7505L9.21094 24.7075C10.7829 23.7745 12.6009 23.2285 14.5519 23.2285Z" fill="#6BB42A"/>
<path d="M27.426 11.437C26.569 10.527 25.371 9.958 24.042 9.958C22.714 9.958 21.521 10.528 20.666 11.437L11.113 21.35C11.73 21.236 12.356 21.173 12.999 21.173C15.328 21.173 17.48 21.951 19.238 23.259C19.298 23.3 19.371 23.33 19.448 23.33C19.55 23.33 19.636 23.291 19.701 23.222H19.703L22.88 19.925H22.882C23.195 19.65 23.6 19.479 24.041 19.479C24.488 19.479 24.893 19.65 25.207 19.925H25.211L28.39 23.222C28.456 23.291 28.545 23.33 28.641 23.33C28.721 23.33 28.791 23.3 28.848 23.259H28.852C30.612 21.951 32.76 21.173 35.096 21.173C35.734 21.173 36.352 21.236 36.958 21.35L27.426 11.437ZM24.004 43.997C12.971 43.997 4 35.018 4 23.997C4 12.965 12.971 4 24.004 4C35.03 4 44 12.965 44 23.997C44 35.018 35.03 43.997 24.004 43.997ZM24.004 7.082C14.668 7.082 7.085 14.669 7.085 23.997C7.085 33.323 14.668 40.917 24.004 40.917C33.327 40.917 40.918 33.323 40.918 23.997C40.918 14.669 33.327 7.082 24.004 7.082Z" fill="#6BB42A"/>
</g>
<defs>
<clipPath id="clip0_538_13845">
<rect width="40" height="39.997" fill="white" transform="translate(4 4)"/>
</clipPath>
</defs>
</svg>
