<svg width="48" height="48" viewBox="0 0 48 48" fill="none" xmlns="http://www.w3.org/2000/svg">
<g clip-path="url(#clip0_538_13841)">
<path d="M24.0596 2C24.0596 2 17.166 4.98284 12.3178 8.48252C10.4096 9.86255 8.63335 11.3388 7.17372 13.1971C6.50657 14.0419 6.28261 14.8926 6.49707 15.95C6.84816 17.6669 8.67197 19.3036 9.85892 20.3438C10.5403 20.9367 11.1522 21.4208 11.9239 21.9567C12.1853 22.1385 13.6319 23.152 14.2735 23.512C14.2735 23.512 19.2221 20.7335 21.7267 17.9116C24.0258 15.5864 24.0602 12.5038 24.0602 12.0689C24.0596 11.6382 24.0596 2 24.0596 2Z" fill="url(#paint0_linear_538_13841)"/>
<path d="M24.6367 45.926C24.6367 45.926 31.5303 42.9432 36.378 39.4435C38.2879 38.0635 40.0618 36.5872 41.5215 34.7307C42.1874 33.8854 42.4132 33.0341 42.1993 31.9766C41.8476 30.2591 40.022 28.6225 38.8368 27.5834C38.156 26.9894 37.5429 26.5064 36.7718 25.9693C36.5104 25.7882 35.0639 24.7753 34.4229 24.4141C34.4229 24.4141 29.4731 27.1931 26.9679 30.0138C24.67 32.339 24.6367 35.4234 24.6367 35.8577C24.6367 36.2902 24.6367 45.926 24.6367 45.926Z" fill="url(#paint1_linear_538_13841)"/>
<path d="M24.7322 12.0642C24.7322 12.0642 24.5849 14.9454 26.6689 17.4792C27.1038 18.0085 27.626 18.5117 28.1636 19.0487C28.5878 19.4735 29.1985 19.9351 29.7159 20.3533C29.9957 20.5772 30.3795 20.8672 30.6266 21.0371C33.0819 22.7207 34.9366 23.8322 37.2981 25.5092C38.5005 26.3611 39.6839 27.2552 40.7348 28.2972C41.2772 28.8319 41.7994 29.4367 42.2396 30.1175C42.561 30.6165 42.8711 31.1529 42.9614 31.7274C43 31.9787 43.0475 32.2021 43.0125 32.5347C42.9703 32.9274 42.8871 33.3647 43.1532 32.5324C43.3404 31.9407 43.4901 31.1458 43.5709 29.9167C43.5709 29.9167 43.8489 26.7829 43.8222 25.6263C43.8049 24.8629 43.9303 24.112 43.704 21.2949C43.3653 17.0502 42.877 14.8237 41.7209 13.2999C37.0307 7.07635 24.737 2 24.737 2L24.7322 12.0642Z" fill="url(#paint2_linear_538_13841)"/>
<path d="M24.0777 35.9364C24.0777 35.9364 24.1312 34.794 23.669 33.2756C23.4016 32.3993 22.908 31.4149 22.1131 30.4602C21.6753 29.9339 21.3224 29.6101 20.7865 29.0749C20.3624 28.6519 19.5883 28.0442 19.072 27.6265C18.7928 27.4008 18.4084 27.1109 18.1595 26.941C15.7054 25.2603 13.8507 24.1482 11.4893 22.4706C10.2863 21.6163 9.10289 20.724 8.05198 19.6855C7.25592 18.8978 6.60601 18.0311 6.11055 17.0194C5.89371 16.5785 5.81708 15.9904 5.83728 15.5288C5.8551 15.1266 5.99411 14.6223 5.6846 15.5508C5.49865 16.1092 5.36499 16.9261 5.27944 18.0655C5.27944 18.0655 4.98835 21.1963 5.01627 22.3535C5.03349 23.1163 4.91527 23.8649 5.13746 26.6861C5.47608 30.9296 5.92698 32.9417 7.21671 34.7625C11.5927 40.9332 24.0723 46.0006 24.0723 46.0006L24.0777 35.9364Z" fill="url(#paint3_linear_538_13841)"/>
</g>
<defs>
<linearGradient id="paint0_linear_538_13841" x1="24.0315" y1="5.2272" x2="9.90674" y2="20.3859" gradientUnits="userSpaceOnUse">
<stop stop-color="#FFF100"/>
<stop offset="1" stop-color="#E6A600"/>
</linearGradient>
<linearGradient id="paint1_linear_538_13841" x1="24.0452" y1="40.8019" x2="39.405" y2="28.3834" gradientUnits="userSpaceOnUse">
<stop stop-color="#FFF100"/>
<stop offset="1" stop-color="#E6A600"/>
</linearGradient>
<linearGradient id="paint2_linear_538_13841" x1="43.4004" y1="30.0321" x2="33.3607" y2="14.1073" gradientUnits="userSpaceOnUse">
<stop stop-color="#F7C9DD"/>
<stop offset="0.1887" stop-color="#DCA0C3"/>
<stop offset="0.5802" stop-color="#A95592"/>
<stop offset="0.8605" stop-color="#8C267C"/>
<stop offset="1" stop-color="#810E75"/>
</linearGradient>
<linearGradient id="paint3_linear_538_13841" x1="5.43562" y1="17.9102" x2="15.4755" y2="33.8353" gradientUnits="userSpaceOnUse">
<stop stop-color="#F7C9DD"/>
<stop offset="0.1887" stop-color="#DCA0C3"/>
<stop offset="0.5802" stop-color="#A95592"/>
<stop offset="0.8605" stop-color="#8C267C"/>
<stop offset="1" stop-color="#810E75"/>
</linearGradient>
<clipPath id="clip0_538_13841">
<rect width="38.8423" height="44" fill="white" transform="translate(5 2)"/>
</clipPath>
</defs>
</svg>
