<svg width="48" height="48" viewBox="0 0 48 48" fill="none" xmlns="http://www.w3.org/2000/svg">
<g clip-path="url(#clip0_538_13846)">
<path d="M33.446 5.198C32.802 4.553 31.511 4 30.59 4H17.364C16.489 4 15.198 4.553 14.553 5.198L11.926 7.779L5.198 14.553C4.553 15.198 4 16.442 4 17.364V21.281C4 22.064 4.784 23.124 5.981 23.124H21.189C20.958 23.17 20.774 23.216 20.543 23.308C19.76 23.677 19.207 24.46 19.207 25.427C19.207 26.35 19.76 27.132 20.498 27.501C20.774 27.594 21.051 27.687 21.281 27.687H33.953C32.432 31.742 28.562 34.644 24 34.644C18.562 34.644 14.092 30.543 13.447 25.244H4V30.59C4 31.512 4.553 32.802 5.198 33.447L9.437 37.732L14.552 42.801C15.198 43.446 16.488 44 17.364 44H30.59C31.511 44 32.802 43.446 33.446 42.802L42.801 33.448C43.446 32.802 44 31.512 44 30.59V27.502C44 26.442 43.309 24.922 41.834 24.922H26.811L27.226 24.737C28.009 24.368 28.609 23.585 28.609 22.617C28.609 21.419 27.687 20.451 26.489 20.359H14.046C15.521 16.304 19.438 13.401 24 13.401C29.438 13.401 33.953 17.548 34.553 22.848H44V17.364C44 16.489 43.446 15.198 42.802 14.553L33.446 5.198Z" fill="#009DE1"/>
</g>
<defs>
<clipPath id="clip0_538_13846">
<rect width="40" height="40" fill="white" transform="translate(4 4)"/>
</clipPath>
</defs>
</svg>
