<svg width="48" height="48" viewBox="0 0 48 48" fill="none" xmlns="http://www.w3.org/2000/svg">
<g clip-path="url(#clip0_538_13847)">
<path d="M24.0004 43.9988C35.0463 43.9988 44.0008 35.0443 44.0008 23.9984C44.0008 12.9525 35.0463 3.99805 24.0004 3.99805C12.9545 3.99805 4 12.9525 4 23.9984C4 35.0443 12.9545 43.9988 24.0004 43.9988Z" fill="white"/>
<path d="M40.6594 35.0501C26.3564 32.9837 12.82 29.9425 13.2156 26.492C13.5195 23.8719 23.3994 23.6906 22.9285 22.3284C22.4237 20.8743 8.28926 20.5599 7.62805 18.0865C6.99843 15.741 16.0576 15.3491 16.6082 14.1117C17.0528 13.1052 11.0748 12.5207 7.78 12.2988C5.31653 15.7021 3.99336 19.7978 4.00003 23.9991C4.00003 35.0456 12.9539 43.9994 23.9966 43.9994C30.4779 44.0002 37.2442 40.5745 40.6594 35.0501Z" fill="#009944"/>
<path d="M22.9751 25.8817C21.8551 26.1525 21.9393 26.8506 23.197 27.1643C25.4929 27.8247 34.6588 29.278 43.1756 29.688C43.7217 27.841 43.9989 25.9249 43.9986 23.9989C43.9978 12.9561 35.0432 4 23.9967 4C17.5929 4 11.894 7.01194 8.23438 11.6931C13.0442 11.7886 21.7076 12.2039 22.3545 13.867C23.2512 16.1711 13.2465 16.0952 13.6783 17.5154C14.1665 19.1139 30.3214 19.1492 31.0797 22.177C31.534 23.9883 27.6834 24.7556 22.9751 25.8817Z" fill="#004EA2"/>
</g>
<defs>
<clipPath id="clip0_538_13847">
<rect width="40" height="40" fill="white" transform="translate(4 4)"/>
</clipPath>
</defs>
</svg>
