<svg width="48" height="48" viewBox="0 0 48 48" fill="none" xmlns="http://www.w3.org/2000/svg">
<g clip-path="url(#clip0_538_13840)">
<path fill-rule="evenodd" clip-rule="evenodd" d="M12.7348 29.9844L10.1404 29.9854C10.1102 28.6907 11.143 27.7631 12.2894 27.777H15.4512C15.8372 27.776 17.4475 28.0969 17.5376 29.9344V33.3421C17.5376 33.6789 17.6564 34.0919 17.8669 34.4435H15.5336C15.3309 34.125 15.2512 33.8222 15.2003 33.4574C14.4258 34.0572 13.314 34.5056 11.9635 34.4356C10.8567 34.4215 10.1738 33.618 10.1334 32.7015C10.1334 31.7662 10.704 31.1637 11.4501 30.9442C12.3983 30.6668 14.1501 30.3612 14.9655 30.0618V29.9834H14.9667C14.935 29.6043 14.6821 29.3353 14.305 29.2591H13.4105C12.9748 29.3239 12.7412 29.6763 12.7348 29.9844ZM14.9548 31.3151L13.2101 31.8112C12.7904 31.9258 12.62 32.4103 12.8125 32.7592C12.9458 33.0014 13.168 33.1387 13.5654 33.1115C14.7381 32.948 15.0884 31.9406 14.9548 31.3151ZM6.2835 25.5547C7.6281 25.6012 8.42213 26.7174 8.38527 27.768C8.38527 28.4742 7.88643 29.4452 6.92141 29.7317C7.77112 29.8582 8.75742 30.5906 8.88559 31.9154C8.95364 33.1969 8.04553 34.3514 6.63264 34.4435H0V25.5547H6.2835ZM2.586 27.4122V29.0409H4.78303C5.3608 28.9795 5.54786 28.5351 5.54613 28.2001C5.53995 27.7797 5.17076 27.4399 4.78303 27.4122H2.586ZM2.586 30.7631V32.533H5.04581C5.60156 32.533 5.95119 32.075 5.9267 31.6066C5.8824 31.1006 5.51199 30.7631 5.04581 30.7631H2.586ZM21.6971 34.4435H19.1111V27.7923H21.6971V28.7796C22.1761 28.0986 22.917 27.7725 23.7394 27.7774C25.0172 27.7406 26.154 28.7061 26.2225 29.9918V34.4432H23.6286V30.8031C23.6286 30.4117 23.3129 29.874 22.6685 29.8649C22.0747 29.87 21.7124 30.3493 21.6968 30.8031V34.4435H21.6971ZM32.6795 27.0364H35.5555L32.7797 29.999L35.5555 34.441H32.8438L31.1528 31.735L30.0524 32.8646V34.4435H27.4669V25.5547H30.0524V29.7948L32.6795 27.0364Z" fill="black"/>
<path fill-rule="evenodd" clip-rule="evenodd" d="M34.7231 16.5371C35.6174 17.4375 36.7059 18.8848 37.3141 20.7948C38.3571 23.7055 38.6359 26.8178 38.2328 29.9135C37.9631 31.7144 38.648 33.5442 39.3661 34.4434C39.5101 33.4801 40.0968 31.873 42.1246 31.2942C43.6256 30.8402 45.7449 30.7194 47.9998 31.8923C46.964 30.6345 45.5823 29.8536 44.1722 29.5374C43.072 29.3088 41.8611 28.4917 41.3397 27.0684C40.586 24.5997 38.9395 20.1646 34.7231 16.5371Z" fill="#F6AB00"/>
<path fill-rule="evenodd" clip-rule="evenodd" d="M27.2009 20.4025C27.2746 20.4693 27.357 20.5507 27.451 20.65C28.1414 21.3777 29.079 21.7323 30.0165 21.8968C30.6648 22.0106 31.2136 21.954 31.7912 21.8575C33.0452 21.6952 35.2877 21.8265 37.2029 22.6476V22.6463L37.2 22.6263C36.5442 17.7564 32.3719 14 27.3241 14C25.5514 14 23.8872 14.4635 22.4448 15.2756C22.4698 17.9682 24.4031 19.4432 25.7294 19.8784C26.0013 20.6514 26.6585 21.7981 27.8979 22.4766C27.7259 22.2088 27.2932 21.4509 27.2009 20.4025Z" fill="#EA5504"/>
</g>
<defs>
<clipPath id="clip0_538_13840">
<rect width="48" height="20.444" fill="white" transform="translate(0 14)"/>
</clipPath>
</defs>
</svg>
