<svg width="48" height="48" viewBox="0 0 48 48" fill="none" xmlns="http://www.w3.org/2000/svg">
<g clip-path="url(#clip0_538_13842)">
<path d="M31.195 3.04586C29.3359 1.11003 25.5385 0.845902 22.5961 1.064C17.4796 1.60249 14.8287 3.60932 13.024 4.6559L13.0177 4.67214C12.6594 4.92995 12.3159 5.2022 11.9817 5.48498C5.11132 11.2913 3.18602 22.2875 7.74297 29.2691C5.22985 22.3735 9.20891 15.8194 11.6291 13.4997C15.4523 9.43577 22.3263 8.40723 26.9268 9.64514C29.2146 10.3229 31.4281 9.0495 32.1056 6.75237C32.1838 6.49005 32.2356 6.22562 32.2629 5.9621C32.309 5.03615 32.0734 3.96098 31.195 3.04586ZM28.4382 46.1889L18.667 36.4171L28.4382 26.6471L38.2109 36.4171L28.4382 46.1889Z" fill="#FABE00"/>
<path d="M43.6016 16.489C42.4143 14.0839 38.8735 12.682 36.0021 12.0028C30.9656 10.9697 27.8286 12.0807 25.795 12.5307L25.7821 12.5446C25.3591 12.6808 24.9512 12.8385 24.5475 13.0069C16.2443 16.4629 11.0824 26.3604 13.3166 34.3971C13.0059 27.0632 18.783 22.018 21.788 20.5391C26.6626 17.8205 33.5233 18.92 37.5345 21.4891C39.5122 22.8275 42.0058 22.2848 43.3484 20.3005C43.5018 20.0749 43.6308 19.8363 43.7325 19.5936C44.0595 18.7233 44.1627 17.6298 43.6016 16.489ZM16.9118 11.8009C14.2369 11.5897 11.2231 13.9145 9.16578 16.0366C5.70294 19.8339 5.05315 23.0991 4.40336 25.078L4.40577 25.0963C4.31071 25.5271 4.237 25.9573 4.17473 26.3938C2.89862 35.2959 8.76418 44.7913 16.8101 46.9819C10.3532 43.4986 8.97145 35.9566 9.23678 32.6156C9.39231 27.0358 13.8461 21.7015 18.1058 19.5674C20.2667 18.5539 21.0741 16.1337 20.057 13.9663C19.9382 13.7157 19.8025 13.4846 19.647 13.2732C19.0664 12.55 18.1768 11.9014 16.9118 11.8009Z" fill="#0A2D83"/>
</g>
<defs>
<clipPath id="clip0_538_13842">
<rect width="40" height="45.9817" fill="white" transform="translate(4 1)"/>
</clipPath>
</defs>
</svg>
