<svg width="48" height="48" viewBox="0 0 48 48" fill="none" xmlns="http://www.w3.org/2000/svg">
<g clip-path="url(#clip0_538_13843)">
<path d="M25.3974 19.4591C24.5541 19.5196 23.3819 19.5377 22.6019 19.4614L20.2399 19.28C19.4707 19.055 19.0265 19.4998 19.252 20.2674L19.4311 22.6299C19.4899 23.4291 19.5069 24.6183 19.4311 25.4266L19.2508 27.788C19.0259 28.5561 19.4701 29.002 20.2399 28.7771L22.6019 28.5962C23.4497 28.5431 24.5886 28.5267 25.3969 28.5973L27.76 28.7771C28.5275 29.0009 28.9723 28.5561 28.748 27.788L28.5671 25.4266C28.4959 24.6364 28.4959 23.4449 28.5671 22.6294L28.748 20.2674C28.974 19.4998 28.5281 19.0544 27.76 19.2788L25.3974 19.4591Z" fill="url(#paint0_linear_538_13843)"/>
<path d="M23.9522 4C21.7439 4 19.621 4.35834 17.6354 5.01793C16.7588 5.30958 15.9054 5.66 15.0881 6.06299C12.149 7.51443 9.61917 9.66334 7.71387 12.2938C10.2725 11.7953 13.0307 11.481 15.9184 11.3906C16.4853 11.3742 17.0578 11.3646 17.6349 11.3657C21.1454 11.3646 24.4953 11.6941 27.5582 12.2938C37.1971 14.1793 43.9948 18.7269 43.9993 24.041C43.996 12.972 35.0217 4.00057 23.9522 4Z" fill="url(#paint1_linear_538_13843)"/>
<path d="M43.9991 24.0472V24.041C43.9963 12.972 35.022 4.00057 23.9525 4C21.7442 4 19.6213 4.35834 17.6357 5.01793C21.6606 6.35238 25.1162 8.93083 27.5579 12.2938C29.9504 15.5974 31.3645 19.6561 31.3645 24.0472C31.3634 28.4371 29.9515 32.4975 27.5579 35.7989C37.1957 33.9145 43.9946 29.3652 44.0002 24.0528L43.9991 24.0472Z" fill="url(#paint2_linear_538_13843)"/>
<path d="M24.0476 44.0552C26.2553 44.0552 28.3788 43.6963 30.3643 43.0373C31.2409 42.7456 32.0944 42.3946 32.9117 41.9917C35.8502 40.5402 38.3806 38.3907 40.2859 35.7614C37.7272 36.2594 34.969 36.5742 32.0814 36.6646C31.5145 36.681 30.942 36.69 30.3654 36.69C26.8544 36.69 23.5044 36.36 20.4416 35.7614C10.8032 33.8759 4.0055 29.3277 4.00098 24.0137C4.0038 35.0826 12.9781 44.0541 24.0476 44.0552Z" fill="url(#paint3_linear_538_13843)"/>
<path d="M4.00113 24.0056V24.0118C4.00396 35.0808 12.9783 44.0522 24.0478 44.0534C26.2554 44.0534 28.3789 43.6945 30.3645 43.0354C26.3391 41.6999 22.8834 39.122 20.4418 35.7596C18.0493 32.4554 16.6357 28.3967 16.6357 24.0056C16.6368 19.6162 18.0487 15.5558 20.4418 12.2539C10.8045 14.1383 4.00565 18.6871 4 24L4.00113 24.0056Z" fill="url(#paint4_linear_538_13843)"/>
</g>
<defs>
<linearGradient id="paint0_linear_538_13843" x1="23.9997" y1="19.6055" x2="23.9997" y2="28.3933" gradientUnits="userSpaceOnUse">
<stop stop-color="#FABE00"/>
<stop offset="0.221" stop-color="#F6A800"/>
<stop offset="0.562" stop-color="#F18900"/>
<stop offset="0.834" stop-color="#EE7400"/>
<stop offset="1" stop-color="#ED6C00"/>
</linearGradient>
<linearGradient id="paint1_linear_538_13843" x1="27.7854" y1="16.14" x2="18.5415" y2="24.2891" gradientUnits="userSpaceOnUse">
<stop stop-color="#FABE00"/>
<stop offset="0.221" stop-color="#F6A800"/>
<stop offset="0.562" stop-color="#F18900"/>
<stop offset="0.834" stop-color="#EE7400"/>
<stop offset="1" stop-color="#ED6C00"/>
</linearGradient>
<linearGradient id="paint2_linear_538_13843" x1="34.1346" y1="8.79745" x2="21.8516" y2="32.8898" gradientUnits="userSpaceOnUse">
<stop stop-color="#ED6C00"/>
<stop offset="0.037" stop-color="#EC6900"/>
<stop offset="0.459" stop-color="#E13F09"/>
<stop offset="0.794" stop-color="#DA1A0E"/>
<stop offset="1" stop-color="#D7000F"/>
</linearGradient>
<linearGradient id="paint3_linear_538_13843" x1="20.2144" y1="31.9146" x2="29.4583" y2="23.7655" gradientUnits="userSpaceOnUse">
<stop stop-color="#FABE00"/>
<stop offset="0.221" stop-color="#F6A800"/>
<stop offset="0.562" stop-color="#F18900"/>
<stop offset="0.834" stop-color="#EE7400"/>
<stop offset="1" stop-color="#ED6C00"/>
</linearGradient>
<linearGradient id="paint4_linear_538_13843" x1="13.8651" y1="39.2554" x2="26.1481" y2="15.163" gradientUnits="userSpaceOnUse">
<stop stop-color="#ED6C00"/>
<stop offset="0.037" stop-color="#EC6900"/>
<stop offset="0.459" stop-color="#E13F09"/>
<stop offset="0.794" stop-color="#DA1A0E"/>
<stop offset="1" stop-color="#D7000F"/>
</linearGradient>
<clipPath id="clip0_538_13843">
<rect width="40" height="40.0543" fill="white" transform="translate(4 4)"/>
</clipPath>
</defs>
</svg>
