<svg width="49" height="40" viewBox="0 0 49 40" fill="none" xmlns="http://www.w3.org/2000/svg">
<g clip-path="url(#clip0_637_5590)">
<path d="M23.3899 12.0812C22.2428 12.0812 21.3155 11.1471 21.3155 9.99384C21.3155 8.84053 22.2428 7.90649 23.3899 7.90649C24.537 7.90649 25.4643 8.84053 25.4643 9.99384C25.4643 11.1471 24.537 12.0812 23.3899 12.0812ZM11.6949 12.0812C10.5479 12.0812 9.62053 11.1471 9.62053 9.99384C9.62053 8.84053 10.5479 7.90649 11.6949 7.90649C12.842 7.90649 13.7694 8.84053 13.7694 9.99384C13.7694 11.1471 12.842 12.0812 11.6949 12.0812ZM17.5402 0C7.85376 0 0 6.58216 0 14.6991C0 19.1282 2.36448 23.1187 6.06062 25.8112C6.35948 26.0261 6.55286 26.3725 6.55286 26.7716C6.55286 26.9031 6.52649 27.0215 6.49133 27.1443C6.19687 28.2537 5.72221 30.0254 5.70024 30.1087C5.66508 30.249 5.60794 30.3937 5.60794 30.5384C5.60794 30.8629 5.86725 31.126 6.19247 31.126C6.31993 31.126 6.42101 31.0778 6.53088 31.0164L10.3721 28.7887C10.6621 28.6221 10.9654 28.5169 11.3038 28.5169C11.484 28.5169 11.6554 28.5432 11.818 28.5958C13.6111 29.1132 15.5405 29.4027 17.5446 29.4027C17.8698 29.4027 18.1907 29.3939 18.5071 29.3807C18.1247 28.2318 17.9182 27.0259 17.9182 25.7761C17.9182 18.3695 25.0819 12.3662 33.9158 12.3662C34.2366 12.3662 34.3157 12.375 34.6321 12.3925C33.3093 5.37185 26.2949 0 17.5402 0Z" fill="white"/>
<path d="M38.7899 23.6927C37.7835 23.6927 36.966 22.8727 36.966 21.8597C36.966 20.8467 37.7835 20.0223 38.7899 20.0223C39.7963 20.0223 40.6138 20.8423 40.6138 21.8597C40.6138 22.877 39.7963 23.6927 38.7899 23.6927ZM29.0419 23.6927C28.0355 23.6927 27.218 22.8727 27.218 21.8597C27.218 20.8467 28.0355 20.0223 29.0419 20.0223C30.0484 20.0223 30.8658 20.8423 30.8658 21.8597C30.8658 22.877 30.0484 23.6927 29.0419 23.6927ZM43.4837 35.0372C46.5646 32.7919 48.5335 29.468 48.5335 25.7756C48.5335 19.0093 41.9894 13.5234 33.9159 13.5234C25.8424 13.5234 19.2983 19.0093 19.2983 25.7756C19.2983 32.542 25.8424 38.0279 33.9159 38.0279C35.5816 38.0279 37.1945 37.7867 38.6888 37.3569C38.8251 37.3175 38.9701 37.2911 39.1195 37.2911C39.4008 37.2911 39.6557 37.3788 39.8974 37.5148L43.0969 39.3741C43.1848 39.4267 43.2727 39.4662 43.3782 39.4662C43.6463 39.4662 43.8661 39.2469 43.8661 38.975C43.8661 38.8523 43.8177 38.7339 43.787 38.6155C43.7694 38.5453 43.3738 37.0675 43.1277 36.1422C43.1013 36.037 43.075 35.9405 43.075 35.8309C43.075 35.502 43.2376 35.2082 43.4837 35.0328" fill="white"/>
</g>
<defs>
<clipPath id="clip0_637_5590">
<rect width="48.5333" height="39.4667" fill="white"/>
</clipPath>
</defs>
</svg>
