<svg width="266" height="40" viewBox="0 0 266 40" fill="none" xmlns="http://www.w3.org/2000/svg">
<path d="M44.0198 4.61523H6.07507C5.2682 4.61783 4.61547 5.27266 4.61548 6.07954V33.9249C4.61548 34.312 4.76926 34.6832 5.04298 34.9569C5.31671 35.2307 5.68797 35.3844 6.07507 35.3844H42.6921C43.0763 35.387 43.4174 35.1388 43.5331 34.7723C43.6487 34.4059 43.512 34.0068 43.1959 33.7883L35.1916 28.1854C34.9235 27.9983 34.5739 27.9752 34.2835 28.1253C33.9931 28.2754 33.8098 28.5741 33.8074 28.901V31.34C33.8074 31.8236 33.4153 32.2157 32.9316 32.2157H8.75885C8.22057 32.2157 7.78421 31.7794 7.78421 31.2411V8.76802C7.78421 8.22974 8.22057 7.79339 8.75885 7.79339H41.3361C41.8743 7.79339 42.3107 8.22974 42.3107 8.76802V27.9076L45.4794 30.1299V6.08896C45.482 5.27947 44.8293 4.62042 44.0198 4.61523Z" fill="#0EAF63"/>
<path d="M12.4409 13.1797C12.2086 13.1797 11.9859 13.272 11.8216 13.4362C11.6574 13.6004 11.5651 13.8232 11.5651 14.0554V15.5715C11.5624 15.9926 11.8976 16.3382 12.3185 16.3484H37.6354C38.1198 16.3458 38.5112 15.9524 38.5112 15.468V14.0554C38.5112 13.5718 38.1191 13.1797 37.6354 13.1797L12.4409 13.1797Z" fill="#0EAF63"/>
<path d="M63.5532 14.7432L63.48 14.9443C63.0748 16.0442 62.5832 17.1175 62.0054 18.1084V33.168H59.5786V21.5205C58.8939 22.3106 58.1492 23.063 57.3452 23.7939L57.0698 24.0449L56.3071 21.5371L56.4097 21.4375C58.6623 19.2426 60.2766 16.7618 61.2856 13.9365L61.3735 13.6895L63.5532 14.7432ZM78.6714 6.11621L78.6431 6.33984C78.4518 7.81527 78.2343 9.18803 78.0161 10.4814H83.4321V12.9082H82.2583C82.1254 17.7462 81.4062 21.8722 80.0659 25.3066C81.1279 27.6359 82.3819 29.4445 83.8218 30.7432L83.9731 30.8799L82.5044 33.0645L82.3022 32.8672C80.9967 31.5894 79.8529 29.9279 78.8911 27.8887C77.8067 29.8873 76.4663 31.579 74.9175 32.9619L74.7104 33.1465L73.3433 30.9883L73.4985 30.8555C75.2569 29.3523 76.6545 27.4264 77.689 25.0439C76.9852 23.1256 76.3756 20.9537 75.8599 18.5508C75.4175 19.6569 74.9548 20.6523 74.4722 21.5693L74.3052 21.8877L72.8198 20.0312L72.8853 19.8975C72.9892 19.6841 73.0909 19.4658 73.1909 19.2432H63.9282V16.9043H73.5073V18.5078C74.8521 15.2413 75.8037 11.0623 76.3364 5.96387L76.3628 5.71289L78.6714 6.11621ZM72.3687 27.3242C73.0609 26.6968 73.7736 26.0257 74.5063 25.293L74.8013 24.9971L75.3696 27.3086L75.2817 27.4014C73.7821 28.9892 72.2499 30.2861 70.7144 31.29L70.4937 31.4346L69.4019 29.252L69.5894 29.1396C69.8176 29.0026 69.979 28.7771 70.0298 28.5039V23.4473H67.4058V24.5283C67.3468 28.2127 66.4029 30.9962 64.5649 32.8643L64.4097 33.0215L62.5063 31.3701L62.6821 31.1914C64.1734 29.672 64.95 27.4612 64.979 24.5234V21.0781H72.3687V27.3242ZM77.5444 12.9082C77.5073 13.0648 77.4706 13.2199 77.4351 13.3721V13.374C77.3259 13.8413 77.2209 14.2916 77.103 14.7285C77.5451 17.4206 78.1014 19.8317 78.772 21.9209C79.4892 19.2861 79.8855 16.2754 79.978 12.9082H77.5444ZM63.4438 6.91992L63.3608 7.12695C62.0905 10.288 60.0528 13.0912 57.2544 15.5361L56.9829 15.7734L56.188 13.2441L56.2964 13.1436C58.4911 11.0932 60.104 8.75755 61.1118 6.1084L61.2026 5.87207L63.4438 6.91992ZM70.0327 12.4961H71.606V7.44629H73.7993V14.7764H63.9868V7.44629H66.2095V12.4961H67.7817V5.86914H70.0327V12.4961Z" fill="#393937"/>
<path d="M94.2647 6.9873L94.2032 7.18457C93.5049 9.42478 92.6623 11.5227 91.6456 13.5059V33.5352H89.1016V17.6445C88.338 18.7206 87.5116 19.7705 86.6221 20.7588L86.3419 21.0703L85.5147 18.3018L85.5928 18.2051C88.4325 14.6989 90.4915 10.6701 91.7969 6.14453L91.8731 5.88086L94.2647 6.9873ZM111.116 33.4766H108.602V31.9004H98.2715V33.4766H95.7579V22.876H111.116V33.4766ZM98.2715 29.4443H108.602V25.3027H98.2715V29.4443ZM110.591 20.9531H96.3126V18.5557H110.591V20.9531ZM110.591 16.8086H96.3126V14.4404H110.591V16.8086ZM103.562 6.2832C104.178 7.57573 104.65 8.75356 105.004 9.84473L105.073 10.0596L104.99 10.0908H113.102V12.5459H93.627V10.0908H102.512C102.107 9.04805 101.653 8.04812 101.127 7.04883L100.99 6.79004L103.477 6.10547L103.562 6.2832Z" fill="#393937"/>
<path d="M123.456 6.9873L123.394 7.18457C122.696 9.42478 121.853 11.5227 120.837 13.5059V33.5352H118.293V17.6445C117.529 18.7206 116.703 19.7705 115.813 20.7588L115.533 21.0703L114.706 18.3018L114.784 18.2051C117.624 14.6989 119.683 10.6701 120.988 6.14453L121.064 5.88086L123.456 6.9873ZM140.307 33.4766H137.793V31.9004H127.463V33.4766H124.949V22.876H140.307V33.4766ZM127.463 29.4443H137.793V25.3027H127.463V29.4443ZM139.782 20.9531H125.504V18.5557H139.782V20.9531ZM139.782 16.8086H125.504V14.4404H139.782V16.8086ZM132.753 6.2832C133.37 7.57573 133.841 8.75356 134.195 9.84473L134.264 10.0596L134.181 10.0908H142.293V12.5459H122.818V10.0908H131.703C131.299 9.04805 130.844 8.04812 130.318 7.04883L130.181 6.79004L132.668 6.10547L132.753 6.2832Z" fill="#393937"/>
<path d="M169.326 29.5107C169.325 30.5684 169.061 31.4051 168.491 31.9756C167.92 32.5462 167.083 32.8105 166.025 32.8105H162.487L161.802 30.252L162.388 30.2812C163.457 30.335 164.443 30.3838 165.354 30.3838C165.833 30.3837 166.161 30.2456 166.373 30.0039C166.591 29.7567 166.724 29.3623 166.724 28.7803V23.9365H159.254V32.4902H156.623V23.9365H149.542C149.196 27.6115 148.109 30.6794 146.245 33.127L146.091 33.3291L144.137 31.5889L144.261 31.416C146.095 28.8663 147.049 25.6185 147.107 21.6562V7.41016H169.326V29.5107ZM149.679 21.5391H156.623V16.9014H149.679V21.5391ZM159.254 21.5391H166.724V16.9014H159.254V21.5391ZM149.679 14.4746H156.623V9.9248H149.679V14.4746ZM159.254 14.4746H166.724V9.9248H159.254V14.4746Z" fill="#393937"/>
<path d="M186.899 9.94043H196.386V12.4541H186.899V16.3623H200.21V18.877H186.899V21.4375C190.306 22.9747 193.742 24.7679 197.233 26.8164L197.448 26.9434L195.987 29.1182L195.794 29.001C192.283 26.855 189.335 25.1913 186.899 24.0078V33.4434H184.267V18.877H173.787V16.3623H184.267V6.32031H186.899V9.94043Z" fill="#393937"/>
<path d="M209.52 27.5469C209.753 27.722 209.958 27.9267 210.192 28.1895C210.892 29.0359 211.622 29.6488 212.44 30.0283C213.316 30.4369 214.629 30.6701 216.322 30.7285C217.84 30.7577 219.709 30.7871 221.956 30.7871C223.329 30.7871 224.702 30.7591 226.103 30.7305L226.189 30.7285C227.619 30.6993 228.729 30.6707 229.488 30.6123L228.992 32.7139H222.248C220.796 32.7139 219.244 32.6888 217.571 32.6621L217.139 32.6553C215.3 32.6261 213.782 32.451 212.615 32.1299C211.505 31.7796 210.483 31.0499 209.578 29.999C209.199 29.5029 208.819 29.2695 208.469 29.2695C207.768 29.2699 206.63 30.6126 205.025 33.2979L203.449 31.8672C204.996 29.4152 206.368 27.9268 207.565 27.4014V18.5264H203.39V16.5996H209.52V27.5469ZM228.524 8.04688V10.0898H221.898C221.548 10.9656 221.197 11.8419 220.788 12.6885V29.1523H218.687V16.25C216.877 18.7605 214.6 21.0374 211.885 23.0225L210.572 21.2998C214.95 18.2055 218.045 14.4685 219.796 10.0898H211.68V8.04688H228.524ZM223.241 13.5059C225.955 16.6584 228.057 19.4021 229.517 21.7666L227.736 22.9932C226.159 20.366 224.116 17.5929 221.635 14.6738L223.241 13.5059ZM205.287 6.9375C207.302 8.45537 208.995 9.94405 210.367 11.4619L208.849 12.9512C207.652 11.5208 205.988 9.97351 203.857 8.30957L205.287 6.9375Z" fill="#393937"/>
<path d="M209.52 27.5469H209.237V27.6883L209.35 27.7732L209.52 27.5469ZM210.192 28.1895L210.41 28.009L210.403 28.0015L210.192 28.1895ZM212.44 30.0283L212.559 29.772L212.559 29.7718L212.44 30.0283ZM216.322 30.7285L216.312 31.0112L216.316 31.0113L216.322 30.7285ZM221.956 30.7871V31.07H221.956L221.956 30.7871ZM226.103 30.7305L226.109 31.0133L226.109 31.0133L226.103 30.7305ZM226.189 30.7285L226.183 30.4457L226.182 30.4457L226.189 30.7285ZM229.488 30.6123L229.763 30.6773L229.852 30.3006L229.466 30.3303L229.488 30.6123ZM228.992 32.7139V32.9967H229.215L229.267 32.7789L228.992 32.7139ZM217.571 32.6621L217.575 32.3793H217.575L217.571 32.6621ZM217.139 32.6553L217.135 32.9381H217.135L217.139 32.6553ZM212.615 32.1299L212.529 32.3998L212.54 32.4026L212.615 32.1299ZM209.578 29.999L209.354 30.1709L209.359 30.1774L209.364 30.1836L209.578 29.999ZM208.469 29.2695V28.9867H208.469L208.469 29.2695ZM205.025 33.2979L204.835 33.5073L205.09 33.7394L205.268 33.443L205.025 33.2979ZM203.449 31.8672L203.209 31.7162L203.083 31.9171L203.258 32.0766L203.449 31.8672ZM207.565 27.4014L207.679 27.6604L207.848 27.5861V27.4014H207.565ZM207.565 18.5264H207.848V18.2435H207.565V18.5264ZM203.39 18.5264H203.107V18.8092H203.39V18.5264ZM203.39 16.5996V16.3168H203.107V16.5996H203.39ZM209.52 16.5996H209.803V16.3168H209.52V16.5996ZM228.524 8.04688H228.807V7.76402H228.524V8.04688ZM228.524 10.0898V10.3727H228.807V10.0898H228.524ZM221.898 10.0898V9.80699H221.706L221.635 9.98479L221.898 10.0898ZM220.788 12.6885L220.534 12.5655L220.506 12.6238V12.6885H220.788ZM220.788 29.1523V29.4352H221.071V29.1523H220.788ZM218.687 29.1523H218.404V29.4352H218.687V29.1523ZM218.687 16.25H218.97V15.374L218.457 16.0846L218.687 16.25ZM211.885 23.0225L211.66 23.194L211.828 23.4144L212.052 23.2508L211.885 23.0225ZM210.572 21.2998L210.408 21.0688L210.169 21.2381L210.347 21.4713L210.572 21.2998ZM219.796 10.0898L220.059 10.1949L220.214 9.80699H219.796V10.0898ZM211.68 10.0898H211.397V10.3727H211.68V10.0898ZM211.68 8.04688V7.76402H211.397V8.04688H211.68ZM223.241 13.5059L223.455 13.3213L223.285 13.1238L223.074 13.2771L223.241 13.5059ZM229.517 21.7666L229.677 21.9996L229.899 21.847L229.758 21.618L229.517 21.7666ZM227.736 22.9932L227.493 23.1387L227.648 23.3969L227.896 23.2261L227.736 22.9932ZM221.635 14.6738L221.469 14.4451L221.222 14.6246L221.42 14.857L221.635 14.6738ZM205.287 6.9375L205.458 6.71161L205.265 6.56671L205.092 6.73335L205.287 6.9375ZM210.367 11.4619L210.565 11.6638L210.758 11.4736L210.576 11.2722L210.367 11.4619ZM208.849 12.9512L208.632 13.1327L208.829 13.3675L209.047 13.1531L208.849 12.9512ZM203.857 8.30957L203.661 8.10542L203.425 8.3315L203.683 8.53251L203.857 8.30957ZM209.52 27.5469L209.35 27.7732C209.562 27.9321 209.752 28.121 209.98 28.3774L210.192 28.1895L210.403 28.0015C210.164 27.7324 209.945 27.512 209.69 27.3206L209.52 27.5469ZM210.192 28.1895L209.974 28.3698C210.693 29.2386 211.455 29.8829 212.321 30.2849L212.44 30.0283L212.559 29.7718C211.79 29.4148 211.092 28.8333 210.41 28.0091L210.192 28.1895ZM212.44 30.0283L212.32 30.2846C213.248 30.7174 214.606 30.9524 216.312 31.0112L216.322 30.7285L216.331 30.4458C214.651 30.3879 213.383 30.1564 212.559 29.772L212.44 30.0283ZM216.322 30.7285L216.316 31.0113C217.835 31.0405 219.706 31.07 221.956 31.07V30.7871V30.5043C219.711 30.5043 217.844 30.4749 216.327 30.4457L216.322 30.7285ZM221.956 30.7871L221.956 31.07C223.333 31.07 224.709 31.0419 226.109 31.0133L226.103 30.7305L226.097 30.4477C224.696 30.4763 223.326 30.5042 221.956 30.5043L221.956 30.7871ZM226.103 30.7305L226.109 31.0133L226.195 31.0113L226.189 30.7285L226.182 30.4457L226.096 30.4477L226.103 30.7305ZM226.189 30.7285L226.195 31.0113C227.623 30.9822 228.741 30.9534 229.509 30.8943L229.488 30.6123L229.466 30.3303C228.717 30.3879 227.616 30.4165 226.183 30.4457L226.189 30.7285ZM229.488 30.6123L229.212 30.5473L228.716 32.6489L228.992 32.7139L229.267 32.7789L229.763 30.6773L229.488 30.6123ZM228.992 32.7139V32.431H222.248V32.7139V32.9967H228.992V32.7139ZM222.248 32.7139V32.431C220.799 32.431 219.249 32.406 217.575 32.3793L217.571 32.6621L217.566 32.9449C219.239 32.9716 220.793 32.9967 222.248 32.9967V32.7139ZM217.571 32.6621L217.575 32.3793L217.144 32.3725L217.139 32.6553L217.135 32.9381L217.566 32.9449L217.571 32.6621ZM217.139 32.6553L217.144 32.3725C215.317 32.3434 213.825 32.1695 212.69 31.8572L212.615 32.1299L212.54 32.4026C213.739 32.7324 215.283 32.9087 217.135 32.9381L217.139 32.6553ZM212.615 32.1299L212.7 31.8602C211.652 31.5291 210.672 30.8352 209.793 29.8145L209.578 29.999L209.364 30.1836C210.295 31.2646 211.359 32.03 212.529 32.3996L212.615 32.1299ZM209.578 29.999L209.803 29.8272C209.403 29.3039 208.95 28.9867 208.469 28.9867V29.2695V29.5524C208.689 29.5524 208.995 29.7019 209.354 30.1709L209.578 29.999ZM208.469 29.2695L208.469 28.9867C208.207 28.9868 207.945 29.1101 207.695 29.2929C207.439 29.4789 207.165 29.7489 206.871 30.0933C206.283 30.7826 205.587 31.8054 204.782 33.1527L205.025 33.2979L205.268 33.443C206.067 32.105 206.744 31.1139 207.301 30.4604C207.58 30.1334 207.822 29.8998 208.028 29.7501C208.238 29.5971 208.381 29.5524 208.469 29.5524L208.469 29.2695ZM205.025 33.2979L205.215 33.0884L203.639 31.6577L203.449 31.8672L203.258 32.0766L204.835 33.5073L205.025 33.2979ZM203.449 31.8672L203.688 32.0181C204.456 30.801 205.175 29.8311 205.846 29.1035C206.519 28.3738 207.13 27.9012 207.679 27.6604L207.565 27.4014L207.451 27.1424C206.803 27.427 206.13 27.9613 205.43 28.7201C204.729 29.4811 203.989 30.4814 203.209 31.7162L203.449 31.8672ZM207.565 27.4014H207.848V18.5264H207.565H207.282V27.4014H207.565ZM207.565 18.5264V18.2435H203.39V18.5264V18.8092H207.565V18.5264ZM203.39 18.5264H203.673V16.5996H203.39H203.107V18.5264H203.39ZM203.39 16.5996V16.8825H209.52V16.5996V16.3168H203.39V16.5996ZM209.52 16.5996H209.237V27.5469H209.52H209.803V16.5996H209.52ZM228.524 8.04688H228.241V10.0898H228.524H228.807V8.04688H228.524ZM228.524 10.0898V9.80699H221.898V10.0898V10.3727H228.524V10.0898ZM221.898 10.0898L221.635 9.98479C221.284 10.8621 220.937 11.7293 220.534 12.5655L220.788 12.6885L221.043 12.8114C221.457 11.9546 221.811 11.0691 222.16 10.1949L221.898 10.0898ZM220.788 12.6885H220.506V29.1523H220.788H221.071V12.6885H220.788ZM220.788 29.1523V28.8695H218.687V29.1523V29.4352H220.788V29.1523ZM218.687 29.1523H218.97V16.25H218.687H218.404V29.1523H218.687ZM218.687 16.25L218.457 16.0846C216.666 18.5694 214.411 20.8255 211.718 22.7941L211.885 23.0225L212.052 23.2508C214.789 21.2493 217.088 18.9515 218.916 16.4154L218.687 16.25ZM211.885 23.0225L212.11 22.851L210.797 21.1283L210.572 21.2998L210.347 21.4713L211.66 23.194L211.885 23.0225ZM210.572 21.2998L210.735 21.5308C215.151 18.41 218.284 14.6317 220.059 10.1949L219.796 10.0898L219.534 9.98479C217.805 14.3053 214.75 18.001 210.408 21.0688L210.572 21.2998ZM219.796 10.0898V9.80699H211.68V10.0898V10.3727H219.796V10.0898ZM211.68 10.0898H211.963V8.04688H211.68H211.397V10.0898H211.68ZM211.68 8.04688V8.32973H228.524V8.04688V7.76402H211.68V8.04688ZM223.241 13.5059L223.026 13.6904C225.736 16.8377 227.828 19.5687 229.276 21.9152L229.517 21.7666L229.758 21.618C228.287 19.2356 226.174 16.4791 223.455 13.3213L223.241 13.5059ZM229.517 21.7666L229.357 21.5336L227.575 22.7602L227.736 22.9932L227.896 23.2261L229.677 21.9996L229.517 21.7666ZM227.736 22.9932L227.978 22.8476C226.392 20.2039 224.339 17.4181 221.851 14.4906L221.635 14.6738L221.42 14.857C223.894 17.7676 225.927 20.5281 227.493 23.1387L227.736 22.9932ZM221.635 14.6738L221.802 14.9026L223.407 13.7346L223.241 13.5059L223.074 13.2771L221.469 14.4451L221.635 14.6738ZM205.287 6.9375L205.117 7.16339C207.122 8.67409 208.8 10.1508 210.157 11.6516L210.367 11.4619L210.576 11.2722C209.189 9.73726 207.481 8.23665 205.458 6.71161L205.287 6.9375ZM210.367 11.4619L210.168 11.26L208.651 12.7493L208.849 12.9512L209.047 13.1531L210.565 11.6638L210.367 11.4619ZM208.849 12.9512L209.066 12.7697C207.852 11.3188 206.171 9.75786 204.031 8.08663L203.857 8.30957L203.683 8.53251C205.804 10.1892 207.452 11.7227 208.632 13.1327L208.849 12.9512ZM203.857 8.30957L204.053 8.51372L205.483 7.14165L205.287 6.9375L205.092 6.73335L203.661 8.10542L203.857 8.30957Z" fill="#393937"/>
<path d="M252.813 15.2627C252.813 17.2097 252.698 19.0125 252.525 20.6426C253.801 25.198 255.965 28.8199 259.01 31.4912L259.186 31.6465L257.467 33.6162L257.289 33.4424C254.921 31.1296 253.069 28.3553 251.731 25.0752C250.799 28.5384 248.726 31.3562 245.502 33.584L245.324 33.707L243.738 31.7969L243.949 31.6504C246.684 29.7504 248.487 27.3986 249.375 24.5371C250.067 22.1139 250.416 19.0437 250.416 15.2627V15.0273H252.813V15.2627ZM246.333 23.8174H240.611V30.8799C240.611 31.6797 240.395 32.3281 239.925 32.7734C239.456 33.2164 238.775 33.4219 237.924 33.4219H235.253L234.734 31.0176L235.061 31.0547C235.815 31.1416 236.564 31.1992 237.253 31.1992C237.6 31.1992 237.819 31.1187 237.949 31.001C238.075 30.8872 238.156 30.7044 238.156 30.4131V23.8174H232.2V21.5078H246.333V23.8174ZM236.615 25.1211L236.545 25.3682C235.896 27.667 234.982 29.6484 233.797 31.3369L233.666 31.5225L231.686 30.2393L231.84 30.0371C233.02 28.4832 233.881 26.7878 234.398 24.9209L234.456 24.7119L236.615 25.1211ZM243.942 24.6406C244.647 25.992 245.294 27.433 245.852 28.9912L245.926 29.1963L243.857 30.1201L243.773 29.877C243.193 28.1951 242.528 26.6889 241.834 25.417L241.698 25.1689L243.849 24.4639L243.942 24.6406ZM250.882 6.68848L250.856 6.91113C250.693 8.32599 250.48 9.61474 250.239 10.8232H257.893V12.3613L257.891 12.3789C257.51 14.8676 257.012 17.3279 256.367 19.7598L256.306 19.9912L253.885 19.3047L253.96 19.0723C254.517 17.3455 254.995 15.4024 255.366 13.1914H249.663C248.993 15.5821 248.124 17.5372 247.049 19.0479L246.912 19.2393L244.929 17.833L245.055 17.6426C246.807 15.0003 247.938 11.3049 248.462 6.53711L248.489 6.29004L250.882 6.68848ZM244.435 19.7598H233.981V17.4502H244.435V19.7598ZM240.641 8.89648H246.012V11.2354H240.641V13.334H245.341V15.6143H233.017V13.334H238.184V11.2354H231.996V8.89648H238.184V6.24023H240.641V8.89648Z" fill="#393937"/>
</svg>
