<svg width="247" height="40" viewBox="0 0 247 40" fill="none" xmlns="http://www.w3.org/2000/svg">
<path d="M158.882 14.1696H151.712L154.528 18.0915H158.156L155.098 34.9191H161.473L164.531 18.0915H172.478L159.935 8.33008L158.882 14.1696Z" fill="#0052D9"/>
<path d="M34.3487 4.61523H5.41009L4.61536 9.02069H15.8453L11.146 34.9186H17.5211L22.2204 9.02069H33.554L34.3487 4.61523Z" fill="#0052D9"/>
<path d="M39.0666 13.7023C30.9638 13.7023 25.7808 18.6263 24.7615 24.3449C23.6212 30.7028 27.664 35.3502 35.8359 35.3502C39.4813 35.3502 42.9021 34.6937 45.6837 33.1906L46.5475 28.4395C43.835 30.3227 40.3797 31.3767 37.4599 31.3767C33.3826 31.3767 30.1518 29.7354 30.6529 25.969H47.4804C47.6878 25.5198 47.9296 24.7423 48.1024 23.7575C48.9144 19.2138 47.2558 13.668 39.0666 13.668V13.7023ZM42.3665 22.3407H31.2921C31.9486 20.2157 34.1082 17.2788 38.03 17.2788C42.2974 17.2788 42.7466 20.4057 42.3665 22.3407Z" fill="#0052D9"/>
<path d="M67.2085 13.7012C63.2348 13.7012 60.246 15.2908 58.8466 16.9148H58.6911L53.0761 13.7012C52.8688 15.498 52.5924 17.9341 52.1604 20.3356L49.5516 34.9171H55.9268L58.1382 22.7025C58.2419 22.0978 58.4492 21.4584 58.7256 21.0438C59.6758 19.4371 61.6799 17.9687 64.2024 17.9687C67.675 17.9687 68.6252 20.2318 68.0896 23.2207L65.9646 34.9344H72.3397L74.5857 22.616C75.7605 16.0509 71.5968 13.7358 67.2085 13.7358V13.7012Z" fill="#0052D9"/>
<path d="M143.642 13.7012C139.668 13.7012 136.679 15.2908 135.28 16.9148H135.124L129.509 13.7012C129.302 15.498 129.026 17.9341 128.594 20.3356L125.985 34.9171H132.36L134.571 22.7025C134.675 22.0978 134.882 21.4584 135.159 21.0438C136.109 19.4371 138.113 17.9687 140.636 17.9687C144.125 17.9687 145.058 20.2318 144.523 23.2207L142.398 34.9344H148.773L151.019 22.616C152.194 16.0509 148.03 13.7358 143.642 13.7358V13.7012Z" fill="#0052D9"/>
<path d="M115.5 13.7023C107.397 13.7023 102.214 18.6263 101.195 24.3449C100.054 30.7028 104.097 35.3502 112.269 35.3502C115.915 35.3502 119.335 34.6937 122.117 33.1906L122.981 28.4395C120.268 30.3227 116.813 31.3767 113.893 31.3767C109.816 31.3767 106.585 29.7354 107.086 25.969H123.931C124.138 25.5198 124.38 24.7423 124.553 23.7575C125.365 19.2138 123.706 13.668 115.517 13.668L115.5 13.7023ZM118.817 22.3407H107.743C108.399 20.2157 110.559 17.2788 114.481 17.2788C118.748 17.2788 119.197 20.4057 118.834 22.3407H118.817Z" fill="#0052D9"/>
<path d="M77.2663 24.2771C76.1088 30.7213 80.7735 35.3688 88.669 35.3688C91.8133 35.3688 95.5624 34.5051 96.9791 33.9868L98.0157 28.4408C95.8043 30.7386 92.7981 31.2224 90.6731 31.2224C86.3366 31.2224 83.054 28.7864 83.8142 24.5363C84.4707 20.7354 88.2025 17.8156 93.0573 17.8156C95.0441 17.8156 97.722 18.4548 99.4151 20.6144L100.4 14.9824C99.035 14.4813 96.8409 13.7383 93.5929 13.7383C84.7472 13.7383 78.3893 18.0747 77.2836 24.2944L77.2663 24.2771Z" fill="#0052D9"/>
<path d="M189.891 7.39727C188.164 16.6231 186.592 25.7451 184.812 34.9364H181.219C181.927 31.4637 182.739 27.8011 183.344 24.4149H180.787C180.009 27.9739 179.197 31.5501 178.402 34.9364H174.809C177.815 25.6414 179.318 16.0701 181.028 5.51395H187.732C189.477 5.51395 190.185 5.79053 189.857 7.39727H189.891ZM184.95 16.2084H182.497C182.134 17.9879 181.754 19.8364 181.357 21.7023H183.914L184.95 16.2084ZM185.693 8.36466H183.914C183.62 10.0059 183.344 11.7336 182.998 13.5131H185.417L186.298 9.02118C186.402 8.50288 186.194 8.36466 185.693 8.36466ZM199.86 30.8936H187.836L187.335 28.2502H200.465V28.2848L199.86 30.8936ZM203.834 20.6657L203.022 24.2248H204.767C205.942 24.2248 206.788 24.4666 206.581 25.866C206.201 28.4057 205.475 31.9302 204.922 34.9191H195.489L194.712 32.2067H201.674C201.985 30.7727 202.383 29.0104 202.59 27.5764C202.659 27.0927 202.452 26.9199 201.951 26.9199H190.168L191.222 21.4087C190.375 21.7888 189.097 22.2034 187.853 22.428L188.596 19.1108C190.79 18.5925 193.036 17.5731 194.418 16.0873H189.166L189.771 13.4785H196.267C196.629 12.9948 196.906 12.373 197.044 11.9411H190.012L190.548 9.22849H193.07L192.155 5.22037H195.748L196.595 9.22849H197.839C198.219 7.88091 198.513 6.10134 198.547 4.63281H202.21C202.141 6.10134 201.916 7.86363 201.571 9.22849H203.022C203.592 7.98457 204.162 6.51613 204.611 5.22037H208.274C207.773 6.4643 207.134 7.96729 206.529 9.22849H209.086L208.412 11.9411H200.776C200.638 12.3903 200.344 13.0466 200.102 13.4785H209.466L208.827 16.0873H203.367C204.542 17.7632 207.341 19.0418 209.501 19.4737L208.291 22.428C206.805 22.117 205.164 21.4259 203.851 20.6484L203.834 20.6657ZM200.137 21.1495H192.362L194.694 22.1688L194.263 24.2248H199.411L200.119 21.1322L200.137 21.1495ZM201.45 18.5753C200.845 17.9188 200.206 16.8648 199.808 16.1046H198.495C197.787 16.9685 196.716 17.9188 195.8 18.5753H201.432H201.45Z" fill="#0052D9"/>
<path d="M212.196 13.4785H219.642C218.899 18.2815 218.053 23.1536 217.085 28.0256C218.502 27.0063 220.005 25.9006 221.352 24.7603L220.575 29.1833C218.053 31.2392 214.58 33.6406 211.384 35.3856C212.766 29.1832 214.044 22.6007 214.977 16.5192H211.643L212.213 13.4614L212.196 13.4785ZM220.955 11.8719C220.42 9.47042 219.746 6.96518 219.176 4.63281H215.167C215.703 6.99973 216.273 9.53953 216.74 11.8719H220.955ZM239.148 5.54853H222.579L223.287 8.60656H235.675C236.487 8.60656 236.884 8.71014 236.712 9.60853C236.245 12.0791 235.761 14.5843 235.26 17.0203H229.87L230.786 11.8027L227.037 9.67771L225.654 17.0203H221.646L221.111 20.0784H225.05C224.238 25.0195 223.236 30.0643 222.216 34.9882H226.501C227.486 30.0125 228.488 25.0368 229.334 20.0784H234.69C233.792 25.0541 232.807 30.168 231.822 34.9882H239.407L240.72 31.8956H236.677C238.266 24.0347 239.942 15.8455 241.359 7.93274C241.67 6.22234 241.324 5.56583 239.165 5.56583L239.148 5.54853Z" fill="#0052D9"/>
</svg>
