<svg width="218" height="40" viewBox="0 0 218 40" fill="none" xmlns="http://www.w3.org/2000/svg">
<g clip-path="url(#clip0_443_6206)">
<path fill-rule="evenodd" clip-rule="evenodd" d="M58.3181 11.8594H60.9292L59.3182 36.3307H56.7072L58.3181 11.8594Z" fill="#231815"/>
<path fill-rule="evenodd" clip-rule="evenodd" d="M53.2337 9.8418H59.6836C60.4441 9.8418 61.037 10.3071 60.9831 11.0865L60.9352 11.8539H53.1079L53.2397 9.8418H53.2337Z" fill="#231815"/>
<path fill-rule="evenodd" clip-rule="evenodd" d="M62.0131 14.0293H74.6015L74.4577 16.1985H61.8694L62.0131 14.0293Z" fill="#231815"/>
<path fill-rule="evenodd" clip-rule="evenodd" d="M63.1334 22.7012H72.344L72.2003 24.8704H62.9896L63.1334 22.7012Z" fill="#231815"/>
<path fill-rule="evenodd" clip-rule="evenodd" d="M61.2884 18.0527H74.9547L74.811 20.2219H61.1447L61.2884 18.0527Z" fill="#231815"/>
<path fill-rule="evenodd" clip-rule="evenodd" d="M60.516 32.1504H69.7267L69.583 34.3196H60.3723L60.516 32.1504Z" fill="#231815"/>
<path fill-rule="evenodd" clip-rule="evenodd" d="M69.6012 24.7109H72.2123L71.8949 29.5146H69.2838L69.6012 24.7109Z" fill="#231815"/>
<path fill-rule="evenodd" clip-rule="evenodd" d="M54.3893 17.8965H59.7612L59.6295 19.9086H54.2576L54.3893 17.8965Z" fill="#231815"/>
<path fill-rule="evenodd" clip-rule="evenodd" d="M62.468 10.6523L64.5401 9.49219L65.8936 12.2898L63.8215 13.4499L62.468 10.6523Z" fill="#231815"/>
<path fill-rule="evenodd" clip-rule="evenodd" d="M74.6669 10.7175L72.7505 9.5332L71.0258 12.3791L72.9422 13.5634L74.6669 10.7175Z" fill="#231815"/>
<path fill-rule="evenodd" clip-rule="evenodd" d="M70.7154 10.0944L68.799 8.91016L60.4447 23.8346L62.3611 25.0189L70.7154 10.0944Z" fill="#231815"/>
<path fill-rule="evenodd" clip-rule="evenodd" d="M63.5824 30.4473L65.0497 26.2056L63.1333 25.0273L61.2588 30.4473H63.5824Z" fill="#231815"/>
<path fill-rule="evenodd" clip-rule="evenodd" d="M69.7983 19.3894L71.8704 18.2051L74.8888 23.6854L72.8167 24.8697L69.7983 19.3894Z" fill="#231815"/>
<path fill-rule="evenodd" clip-rule="evenodd" d="M53.9102 25.1777H59.2821L59.1503 27.1898H53.7784L53.9102 25.1777Z" fill="#231815"/>
<path fill-rule="evenodd" clip-rule="evenodd" d="M62.6118 28.2775H72.7447C73.5113 28.2775 73.9484 28.6159 73.9005 29.3591L73.8287 30.4407H62.468L62.6118 28.2715V28.2775Z" fill="#231815"/>
<path fill-rule="evenodd" clip-rule="evenodd" d="M50.8085 34.947C51.1618 34.6026 51.6409 33.9379 51.8086 31.382L53.0962 11.8594H55.7073L54.3598 32.3065C54.3598 32.3065 53.9825 35.8896 52.5272 36.7959L50.8085 34.947Z" fill="#231815"/>
<path fill-rule="evenodd" clip-rule="evenodd" d="M70.158 34.947C70.5113 34.6026 70.9904 33.9379 71.1581 31.382C71.3138 29.0074 71.2299 30.2884 71.2299 30.2884H73.841L73.6973 32.4576C73.6973 32.4576 73.4039 35.8412 71.8767 36.7959L70.158 34.947Z" fill="#231815"/>
<path fill-rule="evenodd" clip-rule="evenodd" d="M99.1131 14.8025H96.502L96.6218 12.9475C96.7056 11.7028 96.9392 12.011 95.9211 12.011H84.8599L85.0036 9.8418H98.2267C98.8196 9.8418 99.3945 10.4642 99.3526 11.0623L99.3107 11.7028L99.1071 14.8025H99.1131Z" fill="#231815"/>
<path fill-rule="evenodd" clip-rule="evenodd" d="M83.9799 20.8457H95.0351L94.8914 23.0149H83.8362L83.9799 20.8457Z" fill="#231815"/>
<path fill-rule="evenodd" clip-rule="evenodd" d="M79.1891 10.8086L81.2612 9.64844L83.2794 13.9928L81.2073 15.153L79.1891 10.8086Z" fill="#231815"/>
<path fill-rule="evenodd" clip-rule="evenodd" d="M78.1048 16.8146H81.6262C82.4047 16.8146 82.8359 17.2557 82.782 18.0412L82.7221 18.9778H77.9611L78.1048 16.8086V16.8146Z" fill="#231815"/>
<path fill-rule="evenodd" clip-rule="evenodd" d="M82.447 34.785C82.1356 34.4466 81.7463 33.7759 81.914 31.22L82.7225 18.9844H80.1114L79.225 32.4587C79.225 32.4587 79.1951 35.5161 80.4827 36.64L82.447 34.7789V34.785Z" fill="#231815"/>
<path fill-rule="evenodd" clip-rule="evenodd" d="M99.299 12.0117L98.0234 31.3712C97.8557 33.9271 98.245 34.5918 98.5564 34.9362L96.5921 36.7972C96.5921 36.7972 95.2865 35.6129 95.3524 32.3078L96.6879 12.0178H99.299V12.0117Z" fill="#231815"/>
<path fill-rule="evenodd" clip-rule="evenodd" d="M88.4118 11.8594H91.0228L89.4119 36.3307H86.8008L88.4118 11.8594Z" fill="#231815"/>
<path fill-rule="evenodd" clip-rule="evenodd" d="M104.336 12.4766H113.39L113.247 14.6457H104.192L104.336 12.4766Z" fill="#231815"/>
<path fill-rule="evenodd" clip-rule="evenodd" d="M103.629 18.5195H113.301L113.157 20.6887H103.485L103.629 18.5195Z" fill="#231815"/>
<path fill-rule="evenodd" clip-rule="evenodd" d="M109.773 25.4902H112.995L112.851 27.6594H109.629L109.773 25.4902Z" fill="#231815"/>
<path fill-rule="evenodd" clip-rule="evenodd" d="M108.091 9.06836H110.702L110.001 19.7572H107.39L108.091 9.06836Z" fill="#231815"/>
<path fill-rule="evenodd" clip-rule="evenodd" d="M108.127 20.2227H110.738L109.822 34.1622H107.21L108.127 20.2227Z" fill="#231815"/>
<path fill-rule="evenodd" clip-rule="evenodd" d="M114.181 9.84198H123.236C124.003 9.84198 124.44 10.1803 124.392 10.9236L124.32 12.0051H114.032L114.175 9.83594L114.181 9.84198Z" fill="#231815"/>
<path fill-rule="evenodd" clip-rule="evenodd" d="M120.517 18.5238C120.871 18.1794 121.392 16.8984 121.559 14.3425C121.715 11.9679 121.745 11.5449 121.745 11.5449H124.356L124.098 15.418C124.098 15.418 123.637 19.3093 122.236 20.3727L120.517 18.5238Z" fill="#231815"/>
<path fill-rule="evenodd" clip-rule="evenodd" d="M117.361 10.1562H119.972L116.433 19.9146H113.822L117.361 10.1562Z" fill="#231815"/>
<path fill-rule="evenodd" clip-rule="evenodd" d="M113.918 20.8457H116.529L115.756 32.6161H113.145L113.918 20.8457Z" fill="#231815"/>
<path fill-rule="evenodd" clip-rule="evenodd" d="M120.936 23.7871H123.547L122.966 32.6149H120.355L120.936 23.7871Z" fill="#231815"/>
<path fill-rule="evenodd" clip-rule="evenodd" d="M123.517 24.2457H120.906L120.996 22.85H114.858L114.989 20.8379H122.667C123.29 20.8379 123.709 21.3273 123.667 21.9255L123.517 24.2457Z" fill="#231815"/>
<path fill-rule="evenodd" clip-rule="evenodd" d="M114.966 30.6035H121.338C121.637 30.6035 121.847 31.0688 121.793 31.8482L121.745 32.6156H114.834L114.966 30.6035Z" fill="#231815"/>
<path fill-rule="evenodd" clip-rule="evenodd" d="M102.24 34.9489C102.593 34.6045 103.072 33.9398 103.24 31.384C103.395 29.0093 103.809 22.7012 103.809 22.7012H106.42L105.923 30.2903C105.923 30.2903 105.893 34.0365 110.899 34.0063H123.332L123.188 36.1755H110.6C110.6 36.1755 106.995 36.2117 105.36 34.1634C105.36 34.1634 104.964 36.1453 103.958 36.7979L102.24 34.9489Z" fill="#231815"/>
<path fill-rule="evenodd" clip-rule="evenodd" d="M137.441 34.3179L135.058 35.5565L128.237 10.8737L130.614 9.68945L137.435 34.3179H137.441Z" fill="#231815"/>
<path fill-rule="evenodd" clip-rule="evenodd" d="M135.908 34.3179L138.13 35.5565L148.197 10.8737L145.975 9.68945L135.908 34.3179Z" fill="#231815"/>
<path fill-rule="evenodd" clip-rule="evenodd" d="M134.687 34.161C134.687 34.161 134.723 34.4269 134.932 35.0915C135.184 35.9072 135.322 36.1731 136.549 36.1731L136.693 34.0039L134.687 34.161Z" fill="#231815"/>
<path fill-rule="evenodd" clip-rule="evenodd" d="M138.681 34.161C138.681 34.161 138.609 34.4269 138.316 35.0915C137.957 35.9072 137.783 36.1731 136.555 36.1731L136.699 34.0039L138.687 34.161H138.681Z" fill="#231815"/>
<path fill-rule="evenodd" clip-rule="evenodd" d="M150.215 36.1725L151.096 22.8009C151.293 19.7918 150.952 19.7132 150.551 19.4172C150.054 19.0546 149.526 18.6679 149.526 18.6679L151.934 17.1211C151.934 17.1211 153.94 17.9066 153.796 21.4595L152.826 36.1725H150.215Z" fill="#231815"/>
<path fill-rule="evenodd" clip-rule="evenodd" d="M155.767 10.0944L153.85 8.91016L149.077 18.4147L150.994 19.599L155.767 10.0944Z" fill="#231815"/>
<path fill-rule="evenodd" clip-rule="evenodd" d="M156.27 11.7812H171.164L171.02 13.9504H156.126L156.27 11.7812Z" fill="#231815"/>
<path fill-rule="evenodd" clip-rule="evenodd" d="M156.432 16.3496H170.098L169.954 18.5188H156.288L156.432 16.3496Z" fill="#231815"/>
<path fill-rule="evenodd" clip-rule="evenodd" d="M156.144 20.7676H169.96L169.816 22.9368H156L156.144 20.7676Z" fill="#231815"/>
<path fill-rule="evenodd" clip-rule="evenodd" d="M168.955 36.0228H166.343L166.84 28.4397C166.924 27.195 167.158 27.5032 166.14 27.5032H157.69L157.833 25.334H168.445C169.038 25.334 169.613 25.9563 169.571 26.5545L169.529 27.195L168.949 36.0228H168.955Z" fill="#231815"/>
<path fill-rule="evenodd" clip-rule="evenodd" d="M156.354 33.8535H167.026L166.882 36.0227H156.21L156.354 33.8535Z" fill="#231815"/>
<path fill-rule="evenodd" clip-rule="evenodd" d="M155.839 25.334H158.45L157.75 36.0228H155.138L155.839 25.334Z" fill="#231815"/>
<path fill-rule="evenodd" clip-rule="evenodd" d="M161.839 10.0351L163.912 8.875L165.397 11.9807L163.325 13.1409L161.839 10.0351Z" fill="#231815"/>
<path fill-rule="evenodd" clip-rule="evenodd" d="M193.843 14.8025H191.232L191.352 12.9475C191.436 11.7028 191.669 12.011 190.651 12.011H174.985L175.128 9.8418H192.957C193.55 9.8418 194.125 10.4642 194.083 11.0623L194.041 11.7028L193.837 14.8025H193.843Z" fill="#231815"/>
<path fill-rule="evenodd" clip-rule="evenodd" d="M175.069 10.7715C175.069 10.7715 173.763 30.5902 173.721 31.2247C173.554 33.7805 173.075 34.4452 172.721 34.7896L174.44 36.6386C174.44 36.6386 175.895 35.5328 176.273 32.1491L177.68 10.7715H175.069Z" fill="#231815"/>
<path fill-rule="evenodd" clip-rule="evenodd" d="M183.153 11.5449H185.764L184.153 36.0162H181.542L183.153 11.5449Z" fill="#231815"/>
<path fill-rule="evenodd" clip-rule="evenodd" d="M175.859 17.4375H192.442L192.298 19.6067H175.715L175.859 17.4375Z" fill="#231815"/>
<path fill-rule="evenodd" clip-rule="evenodd" d="M175.326 25.4902H191.909L191.765 27.6594H175.183L175.326 25.4902Z" fill="#231815"/>
<path fill-rule="evenodd" clip-rule="evenodd" d="M191.448 11.5449H194.059L192.448 36.0162H189.837L191.448 11.5449Z" fill="#231815"/>
<path fill-rule="evenodd" clip-rule="evenodd" d="M195.856 19.1406H217.349L217.205 21.3098H195.712L195.856 19.1406Z" fill="#231815"/>
<path fill-rule="evenodd" clip-rule="evenodd" d="M205.509 12.4766H216.253L216.11 14.6457H205.366L205.509 12.4766Z" fill="#231815"/>
<path fill-rule="evenodd" clip-rule="evenodd" d="M204.042 9.06836H206.653L204.869 36.1741H202.257L204.042 9.06836Z" fill="#231815"/>
<path fill-rule="evenodd" clip-rule="evenodd" d="M208.396 25.2683L210.552 24.2773L214.372 33.2985L212.216 34.2894L208.396 25.2683Z" fill="#231815"/>
<path d="M15.624 0.232803L1.99216 5.78966C0.357638 6.45595 -0.432054 8.33299 0.228337 9.98213L9.13921 32.2345C9.7996 33.8837 11.66 34.6804 13.2945 34.0141L26.9263 28.4573C28.5608 27.791 29.3505 25.914 28.6901 24.2648L19.7793 2.0124C19.1189 0.36326 17.2585 -0.433493 15.624 0.232803Z" fill="#2F2524"/>
<path opacity="0.8" d="M22.9973 39.6796L10.397 33.8126C9.24716 33.2748 8.81597 31.6615 9.39688 30.2053L17.6015 9.68568C18.1824 8.22948 19.7394 7.02706 21.1109 7.01498L36.1067 6.85184C38.2626 6.82767 39.4783 8.39867 38.6998 10.3382L27.7763 37.7098C26.9978 39.6555 24.8119 40.5195 23.0033 39.6796H22.9973Z" fill="#F7CD64"/>
<path d="M28.7283 24.3552L21.7813 7.00781H21.1106C19.7392 7.03198 18.1821 8.2344 17.6012 9.69059L9.3966 30.2042C9.04326 31.0924 9.06722 32.041 9.3966 32.7661C9.68406 33.2495 10.0913 33.6362 10.5644 33.89L10.9058 34.0471C11.6184 34.3311 12.4389 34.3552 13.2054 34.0471L27.0155 28.4157C28.5965 27.7752 29.3631 25.9444 28.7283 24.3492V24.3552Z" fill="#F5B41E"/>
</g>
<defs>
<clipPath id="clip0_443_6206">
<rect width="217.349" height="40" fill="white"/>
</clipPath>
</defs>
</svg>
