<svg width="131" height="40" viewBox="0 0 131 40" fill="none" xmlns="http://www.w3.org/2000/svg">
<path d="M33.8706 15.8045C34.1538 15.103 36.0497 10.1612 36.5298 8.90263C36.5852 8.76108 36.4806 8.6103 36.3297 8.6103H29.0017C28.9401 8.6103 28.8786 8.58877 28.8324 8.54877C27.8598 7.74872 25.4777 6.1271 22.0275 5.6563C17.9957 5.09012 14.1147 6.26556 11.1447 8.59492C8.31315 10.8073 6.30955 14.0721 5.77094 17.9123L3.8412 31.6485C3.83197 31.7192 3.85044 31.79 3.89045 31.8454C5.05075 33.4209 6.44189 34.8425 8.03 36.0149C8.11002 36.0733 8.22697 36.0241 8.24236 35.9256L10.6799 18.6416C10.7045 18.4755 10.7538 18.297 10.7846 18.1308C10.8338 17.8323 10.9077 17.5431 10.9877 17.2723C12.1634 13.0444 16.1891 10.0965 20.7318 10.4258C25.1607 10.7581 28.6416 14.0968 29.3279 18.297C29.3279 18.297 29.571 19.1555 29.3925 21.3525C29.3802 21.5156 29.1925 23.1526 29.1125 23.568C28.7431 25.5035 28.2692 26.3497 28.2692 26.3497C26.6811 29.8268 23.0524 32.1285 19.0175 31.8269C17.8911 31.7408 16.8385 31.4731 15.8659 31.03C15.8351 31.0177 15.8044 31.0054 15.7736 30.9992C15.2596 30.7992 14.6748 31.1192 14.604 31.6823L14.5979 31.7285V31.8085L14.3917 33.2578L13.6222 38.7165C13.6038 38.8458 13.6807 38.9689 13.8038 39.0089C14.9087 39.372 16.0413 39.6366 17.2293 39.8028C21.769 40.4397 26.164 39.5043 29.8634 37.4088C31.5623 36.4364 32.1071 35.981 32.2795 35.8118C32.3287 35.7625 32.3595 35.701 32.3687 35.6302C32.5441 34.3809 34.2954 21.9156 34.2954 21.9156C34.5847 19.8571 34.4123 17.8416 33.8768 15.9707C33.8614 15.9153 33.8645 15.8569 33.886 15.8015L33.8706 15.8045Z" fill="#00B761"/>
<path d="M22.6587 17.6563C22.4741 17.2347 22.1294 16.8839 21.711 16.687C20.8771 16.2993 20.0678 16.4285 19.4708 16.847C18.9447 17.1547 17.0584 18.4286 16.6184 21.0595L16.6092 21.1487C16.5661 21.5365 16.843 21.8811 17.2246 21.9242C17.4492 21.9488 17.6615 21.8657 17.8154 21.6995C17.8154 21.6995 18.8339 20.5672 20.434 20.7733C20.4771 20.7795 20.514 20.7672 20.5571 20.7733C20.6063 20.7764 20.6555 20.7887 20.7048 20.7887C20.7817 20.7887 20.8555 20.7733 20.9294 20.7672C20.9817 20.761 21.034 20.761 21.0863 20.7518C21.2586 20.721 21.4217 20.6718 21.5787 20.6041C21.5817 20.6041 21.5879 20.6041 21.591 20.601C22.6095 20.1395 23.2126 18.924 22.6587 17.6624V17.6563Z" fill="#00B761"/>
<path d="M10.254 7.46308C13.5964 4.84141 17.7514 3.68134 21.9494 4.19522C24.5101 4.48754 27.2585 5.55222 29.339 7.12153C29.3852 7.15538 29.4406 7.17384 29.496 7.17384L35.0605 7.19846C35.1744 7.19846 35.239 7.06614 35.1621 6.97691C30.9364 2.04741 24.2977 -0.86967 16.7172 0.231927C9.94623 1.21352 4.15702 5.79838 1.57788 12.1341C-0.871998 18.1498 -0.330317 24.2271 2.24575 29.1812C2.36578 29.412 2.71048 29.3504 2.74742 29.0919L4.34784 17.7098C4.9203 13.6296 7.02239 9.98629 10.2602 7.46L10.254 7.46308Z" fill="#00B761"/>
<path d="M37.4307 10.6857L35.3814 15.8922C35.3598 15.9445 35.3567 15.9999 35.3721 16.0553C35.8798 18.0461 35.9906 20.0832 35.7045 22.1233C35.7045 22.1233 34.5936 30.0314 34.0521 33.8778C34.0336 34.0039 34.1875 34.0808 34.2798 33.9916C37.1722 31.0468 39.1816 27.2005 39.8031 22.7941C40.4124 18.4646 39.5754 14.2675 37.6738 10.6765C37.6215 10.575 37.4738 10.5842 37.4307 10.6919V10.6857Z" fill="#00B761"/>
<path d="M67.3041 23.142C68.0039 24.5153 69.008 25.7005 70.1278 26.4091C69.7018 26.8293 69.0871 27.5755 68.7768 27.9518C68.083 27.425 67.3954 26.6788 66.799 25.826L66.6712 27.0613H61.529L61.6324 26.0329C60.8961 26.6976 60.111 27.3059 59.253 27.8138C59.1678 27.4689 58.8757 26.6788 58.6323 26.2336H56.9466L56.6849 28.7608H58.5288L58.3584 30.3975H56.5145L56.119 34.2416L58.3828 33.5706L58.2367 35.3013C57.2204 35.5961 56.3137 35.8657 55.1088 36.1981C53.8065 36.5555 52.6198 36.8816 52.0234 37.0384C51.8226 37.0948 51.6461 36.9381 51.6705 36.7311L52.5711 27.9455H54.2568L53.5387 34.9314L54.2385 34.7182L55.1088 26.2273H52.6928L53.277 20.5145C53.3135 20.1696 53.6057 19.8999 53.9404 19.8999H58.6688C59.0096 19.8999 59.2591 20.1884 59.2226 20.5395L58.6566 26.0705C59.9711 25.3243 61.0726 24.3335 62.0767 23.142H59.7642L59.9346 21.5053H63.2694C63.6893 20.8406 63.9327 20.3326 64.237 19.3418H66.0201C65.7888 20.3201 65.4663 20.9597 65.1559 21.5053H70.2008L70.0304 23.142H67.3163H67.3041ZM57.4273 21.5241H54.8471L54.5306 24.6345H57.1109L57.4273 21.5241ZM59.0522 28.4974H69.3732L69.2149 30.0526H63.166C62.9712 30.5856 62.7704 31.1312 62.5635 31.6517C62.5331 31.7332 62.5818 31.8147 62.667 31.8147H68.077L67.9431 32.5233C67.4015 35.2951 67.365 36.5493 66.7381 37.0948C66.2635 37.5213 65.7401 37.6592 64.949 37.678C64.2979 37.7157 61.0482 37.6404 61.0482 37.6404L61.2125 36.0225C61.2125 36.0225 63.5433 36.0476 64.097 36.0476C64.5109 36.0476 64.7847 36.0288 65.016 35.8845C65.3385 35.6024 65.5089 34.8185 65.7827 33.3511L60.111 33.3699C59.9041 33.3699 59.7703 33.163 59.8555 32.956L61.0482 30.0526H58.8879L59.0461 28.4974H59.0522ZM66.6103 25.55C66.1174 24.8038 65.6732 23.9509 65.3872 23.142H64.1336C63.5554 24.0136 62.8799 24.8226 62.1619 25.55H66.6164H66.6103Z" fill="black"/>
<path d="M77.9058 33.5713L71.8325 35.9793L71.4187 34.0604L73.2383 33.4522L74.0111 25.9082H72.5749L72.7575 24.1273H74.1937L74.6623 19.5369H76.6157L76.1471 24.1273H78.3683L78.1858 25.9082H75.9646L75.2647 32.7874L77.7111 31.8593L77.9058 33.5776V33.5713ZM86.7541 36.0922C86.9915 36.0922 86.9976 36.0734 87.1193 36.0295C87.241 35.9668 87.3566 35.8477 87.4357 35.6031C87.5209 35.3397 87.6974 33.9852 87.6974 33.9852H89.4318C89.4318 33.9852 89.0666 36.3681 88.8962 36.6942C88.6832 37.0391 88.4094 37.2586 88.0625 37.384C87.7582 37.5032 87.2227 37.5659 86.8454 37.5659H85.5492C85.0806 37.5659 84.5025 37.4217 84.1982 37.1395C83.8757 36.8573 83.7723 36.4936 83.8879 35.3585L84.1678 32.6118H82.5795C82.0379 37.0893 76.1289 37.9108 76.1289 37.9108L76.2932 36.1487C76.2932 36.1487 80.5287 35.1955 80.6747 32.6118H78.9891L79.5428 27.1875C79.5793 26.8426 79.8715 26.5729 80.2062 26.5729H88.0564C88.3972 26.5729 88.6467 26.8614 88.6102 27.2126L88.0625 32.6181H86.1091L85.817 35.4714C85.7865 35.7536 85.7865 35.9354 85.9022 35.9982C85.9935 36.0797 86.1273 36.0985 86.3221 36.0985H86.7481L86.7541 36.0922ZM89.7604 25.8831H78.8308L78.9951 24.3091H81.5876C81.5024 23.8012 81.3746 23.1553 81.2285 22.6285L82.9203 22.2397C83.1333 22.848 83.328 23.6319 83.3889 24.1586L82.8229 24.3028H85.4275C85.7257 23.6758 86.1213 22.9107 86.3342 22.3212L88.1295 22.6661C87.7948 23.2305 87.5027 23.7949 87.1984 24.3028H89.9247L89.7604 25.8769V25.8831ZM89.7969 22.177H79.6037L79.7619 20.6218H83.9852L83.5653 19.123H85.5127L85.9874 20.6218H89.9551L89.7969 22.177ZM81.3076 29.0311H86.4925L86.5959 28.0027H81.4111L81.3076 29.0311ZM81.0825 31.226H86.2673L86.3708 30.2101H81.1859L81.0825 31.226Z" fill="black"/>
<path d="M94.3018 28.8818L96.0631 29.7393L93.463 37.4389H91.3892L94.3018 28.8818ZM94.0594 19.5918L97.3531 21.6612L97.0691 23.6381L93.8464 21.6612L94.0594 19.5981V19.5918ZM93.463 23.7965L96.937 25.8596L96.6396 27.8511L93.25 25.8596L93.463 23.7965ZM109.748 21.9773H100.652C100.481 21.9773 100.335 22.1152 100.317 22.2908L99.0087 35.1462C98.9904 35.3218 99.1121 35.4598 99.2825 35.4598H108.775L108.586 37.3223H97.547C97.0419 37.3223 96.6768 36.9021 96.7316 36.3816L98.2895 21.0805C98.3442 20.56 98.7946 20.1399 99.2997 20.1399H109.943L109.755 21.9773H109.748Z" fill="black"/>
<path d="M114.337 32.0961C113.711 33.5948 112.877 35.2692 112.171 36.3791C111.861 36.1597 111.21 35.8336 110.808 35.6893C111.562 34.6358 112.329 33.0806 112.865 31.7073L114.337 32.0898V32.0961ZM117.185 31.168L116.699 35.8963C116.613 36.7052 116.419 37.3135 115.859 37.5769C115.281 37.8591 112.853 37.7337 112.853 37.7337L113.023 36.0969C113.023 36.0969 114.246 36.1158 114.459 36.1158C114.672 36.1158 114.739 36.053 114.763 35.8524L115.244 31.1617H111.447L111.605 29.6065H121.08L120.922 31.1617H117.179L117.185 31.168ZM116.163 22.5329H112.591L112.749 20.9965H116.321L116.492 19.3159H118.372L118.202 20.9965H121.774L121.616 22.5329H118.044L117.897 23.9689H121.062L120.904 25.5053H112.743L112.901 23.9689H116.023L116.169 22.5329H116.163ZM120.532 27.1608C121.877 25.1604 122.821 22.2507 123.484 19.2344L125.419 19.4789C125.145 20.6328 124.829 21.7616 124.488 22.8339L129.521 22.8214C129.922 22.8214 130.184 23.2102 130.044 23.6115C129.551 25.0162 128.541 27.8695 128.225 28.5342L126.6 28.0701C127.007 27.1608 127.476 25.8251 127.847 24.5333H123.904C123.38 26.0885 121.859 28.5969 121.859 28.5969C121.859 28.5969 120.892 27.9071 120.49 27.6249L120.417 28.3147H112.627L112.786 26.7783H120.575L120.539 27.1608H120.532ZM119.285 31.6885C119.711 32.6793 120.186 34.015 120.38 34.7989L118.841 35.4887C118.695 34.6421 118.263 33.2876 117.855 32.2529L119.285 31.6885ZM126.022 26.9414C125.961 27.5246 125.876 28.1517 125.766 28.8603C126.058 34.8678 129.314 35.9088 129.314 35.9088L129.162 37.7148C129.162 37.7148 126.33 37.1048 124.707 32.5476C122.839 37.9155 120.119 37.7964 120.119 37.7964L120.301 35.6768C120.301 35.6768 123.539 34.7989 124.208 26.8787L124.305 25.9506H126.119L126.016 26.9414H126.022Z" fill="black"/>
<path d="M110.994 3.90039H111.429C111.429 3.90039 111.107 5.91427 111.059 6.22315C111.011 6.53203 111.055 6.80693 111.055 6.80693H110.62C110.62 6.80693 110.572 6.55983 110.624 6.22933C110.658 6.00488 110.994 3.90039 110.994 3.90039Z" fill="black"/>
<path d="M102.233 3.90039H102.672C102.672 3.90039 102.347 5.91427 102.299 6.22315C102.251 6.53203 102.295 6.80693 102.295 6.80693H101.856C101.856 6.80693 101.808 6.55983 101.86 6.22933C101.895 6.00488 102.233 3.90039 102.233 3.90039Z" fill="black"/>
<path d="M105.215 5.77107C105.097 6.50723 104.419 6.85523 103.825 6.85523C103.16 6.85523 102.721 6.43413 102.82 5.81534C102.924 5.16052 103.518 4.73633 104.204 4.73633C104.89 4.73633 105.31 5.18523 105.215 5.77004V5.77107ZM103.222 5.80196C103.146 6.27145 103.482 6.55768 103.889 6.55768C104.295 6.55768 104.732 6.28278 104.81 5.78651C104.867 5.44263 104.665 5.03285 104.145 5.03285C103.625 5.03285 103.285 5.40247 103.222 5.7999V5.80196Z" fill="black"/>
<path d="M105.433 6.80601C105.47 6.65878 105.545 6.36122 105.576 6.16766L105.94 3.89844H106.367L106.182 5.05467H106.191C106.402 4.86934 106.676 4.7355 107.088 4.7355C107.702 4.7355 108.057 5.16999 107.96 5.76612C107.843 6.48889 107.227 6.8544 106.686 6.8544C106.34 6.8544 106.031 6.71952 105.909 6.47139H105.899L105.811 6.80395H105.43L105.434 6.80601H105.433ZM106.017 6.08941C106.052 6.32107 106.281 6.53008 106.634 6.53008C107.099 6.53008 107.44 6.23973 107.515 5.78053C107.579 5.38826 107.362 5.0557 106.889 5.0557C106.583 5.0557 106.265 5.22044 106.12 5.52108C106.054 5.65595 106.003 5.99057 106.019 6.08941H106.017Z" fill="black"/>
<path d="M109.648 6.80581L109.652 6.53709H109.64C109.486 6.69564 109.196 6.85626 108.838 6.85626C108.343 6.85626 108.166 6.54532 108.208 6.2766C108.292 5.7546 108.799 5.50955 109.766 5.51676L109.772 5.47969C109.794 5.35202 109.821 5.01226 109.31 5.01226C109.004 5.01226 108.724 5.11831 108.537 5.22333L108.583 4.92783C108.815 4.80428 109.033 4.73633 109.411 4.73633C110.16 4.73633 110.24 5.212 110.178 5.5981L110.063 6.31366C110.035 6.49384 110.044 6.80478 110.044 6.80478H109.645L109.648 6.80684V6.80581ZM109.705 5.77931C109.203 5.76798 108.698 5.85035 108.639 6.21379C108.601 6.44236 108.76 6.55356 108.98 6.55356C109.307 6.55356 109.518 6.37029 109.613 6.21379C109.634 6.17467 109.648 6.13452 109.651 6.10157L109.703 5.77828H109.705V5.77931Z" fill="black"/>
<path d="M100.551 5.62503H101.082L100.959 6.39208C100.848 6.44459 100.65 6.48269 100.369 6.48269C99.6087 6.48269 99.2185 6.0554 99.3245 5.39441C99.4285 4.74473 99.9701 4.27112 100.759 4.27112C101.211 4.27112 101.501 4.38334 101.6 4.42968L101.655 4.08373C101.554 4.03534 101.264 3.91797 100.828 3.91797C99.7415 3.91797 99.0301 4.65619 98.9086 5.40985C98.8427 5.82169 98.9508 6.19028 99.168 6.42812C99.4234 6.71228 99.794 6.83172 100.278 6.83172C100.723 6.83172 101.1 6.72361 101.287 6.65772L101.501 5.32233H100.596L100.548 5.62195L100.552 5.624L100.551 5.62503Z" fill="black"/>
<path d="M95.0523 6.85938C95.0523 6.85938 93.1424 10.9005 92.9684 11.2918H92.9262C92.849 10.9366 91.5867 6.85938 91.5867 6.85938H89.5842L91.7103 12.588C91.7762 12.7579 91.7854 12.8547 91.7782 12.9247C91.771 12.9957 91.7164 13.0946 91.6351 13.1975C91.3046 13.6753 90.8248 14.0562 90.4583 14.2333C90.0722 14.4341 89.6871 14.5484 89.4009 14.5947L89.2537 15.9764C89.7427 15.9363 90.8485 15.7602 91.6289 15.2341C92.5082 14.6596 93.2969 13.7247 94.7084 11.0611L97.0158 6.85938H95.0523Z" fill="black"/>
<path d="M85.7829 6.56641C84.6287 6.56641 83.6279 7.02458 83.005 7.34375L82.8331 8.58029C83.3705 8.292 84.5865 7.84413 85.3144 7.84413C86.6766 7.83795 86.7353 8.46086 86.6869 8.79548L86.6735 8.87887C83.8442 8.86137 82.1546 9.83536 81.9301 11.4055C81.8004 12.3105 82.4408 13.2691 83.9595 13.2691C84.9376 13.2691 86.3234 12.3991 86.3234 12.3991L86.2843 13.1156H88.0573C88.0573 13.1156 88.1458 12.0428 88.2313 11.4456L88.5237 9.40808C88.7203 8.02225 88.1118 6.56847 85.7829 6.56847V6.56641ZM86.4614 10.7013C86.4459 10.8094 86.4171 10.9411 86.3584 11.0554C86.1165 11.5043 85.5193 11.8884 84.7173 11.9677C84.0645 12.0356 83.6753 11.8029 83.7608 11.2212C83.8884 10.3152 85.127 10.0495 86.552 10.0711L86.4614 10.6992V10.7013Z" fill="black"/>
<path d="M79.0828 3.96875C79.6532 3.96875 80.1268 4.05215 80.5036 4.21791C80.8805 4.38368 81.1749 4.60298 81.3881 4.87582C81.6012 5.14866 81.7402 5.45857 81.8061 5.8076C81.872 6.15664 81.8781 6.51802 81.8256 6.89279C81.7731 7.26757 81.666 7.61866 81.5013 7.97181C81.3366 8.32496 81.1101 8.63795 80.8208 8.9108C80.5314 9.18364 80.1752 9.40294 79.751 9.56871C79.3278 9.73447 78.8305 9.81787 78.2602 9.81787H76.2185L75.7593 13.0868H73.8823L75.1642 3.96978H79.0828V3.96875ZM77.5075 8.39085C77.7793 8.39085 78.2056 8.37541 78.464 8.33628C78.7214 8.29716 79.1209 8.21891 79.3309 8.09433C79.541 7.96975 79.7108 7.88017 79.8447 7.66602C79.993 7.42921 80.0815 7.15122 80.1299 6.81866C80.1783 6.48611 80.1639 6.21944 80.1042 5.98881C80.0558 5.8004 79.96 5.6614 79.785 5.54918C79.6099 5.43695 79.3515 5.32678 79.1034 5.30104C78.8357 5.27324 78.4753 5.27427 78.2025 5.27427H76.8506L76.4141 8.39085H77.5075Z" fill="black"/>
<path d="M70.6648 6.69439C69.4993 6.69439 68.6355 7.17212 68.2412 7.66118H68.1948L68.2782 7.04239H66.5022C66.4579 7.58396 66.4157 7.968 66.3107 8.68871L65.6826 13.0748H67.5534L68.0867 9.40016C68.1114 9.21895 68.166 9.02539 68.2432 8.90184C68.5058 8.41896 69.0823 7.97623 69.8226 7.97623C70.8409 7.97623 71.1426 8.65679 71.0128 9.55563L70.5011 13.0789H72.3719L72.9155 9.37339C73.1976 7.3976 71.9528 6.70263 70.6658 6.70263V6.69336V6.69542L70.6648 6.69439Z" fill="black"/>
<path d="M62.4025 6.68164V6.69297C60.0252 6.69297 58.5508 8.17558 58.3048 9.89397C58.0319 11.807 59.2612 13.2051 61.6602 13.2051C62.7289 13.2051 63.7287 13.0085 64.5307 12.5575L64.7799 11.1274C64.0025 11.6937 62.9595 12.0129 62.1009 12.0129C60.9065 12.0129 59.9418 11.5176 60.052 10.3851H64.9899C65.0455 10.2482 65.1093 10.0155 65.1526 9.71997C65.3482 8.35576 64.8066 6.68576 62.4036 6.68576L62.4015 6.68164H62.4025ZM63.4558 9.28548H60.2044C60.3784 8.64713 60.9817 7.76477 62.1338 7.76477C63.3848 7.76477 63.5485 8.70582 63.4558 9.28548Z" fill="black"/>
<path d="M60.5851 3.96094L60.3597 5.28705H57.0619L55.9273 13.0739H54.0565L55.1911 5.28705H51.8933L52.0848 3.96094H55.4094H60.5851Z" fill="black"/>
</svg>
