<svg width="334" height="88" viewBox="0 0 334 88" fill="none" xmlns="http://www.w3.org/2000/svg">
<path fill-rule="evenodd" clip-rule="evenodd" d="M44 17C29.0883 17 17 29.0883 17 44C17 58.9117 29.0883 71 44 71C46.9988 71 49.8834 70.5111 52.5785 69.6087C51.018 68.8151 49.5924 67.7944 48.3452 66.5901C46.9381 66.8592 45.4855 67 44 67C43.3464 67 42.5214 66.6771 41.5607 65.6612C40.5959 64.641 39.6349 63.0575 38.7859 60.9349C37.2623 57.126 36.2255 51.8991 36.0326 46H44.9315C45.6862 44.5341 46.642 43.1887 47.7622 42H36.0326C36.2255 36.1009 37.2623 30.874 38.7859 27.0651C39.6349 24.9425 40.5959 23.359 41.5607 22.3388C42.5214 21.3229 43.3464 21 44 21C44.6536 21 45.4786 21.3229 46.4393 22.3388C47.4041 23.359 48.3651 24.9425 49.2141 27.0651C50.4581 30.175 51.3776 34.2303 51.7782 38.8249C52.9813 38.1319 54.2746 37.5779 55.6362 37.1848C55.1553 32.7796 54.216 28.7994 52.928 25.5795C52.435 24.347 51.8805 23.1998 51.2645 22.1708C58.3418 24.5249 63.8912 30.2245 66.0373 37.3941C67.7071 37.9507 69.2649 38.752 70.6683 39.7556C68.6322 26.8604 57.4676 17 44 17ZM36.7355 22.1708C28.199 25.0103 21.8854 32.7171 21.0858 42H32.0306C32.2243 35.6878 33.3288 29.9374 35.072 25.5795C35.565 24.347 36.1195 23.1998 36.7355 22.1708ZM32.0306 46H21.0858C21.8854 55.2829 28.199 62.9897 36.7355 65.8292C36.1195 64.8002 35.565 63.653 35.072 62.4205C33.3288 58.0626 32.2243 52.3122 32.0306 46Z" fill="#0CBD6A"/>
<path fill-rule="evenodd" clip-rule="evenodd" d="M60.5 68.5C68.5081 68.5 75 62.0081 75 54C75 45.9919 68.5081 39.5 60.5 39.5C52.4919 39.5 46 45.9919 46 54C46 62.0081 52.4919 68.5 60.5 68.5ZM59 48C59 47.3934 58.6345 46.8464 58.074 46.6142C57.5135 46.3821 56.8683 46.5104 56.4393 46.9394L51.9393 51.4394C51.3536 52.0252 51.3536 52.9749 51.9393 53.5607C52.5251 54.1465 53.4749 54.1465 54.0607 53.5607L56 51.6214V60C56 60.8285 56.6716 61.5 57.5 61.5C58.3284 61.5 59 60.8285 59 60V48ZM62.926 61.3858C62.3655 61.1536 62 60.6067 62 60V48C62 47.1715 62.6716 46.5 63.5 46.5C64.3284 46.5 65 47.1715 65 48V56.3786L66.9393 54.4393C67.5251 53.8535 68.4749 53.8535 69.0607 54.4393C69.6464 55.0251 69.6464 55.9748 69.0607 56.5606L64.5607 61.0606C64.1317 61.4896 63.4865 61.6179 62.926 61.3858Z" fill="#0CBD6A"/>
<path fill-rule="evenodd" clip-rule="evenodd" d="M116.643 25.8145C116.465 25.8145 116.377 25.8145 116.312 25.8536C116.275 25.8757 116.245 25.9052 116.222 25.9414C116.182 26.0055 116.181 26.0954 116.178 26.2751C116.148 27.9777 115.954 29.7556 115.579 31.5145H113.787L113.782 31.4801L113.779 31.4577L113.779 31.4568L113.152 27.0256C113.13 26.8708 113.119 26.7935 113.078 26.7378C113.054 26.7066 113.025 26.6808 112.99 26.662C112.929 26.6287 112.851 26.6287 112.695 26.6287H110.169C109.967 26.6287 109.866 26.6287 109.797 26.676C109.758 26.7023 109.727 26.7382 109.707 26.78C109.67 26.8552 109.684 26.9551 109.712 27.1548L110.328 31.5145H108.637C108.46 31.5145 108.371 31.5145 108.306 31.5545C108.269 31.5768 108.238 31.6075 108.216 31.6441C108.176 31.7093 108.176 31.7982 108.176 31.9759V34.3102C108.176 34.4879 108.176 34.5767 108.216 34.642C108.238 34.6785 108.269 34.7092 108.306 34.7316C108.371 34.7716 108.46 34.7716 108.637 34.7716H114.659C114.377 35.5607 114.054 36.3329 113.688 37.0787L107.582 37.0787C107.404 37.0787 107.315 37.0787 107.25 37.1187C107.214 37.1411 107.183 37.1718 107.161 37.2083C107.121 37.2736 107.121 37.3625 107.121 37.5402V39.8745C107.121 40.0522 107.121 40.141 107.161 40.2063C107.183 40.2428 107.214 40.2735 107.25 40.2959C107.315 40.3359 107.404 40.3359 107.582 40.3359H111.661C110.434 41.8992 108.938 43.2183 107.149 44.1557C107.045 44.2104 106.993 44.2378 106.959 44.2776C106.939 44.3005 106.924 44.325 106.913 44.353C106.894 44.4016 106.894 44.4585 106.894 44.5723V47.4632C106.894 47.7229 106.894 47.8527 106.959 47.9291C106.995 47.9702 107.045 48.0014 107.098 48.0149C107.195 48.0399 107.309 47.9835 107.536 47.8709C108.5 47.3925 109.406 46.8253 110.253 46.1827H120.754C120.906 46.1827 120.982 46.1827 121.04 46.2123C121.091 46.2383 121.133 46.2799 121.159 46.3309C121.188 46.389 121.188 46.465 121.188 46.617V49.6999L115.144 49.7C114.966 49.7 114.877 49.7 114.812 49.66C114.775 49.6376 114.745 49.6069 114.722 49.5704C114.682 49.5051 114.682 49.4163 114.682 49.2386V47.6339C114.682 47.4562 114.682 47.3674 114.642 47.3021C114.62 47.2656 114.589 47.2349 114.553 47.2125C114.487 47.1725 114.398 47.1725 114.221 47.1725H111.344C111.166 47.1725 111.077 47.1725 111.012 47.2125C110.975 47.2349 110.945 47.2656 110.922 47.3021C110.882 47.3674 110.882 47.4562 110.882 47.6339V50.5957L110.882 50.6119C110.882 50.6777 110.882 50.8344 110.896 50.9836C110.914 51.1753 110.968 51.5389 111.202 51.9203C111.381 52.2124 111.627 52.4581 111.919 52.6371C112.3 52.8708 112.664 52.9254 112.856 52.9436C113.005 52.9578 113.162 52.9573 113.227 52.9572L113.244 52.9571L123.804 52.957C123.981 52.957 124.07 52.957 124.135 52.997C124.172 53.0194 124.203 53.0501 124.225 53.0866C124.265 53.1519 124.265 53.2407 124.265 53.4184V56.2144L124.265 56.239L124.265 56.2618V58.4673C124.265 58.645 124.265 58.7338 124.225 58.7991C124.203 58.8356 124.172 58.8663 124.136 58.8887C124.07 58.9287 123.981 58.9287 123.803 58.9287H120.927C120.749 58.9287 120.66 58.9287 120.595 58.9687C120.558 58.9911 120.527 59.0218 120.505 59.0583C120.465 59.1236 120.465 59.2124 120.465 59.3901V61.7244C120.465 61.9021 120.465 61.991 120.505 62.0562C120.527 62.0928 120.558 62.1235 120.595 62.1458C120.66 62.1858 120.749 62.1858 120.927 62.1858L124.103 62.1858L124.118 62.1858C125.046 62.1856 125.526 62.1803 125.918 62.053C126.745 61.7845 127.392 61.1366 127.661 60.3103C127.794 59.9014 127.794 59.3963 127.794 58.3859L127.794 53.3901C127.794 53.0843 127.794 52.7361 127.765 52.4335C127.732 52.084 127.647 51.6048 127.354 51.1256C127.107 50.7238 126.77 50.386 126.368 50.1399C125.889 49.8462 125.409 49.7616 125.06 49.7284C124.866 49.71 124.653 49.7034 124.445 49.7011V47.7027C124.445 46.8036 124.445 46.1461 124.395 45.6312C125.46 46.3791 126.592 47.0083 127.738 47.4509C127.95 47.533 128.057 47.5741 128.148 47.5449C128.197 47.5291 128.244 47.4969 128.276 47.4568C128.337 47.3822 128.337 47.2642 128.337 47.0282V44.4681C128.337 44.3315 128.337 44.2632 128.311 44.2088C128.296 44.1768 128.278 44.1513 128.253 44.127C128.209 44.0855 128.141 44.0623 128.004 44.0157C126.235 43.4132 124.364 42.0018 122.972 40.3359H127.288C127.465 40.3359 127.554 40.3359 127.619 40.2959C127.656 40.2735 127.687 40.2428 127.709 40.2063C127.749 40.141 127.749 40.0522 127.749 39.8745V37.5402C127.749 37.3625 127.749 37.2736 127.709 37.2083C127.687 37.1718 127.656 37.1411 127.619 37.1187C127.554 37.0787 127.465 37.0787 127.288 37.0787L117.059 37.0787C117.38 36.3231 117.667 35.5522 117.922 34.7716H126.775C126.953 34.7716 127.042 34.7716 127.107 34.7316C127.143 34.7092 127.174 34.6785 127.196 34.642C127.236 34.5767 127.236 34.4879 127.236 34.3102V31.9759C127.236 31.7982 127.236 31.7093 127.196 31.6441C127.174 31.6075 127.143 31.5768 127.107 31.5545C127.042 31.5145 126.953 31.5145 126.775 31.5145H124.84C124.895 31.3507 124.947 31.1982 124.991 31.0687L125.068 30.8415C125.379 29.9241 125.772 28.6813 126.168 27.2047C126.225 26.9905 126.254 26.8834 126.22 26.7996C126.202 26.7534 126.171 26.7125 126.131 26.6827C126.058 26.6287 125.947 26.6287 125.724 26.6287H123.234C123.096 26.6287 123.027 26.6287 122.971 26.656C122.939 26.6715 122.911 26.6927 122.888 26.719C122.846 26.7655 122.827 26.8323 122.789 26.9659C122.507 27.9502 122.238 28.7908 122.016 29.4461L121.92 29.7284L121.92 29.7289C121.748 30.2383 121.467 31.0675 121.312 31.5145H118.78C119.138 29.7562 119.332 27.9892 119.362 26.2749C119.365 26.1004 119.366 26.0131 119.327 25.9467C119.305 25.9099 119.273 25.8779 119.237 25.8553C119.171 25.8145 119.082 25.8145 118.905 25.8145H116.643ZM121.307 42.9461C120.512 42.0984 119.822 41.2108 119.276 40.3359H115.401C114.854 41.2437 114.25 42.1112 113.59 42.9256H119.668C120.333 42.9256 120.866 42.9256 121.307 42.9461Z" fill="#1F1F1F"/>
<path fill-rule="evenodd" clip-rule="evenodd" d="M102.279 49.9716V61.8122C102.279 61.9899 102.279 62.0787 102.319 62.144C102.342 62.1805 102.372 62.2112 102.409 62.2336C102.474 62.2736 102.563 62.2736 102.741 62.2736H105.347C105.524 62.2736 105.613 62.2736 105.678 62.2336C105.715 62.2112 105.746 62.1805 105.768 62.144C105.808 62.0787 105.808 61.9899 105.808 61.8122L105.808 30.1833C105.808 30.1351 105.808 30.0859 105.808 30.036V29.723C105.808 28.4791 105.808 27.8572 105.528 27.4003C105.371 27.1446 105.156 26.9297 104.901 26.773C104.444 26.493 103.822 26.493 102.578 26.493H98.4023C97.1584 26.493 96.5365 26.493 96.0796 26.773C95.8239 26.9297 95.609 27.1446 95.4523 27.4003C95.1735 27.8553 95.1723 28.4741 95.1723 29.7079C95.1689 29.8696 95.1689 30.0317 95.169 30.1833L95.169 50.295C95.169 54.5561 94.7856 57.6857 94.4124 59.7229C94.2258 60.7417 94.0416 61.4882 93.9088 61.9672C93.8664 62.1203 93.9805 62.2736 94.1394 62.2736H97.1213C97.2638 62.2736 97.335 62.2736 97.393 62.2441C97.4253 62.2277 97.4548 62.2043 97.4781 62.1765C97.5199 62.1266 97.5357 62.0581 97.5673 61.9212C97.6674 61.4873 97.7734 60.9829 97.8788 60.4075C98.2934 58.1443 98.6976 54.7855 98.6976 50.295V49.9716H102.279ZM98.6976 40.2002V46.7145H102.279V40.2002H98.6976ZM102.279 36.943H98.6976V30.601H98.7008V30.2965C98.7051 30.2327 98.7149 30.1882 98.7376 30.1512C98.76 30.1147 98.7907 30.084 98.8272 30.0616C98.8925 30.0216 98.9813 30.0216 99.159 30.0216H101.818C101.996 30.0216 102.084 30.0216 102.15 30.0616C102.186 30.084 102.217 30.1147 102.239 30.1512C102.279 30.2165 102.279 30.3054 102.279 30.4831V36.943Z" fill="#1F1F1F"/>
<path d="M122.998 57.1801C122.998 57.3578 122.998 57.4467 122.958 57.512C122.936 57.5485 122.905 57.5792 122.869 57.6016C122.803 57.6416 122.714 57.6416 122.537 57.6416L107.582 57.6416C107.404 57.6416 107.315 57.6416 107.25 57.6016C107.214 57.5792 107.183 57.5485 107.161 57.512C107.121 57.4467 107.121 57.3578 107.121 57.1801V54.8459C107.121 54.6682 107.121 54.5793 107.161 54.514C107.183 54.4775 107.214 54.4468 107.25 54.4244C107.315 54.3844 107.404 54.3844 107.582 54.3844L122.537 54.3844C122.714 54.3844 122.803 54.3844 122.869 54.4244C122.905 54.4468 122.936 54.4775 122.958 54.514C122.998 54.5793 122.998 54.6682 122.998 54.8459V57.1801Z" fill="#1F1F1F"/>
<path d="M133.316 30.1222C133.297 30.0738 133.297 30.0183 133.297 29.9073V26.5805C133.297 26.302 133.297 26.1627 133.364 26.0859C133.401 26.0436 133.451 26.0139 133.505 26.0009C133.605 25.9772 133.728 26.0424 133.974 26.1727L139.837 29.2763C139.935 29.3283 139.984 29.3542 140.018 29.3939C140.037 29.4164 140.052 29.4418 140.063 29.4692C140.082 29.5176 140.082 29.5731 140.082 29.6841V33.0109C140.082 33.2894 140.082 33.4287 140.015 33.5055C139.978 33.5478 139.928 33.5776 139.874 33.5906C139.774 33.6142 139.651 33.5491 139.405 33.4187L133.542 30.3151C133.444 30.2632 133.395 30.2372 133.361 30.1975C133.342 30.175 133.327 30.1496 133.316 30.1222Z" fill="#1F1F1F"/>
<path fill-rule="evenodd" clip-rule="evenodd" d="M149.572 62.4422C149.394 62.4422 149.305 62.4422 149.24 62.4022C149.203 62.3798 149.173 62.3491 149.15 62.3125C149.11 62.2473 149.11 62.1584 149.11 61.9807L149.11 44.4123H142.243C142.065 44.4123 141.977 44.4123 141.911 44.3723C141.875 44.3499 141.844 44.3192 141.822 44.2827C141.782 44.2174 141.782 44.1286 141.782 43.9509V41.6166C141.782 41.4389 141.782 41.35 141.822 41.2848C141.844 41.2482 141.875 41.2175 141.911 41.1952C141.977 41.1552 142.065 41.1552 142.243 41.1552H149.11L149.11 29.8707H143.303C143.125 29.8707 143.036 29.8707 142.971 29.8307C142.934 29.8084 142.904 29.7777 142.881 29.7411C142.841 29.6759 142.841 29.587 142.841 29.4093V26.8036C142.841 26.6259 142.841 26.537 142.881 26.4718C142.904 26.4352 142.934 26.4045 142.971 26.3822C143.036 26.3422 143.125 26.3422 143.303 26.3422L157.127 26.3422C157.94 26.3421 158.695 26.342 159.325 26.4019C160.01 26.467 160.767 26.6179 161.492 27.0621C162.149 27.465 162.702 28.0177 163.105 28.6751C163.549 29.4 163.7 30.1568 163.765 30.8416C163.825 31.4716 163.825 32.2273 163.825 33.0405L163.825 45.6746C163.825 52.3013 164.79 56.6579 165.7 59.2939C165.97 60.0754 166.235 60.7078 166.47 61.2053C166.596 61.4703 166.658 61.6028 166.633 61.6991C166.618 61.7539 166.589 61.7988 166.546 61.8355C166.47 61.9001 166.328 61.9001 166.044 61.9001H163.164C163.04 61.9001 162.978 61.9001 162.925 61.8764C162.896 61.8632 162.868 61.8442 162.845 61.8214C162.804 61.7807 162.782 61.7238 162.738 61.6101C162.628 61.3274 162.518 61.0277 162.409 60.7104C161.325 57.568 160.296 52.7266 160.296 45.6746V44.4123H152.639L152.639 61.9807C152.639 62.1584 152.639 62.2473 152.599 62.3125C152.576 62.3491 152.546 62.3798 152.509 62.4022C152.444 62.4422 152.355 62.4422 152.177 62.4422H149.572ZM160.296 41.1552V32.585C160.296 30.0327 160.134 29.8707 157.582 29.8707H152.639V41.1552H160.296Z" fill="#1F1F1F"/>
<path d="M135.985 39.6422C136.156 39.6423 136.241 39.6423 136.306 39.6823C136.342 39.7043 136.374 39.736 136.396 39.7719C136.436 39.8371 136.436 39.9226 136.436 40.0937L136.436 57.4483C136.436 59.3772 136.436 60.3416 136.92 60.9393C137.184 61.2648 137.554 61.5165 137.953 61.6428C138.687 61.8746 139.572 61.5265 141.341 60.8302C141.898 60.6114 142.495 60.3745 143.129 60.1203L144.66 59.5065C144.89 59.4143 145.005 59.3682 145.085 59.2862C145.13 59.2398 145.167 59.1858 145.193 59.1266C145.24 59.0217 145.24 58.8978 145.24 58.6499V56.475C145.24 56.2229 145.24 56.0968 145.18 56.0224C145.146 55.9808 145.103 55.9506 145.052 55.9342C144.961 55.9047 144.842 55.9499 144.604 56.0404C143.886 56.3136 143.058 56.6105 142.248 56.9009L142.247 56.9012C141.673 57.1071 141.107 57.3099 140.597 57.4986C140.362 57.5852 140.245 57.6286 140.155 57.5987C140.104 57.5821 140.061 57.5518 140.028 57.5104C139.969 57.4361 139.969 57.3141 139.968 57.07C139.968 54.5285 139.965 45.3368 139.965 40.7097L139.965 39.8023C139.965 38.3827 139.965 37.6729 139.645 37.1506C139.466 36.8585 139.22 36.6126 138.928 36.4336C138.406 36.1136 137.696 36.1136 136.275 36.1136L132.672 36.1136C132.495 36.1136 132.406 36.1136 132.341 36.1536C132.304 36.176 132.273 36.2067 132.251 36.2432C132.211 36.3085 132.211 36.3973 132.211 36.575V39.1807C132.211 39.3584 132.211 39.4473 132.251 39.5126C132.273 39.5491 132.304 39.5798 132.341 39.6022C132.406 39.6422 132.495 39.6422 132.672 39.6422L135.985 39.6422Z" fill="#1F1F1F"/>
<path fill-rule="evenodd" clip-rule="evenodd" d="M190.257 28.3979V26.3894C190.257 26.2373 190.257 26.1613 190.287 26.1033C190.313 26.0522 190.354 26.0107 190.405 25.9847C190.463 25.9551 190.539 25.9551 190.691 25.9551H193.351C193.503 25.9551 193.579 25.9551 193.637 25.9847C193.688 26.0107 193.73 26.0522 193.756 26.1033C193.786 26.1613 193.786 26.2373 193.786 26.3894V28.3979H201.63C201.782 28.3979 201.858 28.3979 201.916 28.4275C201.967 28.4535 202.008 28.4951 202.035 28.5461C202.064 28.6042 202.064 28.6802 202.064 28.8322V31.2208C202.064 31.3728 202.064 31.4488 202.035 31.5069C202.008 31.5579 201.967 31.5995 201.916 31.6255C201.858 31.6551 201.782 31.6551 201.63 31.6551H198.069L198.144 31.6832L197.266 34.6408H202.444C202.596 34.6408 202.672 34.6408 202.73 34.6704C202.781 34.6964 202.823 34.7379 202.849 34.789C202.878 34.8471 202.878 34.9231 202.878 35.0751V37.4637C202.878 37.6157 202.878 37.6917 202.849 37.7497C202.823 37.8008 202.781 37.8423 202.73 37.8684C202.672 37.8979 202.596 37.8979 202.444 37.8979H181.327C181.175 37.8979 181.099 37.8979 181.041 37.8684C180.99 37.8423 180.948 37.8008 180.922 37.7497C180.893 37.6917 180.893 37.6157 180.893 37.4636V35.0751C180.893 34.9231 180.893 34.8471 180.922 34.789C180.948 34.7379 180.99 34.6964 181.041 34.6704C181.099 34.6408 181.175 34.6408 181.327 34.6408H186.488L185.61 31.6832L185.685 31.6551H182.413C182.261 31.6551 182.185 31.6551 182.127 31.6255C182.076 31.5995 182.034 31.5579 182.008 31.5069C181.978 31.4488 181.978 31.3728 181.978 31.2208V28.8322C181.978 28.6802 181.978 28.6042 182.008 28.5461C182.034 28.4951 182.076 28.4535 182.127 28.4275C182.185 28.3979 182.261 28.3979 182.413 28.3979H190.257ZM188.991 31.6551H194.763L193.876 34.6408H189.878L188.991 31.6551Z" fill="#1F1F1F"/>
<path d="M176.957 36.9479L176.957 51.383L180.292 50.4734C180.404 50.4429 180.46 50.4276 180.504 50.4406C180.543 50.4519 180.576 50.4772 180.597 50.5116C180.621 50.5508 180.621 50.6088 180.621 50.7248V53.7094C180.621 53.8282 180.621 53.8876 180.601 53.9373C180.583 53.9812 180.553 54.0196 180.516 54.0486C180.473 54.0815 180.416 54.0971 180.301 54.1284L170.093 56.9124C169.981 56.9429 169.925 56.9582 169.881 56.9452C169.842 56.9339 169.809 56.9086 169.788 56.8742C169.764 56.835 169.764 56.777 169.764 56.661V53.6764C169.764 53.5576 169.764 53.4982 169.785 53.4485C169.803 53.4046 169.832 53.3662 169.87 53.3372C169.912 53.3043 169.97 53.2887 170.084 53.2574L173.428 52.3453L173.428 36.9479H169.927C169.775 36.9479 169.699 36.9479 169.641 36.9184C169.59 36.8923 169.548 36.8508 169.522 36.7997C169.493 36.7417 169.493 36.6657 169.493 36.5136V33.8537C169.493 33.7016 169.493 33.6256 169.522 33.5676C169.548 33.5165 169.59 33.475 169.641 33.4489C169.699 33.4194 169.775 33.4194 169.927 33.4194H173.428L173.428 27.2036C173.428 27.0516 173.428 26.9756 173.458 26.9176C173.484 26.8665 173.526 26.825 173.577 26.7989C173.635 26.7694 173.711 26.7694 173.863 26.7694L176.523 26.7694C176.675 26.7694 176.751 26.7694 176.809 26.7989C176.86 26.825 176.901 26.8665 176.927 26.9176C176.957 26.9756 176.957 27.0516 176.957 27.2036V33.4194H179.373C179.525 33.4194 179.601 33.4194 179.659 33.4489C179.71 33.475 179.751 33.5165 179.777 33.5676C179.807 33.6256 179.807 33.7016 179.807 33.8537V36.5137C179.807 36.6657 179.807 36.7417 179.777 36.7997C179.751 36.8508 179.71 36.8923 179.659 36.9184C179.601 36.9479 179.525 36.9479 179.373 36.9479H176.957Z" fill="#1F1F1F"/>
<path fill-rule="evenodd" clip-rule="evenodd" d="M184.003 39.5509C184.584 39.2551 185.344 39.2551 186.864 39.2551H196.907C198.427 39.2551 199.187 39.2551 199.768 39.5509C200.279 39.8111 200.694 40.2264 200.954 40.7371C201.25 41.3177 201.25 42.0778 201.25 43.5979V48.7551C201.25 50.2752 201.25 51.0353 200.954 51.6159C200.694 52.1266 200.279 52.5419 199.768 52.8021C199.223 53.0798 198.52 53.0968 197.178 53.0979V57.3865C197.178 57.6905 197.178 57.8426 197.238 57.9587C197.29 58.0608 197.373 58.1439 197.475 58.1959C197.591 58.2551 197.743 58.2551 198.047 58.2551H204.073C204.225 58.2551 204.301 58.2551 204.359 58.2847C204.41 58.3107 204.451 58.3522 204.477 58.4033C204.507 58.4613 204.507 58.5374 204.507 58.6894V61.0779C204.507 61.23 204.507 61.306 204.477 61.364C204.451 61.4151 204.41 61.4566 204.359 61.4826C204.301 61.5122 204.225 61.5122 204.073 61.5122H198.698C197.026 61.5122 196.19 61.5122 195.551 61.1868C194.99 60.9005 194.533 60.4438 194.247 59.882C193.921 59.2433 193.921 58.4072 193.921 56.7351V53.0979H189.599C189.085 57.7376 185.294 60.0095 182.099 61.0743C180.569 61.5844 179.056 61.8673 177.846 62.0255C177.682 62.0469 177.601 62.0577 177.535 62.0314C177.478 62.0086 177.429 61.9655 177.399 61.9119C177.364 61.8501 177.364 61.7662 177.364 61.5983V59.1858C177.364 59.0504 177.364 58.9827 177.389 58.929C177.41 58.8812 177.444 58.842 177.489 58.8135C177.538 58.7816 177.606 58.7717 177.743 58.7519C178.744 58.6067 179.914 58.3694 181.07 57.9842C183.721 57.1004 185.839 55.6323 186.305 53.0973C185.148 53.0929 184.508 53.0592 184.003 52.8021C183.493 52.5419 183.077 52.1266 182.817 51.6159C182.521 51.0353 182.521 50.2752 182.521 48.7551V43.5979C182.521 42.0778 182.521 41.3177 182.817 40.7371C183.077 40.2264 183.493 39.8111 184.003 39.5509ZM185.778 47.6015V49.4065C185.778 49.5585 185.778 49.6345 185.808 49.6926C185.834 49.7437 185.876 49.7852 185.927 49.8112C185.985 49.8408 186.061 49.8408 186.213 49.8408H197.558C197.71 49.8408 197.786 49.8408 197.844 49.8112C197.896 49.7852 197.937 49.7437 197.963 49.6926C197.993 49.6345 197.993 49.5585 197.993 49.4065V47.6015L185.778 47.6015ZM197.993 44.4801L185.778 44.4801V42.9465C185.778 42.7945 185.778 42.7185 185.808 42.6604C185.834 42.6094 185.876 42.5678 185.927 42.5418C185.985 42.5122 186.061 42.5122 186.213 42.5122H197.558C197.71 42.5122 197.786 42.5122 197.844 42.5418C197.896 42.5678 197.937 42.6094 197.963 42.6604C197.993 42.7185 197.993 42.7945 197.993 42.9465V44.4801Z" fill="#1F1F1F"/>
<path d="M230.532 61.6904C230.38 61.6904 230.304 61.6904 230.246 61.6608C230.195 61.6348 230.154 61.5932 230.128 61.5422C230.098 61.4841 230.098 61.4081 230.098 61.2561V26.989C230.098 26.837 230.098 26.761 230.128 26.7029C230.154 26.6518 230.195 26.6103 230.246 26.5843C230.304 26.5547 230.38 26.5547 230.532 26.5547H233.192C233.344 26.5547 233.42 26.5547 233.478 26.5843C233.53 26.6103 233.571 26.6518 233.597 26.7029C233.627 26.761 233.627 26.837 233.627 26.989V61.2561C233.627 61.4081 233.627 61.4841 233.597 61.5422C233.571 61.5932 233.53 61.6348 233.478 61.6608C233.42 61.6904 233.344 61.6904 233.192 61.6904H230.532Z" fill="#1F1F1F"/>
<path d="M216.538 34.3948H223.571C223.532 34.7781 223.479 35.2155 223.409 35.699C223.126 37.6392 222.561 40.3005 221.434 43.1767C221.219 43.7237 220.985 44.278 220.728 44.8363V44.7492C219.138 43.0163 217.493 41.4903 216.165 40.3358C216.031 40.2193 215.9 40.1064 215.772 39.9973C215.648 39.891 215.586 39.8379 215.518 39.8236C215.459 39.8111 215.396 39.819 215.342 39.8459C215.28 39.8766 215.233 39.944 215.138 40.0788L213.76 42.0448C213.68 42.1592 213.64 42.2163 213.63 42.2763C213.621 42.3294 213.627 42.3833 213.649 42.4325C213.674 42.4881 213.727 42.534 213.834 42.6258C213.898 42.6808 213.962 42.7368 214.028 42.7937C215.532 44.1019 217.425 45.8764 219.13 47.8506C216.83 51.6346 213.371 55.3277 208.154 57.9093C208.026 57.9723 207.963 58.0039 207.918 58.0494C207.878 58.0902 207.848 58.1377 207.83 58.1917C207.809 58.2521 207.809 58.3216 207.809 58.4604V61.5506C207.809 61.6812 207.809 61.7465 207.836 61.7878C207.861 61.8237 207.899 61.8488 207.941 61.8568C207.99 61.866 208.05 61.84 208.171 61.7881C217.534 57.7487 222.308 50.6162 224.719 44.4643C226.011 41.167 226.77 37.7884 227.068 34.3364C227.164 33.2292 227.212 32.6755 226.992 32.1703C226.808 31.7499 226.439 31.3477 226.036 31.1291C225.552 30.8663 224.948 30.8663 223.741 30.8663H217.778C218.142 29.5946 218.42 28.3126 218.605 27.043C218.629 26.8773 218.641 26.7945 218.615 26.7279C218.592 26.6701 218.549 26.6204 218.495 26.5898C218.433 26.5547 218.348 26.5547 218.178 26.5547H215.485C215.352 26.5547 215.286 26.5547 215.232 26.5786C215.185 26.6 215.146 26.6332 215.117 26.6765C215.085 26.7252 215.074 26.792 215.053 26.9256C214.231 32.0016 211.752 37.1379 208.47 40.5788C208.405 40.6466 208.373 40.6805 208.351 40.7181C208.331 40.7519 208.317 40.7868 208.308 40.8251C208.298 40.8676 208.298 40.9133 208.298 41.0048V44.9073C208.298 45.0715 208.298 45.1536 208.333 45.198C208.363 45.2361 208.411 45.2594 208.459 45.2599C208.516 45.2605 208.58 45.2111 208.708 45.1122C212.029 42.5458 214.75 38.6594 216.538 34.3948Z" fill="#1F1F1F"/>
<path d="M235.335 36.6384C235.203 36.6384 235.137 36.6384 235.096 36.666C235.06 36.6903 235.035 36.7277 235.027 36.7704C235.017 36.8191 235.043 36.8802 235.095 37.0024C236.618 40.5944 237.773 44.1038 238.566 46.7959C238.983 48.2125 239.298 49.3972 239.511 50.2411H242.815C242.928 50.2411 242.984 50.2411 243.023 50.2176C243.057 50.1971 243.082 50.1647 243.094 50.1268C243.108 50.0835 243.094 50.029 243.068 49.92C243.034 49.7829 242.997 49.6324 242.956 49.4692C242.732 48.5817 242.398 47.3177 241.951 45.7995C241.235 43.3688 240.227 40.2713 238.918 37.0172C238.864 36.8811 238.836 36.8131 238.79 36.7624C238.75 36.7179 238.698 36.6833 238.642 36.6623C238.578 36.6384 238.504 36.6384 238.356 36.6384H235.335Z" fill="#1F1F1F"/>
<path d="M261.642 26.7676C261.794 26.7676 261.87 26.7674 261.928 26.7969C261.979 26.8229 262.021 26.8649 262.047 26.916C262.077 26.974 262.077 27.0505 262.077 27.2021V38.626H276.52C276.672 38.626 276.748 38.6258 276.806 38.6553C276.857 38.6813 276.899 38.7224 276.925 38.7734C276.955 38.8315 276.955 38.9078 276.955 39.0596V41.8555C276.955 42.0073 276.955 42.0836 276.925 42.1416C276.899 42.1927 276.857 42.2347 276.806 42.2607C276.748 42.2902 276.672 42.29 276.52 42.29H262.077V56.4141H279.187C279.339 56.4141 279.415 56.4139 279.473 56.4434C279.524 56.4693 279.566 56.5106 279.592 56.5615C279.622 56.6195 279.622 56.6959 279.622 56.8477V59.6436C279.622 59.7954 279.622 59.8716 279.592 59.9297C279.566 59.9808 279.524 60.0228 279.473 60.0488C279.415 60.0782 279.339 60.0781 279.187 60.0781H244.831C244.679 60.0781 244.602 60.0782 244.544 60.0488C244.493 60.0228 244.451 59.9808 244.425 59.9297C244.396 59.8717 244.396 59.7954 244.396 59.6436V56.8477C244.396 56.6959 244.396 56.6195 244.425 56.5615C244.451 56.5105 244.493 56.4693 244.544 56.4434C244.602 56.4139 244.679 56.4141 244.831 56.4141H258.413V27.2021C258.413 27.0503 258.412 26.9741 258.442 26.916C258.468 26.865 258.509 26.8229 258.56 26.7969C258.618 26.7673 258.694 26.7676 258.846 26.7676H261.642Z" fill="#1F1F1F"/>
<path d="M311.006 26.5078C313.134 26.5078 314.198 26.5079 315.011 26.9219C315.726 27.2862 316.308 27.868 316.672 28.583C317.086 29.3958 317.086 30.4599 317.086 32.5879V56.5967C317.086 58.5325 317.086 59.5007 316.732 60.1963C316.314 61.0191 315.566 61.6255 314.675 61.8652C313.921 62.0678 312.973 61.8689 311.079 61.4697C310.971 61.447 310.918 61.4347 310.876 61.4082C310.827 61.3767 310.788 61.3302 310.768 61.2754C310.75 61.2292 310.75 61.1739 310.75 61.0635V58.2656C310.75 58.0814 310.75 57.9888 310.788 57.9248C310.821 57.8689 310.874 57.8273 310.936 57.8066C311.006 57.7831 311.096 57.8027 311.276 57.8418L312.505 58.1074C312.865 58.1856 313.045 58.2248 313.187 58.1777C313.31 58.1365 313.415 58.0524 313.481 57.9404C313.557 57.8124 313.558 57.6274 313.558 57.2588V31.3389C313.558 30.8834 313.557 30.6555 313.469 30.4814C313.391 30.3283 313.266 30.2031 313.113 30.125C312.939 30.0363 312.711 30.0361 312.255 30.0361H289.745C289.29 30.0361 289.062 30.0365 288.888 30.125C288.734 30.2031 288.609 30.3282 288.531 30.4814C288.443 30.6555 288.442 30.8834 288.442 31.3389V61.4951C288.442 61.647 288.443 61.7232 288.413 61.7812C288.387 61.8323 288.345 61.8734 288.294 61.8994C288.236 61.9288 288.16 61.9297 288.009 61.9297H285.349C285.197 61.9297 285.121 61.929 285.063 61.8994C285.011 61.8734 284.969 61.8323 284.943 61.7812C284.914 61.7232 284.914 61.647 284.914 61.4951V32.5879C284.914 30.46 284.914 29.3958 285.328 28.583C285.692 27.868 286.274 27.2862 286.989 26.9219C287.802 26.5079 288.866 26.5078 290.994 26.5078H311.006ZM292.878 33.4297C292.998 33.4298 293.104 33.5087 293.138 33.624C293.888 36.1805 294.684 38.7665 295.582 41.2705C296.499 38.7678 297.31 36.1802 298.077 33.623C298.112 33.5082 298.218 33.4297 298.338 33.4297H303.662C303.782 33.4297 303.888 33.5082 303.923 33.623C304.69 36.1803 305.502 38.7678 306.419 41.2705C307.317 38.7666 308.112 36.1805 308.862 33.624C308.896 33.5087 309.002 33.4299 309.122 33.4297H312.163C312.271 33.4297 312.349 33.5328 312.319 33.6367C312.216 33.9947 312.081 34.4512 311.917 34.9922C311.475 36.4434 310.816 38.5249 309.93 41.0508C309.506 42.2611 308.933 43.5772 308.406 44.9756C309.801 48.5222 311.42 52.0189 313.07 55.4531C313.122 55.5611 313.044 55.6863 312.924 55.6865H309.588C309.483 55.6864 309.387 55.6257 309.343 55.5303C308.265 53.1955 307.29 50.3936 306.418 48.2822C305.564 50.393 304.611 53.194 303.556 55.5283C303.512 55.6249 303.416 55.6865 303.31 55.6865H298.69C298.584 55.6865 298.488 55.6249 298.444 55.5283C297.389 53.194 296.436 50.393 295.582 48.2822C294.71 50.3936 293.735 53.1955 292.657 55.5303C292.613 55.6258 292.517 55.6865 292.412 55.6865H289.076C288.956 55.6862 288.878 55.5611 288.93 55.4531C290.577 52.0201 292.132 48.5216 293.527 44.9756C293.036 43.6706 292.532 42.3693 292.07 41.0508C291.184 38.5249 290.525 36.4434 290.083 34.9922C289.919 34.4511 289.784 33.9946 289.681 33.6367C289.651 33.5328 289.729 33.4297 289.837 33.4297H292.878ZM301 36.0537C300.558 37.4522 299.948 38.8703 299.167 41.0508C298.723 42.2938 298.134 43.6479 297.578 45.0889C298.616 47.7778 299.82 50.4382 301 53.0664C302.18 50.4382 303.426 47.7778 304.464 45.0889C303.908 43.6479 303.277 42.2938 302.833 41.0508C302.052 38.8703 301.442 37.4522 301 36.0537Z" fill="#1F1F1F"/>
</svg>
