<svg width="191" height="40" viewBox="0 0 191 40" fill="none" xmlns="http://www.w3.org/2000/svg">
<path d="M15.8099 23.8322L16.1901 23.8117L19.446 23.6256C19.8183 23.6045 20.0044 23.594 20.14 23.5127C20.2592 23.4412 20.3519 23.333 20.4041 23.2043C20.4635 23.0579 20.4451 22.8727 20.4083 22.5022L20.3921 22.3391C20.3583 21.9995 20.3415 21.8296 20.2634 21.7036C20.1947 21.5927 20.0937 21.5054 19.9739 21.4534C19.8378 21.3943 19.6671 21.402 19.3257 21.4173L17.0956 21.5175L15.5956 21.5826L15.3882 19.4048L18.9945 19.2866C19.375 19.2741 19.5653 19.2679 19.7043 19.1877C19.8265 19.1173 19.922 19.0085 19.9759 18.8783C20.0374 18.7302 20.0187 18.541 19.9813 18.1626L19.9434 17.7788C19.9105 17.4466 19.8941 17.2805 19.8184 17.156C19.7517 17.0464 19.6535 16.9593 19.5366 16.9061C19.4039 16.8456 19.2368 16.8489 18.9026 16.8555L16.394 16.9053L18.3827 12.2821C18.5348 11.9285 18.6109 11.7517 18.5842 11.6085C18.5609 11.4832 18.4888 11.3724 18.3836 11.3003C18.2633 11.2179 18.0706 11.2156 17.6853 11.211L16.8501 11.2012C16.5241 11.1973 16.3611 11.1954 16.221 11.2476C16.0973 11.2937 15.9869 11.3696 15.8997 11.4686C15.8009 11.5807 15.7446 11.7335 15.632 12.0391L13.9193 16.693L10.6262 11.6898C10.4894 11.4821 10.421 11.3783 10.3303 11.3026C10.25 11.2356 10.1574 11.185 10.0577 11.1536C9.94497 11.1181 9.82053 11.1165 9.57164 11.1134L8.52226 11.1001C8.11873 11.095 7.91696 11.0924 7.8077 11.1746C7.71258 11.2462 7.65427 11.3563 7.64858 11.475C7.64205 11.6115 7.75771 11.7766 7.98902 12.1069L11.4169 17.0011L8.3382 17.0592C7.95589 17.0664 7.76473 17.07 7.62429 17.1486C7.50088 17.2178 7.40385 17.3258 7.34834 17.4557C7.28518 17.6037 7.30221 17.7938 7.33628 18.1742L7.38345 18.7007C7.41384 19.0401 7.42904 19.2097 7.50569 19.3364C7.57315 19.4479 7.67307 19.5361 7.7921 19.5894C7.92732 19.6499 8.09779 19.6442 8.43874 19.6329L12.8375 19.487L12.8478 19.6034L13.0137 21.699L12.0598 21.7401L8.74511 21.8876C8.37177 21.9042 8.18508 21.9125 8.04833 21.9924C7.92812 22.0626 7.83408 22.17 7.78045 22.2984C7.71945 22.4444 7.73613 22.6302 7.7695 23.002L7.79597 23.2969C7.82708 23.6435 7.84264 23.8169 7.92144 23.945C7.99079 24.0577 8.09343 24.1462 8.21522 24.1983C8.35361 24.2575 8.52758 24.2476 8.87552 24.2278L13.1935 23.9829L13.2177 24.291L13.4887 27.6973C13.5172 28.0558 13.5315 28.235 13.6123 28.3662C13.6834 28.4816 13.7893 28.5715 13.9148 28.6229C14.0575 28.6814 14.2369 28.6665 14.5957 28.6367L15.2187 28.585C15.5801 28.555 15.7608 28.54 15.8923 28.4581C16.008 28.386 16.0976 28.279 16.1483 28.1526C16.2058 28.0088 16.1887 27.8286 16.1545 27.468L15.8099 23.8322Z" fill="#3089F0"/>
<path fill-rule="evenodd" clip-rule="evenodd" d="M26.2474 32.8246C26.2509 32.8964 26.2544 32.9682 26.2614 33.0365H26.2605C26.2982 33.8333 26.264 34.4252 26.1063 34.9444C26.0917 34.9951 26.0737 35.0464 26.0559 35.0973C26.0534 35.1044 26.0509 35.1115 26.0484 35.1186C25.8328 35.6965 25.4972 36.2227 25.0695 36.6605C24.9766 36.7594 24.8776 36.8549 24.7715 36.9372C24.6523 37.0466 24.5252 37.1456 24.392 37.2349C23.9442 37.5422 23.4035 37.7366 22.6541 37.8977C21.9666 38.0434 21.1038 38.165 19.9769 38.3239L19.9443 38.3285L11.1637 39.5587C11.0417 39.5756 10.9221 39.5923 10.8049 39.6087C10.0284 39.7172 9.35666 39.8111 8.76498 39.8765C7.99463 39.9658 7.36537 40.014 6.82113 39.9964C6.36628 39.9859 5.97278 39.9316 5.60995 39.8222C5.55299 39.8054 5.49602 39.7856 5.43906 39.7658C5.42766 39.7618 5.41626 39.7578 5.40486 39.7539C5.37331 39.7434 5.34614 39.7338 5.31547 39.7198C4.29184 39.3231 3.42333 38.6052 2.83439 37.6718C2.51626 37.1727 2.32433 36.5817 2.19112 35.7919C2.03234 34.8959 1.95088 33.7429 1.84086 32.1856L1.82829 32.0077L1.16485 22.5384L0.98344 19.9099H0.979931L0.165343 8.24065C0.0326396 6.32418 -0.0576045 5.0209 0.0430665 4.03749C0.0974032 3.50427 0.206955 3.05947 0.39538 2.66634C0.440077 2.5709 0.488272 2.47809 0.542609 2.38616C0.645148 2.20141 0.760834 2.02017 0.884407 1.85294C1.02814 1.66118 1.18238 1.48344 1.34977 1.31971C1.57938 1.09031 1.83617 0.885425 2.10961 0.707683C2.28752 0.592108 2.47156 0.488791 2.667 0.396856C2.8896 0.290911 3.12886 0.208607 3.38915 0.15082C3.87818 0.0343682 4.4531 -0.00328156 5.16824 0.000220731L5.20943 0.00372377C6.04113 0.0107284 7.06038 0.0825238 8.35395 0.174459L16.529 0.746209C17.5833 0.818006 18.3905 0.875794 19.0478 0.965102C19.0819 0.968604 19.1161 0.972107 19.1503 0.979112H19.1643C19.3773 1.00976 19.5718 1.04391 19.7533 1.08156C20.1774 1.17349 20.5297 1.29344 20.8514 1.46418C20.9609 1.52284 21.067 1.58413 21.1695 1.65243C21.5867 1.91247 21.9565 2.23731 22.2676 2.61293C22.3842 2.74602 22.4867 2.88261 22.5823 3.02971C22.6401 3.11551 22.698 3.20482 22.7497 3.29676C22.8145 3.4062 22.8724 3.52178 22.9241 3.64173C23.1055 4.05238 23.2255 4.53044 23.3246 5.14597C23.3376 5.20923 23.3468 5.2755 23.3564 5.34477L23.3588 5.36136L23.3623 5.392C23.4517 5.98739 23.527 6.70186 23.6191 7.58707L26.0335 30.5618C26.1247 31.4326 26.1994 32.1454 26.2404 32.7467L26.2474 32.8045V32.8246ZM24.116 30.4868C24.0993 30.0692 24.0476 29.557 23.9792 28.9073V28.9082L23.9722 28.8504L23.4727 23.962L23.2264 21.5174L21.9115 8.65661C21.852 8.07905 21.8056 7.6291 21.7444 7.26486C21.6691 6.83407 21.577 6.52324 21.4193 6.25619L21.4109 6.2423C21.3726 6.17867 21.3345 6.11545 21.2896 6.05832C21.0363 5.69583 20.6971 5.40163 20.3071 5.20025C20.081 5.08468 19.8313 5.01288 19.5131 4.96472H19.5096C19.4978 4.96297 19.4857 4.96122 19.4737 4.95947C19.4616 4.95772 19.4496 4.95597 19.4378 4.95422C19.1468 4.91306 18.8015 4.88855 18.3703 4.86491C18.1911 4.85453 17.9957 4.84501 17.7832 4.83465L15.1986 4.71081L14.2951 4.66966L11.6641 4.54357L9.90167 4.46127L7.38863 4.34093C6.88916 4.31745 6.46413 4.29748 6.09283 4.28703C5.91142 4.28353 5.74753 4.28353 5.58978 4.28703C5.52142 4.28353 5.45307 4.28703 5.38822 4.29053H5.3777C4.87114 4.30717 4.49428 4.37897 4.17615 4.53657C3.82033 4.71431 3.50922 4.96735 3.26295 5.27468C3.12273 5.44892 3.00266 5.64067 2.90713 5.84905C2.61266 6.49523 2.68102 7.35329 2.82475 9.06941L4.58719 30.5683L4.61786 30.9237L4.61841 30.9304C4.74863 32.4985 4.8138 33.2833 5.16912 33.8464C5.48462 34.3455 5.95262 34.7316 6.50387 34.94C6.74751 35.0354 7.01393 35.0766 7.34258 35.0836C7.62303 35.0932 7.94467 35.0731 8.33467 35.0389C8.46049 35.0257 8.59392 35.012 8.73595 34.9975C8.80958 34.99 8.88552 34.9822 8.96392 34.9741L8.96569 34.9739C9.12904 34.9539 9.29937 34.9329 9.48362 34.9129L14.0102 34.3963V34.3928L20.1187 33.6958C20.1595 33.6911 20.1996 33.6865 20.2393 33.6819C21.1261 33.5801 21.7452 33.509 22.2133 33.385V33.3815C22.3877 33.3377 22.5419 33.2825 22.6787 33.2177C22.7672 33.1766 22.8461 33.1328 22.9249 33.0812C23.4043 32.7668 23.7707 32.3089 23.9757 31.7757L23.9959 31.7144C24.1125 31.3825 24.1396 31.006 24.116 30.4868ZM14.7885 2.15063C14.7236 2.11298 14.6517 2.09284 14.5729 2.08584V2.08671L14.0461 2.05607L11.4555 1.89584L10.3232 1.82754C10.2478 1.82404 10.1725 1.83455 10.1076 1.86169C9.8929 1.94049 9.74566 2.15238 9.76582 2.39842C9.78598 2.66109 9.99807 2.86948 10.2619 2.88349L14.1452 3.10238L14.5115 3.12252C14.7718 3.13565 14.99 2.95791 15.0452 2.72238C15.0593 2.67072 15.0628 2.61906 15.0593 2.56478C15.0558 2.50962 15.0417 2.45533 15.0181 2.40717C14.9769 2.29773 14.8945 2.20842 14.792 2.15063H14.7885Z" fill="#3089F0"/>
<path fill-rule="evenodd" clip-rule="evenodd" d="M54.8953 7.87695C54.7769 7.87695 54.7178 7.87695 54.6746 7.90304C54.6501 7.91782 54.6302 7.93744 54.615 7.96162C54.5881 8.00432 54.5871 8.06422 54.585 8.18403C54.5652 9.31914 54.4358 10.5044 54.186 11.677H52.9911L52.9879 11.6541L52.9858 11.6391L52.9857 11.6385L52.568 8.68436C52.5534 8.5812 52.5461 8.52962 52.5184 8.49254C52.5029 8.47172 52.483 8.45449 52.4603 8.44202C52.4197 8.41981 52.3676 8.41981 52.2634 8.41981H50.5792C50.4447 8.41981 50.3775 8.41981 50.3313 8.45131C50.3056 8.46886 50.2849 8.49276 50.2711 8.52068C50.2464 8.57078 50.2558 8.63735 50.2746 8.7705L50.6856 11.677H49.5583C49.4398 11.677 49.3806 11.677 49.3371 11.7036C49.3127 11.7185 49.2923 11.739 49.2773 11.7634C49.2507 11.8069 49.2507 11.8661 49.2507 11.9846V13.5408C49.2507 13.6592 49.2507 13.7185 49.2773 13.762C49.2923 13.7863 49.3127 13.8068 49.3371 13.8217C49.3806 13.8484 49.4398 13.8484 49.5583 13.8484H53.5729C53.3848 14.3744 53.1694 14.8892 52.9254 15.3865L48.8546 15.3865C48.7362 15.3865 48.6769 15.3865 48.6334 15.4131C48.6091 15.4281 48.5886 15.4485 48.5737 15.4729C48.547 15.5164 48.547 15.5756 48.547 15.6941V17.2503C48.547 17.3688 48.547 17.428 48.5737 17.4715C48.5886 17.4958 48.6091 17.5163 48.6334 17.5312C48.6769 17.5579 48.7362 17.5579 48.8546 17.5579H51.5742C50.7563 18.6001 49.7588 19.4795 48.5662 20.1045C48.4966 20.1409 48.4618 20.1592 48.4392 20.1857C48.4261 20.201 48.4162 20.2173 48.4087 20.236C48.3958 20.2684 48.3958 20.3063 48.3958 20.3822V22.3094C48.3958 22.4826 48.3958 22.5691 48.4396 22.62C48.4632 22.6475 48.4968 22.6683 48.5319 22.6772C48.597 22.6939 48.6726 22.6563 48.824 22.5812C49.4667 22.2623 50.0704 21.8842 50.6352 21.4558H57.6359C57.7373 21.4558 57.7879 21.4558 57.8266 21.4755C57.8607 21.4929 57.8884 21.5206 57.9057 21.5546C57.9254 21.5933 57.9254 21.644 57.9254 21.7453V23.8006L53.8957 23.8006C53.7773 23.8006 53.718 23.8006 53.6745 23.774C53.6502 23.7591 53.6297 23.7386 53.6148 23.7142C53.5881 23.6707 53.5881 23.6115 53.5881 23.493V22.4233C53.5881 22.3048 53.5881 22.2456 53.5615 22.2021C53.5465 22.1777 53.5261 22.1572 53.5017 22.1423C53.4582 22.1156 53.399 22.1156 53.2805 22.1156H51.3624C51.2439 22.1156 51.1847 22.1156 51.1412 22.1423C51.1168 22.1572 51.0964 22.1777 51.0815 22.2021C51.0548 22.2456 51.0548 22.3048 51.0548 22.4233V24.3978L51.0548 24.4086C51.0546 24.4525 51.0544 24.5569 51.0638 24.6564C51.076 24.7842 51.1123 25.0266 51.2681 25.2808C51.3875 25.4756 51.5512 25.6394 51.746 25.7588C52.0003 25.9145 52.2427 25.9509 52.3705 25.9631C52.4699 25.9725 52.5744 25.9722 52.6182 25.9721L52.6291 25.9721L59.6691 25.972C59.7876 25.972 59.8468 25.972 59.8903 25.9987C59.9147 26.0136 59.9351 26.0341 59.9501 26.0584C59.9767 26.1019 59.9767 26.1612 59.9767 26.2796V28.1436L59.9768 28.16L59.9768 28.1752V29.6455C59.9768 29.764 59.9768 29.8232 59.9501 29.8667C59.9352 29.8911 59.9148 29.9115 59.8904 29.9265C59.8469 29.9531 59.7876 29.9531 59.669 29.9531H57.751C57.6326 29.9531 57.5733 29.9531 57.5298 29.9798C57.5055 29.9947 57.485 30.0152 57.4701 30.0395C57.4434 30.083 57.4434 30.1423 57.4434 30.2607V31.8169C57.4434 31.9354 57.4434 31.9946 57.4701 32.0381C57.485 32.0625 57.5055 32.083 57.5298 32.0979C57.5733 32.1245 57.6326 32.1245 57.751 32.1245L59.869 32.1245L59.8784 32.1245C60.4974 32.1244 60.8176 32.1208 61.0788 32.036C61.6297 31.857 62.0616 31.4251 62.2406 30.8742C62.3291 30.6016 62.3291 30.2648 62.3291 29.5913L62.3291 26.2607C62.3292 26.0569 62.3293 25.8247 62.3101 25.623C62.2879 25.39 62.2316 25.0705 62.0358 24.751C61.8717 24.4832 61.6465 24.258 61.3787 24.0939C61.0592 23.8981 60.7397 23.8417 60.5067 23.8196C60.3774 23.8073 60.2357 23.8029 60.0969 23.8014V22.4691C60.0969 21.8697 60.0969 21.4314 60.0631 21.0881C60.7734 21.5867 61.5282 22.0062 62.2918 22.3012C62.4336 22.356 62.5045 22.3834 62.5653 22.3639C62.5981 22.3534 62.6294 22.3319 62.6509 22.3052C62.691 22.2555 62.691 22.1768 62.691 22.0194V20.3127C62.691 20.2216 62.691 20.1761 62.6742 20.1398C62.6643 20.1185 62.6521 20.1015 62.6352 20.0853C62.6063 20.0577 62.5607 20.0422 62.4696 20.0111C61.29 19.6095 60.0425 18.6685 59.1147 17.5579H61.9918C62.1103 17.5579 62.1695 17.5579 62.213 17.5312C62.2373 17.5163 62.2578 17.4958 62.2727 17.4715C62.2994 17.428 62.2994 17.3688 62.2994 17.2503V15.6941C62.2994 15.5756 62.2994 15.5164 62.2727 15.4729C62.2578 15.4485 62.2373 15.4281 62.213 15.4131C62.1695 15.3865 62.1103 15.3865 61.9918 15.3865L55.1724 15.3865C55.3865 14.8827 55.5783 14.3688 55.7478 13.8484H61.65C61.7685 13.8484 61.8277 13.8484 61.8712 13.8217C61.8956 13.8068 61.9161 13.7863 61.931 13.762C61.9576 13.7185 61.9576 13.6592 61.9576 13.5408V11.9846C61.9576 11.8661 61.9576 11.8069 61.931 11.7634C61.9161 11.739 61.8956 11.7185 61.8712 11.7036C61.8277 11.677 61.7685 11.677 61.65 11.677H60.3597C60.3968 11.5678 60.4312 11.4661 60.4605 11.3798L60.5118 11.2283C60.7192 10.6167 60.9812 9.78818 61.2451 8.80381C61.2834 8.66098 61.3025 8.58956 61.2803 8.53373C61.268 8.50289 61.2471 8.47564 61.2205 8.45578C61.1723 8.41981 61.0979 8.41981 60.9491 8.41981H59.2895C59.1975 8.41981 59.1516 8.41981 59.1141 8.43801C59.0929 8.44831 59.0742 8.46244 59.0584 8.48C59.0306 8.51101 59.0179 8.55554 58.9925 8.64461C58.8049 9.30081 58.6255 9.86118 58.4773 10.298L58.4136 10.4863L58.4135 10.4866C58.2985 10.8262 58.1113 11.379 58.0079 11.677H56.32C56.5587 10.5048 56.6883 9.32677 56.708 8.18389C56.71 8.06757 56.711 8.00941 56.6845 7.96509C56.6699 7.94058 56.6489 7.91926 56.6247 7.90419C56.5808 7.87695 56.5215 7.87695 56.403 7.87695H54.8953ZM58.0047 19.298C57.475 18.7329 57.0144 18.1412 56.6506 17.5579H54.0674C53.7025 18.1631 53.3001 18.7414 52.8603 19.2844H56.9121C57.3556 19.2844 57.7108 19.2844 58.0047 19.298Z" fill="#1F1F1F"/>
<path fill-rule="evenodd" clip-rule="evenodd" d="M45.3196 23.9817V31.8754C45.3196 31.9939 45.3196 32.0531 45.3463 32.0967C45.3612 32.121 45.3816 32.1415 45.406 32.1564C45.4495 32.1831 45.5087 32.1831 45.6272 32.1831H47.3643C47.4828 32.1831 47.542 32.1831 47.5856 32.1564C47.6099 32.1415 47.6304 32.121 47.6453 32.0967C47.672 32.0531 47.672 31.9939 47.672 31.8754L47.672 10.7895C47.672 10.7574 47.672 10.7246 47.6719 10.6913V10.4827C47.6719 9.6534 47.6719 9.23876 47.4853 8.93417C47.3808 8.76373 47.2375 8.62043 47.0671 8.51599C46.7625 8.32933 46.3479 8.32933 45.5186 8.32933H42.7349C41.9056 8.32933 41.491 8.32933 41.1864 8.51599C41.016 8.62043 40.8727 8.76373 40.7682 8.93417C40.5823 9.23753 40.5816 9.65003 40.5816 10.4726C40.5793 10.5804 40.5793 10.6884 40.5793 10.7895L40.5793 24.1973C40.5793 27.0381 40.3237 29.1244 40.075 30.4826C39.9505 31.1618 39.8277 31.6595 39.7392 31.9788C39.7109 32.0809 39.787 32.1831 39.8929 32.1831H41.8809C41.9759 32.1831 42.0234 32.1831 42.062 32.1634C42.0836 32.1525 42.1032 32.1368 42.1187 32.1183C42.1466 32.0851 42.1571 32.0394 42.1782 31.9481C42.2449 31.6588 42.3156 31.3226 42.3859 30.939C42.6622 29.4302 42.9317 27.191 42.9317 24.1973V23.9817H45.3196ZM42.9317 17.4674V21.8103H45.3196V17.4674H42.9317ZM45.3196 15.296H42.9317V11.068H42.9339V10.865C42.9368 10.8224 42.9433 10.7928 42.9584 10.7681C42.9733 10.7438 42.9938 10.7233 43.0181 10.7084C43.0616 10.6817 43.1209 10.6817 43.2393 10.6817H45.012C45.1304 10.6817 45.1897 10.6817 45.2332 10.7084C45.2575 10.7233 45.278 10.7438 45.2929 10.7681C45.3196 10.8117 45.3196 10.8709 45.3196 10.9894V15.296Z" fill="#1F1F1F"/>
<path d="M59.1322 28.7874C59.1322 28.9059 59.1322 28.9651 59.1055 29.0086C59.0906 29.033 59.0701 29.0534 59.0458 29.0684C59.0022 29.095 58.943 29.095 58.8245 29.095L48.8546 29.095C48.7362 29.095 48.6769 29.095 48.6334 29.0684C48.6091 29.0534 48.5886 29.033 48.5737 29.0086C48.547 28.9651 48.547 28.9059 48.547 28.7874V27.2312C48.547 27.1128 48.547 27.0535 48.5737 27.01C48.5886 26.9857 48.6091 26.9652 48.6334 26.9503C48.6769 26.9236 48.7362 26.9236 48.8546 26.9236L58.8245 26.9236C58.943 26.9236 59.0022 26.9236 59.0458 26.9503C59.0701 26.9652 59.0906 26.9857 59.1055 27.01C59.1322 27.0535 59.1322 27.1128 59.1322 27.2312V28.7874Z" fill="#1F1F1F"/>
<path d="M66.3439 11.0828C66.331 11.0505 66.331 11.0135 66.331 10.9395V8.72164C66.331 8.53597 66.331 8.44313 66.3759 8.39192C66.4007 8.36371 66.4336 8.34389 66.4701 8.33521C66.5364 8.31946 66.6184 8.3629 66.7825 8.44976L70.6911 10.5189C70.7565 10.5535 70.7892 10.5708 70.8117 10.5973C70.8244 10.6122 70.8347 10.6292 70.8419 10.6475C70.8548 10.6797 70.8548 10.7167 70.8548 10.7907V13.0086C70.8548 13.1943 70.8548 13.2871 70.8099 13.3383C70.7851 13.3665 70.7522 13.3863 70.7157 13.395C70.6494 13.4108 70.5673 13.3673 70.4033 13.2805L66.4947 11.2114C66.4293 11.1767 66.3966 11.1594 66.3741 11.133C66.3613 11.118 66.3511 11.101 66.3439 11.0828Z" fill="#1F1F1F"/>
<path fill-rule="evenodd" clip-rule="evenodd" d="M77.181 32.6294C77.0626 32.6294 77.0033 32.6294 76.9598 32.6027C76.9355 32.5878 76.915 32.5673 76.9001 32.543C76.8734 32.4995 76.8734 32.4403 76.8734 32.3218L76.8734 20.6095H72.2953C72.1768 20.6095 72.1176 20.6095 72.0741 20.5828C72.0498 20.5679 72.0293 20.5474 72.0144 20.5231C71.9877 20.4796 71.9877 20.4204 71.9877 20.3019V18.7457C71.9877 18.6272 71.9877 18.568 72.0144 18.5245C72.0293 18.5001 72.0498 18.4797 72.0741 18.4647C72.1176 18.4381 72.1768 18.4381 72.2953 18.4381H76.8734L76.8734 10.9151H73.0016C72.8832 10.9151 72.8239 10.9151 72.7804 10.8885C72.7561 10.8735 72.7356 10.8531 72.7207 10.8287C72.694 10.7852 72.694 10.726 72.694 10.6075V8.87036C72.694 8.7519 72.694 8.69266 72.7207 8.64915C72.7356 8.6248 72.7561 8.60433 72.7804 8.58941C72.8239 8.56274 72.8832 8.56274 73.0016 8.56274L82.2176 8.56274C82.7598 8.56269 83.2635 8.56264 83.6835 8.60258C84.1401 8.64598 84.6446 8.74658 85.1279 9.04272C85.5662 9.31129 85.9346 9.67977 86.2032 10.118C86.4993 10.6013 86.5999 11.1059 86.6433 11.5624C86.6833 11.9824 86.6832 12.4862 86.6832 13.0283L86.6832 21.451C86.6832 25.8688 87.3269 28.7732 87.9332 30.5306C88.113 31.0516 88.29 31.4732 88.4469 31.8048C88.5304 31.9815 88.5722 32.0698 88.5549 32.1341C88.5451 32.1706 88.5262 32.2005 88.4974 32.225C88.4467 32.268 88.352 32.268 88.1626 32.268H86.2426C86.16 32.268 86.1186 32.268 86.0834 32.2523C86.0637 32.2435 86.0452 32.2308 86.0299 32.2156C86.0025 32.1884 85.9878 32.1505 85.9584 32.0747C85.8855 31.8862 85.8122 31.6864 85.7392 31.4749C85.0163 29.38 84.3308 26.1523 84.3308 21.451V20.6095H79.2258L79.2258 32.3218C79.2258 32.4403 79.2258 32.4995 79.1991 32.543C79.1842 32.5673 79.1637 32.5878 79.1394 32.6027C79.0959 32.6294 79.0366 32.6294 78.9182 32.6294H77.181ZM84.3308 18.4381V12.7247C84.3308 11.0231 84.2228 10.9151 82.5213 10.9151H79.2258V18.4381H84.3308Z" fill="#1F1F1F"/>
<path d="M68.1229 17.4294C68.237 17.4295 68.294 17.4295 68.3375 17.4562C68.3614 17.4708 68.3825 17.4919 68.3972 17.5159C68.4238 17.5594 68.4239 17.6164 68.4239 17.7304L68.4239 29.3002C68.4239 30.5861 68.4239 31.229 68.7468 31.6275C68.9226 31.8445 69.169 32.0123 69.4353 32.0965C69.9243 32.2511 70.5142 32.019 71.6942 31.5548C72.065 31.4089 72.463 31.251 72.8857 31.0815L73.9065 30.6723C74.0599 30.6109 74.1366 30.5801 74.19 30.5254C74.2201 30.4945 74.2445 30.4585 74.262 30.419C74.2929 30.3491 74.2929 30.2665 74.2929 30.1013V28.6513C74.2929 28.4832 74.2929 28.3992 74.253 28.3495C74.2307 28.3218 74.2016 28.3017 74.1677 28.2908C74.1072 28.2711 74.0279 28.3013 73.8694 28.3615C73.3905 28.5437 72.8385 28.7416 72.2986 28.9352L72.298 28.9354C71.915 29.0727 71.5381 29.2079 71.1976 29.3337C71.0413 29.3915 70.9632 29.4203 70.903 29.4004C70.8695 29.3893 70.8405 29.3691 70.8185 29.3416C70.7789 29.2921 70.7789 29.2107 70.7788 29.0479C70.7783 27.3536 70.7763 21.2258 70.7763 18.1411L70.7765 17.5362C70.7766 16.5898 70.7767 16.1166 70.5634 15.7684C70.4441 15.5737 70.2802 15.4097 70.0855 15.2904C69.7373 15.077 69.2638 15.077 68.3167 15.077L65.9148 15.077C65.7963 15.077 65.7371 15.077 65.6936 15.1037C65.6692 15.1186 65.6488 15.1391 65.6338 15.1634C65.6072 15.2069 65.6072 15.2662 65.6072 15.3846V17.1218C65.6072 17.2403 65.6072 17.2995 65.6338 17.343C65.6488 17.3674 65.6692 17.3878 65.6936 17.4027C65.7371 17.4294 65.7963 17.4294 65.9148 17.4294L68.1229 17.4294Z" fill="#1F1F1F"/>
<path d="M111.625 10.7674C111.725 10.7507 111.774 10.7424 111.81 10.7146C111.83 10.6991 111.847 10.6792 111.859 10.6568C111.88 10.6168 111.88 10.5662 111.88 10.465V8.51733C111.88 8.37746 111.88 8.30753 111.848 8.2608C111.829 8.23464 111.805 8.2141 111.776 8.20059C111.724 8.17647 111.655 8.18866 111.516 8.21304C111.407 8.23233 111.288 8.25276 111.16 8.27415C110.265 8.42403 108.932 8.62104 107.202 8.80465C103.8 9.16568 98.8646 9.47475 92.7052 9.27234C92.5821 9.2683 92.5205 9.26627 92.4755 9.29257C92.4502 9.3073 92.429 9.3278 92.4135 9.35253C92.3857 9.39668 92.3857 9.45784 92.3857 9.58015L92.3857 11.4962C92.3857 11.6109 92.3857 11.6682 92.4113 11.7111C92.4256 11.7351 92.4454 11.7555 92.4688 11.7706C92.5108 11.7975 92.5684 11.7994 92.6835 11.8033C95.8708 11.9088 98.7188 11.8804 101.211 11.7782L101.211 15.6851L92.1265 15.6851C92.008 15.6851 91.9488 15.6851 91.9053 15.7117C91.8809 15.7266 91.8604 15.7471 91.8455 15.7715C91.8188 15.815 91.8188 15.8742 91.8188 15.9927L91.8188 17.7298C91.8188 17.8483 91.8188 17.9075 91.8455 17.951C91.8604 17.9754 91.8809 17.9958 91.9053 18.0108C91.9488 18.0374 92.008 18.0374 92.1265 18.0374H101.211L101.211 21.8374H91.1312C91.0128 21.8374 90.9535 21.8374 90.91 21.8641C90.8857 21.879 90.8652 21.8995 90.8503 21.9238C90.8236 21.9674 90.8236 22.0266 90.8236 22.1451V23.8822C90.8236 24.0007 90.8236 24.0599 90.8503 24.1034C90.8652 24.1278 90.8857 24.1482 90.91 24.1631C90.9535 24.1898 91.0128 24.1898 91.1312 24.1898H101.211V28.1706C101.211 30.0545 100.812 30.0126 99.1299 29.8353L99.0866 29.8308L97.343 29.5357C97.2614 29.5219 97.2207 29.515 97.1899 29.5295C97.1727 29.5376 97.1579 29.5501 97.1471 29.5657C97.1276 29.5937 97.1276 29.635 97.1276 29.7177L97.1276 31.8255C97.1276 31.9265 97.1276 31.977 97.1488 32.0169C97.1607 32.0393 97.1772 32.0589 97.1972 32.0746C97.2328 32.1023 97.2826 32.1111 97.3821 32.1285L98.8986 32.3946C101.06 32.8122 102.397 32.5076 103.274 31.1893C103.572 30.7427 103.667 30.2683 103.707 29.8612C103.744 29.487 103.744 29.0375 103.744 28.5639L103.744 24.1898H113.135C113.254 24.1898 113.313 24.1898 113.356 24.1631C113.381 24.1482 113.401 24.1278 113.416 24.1034C113.443 24.0599 113.443 24.0007 113.443 23.8822V22.1451C113.443 22.0266 113.443 21.9674 113.416 21.9238C113.401 21.8995 113.381 21.879 113.356 21.8641C113.313 21.8374 113.254 21.8374 113.135 21.8374H103.744L103.744 18.0374L112.14 18.0374C112.258 18.0374 112.318 18.0374 112.361 18.0108C112.385 17.9958 112.406 17.9754 112.421 17.951C112.447 17.9075 112.447 17.8483 112.447 17.7298V15.9927C112.447 15.8742 112.447 15.815 112.421 15.7715C112.406 15.7471 112.385 15.7266 112.361 15.7117C112.318 15.6851 112.258 15.6851 112.14 15.6851L103.744 15.6851L103.744 11.6491C103.744 11.6471 103.744 11.6452 103.744 11.6433C105.134 11.5518 106.383 11.4402 107.489 11.3228C109.276 11.1332 110.663 10.9286 111.608 10.7702L111.625 10.7674Z" fill="#1F1F1F"/>
<path d="M122.185 32.2971C122.304 32.2971 122.363 32.2971 122.406 32.2705C122.431 32.2556 122.451 32.2351 122.466 32.2107C122.493 32.1672 122.493 32.108 122.493 31.9895L122.493 20.0422C123.376 20.5515 124.254 21.123 125.073 21.7043C125.146 21.7554 125.246 21.704 125.246 21.6155V19.2409C125.246 19.1773 125.212 19.1183 125.158 19.0858C124.686 18.8051 124.201 18.5315 123.759 18.2887C123.291 18.0312 122.85 17.7969 122.493 17.6095V14.2839H125.394C125.512 14.2839 125.571 14.2839 125.615 14.2572C125.639 14.2423 125.66 14.2218 125.675 14.1975C125.701 14.154 125.701 14.0947 125.701 13.9763V12.3296C125.701 12.2111 125.701 12.1519 125.675 12.1084C125.66 12.084 125.639 12.0636 125.615 12.0487C125.571 12.022 125.512 12.022 125.394 12.022H122.493V8.53809C122.493 8.41962 122.493 8.36039 122.466 8.31687C122.451 8.29253 122.431 8.27205 122.406 8.25713C122.363 8.23047 122.304 8.23047 122.185 8.23047H120.539C120.42 8.23047 120.361 8.23047 120.317 8.25713C120.293 8.27205 120.273 8.29253 120.258 8.31687C120.231 8.36039 120.231 8.41962 120.231 8.53809L120.231 12.022H115.998C115.879 12.022 115.82 12.022 115.776 12.0487C115.752 12.0636 115.732 12.084 115.717 12.1084C115.69 12.1519 115.69 12.2111 115.69 12.3296V13.9763C115.69 14.0947 115.69 14.154 115.717 14.1975C115.732 14.2218 115.752 14.2423 115.776 14.2572C115.82 14.2839 115.879 14.2839 115.998 14.2839H120.231L120.231 31.9895C120.231 32.108 120.231 32.1672 120.258 32.2107C120.273 32.2351 120.293 32.2556 120.317 32.2705C120.361 32.2971 120.42 32.2971 120.539 32.2971H122.185Z" fill="#1F1F1F"/>
<path d="M117.393 15.2922C117.293 15.2922 117.212 15.373 117.212 15.4729C117.205 17.653 117.07 20.452 116.782 23.1373C116.52 25.583 116.139 27.8585 115.642 29.4792C115.606 29.5969 115.693 29.7168 115.816 29.7168H117.791C117.872 29.7168 117.944 29.663 117.965 29.5847C118.447 27.8139 118.793 25.6016 119.031 23.3783C119.328 20.6102 119.467 17.73 119.474 15.4729C119.474 15.373 119.393 15.2922 119.293 15.2922H117.393Z" fill="#1F1F1F"/>
<path d="M127.498 8.86983C127.885 8.6726 128.391 8.6726 129.405 8.6726H133.396C134.41 8.6726 134.916 8.6726 135.303 8.86983C135.644 9.04331 135.921 9.32013 136.094 9.66062C136.291 10.0477 136.291 10.5544 136.291 11.5678V29.4897C136.291 29.5911 136.291 29.6418 136.311 29.6805C136.328 29.7145 136.356 29.7422 136.39 29.7595C136.429 29.7793 136.48 29.7793 136.581 29.7793H138.799C138.901 29.7793 138.951 29.7793 138.99 29.799C139.024 29.8163 139.052 29.844 139.069 29.8781C139.089 29.9168 139.089 29.9674 139.089 30.0688V31.8421C139.089 31.9435 139.089 31.9941 139.069 32.0329C139.052 32.0669 139.024 32.0946 138.99 32.1119C138.951 32.1317 138.901 32.1317 138.799 32.1317H136.834C135.821 32.1317 135.314 32.1317 134.927 31.9344C134.586 31.7609 134.31 31.4841 134.136 31.1436C133.939 30.7566 133.939 30.2498 133.939 29.2364V11.3145C133.939 11.2132 133.939 11.1625 133.919 11.1238C133.902 11.0897 133.874 11.0621 133.84 11.0447C133.801 11.025 133.751 11.025 133.649 11.025H129.151C129.05 11.025 128.999 11.025 128.961 11.0447C128.927 11.0621 128.899 11.0897 128.882 11.1238C128.862 11.1625 128.862 11.2132 128.862 11.3145L128.862 21.5385C128.862 27.6316 127.054 31.0091 124.187 32.2833C124.111 32.317 124.073 32.3338 124.041 32.3279C124.012 32.3228 123.986 32.3057 123.97 32.2821C123.951 32.2545 123.951 32.2118 123.951 32.1266V29.8136C123.951 29.7085 123.951 29.6559 123.964 29.6095C123.976 29.5663 123.992 29.5313 124.018 29.4948C124.046 29.4555 124.09 29.4191 124.178 29.3463C125.435 28.3081 126.51 26.5506 126.51 21.5385L126.51 11.5678C126.51 10.5544 126.51 10.0477 126.707 9.66062C126.88 9.32013 127.157 9.04331 127.498 8.86983Z" fill="#1F1F1F"/>
<path d="M151.326 10.7436L150.71 8.41563C150.672 8.27091 150.653 8.19855 150.675 8.14287C150.688 8.11195 150.708 8.08505 150.735 8.06515C150.783 8.0293 150.858 8.0293 151.008 8.0293H152.814C152.907 8.0293 152.954 8.0293 152.992 8.04804C153.013 8.0586 153.032 8.07327 153.048 8.09121C153.076 8.12306 153.088 8.16811 153.111 8.2582L153.769 10.7436H163.434C163.553 10.7436 163.612 10.7436 163.655 10.7702C163.68 10.7852 163.7 10.8056 163.715 10.83C163.742 10.8735 163.742 10.9327 163.742 11.0512V12.7883C163.742 12.9068 163.742 12.966 163.715 13.0096C163.7 13.0339 163.68 13.0544 163.655 13.0693C163.612 13.096 163.553 13.096 163.434 13.096H150.326C150.128 13.6245 149.835 14.3498 149.446 15.1748C148.907 16.3133 147.987 17.855 147.033 19.1581H158.142L156.518 16.0802C156.432 15.9162 156.389 15.8342 156.404 15.768C156.413 15.7315 156.433 15.6986 156.461 15.6739C156.512 15.629 156.605 15.629 156.79 15.629H158.737C158.809 15.629 158.845 15.629 158.877 15.6412C158.895 15.6482 158.911 15.6579 158.926 15.6701C158.952 15.6916 158.97 15.7229 159.005 15.7855L161.969 21.0426C162.072 21.2111 162.123 21.2953 162.11 21.3643C162.102 21.4023 162.083 21.4368 162.054 21.4629C162.003 21.5105 161.904 21.5105 161.706 21.5105H157.604V28.241C157.604 28.7148 157.604 28.9518 157.711 29.1258C157.771 29.2232 157.853 29.3051 157.95 29.3648C158.124 29.4714 158.361 29.4714 158.835 29.4714H164.082C164.201 29.4714 164.26 29.4714 164.304 29.4981C164.328 29.513 164.348 29.5335 164.363 29.5579C164.39 29.6014 164.39 29.6606 164.39 29.7791V31.6972C164.39 31.8156 164.39 31.8749 164.363 31.9184C164.348 31.9427 164.328 31.9632 164.304 31.9781C164.26 32.0048 164.201 32.0048 164.082 32.0048L159.378 32.0048C157.719 32.0048 156.89 32.0048 156.281 31.6315C155.94 31.4226 155.653 31.136 155.444 30.7951C155.071 30.1859 155.071 29.3567 155.071 27.6983L155.071 21.5105H150.815C150.576 25.7927 148.276 28.5608 146.036 30.2288C144.862 31.1028 143.696 31.685 142.826 32.0491C142.389 32.2319 142.022 32.3619 141.758 32.4475C141.752 32.4495 141.749 32.4505 141.746 32.4515C141.635 32.4823 141.521 32.3996 141.516 32.285C141.516 32.2811 141.516 32.2772 141.516 32.2693V30.0422C141.516 29.9591 141.516 29.9175 141.531 29.8828C141.54 29.8629 141.552 29.8455 141.567 29.8299C141.593 29.8026 141.632 29.7864 141.711 29.7541C141.733 29.745 141.756 29.7356 141.778 29.7261C142.503 29.423 143.644 28.942 144.596 28.2328C146.351 26.926 148.205 24.7243 148.454 21.5105H144.401C144.283 21.5105 144.224 21.5105 144.18 21.4838C144.156 21.4689 144.135 21.4484 144.12 21.4241C144.094 21.3805 144.094 21.3213 144.094 21.2028V18.9771C144.094 18.9767 144.094 18.9762 144.094 18.9759C145.521 17.5155 146.603 15.6434 147.336 14.0923C147.504 13.7363 147.652 13.4009 147.781 13.096H142.335C142.217 13.096 142.158 13.096 142.114 13.0693C142.09 13.0544 142.069 13.0339 142.054 13.0096C142.028 12.966 142.028 12.9068 142.028 12.7883V11.0512C142.028 10.9327 142.028 10.8735 142.054 10.83C142.069 10.8056 142.09 10.7852 142.114 10.7702C142.158 10.7436 142.217 10.7436 142.335 10.7436H151.326Z" fill="#1F1F1F"/>
<path fill-rule="evenodd" clip-rule="evenodd" d="M181.226 13.4031L181.324 11.8667H187.746C187.865 11.8667 187.924 11.8667 187.968 11.8401C187.992 11.8251 188.012 11.8047 188.027 11.7803C188.054 11.7368 188.054 11.6776 188.054 11.5591V9.82196C188.054 9.70349 188.054 9.64426 188.027 9.60075C188.012 9.5764 187.992 9.55593 187.968 9.54101C187.924 9.51434 187.865 9.51434 187.746 9.51434H181.476L181.577 7.94065C181.585 7.81537 181.589 7.75272 181.563 7.70621C181.549 7.68023 181.528 7.65821 181.503 7.64211C181.458 7.61328 181.396 7.61328 181.27 7.61328H179.615C179.503 7.61328 179.447 7.61328 179.405 7.63786C179.381 7.65164 179.361 7.6706 179.346 7.69333C179.318 7.73387 179.315 7.78963 179.308 7.90115L179.204 9.51434H173.516C173.398 9.51434 173.339 9.51434 173.295 9.54101C173.271 9.55593 173.25 9.5764 173.235 9.60075C173.209 9.64426 173.209 9.70349 173.209 9.82196V11.5591C173.209 11.6776 173.209 11.7368 173.235 11.7803C173.25 11.8047 173.271 11.8251 173.295 11.8401C173.339 11.8667 173.398 11.8667 173.516 11.8667H179.053L178.954 13.4031H177.059C176.942 13.403 176.826 13.403 176.712 13.4037V13.4031H176.64C175.692 13.4031 175.218 13.4031 174.87 13.6164C174.675 13.7357 174.512 13.8995 174.392 14.0943C174.179 14.4424 174.179 14.9163 174.179 15.864V16.5754H174.181C174.179 16.7383 174.179 16.9078 174.179 17.081L174.179 29.4191H172.612C172.493 29.4191 172.434 29.4191 172.39 29.4458C172.366 29.4607 172.346 29.4812 172.331 29.5055C172.304 29.549 172.304 29.6083 172.304 29.7267V31.4639C172.304 31.5823 172.304 31.6416 172.331 31.6851C172.346 31.7094 172.366 31.7299 172.39 31.7448C172.434 31.7715 172.493 31.7715 172.612 31.7715L188.789 31.7715C188.907 31.7715 188.967 31.7715 189.01 31.7448C189.034 31.7299 189.055 31.7094 189.07 31.6851C189.096 31.6416 189.096 31.5823 189.096 31.4639V29.7267C189.096 29.6083 189.096 29.549 189.07 29.5055C189.055 29.4812 189.034 29.4607 189.01 29.4458C188.967 29.4191 188.907 29.4191 188.789 29.4191H187.027L187.027 17.0807C187.027 16.9076 187.027 16.7382 187.025 16.5754H187.027V15.864C187.027 14.9163 187.027 14.4424 186.813 14.0943C186.694 13.8995 186.53 13.7357 186.335 13.6164C185.987 13.4031 185.513 13.4031 184.566 13.4031H184.493V13.4033C184.435 13.403 184.367 13.403 184.286 13.4031L181.226 13.4031ZM184.493 21.5466V19.7371L176.712 19.7371V21.5466L184.493 21.5466ZM184.493 23.718L176.712 23.718V25.5276L184.493 25.5276V23.718ZM176.712 29.4191V27.699L184.493 27.699V29.4191L176.712 29.4191ZM184.493 17.3688V17.5657L176.712 17.5657V17.3688H176.712V17.0266C176.712 16.959 176.711 16.8955 176.711 16.836C176.71 16.7391 176.709 16.6526 176.71 16.5754H176.712V16.1493C176.712 16.0308 176.712 15.9716 176.739 15.9281C176.754 15.9037 176.774 15.8833 176.799 15.8683C176.842 15.8417 176.901 15.8417 177.02 15.8417H184.195C184.313 15.8417 184.373 15.8417 184.416 15.8683C184.44 15.8833 184.461 15.9037 184.476 15.9281C184.503 15.9716 184.503 16.0308 184.503 16.1493V17.3688H184.493Z" fill="#1F1F1F"/>
<path d="M167.791 17.0735C168.281 16.5658 168.716 16.0587 169.106 15.3472V31.7957C169.106 31.8971 169.106 31.9477 169.126 31.9864C169.143 32.0205 169.171 32.0482 169.205 32.0655C169.243 32.0852 169.294 32.0852 169.396 32.0852H171.35C171.451 32.0852 171.502 32.0852 171.541 32.0655C171.575 32.0482 171.602 32.0205 171.62 31.9864C171.639 31.9477 171.639 31.8971 171.639 31.7957V8.30809C171.639 8.20674 171.639 8.15607 171.62 8.11736C171.602 8.08332 171.575 8.05563 171.541 8.03828C171.502 8.01856 171.451 8.01856 171.35 8.01856H170.463C170.099 8.0186 169.867 8.01845 169.719 8.01826C169.629 8.01814 169.584 8.01808 169.549 8.03384C169.517 8.04799 169.491 8.06958 169.472 8.09844C169.451 8.13057 169.443 8.17561 169.428 8.26567C168.967 10.9688 167.796 13.5682 166.162 15.2889C166.094 15.3611 166.06 15.3971 166.047 15.4361C166.035 15.4712 166.035 15.5066 166.045 15.542C166.056 15.5814 166.088 15.6175 166.152 15.6897L167.369 17.063C167.441 17.1434 167.476 17.1837 167.519 17.1994C167.557 17.2131 167.598 17.214 167.636 17.2019C167.68 17.1881 167.717 17.1499 167.791 17.0735Z" fill="#1F1F1F"/>
</svg>
