<svg width="336" height="88" viewBox="0 0 336 88" fill="none" xmlns="http://www.w3.org/2000/svg">
<path d="M44 22C31.8497 22 22 31.8497 22 44C22 56.1503 31.8497 66 44 66C56.1503 66 66 56.1503 66 44C66 41.8278 65.6859 39.7333 65.1024 37.7572C64.7113 36.4331 65.4678 35.0426 66.7919 34.6515C68.1161 34.2605 69.5066 35.0169 69.8976 36.3411C70.6156 38.7721 71 41.3433 71 44C71 58.9117 58.9117 71 44 71C29.0883 71 17 58.9117 17 44C17 29.0883 29.0883 17 44 17C46.6764 17 49.2662 17.3902 51.7131 18.1184C53.0365 18.5123 53.79 19.9044 53.3961 21.2277C53.0023 22.551 51.6102 23.3046 50.2869 22.9107C48.2979 22.3188 46.1884 22 44 22Z" fill="#0CBD6A"/>
<path fill-rule="evenodd" clip-rule="evenodd" d="M35.5 44C35.5 39.3056 39.3056 35.5 44 35.5C44.585 35.5 45.1562 35.5591 45.7079 35.6716L62.8704 22.3231C64.7286 20.8778 67.1222 23.2715 65.6769 25.1297L52.3284 42.2921C52.4409 42.8439 52.5 43.415 52.5 44C52.5 48.6944 48.6944 52.5 44 52.5C39.3056 52.5 35.5 48.6944 35.5 44ZM44 40.5C42.067 40.5 40.5 42.067 40.5 44C40.5 45.933 42.067 47.5 44 47.5C45.933 47.5 47.5 45.933 47.5 44C47.5 42.067 45.933 40.5 44 40.5Z" fill="#0CBD6A"/>
<path fill-rule="evenodd" clip-rule="evenodd" d="M116.643 25.8145C116.465 25.8145 116.377 25.8145 116.312 25.8536C116.275 25.8757 116.245 25.9052 116.222 25.9414C116.182 26.0055 116.181 26.0954 116.178 26.2751C116.148 27.9777 115.954 29.7556 115.579 31.5145H113.787L113.782 31.4801L113.779 31.4577L113.779 31.4568L113.152 27.0256C113.13 26.8708 113.119 26.7935 113.078 26.7378C113.054 26.7066 113.025 26.6808 112.99 26.662C112.929 26.6287 112.851 26.6287 112.695 26.6287H110.169C109.967 26.6287 109.866 26.6287 109.797 26.676C109.758 26.7023 109.727 26.7382 109.707 26.78C109.67 26.8552 109.684 26.9551 109.712 27.1548L110.328 31.5145H108.637C108.46 31.5145 108.371 31.5145 108.306 31.5545C108.269 31.5768 108.238 31.6075 108.216 31.6441C108.176 31.7093 108.176 31.7982 108.176 31.9759V34.3102C108.176 34.4879 108.176 34.5767 108.216 34.642C108.238 34.6785 108.269 34.7092 108.306 34.7316C108.371 34.7716 108.46 34.7716 108.637 34.7716H114.659C114.377 35.5607 114.054 36.3329 113.688 37.0787L107.582 37.0787C107.404 37.0787 107.315 37.0787 107.25 37.1187C107.214 37.1411 107.183 37.1718 107.161 37.2083C107.121 37.2736 107.121 37.3625 107.121 37.5402V39.8745C107.121 40.0522 107.121 40.141 107.161 40.2063C107.183 40.2428 107.214 40.2735 107.25 40.2959C107.315 40.3359 107.404 40.3359 107.582 40.3359H111.661C110.434 41.8992 108.938 43.2183 107.149 44.1557C107.045 44.2104 106.993 44.2378 106.959 44.2776C106.939 44.3005 106.924 44.325 106.913 44.353C106.894 44.4016 106.894 44.4585 106.894 44.5723V47.4632C106.894 47.7229 106.894 47.8527 106.959 47.9291C106.995 47.9702 107.045 48.0014 107.098 48.0149C107.195 48.0399 107.309 47.9835 107.536 47.8709C108.5 47.3925 109.406 46.8253 110.253 46.1827H120.754C120.906 46.1827 120.982 46.1827 121.04 46.2123C121.091 46.2383 121.133 46.2799 121.159 46.3309C121.188 46.389 121.188 46.465 121.188 46.617V49.6999L115.144 49.7C114.966 49.7 114.877 49.7 114.812 49.66C114.775 49.6376 114.745 49.6069 114.722 49.5704C114.682 49.5051 114.682 49.4163 114.682 49.2386V47.6339C114.682 47.4562 114.682 47.3674 114.642 47.3021C114.62 47.2656 114.589 47.2349 114.553 47.2125C114.487 47.1725 114.398 47.1725 114.221 47.1725H111.344C111.166 47.1725 111.077 47.1725 111.012 47.2125C110.975 47.2349 110.945 47.2656 110.922 47.3021C110.882 47.3674 110.882 47.4562 110.882 47.6339V50.5957L110.882 50.6119C110.882 50.6777 110.882 50.8344 110.896 50.9836C110.914 51.1753 110.968 51.5389 111.202 51.9203C111.381 52.2124 111.627 52.4581 111.919 52.6371C112.3 52.8708 112.664 52.9254 112.856 52.9436C113.005 52.9578 113.162 52.9573 113.227 52.9572L113.244 52.9571L123.804 52.957C123.981 52.957 124.07 52.957 124.135 52.997C124.172 53.0194 124.203 53.0501 124.225 53.0866C124.265 53.1519 124.265 53.2407 124.265 53.4184V56.2144L124.265 56.239L124.265 56.2618V58.4673C124.265 58.645 124.265 58.7338 124.225 58.7991C124.203 58.8356 124.172 58.8663 124.136 58.8887C124.07 58.9287 123.981 58.9287 123.803 58.9287H120.927C120.749 58.9287 120.66 58.9287 120.595 58.9687C120.558 58.9911 120.527 59.0218 120.505 59.0583C120.465 59.1236 120.465 59.2124 120.465 59.3901V61.7244C120.465 61.9021 120.465 61.991 120.505 62.0562C120.527 62.0928 120.558 62.1235 120.595 62.1458C120.66 62.1858 120.749 62.1858 120.927 62.1858L124.103 62.1858L124.118 62.1858C125.046 62.1856 125.526 62.1803 125.918 62.053C126.745 61.7845 127.392 61.1366 127.661 60.3103C127.794 59.9014 127.794 59.3963 127.794 58.3859L127.794 53.3901C127.794 53.0843 127.794 52.7361 127.765 52.4335C127.732 52.084 127.647 51.6048 127.354 51.1256C127.107 50.7238 126.77 50.386 126.368 50.1399C125.889 49.8462 125.409 49.7616 125.06 49.7284C124.866 49.71 124.653 49.7034 124.445 49.7011V47.7027C124.445 46.8036 124.445 46.1461 124.395 45.6312C125.46 46.3791 126.592 47.0083 127.738 47.4509C127.95 47.533 128.057 47.5741 128.148 47.5449C128.197 47.5291 128.244 47.4969 128.276 47.4568C128.337 47.3822 128.337 47.2642 128.337 47.0282V44.4681C128.337 44.3315 128.337 44.2632 128.311 44.2088C128.296 44.1768 128.278 44.1513 128.253 44.127C128.209 44.0855 128.141 44.0623 128.004 44.0157C126.235 43.4132 124.364 42.0018 122.972 40.3359H127.288C127.465 40.3359 127.554 40.3359 127.619 40.2959C127.656 40.2735 127.687 40.2428 127.709 40.2063C127.749 40.141 127.749 40.0522 127.749 39.8745V37.5402C127.749 37.3625 127.749 37.2736 127.709 37.2083C127.687 37.1718 127.656 37.1411 127.619 37.1187C127.554 37.0787 127.465 37.0787 127.288 37.0787L117.059 37.0787C117.38 36.3231 117.667 35.5522 117.922 34.7716H126.775C126.953 34.7716 127.042 34.7716 127.107 34.7316C127.143 34.7092 127.174 34.6785 127.196 34.642C127.236 34.5767 127.236 34.4879 127.236 34.3102V31.9759C127.236 31.7982 127.236 31.7093 127.196 31.6441C127.174 31.6075 127.143 31.5768 127.107 31.5545C127.042 31.5145 126.953 31.5145 126.775 31.5145H124.84C124.895 31.3507 124.947 31.1982 124.991 31.0687L125.068 30.8415C125.379 29.9241 125.772 28.6813 126.168 27.2047C126.225 26.9905 126.254 26.8834 126.22 26.7996C126.202 26.7534 126.171 26.7125 126.131 26.6827C126.058 26.6287 125.947 26.6287 125.724 26.6287H123.234C123.096 26.6287 123.027 26.6287 122.971 26.656C122.939 26.6715 122.911 26.6927 122.888 26.719C122.846 26.7655 122.827 26.8323 122.789 26.9659C122.507 27.9502 122.238 28.7908 122.016 29.4461L121.92 29.7284L121.92 29.7289C121.748 30.2383 121.467 31.0675 121.312 31.5145H118.78C119.138 29.7562 119.332 27.9892 119.362 26.2749C119.365 26.1004 119.366 26.0131 119.327 25.9467C119.305 25.9099 119.273 25.8779 119.237 25.8553C119.171 25.8145 119.082 25.8145 118.905 25.8145H116.643ZM121.307 42.9461C120.512 42.0984 119.822 41.2108 119.276 40.3359H115.401C114.854 41.2437 114.25 42.1112 113.59 42.9256H119.668C120.333 42.9256 120.866 42.9256 121.307 42.9461Z" fill="#1F1F1F"/>
<path fill-rule="evenodd" clip-rule="evenodd" d="M102.279 49.9716V61.8122C102.279 61.9899 102.279 62.0787 102.319 62.144C102.342 62.1805 102.372 62.2112 102.409 62.2336C102.474 62.2736 102.563 62.2736 102.741 62.2736H105.347C105.524 62.2736 105.613 62.2736 105.678 62.2336C105.715 62.2112 105.746 62.1805 105.768 62.144C105.808 62.0787 105.808 61.9899 105.808 61.8122L105.808 30.1833C105.808 30.1351 105.808 30.0859 105.808 30.036V29.723C105.808 28.4791 105.808 27.8572 105.528 27.4003C105.371 27.1446 105.156 26.9297 104.901 26.773C104.444 26.493 103.822 26.493 102.578 26.493H98.4023C97.1584 26.493 96.5365 26.493 96.0796 26.773C95.8239 26.9297 95.609 27.1446 95.4523 27.4003C95.1735 27.8553 95.1723 28.4741 95.1723 29.7079C95.1689 29.8696 95.1689 30.0317 95.169 30.1833L95.169 50.295C95.169 54.5561 94.7856 57.6857 94.4124 59.7229C94.2258 60.7417 94.0416 61.4882 93.9088 61.9672C93.8664 62.1203 93.9805 62.2736 94.1394 62.2736H97.1213C97.2638 62.2736 97.335 62.2736 97.393 62.2441C97.4253 62.2277 97.4548 62.2043 97.4781 62.1765C97.5199 62.1266 97.5357 62.0581 97.5673 61.9212C97.6674 61.4873 97.7734 60.9829 97.8788 60.4075C98.2934 58.1443 98.6976 54.7855 98.6976 50.295V49.9716H102.279ZM98.6976 40.2002V46.7145H102.279V40.2002H98.6976ZM102.279 36.943H98.6976V30.601H98.7008V30.2965C98.7051 30.2327 98.7149 30.1882 98.7376 30.1512C98.76 30.1147 98.7907 30.084 98.8272 30.0616C98.8925 30.0216 98.9813 30.0216 99.159 30.0216H101.818C101.996 30.0216 102.084 30.0216 102.15 30.0616C102.186 30.084 102.217 30.1147 102.239 30.1512C102.279 30.2165 102.279 30.3054 102.279 30.4831V36.943Z" fill="#1F1F1F"/>
<path d="M122.998 57.1801C122.998 57.3578 122.998 57.4467 122.958 57.512C122.936 57.5485 122.905 57.5792 122.869 57.6016C122.803 57.6416 122.714 57.6416 122.537 57.6416L107.582 57.6416C107.404 57.6416 107.315 57.6416 107.25 57.6016C107.214 57.5792 107.183 57.5485 107.161 57.512C107.121 57.4467 107.121 57.3578 107.121 57.1801V54.8459C107.121 54.6682 107.121 54.5793 107.161 54.514C107.183 54.4775 107.214 54.4468 107.25 54.4244C107.315 54.3844 107.404 54.3844 107.582 54.3844L122.537 54.3844C122.714 54.3844 122.803 54.3844 122.869 54.4244C122.905 54.4468 122.936 54.4775 122.958 54.514C122.998 54.5793 122.998 54.6682 122.998 54.8459V57.1801Z" fill="#1F1F1F"/>
<path d="M133.316 30.1222C133.297 30.0738 133.297 30.0183 133.297 29.9073V26.5805C133.297 26.302 133.297 26.1627 133.364 26.0859C133.401 26.0436 133.451 26.0139 133.505 26.0009C133.605 25.9772 133.728 26.0424 133.974 26.1727L139.837 29.2763C139.935 29.3283 139.984 29.3542 140.018 29.3939C140.037 29.4164 140.052 29.4418 140.063 29.4692C140.082 29.5176 140.082 29.5731 140.082 29.6841V33.0109C140.082 33.2894 140.082 33.4287 140.015 33.5055C139.978 33.5478 139.928 33.5776 139.874 33.5906C139.774 33.6142 139.651 33.5491 139.405 33.4187L133.542 30.3151C133.444 30.2632 133.395 30.2372 133.361 30.1975C133.342 30.175 133.327 30.1496 133.316 30.1222Z" fill="#1F1F1F"/>
<path fill-rule="evenodd" clip-rule="evenodd" d="M149.572 62.4422C149.394 62.4422 149.305 62.4422 149.24 62.4022C149.203 62.3798 149.173 62.3491 149.15 62.3125C149.11 62.2473 149.11 62.1584 149.11 61.9807L149.11 44.4123H142.243C142.065 44.4123 141.977 44.4123 141.911 44.3723C141.875 44.3499 141.844 44.3192 141.822 44.2827C141.782 44.2174 141.782 44.1286 141.782 43.9509V41.6166C141.782 41.4389 141.782 41.35 141.822 41.2848C141.844 41.2482 141.875 41.2175 141.911 41.1952C141.977 41.1552 142.065 41.1552 142.243 41.1552H149.11L149.11 29.8707H143.303C143.125 29.8707 143.036 29.8707 142.971 29.8307C142.934 29.8084 142.904 29.7777 142.881 29.7411C142.841 29.6759 142.841 29.587 142.841 29.4093V26.8036C142.841 26.6259 142.841 26.537 142.881 26.4718C142.904 26.4352 142.934 26.4045 142.971 26.3822C143.036 26.3422 143.125 26.3422 143.303 26.3422L157.127 26.3422C157.94 26.3421 158.695 26.342 159.325 26.4019C160.01 26.467 160.767 26.6179 161.492 27.0621C162.149 27.465 162.702 28.0177 163.105 28.6751C163.549 29.4 163.7 30.1568 163.765 30.8416C163.825 31.4716 163.825 32.2273 163.825 33.0405L163.825 45.6746C163.825 52.3013 164.79 56.6579 165.7 59.2939C165.97 60.0754 166.235 60.7078 166.47 61.2053C166.596 61.4703 166.658 61.6028 166.633 61.6991C166.618 61.7539 166.589 61.7988 166.546 61.8355C166.47 61.9001 166.328 61.9001 166.044 61.9001H163.164C163.04 61.9001 162.978 61.9001 162.925 61.8764C162.896 61.8632 162.868 61.8442 162.845 61.8214C162.804 61.7807 162.782 61.7238 162.738 61.6101C162.628 61.3274 162.518 61.0277 162.409 60.7104C161.325 57.568 160.296 52.7266 160.296 45.6746V44.4123H152.639L152.639 61.9807C152.639 62.1584 152.639 62.2473 152.599 62.3125C152.576 62.3491 152.546 62.3798 152.509 62.4022C152.444 62.4422 152.355 62.4422 152.177 62.4422H149.572ZM160.296 41.1552V32.585C160.296 30.0327 160.134 29.8707 157.582 29.8707H152.639V41.1552H160.296Z" fill="#1F1F1F"/>
<path d="M135.985 39.6422C136.156 39.6423 136.241 39.6423 136.306 39.6823C136.342 39.7043 136.374 39.736 136.396 39.7719C136.436 39.8371 136.436 39.9226 136.436 40.0937L136.436 57.4483C136.436 59.3772 136.436 60.3416 136.92 60.9393C137.184 61.2648 137.554 61.5165 137.953 61.6428C138.687 61.8746 139.572 61.5265 141.341 60.8302C141.898 60.6114 142.495 60.3745 143.129 60.1203L144.66 59.5065C144.89 59.4143 145.005 59.3682 145.085 59.2862C145.13 59.2398 145.167 59.1858 145.193 59.1266C145.24 59.0217 145.24 58.8978 145.24 58.6499V56.475C145.24 56.2229 145.24 56.0968 145.18 56.0224C145.146 55.9808 145.103 55.9506 145.052 55.9342C144.961 55.9047 144.842 55.9499 144.604 56.0404C143.886 56.3136 143.058 56.6105 142.248 56.9009L142.247 56.9012C141.673 57.1071 141.107 57.3099 140.597 57.4986C140.362 57.5852 140.245 57.6286 140.155 57.5987C140.104 57.5821 140.061 57.5518 140.028 57.5104C139.969 57.4361 139.969 57.3141 139.968 57.07C139.968 54.5285 139.965 45.3368 139.965 40.7097L139.965 39.8023C139.965 38.3827 139.965 37.6729 139.645 37.1506C139.466 36.8585 139.22 36.6126 138.928 36.4336C138.406 36.1136 137.696 36.1136 136.275 36.1136L132.672 36.1136C132.495 36.1136 132.406 36.1136 132.341 36.1536C132.304 36.176 132.273 36.2067 132.251 36.2432C132.211 36.3085 132.211 36.3973 132.211 36.575V39.1807C132.211 39.3584 132.211 39.4473 132.251 39.5126C132.273 39.5491 132.304 39.5798 132.341 39.6022C132.406 39.6422 132.495 39.6422 132.672 39.6422L135.985 39.6422Z" fill="#1F1F1F"/>
<path d="M197.006 26.5078C199.134 26.5078 200.198 26.5079 201.011 26.9219C201.726 27.2862 202.308 27.868 202.672 28.583C203.086 29.3958 203.086 30.4599 203.086 32.5879V56.5967C203.086 58.5325 203.086 59.5007 202.732 60.1963C202.314 61.0191 201.566 61.6255 200.675 61.8652C199.921 62.0678 198.973 61.8689 197.079 61.4697C196.971 61.447 196.918 61.4347 196.876 61.4082C196.827 61.3767 196.788 61.3302 196.768 61.2754C196.75 61.2292 196.75 61.1739 196.75 61.0635V58.2656C196.75 58.0814 196.75 57.9888 196.788 57.9248C196.821 57.8689 196.874 57.8273 196.936 57.8066C197.006 57.7831 197.096 57.8027 197.276 57.8418L198.505 58.1074C198.865 58.1856 199.045 58.2248 199.187 58.1777C199.31 58.1365 199.415 58.0524 199.481 57.9404C199.557 57.8124 199.558 57.6274 199.558 57.2588V31.3389C199.558 30.8834 199.557 30.6555 199.469 30.4814C199.391 30.3283 199.266 30.2031 199.113 30.125C198.939 30.0363 198.711 30.0361 198.255 30.0361H175.745C175.29 30.0361 175.062 30.0365 174.888 30.125C174.734 30.2031 174.609 30.3282 174.531 30.4814C174.443 30.6555 174.442 30.8834 174.442 31.3389V61.4951C174.442 61.647 174.443 61.7232 174.413 61.7812C174.387 61.8323 174.345 61.8734 174.294 61.8994C174.236 61.9288 174.16 61.9297 174.009 61.9297H171.349C171.197 61.9297 171.121 61.929 171.063 61.8994C171.011 61.8734 170.969 61.8323 170.943 61.7812C170.914 61.7232 170.914 61.647 170.914 61.4951V32.5879C170.914 30.46 170.914 29.3958 171.328 28.583C171.692 27.868 172.274 27.2862 172.989 26.9219C173.802 26.5079 174.866 26.5078 176.994 26.5078H197.006ZM178.878 33.4297C178.998 33.4298 179.104 33.5087 179.138 33.624C179.888 36.1805 180.684 38.7665 181.582 41.2705C182.499 38.7678 183.31 36.1802 184.077 33.623C184.112 33.5082 184.218 33.4297 184.338 33.4297H189.662C189.782 33.4297 189.888 33.5082 189.923 33.623C190.69 36.1803 191.502 38.7678 192.419 41.2705C193.317 38.7666 194.112 36.1805 194.862 33.624C194.896 33.5087 195.002 33.4299 195.122 33.4297H198.163C198.271 33.4297 198.349 33.5328 198.319 33.6367C198.216 33.9947 198.081 34.4512 197.917 34.9922C197.475 36.4434 196.816 38.5249 195.93 41.0508C195.506 42.2611 194.933 43.5772 194.406 44.9756C195.801 48.5222 197.42 52.0189 199.07 55.4531C199.122 55.5611 199.044 55.6863 198.924 55.6865H195.588C195.483 55.6864 195.387 55.6257 195.343 55.5303C194.265 53.1955 193.29 50.3936 192.418 48.2822C191.564 50.393 190.611 53.194 189.556 55.5283C189.512 55.6249 189.416 55.6865 189.31 55.6865H184.69C184.584 55.6865 184.488 55.6249 184.444 55.5283C183.389 53.194 182.436 50.393 181.582 48.2822C180.71 50.3936 179.735 53.1955 178.657 55.5303C178.613 55.6258 178.517 55.6865 178.412 55.6865H175.076C174.956 55.6862 174.878 55.5611 174.93 55.4531C176.577 52.0201 178.132 48.5216 179.527 44.9756C179.036 43.6706 178.532 42.3693 178.07 41.0508C177.184 38.5249 176.525 36.4434 176.083 34.9922C175.919 34.4511 175.784 33.9946 175.681 33.6367C175.651 33.5328 175.729 33.4297 175.837 33.4297H178.878ZM187 36.0537C186.558 37.4522 185.948 38.8703 185.167 41.0508C184.723 42.2938 184.134 43.6479 183.578 45.0889C184.616 47.7778 185.82 50.4382 187 53.0664C188.18 50.4382 189.426 47.7778 190.464 45.0889C189.908 43.6479 189.277 42.2938 188.833 41.0508C188.052 38.8703 187.442 37.4522 187 36.0537Z" fill="#1F1F1F"/>
<path d="M236.452 46.0361C237.972 46.0361 238.732 46.0362 239.313 46.332C239.823 46.5922 240.239 47.007 240.499 47.5176C240.795 48.0982 240.795 48.8588 240.795 50.3789V57.3164C240.795 58.8365 240.795 59.5971 240.499 60.1777C240.239 60.6884 239.824 61.103 239.313 61.3633C238.732 61.6591 237.972 61.6592 236.452 61.6592H226.004C224.484 61.6592 223.724 61.6591 223.143 61.3633C222.632 61.103 222.217 60.6884 221.956 60.1777C221.661 59.5971 221.662 58.8365 221.662 57.3164V50.3789C221.662 48.8588 221.661 48.0982 221.956 47.5176C222.217 47.007 222.632 46.5922 223.143 46.332C223.724 46.0362 224.484 46.0361 226.004 46.0361H236.452ZM219.246 55.377C219.296 55.3933 219.339 55.4277 219.366 55.4727C219.396 55.524 219.396 55.5983 219.396 55.7461V58.542C219.396 58.666 219.395 58.7281 219.373 58.7793C219.354 58.8245 219.323 58.8638 219.283 58.8926C219.237 58.925 219.177 58.939 219.056 58.9658L208.349 61.3438C208.205 61.3758 208.132 61.3917 208.076 61.373C208.026 61.3567 207.983 61.3233 207.956 61.2783C207.926 61.227 207.926 61.1529 207.926 61.0049V58.21C207.926 58.0861 207.926 58.0238 207.948 57.9727C207.967 57.9275 207.999 57.8881 208.038 57.8594C208.084 57.8268 208.145 57.8131 208.266 57.7861L218.973 55.4072C219.117 55.3751 219.19 55.3584 219.246 55.377ZM225.623 49.5645C225.472 49.5645 225.396 49.5645 225.338 49.5938C225.287 49.6198 225.245 49.6618 225.219 49.7129C225.19 49.7709 225.19 49.8471 225.19 49.999V57.6963C225.19 57.848 225.19 57.9244 225.219 57.9824C225.245 58.0335 225.287 58.0755 225.338 58.1016C225.396 58.1309 225.472 58.1309 225.623 58.1309H236.832C236.984 58.1309 237.061 58.1311 237.119 58.1016C237.169 58.0755 237.211 58.0334 237.237 57.9824C237.266 57.9244 237.266 57.848 237.266 57.6963V49.999C237.266 49.8471 237.266 49.7709 237.237 49.7129C237.211 49.6619 237.17 49.6198 237.119 49.5938C237.061 49.5642 236.984 49.5645 236.832 49.5645H225.623ZM217.096 26.374C217.188 26.374 217.233 26.3743 217.261 26.3936C217.285 26.4103 217.302 26.4358 217.307 26.4648C217.312 26.4982 217.293 26.5398 217.253 26.6221L212.376 36.8418C212.278 37.0481 212.228 37.1517 212.242 37.2354C212.253 37.3083 212.295 37.373 212.356 37.415C212.425 37.4632 212.54 37.4629 212.768 37.4629H215.315L216.153 35.7305C216.196 35.6416 216.217 35.597 216.249 35.5645C216.278 35.5357 216.314 35.5134 216.352 35.5C216.395 35.4849 216.445 35.4854 216.543 35.4854H219.756C219.848 35.4854 219.894 35.4855 219.922 35.5049C219.947 35.5218 219.964 35.5478 219.968 35.5771C219.973 35.6108 219.953 35.6525 219.912 35.7354L213.111 49.6855C212.999 49.9147 212.943 50.0291 212.959 50.1172C212.974 50.194 213.02 50.2609 213.087 50.3008C213.164 50.3465 213.292 50.3337 213.545 50.3076L218.923 49.7539C219.089 49.7368 219.173 49.7278 219.237 49.7549C219.293 49.7787 219.339 49.8214 219.369 49.875C219.402 49.936 219.403 50.0191 219.403 50.1855V52.8838C219.403 53.0226 219.402 53.0924 219.376 53.1475C219.353 53.1958 219.317 53.2361 219.271 53.2637C219.219 53.295 219.149 53.3026 219.011 53.3164L213.244 53.8945C211.225 54.097 210.216 54.1983 209.601 53.833C209.065 53.5144 208.692 52.9808 208.577 52.3682C208.444 51.6652 208.886 50.7515 209.77 48.9248L213.576 41.0576H212.104C210.275 41.0576 209.361 41.0571 208.804 40.6719C208.317 40.3355 207.989 39.8155 207.895 39.2314C207.787 38.5626 208.181 37.7371 208.968 36.0869L213.486 26.6211C213.528 26.5316 213.55 26.4869 213.582 26.4541C213.611 26.4251 213.646 26.4032 213.685 26.3896C213.729 26.3744 213.778 26.374 213.877 26.374H217.096ZM228.217 25.875C228.389 25.875 228.476 25.8748 228.538 25.9111C228.593 25.9424 228.636 25.995 228.658 26.0537C228.682 26.1219 228.668 26.204 228.639 26.3682C228.528 27.0051 228.372 27.6512 228.172 28.2949H236.818C238.344 28.2949 239.108 28.2952 239.67 28.6914C240.117 29.0058 240.494 29.6255 240.57 30.166C240.665 30.8473 240.36 31.4405 239.75 32.627C238.352 35.3478 236.492 37.7241 234.252 39.6982C236.613 41.2306 239.322 42.2771 242.089 42.8975C242.213 42.9253 242.276 42.9391 242.321 42.9717C242.361 43.0007 242.391 43.0394 242.411 43.085C242.432 43.1362 242.433 43.1989 242.433 43.3242V45.9082C242.433 46.0878 242.432 46.1775 242.395 46.2412C242.362 46.2965 242.31 46.3396 242.249 46.3604C242.179 46.3842 242.092 46.3661 241.918 46.3301C238.149 45.5476 234.511 44.0951 231.444 41.832C228.104 44.0099 224.155 45.4423 219.776 45.9805C219.612 46.0006 219.529 46.0107 219.464 45.9844C219.408 45.9613 219.358 45.9187 219.329 45.8652C219.294 45.8037 219.294 45.7197 219.294 45.5527V43.0127C219.294 42.8763 219.295 42.8079 219.32 42.7539C219.342 42.7058 219.377 42.666 219.421 42.6377C219.472 42.606 219.541 42.5965 219.679 42.5781C223.128 42.1195 226.189 41.014 228.765 39.4863C227.233 37.89 225.935 36.0118 224.954 33.8232C223.884 34.9166 222.578 35.8356 221.008 36.4648C220.895 36.5104 220.837 36.5334 220.789 36.5234C220.748 36.5148 220.71 36.4891 220.687 36.4541C220.66 36.4132 220.66 36.3503 220.66 36.2256V33.2881C220.66 33.1949 220.66 33.1479 220.673 33.1074C220.685 33.0704 220.703 33.0388 220.729 33.0098C220.757 32.9779 220.8 32.9531 220.884 32.9033C223.332 31.4644 224.791 28.9032 225.35 26.2314C225.377 26.1009 225.392 26.0352 225.424 25.9893C225.453 25.948 225.491 25.9176 225.537 25.8975C225.589 25.875 225.654 25.875 225.784 25.875H228.217ZM227.56 31.4229C228.421 33.8599 229.802 35.8875 231.524 37.5439C233.587 35.8253 235.185 33.8053 236.234 31.6689C236.273 31.5892 236.292 31.5492 236.287 31.5156C236.283 31.4865 236.267 31.4592 236.243 31.4424C236.215 31.423 236.169 31.4229 236.079 31.4229H227.56Z" fill="#1F1F1F"/>
<path d="M276.312 26.2156C276.37 26.1861 276.447 26.1867 276.6 26.1879L279.052 26.2074C279.203 26.2086 279.279 26.2092 279.336 26.2389C279.387 26.2651 279.428 26.3066 279.454 26.3574C279.483 26.4153 279.483 26.4907 279.483 26.6417L279.483 54.9837C279.483 57.3299 279.483 58.503 279.028 59.3474C278.571 60.1939 277.811 60.8359 276.9 61.1437C275.991 61.4508 274.834 61.2538 272.522 60.8598C272.399 60.8389 272.338 60.8285 272.291 60.7988C272.245 60.7688 272.208 60.7253 272.187 60.6741C272.166 60.6232 272.166 60.561 272.167 60.4367L272.186 58.0213C272.188 57.8465 272.188 57.7591 272.225 57.6969C272.256 57.6424 272.306 57.6005 272.365 57.5786C272.432 57.5537 272.519 57.5678 272.691 57.5962L274.171 57.8398C274.867 57.9542 275.215 58.0114 275.485 57.9103C275.723 57.8216 275.922 57.6524 276.048 57.4322C276.192 57.1813 276.191 56.8288 276.191 56.124L276.162 26.6226C276.162 26.4694 276.162 26.3928 276.192 26.3344C276.218 26.2831 276.26 26.2415 276.312 26.2156Z" fill="#1F1F1F"/>
<path d="M255.286 28.8086C254.931 29.5053 254.931 30.4174 254.931 32.2416V51.0735C254.931 51.2255 254.931 51.3015 254.96 51.3595C254.986 51.4106 255.028 51.4521 255.079 51.4782C255.137 51.5077 255.213 51.5077 255.365 51.5077H257.754C257.906 51.5077 257.982 51.5077 258.04 51.4782C258.091 51.4521 258.132 51.4106 258.158 51.3595C258.188 51.3015 258.188 51.2255 258.188 51.0735V31.1559C258.188 30.8518 258.188 30.6998 258.247 30.5837C258.299 30.4816 258.382 30.3985 258.484 30.3465C258.6 30.2873 258.753 30.2873 259.057 30.2873H264.648C264.952 30.2873 265.104 30.2873 265.22 30.3465C265.322 30.3985 265.405 30.4816 265.457 30.5837C265.517 30.6998 265.517 30.8518 265.517 31.1559V51.0735C265.517 51.2255 265.517 51.3015 265.546 51.3595C265.572 51.4106 265.614 51.4521 265.665 51.4782C265.723 51.5077 265.799 51.5077 265.951 51.5077H268.339C268.491 51.5077 268.567 51.5077 268.625 51.4782C268.677 51.4521 268.718 51.4106 268.744 51.3595C268.774 51.3015 268.774 51.2255 268.774 51.0735V32.2416C268.774 30.4174 268.774 29.5053 268.419 28.8086C268.106 28.1957 267.608 27.6974 266.995 27.3852C266.299 27.0302 265.386 27.0302 263.562 27.0302H260.142C258.318 27.0302 257.406 27.0302 256.709 27.3852C256.096 27.6974 255.598 28.1957 255.286 28.8086Z" fill="#1F1F1F"/>
<path d="M270.958 52.8504C271.016 52.88 271.092 52.88 271.244 52.88H273.632C273.784 52.88 273.86 52.88 273.918 52.8504C273.969 52.8244 274.011 52.7829 274.037 52.7318C274.067 52.6738 274.067 52.5978 274.067 52.4457V29.8834C274.067 29.7314 274.067 29.6554 274.037 29.5974C274.011 29.5463 273.969 29.5048 273.918 29.4787C273.86 29.4492 273.784 29.4492 273.632 29.4492H271.244C271.092 29.4492 271.016 29.4492 270.958 29.4787C270.907 29.5048 270.865 29.5463 270.839 29.5974C270.809 29.6554 270.809 29.7314 270.809 29.8834V52.4457C270.809 52.5978 270.809 52.6738 270.839 52.7318C270.865 52.7829 270.907 52.8244 270.958 52.8504Z" fill="#1F1F1F"/>
<path d="M260.76 33.2476C260.608 33.2476 260.532 33.2476 260.474 33.2772C260.423 33.3032 260.382 33.3447 260.356 33.3958C260.326 33.4538 260.326 33.5298 260.326 33.6819V47.5652C260.326 53.1294 257.903 56.5027 253.972 58.283C253.875 58.3271 253.826 58.3492 253.792 58.382C253.762 58.4114 253.74 58.4456 253.725 58.4856C253.709 58.5299 253.709 58.5817 253.709 58.6852V61.5169C253.709 61.6376 253.709 61.6979 253.735 61.7382C253.758 61.773 253.794 61.7986 253.834 61.8084C253.88 61.8197 253.937 61.8002 254.049 61.7612C257.642 60.5187 260.489 58.1904 262.106 54.7633C263.565 56.335 264.659 57.9824 265.442 59.3801C265.847 60.1038 266.164 60.754 266.403 61.2826C266.446 61.3781 266.467 61.4258 266.5 61.4598C266.529 61.4901 266.564 61.5126 266.604 61.5268C266.648 61.5427 266.699 61.5427 266.802 61.5427H269.654C269.777 61.5427 269.839 61.5427 269.879 61.5162C269.914 61.4933 269.94 61.4565 269.949 61.4157C269.96 61.3684 269.938 61.3114 269.896 61.1975C269.457 60.0199 268.896 58.883 268.284 57.7893C267.206 55.8631 265.568 53.457 263.235 51.2871C263.464 50.1336 263.583 48.8931 263.583 47.5652V33.6819C263.583 33.5298 263.583 33.4538 263.554 33.3958C263.528 33.3447 263.486 33.3032 263.435 33.2772C263.377 33.2476 263.301 33.2476 263.149 33.2476H260.76Z" fill="#1F1F1F"/>
<path d="M246.996 27.1384C246.996 27.0515 246.996 27.008 247.014 26.9806C247.03 26.9567 247.055 26.9401 247.083 26.9344C247.115 26.928 247.155 26.9446 247.236 26.9778L253.513 29.5736C253.61 29.6137 253.658 29.6337 253.694 29.6666C253.725 29.6957 253.75 29.7318 253.764 29.772C253.781 29.8175 253.781 29.87 253.781 29.9749V33.2431C253.781 33.33 253.781 33.3734 253.763 33.4008C253.747 33.4247 253.722 33.4413 253.694 33.447C253.662 33.4534 253.621 33.4368 253.541 33.4036L247.264 30.8079C247.167 30.7678 247.118 30.7477 247.083 30.7148C247.051 30.6857 247.027 30.6496 247.012 30.6094C246.996 30.5639 246.996 30.5115 246.996 30.4065V27.1384Z" fill="#1F1F1F"/>
<path d="M245.91 36.3666C245.91 36.2797 245.91 36.2363 245.928 36.2089C245.944 36.1849 245.969 36.1683 245.997 36.1627C246.029 36.1563 246.07 36.1729 246.15 36.2061L252.97 39.0264C253.067 39.0665 253.116 39.0865 253.151 39.1194C253.183 39.1485 253.207 39.1846 253.222 39.2248C253.239 39.2703 253.239 39.3228 253.239 39.4277V42.6959C253.239 42.7828 253.239 42.8262 253.22 42.8536C253.204 42.8776 253.18 42.8942 253.151 42.8998C253.119 42.9062 253.079 42.8896 252.999 42.8564L246.178 40.0361C246.081 39.996 246.033 39.976 245.997 39.9431C245.966 39.914 245.941 39.8779 245.927 39.8377C245.91 39.7922 245.91 39.7397 245.91 39.6348L245.91 36.3666Z" fill="#1F1F1F"/>
<path d="M245.404 61.184C245.431 61.203 245.477 61.203 245.567 61.203H248.875C248.978 61.203 249.03 61.203 249.075 61.1865C249.115 61.172 249.151 61.148 249.18 61.1171C249.213 61.0821 249.233 61.0347 249.273 60.9399C251.351 56.0574 252.472 51.5848 253.296 46.7485C253.308 46.6788 253.314 46.644 253.304 46.6168C253.295 46.593 253.278 46.5729 253.256 46.5602C253.231 46.5458 253.196 46.5458 253.125 46.5458H250.115C249.986 46.5458 249.921 46.5458 249.868 46.5692C249.822 46.5898 249.782 46.6229 249.754 46.6651C249.721 46.7127 249.71 46.777 249.687 46.9054C248.828 51.7114 247.639 56.0852 245.409 60.9553C245.371 61.0383 245.352 61.0798 245.358 61.1129C245.363 61.1418 245.379 61.1674 245.404 61.184Z" fill="#1F1F1F"/>
<path d="M288.64 35.9854C289.856 35.9854 290.464 35.985 290.929 36.2217C291.337 36.4299 291.67 36.7624 291.878 37.1709C292.114 37.6353 292.114 38.2434 292.114 39.459V47.3838C292.115 49.8559 291.944 51.883 291.391 53.6777L291.631 53.8848C294.584 56.4288 296.5 57.1406 300.398 57.1406H317.604C317.755 57.1406 317.832 57.1404 317.89 57.1699C317.941 57.1959 317.982 57.238 318.008 57.2891C318.037 57.3471 318.037 57.4232 318.037 57.5752V60.2354C318.037 60.3872 318.037 60.4635 318.008 60.5215C317.982 60.5723 317.94 60.6137 317.89 60.6396C317.832 60.6692 317.755 60.6689 317.604 60.6689H300.398C295.22 60.6689 292.959 59.6928 289.852 56.8184C288.838 58.2559 287.398 59.613 285.368 61.043C285.155 61.1931 285.048 61.2683 284.956 61.2646C284.877 61.2613 284.8 61.2212 284.752 61.1582C284.696 61.085 284.695 60.9535 284.695 60.6904V57.0176C284.695 56.8526 284.696 56.7701 284.717 56.6973C284.736 56.6302 284.764 56.5742 284.806 56.5186C284.851 56.4582 284.922 56.4051 285.063 56.2988C288.278 53.8706 288.586 51.0396 288.586 47.1367V39.9482C288.586 39.7963 288.585 39.7202 288.556 39.6621C288.53 39.611 288.489 39.569 288.438 39.543C288.379 39.5134 288.303 39.5137 288.151 39.5137H284.604C284.452 39.5137 284.375 39.5138 284.317 39.4844C284.266 39.4584 284.224 39.4163 284.198 39.3652C284.169 39.3072 284.169 39.2308 284.169 39.0791V36.4189C284.169 36.2677 284.169 36.1917 284.198 36.1338C284.224 36.0827 284.266 36.0407 284.317 36.0146C284.375 35.9852 284.452 35.9854 284.604 35.9854H288.64ZM307.087 26.2344C307.239 26.2344 307.315 26.2341 307.373 26.2637C307.424 26.2897 307.465 26.3317 307.491 26.3828C307.521 26.4409 307.521 26.517 307.521 26.6689V28.6768H316.044C316.196 28.6768 316.272 28.6774 316.33 28.707C316.381 28.733 316.422 28.7743 316.448 28.8252C316.478 28.8832 316.479 28.9594 316.479 29.1113V31.7715C316.479 31.9235 316.478 31.9996 316.448 32.0576C316.422 32.1085 316.381 32.1498 316.33 32.1758C316.272 32.2054 316.196 32.2061 316.044 32.2061H307.521V34.3682H311.776C313.296 34.3682 314.056 34.3683 314.637 34.6641C315.147 34.9243 315.563 35.3399 315.823 35.8506C316.119 36.4311 316.119 37.1912 316.119 38.7109V41.3955C316.119 42.9157 316.119 43.6762 315.823 44.2568C315.563 44.7674 315.147 45.1822 314.637 45.4424C314.144 45.6937 313.521 45.7287 312.413 45.7344C312.455 45.8592 312.5 45.9864 312.55 46.1152C313.11 47.5781 314.171 49.3459 316.239 50.8096C316.31 50.8599 316.346 50.8853 316.37 50.916C316.392 50.9438 316.408 50.9739 316.418 51.0078C316.429 51.0452 316.429 51.0873 316.429 51.1709V54.4912C316.429 54.6318 316.429 54.7026 316.398 54.7451C316.372 54.7817 316.33 54.8062 316.285 54.8115C316.233 54.8177 316.172 54.7846 316.051 54.7178C312.475 52.7514 310.62 49.9545 309.687 47.5186C309.445 46.8876 309.268 46.2867 309.137 45.7383H307.521V54.8428C307.521 54.9948 307.521 55.0708 307.491 55.1289C307.465 55.18 307.424 55.222 307.373 55.248C307.315 55.2776 307.239 55.2773 307.087 55.2773H304.427C304.275 55.2773 304.199 55.2776 304.141 55.248C304.09 55.222 304.048 55.18 304.022 55.1289C303.993 55.0708 303.992 54.9948 303.992 54.8428V45.7383H302.377C302.246 46.2867 302.069 46.8876 301.827 47.5186C300.893 49.9545 299.038 52.7514 295.463 54.7178C295.341 54.7846 295.28 54.8178 295.229 54.8115C295.184 54.8062 295.142 54.7817 295.115 54.7451C295.085 54.7026 295.085 54.6318 295.085 54.4912V51.1709C295.085 51.0873 295.085 51.0452 295.096 51.0078C295.106 50.9739 295.122 50.9438 295.144 50.916C295.168 50.8853 295.203 50.8599 295.274 50.8096C297.343 49.3459 298.403 47.5781 298.964 46.1152C299.013 45.9864 299.058 45.8592 299.101 45.7344C297.991 45.7287 297.368 45.6937 296.875 45.4424C296.364 45.1822 295.949 44.7674 295.688 44.2568C295.393 43.6762 295.393 42.9157 295.393 41.3955V38.7109C295.393 37.1911 295.393 36.4311 295.688 35.8506C295.949 35.3399 296.364 34.9243 296.875 34.6641C297.456 34.3684 298.216 34.3682 299.735 34.3682H303.992V32.2061H295.47C295.318 32.2061 295.242 32.2054 295.184 32.1758C295.133 32.1498 295.091 32.1085 295.065 32.0576C295.036 31.9996 295.035 31.9235 295.035 31.7715V29.1113C295.035 28.9594 295.036 28.8832 295.065 28.8252C295.091 28.7743 295.133 28.733 295.184 28.707C295.242 28.6774 295.318 28.6768 295.47 28.6768H303.992V26.6689C303.992 26.517 303.993 26.4409 304.022 26.3828C304.048 26.3317 304.09 26.2897 304.141 26.2637C304.199 26.2341 304.275 26.2344 304.427 26.2344H307.087ZM299.355 37.8965C299.203 37.8965 299.127 37.8972 299.069 37.9268C299.018 37.9528 298.977 37.994 298.951 38.0449C298.922 38.103 298.921 38.1791 298.921 38.3311V41.7754C298.921 41.9274 298.922 42.0035 298.951 42.0615C298.977 42.1126 299.018 42.1547 299.069 42.1807C299.127 42.2102 299.204 42.21 299.355 42.21H303.992V37.8965H299.355ZM307.521 42.21H312.156C312.308 42.21 312.384 42.2102 312.442 42.1807C312.493 42.1546 312.535 42.1126 312.561 42.0615C312.59 42.0035 312.59 41.9274 312.59 41.7754V38.3311C312.59 38.1791 312.59 38.103 312.561 38.0449C312.535 37.994 312.493 37.9528 312.442 37.9268C312.384 37.8972 312.308 37.8965 312.156 37.8965H307.521V42.21ZM285.524 26.5723C285.608 26.5595 285.712 26.6097 285.919 26.7109L291.836 29.6064C291.924 29.6497 291.969 29.6715 292.001 29.7041C292.029 29.7328 292.051 29.7675 292.064 29.8057C292.08 29.849 292.08 29.8988 292.08 29.9971V33.1289C292.08 33.3592 292.08 33.475 292.031 33.5449C291.989 33.6059 291.923 33.6469 291.85 33.6582C291.765 33.6711 291.661 33.621 291.454 33.5195L285.537 30.624C285.449 30.5808 285.404 30.5589 285.372 30.5264C285.344 30.4977 285.322 30.4629 285.309 30.4248C285.294 30.3815 285.294 30.3317 285.294 30.2334V27.1016C285.294 26.871 285.294 26.7554 285.343 26.6855C285.385 26.6245 285.451 26.5836 285.524 26.5723Z" fill="#1F1F1F"/>
</svg>
