<svg width="48" height="48" viewBox="0 0 48 48" fill="none" xmlns="http://www.w3.org/2000/svg">
<path fill-rule="evenodd" clip-rule="evenodd" d="M18.6408 6.92014C17.9329 8.44872 17.5832 10.111 17.5829 11.9037L17.5823 16.0642L6.13656 23.7057C5.3879 24.1656 4.92643 24.9229 4.92285 25.8471L4.92383 29.9881C4.9252 30.7667 5.27035 31.4572 5.8602 31.9501L5.99054 32.0493L6.15613 32.1552C6.77286 32.519 7.49088 32.6113 8.18078 32.41L17.583 29.3825L17.5837 34.3047L15.7029 35.9494L15.6405 35.9743C15.4758 36.0501 15.3315 36.1521 15.1851 36.2739L15.1087 36.3402L14.9784 36.4658C14.5006 36.9436 14.2201 37.5788 14.2261 38.271L14.2421 41.3813C14.2459 42.1564 14.5816 42.8415 15.1621 43.3156L15.3238 43.4385C15.8719 43.823 16.5045 43.9558 17.1408 43.8632L23.9994 42.884L30.8687 43.8652C31.5847 43.9688 32.2994 43.7572 32.8582 43.3012L32.9931 43.1794L33.0261 43.1464C33.5008 42.6717 33.7796 42.0422 33.7795 41.3571L33.7786 38.2559L33.7723 38.0699C33.7128 37.211 33.2344 36.4838 32.5019 36.0642L30.4187 34.3054L30.418 29.3846L39.8237 32.4122L40.0039 32.4582C40.6053 32.5908 41.2117 32.5141 41.7633 32.1993L41.7824 32.1862L41.8211 32.1679C41.9251 32.1108 42.0216 32.0455 42.1117 31.9736L42.1953 31.9034L42.3256 31.7795C42.7238 31.3814 42.9705 30.8957 43.0459 30.3489L43.5616 26.7404L43.582 26.5485C43.6446 25.6588 43.2597 24.8529 42.5514 24.3389L30.4173 16.1073L30.4169 11.9029C30.4176 9.97485 30.0121 8.19577 29.19 6.57034C28.2402 4.69432 25.9017 3.5565 24.1674 3.39453L23.8322 3.39458C22.0984 3.55701 19.7592 4.69509 18.8105 6.5697L18.6408 6.92014ZM24.0527 7.04077C24.6683 7.04077 25.632 7.51219 25.9781 8.19582C26.5392 9.30516 26.8176 10.5268 26.8171 11.9026L26.8185 18.1005L39.8989 26.9182L39.6571 28.6139L26.8178 24.5876L26.8192 36.3959L30.1783 38.8832L30.179 40.1298L24.0033 39.2481L17.8351 40.1277L17.8287 38.8811L21.1852 36.3947L21.1838 24.5869L8.52317 28.5615L8.52246 26.465L21.184 18.0777L21.1832 11.9037C21.1834 10.5262 21.462 9.30367 22.0229 8.19518C22.3684 7.51233 23.349 7.04082 23.9481 7.04082L24.0527 7.04077Z" fill="black" fill-opacity="0.88"/>
</svg>
