<svg width="48" height="48" viewBox="0 0 48 48" fill="none" xmlns="http://www.w3.org/2000/svg">
<path d="M38 4C39.6569 4 41 5.34315 41 7V41.0527C41 42.7096 39.6569 44.0527 38 44.0527C37.5171 44.0527 37.0415 43.9361 36.6133 43.7129L30.1865 41.4053L24.042 44L18 41.4053L11.3643 43.7725C9.8886 44.5258 8.08148 43.9395 7.32812 42.4639C7.11256 42.0415 7 41.5738 7 41.0996V7C7 5.34315 8.34315 4 10 4H38ZM11 39.4658L17.7402 37.0469L24.0518 39.7402L30.4746 37.0449L37 39.4043V8H11V39.4658ZM27.4844 13.0156C27.7409 12.5718 28.2867 12.3991 28.7461 12.5977L28.8496 12.6504L30.2354 13.4502C30.6795 13.7066 30.8529 14.2523 30.6543 14.7119L30.6016 14.8164L28.6777 18.1465L30 18.1475C30.5523 18.1475 31 18.5952 31 19.1475V20.7471C31 21.2994 30.5523 21.7471 30 21.7471H25.7998V24.1465L30 24.1475C30.5523 24.1475 31 24.5952 31 25.1475V26.7471C31 27.2994 30.5523 27.7471 30 27.7471H25.7998V32C25.7998 32.5523 25.3521 33 24.7998 33H23.2002C22.6479 33 22.2002 32.5523 22.2002 32V27.7471H18C17.4477 27.7471 17 27.2994 17 26.7471V25.1475C17 24.5952 17.4477 24.1475 18 24.1475L22.2002 24.1465V21.7471H18C17.4477 21.7471 17 21.2994 17 20.7471V19.1475C17 18.5952 17.4477 18.1475 18 18.1475L19.1143 18.1465L17.1914 14.8164C16.9153 14.3381 17.0793 13.7263 17.5576 13.4502L18.9424 12.6504C19.4205 12.3743 20.0323 12.5376 20.3086 13.0156L23.2695 18.1465H24.5225L27.4844 13.0156Z" fill="black" fill-opacity="0.88"/>
</svg>
