<svg width="48" height="48" viewBox="0 0 48 48" fill="none" xmlns="http://www.w3.org/2000/svg">
<path fill-rule="evenodd" clip-rule="evenodd" d="M24.5089 4.30118L42.851 15.1396C43.3264 15.4206 43.4841 16.0338 43.2032 16.5093C43.0232 16.8138 42.6959 17.0006 42.3422 17.0006L39.0002 17.0001V39.0001L41.5127 39.0006C41.782 39.0006 42.0002 39.2692 42.0002 39.6006V42.4006C42.0002 42.7319 41.782 43.0006 41.5127 43.0006H6.48771C6.21847 43.0006 6.00021 42.7319 6.00021 42.4006V39.6006C6.00021 39.2692 6.21847 39.0006 6.48771 39.0006L9.0002 39.0001V17.0001L5.6582 17.0006C5.10592 17.0006 4.6582 16.5529 4.6582 16.0006C4.6582 15.6469 4.845 15.3196 5.14947 15.1396L23.4915 4.30118C23.8053 4.11575 24.1951 4.11575 24.5089 4.30118ZM35 17.0006H13V39.0006H35V17.0006ZM25.4 20.0006C25.7314 20.0006 26 20.2692 26 20.6006V35.4006C26 35.732 25.7314 36.0006 25.4 36.0006H22.6C22.2686 36.0006 22 35.732 22 35.4006V20.6006C22 20.2692 22.2686 20.0006 22.6 20.0006H25.4ZM24.0003 8.64658L16.6313 13.0006H31.3683L24.0003 8.64658Z" fill="black" fill-opacity="0.88"/>
</svg>
