<svg width="48" height="48" viewBox="0 0 48 48" fill="none" xmlns="http://www.w3.org/2000/svg">
<path fill-rule="evenodd" clip-rule="evenodd" d="M30.7574 4C31.553 4 32.3161 4.31607 32.8787 4.87868L39.1213 11.1213C39.6839 11.6839 40 12.447 40 13.2426V41C40 42.6569 38.6569 44 37 44H11C9.34315 44 8 42.6569 8 41V7C8 5.34315 9.34315 4 11 4H30.7574ZM26.799 8H12V40H36V17.199L28.6 17.2C27.6059 17.2 26.8 16.3941 26.8 15.4L26.799 8ZM31 32C31.5523 32 32 32.4477 32 33V35C32 35.5523 31.5523 36 31 36H17C16.4477 36 16 35.5523 16 35V33C16 32.4477 16.4477 32 17 32H31ZM30.399 8.056V13.599H35.942L30.399 8.056Z" fill="black" fill-opacity="0.88"/>
</svg>
