<svg width="48" height="48" viewBox="0 0 48 48" fill="none" xmlns="http://www.w3.org/2000/svg">
<path fill-rule="evenodd" clip-rule="evenodd" d="M40.9994 8C42.6562 8.00007 43.9994 9.34319 43.9994 11V37C43.9994 38.6568 42.6562 39.9999 40.9994 40H13.6605C12.6274 40 11.6671 39.4682 11.1185 38.5928L2.99548 25.627C2.38648 24.6549 2.38477 23.4207 2.99157 22.4473L11.1185 9.41309C11.6664 8.53446 12.629 8.00005 13.6644 8H40.9994ZM6.71716 24.0332L14.2133 36H39.9994V12H14.2191L6.71716 24.0332ZM30.4945 17.2588C30.8392 16.9141 31.3978 16.9141 31.7425 17.2588L32.7416 18.2568C33.0863 18.6016 33.0863 19.1611 32.7416 19.5059L28.2465 23.999L32.7416 28.4941C33.0863 28.8389 33.0863 29.3984 32.7416 29.7432L31.7425 30.7412C31.3978 31.0859 30.8392 31.0859 30.4945 30.7412L25.9994 26.2471L21.5052 30.7412C21.1605 31.0859 20.6019 31.0859 20.2572 30.7412L19.2582 29.7432C18.9134 29.3984 18.9135 28.8389 19.2582 28.4941L23.7513 23.999L19.2582 19.5059C18.9135 19.1611 18.9134 18.6016 19.2582 18.2568L20.2572 17.2588C20.6019 16.9141 21.1605 16.9141 21.5052 17.2588L25.9994 21.752L30.4945 17.2588Z" fill="black" fill-opacity="0.88"/>
</svg>
