<svg width="48" height="48" viewBox="0 0 48 48" fill="none" xmlns="http://www.w3.org/2000/svg">
<path d="M29.0283 6C30.1503 6.00008 31.1784 6.62625 31.6934 7.62305L33.9541 12H41C42.6569 12 44 13.3431 44 15V39C44 40.6569 42.6569 42 41 42H7C5.34315 42 4 40.6569 4 39V15C4 13.3431 5.34315 12 7 12H14.0459L16.3066 7.62305C16.8216 6.62625 17.8497 6.00008 18.9717 6H29.0283ZM16.4824 16H8V38H40V16H31.5176L28.4189 10H19.5801L16.4824 16ZM24 18C28.4183 18 32 21.5817 32 26C32 30.4183 28.4183 34 24 34C19.5817 34 16 30.4183 16 26C16 21.5817 19.5817 18 24 18ZM24 22C21.7909 22 20 23.7909 20 26C20 28.2091 21.7909 30 24 30C26.2091 30 28 28.2091 28 26C28 23.7909 26.2091 22 24 22ZM36 18C37.1046 18 38 18.8954 38 20C38 21.1046 37.1046 22 36 22C34.8954 22 34 21.1046 34 20C34 18.8954 34.8954 18 36 18Z" fill="black" fill-opacity="0.88"/>
</svg>
