<svg width="48" height="48" viewBox="0 0 48 48" fill="none" xmlns="http://www.w3.org/2000/svg">
<path fill-rule="evenodd" clip-rule="evenodd" d="M24 4C35.0457 4 44 12.9543 44 24C44 35.0457 35.0457 44 24 44C12.9543 44 4 35.0457 4 24C4 12.9543 12.9543 4 24 4ZM24 8C15.1634 8 8 15.1634 8 24C8 32.8366 15.1634 40 24 40C32.8366 40 40 32.8366 40 24C40 15.1634 32.8366 8 24 8ZM19.051 16.3054L24.1415 21.3955L29.2333 16.3054C29.6238 15.9149 30.257 15.9149 30.6475 16.3054L31.7789 17.4368C32.1694 17.8273 32.1694 18.4604 31.7789 18.851L26.6875 23.9415L31.7789 29.0333C32.1694 29.4238 32.1694 30.057 31.7789 30.4475L30.6475 31.5789C30.257 31.9694 29.6238 31.9694 29.2333 31.5789L24.1415 26.4875L19.051 31.5789C18.6604 31.9694 18.0273 31.9694 17.6368 31.5789L16.5054 30.4475C16.1149 30.057 16.1149 29.4238 16.5054 29.0333L21.5955 23.9415L16.5054 18.851C16.1149 18.4604 16.1149 17.8273 16.5054 17.4368L17.6368 16.3054C18.0273 15.9149 18.6604 15.9149 19.051 16.3054Z" fill="black" fill-opacity="0.88"/>
</svg>
