<svg width="48" height="48" viewBox="0 0 48 48" fill="none" xmlns="http://www.w3.org/2000/svg">
<path fill-rule="evenodd" clip-rule="evenodd" d="M12 10C12.5523 10 13 10.4477 13 11V40.1212H35V11C35 10.4477 35.4477 10 36 10H38C38.5523 10 39 10.4477 39 11V41C39 42.5977 37.7511 43.9037 36.1763 43.9949L36 44H12C10.4023 44 9.09634 42.7511 9.00509 41.1763L9 41V11C9 10.4477 9.44772 10 10 10H12ZM28.6383 14.1895L28.7457 14.2288L28.8501 14.2813L30.2357 15.0813C30.6798 15.3377 30.8529 15.8833 30.6542 16.3429L30.6017 16.4473L28.678 19.7781L30 19.7784C30.5523 19.7784 31 20.2261 31 20.7784V22.3784C31 22.9307 30.5523 23.3784 30 23.3784L25.8 23.3781V25.7781L30 25.7784C30.5523 25.7784 31 26.2261 31 26.7784V28.3784C31 28.9307 30.5523 29.3784 30 29.3784L25.8 29.3781V33.6313C25.8 34.1835 25.3523 34.6313 24.8 34.6313H23.2C22.6477 34.6313 22.2 34.1835 22.2 33.6313V29.3781L18 29.3784C17.4477 29.3784 17 28.9307 17 28.3784V26.7784C17 26.2261 17.4477 25.7784 18 25.7784L22.2 25.7781V23.3781L18 23.3784C17.4477 23.3784 17 22.9307 17 22.3784V20.7784C17 20.2261 17.4477 19.7784 18 19.7784L19.114 19.7781L17.1912 16.4473C16.915 15.969 17.0789 15.3574 17.5572 15.0813L18.9428 14.2813C19.0795 14.2024 19.227 14.1594 19.3745 14.1494L19.4849 14.148C19.8152 14.1623 20.1313 14.3398 20.3088 14.6473L23.27 19.7781H24.522L27.484 14.6473C27.6562 14.3491 27.9587 14.1732 28.278 14.1498L28.3983 14.1482C28.4787 14.1521 28.5593 14.1656 28.6383 14.1895ZM41 4C41.5523 4 42 4.44772 42 5V7C42 7.55228 41.5523 8 41 8H7C6.44772 8 6 7.55228 6 7V5C6 4.44772 6.44772 4 7 4H41Z" fill="black" fill-opacity="0.88"/>
</svg>
