<svg width="48" height="48" viewBox="0 0 48 48" fill="none" xmlns="http://www.w3.org/2000/svg">
<path fill-rule="evenodd" clip-rule="evenodd" d="M11.9792 9.15032L23.9998 21.1704L36.0208 9.15032C36.4113 8.75979 37.0445 8.75979 37.435 9.15032L38.8492 10.5645C39.2398 10.9551 39.2398 11.5882 38.8492 11.9787L26.8288 23.9994L38.8492 36.0204C39.2398 36.4109 39.2398 37.0441 38.8492 37.4346L37.435 38.8488C37.0445 39.2393 36.4113 39.2393 36.0208 38.8488L23.9998 26.8284L11.9792 38.8488C11.5886 39.2393 10.9555 39.2393 10.565 38.8488L9.15074 37.4346C8.76022 37.0441 8.76022 36.4109 9.15074 36.0204L21.1708 23.9994L9.15074 11.9787C8.76022 11.5882 8.76022 10.9551 9.15074 10.5645L10.565 9.15032C10.9555 8.75979 11.5886 8.75979 11.9792 9.15032Z" fill="black" fill-opacity="0.88"/>
</svg>
