<svg width="48" height="48" viewBox="0 0 48 48" fill="none" xmlns="http://www.w3.org/2000/svg">
<path fill-rule="evenodd" clip-rule="evenodd" d="M35.7277 5.20095L42.7988 12.272C43.9703 13.4436 43.9703 15.3431 42.7988 16.5147L18.9287 40.3847C18.3661 40.9473 17.603 41.2634 16.8074 41.2634H8.73633C7.63176 41.2634 6.73633 40.368 6.73633 39.2634V31.1923C6.73633 30.3967 7.0524 29.6336 7.61501 29.071L31.4851 5.20095C32.6566 4.02937 34.5561 4.02937 35.7277 5.20095ZM33.6058 8.73594L10.7358 31.6059V37.2629H16.3928L33.6053 20.0493L27.9495 14.3933L30.778 11.5649L36.4348 17.2218L39.2628 14.3929L33.6058 8.73594Z" fill="black" fill-opacity="0.88"/>
</svg>
