<svg width="48" height="48" viewBox="0 0 48 48" fill="none" xmlns="http://www.w3.org/2000/svg">
<path fill-rule="evenodd" clip-rule="evenodd" d="M31 4C32.6569 4 34 5.34315 34 7V11H43C43.5523 11 44 11.4477 44 12V14C44 14.5523 43.5523 15 43 15H39V41C39 42.6569 37.6569 44 36 44H12C10.3431 44 9 42.6569 9 41V15H5C4.44772 15 4 14.5523 4 14V12C4 11.4477 4.44772 11 5 11H14V7C14 5.34315 15.3431 4 17 4H31ZM35 15H13V40H35V15ZM29.4 19C29.7314 19 30 19.2686 30 19.6V34.4C30 34.7314 29.7314 35 29.4 35H26.6C26.2686 35 26 34.7314 26 34.4V19.6C26 19.2686 26.2686 19 26.6 19H29.4ZM21.4 19C21.7314 19 22 19.2686 22 19.6V34.4C22 34.7314 21.7314 35 21.4 35H18.6C18.2686 35 18 34.7314 18 34.4V19.6C18 19.2686 18.2686 19 18.6 19H21.4ZM30 8H18V11H30V8Z" fill="black" fill-opacity="0.88"/>
</svg>
