<svg width="48" height="48" viewBox="0 0 48 48" fill="none" xmlns="http://www.w3.org/2000/svg">
<path fill-rule="evenodd" clip-rule="evenodd" d="M41 8C42.6569 8 44 9.34315 44 11V18.8592C44 19.4129 43.6508 19.9009 43.138 20.0848L43.0168 20.1217C41.2831 20.5599 40 22.1301 40 24C40 25.7979 41.1862 27.3187 42.8186 27.8227L43.0089 27.8763C43.5919 28.0249 44 28.55 44 29.1517V37C44 38.6569 42.6569 40 41 40H7C5.34315 40 4 38.6569 4 37V29.1906C4.00001 28.614 4.36101 28.1047 4.89344 27.9086L5.01927 27.869C6.73471 27.4183 8 25.8569 8 24C8 22.2073 6.82072 20.6901 5.1956 20.1817L5.00615 20.1276C4.41372 19.9741 3.99998 19.4395 4 18.8275V11C4 9.34315 5.34315 8 7 8H41ZM40 12H8V17.071L8.10463 17.1318C10.3713 18.4894 11.9101 20.9373 11.9962 23.7508L12 24C12 26.9177 10.438 29.4706 8.10463 30.8682L8 30.928V36H40V30.929L39.8954 30.8682C37.6287 29.5106 36.0899 27.0627 36.0038 24.2492L36 24C36 21.0823 37.562 18.5294 39.8954 17.1318L40 17.07V12Z" fill="black" fill-opacity="0.88"/>
</svg>
