<svg width="48" height="48" viewBox="0 0 48 48" fill="none" xmlns="http://www.w3.org/2000/svg">
<path d="M25.0869 4C27.0169 4 27.982 4.00034 28.8916 4.21582C29.6981 4.40691 30.47 4.72226 31.1797 5.15039C31.9801 5.63329 32.6696 6.30889 34.0479 7.66016L37.1611 10.7119C38.5772 12.1002 39.2853 12.7944 39.792 13.6084C40.2412 14.3301 40.5725 15.1193 40.7734 15.9453C41 16.877 41 17.8686 41 19.8516V34.4004C41 37.7603 40.9996 39.4402 40.3457 40.7236C39.7705 41.8526 38.8526 42.7705 37.7236 43.3457C36.4402 43.9996 34.7603 44 31.4004 44H16.5996C13.2397 44 11.5598 43.9996 10.2764 43.3457C9.14739 42.7705 8.22954 41.8526 7.6543 40.7236C7.00042 39.4402 7 37.7603 7 34.4004V13.5996C7 10.2397 7.00042 8.55977 7.6543 7.27637C8.22954 6.14739 9.14739 5.22954 10.2764 4.6543C11.5598 4.00042 13.2397 4 16.5996 4H25.0869ZM16.5996 7C14.8702 7 13.7533 7.00282 12.9033 7.07227C12.0885 7.13886 11.786 7.25158 11.6377 7.32715C11.0735 7.61472 10.6147 8.07347 10.3271 8.6377C10.2516 8.78601 10.1389 9.0885 10.0723 9.90332C10.0028 10.7533 10 11.8702 10 13.5996V34.4004C10 36.1298 10.0028 37.2467 10.0723 38.0967C10.1389 38.9115 10.2516 39.214 10.3271 39.3623C10.6147 39.9265 11.0735 40.3853 11.6377 40.6729C11.786 40.7484 12.0885 40.8611 12.9033 40.9277C13.7533 40.9972 14.8702 41 16.5996 41H31.4004C33.1298 41 34.2467 40.9972 35.0967 40.9277C35.9115 40.8611 36.214 40.7484 36.3623 40.6729C36.9265 40.3853 37.3853 39.9265 37.6729 39.3623C37.7484 39.214 37.8611 38.9115 37.9277 38.0967C37.9972 37.2467 38 36.1298 38 34.4004V19.8516C38 17.7238 37.9802 17.1553 37.8584 16.6543C37.7329 16.1382 37.5257 15.6453 37.2451 15.1943C36.9727 14.7566 36.5801 14.3443 35.0605 12.8545L31.9473 9.80176C30.4688 8.3523 30.0603 7.97845 29.6299 7.71875C29.1864 7.45125 28.7041 7.25417 28.2002 7.13477C27.711 7.01885 27.1578 7 25.0869 7H16.5996ZM20.5 24C24.0899 24 27 26.9101 27 30.5C27 31.0279 26.5719 31.4561 26.0439 31.4561H16.9941C17.4127 33.011 18.8236 34.1797 20.5 34.1797C22.5551 34.3231 23.8203 33.6133 24.3096 33.3301C24.8491 32.9851 25.566 32.842 26.0439 33.5107C26.4399 34.0651 26.0433 34.8492 25.5664 35.3271C24.8017 36.1874 23.1311 36.8434 22.0771 36.9521C21.3602 37.0261 20.5477 36.9998 20.4863 37C16.8965 37 14 34.0898 14 30.5C14 26.9101 16.9101 24 20.5 24ZM20.5 26.8672C19.0403 26.8672 17.7824 27.7289 17.2051 28.9707H23.7949C23.2176 27.7289 21.9597 26.8672 20.5 26.8672Z" fill="black" fill-opacity="0.88"/>
</svg>
