<svg width="48" height="48" viewBox="0 0 48 48" fill="none" xmlns="http://www.w3.org/2000/svg">
<path d="M22.8432 26.0214C22.9228 25.4467 23.4168 25.0185 24.0002 25.0185C24.5837 25.0185 25.0777 25.4467 25.1572 26.0214L26.2038 33.5815C26.2597 33.9846 26.1504 34.3932 25.9005 34.7156L24.605 36.3865C24.2994 36.7809 23.7011 36.7809 23.3955 36.3866L22.1 34.7156C21.8501 34.3932 21.7408 33.9846 21.7966 33.5814L22.8432 26.0214Z" fill="black" fill-opacity="0.88"/>
<path d="M36.2123 25.914L32.2218 23.1405C32.0522 23.0225 31.9673 22.9636 31.9331 22.8909C31.9022 22.8252 31.8959 22.757 31.9144 22.6867C31.9348 22.609 32.0106 22.5326 32.1621 22.3796C32.739 21.7971 33.2534 21.1531 33.6943 20.4584C34.8094 18.7014 35.4547 16.62 35.4547 14.3889C35.4547 8.09898 30.3264 3 24.0004 3C17.6743 3 12.5461 8.09898 12.5461 14.3889C12.5461 16.6199 13.1913 18.7011 14.3062 20.458C14.7471 21.1528 15.2614 21.7968 15.8384 22.3793C15.9898 22.5323 16.0656 22.6088 16.086 22.6864C16.1045 22.7567 16.0983 22.8249 16.0673 22.8906C16.0331 22.9633 15.9483 23.0222 15.7786 23.1402L11.7877 25.914C8.87502 27.9385 6.99318 31.1235 6.63281 34.6388L6.01605 40.655C5.83257 42.4448 7.24536 44 9.05478 44H38.9452C40.7546 44 42.1674 42.4448 41.9839 40.655L41.3672 34.6388C41.0068 31.1235 39.125 27.9385 36.2123 25.914ZM27.7897 22.2606C27.3085 22.698 27.359 23.4661 27.8934 23.8375L34.4623 28.4032C36.6468 29.9215 38.0582 32.3103 38.3285 34.9468L38.9452 40.963H9.05479L9.67154 34.9468C9.94182 32.3103 11.3532 29.9215 13.5377 28.4032L20.107 23.8373C20.6413 23.4659 20.6918 22.6978 20.2107 22.2604L18.3346 20.5548C16.6502 19.0236 15.6006 16.8303 15.6006 14.3889C15.6006 9.77629 19.3613 6.03704 24.0004 6.03704C28.6395 6.03704 32.4002 9.77629 32.4002 14.3889C32.4002 16.8304 31.3504 19.0238 29.6659 20.5551L27.7897 22.2606Z" fill="black" fill-opacity="0.88"/>
</svg>
