<svg width="48" height="48" viewBox="0 0 48 48" fill="none" xmlns="http://www.w3.org/2000/svg">
<path fill-rule="evenodd" clip-rule="evenodd" d="M37.989 4C38.7034 4 39.3943 4.25491 39.9375 4.71888C41.1489 5.75359 41.3331 7.54417 40.3889 8.80036L40.2701 8.94846L29.9969 20.974L29.997 43.4384C29.997 44.543 29.1015 45.4384 27.997 45.4384C27.8334 45.4384 27.6705 45.4184 27.5119 45.3787L19.5119 43.3787C18.6215 43.1561 17.997 42.3562 17.997 41.4384L17.9969 20.976L7.72376 8.94846C7.30619 8.45959 7.05796 7.85107 7.01248 7.21348L7.00488 7C7.00488 5.40232 8.2538 4.09634 9.82861 4.00509L10.0049 4H37.989ZM35.8179 8H12.1739L21.9969 19.5002L21.9969 39.877L25.9969 40.877L25.9969 19.4981L35.8179 8Z" fill="black" fill-opacity="0.88"/>
</svg>
