<svg width="48" height="48" viewBox="0 0 48 48" fill="none" xmlns="http://www.w3.org/2000/svg">
<path d="M24 4C35.0457 4 44 12.9543 44 24C44 35.0457 35.0457 44 24 44C23.5833 44 23.3401 43.8723 23.1982 43.6543C22.8248 43.6541 22.4445 43.5912 22.0732 43.4561C21.7071 43.3226 21.5181 42.917 21.6514 42.5508L24.4883 34.7568C24.6773 34.238 25.2516 33.9703 25.7705 34.1592L27.9629 34.958C28.3088 35.084 28.4872 35.4666 28.3613 35.8125L26.9346 39.7295C34.3694 38.3511 40 31.834 40 24C40 15.1634 32.8366 8 24 8C15.1634 8 8 15.1634 8 24C8 29.0999 10.4001 33.797 14.4023 36.8027C15.2855 37.466 14.6613 38.1198 13.998 39.0029C13.3348 39.8862 12.8832 40.6652 12 40.002C7.00206 36.2486 4 30.3717 4 24C4 12.9543 12.9543 4 24 4Z" fill="black" fill-opacity="0.88"/>
</svg>
