<svg width="48" height="48" viewBox="0 0 48 48" fill="none" xmlns="http://www.w3.org/2000/svg">
<path fill-rule="evenodd" clip-rule="evenodd" d="M39 34C39.5523 34 40 34.4477 40 35V37C40 37.5523 39.5523 38 39 38H9C8.44772 38 8 37.5523 8 37V35C8 34.4477 8.44772 34 9 34H39ZM39 22C39.5523 22 40 22.4477 40 23V25C40 25.5523 39.5523 26 39 26H9C8.44772 26 8 25.5523 8 25V23C8 22.4477 8.44772 22 9 22H39ZM39 10C39.5523 10 40 10.4477 40 11V13C40 13.5523 39.5523 14 39 14H9C8.44772 14 8 13.5523 8 13V11C8 10.4477 8.44772 10 9 10H39Z" fill="black" fill-opacity="0.88"/>
</svg>
