<svg width="48" height="48" viewBox="0 0 48 48" fill="none" xmlns="http://www.w3.org/2000/svg">
<path d="M41 8C42.6569 8 44 9.34315 44 11V37C44 38.6569 42.6569 40 41 40H7C5.34315 40 4 38.6569 4 37V11C4 9.34315 5.34315 8 7 8H41ZM10 12C8.89543 12 8 12.8954 8 14V34C8 35.1046 8.89543 36 10 36H38C39.1046 36 40 35.1046 40 34V14C40 12.8954 39.1046 12 38 12H10ZM30.5 24.5C33.3191 24.5 36.9572 25.2805 37 27.8584V30.5C37 31.0523 36.5523 31.5 36 31.5H25C24.4477 31.5 24 31.0523 24 30.5V27.8584C24.0428 25.2805 27.6668 24.5 30.5 24.5ZM17 27C17.5523 27 18 27.4477 18 28V30C18 30.5523 17.5523 31 17 31H12C11.4477 31 11 30.5523 11 30V28C11 27.4477 11.4477 27 12 27H17ZM30.5 16.5C32.16 16.5 33.5 17.84 33.5 19.5C33.5 21.16 32.16 22.5 30.5 22.5C28.84 22.5 27.5 21.16 27.5 19.5C27.5 17.84 28.84 16.5 30.5 16.5ZM22 17C22.5523 17 23 17.4477 23 18V20C23 20.5523 22.5523 21 22 21H12C11.4477 21 11 20.5523 11 20V18C11 17.4477 11.4477 17 12 17H22Z" fill="black" fill-opacity="0.88"/>
</svg>
