<svg width="48" height="48" viewBox="0 0 48 48" fill="none" xmlns="http://www.w3.org/2000/svg">
<path fill-rule="evenodd" clip-rule="evenodd" d="M24 4C35.0457 4 44 12.9543 44 24C44 35.0457 35.0457 44 24 44C12.9543 44 4 35.0457 4 24C4 12.9543 12.9543 4 24 4ZM24 8C15.1634 8 8 15.1634 8 24C8 32.8366 15.1634 40 24 40C32.8366 40 40 32.8366 40 24C40 15.1634 32.8366 8 24 8ZM25 19C25.5523 19 26 19.4477 26 20V34C26 34.5523 25.5523 35 25 35H23C22.4477 35 22 34.5523 22 34V20C22 19.4477 22.4477 19 23 19H25ZM25 13C25.5523 13 26 13.4477 26 14V16C26 16.5523 25.5523 17 25 17H23C22.4477 17 22 16.5523 22 16V14C22 13.4477 22.4477 13 23 13H25Z" fill="black" fill-opacity="0.88"/>
</svg>
