<svg width="48" height="48" viewBox="0 0 48 48" fill="none" xmlns="http://www.w3.org/2000/svg">
<path fill-rule="evenodd" clip-rule="evenodd" d="M30.5725 7.75579C30.8522 8.22204 31 8.75555 31 9.29928V38.7021C31 40.359 29.6569 41.7021 28 41.7021C27.4563 41.7021 26.9228 41.5544 26.4565 41.2746L14.333 33.9998L8 34.0007C6.34315 34.0007 5 32.6576 5 31.0007V17.0007C5 15.3439 6.34315 14.0007 8 14.0007L14.333 13.9998L26.4565 6.7268C27.8773 5.87436 29.72 6.33505 30.5725 7.75579ZM27 11.0647L15.4411 17.9997L9 18.0007V30.0007L15.4408 29.9997L27 36.9357V11.0647ZM35.7488 11.9549C35.8485 11.9549 35.9472 11.9748 36.0391 12.0135C40.7161 13.9821 43.9998 18.6079 43.9998 24.0007C43.9998 29.2842 40.8479 33.8315 36.3218 35.8649L36.0372 35.9887C35.6569 36.1487 35.2189 35.9701 35.0589 35.5898C35.0204 35.4981 35.0005 35.3996 35.0005 35.3002V32.6561C35.0005 32.297 35.193 31.9655 35.5049 31.7875C35.7131 31.6688 35.8795 31.5677 36.0043 31.4841C38.4548 29.8438 39.9998 27.0651 39.9998 24.0007C39.9998 20.9345 38.4529 18.1542 35.9998 16.5143L35.7833 16.3771C35.7009 16.3271 35.6082 16.2727 35.5052 16.2139C35.1933 16.036 35.0007 15.7045 35.0007 15.3454L35.0006 12.7033C35.0005 12.29 35.3355 11.9549 35.7488 11.9549Z" fill="black" fill-opacity="0.88"/>
</svg>
