<svg width="48" height="48" viewBox="0 0 48 48" fill="none" xmlns="http://www.w3.org/2000/svg">
<path fill-rule="evenodd" clip-rule="evenodd" d="M33.5228 6C34.4542 6 35.3327 6.43261 35.9006 7.17087L43.5581 17.1256C44.4038 18.2249 44.3855 19.7607 43.514 20.8397L26.3338 42.1105C25.2927 43.3994 23.4039 43.6004 22.1149 42.5593C21.9499 42.426 21.7994 42.2756 21.6661 42.1105L4.48588 20.8397C3.61437 19.7607 3.59616 18.2249 4.44183 17.1256L12.0993 7.17087C12.6672 6.43261 13.5458 6 14.4772 6H33.5228ZM33.0312 10H14.9682L8.09216 18.939L24.0002 38.634L39.9072 18.939L33.0312 10ZM31 18C31.5522 18 32 18.4477 32 19V21C32 21.5523 31.5522 22 31 22H17C16.4477 22 16 21.5523 16 21V19C16 18.4477 16.4477 18 17 18H31Z" fill="black" fill-opacity="0.88"/>
</svg>
