<svg width="48" height="48" viewBox="0 0 48 48" fill="none" xmlns="http://www.w3.org/2000/svg">
<path fill-rule="evenodd" clip-rule="evenodd" d="M24 4C33.3888 4 41 12.0359 41 21.9487C41 28.1476 36.014 35.8793 26.0419 45.1436C24.9387 46.1685 23.2566 46.2113 22.1052 45.2717L21.9581 45.1436L21.487 44.7036C11.829 35.6342 7 28.0492 7 21.9487C7 12.0359 14.6112 4 24 4ZM24 8C16.8703 8 11 14.1979 11 21.9487C11 26.497 15.0244 32.9674 23.3553 40.9622L24 41.575L24.1975 41.3887C32.6858 33.3335 36.8598 26.8019 36.9965 22.1819L37 21.9487C37 14.1979 31.1297 8 24 8ZM24 13C27.866 13 31 16.134 31 20C31 23.866 27.866 27 24 27C20.134 27 17 23.866 17 20C17 16.134 20.134 13 24 13ZM24 16.6C22.1222 16.6 20.6 18.1222 20.6 20C20.6 21.8778 22.1222 23.4 24 23.4C25.8778 23.4 27.4 21.8778 27.4 20C27.4 18.1222 25.8778 16.6 24 16.6Z" fill="black" fill-opacity="0.88"/>
</svg>
