<svg width="48" height="48" viewBox="0 0 48 48" fill="none" xmlns="http://www.w3.org/2000/svg">
<path fill-rule="evenodd" clip-rule="evenodd" d="M42.4482 31.2929L43.8624 32.7071C44.2529 33.0976 44.2529 33.7308 43.8624 34.1213L34.67 43.3137C34.3 43.6837 33.8212 43.8784 33.3366 43.8979H33.1618C32.6773 43.8784 32.1984 43.6837 31.8284 43.3137L28.2929 39.7782C27.9024 39.3876 27.9024 38.7545 28.2929 38.364L29.7071 36.9497C30.0976 36.5592 30.7308 36.5592 31.1213 36.9497L33.249 39.077L41.034 31.2929C41.4245 30.9024 42.0577 30.9024 42.4482 31.2929ZM24 5C30.6274 5 36 9 36 17.5C36 20.9659 34.4795 23.6837 32.4849 25.6871L35.9095 27.824L36.2253 28.034C36.6782 28.3501 36.7891 28.9735 36.473 29.4264C36.439 29.475 36.4008 29.5206 36.3588 29.5624L34.8989 31.0171C34.565 31.3498 34.0441 31.4042 33.6487 31.1476L32.8674 30.6406L26.1081 26.4229L29.6502 22.865C31.1831 21.3252 32 19.5563 32 17.5C32 11.8079 29.0436 9 24 9C18.9564 9 16 11.8079 16 17.5C16 19.461 16.7431 21.1612 18.1415 22.6497L18.3678 22.883L21.9406 26.454L14.207 31.2421C12.2899 32.4292 11.0945 34.4887 11.0054 36.7302L11 37V39H23C23.5523 39 24 39.4477 24 40V42C24 42.5523 23.5523 43 23 43H9C7.89543 43 7 42.1046 7 41V37C7 33.2698 8.92979 29.8051 12.1012 27.8413L15.5401 25.7122C13.5332 23.7064 12 20.9804 12 17.5C12 9 17.3726 5 24 5Z" fill="black" fill-opacity="0.88"/>
</svg>
