<svg width="48" height="48" viewBox="0 0 48 48" fill="none" xmlns="http://www.w3.org/2000/svg">
<path fill-rule="evenodd" clip-rule="evenodd" d="M41 8C42.6569 8 44 9.34315 44 11V25C44 25.5523 43.5523 26 43 26H41C40.4477 26 40 25.5523 40 25V20H8V36H24C24.5523 36 25 36.4477 25 37V39C25 39.5465 24.5616 39.9906 24.0173 39.9999L31.342 39.999L29.2929 37.9497C28.9024 37.5592 28.9024 36.9261 29.2929 36.5355L30.7071 35.1213C31.0976 34.7308 31.7308 34.7308 32.1213 35.1213L34.249 37.2486L42.034 29.4645C42.4245 29.0739 43.0576 29.0739 43.4482 29.4645L44.8624 30.8787C45.2529 31.2692 45.2529 31.9024 44.8624 32.2929L35.67 41.4853C35.3 41.8553 34.8212 42.05 34.3366 42.0694H34.1618C33.6773 42.05 33.1984 41.8553 32.8284 41.4853L31.343 40H7C5.34315 40 4 38.6569 4 37V11C4 9.34315 5.34315 8 7 8H41ZM40 12H8V16H40V12Z" fill="black" fill-opacity="0.88"/>
</svg>
