<svg width="48" height="48" viewBox="0 0 48 48" fill="none" xmlns="http://www.w3.org/2000/svg">
<path d="M24 4C35.0457 4 44 12.9543 44 24C44 35.0457 35.0457 44 24 44C12.9543 44 4 35.0457 4 24C4 12.9543 12.9543 4 24 4ZM24 8C15.1634 8 8 15.1634 8 24C8 32.8366 15.1634 40 24 40C32.8366 40 40 32.8366 40 24C40 15.1634 32.8366 8 24 8ZM25 31.5C25.5523 31.5 26 31.9477 26 32.5V34.5C26 35.0523 25.5523 35.5 25 35.5H23C22.4478 35.4998 22 35.0522 22 34.5V32.5C22 31.9478 22.4478 31.5002 23 31.5H25ZM24 12.5C28.1163 12.5 31 15.1148 31 19.5625C30.9999 21.8531 29.9069 23.3579 27.7568 25.0947L26.8154 25.8447L26.5605 26.0557L26.3555 26.2363L26.1777 26.4053C26.1014 26.4827 26.0428 26.5504 26 26.6084V28.5C26 29.0523 25.5523 29.5 25 29.5H23C22.4478 29.4998 22 29.0522 22 28.5V26.4561L22.0068 26.2227C22.0772 25.0735 22.6716 24.1809 23.6611 23.2793C23.754 23.1947 23.8493 23.1104 23.9512 23.0234L24.2822 22.749L25.4502 21.8135C26.5825 20.8703 26.9999 20.2574 27 19.5625C27 17.4162 25.9899 16.5 24 16.5C22.7021 16.5001 21.5907 17.3443 21.1748 18.5293C21.1616 18.5669 21.1495 18.6099 21.1377 18.6562C21.0101 19.1591 20.6017 19.5625 20.083 19.5625H18.0605C17.4853 19.5623 17.021 19.0765 17.0859 18.5049C17.0989 18.3911 17.1127 18.2894 17.127 18.2148C17.75 14.9625 20.5864 12.5001 24 12.5Z" fill="black" fill-opacity="0.88"/>
</svg>
