<svg width="48" height="48" viewBox="0 0 48 48" fill="none" xmlns="http://www.w3.org/2000/svg">
<path fill-rule="evenodd" clip-rule="evenodd" d="M24 4C24.327 4 24.6468 4.01727 24.9592 4.0518C25.4269 4.1035 25.7896 4.47233 25.8426 4.92973L25.8493 5.04579V22.359H42.9731C43.4916 22.359 43.9241 22.7553 43.9693 23.2718C43.9898 23.5057 44 23.7484 44 24C44 35.0457 35.0457 44 24 44C12.9543 44 4 35.0457 4 24C4 12.9543 12.9543 4 24 4ZM21.8493 26.359L21.849 8.143L21.8289 8.14606C14.0193 9.20553 8 15.8998 8 24C8 32.8366 15.1634 40 24 40C31.995 40 38.6204 34.136 39.8098 26.4745L39.826 26.358L21.8493 26.359ZM28.7022 4.57666L28.7879 4.58193L28.8724 4.59765C36.0522 6.39488 41.6937 12.073 43.4384 19.2734L43.5194 19.6214C43.5554 19.7903 43.4476 19.9564 43.2787 19.9924C43.2573 19.997 43.2355 19.9993 43.2136 19.9993L40.1092 19.9996C39.792 19.9996 39.5083 19.8144 39.3776 19.5331L39.336 19.4233C37.8482 14.4307 33.989 10.4601 29.0648 8.81817L28.7076 8.70371C28.2873 8.57497 28.0005 8.18696 28.0005 7.74747L28.0008 5.2779C28.0008 4.89057 28.3149 4.57666 28.7022 4.57666Z" fill="black" fill-opacity="0.88"/>
</svg>
