<svg width="48" height="48" viewBox="0 0 48 48" fill="none" xmlns="http://www.w3.org/2000/svg">
<path d="M39 6C40.6569 6 42 7.34315 42 9V22C42 22.5523 41.5523 23 41 23H39C38.4477 23 38 22.5523 38 22V10H10V38H18C18.5523 38 19 38.4477 19 39V41C19 41.5523 18.5523 42 18 42H9C7.34315 42 6 40.6569 6 39V9C6 7.34315 7.34315 6 9 6H39ZM28.4355 20.9326C28.8261 20.5426 29.4592 20.5424 29.8496 20.9326L30.8389 21.9229C31.2294 22.3134 31.2294 22.9464 30.8389 23.3369L28.1777 25.999L35 26C39.4183 26 43 29.5817 43 34C43 38.4183 39.4183 42 35 42H24C23.4477 42 23 41.5523 23 41V39C23 38.4477 23.4477 38 24 38H35C37.2091 38 39 36.2091 39 34C39 31.8578 37.3156 30.1089 35.1992 30.0049L35 30L28.168 29.999L30.8389 32.6709C31.2294 33.0614 31.2294 33.6944 30.8389 34.085L29.8496 35.0752C29.4591 35.4657 28.8261 35.4656 28.4355 35.0752L22.0713 28.7109C21.6809 28.3204 21.6808 27.6874 22.0713 27.2969L28.4355 20.9326Z" fill="black" fill-opacity="0.88"/>
</svg>
