<svg width="48" height="48" viewBox="0 0 48 48" fill="none" xmlns="http://www.w3.org/2000/svg">
<path fill-rule="evenodd" clip-rule="evenodd" d="M9.5598 10.2096C16.5892 3.18014 27.9862 3.18014 35.0156 10.2096C41.4695 16.6635 41.998 26.799 36.6009 33.8558L43.4302 40.6859C43.8207 41.0764 43.8207 41.7096 43.4302 42.1001L42.016 43.5143C41.6255 43.9048 40.9923 43.9048 40.6018 43.5143L33.8351 36.7469C26.7631 42.6742 16.2081 42.3137 9.5598 35.6654C2.53036 28.636 2.53036 17.239 9.5598 10.2096ZM12.3882 13.038C6.92088 18.5053 6.92088 27.3697 12.3882 32.837C17.8556 38.3043 26.7199 38.3043 32.1872 32.837C37.6546 27.3697 37.6546 18.5053 32.1872 13.038C26.7199 7.57066 17.8556 7.57066 12.3882 13.038Z" fill="black" fill-opacity="0.88"/>
</svg>
