<svg width="48" height="48" viewBox="0 0 48 48" fill="none" xmlns="http://www.w3.org/2000/svg">
<path fill-rule="evenodd" clip-rule="evenodd" d="M32.6679 5.98633C33.7397 5.98633 34.7301 6.55812 35.266 7.48633L43.9339 22.4997C44.4698 23.4279 44.4698 24.5715 43.9339 25.4997L35.266 40.513C34.7301 41.4412 33.7397 42.013 32.6679 42.013H15.332C14.2602 42.013 13.2698 41.4412 12.7339 40.513L4.06599 25.4997C3.53009 24.5715 3.53009 23.4279 4.06599 22.4997L12.7339 7.48633C13.2698 6.55812 14.2602 5.98633 15.332 5.98633H32.6679ZM32.0898 9.98666H15.9088L7.81885 23.9997L15.9088 38.0137H32.0898L40.1798 23.9997L32.0898 9.98666ZM24 15.9997C28.4182 15.9997 32 19.5814 32 23.9997C32 28.4179 28.4182 31.9997 24 31.9997C19.5817 31.9997 16 28.4179 16 23.9997C16 19.5814 19.5817 15.9997 24 15.9997ZM24.0001 19.5997C21.57 19.5997 19.6001 21.5696 19.6001 23.9997C19.6001 26.4297 21.57 28.3997 24.0001 28.3997C26.4302 28.3997 28.4001 26.4297 28.4001 23.9997C28.4001 21.5696 26.4302 19.5997 24.0001 19.5997Z" fill="black" fill-opacity="0.88"/>
</svg>
