<svg width="48" height="48" viewBox="0 0 48 48" fill="none" xmlns="http://www.w3.org/2000/svg">
<path d="M19 6C19.5523 6 20 6.44772 20 7V9C20 9.55228 19.5523 10 19 10H10V38H38V29C38 28.4477 38.4477 28 39 28H41C41.5523 28 42 28.4477 42 29V39C42 40.6569 40.6569 42 39 42H9C7.34315 42 6 40.6569 6 39V9C6 7.34315 7.34315 6 9 6H19ZM39 6C40.6569 6 42 7.34315 42 9V21C42 21.5523 41.5523 22 41 22H39C38.4477 22 38 21.5523 38 21V12.627L25.5352 25.0918C25.1446 25.4822 24.5116 25.4823 24.1211 25.0918L22.707 23.6777C22.3166 23.2873 22.3167 22.6542 22.707 22.2637L34.9707 10H27C26.4477 10 26 9.55228 26 9V7C26 6.44772 26.4477 6 27 6H39Z" fill="black" fill-opacity="0.88"/>
</svg>
