<svg width="48" height="48" viewBox="0 0 48 48" fill="none" xmlns="http://www.w3.org/2000/svg">
<path fill-rule="evenodd" clip-rule="evenodd" d="M21.3173 4.68553L18.0058 15.75L6.45952 15.4803C5.51715 15.4583 4.62693 15.9119 4.09087 16.6872L3.99107 16.842C3.23843 18.0973 3.58055 19.7384 4.80166 20.5827L14.3018 27.151L10.4768 38.0491C10.1646 38.9385 10.3209 39.9253 10.8927 40.6747L11.0091 40.8175C11.9704 41.9212 13.6369 42.1029 14.8172 41.2025L23.9998 34.196L33.1824 41.2025C33.9318 41.7742 34.9186 41.9305 35.808 41.6184L35.9673 41.557C37.3223 40.988 38.0159 39.4541 37.5227 38.0491L33.6968 27.151L43.1979 20.5827C43.9732 20.0466 44.4268 19.1564 44.4047 18.2141L44.3956 18.0436C44.2732 16.5791 43.0287 15.4455 41.54 15.4803L29.9928 15.75L26.6822 4.68553C26.412 3.78247 25.7055 3.07599 24.8025 2.80576C23.321 2.36244 21.7606 3.20404 21.3173 4.68553ZM23.9998 8.27902L26.7194 17.3673L26.7762 17.5373C27.1885 18.6518 28.2663 19.392 29.4674 19.3639L38.9508 19.141L31.1482 24.537L30.9972 24.649C30.0697 25.3863 29.7017 26.6366 30.0986 27.7674L33.2398 36.718L25.6981 30.9645L25.5366 30.8501C24.5498 30.2015 23.2516 30.2396 22.3014 30.9645L14.7588 36.718L17.9009 27.7674L17.9573 27.588C18.2742 26.4463 17.8371 25.2185 16.8513 24.537L9.04776 19.141L18.5321 19.3639C19.7933 19.3934 20.9185 18.5759 21.2801 17.3673L23.9998 8.27902Z" fill="black" fill-opacity="0.88"/>
</svg>
