<svg width="48" height="48" viewBox="0 0 48 48" fill="none" xmlns="http://www.w3.org/2000/svg">
<path fill-rule="evenodd" clip-rule="evenodd" d="M8.91564 6.06445C10.2827 6.06445 11.4768 6.98863 11.8197 8.31196L12.5165 11.0005L38.8925 11.0005C40.5494 11.0005 41.8925 12.3436 41.8925 14.0005C41.8925 14.1376 41.8831 14.2746 41.8644 14.4105L40.02 27.7781C39.8461 29.0387 38.8959 30.0524 37.6492 30.3073L21.0167 33.7081C21.6383 34.6533 21.9999 35.7847 21.9999 37.0005C21.9999 40.2389 19.4343 42.8781 16.2248 42.9963L15.9999 43.0005C12.6862 43.0005 9.99988 40.3142 9.99988 37.0005C9.99988 34.4821 11.5514 32.3261 13.7508 31.4363L9.33362 14.769C9.30145 14.6477 9.2772 14.526 9.26055 14.4047L8.12988 10.0635L3.31152 10.0643C2.79869 10.0645 2.37595 9.67857 2.3181 9.18124L2.31152 9.06445V7.06445C2.31152 6.51217 2.75924 6.06445 3.31152 6.06445H8.91564ZM35 31.0005C38.3137 31.0005 41 33.6868 41 37.0005C41 40.2389 38.4344 42.8781 35.2249 42.9963L35 43.0005C31.6863 43.0005 29 40.3142 29 37.0005C29 33.7621 31.5656 31.1229 34.7751 31.0046L35 31.0005ZM16.9424 34.7926L16.7691 34.5295L16.4778 34.6481L16.3258 34.6224C16.2193 34.608 16.1106 34.6005 16.0001 34.6005C14.6746 34.6005 13.6001 35.6751 13.6001 37.0005C13.6001 38.326 14.6746 39.4005 16.0001 39.4005C17.3256 39.4005 18.4001 38.326 18.4001 37.0005C18.4001 36.0617 17.861 35.2487 17.0754 34.8543L16.9424 34.7926ZM35.0001 34.6005C33.6746 34.6005 32.6001 35.675 32.6001 37.0005C32.6001 38.3259 33.6746 39.4005 35.0001 39.4005C36.3256 39.4005 37.4001 38.3259 37.4001 37.0005C37.4001 35.675 36.3256 34.6005 35.0001 34.6005ZM37.7447 14.9995H13.5327L17.5937 30.3245L36.1537 26.5295L37.7447 14.9995Z" fill="black" fill-opacity="0.88"/>
</svg>
