<svg width="48" height="48" viewBox="0 0 48 48" fill="none" xmlns="http://www.w3.org/2000/svg">
<path d="M36.0605 20.7852C36.4511 20.3948 37.0841 20.3948 37.4746 20.7852L43.6562 26.9668C44.0467 27.3573 44.0467 27.9913 43.6562 28.3818L28.3213 43.7168C28.0205 43.9955 27.6248 44.1504 27.2139 44.1504H22.0078C21.11 44.1504 20.3818 43.4253 20.3818 42.5312V37.1309C20.3819 36.6811 20.5696 36.2506 20.9004 35.9443L36.0605 20.7852ZM37 4C38.6569 4 40 5.34315 40 7V13C40 13.5523 39.5523 14 39 14H37C36.4477 14 36 13.5523 36 13V8H10V40H16C16.5523 40 17 40.4477 17 41V43C17 43.5523 16.5523 44 16 44H9C7.34315 44 6 42.6569 6 41V7C6 5.34315 7.34315 4 9 4H37ZM24.3809 38.1211V40.1504H26.2305L38.707 27.6748L36.7666 25.7344L24.3809 38.1211ZM24 25C24.5523 25 25 25.4477 25 26V28C25 28.5523 24.5523 29 24 29H15C14.4477 29 14 28.5523 14 28V26C14 25.4477 14.4477 25 15 25H24ZM31 16C31.5523 16 32 16.4477 32 17V19C32 19.5523 31.5523 20 31 20H15C14.4477 20 14 19.5523 14 19V17C14 16.4477 14.4477 16 15 16H31Z" fill="black" fill-opacity="0.88"/>
</svg>
