<svg width="48" height="48" viewBox="0 0 48 48" fill="none" xmlns="http://www.w3.org/2000/svg">
<path d="M24 4C35.0457 4 44 12.9543 44 24C44 35.0457 35.0457 44 24 44C12.9543 44 4 35.0457 4 24C4 12.9543 12.9543 4 24 4ZM24 8C15.1634 8 8 15.1634 8 24C8 32.8366 15.1634 40 24 40C32.8366 40 40 32.8366 40 24C40 15.1634 32.8366 8 24 8Z" fill="black" fill-opacity="0.88"/>
<path fill-rule="evenodd" clip-rule="evenodd" d="M25 12C25.5523 12 26 12.4477 26 13L25.999 21.999L32 22C32.5523 22 33 22.4477 33 23V25C33 25.5523 32.5523 26 32 26H24C22.8954 26 22 25.1046 22 24V13C22 12.4477 22.4477 12 23 12H25Z" fill="black" fill-opacity="0.88"/>
</svg>
