<svg width="48" height="48" viewBox="0 0 48 48" fill="none" xmlns="http://www.w3.org/2000/svg">
<path fill-rule="evenodd" clip-rule="evenodd" d="M15.1894 41.2425C15.0781 41.6877 14.6781 42 14.2192 42H12.2808C11.7285 42 11.2808 41.5523 11.2808 41C11.2808 40.9182 11.2908 40.8368 11.3106 40.7575L13.249 33H7C6.44772 33 6 32.5523 6 32V30C6 29.4477 6.44772 29 7 29H14.249L17.249 17H11C10.4477 17 10 16.5523 10 16V14C10 13.4477 10.4477 13 11 13H18.249L19.8106 6.75746C19.9219 6.3123 20.3219 6 20.7808 6H22.7192C23.2715 6 23.7192 6.44772 23.7192 7C23.7192 7.08176 23.7092 7.16322 23.6894 7.24254L22.25 13H30.249L31.8106 6.75746C31.9219 6.3123 32.3219 6 32.7808 6H34.7192C35.2715 6 35.7192 6.44772 35.7192 7C35.7192 7.08176 35.7092 7.16322 35.6894 7.24254L34.25 13H41C41.5523 13 42 13.4477 42 14V16C42 16.5523 41.5523 17 41 17H33.25L30.25 29H37C37.5523 29 38 29.4477 38 30V32C38 32.5523 37.5523 33 37 33H29.25L27.1894 41.2425C27.0781 41.6877 26.6781 42 26.2192 42H24.2808C23.7285 42 23.2808 41.5523 23.2808 41C23.2808 40.9182 23.2908 40.8368 23.3106 40.7575L25.249 33H17.25L15.1894 41.2425ZM18.25 29H26.249L29.249 17H21.25L18.25 29Z" fill="black" fill-opacity="0.88"/>
</svg>
