<svg width="48" height="48" viewBox="0 0 48 48" fill="none" xmlns="http://www.w3.org/2000/svg">
<path d="M24 4C35.0457 4 44 12.9543 44 24C44 35.0457 35.0457 44 24 44C12.9543 44 4 35.0457 4 24C4 12.9543 12.9543 4 24 4ZM24 8C15.1634 8 8 15.1634 8 24C8 32.8366 15.1634 40 24 40C32.8366 40 40 32.8366 40 24C40 15.1634 32.8366 8 24 8ZM17.2666 22C17.6716 22 18 22.3284 18 22.7334V25.667C17.9998 26.0719 17.6715 26.4004 17.2666 26.4004H14.333C13.9283 26.4002 13.5998 26.0717 13.5996 25.667V22.7334C13.5996 22.3285 13.9281 22.0002 14.333 22H17.2666ZM25.667 22C26.0719 22.0002 26.4004 22.3285 26.4004 22.7334V25.667C26.4002 26.0717 26.0717 26.4002 25.667 26.4004H22.7334C22.3285 26.4004 22.0002 26.0719 22 25.667V22.7334C22 22.3284 22.3284 22 22.7334 22H25.667ZM34.0664 22C34.4714 22 34.7998 22.3284 34.7998 22.7334V25.667C34.7996 26.0719 34.4713 26.4004 34.0664 26.4004H31.1328C30.7281 26.4002 30.3996 26.0717 30.3994 25.667V22.7334C30.3994 22.3285 30.728 22.0002 31.1328 22H34.0664Z" fill="black" fill-opacity="0.88"/>
</svg>
