<svg width="48" height="48" viewBox="0 0 48 48" fill="none" xmlns="http://www.w3.org/2000/svg">
<path fill-rule="evenodd" clip-rule="evenodd" d="M20.6652 16.5C20.641 16.5 20.6147 16.4998 20.5864 16.4996C20.3122 16.4977 19.8602 16.4946 19.4368 16.646C19.076 16.775 18.7496 16.9853 18.4829 17.2606C18.1701 17.5835 17.9862 17.9964 17.8745 18.2469C17.8631 18.2727 17.8524 18.2967 17.8423 18.3188L16.5999 21.0563C16.589 21.0802 16.5771 21.106 16.5642 21.1338C16.4395 21.4032 16.2338 21.8476 16.2059 22.3298C16.1821 22.7402 16.2599 23.1502 16.4325 23.5235C16.6352 23.9619 16.989 24.2996 17.2038 24.5046C17.226 24.5259 17.2468 24.5456 17.2657 24.564L21.8715 29.0262C22.0418 29.1913 22.2273 29.3711 22.4008 29.514C22.5979 29.6764 22.8735 29.8727 23.2428 29.9901C23.7356 30.1468 24.2649 30.1468 24.7577 29.9901C25.127 29.8727 25.4025 29.6763 25.5996 29.514C25.7731 29.371 25.9586 29.1912 26.1289 29.0261L30.7344 24.5639C30.7533 24.5456 30.7741 24.5258 30.7963 24.5046C31.011 24.2996 31.3649 23.9619 31.5676 23.5234C31.7401 23.1502 31.8179 22.7402 31.7941 22.3298C31.7662 21.8476 31.5607 21.4037 31.436 21.1342C31.4231 21.1064 31.411 21.0803 31.4001 21.0563L30.1577 18.3188C30.1477 18.2968 30.137 18.2727 30.1255 18.2469C30.0139 17.9964 29.8299 17.5835 29.5171 17.2606C29.2504 16.9853 28.9241 16.775 28.5632 16.646C28.1398 16.4946 27.6878 16.4977 27.4136 16.4996C27.3854 16.4998 27.359 16.5 27.3348 16.5H20.6652ZM20.6008 19.5H27.3992L28.6974 22.3603L24.0002 26.9114L19.3026 22.3603L20.6008 19.5Z" fill="black" fill-opacity="0.88"/>
<path fill-rule="evenodd" clip-rule="evenodd" d="M7 13.6C7 10.2397 7 8.55953 7.65396 7.27606C8.2292 6.14708 9.14708 5.2292 10.2761 4.65396C11.5595 4 13.2397 4 16.6 4H31.4C34.7603 4 36.4405 4 37.7239 4.65396C38.8529 5.2292 39.7708 6.14708 40.346 7.27606C41 8.55953 41 10.2397 41 13.6V36.2604C41 39.5109 41 41.1362 40.3156 42.1503C39.7174 43.0368 38.7891 43.6467 37.7381 43.8441C36.5356 44.0698 35.0438 43.4248 32.0602 42.1348L26.5398 39.7481C25.6037 39.3434 25.1357 39.141 24.65 39.061C24.2196 38.9901 23.7804 38.9901 23.35 39.061C22.8643 39.141 22.3963 39.3434 21.4602 39.7481L15.9398 42.1348C12.9562 43.4248 11.4644 44.0698 10.2619 43.8441C9.21089 43.6467 8.28264 43.0368 7.68441 42.1503C7 41.1362 7 39.5109 7 36.2604V13.6ZM16.6 7H31.4C33.1297 7 34.2465 7.00233 35.0965 7.07178C35.9115 7.13837 36.2136 7.2514 36.362 7.32698C36.9265 7.6146 37.3854 8.07354 37.673 8.63803C37.7486 8.78636 37.8616 9.08852 37.9282 9.90351C37.9977 10.7535 38 11.8703 38 13.6V36.2604C38 37.9435 37.997 39.0007 37.9268 39.7719C37.8835 40.2473 37.825 40.4488 37.8061 40.5045C37.6641 40.698 37.4572 40.8339 37.2232 40.8875C37.1646 40.8827 36.9565 40.8565 36.503 40.7076C35.7672 40.466 34.7956 40.0491 33.2507 39.3812L27.7304 36.9945L27.5462 36.9145C26.7996 36.5902 26.0009 36.2431 25.1376 36.1009C24.3843 35.9768 23.6157 35.9768 22.8624 36.1009C21.9991 36.2431 21.2004 36.5902 20.4538 36.9145L20.2696 36.9945L14.7493 39.3812C13.2044 40.0491 12.2328 40.466 11.497 40.7076C11.0435 40.8565 10.8354 40.8827 10.7768 40.8875C10.5428 40.8339 10.3359 40.6979 10.1939 40.5045C10.175 40.4488 10.1165 40.2473 10.0732 39.7719C10.003 39.0007 10 37.9435 10 36.2604V13.6C10 11.8703 10.0023 10.7535 10.0718 9.90351C10.1384 9.08852 10.2514 8.78636 10.327 8.63803C10.6146 8.07354 11.0735 7.6146 11.638 7.32698C11.7864 7.2514 12.0885 7.13837 12.9035 7.07178C13.7535 7.00233 14.8703 7 16.6 7Z" fill="black" fill-opacity="0.88"/>
</svg>
