<svg width="48" height="48" viewBox="0 0 48 48" fill="none" xmlns="http://www.w3.org/2000/svg">
<g clip-path="url(#clip0_538_9776)">
<path d="M20.6149 15.2879C20.0608 14.6721 19.1123 14.6222 18.4966 15.1764C17.8808 15.7306 17.8309 16.679 18.3851 17.2948L22.347 21.697H18C17.1716 21.697 16.5 22.3685 16.5 23.197C16.5 24.0254 17.1716 24.697 18 24.697H22.5V26.9913H18C17.1716 26.9913 16.5 27.6629 16.5 28.4913C16.5 29.3197 17.1716 29.9913 18 29.9913H22.5V32.2087C22.5 33.0371 23.1716 33.7087 24 33.7087C24.8284 33.7087 25.5 33.0371 25.5 32.2087V29.9913H30C30.8284 29.9913 31.5 29.3197 31.5 28.4913C31.5 27.6629 30.8284 26.9913 30 26.9913H25.5V24.697H30C30.8284 24.697 31.5 24.0254 31.5 23.197C31.5 22.3685 30.8284 21.697 30 21.697H25.653L29.6149 17.2948C30.1691 16.679 30.1192 15.7306 29.5034 15.1764C28.8877 14.6222 27.9392 14.6721 27.3851 15.2879L24 19.0491L20.6149 15.2879Z" fill="black" fill-opacity="0.88"/>
<path fill-rule="evenodd" clip-rule="evenodd" d="M24 44C28.9829 44 33.5403 42.1777 37.0419 39.1632L40.9393 43.0607C41.5251 43.6464 42.4749 43.6464 43.0607 43.0607C43.6464 42.4749 43.6464 41.5251 43.0607 40.9393L39.1632 37.0419C42.1777 33.5403 44 28.9829 44 24C44 12.9543 35.0457 4 24 4C12.9543 4 4 12.9543 4 24C4 35.0457 12.9543 44 24 44ZM24 41C28.3335 41 32.2882 39.3786 35.2907 36.7093L36.7093 35.2907C39.3786 32.2882 41 28.3335 41 24C41 14.6112 33.3888 7 24 7C14.6112 7 7 14.6112 7 24C7 33.3888 14.6112 41 24 41Z" fill="black" fill-opacity="0.88"/>
</g>
<defs>
<clipPath id="clip0_538_9776">
<rect width="48" height="48" fill="white"/>
</clipPath>
</defs>
</svg>
