<svg width="48" height="48" viewBox="0 0 48 48" fill="none" xmlns="http://www.w3.org/2000/svg">
<path fill-rule="evenodd" clip-rule="evenodd" d="M22.3618 4.17533C21.1414 4.4396 19.9962 5.11547 17.706 6.4672L12.0801 9.78768C9.8638 11.0957 8.75567 11.7498 7.95034 12.656C7.23773 13.4579 6.7 14.3993 6.37137 15.4201C6 16.5738 6 17.8596 6 20.4313V27.5687C6 30.1404 6 31.4262 6.37137 32.5799C6.7 33.6007 7.23773 34.5421 7.95034 35.344C8.75566 36.2502 9.86378 36.9042 12.08 38.2123L17.706 41.5328C19.9962 42.8845 21.1414 43.5604 22.3618 43.8247C23.4414 44.0584 24.5586 44.0584 25.6382 43.8247C26.8586 43.5604 28.0037 42.8845 30.294 41.5328L35.9199 38.2123C38.1362 36.9043 39.2443 36.2502 40.0497 35.344C40.7623 34.5421 41.3 33.6007 41.6286 32.5799C42 31.4262 42 30.1404 42 27.5687V20.4313C42 17.8596 42 16.5738 41.6286 15.4201C41.3 14.3993 40.7623 13.4579 40.0497 12.656C39.2443 11.7498 38.1362 11.0957 35.9199 9.78768L30.294 6.4672C28.0038 5.11547 26.8586 4.4396 25.6382 4.17533C24.5586 3.94156 23.4414 3.94156 22.3618 4.17533ZM25.0239 7.00698C25.6778 7.14858 26.356 7.5082 28.8189 8.9618L34.4448 12.2823C36.4956 13.4927 37.2419 13.9615 37.6852 14.3784L25.4511 21.435C24.8877 21.7601 24.6059 21.9226 24.3064 21.9862C24.0413 22.0424 23.7674 22.0424 23.5024 21.9862C23.2029 21.9226 22.9211 21.7601 22.3576 21.435L10.2435 14.4476C10.6792 14.0114 11.3903 13.56 13.5552 12.2823L19.1811 8.96179C21.644 7.5082 22.3222 7.14858 22.9761 7.00698C23.6509 6.86087 24.3491 6.86087 25.0239 7.00698ZM8.90018 20.4313C8.90018 18.6161 8.91442 17.6733 8.98053 17.0648L20.907 23.9439C21.4705 24.269 21.7522 24.4315 21.9571 24.6588C22.1384 24.86 22.2754 25.097 22.3591 25.3544C22.4537 25.6454 22.4537 25.9704 22.4537 26.6204V40.8323C21.8717 40.6033 21.0284 40.1285 19.1811 39.0382L13.5552 35.7177C11.1726 34.3115 10.5508 33.9062 10.1191 33.4204C9.67376 32.9192 9.33768 32.3309 9.13229 31.6928C8.93321 31.0744 8.90018 30.3335 8.90018 27.5687V20.4313ZM28.8189 39.0382C26.7583 40.2544 25.947 40.7048 25.3539 40.9024V26.6211C25.3539 25.971 25.3539 25.646 25.4486 25.355C25.5323 25.0976 25.6692 24.8606 25.8505 24.6595C26.0554 24.4321 26.3372 24.2696 26.9006 23.9446L39.0073 16.9615C39.0839 17.5662 39.0998 18.5101 39.0998 20.4313V27.5687C39.0998 30.3335 39.0668 31.0744 38.8677 31.6928C38.6623 32.3309 38.3262 32.9192 37.8809 33.4204C37.4492 33.9062 36.8274 34.3115 34.4448 35.7177L28.8189 39.0382Z" fill="black" fill-opacity="0.88"/>
</svg>
