<svg width="48" height="48" viewBox="0 0 48 48" fill="none" xmlns="http://www.w3.org/2000/svg">
<path d="M17.9859 29.5277C18.2507 29.512 18.5306 29.4201 18.8254 29.2522L24.3474 25.731C24.4008 25.697 24.4278 25.6797 24.4392 25.6735C24.6852 25.5383 24.9667 25.6681 25.0236 25.943C25.0262 25.9557 25.031 25.9899 25.0405 26.0583L25.8705 31.9968C25.9052 32.2446 25.9225 32.3685 25.9861 32.4375C26.0394 32.4952 26.1132 32.5297 26.1916 32.5336C26.2854 32.5383 26.3916 32.4722 26.6041 32.34L27.0549 32.0595C27.4287 31.8269 27.6156 31.7106 27.7568 31.5545C27.8766 31.422 27.9719 31.2691 28.038 31.1031C28.1158 30.9076 28.1379 30.6885 28.1819 30.2505L28.914 22.9636C28.9197 22.9072 28.9248 22.856 28.9291 22.8094L33.6496 19.7993C34.3944 19.3244 34.4516 18.2579 33.7618 17.7061C32.6449 16.8126 31.0728 16.7623 29.901 17.5825L25.8695 20.4046L19.1992 18.4988C18.7764 18.378 18.565 18.3176 18.3548 18.3176C18.1763 18.3177 17.9992 18.3496 17.8319 18.4118C17.6349 18.4851 17.4578 18.6155 17.1038 18.8762L16.7042 19.1704C16.4925 19.3264 16.3866 19.4044 16.3568 19.4961C16.3319 19.5728 16.3389 19.6563 16.3763 19.7278C16.421 19.8133 16.5385 19.8724 16.7734 19.9907L21.5856 22.4147C21.8967 22.5714 22.0523 22.6497 22.1119 22.7632C22.1618 22.8581 22.1715 22.9689 22.1389 23.071C22.0999 23.1931 21.9604 23.2973 21.6813 23.5058L18.4251 25.9377L14.2503 25.341C14.134 25.3285 14.03 25.343 13.9382 25.3842C13.8464 25.4255 13.7592 25.5119 13.6766 25.6435L13.5172 25.9184C13.4612 26.0107 13.4414 26.1045 13.4577 26.1997C13.4796 26.2936 13.5341 26.3733 13.621 26.4388L17.2551 29.2728C17.4817 29.4509 17.7253 29.5358 17.9859 29.5277Z" fill="black" fill-opacity="0.88"/>
<path fill-rule="evenodd" clip-rule="evenodd" d="M7 13.6C7 10.2397 7 8.55953 7.65396 7.27606C8.2292 6.14708 9.14708 5.2292 10.2761 4.65396C11.5595 4 13.2397 4 16.6 4H31.4C34.7603 4 36.4405 4 37.7239 4.65396C38.8529 5.2292 39.7708 6.14708 40.346 7.27606C41 8.55953 41 10.2397 41 13.6V34.4C41 37.7603 41 39.4405 40.346 40.7239C39.7708 41.8529 38.8529 42.7708 37.7239 43.346C36.4405 44 34.7603 44 31.4 44H16.6C13.2397 44 11.5595 44 10.2761 43.346C9.14708 42.7708 8.2292 41.8529 7.65396 40.7239C7 39.4405 7 37.7603 7 34.4V13.6ZM31.4 41H16.6C14.8703 41 13.7535 40.9977 12.9035 40.9282C12.0885 40.8616 11.7864 40.7486 11.638 40.673C11.0735 40.3854 10.6146 39.9265 10.327 39.362C10.2514 39.2136 10.1384 38.9115 10.0718 38.0965C10.0023 37.2465 10 36.1297 10 34.4V13.6C10 11.8703 10.0023 10.7535 10.0718 9.90351C10.1384 9.08852 10.2514 8.78636 10.327 8.63803C10.6146 8.07354 11.0735 7.6146 11.638 7.32698C11.7864 7.2514 12.0885 7.13837 12.9035 7.07178C13.7535 7.00233 14.8703 7 16.6 7H31.4C33.1297 7 34.2465 7.00233 35.0965 7.07178C35.9115 7.13837 36.2136 7.2514 36.362 7.32698C36.9265 7.6146 37.3854 8.07354 37.673 8.63803C37.7486 8.78636 37.8616 9.08852 37.9282 9.90351C37.9977 10.7535 38 11.8703 38 13.6V34.4C38 36.1297 37.9977 37.2465 37.9282 38.0965C37.8616 38.9115 37.7486 39.2136 37.673 39.362C37.3854 39.9265 36.9265 40.3854 36.362 40.673C36.2136 40.7486 35.9115 40.8616 35.0965 40.9282C34.2465 40.9977 33.1297 41 31.4 41Z" fill="black" fill-opacity="0.88"/>
</svg>
