<svg width="48" height="48" viewBox="0 0 48 48" fill="none" xmlns="http://www.w3.org/2000/svg">
<path d="M17 22.7C16.282 22.7 15.7 23.282 15.7 24C15.7 24.718 16.282 25.3 17 25.3H21.7V27.7H18C16.7297 27.7 15.7 28.7297 15.7 30V33C15.7 34.2703 16.7297 35.3 18 35.3H23C23.718 35.3 24.3 34.718 24.3 34C24.3 33.282 23.718 32.7 23 32.7H18.3V30.3H22C23.2703 30.3 24.3 29.2703 24.3 28V25C24.3 23.7297 23.2703 22.7 22 22.7H17Z" fill="black" fill-opacity="0.88"/>
<path fill-rule="evenodd" clip-rule="evenodd" d="M34.0479 7.65987C32.6696 6.3086 31.9805 5.63298 31.1801 5.15007C30.4704 4.7219 29.6984 4.40663 28.8919 4.21553C27.9823 4 27.0172 4 25.087 4H16.6C13.2397 4 11.5595 4 10.2761 4.65396C9.14708 5.2292 8.2292 6.14708 7.65396 7.27606C7 8.55953 7 10.2397 7 13.6V34.4C7 37.7603 7 39.4405 7.65396 40.7239C8.2292 41.8529 9.14708 42.7708 10.2761 43.346C11.5595 44 13.2397 44 16.6 44H31.4C34.7603 44 36.4405 44 37.7239 43.346C38.8529 42.7708 39.7708 41.8529 40.346 40.7239C41 39.4405 41 37.7603 41 34.4V19.852C41 17.8686 41 16.8769 40.7734 15.9452C40.5725 15.1191 40.2412 14.3304 39.792 13.6087C39.2853 12.7946 38.5772 12.1003 37.1609 10.7118L34.0479 7.65987ZM16.6 7H25.087C27.1579 7 27.711 7.01879 28.2002 7.1347C28.7043 7.25414 29.1868 7.45119 29.6303 7.7188C30.0608 7.97852 30.4689 8.35231 31.9477 9.80209L35.0607 12.854C36.5804 14.344 36.9725 14.7561 37.245 15.1939C37.5257 15.6449 37.7328 16.1379 37.8584 16.6542C37.9802 17.1552 38 17.7237 38 19.852V34.4C38 36.1297 37.9977 37.2465 37.9282 38.0965C37.8616 38.9115 37.7486 39.2136 37.673 39.362C37.3854 39.9265 36.9265 40.3854 36.362 40.673C36.2136 40.7486 35.9115 40.8616 35.0965 40.9282C34.2465 40.9977 33.1297 41 31.4 41H16.6C14.8703 41 13.7535 40.9977 12.9035 40.9282C12.0885 40.8616 11.7864 40.7486 11.638 40.673C11.0735 40.3854 10.6146 39.9265 10.327 39.362C10.2514 39.2136 10.1384 38.9115 10.0718 38.0965C10.0023 37.2465 10 36.1297 10 34.4V13.6C10 11.8703 10.0023 10.7535 10.0718 9.90351C10.1384 9.08852 10.2514 8.78636 10.327 8.63803C10.6146 8.07354 11.0735 7.6146 11.638 7.32698C11.7864 7.2514 12.0885 7.13837 12.9035 7.07178C13.7535 7.00233 14.8703 7 16.6 7Z" fill="black" fill-opacity="0.88"/>
</svg>
