<svg width="48" height="48" viewBox="0 0 48 48" fill="none" xmlns="http://www.w3.org/2000/svg">
<path d="M20.5837 14.4965C20.0295 13.8808 19.0811 13.8309 18.4653 14.385C17.8495 14.9392 17.7996 15.8877 18.3538 16.5034L22.128 20.697H18C17.1716 20.697 16.5 21.3685 16.5 22.197C16.5 23.0254 17.1716 23.697 18 23.697H22.4688V25.9913H18C17.1716 25.9913 16.5 26.6629 16.5 27.4913C16.5 28.3197 17.1716 28.9913 18 28.9913H22.4688V31.4173C22.4688 32.2457 23.1403 32.9173 23.9688 32.9173C24.7972 32.9173 25.4688 32.2457 25.4688 31.4173V28.9913H30C30.8284 28.9913 31.5 28.3197 31.5 27.4913C31.5 26.6629 30.8284 25.9913 30 25.9913H25.4688V23.697H30C30.8284 23.697 31.5 23.0254 31.5 22.197C31.5 21.3685 30.8284 20.697 30 20.697H25.8095L29.5837 16.5034C30.1379 15.8877 30.088 14.9392 29.4722 14.385C28.8564 13.8309 27.908 13.8808 27.3538 14.4965L23.9688 18.2577L20.5837 14.4965Z" fill="black" fill-opacity="0.88"/>
<path fill-rule="evenodd" clip-rule="evenodd" d="M6 12.2468C6 10.4637 6 9.57207 6.30919 8.83204C6.59371 8.15105 7.0611 7.56205 7.65963 7.13022C8.31004 6.66097 9.1783 6.45837 10.9148 6.05319L22.5548 3.33718C23.0882 3.21273 23.3549 3.1505 23.6246 3.12508C23.8743 3.10154 24.1257 3.10154 24.3754 3.12508C24.6451 3.1505 24.9118 3.21273 25.4452 3.33718L37.0852 6.05319C38.8217 6.45837 39.69 6.66097 40.3404 7.13022C40.9389 7.56205 41.4063 8.15105 41.6908 8.83204C42 9.57207 42 10.4637 42 12.2468V17.3816C42 23.4341 42 26.4603 41.2197 29.1712C40.2054 32.6953 38.2417 35.8727 35.5432 38.356C33.4675 40.2662 30.7607 41.6196 25.3473 44.3263C24.9048 44.5476 24.6835 44.6582 24.4539 44.7117C24.1553 44.7813 23.8447 44.7813 23.5461 44.7117C23.3165 44.6582 23.0952 44.5476 22.6528 44.3264C17.2393 41.6196 14.5325 40.2662 12.4568 38.356C9.75834 35.8727 7.79461 32.6953 6.78028 29.1712C6 26.4603 6 23.4341 6 17.3816V12.2468ZM39 12.2468V17.3816C39 23.616 38.9721 26.1342 38.3368 28.3414C37.4746 31.3369 35.8054 34.0377 33.5117 36.1485C31.8217 37.7038 29.5818 38.855 24.0056 41.6431L24 41.6459L23.9944 41.6431C18.4182 38.855 16.1783 37.7038 14.4883 36.1485C12.1946 34.0377 10.5254 31.3369 9.66324 28.3414C9.02794 26.1342 9 23.616 9 17.3816V12.2468C9 11.3127 9.00179 10.7692 9.03095 10.3631C9.04882 10.1141 9.0723 10.01 9.07988 9.98245C9.15037 9.81683 9.26426 9.67331 9.40953 9.56703C9.4346 9.5534 9.53072 9.50686 9.76909 9.43288C10.158 9.3122 10.6868 9.18697 11.5965 8.97471L23.2365 6.25871C23.5179 6.19305 23.673 6.1571 23.7918 6.13272C23.868 6.11708 23.8989 6.1127 23.9062 6.11182C23.9686 6.10593 24.0314 6.10595 24.0938 6.11184C24.0852 6.11102 24.1056 6.11167 24.2082 6.13272C24.327 6.1571 24.4821 6.19305 24.7635 6.25871L36.4035 8.97471C37.3132 9.18697 37.842 9.3122 38.2309 9.43288C38.4692 9.50685 38.5654 9.55339 38.5905 9.56702C38.7357 9.6733 38.8496 9.81683 38.9201 9.98244C38.9277 10.0099 38.9512 10.1141 38.9691 10.3631C38.9982 10.7692 39 11.3127 39 12.2468ZM38.9197 9.98095C38.9184 9.97646 38.9177 9.97447 38.9177 9.97461C38.9176 9.97467 38.9178 9.97519 38.918 9.97613C38.9184 9.9772 38.9189 9.97883 38.9197 9.98095Z" fill="black" fill-opacity="0.88"/>
</svg>
