<svg width="48" height="48" viewBox="0 0 48 48" fill="none" xmlns="http://www.w3.org/2000/svg">
<path d="M14 28.6C14 28.0399 14 27.7599 14.109 27.546C14.2049 27.3578 14.3578 27.2049 14.546 27.109C14.7599 27 15.0399 27 15.6 27H16.4C16.9601 27 17.2401 27 17.454 27.109C17.6422 27.2049 17.7951 27.3578 17.891 27.546C18 27.7599 18 28.0399 18 28.6V29.4C18 29.9601 18 30.2401 17.891 30.454C17.7951 30.6422 17.6422 30.7951 17.454 30.891C17.2401 31 16.9601 31 16.4 31H15.6C15.0399 31 14.7599 31 14.546 30.891C14.3578 30.7951 14.2049 30.6422 14.109 30.454C14 30.2401 14 29.9601 14 29.4V28.6Z" fill="black" fill-opacity="0.88"/>
<path d="M14 34.6C14 34.0399 14 33.7599 14.109 33.546C14.2049 33.3578 14.3578 33.2049 14.546 33.109C14.7599 33 15.0399 33 15.6 33H16.4C16.9601 33 17.2401 33 17.454 33.109C17.6422 33.2049 17.7951 33.3578 17.891 33.546C18 33.7599 18 34.0399 18 34.6V35.4C18 35.9601 18 36.2401 17.891 36.454C17.7951 36.6422 17.6422 36.7951 17.454 36.891C17.2401 37 16.9601 37 16.4 37H15.6C15.0399 37 14.7599 37 14.546 36.891C14.3578 36.7951 14.2049 36.6422 14.109 36.454C14 36.2401 14 35.9601 14 35.4V34.6Z" fill="black" fill-opacity="0.88"/>
<path d="M20.109 33.546C20 33.7599 20 34.0399 20 34.6V35.4C20 35.9601 20 36.2401 20.109 36.454C20.2049 36.6422 20.3578 36.7951 20.546 36.891C20.7599 37 21.0399 37 21.6 37H22.4C22.9601 37 23.2401 37 23.454 36.891C23.6422 36.7951 23.7951 36.6422 23.891 36.454C24 36.2401 24 35.9601 24 35.4V34.6C24 34.0399 24 33.7599 23.891 33.546C23.7951 33.3578 23.6422 33.2049 23.454 33.109C23.2401 33 22.9601 33 22.4 33H21.6C21.0399 33 20.7599 33 20.546 33.109C20.3578 33.2049 20.2049 33.3578 20.109 33.546Z" fill="black" fill-opacity="0.88"/>
<path d="M20 28.6C20 28.0399 20 27.7599 20.109 27.546C20.2049 27.3578 20.3578 27.2049 20.546 27.109C20.7599 27 21.0399 27 21.6 27H22.4C22.9601 27 23.2401 27 23.454 27.109C23.6422 27.2049 23.7951 27.3578 23.891 27.546C24 27.7599 24 28.0399 24 28.6V29.4C24 29.9601 24 30.2401 23.891 30.454C23.7951 30.6422 23.6422 30.7951 23.454 30.891C23.2401 31 22.9601 31 22.4 31H21.6C21.0399 31 20.7599 31 20.546 30.891C20.3578 30.7951 20.2049 30.6422 20.109 30.454C20 30.2401 20 29.9601 20 29.4V28.6Z" fill="black" fill-opacity="0.88"/>
<path fill-rule="evenodd" clip-rule="evenodd" d="M34.0479 7.65987C32.6696 6.3086 31.9805 5.63298 31.1801 5.15007C30.4704 4.7219 29.6984 4.40663 28.8919 4.21553C27.9823 4 27.0172 4 25.087 4H16.6C13.2397 4 11.5595 4 10.2761 4.65396C9.14708 5.2292 8.2292 6.14708 7.65396 7.27606C7 8.55953 7 10.2397 7 13.6V34.4C7 37.7603 7 39.4405 7.65396 40.7239C8.2292 41.8529 9.14708 42.7708 10.2761 43.346C11.5595 44 13.2397 44 16.6 44H31.4C34.7603 44 36.4405 44 37.7239 43.346C38.8529 42.7708 39.7708 41.8529 40.346 40.7239C41 39.4405 41 37.7603 41 34.4V19.852C41 17.8686 41 16.8769 40.7734 15.9452C40.5725 15.1191 40.2412 14.3304 39.792 13.6087C39.2853 12.7946 38.5772 12.1003 37.1609 10.7118L34.0479 7.65987ZM16.6 7H25.087C27.1579 7 27.711 7.01879 28.2002 7.1347C28.7043 7.25414 29.1868 7.45119 29.6303 7.7188C30.0608 7.97852 30.4689 8.35231 31.9477 9.80209L35.0607 12.854C36.5804 14.344 36.9725 14.7561 37.245 15.1939C37.5257 15.6449 37.7328 16.1379 37.8584 16.6542C37.9802 17.1552 38 17.7237 38 19.852V34.4C38 36.1297 37.9977 37.2465 37.9282 38.0965C37.8616 38.9115 37.7486 39.2136 37.673 39.362C37.3854 39.9265 36.9265 40.3854 36.362 40.673C36.2136 40.7486 35.9115 40.8616 35.0965 40.9282C34.2465 40.9977 33.1297 41 31.4 41H16.6C14.8703 41 13.7535 40.9977 12.9035 40.9282C12.0885 40.8616 11.7864 40.7486 11.638 40.673C11.0735 40.3854 10.6146 39.9265 10.327 39.362C10.2514 39.2136 10.1384 38.9115 10.0718 38.0965C10.0023 37.2465 10 36.1297 10 34.4V13.6C10 11.8703 10.0023 10.7535 10.0718 9.90351C10.1384 9.08852 10.2514 8.78636 10.327 8.63803C10.6146 8.07354 11.0735 7.6146 11.638 7.32698C11.7864 7.2514 12.0885 7.13837 12.9035 7.07178C13.7535 7.00233 14.8703 7 16.6 7Z" fill="black" fill-opacity="0.88"/>
</svg>
