<svg width="48" height="48" viewBox="0 0 48 48" fill="none" xmlns="http://www.w3.org/2000/svg">
<path fill-rule="evenodd" clip-rule="evenodd" d="M24 3C16.9016 3 10.3178 5.19031 4.90842 8.92206C4.34193 9.31287 4.01147 9.95662 4.00573 10.6448C4.00195 11.0991 4 11.558 4 11.7838C4 25.8998 11.5538 37.444 22.8946 44.3485C23.5739 44.7621 24.4261 44.7621 25.1054 44.3485C36.4462 37.444 44 25.8998 44 11.7838C44 11.558 43.9981 11.0991 43.9943 10.6448C43.9885 9.95662 43.6581 9.31287 43.0916 8.92206C37.6823 5.19031 31.0992 3 24 3ZM7.04599 13.6057C7.65154 25.5402 14.1922 35.3599 24 41.5052C33.8078 35.3599 40.3485 25.5402 40.954 13.6057L25.4637 24.7932C24.5899 25.4242 23.4101 25.4242 22.5363 24.7932L7.04599 13.6057ZM40.079 10.5371C35.419 7.66327 29.9103 6 24 6C18.0904 6 12.5812 7.66328 7.92101 10.5371L24 22.1497L40.079 10.5371Z" fill="black" fill-opacity="0.88"/>
</svg>
