<svg width="48" height="48" viewBox="0 0 48 48" fill="none" xmlns="http://www.w3.org/2000/svg">
<path d="M22.3114 22.7246C22.3114 22.1057 21.9312 21.5503 21.3542 21.3263C20.7773 21.1023 20.1219 21.2557 19.7043 21.7125L16.5157 25.2C15.9567 25.8114 15.9992 26.7602 16.6106 27.3192C17.222 27.8782 18.1708 27.8357 18.7298 27.2243L19.3114 26.5882V33.8847C19.3114 34.7132 19.9829 35.3847 20.8114 35.3847C21.6398 35.3847 22.3114 34.7132 22.3114 33.8847V22.7246Z" fill="black" fill-opacity="0.88"/>
<path d="M28.6886 22.7249C28.6886 21.8965 28.017 21.2249 27.1886 21.2249C26.3601 21.2249 25.6886 21.8965 25.6886 22.7249L25.6886 33.885C25.6886 34.5039 26.0687 35.0593 26.6457 35.2833C27.2227 35.5073 27.878 35.354 28.2956 34.8972L31.4842 31.4096C32.0432 30.7982 32.0007 29.8494 31.3893 29.2904C30.7779 28.7314 29.8291 28.7739 29.2701 29.3853L28.6886 30.0214L28.6886 22.7249Z" fill="black" fill-opacity="0.88"/>
<path fill-rule="evenodd" clip-rule="evenodd" d="M32.3679 11.0007C34.883 11.0064 36.2492 11.0613 37.3502 11.5885C38.4323 12.1068 39.3343 12.9376 39.9395 13.9736C40.6268 15.1502 40.7546 16.7045 41.0103 19.813L42.1454 33.6131C42.4419 37.2189 42.5902 39.0219 41.9795 40.4125C41.443 41.6343 40.5144 42.6424 39.3407 43.2774C38.0048 44 36.1957 44 32.5777 44H15.4217C11.8037 44 9.99464 44 8.65874 43.2774C7.485 42.6424 6.55642 41.6343 6.01985 40.4125C5.40915 39.0219 5.55745 37.2189 5.85404 33.613L6.9891 19.813C7.24479 16.7045 7.37263 15.1502 8.05991 13.9736C8.66512 12.9376 9.56706 12.1068 10.6492 11.5885C11.7502 11.0613 13.1164 11.0064 15.6315 11.0007C16.34 7.02165 19.8171 4 23.9997 4C28.1823 4 31.6594 7.02165 32.3679 11.0007ZM31.4426 14C33.0495 14 34.0812 14.0022 34.8695 14.0643C35.621 14.1235 35.9074 14.2239 36.0544 14.2943C36.5955 14.5534 37.0465 14.9688 37.3491 15.4868C37.4313 15.6275 37.5548 15.9048 37.6754 16.6489C37.8019 17.4294 37.8887 18.4575 38.0204 20.059L39.1555 33.859C39.308 35.7133 39.4046 36.918 39.4027 37.8374C39.4009 38.7245 39.3006 39.0518 39.2327 39.2063C38.9645 39.8172 38.5002 40.3212 37.9133 40.6387C37.7649 40.7189 37.4469 40.8458 36.563 40.9203C35.6468 40.9975 34.4382 41 32.5777 41H15.4217C13.5612 41 12.3526 40.9975 11.4364 40.9203C10.5525 40.8458 10.2345 40.7189 10.0861 40.6387C9.49923 40.3212 9.03494 39.8172 8.76666 39.2063C8.69883 39.0518 8.59851 38.7245 8.59671 37.8374C8.59483 36.918 8.69142 35.7132 8.84394 33.859L9.979 20.059C10.1107 18.4575 10.1975 17.4294 10.324 16.6489C10.4446 15.9048 10.5681 15.6275 10.6503 15.4868C10.9529 14.9688 11.4039 14.5534 11.945 14.2943C12.092 14.2239 12.3784 14.1235 13.1299 14.0643C13.9182 14.0022 14.9499 14 16.5568 14H31.4426ZM18.7067 11C19.3597 8.6915 21.4821 7 23.9997 7C26.5173 7 28.6397 8.6915 29.2927 11H18.7067Z" fill="black" fill-opacity="0.88"/>
</svg>
