<svg width="48" height="48" viewBox="0 0 48 48" fill="none" xmlns="http://www.w3.org/2000/svg">
<path fill-rule="evenodd" clip-rule="evenodd" d="M23.4679 33.9502C19.3395 33.9502 15.9928 30.6035 15.9928 26.4751C15.9928 22.3467 19.3395 19 23.4679 19C27.5963 19 30.943 22.3467 30.943 26.4751C30.943 27.9993 30.4868 29.4171 29.7034 30.5991L31.5554 32.451C32.1387 33.0344 32.1387 33.9802 31.5554 34.5635C30.972 35.1469 30.0262 35.1469 29.4428 34.5635L27.5907 32.7114C26.4089 33.4943 24.9916 33.9502 23.4679 33.9502ZM18.9928 26.4751C18.9928 28.9466 20.9964 30.9502 23.4679 30.9502C25.9394 30.9502 27.943 28.9466 27.943 26.4751C27.943 24.0036 25.9394 22 23.4679 22C20.9964 22 18.9928 24.0036 18.9928 26.4751Z" fill="black" fill-opacity="0.88"/>
<path fill-rule="evenodd" clip-rule="evenodd" d="M32.5479 11H32.3677C31.6593 7.02098 28.1823 4 23.9997 4C19.8171 4 16.3401 7.02098 15.6316 11H15.4514C13.3777 11 12.3408 11 11.4805 11.264C9.74367 11.797 8.34186 13.0882 7.6683 14.7755C7.33466 15.6113 7.24967 16.6447 7.07968 18.7114L5.74721 34.9114C5.55012 37.3076 5.45158 38.5056 5.69774 39.4757C6.19583 41.4386 7.65047 43.0178 9.56592 43.6751C10.5126 44 11.7147 44 14.1189 44H33.8804C36.2846 44 37.4867 44 38.4334 43.6751C40.3489 43.0178 41.8035 41.4386 42.3016 39.4757C42.5477 38.5057 42.4492 37.3077 42.2522 34.9117L40.9196 18.7114C40.7497 16.6446 40.6647 15.6113 40.331 14.7755C39.6575 13.0882 38.2557 11.797 36.5188 11.264C35.6585 11 34.6217 11 32.5479 11ZM23.9997 7C26.5172 7 28.6397 8.6915 29.2926 11H18.7067C19.3596 8.6915 21.4821 7 23.9997 7ZM32.5479 14H15.4514C13.1627 14 12.6835 14.0329 12.3606 14.132C11.4922 14.3985 10.7913 15.0441 10.4545 15.8878C10.3293 16.2015 10.2572 16.6764 10.0696 18.9573L8.73711 35.1573C8.51925 37.8061 8.5139 38.3765 8.60559 38.7379C8.85463 39.7193 9.58195 40.5089 10.5397 40.8376C10.8923 40.9586 11.4613 41 14.1189 41H33.8804C36.538 41 37.107 40.9586 37.4597 40.8376C38.4174 40.5089 39.1447 39.7193 39.3937 38.7379C39.4854 38.3765 39.4801 37.8061 39.2622 35.1573L37.9297 18.9573C37.7421 16.6764 37.6701 16.2015 37.5448 15.8878C37.208 15.0441 36.5071 14.3985 35.6387 14.132C35.3158 14.0329 34.8366 14 32.5479 14Z" fill="black" fill-opacity="0.88"/>
</svg>
