<svg width="48" height="48" viewBox="0 0 48 48" fill="none" xmlns="http://www.w3.org/2000/svg">
<path d="M16.4393 23.8366C16.4208 23.8523 16.402 23.8672 16.3827 23.8815C16.3479 23.9073 16.3119 23.9309 16.2749 23.9522C15.866 24.1882 15.3389 24.1488 14.9964 23.8064L14.2906 23.1005C13.9 22.71 13.8979 22.074 14.3136 21.7104C14.3763 21.6555 14.4394 21.6012 14.503 21.5475L14.5657 21.4947C15.7315 20.5195 17.0408 19.7254 18.4498 19.1418C20.2697 18.388 22.2202 18 24.1901 18C26.1599 18 28.1104 18.388 29.9303 19.1418C31.3393 19.7254 32.6486 20.5195 33.8144 21.4947L33.8771 21.5475C33.9407 21.6012 34.0038 21.6555 34.0665 21.7104C34.4822 22.074 34.4801 22.71 34.0896 23.1005L33.3837 23.8064C33.0412 24.1488 32.5142 24.1882 32.1053 23.9522C32.0683 23.9309 32.0322 23.9073 31.9974 23.8815C31.9782 23.8672 31.9593 23.8523 31.9408 23.8366C30.9955 23.037 29.9305 22.3872 28.7829 21.9118C27.3268 21.3087 25.7661 20.9983 24.1901 20.9983C22.614 20.9983 21.0533 21.3087 19.5972 21.9118C18.4496 22.3872 17.3846 23.037 16.4393 23.8366Z" fill="black" fill-opacity="0.88"/>
<path d="M19.8715 27.4831C19.8863 27.4746 19.901 27.4658 19.9155 27.4567C19.944 27.4389 19.9718 27.4198 19.9989 27.3995C20.4647 27.0509 20.9732 26.761 21.5131 26.5374C22.3618 26.1858 23.2714 26.0049 24.1901 26.0049C25.1087 26.0049 26.0183 26.1858 26.867 26.5374C27.4069 26.761 27.9154 27.0509 28.3812 27.3995C28.4083 27.4198 28.4362 27.4389 28.4646 27.4567C28.4791 27.4658 28.4938 27.4746 28.5086 27.4831C28.5532 27.5085 28.599 27.531 28.6458 27.5505C29.0502 27.719 29.5259 27.6642 29.8435 27.3466L30.554 26.636C30.9445 26.2455 30.9474 25.6079 30.5199 25.2583C29.7646 24.6408 28.9216 24.1359 28.0169 23.7612C26.8036 23.2587 25.5033 23 24.1901 23C22.8768 23 21.5765 23.2587 20.3632 23.7612C19.4586 24.1359 18.6155 24.6408 17.8603 25.2583C17.4327 25.6079 17.4356 26.2455 17.8261 26.636L18.5367 27.3466C18.8542 27.6642 19.3299 27.719 19.7344 27.5505C19.7811 27.531 19.827 27.5085 19.8715 27.4831Z" fill="black" fill-opacity="0.88"/>
<path d="M27.0185 30.1716C27.409 29.781 27.413 29.1377 26.9527 28.8325C26.6855 28.6554 26.4011 28.5039 26.1035 28.3806C25.4968 28.1293 24.8467 28 24.1901 28C23.5334 28 22.8833 28.1293 22.2766 28.3806C21.979 28.5039 21.6947 28.6554 21.4274 28.8325C20.9671 29.1377 20.9711 29.781 21.3616 30.1716L23.483 32.2929C23.8735 32.6834 24.5066 32.6834 24.8972 32.2929L27.0185 30.1716Z" fill="black" fill-opacity="0.88"/>
<path fill-rule="evenodd" clip-rule="evenodd" d="M14.4997 4C13.6713 4 12.9997 4.67157 12.9997 5.5V9.03887C11.7392 9.09701 10.8704 9.24211 10.1258 9.60421C9.03202 10.1361 8.12571 10.9879 7.52703 12.0466C6.84698 13.2492 6.74855 14.8345 6.55168 18.0051L5.63273 32.8051C5.41252 36.3516 5.30241 38.1249 5.92461 39.4894C6.47143 40.6886 7.3979 41.6744 8.56089 42.2944C9.88418 43 11.6609 43 15.2143 43H32.7851C36.3385 43 38.1152 43 39.4385 42.2944C40.6015 41.6744 41.528 40.6886 42.0748 39.4894C42.697 38.1249 42.5869 36.3517 42.3667 32.8051L41.4477 18.0051C41.2509 14.8345 41.1524 13.2492 40.4724 12.0466C39.8737 10.9879 38.9674 10.1361 37.8736 9.60421C37.129 9.24211 36.2602 9.09701 34.9997 9.03887V5.5C34.9997 4.67157 34.3281 4 33.4997 4C32.6713 4 31.9997 4.67157 31.9997 5.5V9H15.9997V5.5C15.9997 4.67157 15.3281 4 14.4997 4ZM39.3452 38.2447C39.0718 38.8443 38.6086 39.3372 38.0271 39.6472C37.8786 39.7264 37.5645 39.8497 36.6979 39.9223C35.7984 39.9975 34.6129 40 32.7851 40H15.2143C13.3865 40 12.2011 39.9975 11.3015 39.9223C10.435 39.8497 10.1208 39.7264 9.97235 39.6472C9.39086 39.3372 8.92762 38.8443 8.65421 38.2447C8.5844 38.0916 8.48076 37.7704 8.46207 36.9011C8.44268 35.9986 8.51369 34.8152 8.62696 32.991L9.54592 18.191C9.64732 16.5579 9.71471 15.5081 9.82822 14.7106C9.93659 13.9493 10.0577 13.666 10.1384 13.5233C10.4378 12.994 10.8909 12.5681 11.4378 12.3021C11.5853 12.2304 11.8755 12.1271 12.6421 12.0661C13.4451 12.0022 14.497 12 16.1332 12H31.8662C33.5024 12 34.5544 12.0022 35.3573 12.0661C36.1239 12.1271 36.4142 12.2304 36.5616 12.3021C37.1085 12.5681 37.5617 12.994 37.861 13.5233C37.9417 13.666 38.0628 13.9493 38.1712 14.7106C38.2846 15.5072 38.3519 16.5554 38.4532 18.1852L38.4535 18.191L39.3725 32.991C39.4857 34.8152 39.5567 35.9986 39.5373 36.9011C39.5187 37.7704 39.415 38.0916 39.3452 38.2447Z" fill="black" fill-opacity="0.88"/>
</svg>
