<svg width="48" height="48" viewBox="0 0 48 48" fill="none" xmlns="http://www.w3.org/2000/svg">
<path d="M24.4997 20C24.4997 19.1716 23.8281 18.5 22.9997 18.5C22.1713 18.5 21.4997 19.1716 21.4997 20V28C21.4997 28.8284 22.1713 29.5 22.9997 29.5H27.9997C28.8281 29.5 29.4997 28.8284 29.4997 28C29.4997 27.1716 28.8281 26.5 27.9997 26.5H24.4997V20Z" fill="black" fill-opacity="0.88"/>
<path fill-rule="evenodd" clip-rule="evenodd" d="M14.4997 4C13.6713 4 12.9997 4.67157 12.9997 5.5V9.03887C11.7392 9.09701 10.8704 9.24211 10.1258 9.60421C9.03202 10.1361 8.12571 10.9879 7.52703 12.0466C6.84698 13.2492 6.74855 14.8345 6.55168 18.0051L5.63273 32.8051C5.41252 36.3516 5.30241 38.1249 5.92461 39.4894C6.47143 40.6886 7.3979 41.6744 8.56089 42.2944C9.88418 43 11.6609 43 15.2143 43H32.7851C36.3385 43 38.1152 43 39.4385 42.2944C40.6015 41.6744 41.528 40.6886 42.0748 39.4894C42.697 38.1249 42.5869 36.3517 42.3667 32.8051L41.4477 18.0051C41.2509 14.8345 41.1524 13.2492 40.4724 12.0466C39.8737 10.9879 38.9674 10.1361 37.8736 9.60421C37.129 9.24211 36.2602 9.09701 34.9997 9.03887V5.5C34.9997 4.67157 34.3281 4 33.4997 4C32.6713 4 31.9997 4.67157 31.9997 5.5V9H15.9997V5.5C15.9997 4.67157 15.3281 4 14.4997 4ZM39.3452 38.2447C39.0718 38.8443 38.6086 39.3372 38.0271 39.6472C37.8786 39.7264 37.5645 39.8497 36.6979 39.9223C35.7984 39.9975 34.6129 40 32.7851 40H15.2143C13.3865 40 12.2011 39.9975 11.3015 39.9223C10.435 39.8497 10.1208 39.7264 9.97235 39.6472C9.39086 39.3372 8.92762 38.8443 8.65421 38.2447C8.5844 38.0916 8.48076 37.7704 8.46207 36.9011C8.44268 35.9986 8.51369 34.8152 8.62696 32.991L9.54592 18.191C9.64732 16.5579 9.71471 15.5081 9.82822 14.7106C9.93659 13.9493 10.0577 13.666 10.1384 13.5233C10.4378 12.994 10.8909 12.5681 11.4378 12.3021C11.5853 12.2304 11.8755 12.1271 12.6421 12.0661C13.4451 12.0022 14.497 12 16.1332 12H31.8662C33.5024 12 34.5544 12.0022 35.3573 12.0661C36.1239 12.1271 36.4142 12.2304 36.5616 12.3021C37.1085 12.5681 37.5617 12.994 37.861 13.5233C37.9417 13.666 38.0628 13.9493 38.1712 14.7106C38.2846 15.5072 38.3519 16.5554 38.4532 18.1852L38.4535 18.191L39.3725 32.991C39.4857 34.8152 39.5567 35.9986 39.5373 36.9011C39.5187 37.7704 39.415 38.0916 39.3452 38.2447Z" fill="black" fill-opacity="0.88"/>
</svg>
