<svg width="48" height="48" viewBox="0 0 48 48" fill="none" xmlns="http://www.w3.org/2000/svg">
<path fill-rule="evenodd" clip-rule="evenodd" d="M18.5 21C18.5 17.9624 20.9624 15.5 24 15.5C27.0376 15.5 29.5 17.9624 29.5 21C29.5 24.0376 27.0376 26.5 24 26.5C20.9624 26.5 18.5 24.0376 18.5 21ZM24 18.5C22.6193 18.5 21.5 19.6193 21.5 21C21.5 22.3807 22.6193 23.5 24 23.5C25.3807 23.5 26.5 22.3807 26.5 21C26.5 19.6193 25.3807 18.5 24 18.5Z" fill="black" fill-opacity="0.88"/>
<path fill-rule="evenodd" clip-rule="evenodd" d="M23.2915 4.11167C23.7515 3.96278 24.2485 3.96278 24.7085 4.11167C33.5284 6.96631 38.9121 15.6632 37.403 24.6182L37.0858 26.5003L40.8695 29.1695C41.5795 29.6704 42 30.4737 42 31.3291V34.3361C42 35.8073 40.779 37 39.2727 37H8.72727C7.22104 37 6 35.8073 6 34.3361V31.3291C6 30.4737 6.42054 29.6704 7.13048 29.1695L10.9142 26.5003L10.597 24.6182C9.08787 15.6632 14.4716 6.96631 23.2915 4.11167ZM14.1863 27.8635L9 31.5221V34H39V31.5221L33.8137 27.8635L34.4447 24.1197C35.6866 16.7503 31.3195 9.51809 24 7.03722C16.6805 9.51809 12.3134 16.7503 13.5553 24.1197L14.1863 27.8635Z" fill="black" fill-opacity="0.88"/>
<path d="M18.3854 39.0915C18.515 39 18.7061 39 19.0884 39H20.1867C20.5168 39 20.6819 39 20.8164 39.0499C20.9238 39.0897 21.0027 39.1386 21.0862 39.217C21.1908 39.3153 21.2726 39.4799 21.4363 39.8092C21.9548 40.8518 22.6215 41.7757 23.4018 42.5385C23.5933 42.7257 23.6891 42.8194 23.835 42.8611C23.9302 42.8883 24.0698 42.8883 24.1651 42.8611C24.3109 42.8194 24.4067 42.7257 24.5982 42.5385C25.3786 41.7757 26.0452 40.8518 26.5637 39.8092C26.7274 39.4799 26.8092 39.3153 26.9138 39.217C26.9973 39.1386 27.0762 39.0897 27.1836 39.0499C27.3182 39 27.4832 39 27.8133 39H28.9116C29.2939 39 29.485 39 29.6146 39.0915C29.7062 39.1561 29.7795 39.261 29.8089 39.3691C29.8504 39.5223 29.7881 39.6932 29.6634 40.0349C28.6615 42.7817 26.9373 45.0593 24.7806 46.5185C24.5274 46.6898 24.4008 46.7754 24.2126 46.8164C24.0926 46.8425 23.9075 46.8425 23.7875 46.8164C23.5992 46.7754 23.4726 46.6898 23.2194 46.5185C21.0627 45.0593 19.3386 42.7817 18.3366 40.0349C18.2119 39.6932 18.1496 39.5223 18.1911 39.3691C18.2205 39.261 18.2938 39.1561 18.3854 39.0915Z" fill="black" fill-opacity="0.88"/>
</svg>
