<svg width="48" height="48" viewBox="0 0 48 48" fill="none" xmlns="http://www.w3.org/2000/svg">
<path fill-rule="evenodd" clip-rule="evenodd" d="M26.2904 19.5543C25.6042 19.2 24.8255 19 24 19C21.2386 19 19 21.2386 19 24C19 26.7614 21.2386 29 24 29C26.7614 29 29 26.7614 29 24C29 23.1566 28.7912 22.3619 28.4224 21.665L33.4527 16.6347C34.0385 16.0489 34.0385 15.0991 33.4527 14.5134C32.8669 13.9276 31.9172 13.9276 31.3314 14.5133L26.2904 19.5543ZM26 24C26 25.1046 25.1046 26 24 26C22.8954 26 22 25.1046 22 24C22 22.8954 22.8954 22 24 22C25.1046 22 26 22.8954 26 24Z" fill="black" fill-opacity="0.88"/>
<path fill-rule="evenodd" clip-rule="evenodd" d="M44 24C44 35.0457 35.0457 44 24 44C12.9543 44 4 35.0457 4 24C4 12.9543 12.9543 4 24 4C35.0457 4 44 12.9543 44 24ZM7.31221 24C7.31221 33.2164 14.7836 40.6878 24 40.6878C33.2164 40.6878 40.6878 33.2164 40.6878 24C40.6878 14.7836 33.2164 7.31221 24 7.31221C14.7836 7.31221 7.31221 14.7836 7.31221 24Z" fill="black" fill-opacity="0.88"/>
</svg>
