<svg width="48" height="48" viewBox="0 0 48 48" fill="none" xmlns="http://www.w3.org/2000/svg">
<path d="M19 12C19 11.1716 19.6716 10.5 20.5 10.5H27.5C28.3284 10.5 29 11.1716 29 12C29 12.8284 28.3284 13.5 27.5 13.5H20.5C19.6716 13.5 19 12.8284 19 12Z" fill="black" fill-opacity="0.88"/>
<path d="M21.7502 23.4073C21.0328 23.8215 20.787 24.7389 21.2012 25.4563L25.7012 33.2505C26.1154 33.968 27.0328 34.2138 27.7502 33.7996C28.4676 33.3854 28.7135 32.468 28.2992 31.7505L23.7992 23.9563C23.385 23.2389 22.4676 22.9931 21.7502 23.4073Z" fill="black" fill-opacity="0.88"/>
<path d="M15.7503 23.4073C15.0328 23.8215 14.787 24.7389 15.2012 25.4563L19.7012 33.2506C20.1154 33.968 21.0328 34.2138 21.7503 33.7996C22.4677 33.3854 22.7135 32.468 22.2993 31.7506L17.7993 23.9563C17.3851 23.2389 16.4677 22.9931 15.7503 23.4073Z" fill="black" fill-opacity="0.88"/>
<path d="M32.2987 23.4073C33.0162 23.8215 33.262 24.7389 32.8478 25.4563L29.9293 30.5113L28.1973 27.5113L30.2497 23.9563C30.6639 23.2389 31.5813 22.9931 32.2987 23.4073Z" fill="black" fill-opacity="0.88"/>
<path fill-rule="evenodd" clip-rule="evenodd" d="M33 45.375C33 45.9102 32.4556 46.2731 31.9615 46.0673L22.2 42H16.6C13.2397 42 11.5595 42 10.2761 41.346C9.14708 40.7708 8.2292 39.8529 7.65396 38.7239C7 37.4405 7 35.7603 7 32.4V13.6C7 10.2397 7 8.55953 7.65396 7.27606C8.2292 6.14708 9.14708 5.2292 10.2761 4.65396C11.5595 4 13.2397 4 16.6 4H31.4C34.7603 4 36.4405 4 37.7239 4.65396C38.8529 5.2292 39.7708 6.14708 40.346 7.27606C41 8.55953 41 10.2397 41 13.6V32.4C41 35.7603 41 37.4405 40.346 38.7239C39.7708 39.8529 38.8529 40.7708 37.7239 41.346C36.6625 41.8868 35.3299 41.9804 33 41.9966V45.375ZM22.8 39L30 42V39.0174L32.9792 38.9967C35.4403 38.9796 36.0374 38.8384 36.362 38.673C36.9265 38.3854 37.3854 37.9265 37.673 37.362C37.7486 37.2136 37.8616 36.9115 37.9282 36.0965C37.9977 35.2465 38 34.1297 38 32.4V13.6C38 11.8703 37.9977 10.7535 37.9282 9.90351C37.8616 9.08852 37.7486 8.78636 37.673 8.63803C37.3854 8.07354 36.9265 7.6146 36.362 7.32698C36.2136 7.2514 35.9115 7.13837 35.0965 7.07178C34.2465 7.00233 33.1297 7 31.4 7H16.6C14.8703 7 13.7535 7.00233 12.9035 7.07178C12.0885 7.13837 11.7864 7.2514 11.638 7.32698C11.0735 7.6146 10.6146 8.07354 10.327 8.63803C10.2514 8.78636 10.1384 9.08852 10.0718 9.90351C10.0023 10.7535 10 11.8703 10 13.6V32.4C10 34.1297 10.0023 35.2465 10.0718 36.0965C10.1384 36.9115 10.2514 37.2136 10.327 37.362C10.6146 37.9265 11.0735 38.3854 11.638 38.673C11.7864 38.7486 12.0885 38.8616 12.9035 38.9282C13.7535 38.9977 14.8703 39 16.6 39H22.8Z" fill="black" fill-opacity="0.88"/>
</svg>
