<svg width="48" height="48" viewBox="0 0 48 48" fill="none" xmlns="http://www.w3.org/2000/svg">
<path fill-rule="evenodd" clip-rule="evenodd" d="M24.498 27.6081L29.8724 38.2616C30.7727 40.0464 33.3032 40.0464 34.2035 38.2616L47.474 11.9556C48.2736 10.3706 47.1696 8.3987 45.3085 8.3987H33.9583C31.9883 8.3987 30.2008 9.52146 29.3138 11.2797L24.498 20.826L20.2108 12.3273C19.7014 11.3153 19.2932 10.5041 18.6686 9.89025C18.119 9.35006 17.4576 8.93786 16.7304 8.6849C15.9016 8.39662 14.9977 8.39749 13.885 8.39857L4.54832 8.39869C4.19218 8.39862 3.82827 8.39855 3.52557 8.42682C3.2096 8.45634 2.72475 8.53183 2.27702 8.85357C1.72783 9.2482 1.37154 9.85065 1.28104 10.5122C1.20779 11.0477 1.35817 11.5065 1.47517 11.802C1.58769 12.0861 1.75282 12.4133 1.91649 12.7376L14.3222 37.3293C14.5135 37.7087 14.7003 38.0791 14.8795 38.3666C15.0549 38.6479 15.3692 39.1022 15.9169 39.364C16.5758 39.6789 17.3403 39.6789 17.9993 39.364C18.547 39.1022 18.8613 38.6479 19.0366 38.3666C19.2158 38.0791 19.4026 37.7088 19.5939 37.3294L24.498 27.6081ZM32.038 35.8937L26.1475 24.217L31.9923 12.6309C32.3794 11.8635 33.1433 11.3987 33.9583 11.3987H44.3949L32.038 35.8937Z" fill="black" fill-opacity="0.88"/>
</svg>
