<svg width="48" height="48" viewBox="0 0 48 48" fill="none" xmlns="http://www.w3.org/2000/svg">
<path fill-rule="evenodd" clip-rule="evenodd" d="M10.3499 26.2034C10.3499 26.8906 10.114 27.5569 9.6816 28.091L9.03943 28.8843C7.84855 30.3554 8.89554 32.55 10.7882 32.55H37.2115C39.1042 32.55 40.1512 30.3554 38.9603 28.8843L38.3181 28.091C37.8858 27.5569 37.6499 26.8906 37.6499 26.2034V18.9C37.6499 11.3613 31.5386 5.25 23.9999 5.25C16.4612 5.25 10.3499 11.3613 10.3499 18.9V26.2034ZM30 38.25H18C18 38.3503 18.0025 38.4503 18.0075 38.55C18.0553 39.5063 18.331 40.431 18.8038 41.25C19.0638 41.7003 19.3833 42.1186 19.7574 42.4926C20.8826 43.6179 22.4087 44.25 24 44.25C25.5913 44.25 27.1174 43.6179 28.2426 42.4926C28.6167 42.1186 28.9362 41.7003 29.1962 41.25C29.669 40.431 29.9447 39.5063 29.9925 38.55C29.9975 38.4503 30 38.3503 30 38.25ZM10.7882 35.55C6.37194 35.55 3.92897 30.4292 6.70769 26.9967L7.34987 26.2034V18.9C7.34987 9.70446 14.8043 2.25 23.9999 2.25C33.1954 2.25 40.6499 9.70446 40.6499 18.9V26.2034L41.292 26.9967C44.0708 30.4292 41.6278 35.55 37.2115 35.55H10.7882Z" fill="black" fill-opacity="0.88"/>
</svg>
