<svg width="48" height="48" viewBox="0 0 48 48" fill="none" xmlns="http://www.w3.org/2000/svg">
<path d="M12.4004 27.5H15.5996C16.7445 27.5 17.5137 27.5015 18.1055 27.5498C18.6792 27.5967 18.9537 27.6802 19.1348 27.7725C19.6052 28.0121 19.9879 28.3948 20.2275 28.8652C20.3198 29.0463 20.4033 29.3208 20.4502 29.8945C20.4985 30.4863 20.5 31.2555 20.5 32.4004V35.5996C20.5 36.7445 20.4985 37.5137 20.4502 38.1055C20.4033 38.6792 20.3198 38.9537 20.2275 39.1348C19.9879 39.6052 19.6052 39.9879 19.1348 40.2275C18.9537 40.3198 18.6792 40.4033 18.1055 40.4502C17.5137 40.4985 16.7445 40.5 15.5996 40.5H12.4004C11.2555 40.5 10.4863 40.4985 9.89453 40.4502C9.32077 40.4033 9.04631 40.3198 8.86523 40.2275C8.39483 39.9879 8.01214 39.6052 7.77246 39.1348C7.68023 38.9537 7.59671 38.6792 7.5498 38.1055C7.50146 37.5137 7.5 36.7445 7.5 35.5996V32.4004C7.5 31.2555 7.50146 30.4863 7.5498 29.8945C7.59671 29.3208 7.68023 29.0463 7.77246 28.8652C8.01214 28.3948 8.39483 28.0121 8.86523 27.7725C9.04631 27.6802 9.32077 27.5967 9.89453 27.5498C10.4863 27.5015 11.2555 27.5 12.4004 27.5ZM32.4004 27.5H35.5996C36.7445 27.5 37.5137 27.5015 38.1055 27.5498C38.6792 27.5967 38.9537 27.6802 39.1348 27.7725C39.6052 28.0121 39.9879 28.3948 40.2275 28.8652C40.3198 29.0463 40.4033 29.3208 40.4502 29.8945C40.4985 30.4863 40.5 31.2555 40.5 32.4004V35.5996C40.5 36.7445 40.4985 37.5137 40.4502 38.1055C40.4033 38.6792 40.3198 38.9537 40.2275 39.1348C39.9879 39.6052 39.6052 39.9879 39.1348 40.2275C38.9537 40.3198 38.6792 40.4033 38.1055 40.4502C37.5137 40.4985 36.7445 40.5 35.5996 40.5H32.4004C31.2555 40.5 30.4863 40.4985 29.8945 40.4502C29.3208 40.4033 29.0463 40.3198 28.8652 40.2275C28.3948 39.9879 28.0121 39.6052 27.7725 39.1348C27.6802 38.9537 27.5967 38.6792 27.5498 38.1055C27.5015 37.5137 27.5 36.7445 27.5 35.5996V32.4004C27.5 31.2555 27.5015 30.4863 27.5498 29.8945C27.5967 29.3208 27.6802 29.0463 27.7725 28.8652C28.0121 28.3948 28.3948 28.0121 28.8652 27.7725C29.0463 27.6802 29.3208 27.5967 29.8945 27.5498C30.4863 27.5015 31.2555 27.5 32.4004 27.5ZM34 7C37.866 7 41 10.134 41 14C41 17.866 37.866 21 34 21C30.134 21 27 17.866 27 14C27 10.134 30.134 7 34 7ZM12.4004 7.5H15.5996C16.7445 7.5 17.5137 7.50146 18.1055 7.5498C18.6792 7.59671 18.9537 7.68023 19.1348 7.77246C19.6052 8.01214 19.9879 8.39483 20.2275 8.86523C20.3198 9.04631 20.4033 9.32077 20.4502 9.89453C20.4985 10.4863 20.5 11.2555 20.5 12.4004V15.5996C20.5 16.7445 20.4985 17.5137 20.4502 18.1055C20.4033 18.6792 20.3198 18.9537 20.2275 19.1348C19.9879 19.6052 19.6052 19.9879 19.1348 20.2275C18.9537 20.3198 18.6792 20.4033 18.1055 20.4502C17.5137 20.4985 16.7445 20.5 15.5996 20.5H12.4004C11.2555 20.5 10.4863 20.4985 9.89453 20.4502C9.32077 20.4033 9.04631 20.3198 8.86523 20.2275C8.39483 19.9879 8.01214 19.6052 7.77246 19.1348C7.68023 18.9537 7.59671 18.6792 7.5498 18.1055C7.50146 17.5137 7.5 16.7445 7.5 15.5996V12.4004C7.5 11.2555 7.50146 10.4863 7.5498 9.89453C7.59671 9.32077 7.68023 9.04631 7.77246 8.86523C8.01214 8.39483 8.39483 8.01214 8.86523 7.77246C9.04631 7.68023 9.32077 7.59671 9.89453 7.5498C10.4863 7.50146 11.2555 7.5 12.4004 7.5Z" stroke="black" stroke-opacity="0.88" stroke-width="3"/>
</svg>
