<svg width="48" height="48" viewBox="0 0 48 48" fill="none" xmlns="http://www.w3.org/2000/svg">
<path d="M9.26465 16.6165C9.56269 16.6354 9.8883 16.5725 10.2415 16.4276L25.5154 10.2128C26.0953 9.97231 26.5919 9.65806 27.005 9.27C27.4174 8.87483 27.6981 8.44685 27.847 7.98604C28.0017 7.51744 27.9731 7.05734 27.7612 6.60574C27.5725 6.1876 27.2685 5.89286 26.8492 5.72153C26.4364 5.54952 25.9661 5.48766 25.4383 5.53596C24.9162 5.57647 24.3989 5.72418 23.8862 5.9791L18.6636 8.58508C18.4816 8.66882 18.3122 8.71535 18.1553 8.72466C17.9976 8.72688 17.8091 8.68566 17.5896 8.60102L9.38975 5.41338C9.13556 5.31085 8.88606 5.31554 8.64125 5.42743L8.05739 5.69342C7.9505 5.74056 7.89039 5.82585 7.87705 5.94931C7.86297 6.06567 7.91358 6.17164 8.02888 6.26722L13.3307 11.2366L10.322 12.734L5.68638 11.4891C5.55827 11.4595 5.44003 11.4612 5.33165 11.4941C5.22327 11.527 5.11361 11.6104 5.00267 11.7441L4.78554 12.0254C4.7099 12.1195 4.67443 12.2202 4.67912 12.3274C4.69032 12.4339 4.73981 12.5292 4.82759 12.6133L8.48449 16.2354C8.71233 16.4627 8.97238 16.5898 9.26465 16.6165Z" fill="black" fill-opacity="0.88"/>
<path fill-rule="evenodd" clip-rule="evenodd" d="M24.9998 20.5146L24.9998 23.4189L11.5143 25.3026C9.55951 25.5757 8.58209 25.7122 7.84664 26.182C7.19855 26.5959 6.68352 27.1879 6.36322 27.887C5.99975 28.6804 5.99975 29.6673 5.99975 31.6411V37.5998C5.99975 39.84 5.99975 40.9601 6.43572 41.8158C6.81922 42.5684 7.43114 43.1803 8.18379 43.5638C9.03944 43.9998 10.1595 43.9998 12.3998 43.9998H35.5998C37.84 43.9998 38.9601 43.9998 39.8157 43.5638C40.5684 43.1803 41.1803 42.5684 41.5638 41.8158C41.9997 40.9601 41.9997 39.84 41.9997 37.5998V22.224C41.9997 20.6691 41.9997 19.8916 41.75 19.2183C41.5292 18.6234 41.1701 18.0895 40.7023 17.6608C40.1728 17.1756 39.4527 16.8825 38.0125 16.2963L33.8125 14.5868C30.8626 13.3861 29.3876 12.7857 28.2025 13.0268C27.1663 13.2376 26.2556 13.8501 25.6698 14.7304C24.9998 15.7372 24.9998 17.3296 24.9998 20.5146ZM36.8815 19.0749L32.6815 17.3654C31.1533 16.7434 30.1952 16.3566 29.4707 16.1357C29.0247 15.9997 28.821 15.9782 28.7638 15.9748C28.5321 16.031 28.3281 16.1682 28.1886 16.3616C28.1703 16.4159 28.1134 16.6127 28.0712 17.077C28.0027 17.8314 27.9998 18.8646 27.9998 20.5146V40.9998H35.5998C36.7694 40.9998 37.4661 40.9975 37.9826 40.9553C38.2979 40.9295 38.4304 40.8955 38.4659 40.8845C38.6445 40.7904 38.7904 40.6445 38.8845 40.466C38.8955 40.4304 38.9295 40.2979 38.9552 39.9827C38.9974 39.4662 38.9997 38.7694 38.9997 37.5998V22.224C38.9997 21.4079 38.9982 20.9396 38.975 20.5882C38.9608 20.3722 38.9421 20.2822 38.936 20.2585C38.8812 20.1122 38.7928 19.9809 38.678 19.8749C38.6583 19.8604 38.582 19.8091 38.3874 19.7145C38.0706 19.5605 37.6375 19.3826 36.8815 19.0749ZM11.9294 28.2738L24.9998 26.448L24.9998 40.9998L12.3998 40.9998C11.2301 40.9998 10.5334 40.9975 10.0169 40.9553C9.70161 40.9295 9.56911 40.8955 9.5336 40.8845C9.35504 40.7904 9.20912 40.6445 9.11505 40.466C9.10402 40.4304 9.07004 40.2979 9.04428 39.9827C9.00208 39.4662 8.99975 38.7694 8.99975 37.5998V31.6411C8.99975 30.6084 9.00179 30.0022 9.03641 29.5507C9.05756 29.2748 9.08538 29.1592 9.09439 29.1284C9.17344 28.9599 9.29796 28.8167 9.45393 28.7151C9.48314 28.702 9.59379 28.6584 9.86416 28.5993C10.3065 28.5026 10.9066 28.4167 11.9294 28.2738ZM9.52325 40.8809C9.52337 40.8809 9.5255 40.8816 9.5293 40.8831L9.52483 40.8816C9.5237 40.8811 9.52319 40.8809 9.52325 40.8809Z" fill="black" fill-opacity="0.88"/>
</svg>
