<svg width="48" height="48" viewBox="0 0 48 48" fill="none" xmlns="http://www.w3.org/2000/svg">
<path d="M33.1455 22.6059C33.7095 21.9991 33.6748 21.05 33.0679 20.486C32.4611 19.9221 31.512 19.9568 30.948 20.5636L24.0002 28.0395L17.0519 20.5636C16.4879 19.9568 15.5388 19.9221 14.932 20.4861C14.3252 21.0501 14.2904 21.9992 14.8544 22.606L22.9015 31.264C23.1853 31.5693 23.5834 31.7428 24.0003 31.7428C24.4171 31.7428 24.8152 31.5693 25.099 31.264L33.1455 22.6059Z" fill="black" fill-opacity="0.88"/>
<path fill-rule="evenodd" clip-rule="evenodd" d="M40.8997 10.0265C40.132 8.20927 39.7482 7.30067 39.1253 6.63341C38.5748 6.0437 37.8932 5.59178 37.1358 5.31414C36.2787 5 35.2924 5 33.3197 5H14.6803C12.7077 5 11.7213 5 10.8643 5.31414C10.1068 5.59177 9.42529 6.0437 8.87479 6.6334C8.25188 7.30066 7.86805 8.20925 7.10038 10.0264L4.10956 17.1062C3.34659 18.9123 2.96511 19.8153 2.91956 20.7222C2.8793 21.5237 3.02719 22.3236 3.35139 23.0577C3.71821 23.8884 4.39737 24.5953 5.75568 26.0091L18.0667 38.8234C20.1356 40.9769 21.17 42.0536 22.3723 42.4549C23.4292 42.8077 24.5721 42.8077 25.6291 42.4548C26.8313 42.0535 27.8657 40.9767 29.9345 38.8232L42.2446 26.0091C43.6028 24.5953 44.2819 23.8883 44.6487 23.0577C44.9729 22.3236 45.1207 21.5238 45.0805 20.7223C45.0349 19.8154 44.6535 18.9124 43.8905 17.1064L40.8997 10.0265ZM14.6803 8H33.3197C35.5267 8 35.8664 8.04402 36.1034 8.13089C36.419 8.24657 36.7029 8.43488 36.9323 8.68059C37.1046 8.86511 37.2773 9.16084 38.1361 11.1939L41.127 18.2738C41.9805 20.2942 42.0716 20.6219 42.0842 20.8728C42.101 21.2067 42.0394 21.54 41.9043 21.8459C41.8029 22.0756 41.6006 22.3491 40.0811 23.9308L27.7711 36.7449C26.7017 37.8581 26.0251 38.5589 25.4727 39.0459C24.9458 39.5105 24.738 39.5896 24.6791 39.6092C24.2387 39.7562 23.7625 39.7562 23.3221 39.6092C23.2632 39.5896 23.0555 39.5106 22.5285 39.046C21.9761 38.5589 21.2995 37.8581 20.2301 36.745L7.91906 23.9307C6.39952 22.3491 6.19718 22.0756 6.09571 21.8458C5.96063 21.5399 5.89901 21.2067 5.91578 20.8727C5.92838 20.6218 6.01956 20.2941 6.87308 18.2737L9.86391 11.1939C10.7228 9.16084 10.8955 8.8651 11.0677 8.68058C11.2971 8.43487 11.5811 8.24657 11.8967 8.13089C12.1337 8.04402 12.4733 8 14.6803 8Z" fill="black" fill-opacity="0.88"/>
</svg>
