<svg width="48" height="48" viewBox="0 0 48 48" fill="none" xmlns="http://www.w3.org/2000/svg">
<path fill-rule="evenodd" clip-rule="evenodd" d="M41.1833 24.0688C40.4407 24.1602 39.746 23.6906 39.5519 22.971L39.5513 22.9691C39.5474 22.9571 39.537 22.9258 39.5179 22.8778C39.4796 22.7819 39.4067 22.6195 39.2825 22.4116C39.0359 21.9987 38.5798 21.3936 37.7693 20.7661C36.1595 19.5198 33.0103 18.08 27 18.08L20.5 18.08V22.58C20.5 23.2132 20.1024 23.7782 19.5064 23.992C18.9103 24.2057 18.2442 24.0221 17.8418 23.5332L5.84185 8.95323C5.47303 8.50511 5.39581 7.88445 5.64358 7.35963C5.89135 6.8348 6.41965 6.5 7.00002 6.5L28.5 6.5C33.2812 6.5 36.869 7.85714 39.2366 10.4704C41.5792 13.056 42.5 16.6236 42.5 20.58V22.58C42.5 23.3376 41.9352 23.9762 41.1833 24.0688ZM37.0134 12.4846C38.2798 13.8825 39.0627 15.8016 39.3616 18.2102C37.0672 16.5327 33.2622 15.08 27 15.08L19 15.08C18.1716 15.08 17.5 15.7516 17.5 16.58L17.5 18.3971L10.1773 9.5L28.5 9.5C32.7188 9.5 35.381 10.6829 37.0134 12.4846Z" fill="black" fill-opacity="0.88"/>
<path fill-rule="evenodd" clip-rule="evenodd" d="M6.81675 23.5112C7.5593 23.4198 8.25406 23.8893 8.44816 24.6089L8.44878 24.6109C8.4526 24.6228 8.46304 24.6541 8.48217 24.7021C8.52043 24.798 8.59334 24.9604 8.71752 25.1683C8.96414 25.5812 9.42023 26.1863 10.2308 26.8138C11.8405 28.0601 14.9898 29.4999 21 29.4999H27.5V24.9999C27.5 24.3667 27.8976 23.8017 28.4937 23.588C29.0897 23.3742 29.7558 23.5578 30.1582 24.0467L42.1582 38.6267C42.527 39.0748 42.6042 39.6955 42.3565 40.2203C42.1087 40.7451 41.5804 41.0799 41 41.0799H19.5C14.7188 41.0799 11.131 39.7228 8.7634 37.1096C6.42083 34.5239 5.50002 30.9563 5.50002 26.9999V24.9999C5.50002 24.2424 6.06487 23.6037 6.81675 23.5112ZM10.9866 35.0953C9.7202 33.6975 8.93733 31.7783 8.63844 29.3697C10.9328 31.0472 14.7378 32.4999 21 32.4999H29C29.8284 32.4999 30.5 31.8284 30.5 30.9999V29.1828L37.8227 38.0799H19.5C15.2812 38.0799 12.619 36.8971 10.9866 35.0953Z" fill="black" fill-opacity="0.88"/>
</svg>
