<svg width="48" height="48" viewBox="0 0 48 48" fill="none" xmlns="http://www.w3.org/2000/svg">
<path d="M6.90449 12.1252C6.47646 12.7044 5.59622 12.7087 5.35247 12.031C5.12432 11.3967 5 10.7129 5 10C5 6.68629 7.68629 4 11 4C12.038 4 13.0143 4.26356 13.8659 4.72741C14.4989 5.07222 14.3603 5.94245 13.7219 6.27731C11.0297 7.68948 8.69894 9.69711 6.90449 12.1252Z" fill="black" fill-opacity="0.88"/>
<path d="M41.095 12.1267C41.5229 12.7059 42.4031 12.7104 42.647 12.0328C42.8756 11.398 43.0001 10.7136 43.0001 10C43.0001 6.68629 40.3138 4 37.0001 4C35.9618 4 34.9851 4.26375 34.1333 4.72792C33.5004 5.07281 33.6391 5.94292 34.2773 6.27776C36.9697 7.69021 39.3006 9.69821 41.095 12.1267Z" fill="black" fill-opacity="0.88"/>
<path d="M22.5 18C22.5 17.4021 22.1449 16.8613 21.5963 16.6236C21.0477 16.3859 20.4103 16.4968 19.9741 16.9057L15.9741 20.6557C15.3697 21.2223 15.3391 22.1715 15.9057 22.7759C16.4723 23.3803 17.4215 23.4109 18.0259 22.8443L19.5 21.4623V30C19.5 30.8284 20.1716 31.5 21 31.5C21.8284 31.5 22.5 30.8284 22.5 30V18Z" fill="black" fill-opacity="0.88"/>
<path d="M26.4037 31.3764C25.8551 31.1387 25.5 30.5979 25.5 30V18C25.5 17.1716 26.1716 16.5 27 16.5C27.8284 16.5 28.5 17.1716 28.5 18V26.5377L29.9741 25.1557C30.5785 24.5891 31.5277 24.6197 32.0943 25.2241C32.6609 25.8285 32.6303 26.7777 32.0259 27.3443L28.0259 31.0943C27.5897 31.5032 26.9523 31.6141 26.4037 31.3764Z" fill="black" fill-opacity="0.88"/>
<path fill-rule="evenodd" clip-rule="evenodd" d="M13.2657 39.0691C16.2926 41.2292 19.9979 42.5 24 42.5C28.0021 42.5 31.7074 41.2292 34.7343 39.0691L37.8287 42.937C38.3462 43.5839 39.2901 43.6888 39.937 43.1713C40.5839 42.6538 40.6888 41.7099 40.1713 41.063L37.0284 37.1343C40.4074 33.7824 42.5 29.1356 42.5 24C42.5 13.7827 34.2173 5.5 24 5.5C13.7827 5.5 5.5 13.7827 5.5 24C5.5 29.1356 7.59258 33.7824 10.9716 37.1343L7.8287 41.063C7.31118 41.7099 7.41606 42.6538 8.06296 43.1713C8.70985 43.6888 9.65379 43.5839 10.1713 42.937L13.2657 39.0691ZM24 39.5C15.4396 39.5 8.5 32.5604 8.5 24C8.5 15.4396 15.4396 8.5 24 8.5C32.5604 8.5 39.5 15.4396 39.5 24C39.5 32.5604 32.5604 39.5 24 39.5Z" fill="black" fill-opacity="0.88"/>
</svg>
