<svg width="48" height="48" viewBox="0 0 48 48" fill="none" xmlns="http://www.w3.org/2000/svg">
<path d="M21.6198 15.634C22.1558 15.8772 22.5 16.4114 22.5 17V31C22.5 31.8284 21.8284 32.5 21 32.5C20.1716 32.5 19.5 31.8284 19.5 31V20.3056L16.9878 22.5039C16.3643 23.0494 15.4167 22.9862 14.8712 22.3628C14.3256 21.7393 14.3888 20.7917 15.0123 20.2461L20.0123 15.8711C20.4552 15.4836 21.0839 15.3908 21.6198 15.634Z" fill="black" fill-opacity="0.88"/>
<path d="M26.3802 32.3659C25.8442 32.1227 25.5 31.5886 25.5 31L25.5 17C25.5 16.1716 26.1716 15.5 27 15.5C27.8284 15.5 28.5 16.1716 28.5 17V27.6943L31.0123 25.4961C31.6357 24.9506 32.5834 25.0138 33.1289 25.6372C33.6744 26.2607 33.6112 27.2083 32.9878 27.7539L27.9878 32.1289C27.5448 32.5164 26.9162 32.6091 26.3802 32.3659Z" fill="black" fill-opacity="0.88"/>
<path fill-rule="evenodd" clip-rule="evenodd" d="M7 13.6C7 10.2397 7 8.55953 7.65396 7.27606C8.2292 6.14708 9.14708 5.2292 10.2761 4.65396C11.5595 4 13.2397 4 16.6 4H31.4C34.7603 4 36.4405 4 37.7239 4.65396C38.8529 5.2292 39.7708 6.14708 40.346 7.27606C41 8.55953 41 10.2397 41 13.6V34.4C41 37.7603 41 39.4405 40.346 40.7239C39.7708 41.8529 38.8529 42.7708 37.7239 43.346C36.4405 44 34.7603 44 31.4 44H16.6C13.2397 44 11.5595 44 10.2761 43.346C9.14708 42.7708 8.2292 41.8529 7.65396 40.7239C7 39.4405 7 37.7603 7 34.4V13.6ZM16.6 7H31.4C33.1297 7 34.2465 7.00233 35.0965 7.07178C35.9115 7.13837 36.2136 7.2514 36.362 7.32698C36.9265 7.6146 37.3854 8.07354 37.673 8.63803C37.7486 8.78636 37.8616 9.08852 37.9282 9.90351C37.9977 10.7535 38 11.8703 38 13.6V34.4C38 36.1297 37.9977 37.2465 37.9282 38.0965C37.8616 38.9115 37.7486 39.2136 37.673 39.362C37.3854 39.9265 36.9265 40.3854 36.362 40.673C36.2136 40.7486 35.9115 40.8616 35.0965 40.9282C34.2465 40.9977 33.1297 41 31.4 41H16.6C14.8703 41 13.7535 40.9977 12.9035 40.9282C12.0885 40.8616 11.7864 40.7486 11.638 40.673C11.0735 40.3854 10.6146 39.9265 10.327 39.362C10.2514 39.2136 10.1384 38.9115 10.0718 38.0965C10.0023 37.2465 10 36.1297 10 34.4V13.6C10 11.8703 10.0023 10.7535 10.0718 9.90351C10.1384 9.08852 10.2514 8.78636 10.327 8.63803C10.6146 8.07354 11.0735 7.6146 11.638 7.32698C11.7864 7.2514 12.0885 7.13837 12.9035 7.07178C13.7535 7.00233 14.8703 7 16.6 7Z" fill="black" fill-opacity="0.88"/>
</svg>
