<svg width="48" height="48" viewBox="0 0 48 48" fill="none" xmlns="http://www.w3.org/2000/svg">
<path d="M20.2471 16.3546C20.233 16.2964 20.2189 16.2379 20.2036 16.1791C20.1884 16.1791 20.1769 16.1785 20.1679 16.1781C20.1537 16.1774 20.1458 16.177 20.139 16.1796C18.5644 16.7967 17.0801 17.5729 15.7893 18.6812C15.0714 19.2976 14.4426 19.9909 14.0607 20.8728C13.644 21.8353 13.6751 22.7645 14.3253 23.6217C14.8007 24.2484 15.4585 24.6329 16.1737 24.9213C17.2055 25.3373 18.2884 25.5169 19.3936 25.5791C19.5216 25.5863 19.6052 25.5972 19.6215 25.766C19.6307 25.8623 19.6398 25.9585 19.6489 26.0548C19.7058 26.6584 19.7629 27.2628 19.8598 27.8605C20.0766 29.1968 20.4481 30.4896 21.0775 31.6972C21.4512 32.4141 21.9056 33.07 22.5538 33.57C23.5252 34.3193 24.6279 34.3041 25.5902 33.5415C26.1101 33.1294 26.4981 32.6097 26.8337 32.047C27.2767 31.3043 27.5848 30.5036 27.8315 29.6775C28.1018 28.7725 28.2809 27.8498 28.3864 26.9083C28.3768 26.9063 28.3681 26.9038 28.3602 26.9014C28.3452 26.897 28.3331 26.8933 28.3225 26.896C28.2474 26.9149 28.1722 26.9338 28.097 26.9526C27.75 27.0395 27.4029 27.1265 27.0589 27.224C27.0061 27.239 26.9557 27.3333 26.9408 27.3992C26.8884 27.6312 26.8399 27.8643 26.7913 28.0973C26.7046 28.5136 26.6178 28.9298 26.5092 29.3403C26.3707 29.8638 26.1536 30.3633 25.778 30.7714C25.4497 31.1282 25.0449 31.1377 24.6959 30.8027C24.6259 30.7356 24.5542 30.6628 24.5087 30.5789C24.4733 30.5137 24.4371 30.4488 24.4008 30.3838C24.2752 30.1586 24.1491 29.9327 24.0581 29.6939C23.5485 28.3569 23.4171 26.9497 23.3196 25.5375C23.3099 25.3972 23.365 25.3429 23.5003 25.32C24.7163 25.1141 25.9048 24.801 27.0624 24.3761C28.6866 23.7798 30.222 23.0178 31.5686 21.9136C32.3875 21.2422 33.1161 20.4927 33.5313 19.4955C33.8935 18.6256 33.8944 17.7667 33.3623 16.958C32.9833 16.3822 32.4408 15.9901 31.8285 15.6899C30.9472 15.2579 30.0066 15.0362 29.0392 14.9161C28.8084 14.8875 28.5765 14.8679 28.3353 14.8476C28.2221 14.838 28.1069 14.8283 27.9887 14.8174C28.0134 14.9149 28.0375 15.0085 28.061 15.0993C28.1164 15.3132 28.1677 15.5119 28.2116 15.7123C28.2401 15.8424 28.3184 15.878 28.4318 15.9214C28.5178 15.9543 28.6048 15.9859 28.6919 16.0176C28.9972 16.1288 29.3041 16.2405 29.5764 16.4071C30.3693 16.8921 30.5405 17.6975 30.0713 18.5017C29.638 19.2444 28.9834 19.7572 28.275 20.2089C27.0549 20.9869 25.7167 21.4866 24.3252 21.8549C24.1388 21.9042 23.9503 21.9452 23.7553 21.9876C23.6632 22.0076 23.5698 22.0279 23.4744 22.0496C23.4744 22.0249 23.4738 22.0043 23.4733 21.9861C23.4725 21.9536 23.4718 21.9293 23.475 21.9057C23.5904 21.0523 23.7546 20.2102 24.0573 19.4004C24.2362 18.9217 24.4528 18.4633 24.7972 18.0777C25.2654 17.5537 25.8042 17.5121 26.3453 17.953C26.3505 17.9572 26.3561 17.9619 26.3618 17.9668C26.3933 17.9934 26.4307 18.0251 26.4563 18.019C26.6513 17.973 26.8448 17.9209 27.0435 17.8674C27.1039 17.8511 27.1648 17.8347 27.2263 17.8183C26.8533 17.0393 26.4337 16.3371 25.8176 15.7729C25.3196 15.3166 24.7554 14.9973 24.056 14.995C23.4241 14.9929 22.8948 15.2586 22.4236 15.6527C21.8235 16.1547 21.3978 16.7926 21.0464 17.4824C20.3065 18.9348 19.9386 20.4949 19.7323 22.0991C19.713 22.2489 19.6749 22.2995 19.5192 22.2831C18.8262 22.2103 18.1575 22.0567 17.5417 21.7182C16.6501 21.228 16.414 20.4029 16.912 19.5182C17.1991 19.0081 17.6186 18.6175 18.073 18.2626C18.7342 17.7461 19.4657 17.347 20.2325 17.0128C20.3711 16.9524 20.4028 16.8898 20.3551 16.7491C20.3117 16.6209 20.2797 16.4888 20.2471 16.3546Z" fill="black" fill-opacity="0.88"/>
<path fill-rule="evenodd" clip-rule="evenodd" d="M33.1147 6.7449C32.0809 5.73146 31.5641 5.22473 30.9638 4.86255C30.4315 4.54143 29.8525 4.30497 29.2476 4.16165C28.5654 4 27.8416 4 26.394 4H16.6C13.2397 4 11.5595 4 10.2761 4.65396C9.14708 5.2292 8.2292 6.14708 7.65396 7.27606C7 8.55953 7 10.2397 7 13.6V34.4C7 37.7603 7 39.4405 7.65396 40.7239C8.2292 41.8529 9.14708 42.7708 10.2761 43.346C11.5595 44 13.2397 44 16.6 44H31.4C34.7603 44 36.4405 44 37.7239 43.346C38.8529 42.7708 39.7708 41.8529 40.346 40.7239C41 39.4405 41 37.7603 41 34.4V18.5079C41 17.0204 41 16.2766 40.83 15.5778C40.6794 14.9583 40.4309 14.3667 40.094 13.8254C39.714 13.2148 39.1829 12.6942 38.1208 11.6529L33.1147 6.7449ZM16.6 7H26.394C27.9823 7 28.2941 7.01879 28.556 7.08082C28.8584 7.15248 29.1479 7.27071 29.414 7.43128C29.6444 7.57027 29.8802 7.77516 31.0144 8.88712L36.0205 13.795C37.1861 14.9378 37.4012 15.1764 37.547 15.4106C37.7154 15.6812 37.8397 15.977 37.915 16.2868C37.9802 16.5549 38 16.8755 38 18.5079V34.4C38 36.1297 37.9977 37.2465 37.9282 38.0965C37.8616 38.9115 37.7486 39.2136 37.673 39.362C37.3854 39.9265 36.9265 40.3854 36.362 40.673C36.2136 40.7486 35.9115 40.8616 35.0965 40.9282C34.2465 40.9977 33.1297 41 31.4 41H16.6C14.8703 41 13.7535 40.9977 12.9035 40.9282C12.0885 40.8616 11.7864 40.7486 11.638 40.673C11.0735 40.3854 10.6146 39.9265 10.327 39.362C10.2514 39.2136 10.1384 38.9115 10.0718 38.0965C10.0023 37.2465 10 36.1297 10 34.4V13.6C10 11.8703 10.0023 10.7535 10.0718 9.90351C10.1384 9.08852 10.2514 8.78636 10.327 8.63803C10.6146 8.07354 11.0735 7.6146 11.638 7.32698C11.7864 7.2514 12.0885 7.13837 12.9035 7.07178C13.7535 7.00233 14.8703 7 16.6 7Z" fill="black" fill-opacity="0.88"/>
</svg>
