<svg width="48" height="48" viewBox="0 0 48 48" fill="none" xmlns="http://www.w3.org/2000/svg">
<path d="M22.7567 24.2662C23.1513 23.3919 23.3486 22.9547 23.6224 22.8194C23.8603 22.7018 24.1393 22.7018 24.3771 22.8194C24.6509 22.9547 24.8482 23.3919 25.2428 24.2661L25.6471 25.162C25.7638 25.4206 25.8222 25.5499 25.9118 25.6491C25.9911 25.7368 26.0877 25.8072 26.1956 25.8555C26.3175 25.9102 26.4584 25.9258 26.7401 25.9571L27.7159 26.0652C28.6682 26.1708 29.1444 26.2236 29.3576 26.4425C29.5428 26.6327 29.629 26.8984 29.5908 27.1613C29.5469 27.4638 29.1926 27.7868 28.4841 28.4327L27.7582 29.0945C27.5486 29.2856 27.4438 29.3811 27.3773 29.4971C27.3184 29.5997 27.2815 29.7135 27.2689 29.8312C27.2546 29.9642 27.2833 30.1031 27.3407 30.381L27.5395 31.3437C27.7335 32.2832 27.8305 32.753 27.6884 33.0236C27.565 33.2588 27.3393 33.423 27.0778 33.4678C26.7769 33.5195 26.3606 33.282 25.5282 32.8069L24.6752 32.3201C24.429 32.1796 24.3059 32.1093 24.1752 32.0818C24.0595 32.0574 23.94 32.0574 23.8244 32.0818C23.6937 32.1093 23.5706 32.1796 23.3244 32.32L22.4713 32.8069C21.6389 33.282 21.2226 33.5195 20.9217 33.4678C20.6602 33.423 20.4345 33.2588 20.3111 33.0236C20.169 32.753 20.266 32.2832 20.46 31.3437L20.6588 30.381C20.7162 30.1031 20.7449 29.9642 20.7306 29.8312C20.718 29.7135 20.6811 29.5997 20.6222 29.4971C20.5557 29.3811 20.4509 29.2856 20.2413 29.0945L19.5154 28.4327C18.8069 27.7868 18.4527 27.4638 18.4087 27.1613C18.3705 26.8984 18.4568 26.6327 18.642 26.4425C18.8551 26.2236 19.3313 26.1708 20.2837 26.0652L21.2595 25.9571C21.5411 25.9258 21.682 25.9102 21.8039 25.8555C21.9118 25.8072 22.0084 25.7368 22.0877 25.6491C22.1773 25.5499 22.2357 25.4206 22.3524 25.162L22.7567 24.2662Z" fill="black" fill-opacity="0.88"/>
<path d="M20.2529 15.2195C19.4457 15.2195 18.7914 15.8747 18.7914 16.6829C18.7914 17.4911 19.4457 18.1463 20.2529 18.1463H27.7475C28.5547 18.1463 29.2091 17.4911 29.2091 16.6829C29.2091 15.8747 28.5547 15.2195 27.7475 15.2195H20.2529Z" fill="black" fill-opacity="0.88"/>
<path d="M18.0179 6.60994C19.5055 4.9903 21.6555 4 24 4C26.345 4 28.4948 4.99064 29.9826 6.60985C30.5001 6.49428 31.0368 6.43367 31.5853 6.43367C35.4271 6.43367 38.786 9.46365 38.786 13.4979C38.786 14.6566 38.5017 15.7426 38.007 16.6967C41.0626 19.9786 43 24.2696 43 28.6543C43 33.1312 41.381 37.132 37.9274 39.9423C34.5622 42.6807 29.8109 44 24.0415 44C18.2716 44 13.5054 42.6806 10.1229 39.9495C6.65086 37.1461 5 33.1467 5 28.6543C5 24.2742 6.95064 19.9963 10.0066 16.7227C9.50341 15.7623 9.21405 14.6671 9.21405 13.4979C9.21405 9.46365 12.5729 6.43367 16.4147 6.43367C16.9635 6.43367 17.5003 6.49434 18.0179 6.60994ZM24 6.92683C22.2337 6.92683 20.6623 7.79484 19.7415 9.12676C19.3566 9.68343 18.6407 9.90312 18.0104 9.6579C17.5176 9.46617 16.9793 9.3605 16.4147 9.3605C14.0657 9.3605 12.1371 11.1992 12.1371 13.4979C12.1371 14.4495 12.466 15.3157 13.0157 16.0096C13.4864 16.6038 13.4258 17.4595 12.8761 17.9812C9.80915 20.8918 7.92308 24.8141 7.92308 28.6543C7.92308 32.3883 9.26673 35.4984 11.9578 37.6711C14.6449 39.8407 18.6719 41.0732 24.0415 41.0732C29.4111 41.0732 33.4174 39.8407 36.0839 37.671C38.7544 35.498 40.0769 32.3879 40.0769 28.6543C40.0769 24.8032 38.2019 20.869 35.1411 17.9567C34.5948 17.4369 34.5328 16.5865 34.9978 15.9927C35.5393 15.3014 35.8629 14.4417 35.8629 13.4979C35.8629 11.1992 33.9343 9.3605 31.5853 9.3605C31.021 9.3605 30.4828 9.46608 29.9903 9.65769C29.3602 9.90282 28.6445 9.68335 28.2595 9.12698C27.3379 7.79496 25.7665 6.92683 24 6.92683Z" fill="black" fill-opacity="0.88"/>
</svg>
