<svg width="48" height="48" viewBox="0 0 48 48" fill="none" xmlns="http://www.w3.org/2000/svg">
<path fill-rule="evenodd" clip-rule="evenodd" d="M36.5348 10.9998H38.2C39.8802 10.9998 40.7202 10.9998 41.362 11.3268C41.9265 11.6144 42.3854 12.0734 42.673 12.6378C43 13.2796 43 14.1197 43 15.7998V18.1998C43 19.88 43 20.7201 42.673 21.3618C42.3854 21.9263 41.9265 22.3852 41.362 22.6728C41.0057 22.8544 40.5883 22.9351 40 22.971V32.3998C40 35.7601 40 37.4403 39.346 38.7238C38.7708 39.8527 37.8529 40.7706 36.7239 41.3459C35.4405 41.9998 33.7603 41.9998 30.4 41.9998H17.6C14.2397 41.9998 12.5595 41.9998 11.2761 41.3459C10.1471 40.7706 9.2292 39.8527 8.65396 38.7238C8 37.4403 8 35.7601 8 32.3998V22.971C7.41168 22.9351 6.99429 22.8544 6.63803 22.6728C6.07354 22.3852 5.6146 21.9263 5.32698 21.3618C5 20.7201 5 19.88 5 18.1998V15.7998C5 14.1197 5 13.2796 5.32698 12.6378C5.6146 12.0734 6.07354 11.6144 6.63803 11.3268C7.27976 10.9998 8.11984 10.9998 9.8 10.9998H12.2343C12.0074 10.2981 12.0078 9.54268 12.2358 8.84124C12.3955 8.34958 12.6689 7.96345 12.9457 7.63741C13.2024 7.335 13.5368 7.0006 13.901 6.63649L14.3728 6.16468C14.7369 5.80052 15.0713 5.46607 15.3737 5.20934C15.6998 4.93256 16.0859 4.65918 16.5776 4.49943C17.2805 4.27102 18.0377 4.27102 18.7407 4.49943C19.2323 4.65918 19.6185 4.93256 19.9445 5.20935C20.2469 5.46607 20.5813 5.80053 20.9455 6.1647L24.3845 9.60379L27.8236 6.1647C28.1877 5.80054 28.5222 5.46607 28.8246 5.20935C29.1506 4.93256 29.5367 4.65918 30.0284 4.49943C30.7313 4.27102 31.4886 4.27102 32.1915 4.49943C32.6832 4.65918 33.0693 4.93256 33.3953 5.20934C33.6977 5.46607 34.0321 5.80052 34.3962 6.16468L34.8681 6.63649C35.2322 7.00059 35.5667 7.33501 35.8234 7.63741C36.1002 7.96345 36.3736 8.34958 36.5333 8.84124C36.7612 9.54268 36.7617 10.2981 36.5348 10.9998ZM32.8346 10.9998C33.1739 10.6599 33.3863 10.4434 33.5364 10.2667C33.6387 10.1461 33.6736 10.0872 33.6822 10.0708C33.7121 9.97439 33.7121 9.8712 33.6822 9.77481C33.6736 9.75836 33.6387 9.6995 33.5364 9.57894C33.3687 9.38141 33.1232 9.13423 32.7096 8.72071L32.312 8.3231C31.8985 7.90958 31.6513 7.66406 31.4538 7.49636C31.3332 7.39402 31.2744 7.35919 31.2579 7.35053C31.1615 7.32066 31.0584 7.32066 30.962 7.35052C30.9455 7.35918 30.8866 7.39402 30.7661 7.49636C30.5686 7.66406 30.3214 7.90958 29.9079 8.3231L27.2311 10.9998H32.8346ZM21.5379 10.9998L18.8612 8.3231C18.4477 7.90958 18.2005 7.66406 18.003 7.49636C17.8824 7.39402 17.8236 7.35918 17.8071 7.35052C17.7107 7.32066 17.6075 7.32066 17.5111 7.35053C17.4947 7.35919 17.4358 7.39402 17.3153 7.49636C17.1177 7.66406 16.8706 7.90958 16.457 8.3231L16.0594 8.72071C15.6459 9.13423 15.4004 9.38141 15.2327 9.57894C15.1303 9.6995 15.0955 9.75836 15.0869 9.77481C15.057 9.8712 15.057 9.97439 15.0869 10.0708C15.0955 10.0872 15.1303 10.1461 15.2327 10.2667C15.3828 10.4434 15.5951 10.6599 15.9345 10.9998H21.5379ZM15.0847 10.0666C15.0848 10.0667 15.0846 10.0663 15.0847 10.0666ZM15.0858 9.77682L15.0845 9.77975C15.0844 9.77977 15.0842 9.78028 15.0845 9.77975C15.0847 9.77927 15.0853 9.77779 15.0858 9.77682ZM17.5153 7.34843C17.5154 7.34841 17.5158 7.3482 17.5153 7.34843ZM17.8022 7.34814L17.8051 7.34949C17.8031 7.34848 17.8021 7.34809 17.8022 7.34814ZM33.6846 10.0658C33.6847 10.0656 33.6846 10.0658 33.6846 10.0658L33.6832 10.0688C33.6839 10.0675 33.6844 10.0663 33.6846 10.0658ZM33.6846 9.77975L33.6832 9.77682C33.6843 9.77883 33.6847 9.77978 33.6846 9.77975ZM31.2535 7.34834C31.2535 7.34831 31.2531 7.34818 31.2535 7.34834ZM30.9669 7.34814L30.964 7.34949C30.966 7.34848 30.9669 7.34809 30.9669 7.34814ZM38.2 13.9998H9.8C8.91042 13.9998 8.42366 14.0021 8.0739 14.0307L8.03434 14.0342L8.03091 14.0737C8.00233 14.4235 8 14.9102 8 15.7998V18.1998C8 19.0894 8.00233 19.5762 8.03091 19.9259L8.03435 19.9655L8.0739 19.9689C8.42366 19.9975 8.91042 19.9998 9.8 19.9998H38.2C39.0896 19.9998 39.5763 19.9975 39.9261 19.9689L39.9657 19.9655L39.9691 19.9259C39.9977 19.5762 40 19.0894 40 18.1998V15.7998C40 14.9102 39.9977 14.4235 39.9691 14.0737L39.9656 14.0342L39.9261 14.0307C39.5763 14.0021 39.0896 13.9998 38.2 13.9998ZM11 32.3998V22.9998H37V32.3998C37 34.1295 36.9977 35.2463 36.9282 36.0963C36.8616 36.9113 36.7486 37.2135 36.673 37.3618C36.3854 37.9263 35.9265 38.3852 35.362 38.6728C35.2136 38.7484 34.9115 38.8615 34.0965 38.928C33.2465 38.9975 32.1297 38.9998 30.4 38.9998H17.6C15.8703 38.9998 14.7535 38.9975 13.9035 38.928C13.0885 38.8615 12.7864 38.7484 12.638 38.6728C12.0735 38.3852 11.6146 37.9263 11.327 37.3618C11.2514 37.2135 11.1384 36.9113 11.0718 36.0963C11.0023 35.2463 11 34.1295 11 32.3998Z" fill="black" fill-opacity="0.88"/>
</svg>
