<svg width="48" height="48" viewBox="0 0 48 48" fill="none" xmlns="http://www.w3.org/2000/svg">
<path d="M20.5837 14.9966C20.0295 14.3808 19.0811 14.3309 18.4653 14.8851C17.8495 15.4393 17.7996 16.3877 18.3538 17.0035L22.128 21.197H18C17.1716 21.197 16.5 21.8685 16.5 22.697C16.5 23.5254 17.1716 24.197 18 24.197H22.4688V26.4913H18C17.1716 26.4913 16.5 27.1629 16.5 27.9913C16.5 28.8197 17.1716 29.4913 18 29.4913H22.4688V31.9173C22.4688 32.7458 23.1403 33.4173 23.9688 33.4173C24.7972 33.4173 25.4688 32.7458 25.4688 31.9173V29.4913H30C30.8284 29.4913 31.5 28.8197 31.5 27.9913C31.5 27.1629 30.8284 26.4913 30 26.4913H25.4688V24.197H30C30.8284 24.197 31.5 23.5254 31.5 22.697C31.5 21.8685 30.8284 21.197 30 21.197H25.8095L29.5837 17.0035C30.1379 16.3877 30.088 15.4393 29.4722 14.8851C28.8564 14.3309 27.908 14.3808 27.3538 14.9966L23.9688 18.7577L20.5837 14.9966Z" fill="black" fill-opacity="0.88"/>
<path fill-rule="evenodd" clip-rule="evenodd" d="M4 32.4C4 35.7603 4 37.4405 4.65396 38.7239C5.2292 39.8529 6.14708 40.7708 7.27606 41.346C8.55953 42 10.2397 42 13.6 42H34.4C37.7603 42 39.4405 42 40.7239 41.346C41.8529 40.7708 42.7708 39.8529 43.346 38.7239C44 37.4405 44 35.7603 44 32.4V29.1143C44 28.7043 44 28.4992 43.9547 28.3539C43.9021 28.185 43.8762 28.1381 43.7616 28.0034C43.6629 27.8875 43.3973 27.7196 42.866 27.3838C41.7447 26.6751 41 25.4245 41 24C41 22.5755 41.7447 21.3249 42.866 20.6162C43.3973 20.2804 43.6629 20.1125 43.7616 19.9966C43.8762 19.8619 43.9021 19.815 43.9547 19.6461C44 19.5008 44 19.2957 44 18.8857V15.6C44 12.2397 44 10.5595 43.346 9.27606C42.7708 8.14708 41.8529 7.2292 40.7239 6.65396C39.4405 6 37.7603 6 34.4 6H13.6C10.2397 6 8.55953 6 7.27606 6.65396C6.14708 7.2292 5.2292 8.14708 4.65396 9.27606C4 10.5595 4 12.2397 4 15.6V18.8857C4 19.2957 4 19.5008 4.0453 19.6461C4.09794 19.815 4.12378 19.8619 4.23841 19.9966C4.33707 20.1125 4.60272 20.2804 5.13403 20.6162C6.25533 21.3249 7 22.5755 7 24C7 25.4245 6.25533 26.6751 5.13403 27.3838C4.60272 27.7196 4.33707 27.8875 4.23841 28.0034C4.12378 28.1381 4.09794 28.185 4.0453 28.3539C4 28.4992 4 28.7043 4 29.1143V32.4ZM7 15.6C7 13.8703 7.00233 12.7535 7.07178 11.9035C7.13837 11.0885 7.2514 10.7864 7.32698 10.638C7.6146 10.0735 8.07354 9.6146 8.63803 9.32698C8.78636 9.2514 9.08852 9.13837 9.90351 9.07178C10.7535 9.00233 11.8703 9 13.6 9H34.4C36.1297 9 37.2465 9.00233 38.0965 9.07178C38.9115 9.13837 39.2136 9.2514 39.362 9.32698C39.9265 9.6146 40.3854 10.0735 40.673 10.638C40.7486 10.7864 40.8616 11.0885 40.9282 11.9035C40.9977 12.7535 41 13.8703 41 15.6V18.255C39.1921 19.5156 38 21.6176 38 24C38 26.3824 39.1921 28.4844 41 29.745V32.4C41 34.1297 40.9977 35.2465 40.9282 36.0965C40.8616 36.9115 40.7486 37.2136 40.673 37.362C40.3854 37.9265 39.9265 38.3854 39.362 38.673C39.2136 38.7486 38.9115 38.8616 38.0965 38.9282C37.2465 38.9977 36.1297 39 34.4 39H13.6C11.8703 39 10.7535 38.9977 9.90351 38.9282C9.08852 38.8616 8.78636 38.7486 8.63803 38.673C8.07354 38.3854 7.6146 37.9265 7.32698 37.362C7.2514 37.2136 7.13837 36.9115 7.07178 36.0965C7.00233 35.2465 7 34.1297 7 32.4V29.745C8.80788 28.4844 10 26.3824 10 24C10 21.6176 8.80788 19.5156 7 18.255V15.6Z" fill="black" fill-opacity="0.88"/>
</svg>
