<svg width="48" height="48" viewBox="0 0 48 48" fill="none" xmlns="http://www.w3.org/2000/svg">
<path d="M19.9876 15.6945C18.138 17.1913 15.7476 19.395 15.1443 20.0603C15.5103 20.4962 15.8989 20.9126 16.3086 21.3077C16.3355 21.3346 16.3681 21.3551 16.404 21.3678C16.4399 21.3805 16.4782 21.3851 16.516 21.3811C16.5539 21.3771 16.5904 21.3647 16.6228 21.3448C16.6553 21.3249 16.6829 21.298 16.7036 21.2661C18.533 19.499 20.5081 17.6903 21.6722 16.7962C23.6057 15.2993 25.8925 15.1539 28.117 16.921C29.0486 17.6666 29.9306 18.4721 30.7573 19.3326C31.9343 20.6335 33.018 22.0158 34.0004 23.4692C33.993 23.1756 33.9584 22.8832 33.897 22.596C33.8704 22.4801 33.8285 22.3682 33.7722 22.2634C33.1203 21.0715 32.3468 19.9503 31.4641 18.9176C28.9693 16.0063 27.4101 15.1332 26.3915 14.5927C25.04 13.9067 22.4414 13.6987 19.9876 15.6945Z" fill="black" fill-opacity="0.88"/>
<path d="M17.6385 22.6796C18.3662 21.848 22.1082 18.3762 23.0229 17.7109C24.4783 16.6506 25.9335 16.8795 27.1808 17.5239C28.2827 18.1268 31.1513 20.5382 33.8538 24.4261C33.9415 24.569 33.9712 24.7401 33.9369 24.9042C33.8959 25.1745 33.8335 25.4862 33.8335 25.4862C33.3969 24.8625 30.8398 21.4738 27.9709 19.3125C26.8068 18.4393 25.4971 18.5224 24.3952 19.4579C24.0003 19.7697 21.0482 22.3685 19.6137 23.8237C19.5771 23.8751 19.5303 23.9183 19.4762 23.9506C19.4221 23.9829 19.3618 24.0036 19.2993 24.0114C19.2367 24.0193 19.1732 24.014 19.1128 23.996C19.0524 23.9779 18.9964 23.9476 18.9484 23.9068C18.4832 23.5292 18.0455 23.1192 17.6385 22.6796Z" fill="black" fill-opacity="0.88"/>
<path d="M28.2933 21.0748C29.0226 21.6522 31.6683 24.0238 33.4403 26.3334C33.4698 26.3918 33.4834 26.4569 33.4796 26.5223C33.4758 26.5876 33.4548 26.6508 33.4187 26.7053C33.3353 26.9115 33.1895 27.2209 33.1895 27.2209C33.1895 27.2003 32.5435 26.4166 31.7308 25.5504C30.6057 24.3956 29.6679 23.529 29.0844 23.034C28.8131 22.7693 28.4614 22.6024 28.0848 22.5597C27.7433 22.5634 27.4157 22.696 27.1678 22.9309C27.1292 22.9692 27.0587 23.031 26.9613 23.1165C26.9012 23.1694 26.8307 23.2313 26.7511 23.3022C25.8343 24.1478 23.8546 25.942 22.8127 26.8082L22.7389 26.8707C22.6248 26.9671 22.5275 27.0494 22.4585 27.1176C22.071 27.4742 21.5679 27.6792 21.0416 27.695C20.4758 27.6825 19.9343 27.4623 19.5205 27.0763C16.8111 24.7458 14.8319 22.4154 14.3943 21.7966C14.3669 21.7465 14.3509 21.6909 14.3473 21.6339C14.3436 21.5769 14.3526 21.5198 14.3734 21.4666C14.4568 21.2398 14.6026 20.9511 14.6026 20.9511C14.6026 20.9511 15.2695 21.7348 16.0613 22.6215C16.8792 23.5256 17.764 24.3666 18.7084 25.1376C18.9741 25.4102 19.3288 25.5785 19.708 25.6119C20.0496 25.6082 20.3771 25.4756 20.625 25.2407C20.7082 25.1583 23.9591 22.2091 25.001 21.3428L25.0748 21.2803C25.1888 21.184 25.2862 21.1017 25.3552 21.0334C25.7427 20.6769 26.2457 20.4719 26.7721 20.4561C27.2723 20.4561 27.773 20.6629 28.2933 21.0748Z" fill="black" fill-opacity="0.88"/>
<path d="M30.361 25.3202C29.6334 26.1524 25.8912 29.6236 24.9765 30.2889C23.5216 31.3484 22.0663 31.1204 20.8189 30.4349C19.717 29.8317 16.8481 27.4199 14.1456 23.5324C14.058 23.3894 14.0284 23.2182 14.0629 23.0541C14.1039 22.7838 14.1663 22.472 14.1663 22.472C14.6028 23.1165 17.1393 26.5052 20.0081 28.6672C21.1931 29.5404 22.5028 29.4573 23.6047 28.5217C23.9998 28.21 26.9519 25.6112 28.3857 24.156C28.4223 24.1046 28.4691 24.0614 28.5232 24.0291C28.5773 23.9968 28.6376 23.976 28.7001 23.9682C28.7627 23.9604 28.8262 23.9657 28.8866 23.9837C28.947 24.0017 29.003 24.0321 29.051 24.0729C29.5138 24.4603 29.9514 24.8769 30.361 25.3202Z" fill="black" fill-opacity="0.88"/>
<path d="M28.0126 32.3053C29.8629 30.8083 32.2537 28.6048 32.8559 27.9395C32.4899 27.5036 32.1013 27.0872 31.6916 26.6921C31.6647 26.6652 31.6321 26.6447 31.5962 26.632C31.5603 26.6193 31.522 26.6147 31.4842 26.6187C31.4463 26.6227 31.4098 26.6351 31.3774 26.655C31.3449 26.6749 31.3173 26.7017 31.2966 26.7337C29.4673 28.5008 27.4923 30.3095 26.3282 31.2036C24.3947 32.7005 22.1079 32.8459 19.8834 31.0788C18.9517 30.3331 18.0697 29.5273 17.2431 28.6666C16.0661 27.3658 14.9824 25.9835 14 24.5301C14.0084 24.8236 14.043 25.1159 14.1034 25.4033C14.13 25.5195 14.1722 25.6316 14.2287 25.7366C14.8804 26.9289 15.6538 28.0506 16.5364 29.0837C19.0311 31.9931 20.5903 32.8666 21.6089 33.4064C22.9603 34.0933 25.559 34.3011 28.0126 32.3053Z" fill="black" fill-opacity="0.88"/>
<path fill-rule="evenodd" clip-rule="evenodd" d="M33.1147 6.7449C32.0809 5.73146 31.5641 5.22473 30.9638 4.86255C30.4315 4.54143 29.8525 4.30497 29.2476 4.16165C28.5654 4 27.8416 4 26.394 4H16.6C13.2397 4 11.5595 4 10.2761 4.65396C9.14708 5.2292 8.2292 6.14708 7.65396 7.27606C7 8.55953 7 10.2397 7 13.6V34.4C7 37.7603 7 39.4405 7.65396 40.7239C8.2292 41.8529 9.14708 42.7708 10.2761 43.346C11.5595 44 13.2397 44 16.6 44H31.4C34.7603 44 36.4405 44 37.7239 43.346C38.8529 42.7708 39.7708 41.8529 40.346 40.7239C41 39.4405 41 37.7603 41 34.4V18.5079C41 17.0204 41 16.2766 40.83 15.5778C40.6794 14.9583 40.4309 14.3667 40.094 13.8254C39.714 13.2148 39.1829 12.6942 38.1208 11.6529L33.1147 6.7449ZM16.6 7H26.394C27.9823 7 28.2941 7.01879 28.556 7.08082C28.8584 7.15248 29.1479 7.27071 29.414 7.43128C29.6444 7.57027 29.8802 7.77516 31.0144 8.88712L36.0205 13.795C37.1861 14.9378 37.4012 15.1764 37.547 15.4106C37.7154 15.6812 37.8397 15.977 37.915 16.2868C37.9802 16.5549 38 16.8755 38 18.5079V34.4C38 36.1297 37.9977 37.2465 37.9282 38.0965C37.8616 38.9115 37.7486 39.2136 37.673 39.362C37.3854 39.9265 36.9265 40.3854 36.362 40.673C36.2136 40.7486 35.9115 40.8616 35.0965 40.9282C34.2465 40.9977 33.1297 41 31.4 41H16.6C14.8703 41 13.7535 40.9977 12.9035 40.9282C12.0885 40.8616 11.7864 40.7486 11.638 40.673C11.0735 40.3854 10.6146 39.9265 10.327 39.362C10.2514 39.2136 10.1384 38.9115 10.0718 38.0965C10.0023 37.2465 10 36.1297 10 34.4V13.6C10 11.8703 10.0023 10.7535 10.0718 9.90351C10.1384 9.08852 10.2514 8.78636 10.327 8.63803C10.6146 8.07354 11.0735 7.6146 11.638 7.32698C11.7864 7.2514 12.0885 7.13837 12.9035 7.07178C13.7535 7.00233 14.8703 7 16.6 7Z" fill="black" fill-opacity="0.88"/>
</svg>
