<svg width="48" height="48" viewBox="0 0 48 48" fill="none" xmlns="http://www.w3.org/2000/svg">
<path d="M18.4238 6C19.1215 6 19.4706 6.00023 19.8018 6.03711C21.1427 6.18652 22.3946 6.78319 23.3545 7.73145C23.5915 7.96563 23.811 8.23695 24.25 8.7793C24.3964 8.9601 24.4698 9.05084 24.5488 9.12891C24.8687 9.44479 25.2856 9.64352 25.7324 9.69336C25.7875 9.6995 25.8443 9.70256 25.916 9.7041L26.1924 9.70605H34.4004C37.7601 9.70605 39.4403 9.70566 40.7236 10.3594C41.8526 10.9346 42.7705 11.8534 43.3457 12.9824C43.9995 14.2658 44 15.9457 44 19.3057V32.4004L43.999 33.584C43.9901 36.1741 43.9179 37.6006 43.3457 38.7236C42.7705 39.8526 41.8526 40.7705 40.7236 41.3457C39.6006 41.9179 38.1741 41.9901 35.584 41.999L34.4004 42H13.5996C10.4494 42 8.7759 41.9999 7.52148 41.4609L7.27637 41.3457C6.21805 40.8065 5.34459 39.9667 4.76562 38.9336L4.6543 38.7236C4.08214 37.6006 4.00992 36.1741 4.00098 33.584L4 32.4004V15.5996C4 12.4494 4.00014 10.7759 4.53906 9.52148L4.6543 9.27637C5.19353 8.21805 6.03334 7.34459 7.06641 6.76562L7.27637 6.6543C8.55977 6.00042 10.2397 6 13.5996 6H18.4238ZM13.5996 9C11.8702 9 10.7533 9.00282 9.90332 9.07227C9.0885 9.13886 8.78601 9.25158 8.6377 9.32715C8.07347 9.61472 7.61472 10.0735 7.32715 10.6377C7.25158 10.786 7.13886 11.0885 7.07227 11.9033C7.00282 12.7533 7 13.8702 7 15.5996V32.4004C7 34.1298 7.00282 35.2467 7.07227 36.0967C7.13886 36.9115 7.25158 37.214 7.32715 37.3623C7.61472 37.9265 8.07347 38.3853 8.6377 38.6729C8.78601 38.7484 9.0885 38.8611 9.90332 38.9277C10.7533 38.9972 11.8702 39 13.5996 39H34.4004C36.1298 39 37.2467 38.9972 38.0967 38.9277C38.9115 38.8611 39.214 38.7484 39.3623 38.6729C39.9265 38.3853 40.3853 37.9265 40.6729 37.3623C40.7484 37.214 40.8611 36.9115 40.9277 36.0967C40.9972 35.2467 41 34.1298 41 32.4004V19.3057C41 17.5761 40.9972 16.4594 40.9277 15.6094C40.8611 14.7944 40.7484 14.4921 40.6729 14.3438C40.3853 13.7795 39.9265 13.3208 39.3623 13.0332C39.214 12.9576 38.9115 12.8439 38.0967 12.7773C37.2467 12.7079 36.1298 12.7061 34.4004 12.7061H26.1924C26.0274 12.7061 25.7152 12.7099 25.4004 12.6748C24.283 12.5503 23.2403 12.0529 22.4404 11.2627C22.2151 11.0401 22.0218 10.7952 21.918 10.667C21.4369 10.0728 21.3368 9.95582 21.2461 9.86621C20.7662 9.39208 20.1402 9.09326 19.4697 9.01855C19.343 9.00443 19.1892 9 18.4238 9H13.5996ZM23.5 19.5C25.4623 19.5 27.1315 20.7559 27.7471 22.5078C27.8307 22.5026 27.915 22.5 28 22.5C30.2091 22.5 32 24.2909 32 26.5C32 28.7091 30.2091 30.5 28 30.5H19.5C17.567 30.5 16 28.933 16 27C16 25.2284 17.3166 23.7644 19.0244 23.5322C19.2585 21.2668 21.1727 19.5 23.5 19.5Z" fill="black" fill-opacity="0.88"/>
<path d="M16 27C16 28.933 17.567 30.5 19.5 30.5H28C30.2091 30.5 32 28.7091 32 26.5C32 24.2909 30.2091 22.5 28 22.5C27.9149 22.5 27.8305 22.5027 27.7467 22.5079C27.1312 20.756 25.4623 19.5 23.5 19.5C21.1727 19.5 19.2581 21.2667 19.024 23.5321C17.3162 23.7643 16 25.2284 16 27Z" fill="black" fill-opacity="0.88"/>
<path fill-rule="evenodd" clip-rule="evenodd" d="M4 15.6C4 12.2397 4 10.5595 4.65396 9.27606C5.2292 8.14708 6.14708 7.2292 7.27606 6.65396C8.55953 6 10.2397 6 13.6 6H18.424C19.1219 6 19.4708 6 19.802 6.0369C21.143 6.18631 22.3944 6.78336 23.3543 7.73161C23.5914 7.9658 23.8109 8.237 24.25 8.77938C24.3963 8.96018 24.4695 9.05061 24.5486 9.12868C24.8685 9.44476 25.2857 9.64378 25.7327 9.69358C25.8431 9.70588 25.9594 9.70588 26.192 9.70588H34.4C37.7603 9.70588 39.4405 9.70588 40.7239 10.3598C41.8529 10.9351 42.7708 11.853 43.346 12.9819C44 14.2654 44 15.9456 44 19.3059V32.4C44 35.7603 44 37.4405 43.346 38.7239C42.7708 39.8529 41.8529 40.7708 40.7239 41.346C39.4405 42 37.7603 42 34.4 42H13.6C10.2397 42 8.55953 42 7.27606 41.346C6.14708 40.7708 5.2292 39.8529 4.65396 38.7239C4 37.4405 4 35.7603 4 32.4V15.6ZM41 19.3059V32.4C41 34.1297 40.9977 35.2465 40.9282 36.0965C40.8616 36.9115 40.7486 37.2136 40.673 37.362C40.3854 37.9265 39.9265 38.3854 39.362 38.673C39.2136 38.7486 38.9115 38.8616 38.0965 38.9282C37.2465 38.9977 36.1297 39 34.4 39H13.6C11.8703 39 10.7535 38.9977 9.90351 38.9282C9.08852 38.8616 8.78636 38.7486 8.63803 38.673C8.07354 38.3854 7.6146 37.9265 7.32698 37.362C7.2514 37.2136 7.13837 36.9115 7.07178 36.0965C7.00233 35.2465 7 34.1297 7 32.4V15.6C7 13.8703 7.00233 12.7535 7.07178 11.9035C7.13837 11.0885 7.2514 10.7864 7.32698 10.638C7.6146 10.0735 8.07354 9.6146 8.63803 9.32698C8.78636 9.2514 9.08852 9.13837 9.90351 9.07178C10.7535 9.00233 11.8703 9 13.6 9H18.424C19.1895 9 19.343 9.00432 19.4698 9.01845C20.1403 9.09316 20.766 9.39168 21.2459 9.86581C21.3367 9.95546 21.4366 10.072 21.9183 10.667L21.9492 10.7053C22.0579 10.8402 22.2356 11.0608 22.4402 11.2629C23.2401 12.0531 24.283 12.5506 25.4005 12.6751C25.6863 12.707 25.9696 12.7063 26.1428 12.706L26.192 12.7059H34.4C36.1297 12.7059 37.2465 12.7082 38.0965 12.7777C38.9115 12.8443 39.2136 12.9573 39.362 13.0329C39.9265 13.3205 40.3854 13.7794 40.673 14.3439C40.7486 14.4922 40.8616 14.7944 40.9282 15.6094C40.9977 16.4594 41 17.5762 41 19.3059Z" fill="black" fill-opacity="0.88"/>
</svg>
