<svg width="48" height="48" viewBox="0 0 48 48" fill="none" xmlns="http://www.w3.org/2000/svg">
<path fill-rule="evenodd" clip-rule="evenodd" d="M28.0505 26.9544C27.1166 25.9991 26.1829 25.0434 25.2494 24.0877C25.2349 24.0729 25.2217 24.0568 25.2058 24.0372C25.1973 24.0269 25.1881 24.0156 25.1774 24.003L25.2146 23.9631L25.2489 23.9263C25.2994 23.8719 25.3492 23.8183 25.4001 23.7659C25.7162 23.4407 26.0326 23.1157 26.349 22.7907C27.0965 22.0229 27.8443 21.2548 28.5886 20.4839C28.637 20.4337 28.686 20.3837 28.7351 20.3337C28.9701 20.0941 29.2068 19.8527 29.3911 19.578C29.837 18.9134 29.8966 18.1823 29.5672 17.4492C29.402 17.0814 29.1879 16.7346 28.889 16.4481C28.2811 15.8653 27.6138 15.4313 26.7213 15.4917C26.1784 15.5286 25.7032 15.7258 25.3074 16.09C25.1014 16.2795 24.9087 16.4834 24.716 16.6873C24.6261 16.7824 24.5362 16.8775 24.445 16.9711C24.3457 17.073 24.2458 17.1743 24.1421 17.2795L23.9946 17.429C23.9856 17.4155 23.979 17.4048 23.9736 17.3963C23.9648 17.3821 23.9594 17.3734 23.9525 17.3666C23.8074 17.2232 23.6656 17.0757 23.5238 16.9283C23.2037 16.5954 22.8834 16.2624 22.5261 15.9759C21.7785 15.3766 20.9296 15.3215 20.0647 15.7442C19.43 16.0545 18.9449 16.5357 18.5859 17.1363C18.1404 17.8818 18.0932 18.6501 18.5065 19.4329C18.6537 19.7116 18.8677 19.9286 19.0848 20.1488L19.1285 20.1932C20.101 21.1823 21.0682 22.1765 22.0354 23.1708L22.6075 23.7589C22.6577 23.8104 22.7033 23.8663 22.7513 23.9251C22.7744 23.9533 22.7984 23.9827 22.8234 24.0121C22.7926 24.045 22.7631 24.0768 22.7344 24.1079C22.6742 24.1728 22.6174 24.2342 22.559 24.294C22.1967 24.6647 21.8343 25.0352 21.4718 25.4057C20.7524 26.141 20.0331 26.8763 19.3154 27.6133C19.2703 27.6596 19.2249 27.7054 19.1794 27.7512C18.8842 28.0489 18.5898 28.3456 18.4189 28.7494C18.1483 29.3882 18.1548 30.0176 18.4596 30.6275C18.8648 31.4383 19.48 32.0418 20.3359 32.3789C21.0321 32.6531 21.6929 32.5377 22.3252 32.1853C22.6067 32.0286 22.8237 31.7963 23.0407 31.5642C23.0971 31.5038 23.1536 31.4434 23.2112 31.3844C23.3938 31.1971 23.5824 31.0157 23.7573 30.8474C23.8304 30.777 23.9012 30.7089 23.9681 30.6437C24.0773 30.7454 24.1881 30.8451 24.2987 30.9446C24.5471 31.1681 24.7948 31.3909 25.0216 31.6332C25.4376 32.0777 25.9143 32.3899 26.5178 32.4977C27.1328 32.6075 27.6863 32.4366 28.1987 32.1137C28.7582 31.7612 29.1885 31.289 29.5007 30.6997C29.9687 29.8162 29.7911 28.8272 29.1691 28.1056C28.9304 27.8287 28.6696 27.5708 28.4088 27.3128C28.2887 27.194 28.1685 27.0751 28.0505 26.9544ZM20.8136 19.1751C20.758 19.1179 20.702 19.061 20.646 19.004C20.5352 18.8914 20.4245 18.7788 20.3161 18.6639C20.0023 18.3314 20.0768 17.7408 20.4429 17.463C20.8938 17.1209 21.3129 17.2135 21.6527 17.6012C21.8591 17.8367 22.0797 18.0597 22.3003 18.2828C22.3987 18.3822 22.497 18.4817 22.5941 18.5823C22.6205 18.6097 22.6465 18.6374 22.6812 18.6745L22.7448 18.7424L21.782 19.6242L23.1007 20.8735L24.0283 20.0173L24.8851 20.921L26.1886 19.6605L25.2788 18.7067L25.6539 18.321C25.7373 18.2351 25.8203 18.1487 25.9032 18.0624C26.0895 17.8683 26.2759 17.674 26.468 17.4858C26.7667 17.193 27.0821 17.1681 27.4333 17.3913C27.8122 17.6322 27.9433 17.9445 27.8339 18.3814C27.8101 18.4768 27.7619 18.5791 27.6945 18.6486C26.6618 19.7143 25.6255 20.7767 24.5892 21.839L24.1315 22.3083C24.1072 22.3332 24.0818 22.3569 24.0491 22.3873C24.0396 22.3962 24.0295 22.4056 24.0186 22.4158C24.0091 22.4247 23.999 22.4342 23.9882 22.4444L23.7985 22.2471C23.6587 22.1016 23.5201 21.9574 23.3807 21.814C22.6266 21.0382 21.8721 20.2628 21.1175 19.4874L20.8136 19.1751ZM27.4519 30.6216C27.1117 30.8248 26.7411 30.7997 26.437 30.4961C26.1686 30.2283 25.8932 29.9676 25.6133 29.7027C25.4909 29.5868 25.3676 29.47 25.2436 29.3515L26.1871 28.3458L24.8695 27.0986L24.0287 27.9861L23.0818 27.1093L21.799 28.339L22.7185 29.3005C22.6589 29.3635 22.5999 29.4262 22.5412 29.4885L22.5404 29.4893C22.4093 29.6285 22.28 29.7658 22.1487 29.9014C22.0763 29.9762 22.0022 30.0494 21.9281 30.1226C21.8102 30.2391 21.6922 30.3555 21.5813 30.4782C21.2089 30.89 20.6609 30.8124 20.3244 30.4272C20.0609 30.1256 20.0287 29.626 20.3638 29.2893C21.035 28.6148 21.6976 27.9315 22.3601 27.2483L22.3611 27.2472C22.5941 27.007 22.827 26.7668 23.0603 26.527C23.2978 26.2829 23.5349 26.0384 23.7673 25.7894C23.8151 25.7382 23.8551 25.6796 23.8946 25.6216C23.9126 25.5951 23.9305 25.5688 23.9491 25.5434C24.04 25.6325 24.1263 25.7162 24.2092 25.7965L24.2099 25.7973C24.3802 25.9623 24.5359 26.1132 24.6873 26.2683C25.3306 26.927 25.9724 27.5873 26.6142 28.2476L27.3119 28.9653C27.3508 29.0053 27.39 29.0452 27.4292 29.0851C27.5189 29.1763 27.6085 29.2675 27.6955 29.3611C28.0209 29.7112 27.8932 30.358 27.4519 30.6216Z" fill="black" fill-opacity="0.88"/>
<path fill-rule="evenodd" clip-rule="evenodd" d="M34.8123 22.9232C34.4286 21.7007 33.5258 21.0155 32.2789 20.9812C31.4763 20.9592 30.7658 21.2142 30.1714 21.7526C29.9375 21.9644 29.7177 22.1918 29.5026 22.4142C29.4074 22.5127 29.3129 22.6104 29.2188 22.7051L28.0683 21.6298L26.7859 22.861L27.9242 24.0426L26.7605 25.1316L28.0636 26.3807L29.2476 25.2652L29.2536 25.2713C29.2612 25.2786 29.2726 25.2898 29.2816 25.3026C29.5963 25.7544 29.9855 26.1288 30.4296 26.4547C30.9885 26.865 31.6092 27.0432 32.2962 27.024C32.933 27.0061 33.5098 26.8247 33.9911 26.3967C34.5813 25.8717 34.854 25.1831 34.97 24.4221C35.0479 23.9103 34.9667 23.4154 34.8123 22.9232ZM33.0783 24.7118C32.7942 25.1927 32.2591 25.2496 31.8441 25.1236C31.3459 24.9724 30.9816 24.6263 30.6334 24.26L30.5862 24.2107C30.4793 24.0992 30.4276 24.0452 30.4296 23.9933C30.4314 23.9446 30.4802 23.8977 30.5748 23.8069C30.5936 23.7889 30.6142 23.7691 30.6366 23.7472C30.8747 23.5145 31.1218 23.2847 31.3937 23.0947C31.7402 22.8526 32.1348 22.7433 32.5592 22.8759C32.9402 22.9949 33.2808 23.4082 33.2526 24.0136C33.2685 24.257 33.208 24.4922 33.0783 24.7118Z" fill="black" fill-opacity="0.88"/>
<path fill-rule="evenodd" clip-rule="evenodd" d="M18.7345 25.2482C18.7218 25.2768 18.7101 25.3032 18.6945 25.3269C18.4369 25.7199 18.1036 26.0432 17.7403 26.3341C17.3482 26.6482 16.9086 26.8935 16.4122 26.9754C15.0096 27.207 13.7539 26.6733 13.2231 25.2037C12.839 24.1403 12.9586 23.1354 13.5224 22.185C13.9316 21.4949 14.5656 21.1209 15.3698 21.0127C16.375 20.8776 17.2268 21.1895 17.9556 21.8593C18.1442 22.0327 18.3108 22.2301 18.4774 22.4275C18.5545 22.5188 18.6317 22.6104 18.7109 22.6993C18.7224 22.7122 18.7352 22.7238 18.7519 22.7391C18.7611 22.7475 18.7714 22.757 18.7834 22.7684L19.9105 21.5885L21.2146 22.8509L20.0805 24.0298L21.2388 25.1077L19.887 26.3899L18.7543 25.2047C18.7471 25.2197 18.7407 25.2342 18.7345 25.2482ZM16.1999 25.1064C16.7607 24.9182 17.1438 24.4956 17.5248 24.0748C17.5509 24.0461 17.5377 23.9414 17.5055 23.9062C17.1484 23.5164 16.7828 23.1389 16.2832 22.9201C15.8407 22.7262 15.2527 22.8401 14.9839 23.1948C14.7417 23.5143 14.7236 23.8772 14.7637 24.2572C14.8213 24.8042 15.2372 25.1842 15.791 25.1953C15.834 25.1862 15.8774 25.1784 15.9208 25.1706C16.0153 25.1536 16.1098 25.1366 16.1999 25.1064Z" fill="black" fill-opacity="0.88"/>
<path fill-rule="evenodd" clip-rule="evenodd" d="M33.1147 6.7449C32.0809 5.73146 31.5641 5.22473 30.9638 4.86255C30.4315 4.54143 29.8525 4.30497 29.2476 4.16165C28.5654 4 27.8416 4 26.394 4H16.6C13.2397 4 11.5595 4 10.2761 4.65396C9.14708 5.2292 8.2292 6.14708 7.65396 7.27606C7 8.55953 7 10.2397 7 13.6V34.4C7 37.7603 7 39.4405 7.65396 40.7239C8.2292 41.8529 9.14708 42.7708 10.2761 43.346C11.5595 44 13.2397 44 16.6 44H31.4C34.7603 44 36.4405 44 37.7239 43.346C38.8529 42.7708 39.7708 41.8529 40.346 40.7239C41 39.4405 41 37.7603 41 34.4V18.5079C41 17.0204 41 16.2766 40.83 15.5778C40.6794 14.9583 40.4309 14.3667 40.094 13.8254C39.714 13.2148 39.1829 12.6942 38.1208 11.6529L33.1147 6.7449ZM16.6 7H26.394C27.9823 7 28.2941 7.01879 28.556 7.08082C28.8584 7.15248 29.1479 7.27071 29.414 7.43128C29.6444 7.57027 29.8802 7.77516 31.0144 8.88712L36.0205 13.795C37.1861 14.9378 37.4012 15.1764 37.547 15.4106C37.7154 15.6812 37.8397 15.977 37.915 16.2868C37.9802 16.5549 38 16.8755 38 18.5079V34.4C38 36.1297 37.9977 37.2465 37.9282 38.0965C37.8616 38.9115 37.7486 39.2136 37.673 39.362C37.3854 39.9265 36.9265 40.3854 36.362 40.673C36.2136 40.7486 35.9115 40.8616 35.0965 40.9282C34.2465 40.9977 33.1297 41 31.4 41H16.6C14.8703 41 13.7535 40.9977 12.9035 40.9282C12.0885 40.8616 11.7864 40.7486 11.638 40.673C11.0735 40.3854 10.6146 39.9265 10.327 39.362C10.2514 39.2136 10.1384 38.9115 10.0718 38.0965C10.0023 37.2465 10 36.1297 10 34.4V13.6C10 11.8703 10.0023 10.7535 10.0718 9.90351C10.1384 9.08852 10.2514 8.78636 10.327 8.63803C10.6146 8.07354 11.0735 7.6146 11.638 7.32698C11.7864 7.2514 12.0885 7.13837 12.9035 7.07178C13.7535 7.00233 14.8703 7 16.6 7Z" fill="black" fill-opacity="0.88"/>
</svg>
