<svg width="48" height="48" viewBox="0 0 48 48" fill="none" xmlns="http://www.w3.org/2000/svg">
<path d="M21.6317 15.168C21.088 14.5429 20.1406 14.4768 19.5155 15.0205C18.8904 15.5641 18.8243 16.5115 19.3679 17.1366L21.7039 19.8228H19.2498C18.4214 19.8228 17.7498 20.4944 17.7498 21.3228C17.7498 22.1513 18.4214 22.8228 19.2498 22.8228H22.4998V24.8842H19.2498C18.4214 24.8842 17.7498 25.5558 17.7498 26.3842C17.7498 27.2127 18.4214 27.8842 19.2498 27.8842H22.4998V29.8477C22.4998 30.6761 23.1714 31.3477 23.9998 31.3477C24.8282 31.3477 25.4998 30.6761 25.4998 29.8477V27.8842H28.7498C29.5782 27.8842 30.2498 27.2127 30.2498 26.3842C30.2498 25.5558 29.5782 24.8842 28.7498 24.8842H25.4998V22.8228H28.7498C29.5782 22.8228 30.2498 22.1513 30.2498 21.3228C30.2498 20.4944 29.5782 19.8228 28.7498 19.8228H26.2957L28.6317 17.1366C29.1753 16.5115 29.1092 15.5641 28.4841 15.0205C27.859 14.4768 26.9115 14.5429 26.3679 15.168L23.9998 17.8912L21.6317 15.168Z" fill="black" fill-opacity="0.88"/>
<path fill-rule="evenodd" clip-rule="evenodd" d="M5.50098 32.9074L8.93631 35.3487C9.24417 35.7002 9.6328 35.9791 10.0732 36.1566L18.7864 42.3485C21.908 44.5668 26.0916 44.5668 29.2132 42.3485L37.9274 36.1558C38.3664 35.9786 38.7539 35.7005 39.0611 35.3502L42.4986 32.9074C45.357 30.8761 43.9199 26.3729 40.4132 26.3729C40.0773 26.3729 39.8049 26.1005 39.8049 25.7646L39.8049 13.2952C39.805 12.2653 39.8051 11.3193 39.7404 10.5285C39.6708 9.67599 39.5113 8.7433 39.042 7.82208C38.3708 6.50494 37.3 5.43408 35.9828 4.76296C35.0616 4.29358 34.1289 4.13412 33.2764 4.06447C32.4857 3.99986 31.5397 3.99993 30.5098 4H17.489C16.4591 3.99993 15.5132 3.99986 14.7224 4.06447C13.8699 4.13412 12.9372 4.29358 12.016 4.76296C10.6988 5.43408 9.62798 6.50494 8.95686 7.82208C8.4874 8.74345 8.328 9.67639 8.25836 10.529C8.19376 11.32 8.19383 12.2663 8.1939 13.2967L8.19388 25.7654C8.19388 26.1009 7.92187 26.3729 7.58633 26.3729C4.07966 26.3729 2.64254 30.8761 5.50098 32.9074ZM7.58633 29.3729C7.00188 29.3729 6.76237 30.1235 7.23877 30.462L11.1939 33.2726V33.3729H11.335L20.5242 39.9031C22.6053 41.3819 25.3943 41.3819 27.4754 39.9031L36.6646 33.3729H36.8049V33.2732L40.7608 30.462C41.2372 30.1235 40.9977 29.3729 40.4132 29.3729H40.0049C38.8848 29.3729 38.3247 29.3729 37.8969 29.1549C37.5206 28.9632 37.2146 28.6572 37.0229 28.2809C36.8049 27.8531 36.8049 27.293 36.8049 26.1729L36.8049 13.4C36.8049 11.1598 36.8049 10.0397 36.3689 9.18405C35.9854 8.4314 35.3735 7.81948 34.6209 7.43598C33.7652 7.00001 32.6451 7.00001 30.4049 7.00001H17.5939C15.3537 7.00001 14.2336 7.00001 13.3779 7.43598C12.6253 7.81948 12.0134 8.4314 11.6299 9.18405C11.1939 10.0397 11.1939 11.1603 11.1939 13.4016L11.1939 26.1729C11.1939 27.293 11.1939 27.8531 10.9759 28.2809C10.7842 28.6572 10.4782 28.9632 10.1019 29.1549C9.67404 29.3729 9.11399 29.3729 7.99389 29.3729H7.58633Z" fill="black" fill-opacity="0.88"/>
</svg>
