<svg width="48" height="48" viewBox="0 0 48 48" fill="none" xmlns="http://www.w3.org/2000/svg">
<path d="M21.5391 14.8037C21.9619 14.5267 22.4964 14.481 22.96 14.6826L28.21 16.9658C28.9693 17.2962 29.3173 18.18 28.9873 18.9395C28.6569 19.6992 27.7724 20.0472 27.0127 19.7168L23.8613 18.3467V30C23.8613 32.2091 22.0705 34 19.8613 34C17.6522 34 15.8613 32.2091 15.8613 30C15.8613 27.7909 17.6522 26 19.8613 26C20.2066 26 20.5417 26.0437 20.8613 26.126V16.0586C20.8613 15.553 21.1162 15.0809 21.5391 14.8037Z" fill="black" fill-opacity="0.88"/>
<path fill-rule="evenodd" clip-rule="evenodd" d="M29.4004 6C32.7603 6 34.4402 6.00042 35.7236 6.6543C36.8526 7.22954 37.7705 8.14739 38.3457 9.27637C38.924 10.4114 38.9912 11.8567 38.999 14.5L41.3691 13.3154C42.9022 12.5489 43.6688 12.1659 44.292 12.2578C44.8362 12.3382 45.3234 12.6391 45.6387 13.0898C45.9998 13.6061 46 14.4633 46 16.1777V31.8223C46 33.5367 45.9998 34.3939 45.6387 34.9102C45.3234 35.3609 44.8362 35.6618 44.292 35.7422C43.6688 35.8341 42.9022 35.4511 41.3691 34.6846L38.999 33.499C38.9912 36.143 38.9241 37.5884 38.3457 38.7236C37.7705 39.8526 36.8526 40.7705 35.7236 41.3457C34.4402 41.9996 32.7603 42 29.4004 42H13.5996C10.2397 42 8.55977 41.9996 7.27637 41.3457C6.14739 40.7705 5.22954 39.8526 4.6543 38.7236C4.00042 37.4402 4 35.7603 4 32.4004V15.5996C4 12.2397 4.00042 10.5598 4.6543 9.27637C5.22954 8.14739 6.14739 7.22954 7.27637 6.6543C8.55977 6.00042 10.2397 6 13.5996 6H29.4004ZM13.5996 9C11.8706 9 10.754 9.00278 9.9043 9.07227C9.09031 9.13886 8.78739 9.25145 8.63867 9.32715C8.07419 9.61477 7.61477 10.0742 7.32715 10.6387C7.25145 10.7874 7.13886 11.0903 7.07227 11.9043C7.00278 12.754 7 13.8706 7 15.5996V32.4004C7 34.1294 7.00278 35.246 7.07227 36.0957C7.13886 36.9097 7.25145 37.2126 7.32715 37.3613C7.61477 37.9258 8.07419 38.3852 8.63867 38.6729C8.78739 38.7485 9.09031 38.8611 9.9043 38.9277C10.754 38.9972 11.8706 39 13.5996 39H29.4004C31.1294 39 32.246 38.9972 33.0957 38.9277C33.9097 38.8611 34.2126 38.7485 34.3613 38.6729C34.9258 38.3852 35.3852 37.9258 35.6729 37.3613C35.862 36.9897 35.9906 36.338 35.999 33.4902L36.0137 28.6514L42.71 32.001C42.8105 32.0512 42.9074 32.0974 42.998 32.1426C42.9981 32.0413 43 31.9347 43 31.8223V16.1777C43 16.0649 42.9981 15.958 42.998 15.8564C42.9073 15.9017 42.8116 15.9487 42.7109 15.999L36.0137 19.3457L35.999 14.5088C35.9906 11.6618 35.862 11.0102 35.6729 10.6387C35.3852 10.0742 34.9258 9.61477 34.3613 9.32715C34.2126 9.25145 33.9097 9.13886 33.0957 9.07227C32.4584 9.02015 31.6711 9.0059 30.5879 9.00195L29.4004 9H13.5996Z" fill="black" fill-opacity="0.88"/>
</svg>
