<svg width="48" height="48" viewBox="0 0 48 48" fill="none" xmlns="http://www.w3.org/2000/svg">
<path d="M17.5 32C16.6716 32 16 32.6716 16 33.5C16 34.3284 16.6716 35 17.5 35H30.5C31.3284 35 32 34.3284 32 33.5C32 32.6716 31.3284 32 30.5 32H17.5Z" fill="black" fill-opacity="0.88"/>
<path fill-rule="evenodd" clip-rule="evenodd" d="M31.5927 4.8727C32.1955 5.23905 32.7133 5.75147 33.7489 6.77633L38.1526 11.1341C39.2032 12.1738 39.7285 12.6936 40.1043 13.3018C40.4375 13.841 40.6831 14.4296 40.832 15.0457C41 15.7406 41 16.4797 41 17.9578V34.4C41 37.7603 41 39.4405 40.346 40.7239C39.7708 41.8529 38.8529 42.7708 37.7239 43.346C36.4405 44 34.7603 44 31.4 44H16.6C13.2397 44 11.5595 44 10.2761 43.346C9.14708 42.7708 8.2292 41.8529 7.65396 40.7239C7 39.4405 7 37.7603 7 34.4V13.6C7 10.2397 7 8.55953 7.65396 7.27606C8.2292 6.14708 9.14708 5.2292 10.2761 4.65396C11.5595 4 13.2397 4 16.6 4H26.9964C28.4534 4 29.1819 4 29.868 4.16359C30.4763 4.30863 31.0583 4.54789 31.5927 4.8727ZM26.9964 7H16.6C14.8703 7 13.7535 7.00233 12.9035 7.07178C12.0885 7.13837 11.7864 7.2514 11.638 7.32698C11.0735 7.6146 10.6146 8.07354 10.327 8.63803C10.2514 8.78636 10.1384 9.08852 10.0718 9.90351C10.0023 10.7535 10 11.8703 10 13.6V34.4C10 36.1297 10.0023 37.2465 10.0718 38.0965C10.1384 38.9115 10.2514 39.2136 10.327 39.362C10.6146 39.9265 11.0735 40.3854 11.638 40.673C11.7864 40.7486 12.0885 40.8616 12.9035 40.9282C13.7535 40.9977 14.8703 41 16.6 41H31.4C33.1297 41 34.2465 40.9977 35.0965 40.9282C35.9115 40.8616 36.2136 40.7486 36.362 40.673C36.9265 40.3854 37.3854 39.9265 37.673 39.362C37.7486 39.2136 37.8616 38.9115 37.9282 38.0965C37.9977 37.2465 38 36.1297 38 34.4V17.9578C38 17.792 37.9998 17.6399 37.9994 17.5H30C28.6193 17.5 27.5 16.3807 27.5 15V7.0008C27.3479 7.00025 27.1807 7 26.9964 7ZM36.0424 13.2665C36.5157 13.7349 36.1912 14.5 35.5253 14.5H30.5V9.39127C30.5 8.78358 31.2068 8.48128 31.6388 8.90872L36.0424 13.2665Z" fill="black" fill-opacity="0.88"/>
</svg>
