<svg width="48" height="48" viewBox="0 0 48 48" fill="none" xmlns="http://www.w3.org/2000/svg">
<path d="M23.1398 29.9015L18.1398 33.4015C17.4611 33.8766 17.2961 34.8119 17.7712 35.4906C18.2462 36.1692 19.1815 36.3343 19.8602 35.8592L24 32.9614L28.1398 35.8592C28.8185 36.3343 29.7538 36.1692 30.2288 35.4906C30.7039 34.8119 30.5389 33.8766 29.8602 33.4015L24.8602 29.9015C24.3437 29.54 23.6563 29.54 23.1398 29.9015Z" fill="black" fill-opacity="0.88"/>
<path d="M23.1398 22.3366C23.6563 21.975 24.3437 21.975 24.8602 22.3366L29.8602 25.8366C30.5389 26.3117 30.7039 27.2469 30.2288 27.9256C29.7538 28.6043 28.8185 28.7693 28.1398 28.2943L24 25.3964L19.8602 28.2943C19.1815 28.7693 18.2462 28.6043 17.7712 27.9256C17.2961 27.2469 17.4611 26.3117 18.1398 25.8366L23.1398 22.3366Z" fill="black" fill-opacity="0.88"/>
<path d="M20.5 11C19.6716 11 19 11.6716 19 12.5C19 13.3284 19.6716 14 20.5 14H27.5C28.3284 14 29 13.3284 29 12.5C29 11.6716 28.3284 11 27.5 11H20.5Z" fill="black" fill-opacity="0.88"/>
<path fill-rule="evenodd" clip-rule="evenodd" d="M7 13.6C7 10.2397 7 8.55953 7.65396 7.27606C8.2292 6.14708 9.14708 5.2292 10.2761 4.65396C11.5595 4 13.2397 4 16.6 4H31.4C34.7603 4 36.4405 4 37.7239 4.65396C38.8529 5.2292 39.7708 6.14708 40.346 7.27606C41 8.55953 41 10.2397 41 13.6V34.4C41 37.7603 41 39.4405 40.346 40.7239C39.7708 41.8529 38.8529 42.7708 37.7239 43.346C36.4405 44 34.7603 44 31.4 44H16.6C13.2397 44 11.5595 44 10.2761 43.346C9.14708 42.7708 8.2292 41.8529 7.65396 40.7239C7 39.4405 7 37.7603 7 34.4V13.6ZM16.6 7H31.4C33.1297 7 34.2465 7.00233 35.0965 7.07178C35.9115 7.13837 36.2136 7.2514 36.362 7.32698C36.9265 7.6146 37.3854 8.07354 37.673 8.63803C37.7486 8.78636 37.8616 9.08852 37.9282 9.90351C37.9977 10.7535 38 11.8703 38 13.6V34.4C38 36.1297 37.9977 37.2465 37.9282 38.0965C37.8616 38.9115 37.7486 39.2136 37.673 39.362C37.3854 39.9265 36.9265 40.3854 36.362 40.673C36.2136 40.7486 35.9115 40.8616 35.0965 40.9282C34.2465 40.9977 33.1297 41 31.4 41H16.6C14.8703 41 13.7535 40.9977 12.9035 40.9282C12.0885 40.8616 11.7864 40.7486 11.638 40.673C11.0735 40.3854 10.6146 39.9265 10.327 39.362C10.2514 39.2136 10.1384 38.9115 10.0718 38.0965C10.0023 37.2465 10 36.1297 10 34.4V13.6C10 11.8703 10.0023 10.7535 10.0718 9.90351C10.1384 9.08852 10.2514 8.78636 10.327 8.63803C10.6146 8.07354 11.0735 7.6146 11.638 7.32698C11.7864 7.2514 12.0885 7.13837 12.9035 7.07178C13.7535 7.00233 14.8703 7 16.6 7Z" fill="black" fill-opacity="0.88"/>
</svg>
