<svg width="48" height="48" viewBox="0 0 48 48" fill="none" xmlns="http://www.w3.org/2000/svg">
<path d="M5.35247 12.031C5.59622 12.7087 6.47646 12.7044 6.90449 12.1252C8.69894 9.69711 11.0297 7.68948 13.7219 6.27731C14.3603 5.94245 14.4989 5.07222 13.8659 4.72741C13.0143 4.26356 12.038 4 11 4C7.68629 4 5 6.68629 5 10C5 10.7129 5.12432 11.3967 5.35247 12.031Z" fill="black" fill-opacity="0.88"/>
<path d="M42.647 12.0328C42.4031 12.7104 41.5229 12.7059 41.095 12.1267C39.3006 9.69821 36.9697 7.69021 34.2773 6.27776C33.6391 5.94292 33.5004 5.07281 34.1333 4.72792C34.9851 4.26375 35.9618 4 37.0001 4C40.3138 4 43.0001 6.68629 43.0001 10C43.0001 10.7136 42.8756 11.398 42.647 12.0328Z" fill="black" fill-opacity="0.88"/>
<path d="M21.6319 16.5157C21.0883 15.8906 20.1408 15.8245 19.5157 16.3682C18.8906 16.9118 18.8245 17.8592 19.3681 18.4843L21.7041 21.1705H19.25C18.4216 21.1705 17.75 21.8421 17.75 22.6705C17.75 23.4989 18.4216 24.1705 19.25 24.1705H22.5V26.2319H19.25C18.4216 26.2319 17.75 26.9035 17.75 27.7319C17.75 28.5603 18.4216 29.2319 19.25 29.2319H22.5V31.1954C22.5 32.0238 23.1716 32.6954 24 32.6954C24.8284 32.6954 25.5 32.0238 25.5 31.1954V29.2319H28.75C29.5784 29.2319 30.25 28.5603 30.25 27.7319C30.25 26.9035 29.5784 26.2319 28.75 26.2319H25.5V24.1705H28.75C29.5784 24.1705 30.25 23.4989 30.25 22.6705C30.25 21.8421 29.5784 21.1705 28.75 21.1705H26.2959L28.6319 18.4843C29.1755 17.8592 29.1094 16.9118 28.4843 16.3682C27.8592 15.8245 26.9117 15.8906 26.3681 16.5157L24 19.2389L21.6319 16.5157Z" fill="black" fill-opacity="0.88"/>
<path fill-rule="evenodd" clip-rule="evenodd" d="M24 42.5C19.9979 42.5 16.2926 41.2292 13.2657 39.0691L10.1713 42.937C9.65379 43.5839 8.70985 43.6888 8.06296 43.1713C7.41606 42.6538 7.31118 41.7099 7.8287 41.063L10.9716 37.1343C7.59258 33.7824 5.5 29.1356 5.5 24C5.5 13.7827 13.7827 5.5 24 5.5C34.2173 5.5 42.5 13.7827 42.5 24C42.5 29.1356 40.4074 33.7824 37.0284 37.1343L40.1713 41.063C40.6888 41.7099 40.5839 42.6538 39.937 43.1713C39.2901 43.6888 38.3462 43.5839 37.8287 42.937L34.7343 39.0691C31.7074 41.2292 28.0021 42.5 24 42.5ZM8.5 24C8.5 32.5604 15.4396 39.5 24 39.5C32.5604 39.5 39.5 32.5604 39.5 24C39.5 15.4396 32.5604 8.5 24 8.5C15.4396 8.5 8.5 15.4396 8.5 24Z" fill="black" fill-opacity="0.88"/>
</svg>
