<svg width="48" height="48" viewBox="0 0 48 48" fill="none" xmlns="http://www.w3.org/2000/svg">
<path fill-rule="evenodd" clip-rule="evenodd" d="M31.78 18.19C32.32 18.72 32.74 19.34 33.04 20.04C33.34 20.77 33.5 21.53 33.5 22.32C33.5 23.07 33.35 23.83 33.04 24.62C32.8 25.28 32.45 25.97 31.99 26.66C31.27 27.74 30.28 28.89 29.04 30.04C26.99 31.96 24.97 33.28 24.87 33.34L24.35 33.67C24.24 33.75 24.13 33.78 24 33.78C23.87 33.78 23.75 33.75 23.65 33.67L23.13 33.34C23.1271 33.3381 23.1221 33.3348 23.1152 33.3302C22.9086 33.1939 20.9437 31.8979 18.96 30.04C17.73 28.89 16.74 27.74 16.01 26.66C15.56 25.97 15.2 25.28 14.96 24.62C14.65 23.83 14.5 23.06 14.5 22.32C14.5 21.53 14.66 20.77 14.96 20.04C15.26 19.34 15.68 18.72 16.22 18.19C16.77 17.66 17.39 17.23 18.08 16.95C18.79 16.65 19.56 16.5 20.34 16.5C20.73 16.5 21.01 16.53 21.23 16.56C21.88 16.66 22.67 16.89 23.44 17.39C23.71 17.56 23.89 17.72 24 17.83C24.11 17.72 24.29 17.56 24.56 17.39C25.33 16.89 26.12 16.66 26.77 16.56C26.99 16.53 27.27 16.5 27.66 16.5C28.43 16.5 29.21 16.65 29.92 16.95C30.61 17.23 31.24 17.65 31.78 18.19ZM29.51 24.72C29.81 24.26 30.07 23.77 30.24 23.32C30.43 22.84 30.5 22.48 30.5 22.13C30.5 21.78 30.44 21.44 30.3 21.11C30.18 20.83 30 20.57 29.79 20.36C29.51 20.09 29.24 19.9 28.95 19.79C28.63 19.65 28.29 19.59 27.94 19.59C27.91 19.59 27.72 19.59 27.51 19.62C27.14 19.69 26.68 19.83 26.21 20.09C25.3602 20.549 24.799 21.1965 24.4428 21.7462C24.2506 22.0428 23.75 22.0425 23.5585 21.7455C23.2023 21.1934 22.6408 20.5433 21.79 20.09C21.32 19.83 20.86 19.69 20.49 19.62C20.27 19.59 20.09 19.59 20.06 19.59C19.71 19.59 19.37 19.65 19.05 19.79C18.76 19.91 18.49 20.09 18.21 20.36C18 20.57 17.82 20.83 17.7 21.11C17.56 21.44 17.5 21.78 17.5 22.13C17.5 22.48 17.57 22.85 17.76 23.32C17.92 23.76 18.18 24.26 18.49 24.72C19.13 25.67 20.03 26.7 21.12 27.71C22.19 28.71 23.25 29.54 24 30.09C24.75 29.54 25.81 28.7 26.88 27.71C27.97 26.7 28.87 25.67 29.51 24.72Z" fill="black" fill-opacity="0.88"/>
<path fill-rule="evenodd" clip-rule="evenodd" d="M7 13.6C7 10.2397 7 8.55953 7.65396 7.27606C8.2292 6.14708 9.14708 5.2292 10.2761 4.65396C11.5595 4 13.2397 4 16.6 4H31.4C34.7603 4 36.4405 4 37.7239 4.65396C38.8529 5.2292 39.7708 6.14708 40.346 7.27606C41 8.55953 41 10.2397 41 13.6V34.4C41 37.7603 41 39.4405 40.346 40.7239C39.7708 41.8529 38.8529 42.7708 37.7239 43.346C36.4405 44 34.7603 44 31.4 44H16.6C13.2397 44 11.5595 44 10.2761 43.346C9.14708 42.7708 8.2292 41.8529 7.65396 40.7239C7 39.4405 7 37.7603 7 34.4V13.6ZM16.6 7H31.4C33.1297 7 34.2465 7.00233 35.0965 7.07178C35.9115 7.13837 36.2136 7.2514 36.362 7.32698C36.9265 7.6146 37.3854 8.07354 37.673 8.63803C37.7486 8.78636 37.8616 9.08852 37.9282 9.90351C37.9977 10.7535 38 11.8703 38 13.6V34.4C38 36.1297 37.9977 37.2465 37.9282 38.0965C37.8616 38.9115 37.7486 39.2136 37.673 39.362C37.3854 39.9265 36.9265 40.3854 36.362 40.673C36.2136 40.7486 35.9115 40.8616 35.0965 40.9282C34.2465 40.9977 33.1297 41 31.4 41H16.6C14.8703 41 13.7535 40.9977 12.9035 40.9282C12.0885 40.8616 11.7864 40.7486 11.638 40.673C11.0735 40.3854 10.6146 39.9265 10.327 39.362C10.2514 39.2136 10.1384 38.9115 10.0718 38.0965C10.0023 37.2465 10 36.1297 10 34.4V13.6C10 11.8703 10.0023 10.7535 10.0718 9.90351C10.1384 9.08852 10.2514 8.78636 10.327 8.63803C10.6146 8.07354 11.0735 7.6146 11.638 7.32698C11.7864 7.2514 12.0885 7.13837 12.9035 7.07178C13.7535 7.00233 14.8703 7 16.6 7Z" fill="black" fill-opacity="0.88"/>
</svg>
