<svg width="48" height="48" viewBox="0 0 48 48" fill="none" xmlns="http://www.w3.org/2000/svg">
<path fill-rule="evenodd" clip-rule="evenodd" d="M42.5 19C42.5 18.8852 42.4972 18.771 42.4917 18.6574C42.5099 18.4849 42.4983 18.3086 42.4552 18.1362L42.4385 18.0693C42.3683 17.5421 42.2394 17.0327 42.0583 16.5486L40.2127 9.16605C39.6006 6.71763 37.4007 5 34.8769 5H13.1231C10.5993 5 8.39944 6.71763 7.78734 9.16605L5.9417 16.5486C5.76067 17.0327 5.6317 17.5421 5.56151 18.0694L5.5448 18.1362C5.5017 18.3086 5.49008 18.4849 5.50829 18.6574C5.50279 18.771 5.50001 18.8852 5.50001 19C5.50001 20.6105 6.0439 22.094 6.95801 23.2768L6.95801 33.5946C6.95799 34.9413 6.95798 36.0427 7.03111 36.9379C7.10681 37.8644 7.26828 38.7012 7.66647 39.4827C8.28964 40.7057 9.28402 41.7001 10.5071 42.3233C11.2886 42.7215 12.1253 42.8829 13.0519 42.9586C13.947 43.0318 15.0483 43.0318 16.395 43.0317H31.5209C32.8676 43.0318 33.9691 43.0318 34.8641 42.9586C35.7907 42.8829 36.6275 42.7215 37.4089 42.3233C38.632 41.7001 39.6264 40.7057 40.2495 39.4827C40.6477 38.7012 40.8092 37.8644 40.8849 36.9379C40.958 36.0428 40.958 34.9414 40.958 33.5946V23.3834C41.9227 22.1837 42.5 20.6593 42.5 19ZM10.6978 9.89366C10.976 8.78074 11.9759 8 13.1231 8H34.8769C36.0241 8 37.024 8.78074 37.3023 9.89366L39.1697 17.3634C39.1852 17.4252 39.2045 17.486 39.2277 17.5453C39.3482 17.8539 39.4315 18.1813 39.472 18.5226C39.4742 18.5413 39.4767 18.5599 39.4796 18.5784C39.4806 18.5971 39.482 18.6159 39.4836 18.6346C39.4945 18.7546 39.5 18.8765 39.5 19C39.5 21.2091 37.7092 23 35.5 23C33.2909 23 31.5 21.2091 31.5 19C31.5 18.8765 31.5056 18.7546 31.5164 18.6346C31.5542 18.2151 31.4138 17.799 31.1297 17.4881C30.8455 17.1771 30.4437 17 30.0224 17H29.9756C29.5522 17 29.1486 17.1789 28.8642 17.4926C28.5799 17.8062 28.4413 18.2254 28.4827 18.6468C28.4942 18.7628 28.5 18.8806 28.5 19C28.5 21.089 26.6108 23 24 23C21.3892 23 19.5 21.0889 19.5 19C19.5 18.8806 19.5059 18.7628 19.5173 18.6468C19.5587 18.2254 19.4201 17.8062 19.1358 17.4926C18.8515 17.1789 18.4478 17 18.0245 17H17.9776C17.5564 17 17.1545 17.1771 16.8704 17.4881C16.5862 17.799 16.4458 18.2151 16.4836 18.6346C16.4945 18.7546 16.5 18.8765 16.5 19C16.5 21.2091 14.7092 23 12.5 23C10.2909 23 8.50001 21.2091 8.50001 19C8.50001 18.8765 8.50557 18.7546 8.51638 18.6346C8.51807 18.6159 8.51941 18.5971 8.52039 18.5784C8.52329 18.5599 8.52585 18.5413 8.52806 18.5226C8.56849 18.1813 8.6518 17.8539 8.77231 17.5454C8.79549 17.486 8.81488 17.4252 8.83033 17.3634L10.6978 9.89366ZM37.958 25.5563C37.1932 25.8431 36.365 26 35.5 26C33.2402 26 31.2305 24.9291 29.9506 23.2672C28.5581 24.9489 26.372 26 24 26C21.628 26 19.4419 24.9489 18.0494 23.2672C16.7696 24.9291 14.7598 26 12.5 26C11.6033 26 10.746 25.8314 9.95801 25.5241V33.5317C9.95801 34.9566 9.95917 35.9351 10.0211 36.6936C10.0817 37.4346 10.1927 37.8326 10.3395 38.1207C10.675 38.7793 11.2105 39.3147 11.869 39.6503C12.1571 39.797 12.5552 39.9081 13.2962 39.9686C14.0547 40.0306 15.0331 40.0317 16.458 40.0317H31.458C32.8829 40.0317 33.8613 40.0306 34.6199 39.9686C35.3608 39.9081 35.7589 39.797 36.047 39.6503C36.7055 39.3147 37.241 38.7793 37.5765 38.1207C37.7233 37.8326 37.8343 37.4346 37.8949 36.6936C37.9568 35.9351 37.958 34.9566 37.958 33.5317V25.5563Z" fill="black" fill-opacity="0.88"/>
</svg>
