<svg width="48" height="48" viewBox="0 0 48 48" fill="none" xmlns="http://www.w3.org/2000/svg">
<path d="M16.5 23.0001C16.5 22.1717 17.1716 21.5001 18 21.5001H30C30.8284 21.5001 31.5 22.1717 31.5 23.0001C31.5 23.8285 30.8284 24.5001 30 24.5001H18C17.1716 24.5001 16.5 23.8285 16.5 23.0001Z" fill="black" fill-opacity="0.88"/>
<path d="M18 29.5001C17.1716 29.5001 16.5 30.1717 16.5 31.0001C16.5 31.8285 17.1716 32.5001 18 32.5001H30C30.8284 32.5001 31.5 31.8285 31.5 31.0001C31.5 30.1717 30.8284 29.5001 30 29.5001H18Z" fill="black" fill-opacity="0.88"/>
<path fill-rule="evenodd" clip-rule="evenodd" d="M20.4097 4.00005H27.5903C27.963 3.99973 28.3104 3.99944 28.6252 4.04927C30.21 4.30007 31.4784 5.4693 31.873 6.9997L32.3619 6.9997C33.5694 6.99968 34.5659 6.99967 35.3777 7.06599C36.2209 7.13488 36.9959 7.28273 37.7239 7.65367C38.8529 8.22891 39.7708 9.14679 40.346 10.2758C40.717 11.0038 40.8648 11.7788 40.9337 12.622C41 13.4338 41 14.4303 41 15.6377V35.3617C41 36.5691 41 37.5657 40.9337 38.3774C40.8648 39.2206 40.717 39.9956 40.346 40.7236C39.7708 41.8526 38.8529 42.7705 37.7239 43.3457C36.9959 43.7167 36.2209 43.8645 35.3777 43.9334C34.566 43.9997 33.5694 43.9997 32.362 43.9997H15.638C14.4306 43.9997 13.434 43.9997 12.6223 43.9334C11.7791 43.8645 11.0041 43.7167 10.2761 43.3457C9.14709 42.7705 8.2292 41.8526 7.65396 40.7236C7.28303 39.9956 7.13518 39.2206 7.06629 38.3774C6.99997 37.5657 6.99998 36.5691 7 35.3617V15.6378C6.99998 14.4303 6.99997 13.4338 7.06629 12.622C7.13518 11.7788 7.28303 11.0038 7.65396 10.2758C8.2292 9.14679 9.14709 8.22891 10.2761 7.65367C11.0041 7.28273 11.7791 7.13488 12.6223 7.06599C13.4341 6.99967 14.4306 6.99968 15.6381 6.9997L16.127 6.9997C16.5216 5.4693 17.79 4.30007 19.3748 4.04927C19.6896 3.99944 20.037 3.99973 20.4097 4.00005ZM16.0217 9.9997H15.7C14.4151 9.9997 13.5417 10.0009 12.8666 10.056C12.2089 10.1098 11.8726 10.2072 11.638 10.3267C11.0735 10.6143 10.6146 11.0732 10.327 11.6377C10.2074 11.8723 10.1101 12.2086 10.0563 12.8663C10.0012 13.5414 10 14.4148 10 15.6997V35.2997C10 36.5846 10.0012 37.458 10.0563 38.1331C10.1101 38.7908 10.2074 39.1271 10.327 39.3617C10.6146 39.9262 11.0735 40.3851 11.638 40.6727C11.8726 40.7923 12.2089 40.8896 12.8666 40.9434C13.5417 40.9985 14.4151 40.9997 15.7 40.9997H32.3C33.5849 40.9997 34.4583 40.9985 35.1334 40.9434C35.7911 40.8896 36.1274 40.7923 36.362 40.6727C36.9265 40.3851 37.3854 39.9262 37.673 39.3617C37.7926 39.1271 37.8899 38.7908 37.9437 38.1331C37.9988 37.458 38 36.5846 38 35.2997V15.6997C38 14.4148 37.9988 13.5414 37.9437 12.8663C37.8899 12.2086 37.7926 11.8723 37.673 11.6377C37.3854 11.0732 36.9265 10.6143 36.362 10.3267C36.1274 10.2072 35.7911 10.1098 35.1334 10.056C34.4583 10.0009 33.5849 9.9997 32.3 9.9997H31.9783C31.9736 10.0909 31.9679 10.1791 31.961 10.2641C31.9193 10.7738 31.826 11.3019 31.564 11.8161C31.1805 12.5687 30.5686 13.1806 29.816 13.5641C29.3019 13.8261 28.7738 13.9194 28.2641 13.9611C27.7856 14.0002 27.2081 14.0001 26.5555 14.0001H21.4445C20.7919 14.0001 20.2145 14.0002 19.7359 13.9611C19.2262 13.9194 18.6981 13.8261 18.184 13.5641C17.4314 13.1806 16.8195 12.5687 16.436 11.8161C16.174 11.3019 16.0807 10.7738 16.039 10.2641C16.0321 10.1791 16.0264 10.0909 16.0217 9.9997ZM20.4996 7.0001C19.9782 7.0001 19.892 7.00475 19.8437 7.01239C19.4157 7.08013 19.08 7.4158 19.0123 7.84379C19.0047 7.89209 19 7.9783 19 8.4997C19 9.22465 19.0012 9.67816 19.0291 10.0199C19.0556 10.3441 19.0985 10.4334 19.109 10.4541C19.2049 10.6423 19.3578 10.7952 19.546 10.8911C19.5667 10.9016 19.656 10.9445 19.9802 10.971C20.3218 10.9989 20.7752 11.0001 21.5 11.0001H26.5C27.2248 11.0001 27.6782 10.9989 28.0198 10.971C28.344 10.9445 28.4333 10.9016 28.454 10.8911C28.6422 10.7952 28.7951 10.6423 28.891 10.4541C28.9015 10.4334 28.9444 10.3441 28.9709 10.0199C28.9988 9.67816 29 9.22465 29 8.4997C29 7.9783 28.9954 7.89209 28.9877 7.84379C28.92 7.4158 28.5843 7.08013 28.1563 7.01239C28.108 7.00475 28.0218 7.0001 27.5004 7.0001H20.4996Z" fill="black" fill-opacity="0.88"/>
</svg>
