<svg width="48" height="48" viewBox="0 0 48 48" fill="none" xmlns="http://www.w3.org/2000/svg">
<path d="M27.2771 16.4684C27.6039 16.8207 28.0532 17 28.5036 17C28.901 17 29.2996 16.8617 29.6154 16.5798C30.2932 15.978 30.3451 14.9537 29.7302 14.2903C28.2663 12.7108 26.1787 11.8043 24.0016 11.8043C21.8213 11.8043 19.7336 12.7086 18.2742 14.2849C17.6593 14.9472 17.7111 15.9715 18.389 16.5733C19.0679 17.1761 20.1145 17.1254 20.7283 16.4609C21.574 15.5479 22.7365 15.0455 24.0016 15.0455C25.2458 15.0455 26.4392 15.5631 27.2771 16.4684Z" fill="black" fill-opacity="0.88"/>
<path d="M31.0097 12.4731C31.332 12.7875 31.7548 12.9452 32.1777 12.9452C32.6027 12.9452 33.0288 12.7842 33.3523 12.4677C33.997 11.8324 33.9948 10.806 33.3456 10.175C30.8463 7.7419 27.5277 6.40216 24.0016 6.40216C20.4699 6.40216 17.1503 7.73974 14.6553 10.1685C14.0061 10.7995 14.0039 11.8259 14.6486 12.4601C15.2934 13.0943 16.3422 13.0975 16.9902 12.4666C18.8614 10.6461 21.3509 9.64343 24.0016 9.64343C26.6467 9.64343 29.1351 10.6482 31.0097 12.4731Z" fill="black" fill-opacity="0.88"/>
<path d="M34.6981 8.4463C35.0194 8.74666 35.4323 8.89685 35.844 8.89685C36.279 8.89685 36.714 8.72934 37.0397 8.39765C37.6723 7.75156 37.6502 6.72514 36.99 6.10608C33.4793 2.81402 28.8669 1 24.0016 1C19.1264 1 14.5129 2.81186 11.0089 6.10284C10.3498 6.72194 10.3277 7.74832 10.9614 8.39441C11.5951 9.04052 12.6438 9.06102 13.3029 8.44196C16.1865 5.73229 19.9864 4.24131 24.0016 4.24131C28.0091 4.24131 31.8068 5.73447 34.6981 8.4463Z" fill="black" fill-opacity="0.88"/>
<path d="M17.6381 19.9995H30.3619C31.5694 19.9995 32.566 19.9995 33.3777 20.0658C34.2209 20.1347 34.9959 20.2825 35.7239 20.6535C36.8529 21.2287 37.7708 22.1466 38.346 23.2756C38.717 24.0036 38.8648 24.7786 38.9337 25.6218C39 26.4335 39 27.43 39 28.6374V41.5C39 42.3284 38.3284 43 37.5 43C36.6716 43 36 42.3284 36 41.5V28.6995C36 27.4146 35.9988 26.5412 35.9437 25.8661C35.8899 25.2084 35.7926 24.8721 35.673 24.6375C35.3854 24.0731 34.9265 23.6141 34.362 23.3265C34.1274 23.207 33.7911 23.1096 33.1334 23.0558C32.4583 23.0007 31.5849 22.9995 30.3 22.9995H17.7C16.4151 22.9995 15.5417 23.0007 14.8666 23.0558C14.2089 23.1096 13.8726 23.207 13.638 23.3265C13.0735 23.6141 12.6146 24.0731 12.327 24.6375C12.2074 24.8721 12.1101 25.2084 12.0563 25.8661C12.0012 26.5412 12 27.4146 12 28.6995V41.5C12 42.3284 11.3284 43 10.5 43C9.67158 43 9 42.3284 9 41.5V28.6376C8.99998 27.4301 8.99997 26.4336 9.06629 25.6218C9.13518 24.7786 9.28303 24.0036 9.65396 23.2756C10.2292 22.1466 11.1471 21.2287 12.2761 20.6535C13.0041 20.2825 13.7791 20.1347 14.6223 20.0658C15.434 19.9995 16.4306 19.9995 17.6381 19.9995Z" fill="black" fill-opacity="0.88"/>
<path d="M27 29C27 30.6569 25.6569 32 24 32C22.3431 32 21 30.6569 21 29C21 27.3431 22.3431 26 24 26C25.6569 26 27 27.3431 27 29Z" fill="black" fill-opacity="0.88"/>
</svg>
