<svg width="48" height="48" viewBox="0 0 48 48" fill="none" xmlns="http://www.w3.org/2000/svg">
<path d="M18.4653 19.386C19.0811 18.8318 20.0295 18.8817 20.5837 19.4975L23.9688 23.2586L27.3538 19.4975C27.908 18.8817 28.8564 18.8318 29.4722 19.386C30.088 19.9402 30.1379 20.8886 29.5837 21.5044L25.8095 25.6979H30C30.8284 25.6979 31.5 26.3694 31.5 27.1979C31.5 28.0263 30.8284 28.6979 30 28.6979H25.4688V30.9922H30C30.8284 30.9922 31.5 31.6638 31.5 32.4922C31.5 33.3206 30.8284 33.9922 30 33.9922H25.4688V36.4182C25.4688 37.2467 24.7972 37.9182 23.9688 37.9182C23.1403 37.9182 22.4688 37.2467 22.4688 36.4182V33.9922H18C17.1716 33.9922 16.5 33.3206 16.5 32.4922C16.5 31.6638 17.1716 30.9922 18 30.9922H22.4688V28.6979H18C17.1716 28.6979 16.5 28.0263 16.5 27.1979C16.5 26.3694 17.1716 25.6979 18 25.6979H22.128L18.3538 21.5044C17.7996 20.8886 17.8495 19.9402 18.4653 19.386Z" fill="black" fill-opacity="0.88"/>
<path fill-rule="evenodd" clip-rule="evenodd" d="M9.21622 13.1218C9.7869 11.1624 11.435 9.63559 13.5336 9.28275L31.5388 6.2554C34.1054 5.82386 35.3887 5.60809 36.389 5.9785C37.2668 6.30353 38.0028 6.92612 38.4689 7.73786C39 8.66291 39 9.96421 39 12.5668V13.1539C39.4921 13.2345 39.9007 13.3577 40.27 13.5459C41.2108 14.0252 41.9757 14.7901 42.455 15.7309C43 16.8005 43 18.2006 43 21.0009V35.0009C43 37.8012 43 39.2013 42.455 40.2709C41.9757 41.2117 41.2108 41.9766 40.27 42.4559C39.2004 43.0009 37.8003 43.0009 35 43.0009H13C10.1997 43.0009 8.79961 43.0009 7.73005 42.4559C6.78924 41.9766 6.02433 41.2117 5.54497 40.2709C5 39.2013 5 37.8012 5 35.0009V21.0009C5 18.2006 5 16.8005 5.54497 15.7309C6.02433 14.7901 6.78924 14.0252 7.73005 13.5459C8.15207 13.3308 8.62556 13.2006 9.21622 13.1218ZM14.031 12.2412L32.0362 9.21387C33.3722 8.98925 34.1846 8.85534 34.7915 8.80659C35.1621 8.77682 35.3234 8.79295 35.3675 8.79956C35.5713 8.88009 35.743 9.02536 35.8562 9.213C35.8701 9.25541 35.9127 9.41175 35.9448 9.78221C35.9974 10.3888 36 11.2121 36 12.5668V13.0009H12.6364C12.9928 12.6103 13.4769 12.3344 14.031 12.2412ZM12.9514 16.0009C11.53 16.001 10.6359 16.0039 9.96031 16.0591C9.31207 16.112 9.13339 16.1978 9.09202 16.2189C8.71569 16.4106 8.40973 16.7166 8.21799 17.0929C8.1969 17.1343 8.11112 17.313 8.05816 17.9612C8.00233 18.6445 8 19.5513 8 21.0009V35.0009C8 36.4505 8.00233 37.3573 8.05816 38.0406C8.11112 38.6888 8.19691 38.8675 8.21799 38.9089C8.40973 39.2852 8.71569 39.5912 9.09202 39.7829C9.13339 39.804 9.31207 39.8898 9.96031 39.9427C10.6436 39.9986 11.5504 40.0009 13 40.0009H35C36.4496 40.0009 37.3564 39.9986 38.0397 39.9427C38.6879 39.8898 38.8666 39.804 38.908 39.7829C39.2843 39.5912 39.5903 39.2852 39.782 38.9089C39.8031 38.8675 39.8889 38.6888 39.9418 38.0406C39.9977 37.3573 40 36.4505 40 35.0009V21.0009C40 19.5513 39.9977 18.6445 39.9418 17.9612C39.8889 17.313 39.8031 17.1343 39.782 17.0929C39.5903 16.7166 39.2843 16.4106 38.908 16.2189C38.8666 16.1978 38.6879 16.112 38.0397 16.0591C37.3641 16.0039 36.47 16.001 35.0486 16.0009C35.0325 16.0009 35.0163 16.0009 35 16.0009H13C12.9837 16.0009 12.9675 16.0009 12.9514 16.0009ZM35.3763 8.80101L35.3806 8.80194C35.3807 8.80193 35.381 8.80202 35.3806 8.80194C35.38 8.80179 35.3783 8.80137 35.3763 8.80101ZM35.8517 9.20042C35.8516 9.20009 35.8517 9.2004 35.8517 9.20042L35.8533 9.20457C35.8527 9.2027 35.852 9.20103 35.8517 9.20042Z" fill="black" fill-opacity="0.88"/>
</svg>
