<svg width="178" height="48" viewBox="0 0 178 48" fill="none" xmlns="http://www.w3.org/2000/svg">
<path d="M24.7799 5.29596C27.5895 5.42268 30.2069 6.20484 32.5009 7.48076H41.4193C37.0453 2.8752 30.858 0 24.0021 0C10.7448 0 0 10.7492 0 24.0066C0 29.7308 2.00127 34.9962 5.35274 39.1211L6.53688 21.6033C7.1792 12.1125 15.2804 4.86774 24.7842 5.3047H24.7799V5.29596Z" fill="#FFCF00"/>
<path d="M48.0082 24.0027C48.0082 18.9339 46.4396 14.2279 43.7479 10.3477L40.4052 16.7011C41.2354 18.9383 41.6199 21.3809 41.4539 23.9153L40.3003 41.6297C45.0413 37.2426 48.0126 30.9722 48.0126 23.9983L48.0082 24.0027Z" fill="#FFCF00"/>
<path d="M43.5342 7.47628H32.5054C30.2157 6.19599 27.5896 5.4182 24.7843 5.29148C15.2805 4.86326 7.17925 12.1081 6.53692 21.5901L5.35278 39.1079C7.10935 41.2752 9.23296 43.1279 11.6275 44.5699L13.0869 22.2237H13.1C13.3841 16.4427 18.16 11.8459 24.0022 11.8459C29.1495 11.8459 33.4666 15.4115 34.6158 20.2137C34.6158 20.2137 35.0616 21.4415 34.9174 24.7799C34.7732 28.1183 34.074 29.6214 34.074 29.6302C32.5359 33.7944 28.5291 36.7526 23.8318 36.7526C22.5252 36.7526 21.2755 36.5254 20.1132 36.1016C20.0783 36.0885 20.039 36.0797 20.004 36.0579C19.3923 35.87 18.7456 36.2982 18.6975 36.958L18.6844 37.0978L18.0246 47.2528C19.9297 47.7422 21.9353 48 23.9891 48C30.2812 48 36.0054 45.5836 40.2832 41.616L41.4368 23.9016C41.5984 21.3629 41.2183 18.9203 40.3881 16.6918L44.4343 9.00565C44.8014 8.30651 44.2945 7.47191 43.508 7.47191H43.5254L43.5342 7.47628Z" fill="black"/>
<path d="M34.6202 20.2252C33.471 15.4274 29.1539 11.8574 24.0065 11.8574C18.16 11.8574 13.384 16.4542 13.1044 22.2352H13.0913L11.6318 44.5814C13.6025 45.7743 15.7567 46.6875 18.042 47.2687L18.7018 37.1137L18.7149 36.9739C18.7586 36.3141 19.4054 35.8859 20.0215 36.0738C20.0564 36.0869 20.0957 36.0956 20.1307 36.1175C21.293 36.537 22.5427 36.7685 23.8492 36.7685C28.5465 36.7685 32.5447 33.8016 34.0915 29.6461C34.0915 29.6461 34.7906 28.1429 34.9348 24.7958C35.079 21.4574 34.6333 20.2296 34.6333 20.2296H34.6289L34.6202 20.2252Z" fill="white"/>
<path d="M24.6835 19.0473C24.1373 19.0473 23.6348 19.2265 23.2284 19.528C23.2284 19.528 20.6198 21.2321 20.4363 24.7497V24.8414C20.4363 25.274 20.7902 25.628 21.2228 25.628C21.4806 25.628 21.7166 25.5012 21.8608 25.3046C21.8608 25.3046 22.857 23.9107 24.6835 23.9282C26.0949 23.9282 27.1261 22.8314 27.1261 21.4856C27.1261 20.1397 26.0293 19.043 24.6835 19.043V19.0473Z" fill="black"/>
<path d="M69.0092 4.19494L69.1053 2.68743C69.1097 2.58693 69.031 2.50391 68.9305 2.50391H61.1964C61.1046 2.50391 61.0303 2.57382 61.0216 2.66558L60.9255 4.16436C60.9211 4.26486 60.9997 4.34788 61.1002 4.34788H63.9711L63.2369 15.6171C63.2326 15.7089 63.2938 15.7875 63.3855 15.8006C63.5254 15.8225 63.7744 15.8443 64.1633 15.8443C64.5522 15.8443 64.8406 15.8137 65.0066 15.7919C65.0897 15.7788 65.1508 15.7132 65.1552 15.6302L65.8937 4.35225H68.8344C68.9262 4.35225 69.0005 4.28234 69.0092 4.19057V4.19494Z" fill="black"/>
<path d="M80.0765 5.25632H79.8537C78.049 5.25632 76.5547 6.6546 76.441 8.45487L76.1351 13.2964L75.9997 15.4113C75.9953 15.503 76.0609 15.5817 76.1526 15.5948C76.2925 15.6123 76.5372 15.6341 76.9348 15.6341C77.3324 15.6341 77.6121 15.6079 77.7694 15.5904C77.8524 15.5817 77.9179 15.5118 77.9223 15.4288L78.0621 13.244L78.368 8.47235C78.4161 7.70767 79.0541 7.10904 79.8231 7.10904H79.9148C80.7494 7.10904 81.4136 7.81691 81.3568 8.64714L81.0509 13.2134L80.9024 15.4113C80.898 15.503 80.9635 15.5817 81.0553 15.5948C81.1908 15.6123 81.4354 15.6298 81.8549 15.6298C82.2744 15.6298 82.5279 15.6079 82.6633 15.5904C82.7463 15.5773 82.8075 15.5118 82.8119 15.4288L82.9473 13.3095L83.2445 8.61655C83.3581 6.79442 81.9074 5.25195 80.0809 5.25195L80.0765 5.25632Z" fill="black"/>
<path d="M124.258 2.53429C124.114 2.50371 123.851 2.46875 123.445 2.46875C122.986 2.46875 122.741 2.50371 122.61 2.52992C122.536 2.5474 122.479 2.61295 122.475 2.68723L121.627 15.3635C121.623 15.4421 121.671 15.5164 121.745 15.5382C121.894 15.5863 122.173 15.6519 122.597 15.6519C123.021 15.6519 123.296 15.5819 123.432 15.5339C123.497 15.512 123.541 15.4508 123.545 15.3809L124.393 2.70908C124.398 2.62169 124.341 2.5474 124.258 2.52992V2.53429Z" fill="black"/>
<path d="M118.857 2.83073C118.197 2.42873 117.546 2.3457 117.113 2.3457C116.051 2.3457 115.059 2.7346 114.325 3.43373C113.596 4.1285 113.159 5.09418 113.089 6.15163L112.739 11.8758C112.669 12.9901 113.014 13.9951 113.709 14.7029C114.177 15.1792 115.011 15.7298 116.366 15.7298C118.472 15.7298 119.608 14.9651 119.875 14.7598C119.914 14.7292 119.94 14.6855 119.94 14.633L120.347 8.62483C120.355 8.52433 120.272 8.4413 120.172 8.4413H116.93C116.838 8.4413 116.763 8.51559 116.755 8.60298L116.659 9.98814C116.65 10.0886 116.733 10.176 116.833 10.176H118.385C118.328 11.098 118.24 12.2516 118.162 13.4838C118.162 13.5494 118.118 13.6062 118.057 13.6324C117.249 13.9907 115.724 14.183 114.981 13.4751C114.644 13.1561 114.539 12.5749 114.579 11.9938L114.928 6.26961C115.007 5.04612 115.903 4.18968 117.109 4.18968C118 4.18968 118.481 4.88007 118.739 5.51804C118.773 5.60543 118.87 5.64912 118.957 5.61854L120.373 5.1204C120.465 5.08982 120.513 4.98494 120.478 4.89318C120.115 3.95809 119.569 3.26769 118.852 2.83073H118.857Z" fill="black"/>
<path d="M88.5578 5.25586H88.3087C86.574 5.25586 85.1189 6.61918 84.9878 8.35828L84.9617 8.71659L84.2581 18.3559C84.2494 18.4477 84.3149 18.5264 84.4067 18.5395C84.5378 18.5569 84.7693 18.57 85.1845 18.57C85.5777 18.57 85.805 18.5482 85.9317 18.5307C86.0147 18.5176 86.0759 18.4521 86.0846 18.369L86.3293 15.4633C86.6571 15.6643 87.212 15.8303 87.9417 15.8303C89.388 15.8303 91.3237 15.2535 91.4723 12.54L91.7476 8.71659C91.8874 6.84203 90.428 5.25586 88.5578 5.26023V5.25586ZM89.8731 8.66852L89.5934 12.5007C89.541 13.1605 89.3443 14.0475 87.6795 14.0519C86.9804 14.0519 86.4866 13.663 86.4866 13.663L86.8973 8.45004C86.9542 7.69847 87.5834 7.11294 88.3306 7.11294H88.4398C89.2788 7.11294 89.9386 7.82519 89.8731 8.66852Z" fill="black"/>
<path d="M136.48 6.03408L136.694 2.75251C136.698 2.66512 136.642 2.59084 136.559 2.57336C136.414 2.54277 136.152 2.50781 135.746 2.50781C135.287 2.50781 135.042 2.54277 134.911 2.56899C134.837 2.58647 134.78 2.65201 134.776 2.72629L134.029 14.3669C134.024 14.4587 134.059 14.5461 134.125 14.6073C134.439 14.9 135.475 15.7171 137.297 15.7171C138.232 15.7477 139.294 15.4637 140.002 14.8345C140.552 14.3451 140.871 13.5498 140.95 12.4312L141.177 8.835C141.278 7.21388 140.203 5.67578 138.66 5.46604C137.109 5.25629 136.484 6.03408 136.484 6.03408H136.48ZM136.314 8.47232C136.406 7.76882 136.978 7.23573 137.839 7.23573C138.7 7.23573 139.351 7.94797 139.294 8.78694L139.058 12.3875C139.036 12.6977 138.997 14.0217 137.336 14.0217C136.314 14.0217 135.969 13.6066 135.969 13.6066L136.31 8.46795L136.314 8.47232Z" fill="black"/>
<path d="M74.5978 11.1242C74.6896 11.1242 74.7639 11.0543 74.7726 10.9626L74.9212 8.61609C75.0348 6.79396 73.5885 5.25586 71.762 5.25586H71.6877C70.2239 5.25586 68.9567 6.13415 68.4018 7.4057C68.3494 7.53679 68.144 8.1398 68.0785 9.19287L67.8731 11.9982L67.86 12.221C67.8469 12.5924 67.8643 13.3615 68.1527 13.9863C68.192 14.065 68.2358 14.148 68.2794 14.2223C68.2969 14.2485 68.31 14.2747 68.3231 14.2922C68.8999 15.2054 69.9355 15.8216 71.0629 15.8434C71.0629 15.8434 71.4518 15.8565 71.7751 15.8128C73.1166 15.6337 74.1172 14.9476 74.7989 13.8596C74.8469 13.781 74.8251 13.6805 74.7508 13.628L73.7196 12.9027C73.6409 12.8502 73.5361 12.8677 73.4793 12.942C73.003 13.5712 72.5223 13.8684 72.0548 13.9994C72.0548 13.9994 72.0548 13.9994 72.046 13.9994C72.0285 14.0038 71.9805 14.0169 71.9106 14.0344C71.9062 14.0344 71.9018 14.0344 71.8975 14.0344C71.6571 14.0868 71.1852 14.1611 70.7876 14.0344C70.5604 13.9776 70.2982 13.8684 70.071 13.6586C70.0666 13.6542 70.0622 13.6499 70.0578 13.6455C70.0491 13.6368 70.0404 13.628 70.0317 13.6193C70.0273 13.6149 70.0185 13.6062 70.0142 13.6018C69.7957 13.3877 69.599 13.0512 69.6253 12.5444C69.6384 12.2472 69.7127 11.5394 69.7389 11.1155H69.8656H74.5978V11.1242ZM69.8307 9.59051L69.8656 8.90448L69.8787 8.69474C69.9443 7.79897 70.6871 7.09983 71.5872 7.1042C72.483 7.1042 73.1908 7.86888 73.1165 8.76028L73.0991 8.95691L73.0641 9.59051H69.8263H69.8307Z" fill="black"/>
<path d="M108.522 5.3219C107.697 5.19082 107.129 5.2651 106.884 5.3088C106.805 5.3219 106.748 5.38745 106.744 5.4661C106.744 5.4661 106.683 5.96424 106.276 12.4575C106.276 12.4662 106.276 12.4749 106.276 12.4881C106.259 12.7371 106.246 12.9993 106.228 13.2658C106.228 13.3139 106.224 13.362 106.22 13.41C104.843 14.0786 104.14 13.812 103.795 13.4756C103.773 13.4581 103.755 13.4363 103.738 13.4188C103.655 13.3314 103.585 13.2309 103.532 13.1042C103.497 13.0255 103.484 12.9731 103.484 12.9731C103.436 12.8114 103.41 12.6191 103.423 12.3876L103.913 5.49669C103.917 5.40493 103.856 5.32627 103.764 5.31317C102.96 5.18645 102.379 5.26947 102.13 5.31754C102.051 5.33501 101.999 5.40056 101.99 5.47484L101.505 12.5929C101.466 13.2134 101.61 13.7946 101.929 14.2796C101.929 14.2796 102.693 15.6211 104.559 15.6211C105.136 15.6211 105.652 15.4638 106.093 15.2453L106.062 15.6953C106.027 16.4338 105.599 16.8577 104.446 16.862C103.017 16.8708 102.401 16.7091 102.021 16.6173C101.929 16.5955 101.841 16.6479 101.815 16.7353L101.632 17.3558L101.444 17.9938C101.418 18.0855 101.47 18.1817 101.562 18.2079C102.121 18.3739 103.279 18.5531 104.725 18.5531C106.294 18.5531 107.836 17.9282 107.963 16.0405L108.426 8.60785L108.671 5.49232C108.675 5.40056 108.614 5.3219 108.527 5.3088L108.522 5.3219Z" fill="black"/>
<path d="M132.066 6.37384C131.48 5.57858 130.519 5.05859 129.278 5.05859C127.417 5.05859 125.896 6.14226 125.752 8.35328C125.752 8.35328 125.49 12.0106 125.49 12.3908C125.49 12.9283 125.555 13.977 126.429 14.8378C127.054 15.4539 127.915 15.7729 128.797 15.7772C129.13 15.7772 129.51 15.7598 129.881 15.6855C129.899 15.6855 129.969 15.6636 129.973 15.6636C130.925 15.4277 132.18 14.7242 132.385 12.6704C132.394 12.6049 132.398 12.5437 132.402 12.4782L132.63 9.24031L132.665 8.68537C132.673 8.07799 132.59 7.0992 132.062 6.37384H132.066ZM130.764 8.51932L130.497 12.3121C130.467 12.6093 130.371 13.1686 130.056 13.5225C130.004 13.5793 129.947 13.6318 129.881 13.6842C129.877 13.6842 129.872 13.6929 129.868 13.6973C129.601 13.9027 129.265 14.025 128.907 14.025H128.789C128.286 14.025 127.845 13.7628 127.6 13.3652C127.399 13.0331 127.395 12.535 127.404 12.3034L127.412 12.1767L127.683 8.38386C127.74 7.55364 128.43 6.91131 129.261 6.91131C130.135 6.91131 130.829 7.64977 130.768 8.52369L130.764 8.51932Z" fill="black"/>
<path d="M99.9059 7.1083C99.7136 6.65386 99.5039 6.29992 99.1893 6.01153C98.1668 5.07643 96.5719 4.92349 95.4139 5.34735C94.4526 5.70128 93.736 6.52277 93.3428 7.56274C93.3166 7.62828 93.3472 7.70256 93.4127 7.72878L94.5793 8.26187C94.6449 8.29246 94.7236 8.26187 94.7541 8.19633C95.0513 7.54526 95.4315 7.09082 95.9908 6.88108C96.9739 6.50966 98.3197 6.94225 98.3809 8.36237C98.4028 8.87799 98.3285 9.2931 98.3285 9.2931C98.3285 9.2931 97.1181 9.31932 96.6331 9.3499C95.0382 9.45914 93.2729 9.79123 92.9582 12.0678C92.4295 15.8737 96.821 16.6996 99.5301 14.6633C99.6 14.6109 99.6481 14.5279 99.6525 14.4361C99.6962 13.8244 99.8753 11.3381 99.9714 9.67326C100.033 8.60707 100.137 7.71567 99.9103 7.1083H99.9059ZM98.0008 13.5928C96.9826 14.1521 95.6761 14.1259 95.143 13.7938C94.7847 13.5709 94.5794 13.1995 94.5881 12.5397C94.5925 12.2426 94.6318 11.8362 94.9682 11.526C95.6499 10.9011 97.0132 10.9011 98.2017 10.9011L97.9964 13.5884L98.0008 13.5928Z" fill="black"/>
<path d="M149.335 7.1083C149.143 6.65386 148.933 6.29992 148.618 6.01153C147.596 5.07643 146.001 4.92349 144.843 5.34735C143.882 5.70128 143.165 6.52277 142.772 7.56274C142.746 7.62828 142.776 7.70256 142.842 7.72878L144.008 8.26187C144.074 8.29246 144.153 8.26187 144.183 8.19633C144.48 7.54526 144.86 7.09082 145.42 6.88108C146.403 6.50966 147.749 6.94225 147.81 8.36237C147.832 8.87799 147.757 9.2931 147.757 9.2931C147.757 9.2931 146.547 9.31932 146.062 9.3499C144.467 9.45914 142.702 9.79123 142.387 12.0678C141.858 15.8737 146.25 16.6996 148.959 14.6633C149.029 14.6109 149.077 14.5279 149.081 14.4361C149.125 13.8244 149.304 11.3381 149.4 9.67326C149.462 8.60707 149.566 7.71567 149.339 7.1083H149.335ZM147.43 13.5928C146.412 14.1521 145.105 14.1259 144.572 13.7938C144.214 13.5709 144.008 13.1995 144.017 12.5397C144.021 12.2426 144.061 11.8362 144.397 11.526C145.079 10.9011 146.442 10.9011 147.631 10.9011L147.425 13.5884L147.43 13.5928Z" fill="black"/>
<path d="M153.927 13.9738C153.425 13.9738 152.831 13.598 152.879 12.7546L153.534 2.77009C153.538 2.6827 153.482 2.60841 153.399 2.59093C153.254 2.56035 152.992 2.52539 152.586 2.52539C152.127 2.52539 151.882 2.56035 151.756 2.58657C151.681 2.60404 151.625 2.66959 151.62 2.74387L150.96 12.6804C150.96 12.6804 150.899 13.6548 151.087 14.2403C151.126 14.3364 151.17 14.4238 151.218 14.5112C151.24 14.5418 151.258 14.568 151.262 14.5855C151.677 15.2672 152.424 15.7303 153.289 15.7303C154.513 15.7303 155.238 15.5381 155.492 15.4551C155.553 15.4376 155.592 15.3808 155.597 15.3196C155.614 15.0443 155.667 14.2796 155.693 13.8995C155.701 13.7902 155.597 13.7116 155.496 13.7422C155.203 13.8296 154.696 13.9781 153.927 13.9781V13.9738Z" fill="black"/>
<path d="M76.7956 31.9184H79.2644C79.378 31.9184 79.4741 31.831 79.4829 31.7174L79.5877 30.2711C79.5965 30.1444 79.496 30.0395 79.3736 30.0395H73.5621C73.6363 29.904 74.0558 28.9558 74.0602 28.8204H79.1115C79.2207 28.8204 79.3168 28.733 79.3256 28.6194L79.4261 27.173C79.4348 27.0507 79.3343 26.9414 79.2076 26.9414H76.8655L78.7531 24.8834C78.8361 24.7916 78.8274 24.6474 78.7269 24.5688L77.6607 23.7385C77.5733 23.6686 77.4467 23.6817 77.3724 23.7647L75.5764 25.7223C75.4934 25.8141 75.5065 25.9583 75.607 26.0413L76.765 26.9414H74.5846C74.7812 26.3472 74.9297 25.7704 75.0477 25.1586C75.1657 24.5469 75.2531 23.9002 75.3361 23.1705C75.3492 23.0438 75.2531 22.9258 75.122 22.9258H73.68C73.5708 22.9258 73.4747 23.0088 73.4659 23.1224C73.2868 24.6605 73.1033 25.7354 72.7013 26.9414H69.3367C69.2231 26.9414 69.127 27.0288 69.1182 27.1424L69.0221 28.5888C69.0133 28.7111 69.1138 28.8204 69.2362 28.8204H72.0764C72.072 28.8859 71.9628 29.1568 71.8448 29.4321C71.7312 29.703 71.6045 29.9696 71.5652 30.0395H68.6026C68.489 30.0395 68.3929 30.1269 68.3841 30.2405L68.288 31.6912C68.2793 31.8136 68.3798 31.9228 68.5021 31.9228H70.4465C69.7037 33.1113 68.7337 34.23 67.5364 35.2874L68.2924 24.3328C68.3011 24.2061 68.2006 24.1012 68.0783 24.1012H63.512C63.2018 24.1012 62.9396 24.3459 62.9221 24.6561L62.3498 33.2118C62.0963 36.7774 61.821 39.29 61.5239 40.7407C61.2879 42.187 60.8204 43.7426 60.1082 45.3943L61.8472 45.9886C62.9353 43.677 63.5994 40.8062 63.8441 37.3717H65.6269L65.2205 43.1177C65.1943 43.511 64.9846 43.677 64.587 43.6159H63.5601C63.4246 43.6159 63.3241 43.7382 63.3503 43.8737L63.6344 45.32C63.6519 45.4249 63.7436 45.4948 63.8441 45.4948H65.1506C66.3304 45.5603 66.9334 45.001 66.9509 43.8125L67.4621 36.1832C67.4621 36.1832 67.6719 36.3754 67.803 36.5021L68.253 36.9304C68.336 37.0134 68.4671 37.0134 68.5502 36.9304C68.808 36.6682 69.2886 36.1788 69.4022 36.0696L69.1532 39.3031C69.1444 39.4254 69.2449 39.5347 69.3673 39.5347H76.363C76.5203 39.5347 76.6426 39.6657 76.6339 39.823L76.4154 43.1177C76.446 43.5765 76.2013 43.7775 75.677 43.7076H73.8155C73.6801 43.7076 73.5795 43.83 73.6057 43.9654L73.8898 45.4205C73.9073 45.521 73.999 45.5953 74.0995 45.5953H76.2406C77.4859 45.6608 78.1239 45.0622 78.1501 43.8125L78.5259 38.2806C78.5477 37.9397 78.2812 37.6514 77.936 37.6514H76.529L76.7737 34.9946C76.8917 35.1257 77.1058 35.3267 77.4161 35.5802C77.4204 35.5845 77.4291 35.5889 77.4335 35.5976C77.8442 36.0433 78.1894 36.3623 78.4778 36.5721C78.5652 36.6376 78.6876 36.6158 78.7619 36.5371L79.9286 35.1956C78.6177 34.1426 77.5646 33.0545 76.7912 31.9272L76.7956 31.9184ZM65.758 35.5802H64.0713C64.1281 34.8592 64.1806 34.0683 64.2418 33.2031L64.3597 31.5208H66.042L65.7624 35.5758L65.758 35.5802ZM66.1688 29.7424H64.4821L64.718 26.0282C64.718 25.9976 64.7399 25.9801 64.7705 25.9801H66.3435C66.3741 25.9801 66.4003 26.0064 66.4003 26.0369L66.1731 29.7424H66.1688ZM74.6545 37.647H71.1632L71.268 36.1045C71.2768 35.9822 71.1763 35.8729 71.0539 35.8729H69.6294L70.1276 35.2874H74.8817L74.6588 37.647H74.6545ZM71.5346 33.5046C71.9715 32.9759 72.2599 32.5826 72.4129 32.3204C72.4915 32.1194 72.5614 31.984 72.6401 31.9228H74.6151C74.9123 32.4472 75.2356 32.9759 75.5939 33.5046H71.5346ZM75.5764 40.7625H68.2967C68.1831 40.7625 68.0914 40.8455 68.0826 40.9591L67.9865 42.2438C67.9777 42.3662 68.0782 42.4754 68.2006 42.4754H75.4759C75.5895 42.4754 75.6813 42.3924 75.6944 42.2788L75.7949 40.9941C75.8036 40.8718 75.7031 40.7625 75.5808 40.7625H75.5764ZM72.3255 25.718L70.901 23.791C70.8311 23.6948 70.7 23.673 70.6038 23.7429L69.5333 24.4945C69.4328 24.5644 69.411 24.7042 69.4853 24.8003L70.9141 26.688C70.984 26.7798 71.1107 26.8016 71.2025 26.7361L72.2687 26.0238C72.3735 25.9539 72.3954 25.8141 72.3255 25.718Z" fill="black"/>
<path d="M92.8668 40.8939L91.7481 39.7797C91.6782 39.7098 91.5646 39.7141 91.4947 39.7884L89.8998 41.5668L90.564 31.7177L90.6514 30.468C90.6601 30.3457 90.5596 30.2364 90.4373 30.2364H87.0071C86.8935 30.2364 86.8018 30.3238 86.793 30.4331L86.6663 32.1809C86.6576 32.3033 86.7581 32.4125 86.8848 32.4125H88.436L87.6145 44.5993C87.6101 44.6561 87.632 44.7173 87.6713 44.761L88.6764 45.8141C88.7681 45.9059 88.9123 45.9015 88.9953 45.8054L92.8843 41.1867C92.9542 41.0993 92.9498 40.9726 92.8711 40.8939H92.8668ZM91.8312 27.1777L89.2968 23.2888C89.2313 23.1839 89.0958 23.1577 88.9997 23.2232L87.5883 24.1714C87.4921 24.2326 87.466 24.3637 87.5271 24.4642L89.9785 28.3619C90.0397 28.4624 90.1751 28.493 90.2756 28.4274L91.7744 27.4705C91.8749 27.4049 91.9055 27.2739 91.8399 27.1734L91.8312 27.1777ZM104.752 40.1729L103.45 39.6486C103.314 39.5961 103.17 39.6879 103.157 39.8321C103.096 40.588 102.978 41.3178 102.808 42.0213C102.703 42.6155 102.55 42.8777 102.362 42.8122C102.226 42.8122 102.148 42.515 102.126 41.9208C102.034 40.4002 102.104 37.9619 102.344 34.5929L102.956 25.8188C103.017 24.8837 102.279 24.0884 101.344 24.0884H93.378C93.2644 24.0884 93.1726 24.1758 93.1639 24.2894L93.0416 25.9455C93.0328 26.0678 93.1333 26.1771 93.26 26.1771H95.2089L94.7457 32.4475H91.9754C91.8617 32.4475 91.77 32.5392 91.7612 32.6485L91.6433 34.2958C91.6345 34.4182 91.735 34.5274 91.8574 34.5274H94.6015L93.8499 45.7005C93.8455 45.801 93.9242 45.884 94.0247 45.884H95.755C95.8468 45.884 95.9211 45.8141 95.9298 45.7223L96.6814 34.523H99.4561C99.5653 34.523 99.6614 34.4356 99.6702 34.3264L99.7882 32.6791C99.7969 32.5567 99.6964 32.4475 99.5697 32.4475H96.8256L97.2888 26.1771H100.177C100.487 26.1771 100.736 26.4436 100.715 26.7539L100.164 34.5973C99.8406 39.2204 99.8581 42.2878 100.221 43.8084C100.518 45.1936 101.16 45.8491 102.161 45.7835C103.153 45.7835 103.83 44.9926 104.206 43.4064C104.455 42.5893 104.678 41.5931 104.892 40.4176C104.909 40.3171 104.857 40.2123 104.761 40.1773L104.752 40.1729Z" fill="black"/>
<path d="M121.055 28.7496H118.018L118.036 28.5486L118.176 26.5692H120.644C120.758 26.5692 120.854 26.4818 120.863 26.3682L120.972 24.817C120.981 24.6946 120.88 24.5854 120.758 24.5854H115.838C116.03 24.1615 116.214 23.7726 116.402 23.4274C116.463 23.3094 116.406 23.1609 116.279 23.1216L114.868 22.6671C114.763 22.6322 114.654 22.6846 114.61 22.7807C113.88 24.3582 113.05 25.7914 112.119 27.0804C112.049 27.1809 112.076 27.3164 112.176 27.3819L113.334 28.1422C113.43 28.2034 113.557 28.1859 113.627 28.0942C114.007 27.6135 114.335 27.1023 114.614 26.5648H116.201L116.056 28.6447V28.7496H112.189C112.08 28.7496 111.984 28.837 111.975 28.9506L111.87 30.3969C111.862 30.5193 111.962 30.6285 112.084 30.6285H115.418C114.837 31.6467 113.548 32.7303 111.543 33.8708C111.425 33.9363 111.394 34.0893 111.477 34.1941L112.39 35.339C112.456 35.422 112.574 35.4438 112.67 35.3914C114.636 34.3034 115.982 33.2459 116.694 32.2147L119.718 34.6529C119.81 34.7316 119.945 34.7141 120.024 34.6224L121.042 33.377C121.121 33.2809 121.103 33.1411 121.007 33.0668L117.704 30.6242H120.972C121.086 30.6242 121.182 30.5368 121.191 30.4232L121.287 28.9768C121.296 28.8545 121.195 28.7452 121.073 28.7452L121.055 28.7496ZM126.329 34.8889H114.579C114.156 34.8889 113.802 35.2166 113.775 35.6405L113.666 37.1567L113.116 45.0876C113.094 45.4633 113.391 45.7867 113.771 45.7867H125.831C126.176 45.7867 126.46 45.5202 126.482 45.175L127.046 37.0213L127.138 35.7541C127.168 35.2865 126.801 34.8889 126.334 34.8889H126.329ZM124.52 43.497C124.511 43.6106 124.415 43.7024 124.302 43.7024H115.532C115.405 43.7024 115.305 43.5932 115.314 43.4708L115.484 41.002H124.695L124.525 43.497H124.52ZM124.831 39.0225H115.619L115.746 37.113C115.755 36.9732 115.873 36.864 116.017 36.864H124.686C124.844 36.864 124.966 36.9951 124.957 37.1524L124.831 39.0225ZM128.606 24.4106H122.44C122.327 24.4106 122.235 24.498 122.226 24.6116L121.628 33.1979C121.619 33.3202 121.719 33.4295 121.842 33.4295H128.095C128.518 33.4295 128.868 33.0974 128.899 32.6779L129.414 25.2758C129.449 24.8082 129.078 24.4106 128.61 24.4106H128.606ZM126.915 31.1922C126.906 31.3364 126.788 31.4413 126.648 31.4413H123.729L124.079 26.39H126.963C127.12 26.39 127.243 26.5211 127.234 26.6784L126.915 31.1922Z" fill="black"/>
<path d="M140.316 36.7899L138.791 36.2437C138.681 36.2087 138.563 36.2568 138.52 36.3616L135.007 44.6814C134.959 44.795 135.015 44.9261 135.133 44.9654L136.663 45.516C136.772 45.5509 136.89 45.5029 136.934 45.398L140.447 37.0739C140.495 36.9603 140.438 36.8292 140.32 36.7855L140.316 36.7899ZM140.167 32.748L137.331 29.6019C137.248 29.5101 137.113 29.5057 137.025 29.5888L135.749 30.7817C135.666 30.8603 135.658 30.9958 135.736 31.0832L138.572 34.2336C138.651 34.3254 138.791 34.3298 138.878 34.2468L140.15 33.0539C140.237 32.9752 140.241 32.8397 140.163 32.7524L140.167 32.748ZM141.386 26.5082L138.542 23.4451C138.463 23.3621 138.336 23.3533 138.249 23.4276L136.899 24.5419C136.803 24.6205 136.794 24.7603 136.877 24.8521L139.708 27.9895C139.787 28.0769 139.918 28.0856 140.01 28.007L141.369 26.8141C141.46 26.7354 141.465 26.5956 141.386 26.5082ZM153.966 24.0874H143.811C142.968 24.0874 142.26 24.7429 142.199 25.5862L142.142 26.3902L140.888 44.1221C140.836 44.8824 141.439 45.5247 142.195 45.5247H152.808C152.9 45.5247 152.974 45.4548 152.983 45.363L153.105 43.6327C153.11 43.5322 153.031 43.4491 152.931 43.4491H143.479C143.23 43.4491 143.029 43.2307 143.047 42.9816L144.135 27.6006L144.2 26.6699C144.222 26.3858 144.458 26.1674 144.738 26.1674H153.844C153.953 26.1674 154.049 26.08 154.058 25.9707L154.176 24.3146C154.185 24.1879 154.084 24.0831 153.957 24.0831L153.966 24.0874Z" fill="black"/>
<path d="M170.519 27.1791L169.047 24.6622C168.99 24.5661 168.867 24.5268 168.767 24.5792L167.714 25.0817C167.766 24.3738 167.81 23.6965 167.858 23.0324C167.867 22.91 167.766 22.8008 167.644 22.8008H166.294C166.18 22.8008 166.084 22.8838 166.075 22.9974C165.992 24.3301 165.713 29.6348 165.713 29.6348H163.825L164.07 26.1697C164.179 26.1697 164.93 26.0256 165.289 25.9382C165.394 25.9163 165.459 25.8202 165.45 25.7153L165.332 24.2428C165.324 24.1117 165.197 24.0199 165.07 24.0505C163.668 24.4001 162.217 24.636 160.718 24.7627C160.6 24.7715 160.513 24.872 160.521 24.9943L160.653 26.4625C160.661 26.5805 160.766 26.6679 160.884 26.6591C161.409 26.6198 162.269 26.4669 162.269 26.4669L162.046 29.6348H160.168C160.058 29.6348 159.962 29.7222 159.953 29.8358L159.853 31.2909C159.844 31.4133 159.945 31.5225 160.071 31.5225H161.92L161.627 35.6824L159.495 36.4077C159.385 36.4427 159.324 36.565 159.359 36.6786L159.796 38.0551C159.831 38.1687 159.953 38.2342 160.067 38.1993L161.483 37.7667L161.107 43.1151C161.081 43.5083 160.836 43.705 160.377 43.705H159.447C159.311 43.705 159.211 43.8273 159.237 43.9628L159.521 45.4179C159.543 45.5184 159.63 45.5926 159.731 45.5926H160.937C162.13 45.5926 162.763 45.029 162.837 43.906L163.314 37.0719L165.044 36.5388C165.153 36.5039 165.214 36.3946 165.188 36.281L164.825 34.8172C164.795 34.6992 164.673 34.6249 164.555 34.6599L163.453 34.992L163.698 31.5269H165.577C165.498 33.5719 165.507 35.8528 165.595 38.3566C165.446 38.6887 164.31 39.9034 163.952 40.2792C163.886 40.3491 163.873 40.4496 163.921 40.5326L164.659 41.8435C164.729 41.9659 164.895 41.9921 164.996 41.8916C165.236 41.6644 165.673 41.2405 165.857 40.9914C165.892 41.2143 165.909 41.494 165.953 41.8217C166.023 42.6781 166.115 43.2768 166.224 43.6045C166.508 45.1863 167.12 45.9466 168.046 45.881C169.099 45.9466 169.737 44.9197 170.266 42.5164C170.336 42.2586 170.379 42.0402 170.401 41.8654C170.41 41.778 170.366 41.695 170.283 41.6556L169.077 41.0308C169.068 41.1619 169.016 41.3629 168.937 41.6207C168.832 42.1494 168.736 42.547 168.658 42.8136C168.553 43.2768 168.439 43.504 168.312 43.504C168.116 43.504 167.749 43.2156 167.552 38.7542C168.413 37.4084 169.361 35.6911 170.401 33.6024C170.454 33.4976 170.41 33.3621 170.305 33.3097L169.073 32.711C168.964 32.6586 168.837 32.711 168.784 32.8203C168.343 33.7947 167.88 34.6861 167.39 35.4857C167.456 34.4938 167.469 32.4095 167.469 31.741C167.469 31.623 167.565 31.5313 167.688 31.5313H169.846C169.955 31.5313 170.052 31.4439 170.06 31.3302L170.161 29.8752C170.17 29.7528 170.069 29.6436 169.942 29.6436H167.6C167.6 29.6436 167.683 26.5718 167.67 25.7809L169.068 28.0749C169.13 28.1798 169.265 28.2104 169.365 28.1448L170.454 27.4763C170.554 27.4107 170.585 27.284 170.528 27.1835L170.519 27.1791ZM174.6 38.7542H169.628C169.518 38.7542 169.422 38.8416 169.414 38.9552L169.309 40.5064C169.3 40.6288 169.4 40.738 169.527 40.738H174.495C174.609 40.738 174.705 40.6506 174.709 40.537L174.814 38.9858C174.823 38.8635 174.723 38.7542 174.6 38.7542ZM177.034 35.1886H172.45L173.027 26.9694H175.474C175.597 26.9694 175.697 27.0743 175.688 27.201L175.396 31.3259C175.422 31.8546 175.212 32.0862 174.758 32.0206H173.626C173.49 32.0206 173.39 32.143 173.416 32.2785L173.7 33.8253C173.718 33.9258 173.809 34.0044 173.91 34.0044H175.514C176.693 34.0744 177.301 33.4102 177.336 32.025L177.768 25.8551C177.799 25.3876 177.432 24.99 176.964 24.99H175.055L175.562 23.5917C175.614 23.4519 175.509 23.3033 175.361 23.3033H173.962C173.879 23.3033 173.801 23.3514 173.766 23.43L173.08 24.99H171.397C171.284 24.99 171.192 25.0773 171.183 25.191L170.362 36.9408C170.353 37.0632 170.454 37.1724 170.576 37.1724H175.404C175.562 37.1724 175.684 37.3079 175.675 37.4608L175.286 43.0102C175.317 43.5389 175.072 43.7705 174.543 43.705H172.835C172.7 43.705 172.595 43.8361 172.625 43.9672L172.984 45.5184C173.005 45.6145 173.093 45.6888 173.193 45.6888H175.299C176.615 45.7499 177.283 45.1601 177.309 43.906L177.856 36.0538C177.891 35.5862 177.519 35.1886 177.052 35.1886H177.034Z" fill="black"/>
<path d="M173.429 30.7999L173.582 28.2567C173.582 28.1999 173.63 28.1562 173.687 28.1562H174.854C174.915 28.1562 174.963 28.2087 174.959 28.2699L174.758 30.813C174.758 30.8698 174.71 30.9091 174.653 30.9091H173.534C173.473 30.9091 173.425 30.8567 173.429 30.7955V30.7999Z" fill="black"/>
</svg>
