<svg width="217" height="40" viewBox="0 0 217 40" fill="none" xmlns="http://www.w3.org/2000/svg">
<path d="M214.785 6.11914H216.025C216.025 6.11914 215.108 11.8536 214.971 12.7331C214.834 13.6126 214.959 14.3954 214.959 14.3954H213.719C213.719 14.3954 213.583 13.6918 213.731 12.7507C213.83 12.1116 214.785 6.11914 214.785 6.11914Z" fill="#0052D9"/>
<path d="M189.844 6.11914H191.093C191.093 6.11914 190.169 11.8536 190.032 12.7331C189.894 13.6126 190.02 14.3954 190.02 14.3954H188.771C188.771 14.3954 188.633 13.6918 188.783 12.7507C188.882 12.1116 189.844 6.11914 189.844 6.11914Z" fill="#0052D9"/>
<path d="M198.322 11.4488C197.988 13.5454 196.055 14.5365 194.363 14.5365C192.469 14.5365 191.22 13.3372 191.501 11.5749C191.798 9.71003 193.49 8.50195 195.442 8.50195C197.395 8.50195 198.592 9.7804 198.322 11.4459V11.4488ZM192.645 11.5368C192.431 12.8739 193.387 13.689 194.545 13.689C195.703 13.689 196.947 12.9061 197.169 11.4928C197.331 10.5135 196.756 9.34643 195.275 9.34643C193.794 9.34643 192.827 10.3991 192.645 11.5309V11.5368Z" fill="#0052D9"/>
<path d="M198.945 14.3963C199.051 13.9771 199.265 13.1298 199.353 12.5787L200.388 6.11719H201.604L201.077 9.4095H201.103C201.704 8.88179 202.484 8.50067 203.657 8.50067C205.407 8.50067 206.418 9.73785 206.14 11.4353C205.808 13.4934 204.052 14.5341 202.513 14.5341C201.528 14.5341 200.649 14.1501 200.3 13.4435H200.273L200.021 14.3905H198.937L198.948 14.3963H198.945ZM200.608 12.3559C200.707 13.0155 201.361 13.6106 202.364 13.6106C203.689 13.6106 204.659 12.7839 204.873 11.4764C205.055 10.3594 204.439 9.41243 203.091 9.41243C202.22 9.41243 201.314 9.88151 200.901 10.7376C200.713 11.1216 200.569 12.0744 200.613 12.3559H200.608Z" fill="#0052D9"/>
<path d="M210.949 14.3996L210.96 13.6343H210.928C210.488 14.0859 209.661 14.5433 208.644 14.5433C207.234 14.5433 206.729 13.6578 206.849 12.8925C207.087 11.4058 208.532 10.708 211.286 10.7285L211.303 10.6229C211.365 10.2593 211.441 9.29169 209.987 9.29169C209.116 9.29169 208.318 9.59371 207.785 9.8928L207.917 9.05125C208.576 8.69939 209.198 8.50586 210.274 8.50586C212.409 8.50586 212.635 9.86054 212.459 10.9601L212.133 12.998C212.051 13.5112 212.078 14.3967 212.078 14.3967H210.943L210.949 14.4025V14.3996ZM211.113 11.4762C209.682 11.4439 208.245 11.6785 208.075 12.7136C207.969 13.3645 208.421 13.6812 209.049 13.6812C209.978 13.6812 210.579 13.1593 210.849 12.7136C210.911 12.6022 210.949 12.4878 210.957 12.394L211.107 11.4733H211.113V11.4762Z" fill="#0052D9"/>
<path d="M185.048 11.0327H186.561L186.209 13.2168C185.896 13.3663 185.33 13.4748 184.529 13.4748C182.366 13.4748 181.255 12.2581 181.557 10.376C181.853 8.52604 183.395 7.17745 185.641 7.17745C186.928 7.17745 187.754 7.49701 188.036 7.62894L188.191 6.64388C187.904 6.50609 187.08 6.17188 185.837 6.17188C182.744 6.17188 180.718 8.27391 180.372 10.4199C180.185 11.5926 180.492 12.6422 181.111 13.3194C181.838 14.1285 182.894 14.4686 184.271 14.4686C185.538 14.4686 186.611 14.1608 187.145 13.9732L187.754 10.1707H185.177L185.04 11.0239L185.051 11.0297L185.048 11.0327Z" fill="#0052D9"/>
<path d="M169.397 14.041C169.397 14.041 163.959 25.548 163.463 26.662H163.343C163.123 25.6506 159.529 14.041 159.529 14.041H153.827L159.881 30.3531C160.068 30.8368 160.095 31.1124 160.074 31.3117C160.054 31.514 159.898 31.7955 159.667 32.0886C158.725 33.449 157.359 34.5337 156.316 35.0379C155.216 35.6096 154.12 35.9351 153.305 36.067L152.885 40.0013C154.278 39.887 157.427 39.3857 159.649 37.8876C162.153 36.2517 164.398 33.5897 168.418 26.0053L174.988 14.041H169.397Z" fill="#0052D9"/>
<path d="M142.998 13.2051C139.711 13.2051 136.862 14.5097 135.088 15.4185L134.599 18.9395C136.129 18.1186 139.591 16.8433 141.664 16.8433C145.543 16.8257 145.71 18.5994 145.572 19.5522L145.534 19.7897C137.478 19.7399 132.667 22.5133 132.027 26.9841C131.658 29.5611 133.482 32.2905 137.806 32.2905C140.591 32.2905 144.537 29.8132 144.537 29.8132L144.426 31.8537H149.474C149.474 31.8537 149.726 28.7989 149.97 27.0985L150.802 21.2966C151.362 17.3505 149.629 13.2109 142.998 13.2109V13.2051ZM144.93 24.9788C144.886 25.2867 144.804 25.6619 144.637 25.9874C143.948 27.2656 142.247 28.3591 139.964 28.5848C138.105 28.7783 136.997 28.1158 137.24 26.4594C137.604 23.8794 141.13 23.1231 145.188 23.1846L144.93 24.973V24.9788Z" fill="#0052D9"/>
<path d="M123.925 5.80469C125.549 5.80469 126.897 6.04216 127.97 6.51416C129.043 6.98617 129.882 7.61062 130.489 8.38753C131.096 9.16443 131.491 10.0469 131.679 11.0407C131.867 12.0346 131.884 13.0636 131.735 14.1308C131.585 15.1979 131.28 16.1976 130.811 17.2032C130.342 18.2088 129.697 19.1 128.873 19.8769C128.05 20.6538 127.035 21.2783 125.827 21.7503C124.622 22.2223 123.206 22.4598 121.582 22.4598H115.769L114.461 31.7679H109.117L112.767 5.80762H123.925V5.80469ZM119.439 18.3964C120.213 18.3964 121.427 18.3524 122.163 18.241C122.896 18.1296 124.033 17.9068 124.631 17.5521C125.229 17.1973 125.713 16.9423 126.094 16.3325C126.516 15.6582 126.768 14.8666 126.906 13.9197C127.044 12.9727 127.003 12.2134 126.833 11.5567C126.695 11.0202 126.422 10.6244 125.924 10.3049C125.426 9.98531 124.69 9.67162 123.983 9.59832C123.221 9.51917 122.195 9.5221 121.418 9.5221H117.569L116.326 18.3964H119.439Z" fill="#0052D9"/>
<path d="M99.9552 13.5693C96.6365 13.5693 94.1768 14.9297 93.054 16.3222H92.9221L93.1595 14.5603H88.1023C87.9763 16.1023 87.8561 17.1959 87.557 19.2481L85.7687 31.7372H91.0956L92.6142 21.2739C92.6846 20.7579 92.84 20.2067 93.0599 19.8549C93.8074 18.48 95.4492 17.2193 97.5571 17.2193C100.457 17.2193 101.316 19.1572 100.946 21.7166L99.4891 31.7489H104.816L106.364 21.1977C107.167 15.5717 103.623 13.5928 99.9582 13.5928V13.5664V13.5723L99.9552 13.5693Z" fill="#0052D9"/>
<path d="M76.4277 13.5352V13.5674C69.6584 13.5674 65.4602 17.7891 64.7595 22.6821C63.9826 28.1292 67.4831 32.1105 74.314 32.1105C77.3571 32.1105 80.2038 31.5505 82.4876 30.2664L83.1971 26.1943C80.9836 27.8067 78.0138 28.7156 75.5687 28.7156C72.1679 28.7156 69.4209 27.3054 69.7346 24.0805H83.7951C83.9534 23.6906 84.1352 23.028 84.2583 22.1866C84.8154 18.3021 83.2733 13.5469 76.4307 13.5469L76.4248 13.5352H76.4277ZM79.4269 20.9495H70.1685C70.664 19.1318 72.382 16.6193 75.6625 16.6193C79.2246 16.6193 79.6907 19.2989 79.4269 20.9495Z" fill="#0052D9"/>
<path d="M71.2468 5.78711L70.6048 9.56316H61.2145L57.9838 31.7357H52.6568L55.8876 9.56316H46.4973L47.0426 5.78711H56.5091H71.2468Z" fill="#0052D9"/>
<path d="M30.7539 14.3602C31.0148 13.7241 32.7298 9.23854 33.1667 8.09517C33.2136 7.96911 33.1197 7.82839 32.982 7.82839H26.3299C26.2713 7.82839 26.2214 7.8108 26.1745 7.76975C25.2921 7.04269 23.1314 5.57097 19.9945 5.14294C16.3328 4.62989 12.8118 5.69703 10.1146 7.8108C7.54348 9.81902 5.72582 12.783 5.23622 16.2717L3.48599 28.7403C3.47426 28.8048 3.49185 28.8664 3.5329 28.9191C4.58245 30.3498 5.84895 31.6398 7.28549 32.7069C7.36171 32.7597 7.46432 32.7186 7.47605 32.6248L9.68656 16.9343C9.71002 16.7848 9.75106 16.6235 9.78038 16.4711C9.82728 16.1984 9.88885 15.9346 9.96508 15.6912C11.0322 11.8507 14.6881 9.17698 18.813 9.47894C22.8324 9.77798 25.9898 12.8123 26.6143 16.6265C26.6143 16.6265 26.8342 17.4063 26.6729 19.3969C26.6612 19.5406 26.4941 21.0299 26.4179 21.4052C26.0836 23.1612 25.6497 23.9294 25.6497 23.9294C24.2132 27.0868 20.915 29.1713 17.2533 28.9015C16.2301 28.8253 15.2715 28.5791 14.3949 28.1803C14.3656 28.1686 14.3363 28.1569 14.3069 28.151C13.8379 27.9663 13.3072 28.2595 13.2457 28.7696V28.8107L13.2339 28.8869L13.0492 30.2032L12.3515 35.1578C12.3339 35.2722 12.4043 35.3894 12.5127 35.4246C13.5124 35.753 14.5444 35.9963 15.6262 36.1458C19.7423 36.7234 23.7324 35.8732 27.0951 33.9734C28.6372 33.091 29.1326 32.6747 29.288 32.5251C29.3349 32.4782 29.3584 32.4284 29.3701 32.3639C29.5313 31.2323 31.1203 19.9129 31.1203 19.9129C31.3812 18.0425 31.2288 16.216 30.7392 14.5127C30.7216 14.4599 30.7275 14.4101 30.7451 14.3573H30.7568L30.7539 14.3602Z" fill="#0052D9"/>
<path d="M20.5766 16.0356C20.4094 15.6544 20.0986 15.3319 19.7174 15.1589C18.9609 14.807 18.222 14.9273 17.6854 15.3026C17.2075 15.5811 15.495 16.7394 15.0992 19.1262L15.0875 19.2083C15.0464 19.5602 15.3015 19.8739 15.6475 19.912C15.8498 19.9355 16.0463 19.8592 16.1841 19.7097C16.1841 19.7097 17.1078 18.6805 18.5651 18.8711H18.6736C18.7205 18.8711 18.7615 18.8828 18.8055 18.8828C18.8759 18.8828 18.9433 18.8711 19.0137 18.8594C19.0606 18.8594 19.1105 18.8594 19.1515 18.8476C19.3069 18.8183 19.4565 18.7714 19.5972 18.7157H19.6089C20.5326 18.2934 21.0809 17.1909 20.5795 16.0474V16.0356H20.5766Z" fill="#0052D9"/>
<path d="M9.31512 6.78028C12.3524 4.39972 16.1167 3.34431 19.9279 3.81338C22.2498 4.08017 24.7506 5.0447 26.6328 6.46951C26.6738 6.49883 26.7266 6.51642 26.7764 6.51642L31.8219 6.53988C31.9274 6.53988 31.9831 6.41967 31.9157 6.33759C28.084 1.86086 22.0534 -0.78941 15.1756 0.210305C9.03368 1.09861 3.77712 5.26165 1.43175 11.0137C-0.790493 16.4755 -0.300897 21.99 2.03861 26.4902C2.14708 26.6983 2.46078 26.6397 2.49596 26.4081L3.94422 16.0767C4.46314 12.3681 6.36875 9.06701 9.30926 6.77441L9.31512 6.78028Z" fill="#0052D9"/>
<path d="M33.9885 9.71322L32.1298 14.4362C32.1122 14.4831 32.1064 14.533 32.1181 14.5799C32.5813 16.3887 32.678 18.2357 32.4171 20.0886C32.4171 20.0886 31.4057 27.2654 30.9161 30.76C30.8985 30.8743 31.0363 30.9447 31.1242 30.8655C33.7511 28.1918 35.5775 24.6972 36.1375 20.7013C36.6916 16.7757 35.9293 12.9645 34.2025 9.70149C34.1556 9.60768 34.0178 9.6194 33.9827 9.71322H33.9885Z" fill="#0052D9"/>
</svg>
