<svg width="332" height="88" viewBox="0 0 332 88" fill="none" xmlns="http://www.w3.org/2000/svg">
<path fill-rule="evenodd" clip-rule="evenodd" d="M56.9668 37.3177C54.1382 28.4346 45.8205 22 36 22C23.8497 22 14 31.8497 14 44C14 56.1503 23.8497 66 36 66H60C68.0081 66 74.5 59.5081 74.5 51.5C74.5 43.4919 68.0081 37 60 37C58.9597 37 57.945 37.1095 56.9668 37.3177ZM19 44C19 53.3888 26.6112 61 36 61C41.2467 61 45.5 56.7467 45.5 51.5C45.5 46.3151 48.2214 41.7658 52.3137 39.2026C50.243 32.1497 43.7229 27 36 27C26.6112 27 19 34.6112 19 44ZM50.5 51.5C50.5 55.1338 49.1633 58.4555 46.9547 61H60C65.2467 61 69.5 56.7467 69.5 51.5C69.5 46.2533 65.2467 42 60 42C54.7533 42 50.5 46.2533 50.5 51.5Z" fill="#0CBD6A"/>
<path fill-rule="evenodd" clip-rule="evenodd" d="M116.643 25.8145C116.465 25.8145 116.377 25.8145 116.312 25.8536C116.275 25.8757 116.245 25.9052 116.222 25.9414C116.182 26.0055 116.181 26.0954 116.178 26.2751C116.148 27.9777 115.954 29.7556 115.579 31.5145H113.787L113.782 31.4801L113.779 31.4577L113.779 31.4568L113.152 27.0256C113.13 26.8708 113.119 26.7935 113.078 26.7378C113.054 26.7066 113.025 26.6808 112.99 26.662C112.929 26.6287 112.851 26.6287 112.695 26.6287H110.169C109.967 26.6287 109.866 26.6287 109.797 26.676C109.758 26.7023 109.727 26.7382 109.707 26.78C109.67 26.8552 109.684 26.9551 109.712 27.1548L110.328 31.5145H108.637C108.46 31.5145 108.371 31.5145 108.306 31.5545C108.269 31.5768 108.238 31.6075 108.216 31.6441C108.176 31.7093 108.176 31.7982 108.176 31.9759V34.3102C108.176 34.4879 108.176 34.5767 108.216 34.642C108.238 34.6785 108.269 34.7092 108.306 34.7316C108.371 34.7716 108.46 34.7716 108.637 34.7716H114.659C114.377 35.5607 114.054 36.3329 113.688 37.0787L107.582 37.0787C107.404 37.0787 107.315 37.0787 107.25 37.1187C107.214 37.1411 107.183 37.1718 107.161 37.2083C107.121 37.2736 107.121 37.3625 107.121 37.5402V39.8745C107.121 40.0522 107.121 40.141 107.161 40.2063C107.183 40.2428 107.214 40.2735 107.25 40.2959C107.315 40.3359 107.404 40.3359 107.582 40.3359H111.661C110.434 41.8992 108.938 43.2183 107.149 44.1557C107.045 44.2104 106.993 44.2378 106.959 44.2776C106.939 44.3005 106.924 44.325 106.913 44.353C106.894 44.4016 106.894 44.4585 106.894 44.5723V47.4632C106.894 47.7229 106.894 47.8527 106.959 47.9291C106.995 47.9702 107.045 48.0014 107.098 48.0149C107.195 48.0399 107.309 47.9835 107.536 47.8709C108.5 47.3925 109.406 46.8253 110.253 46.1827H120.754C120.906 46.1827 120.982 46.1827 121.04 46.2123C121.091 46.2383 121.133 46.2799 121.159 46.3309C121.188 46.389 121.188 46.465 121.188 46.617V49.6999L115.144 49.7C114.966 49.7 114.877 49.7 114.812 49.66C114.775 49.6376 114.745 49.6069 114.722 49.5704C114.682 49.5051 114.682 49.4163 114.682 49.2386V47.6339C114.682 47.4562 114.682 47.3674 114.642 47.3021C114.62 47.2656 114.589 47.2349 114.553 47.2125C114.487 47.1725 114.398 47.1725 114.221 47.1725H111.344C111.166 47.1725 111.077 47.1725 111.012 47.2125C110.975 47.2349 110.945 47.2656 110.922 47.3021C110.882 47.3674 110.882 47.4562 110.882 47.6339V50.5957L110.882 50.6119C110.882 50.6777 110.882 50.8344 110.896 50.9836C110.914 51.1753 110.968 51.5389 111.202 51.9203C111.381 52.2124 111.627 52.4581 111.919 52.6371C112.3 52.8708 112.664 52.9254 112.856 52.9436C113.005 52.9578 113.162 52.9573 113.227 52.9572L113.244 52.9571L123.804 52.957C123.981 52.957 124.07 52.957 124.135 52.997C124.172 53.0194 124.203 53.0501 124.225 53.0866C124.265 53.1519 124.265 53.2407 124.265 53.4184V56.2144L124.265 56.239L124.265 56.2618V58.4673C124.265 58.645 124.265 58.7338 124.225 58.7991C124.203 58.8356 124.172 58.8663 124.136 58.8887C124.07 58.9287 123.981 58.9287 123.803 58.9287H120.927C120.749 58.9287 120.66 58.9287 120.595 58.9687C120.558 58.9911 120.527 59.0218 120.505 59.0583C120.465 59.1236 120.465 59.2124 120.465 59.3901V61.7244C120.465 61.9021 120.465 61.991 120.505 62.0562C120.527 62.0928 120.558 62.1235 120.595 62.1458C120.66 62.1858 120.749 62.1858 120.927 62.1858L124.103 62.1858L124.118 62.1858C125.046 62.1856 125.526 62.1803 125.918 62.053C126.745 61.7845 127.392 61.1366 127.661 60.3103C127.794 59.9014 127.794 59.3963 127.794 58.3859L127.794 53.3901C127.794 53.0843 127.794 52.7361 127.765 52.4335C127.732 52.084 127.647 51.6048 127.354 51.1256C127.107 50.7238 126.77 50.386 126.368 50.1399C125.889 49.8462 125.409 49.7616 125.06 49.7284C124.866 49.71 124.653 49.7034 124.445 49.7011V47.7027C124.445 46.8036 124.445 46.1461 124.395 45.6312C125.46 46.3791 126.592 47.0083 127.738 47.4509C127.95 47.533 128.057 47.5741 128.148 47.5449C128.197 47.5291 128.244 47.4969 128.276 47.4568C128.337 47.3822 128.337 47.2642 128.337 47.0282V44.4681C128.337 44.3315 128.337 44.2632 128.311 44.2088C128.296 44.1768 128.278 44.1513 128.253 44.127C128.209 44.0855 128.141 44.0623 128.004 44.0157C126.235 43.4132 124.364 42.0018 122.972 40.3359H127.288C127.465 40.3359 127.554 40.3359 127.619 40.2959C127.656 40.2735 127.687 40.2428 127.709 40.2063C127.749 40.141 127.749 40.0522 127.749 39.8745V37.5402C127.749 37.3625 127.749 37.2736 127.709 37.2083C127.687 37.1718 127.656 37.1411 127.619 37.1187C127.554 37.0787 127.465 37.0787 127.288 37.0787L117.059 37.0787C117.38 36.3231 117.667 35.5522 117.922 34.7716H126.775C126.953 34.7716 127.042 34.7716 127.107 34.7316C127.143 34.7092 127.174 34.6785 127.196 34.642C127.236 34.5767 127.236 34.4879 127.236 34.3102V31.9759C127.236 31.7982 127.236 31.7093 127.196 31.6441C127.174 31.6075 127.143 31.5768 127.107 31.5545C127.042 31.5145 126.953 31.5145 126.775 31.5145H124.84C124.895 31.3507 124.947 31.1982 124.991 31.0687L125.068 30.8415C125.379 29.9241 125.772 28.6813 126.168 27.2047C126.225 26.9905 126.254 26.8834 126.22 26.7996C126.202 26.7534 126.171 26.7125 126.131 26.6827C126.058 26.6287 125.947 26.6287 125.724 26.6287H123.234C123.096 26.6287 123.027 26.6287 122.971 26.656C122.939 26.6715 122.911 26.6927 122.888 26.719C122.846 26.7655 122.827 26.8323 122.789 26.9659C122.507 27.9502 122.238 28.7908 122.016 29.4461L121.92 29.7284L121.92 29.7289C121.748 30.2383 121.467 31.0675 121.312 31.5145H118.78C119.138 29.7562 119.332 27.9892 119.362 26.2749C119.365 26.1004 119.366 26.0131 119.327 25.9467C119.305 25.9099 119.273 25.8779 119.237 25.8553C119.171 25.8145 119.082 25.8145 118.905 25.8145H116.643ZM121.307 42.9461C120.512 42.0984 119.822 41.2108 119.276 40.3359H115.401C114.854 41.2437 114.25 42.1112 113.59 42.9256H119.668C120.333 42.9256 120.866 42.9256 121.307 42.9461Z" fill="#1F1F1F"/>
<path fill-rule="evenodd" clip-rule="evenodd" d="M102.279 49.9716V61.8122C102.279 61.9899 102.279 62.0787 102.319 62.144C102.342 62.1805 102.372 62.2112 102.409 62.2336C102.474 62.2736 102.563 62.2736 102.741 62.2736H105.347C105.524 62.2736 105.613 62.2736 105.678 62.2336C105.715 62.2112 105.746 62.1805 105.768 62.144C105.808 62.0787 105.808 61.9899 105.808 61.8122L105.808 30.1833C105.808 30.1351 105.808 30.0859 105.808 30.036V29.723C105.808 28.4791 105.808 27.8572 105.528 27.4003C105.371 27.1446 105.156 26.9297 104.901 26.773C104.444 26.493 103.822 26.493 102.578 26.493H98.4023C97.1584 26.493 96.5365 26.493 96.0796 26.773C95.8239 26.9297 95.609 27.1446 95.4523 27.4003C95.1735 27.8553 95.1723 28.4741 95.1723 29.7079C95.1689 29.8696 95.1689 30.0317 95.169 30.1833L95.169 50.295C95.169 54.5561 94.7856 57.6857 94.4124 59.7229C94.2258 60.7417 94.0416 61.4882 93.9088 61.9672C93.8664 62.1203 93.9805 62.2736 94.1394 62.2736H97.1213C97.2638 62.2736 97.335 62.2736 97.393 62.2441C97.4253 62.2277 97.4548 62.2043 97.4781 62.1765C97.5199 62.1266 97.5357 62.0581 97.5673 61.9212C97.6674 61.4873 97.7734 60.9829 97.8788 60.4075C98.2934 58.1443 98.6976 54.7855 98.6976 50.295V49.9716H102.279ZM98.6976 40.2002V46.7145H102.279V40.2002H98.6976ZM102.279 36.943H98.6976V30.601H98.7008V30.2965C98.7051 30.2327 98.7149 30.1882 98.7376 30.1512C98.76 30.1147 98.7907 30.084 98.8272 30.0616C98.8925 30.0216 98.9813 30.0216 99.159 30.0216H101.818C101.996 30.0216 102.084 30.0216 102.15 30.0616C102.186 30.084 102.217 30.1147 102.239 30.1512C102.279 30.2165 102.279 30.3054 102.279 30.4831V36.943Z" fill="#1F1F1F"/>
<path d="M122.998 57.1801C122.998 57.3578 122.998 57.4467 122.958 57.512C122.936 57.5485 122.905 57.5792 122.869 57.6016C122.803 57.6416 122.714 57.6416 122.537 57.6416L107.582 57.6416C107.404 57.6416 107.315 57.6416 107.25 57.6016C107.214 57.5792 107.183 57.5485 107.161 57.512C107.121 57.4467 107.121 57.3578 107.121 57.1801V54.8459C107.121 54.6682 107.121 54.5793 107.161 54.514C107.183 54.4775 107.214 54.4468 107.25 54.4244C107.315 54.3844 107.404 54.3844 107.582 54.3844L122.537 54.3844C122.714 54.3844 122.803 54.3844 122.869 54.4244C122.905 54.4468 122.936 54.4775 122.958 54.514C122.998 54.5793 122.998 54.6682 122.998 54.8459V57.1801Z" fill="#1F1F1F"/>
<path d="M133.316 30.1222C133.297 30.0738 133.297 30.0183 133.297 29.9073V26.5805C133.297 26.302 133.297 26.1627 133.364 26.0859C133.401 26.0436 133.451 26.0139 133.505 26.0009C133.605 25.9772 133.728 26.0424 133.974 26.1727L139.837 29.2763C139.935 29.3283 139.984 29.3542 140.018 29.3939C140.037 29.4164 140.052 29.4418 140.063 29.4692C140.082 29.5176 140.082 29.5731 140.082 29.6841V33.0109C140.082 33.2894 140.082 33.4287 140.015 33.5055C139.978 33.5478 139.928 33.5776 139.874 33.5906C139.774 33.6142 139.651 33.5491 139.405 33.4187L133.542 30.3151C133.444 30.2632 133.395 30.2372 133.361 30.1975C133.342 30.175 133.327 30.1496 133.316 30.1222Z" fill="#1F1F1F"/>
<path fill-rule="evenodd" clip-rule="evenodd" d="M149.572 62.4422C149.394 62.4422 149.305 62.4422 149.24 62.4022C149.203 62.3798 149.173 62.3491 149.15 62.3125C149.11 62.2473 149.11 62.1584 149.11 61.9807L149.11 44.4123H142.243C142.065 44.4123 141.977 44.4123 141.911 44.3723C141.875 44.3499 141.844 44.3192 141.822 44.2827C141.782 44.2174 141.782 44.1286 141.782 43.9509V41.6166C141.782 41.4389 141.782 41.35 141.822 41.2848C141.844 41.2482 141.875 41.2175 141.911 41.1952C141.977 41.1552 142.065 41.1552 142.243 41.1552H149.11L149.11 29.8707H143.303C143.125 29.8707 143.036 29.8707 142.971 29.8307C142.934 29.8084 142.904 29.7777 142.881 29.7411C142.841 29.6759 142.841 29.587 142.841 29.4093V26.8036C142.841 26.6259 142.841 26.537 142.881 26.4718C142.904 26.4352 142.934 26.4045 142.971 26.3822C143.036 26.3422 143.125 26.3422 143.303 26.3422L157.127 26.3422C157.94 26.3421 158.695 26.342 159.325 26.4019C160.01 26.467 160.767 26.6179 161.492 27.0621C162.149 27.465 162.702 28.0177 163.105 28.6751C163.549 29.4 163.7 30.1568 163.765 30.8416C163.825 31.4716 163.825 32.2273 163.825 33.0405L163.825 45.6746C163.825 52.3013 164.79 56.6579 165.7 59.2939C165.97 60.0754 166.235 60.7078 166.47 61.2053C166.596 61.4703 166.658 61.6028 166.633 61.6991C166.618 61.7539 166.589 61.7988 166.546 61.8355C166.47 61.9001 166.328 61.9001 166.044 61.9001H163.164C163.04 61.9001 162.978 61.9001 162.925 61.8764C162.896 61.8632 162.868 61.8442 162.845 61.8214C162.804 61.7807 162.782 61.7238 162.738 61.6101C162.628 61.3274 162.518 61.0277 162.409 60.7104C161.325 57.568 160.296 52.7266 160.296 45.6746V44.4123H152.639L152.639 61.9807C152.639 62.1584 152.639 62.2473 152.599 62.3125C152.576 62.3491 152.546 62.3798 152.509 62.4022C152.444 62.4422 152.355 62.4422 152.177 62.4422H149.572ZM160.296 41.1552V32.585C160.296 30.0327 160.134 29.8707 157.582 29.8707H152.639V41.1552H160.296Z" fill="#1F1F1F"/>
<path d="M135.985 39.6422C136.156 39.6423 136.241 39.6423 136.306 39.6823C136.342 39.7043 136.374 39.736 136.396 39.7719C136.436 39.8371 136.436 39.9226 136.436 40.0937L136.436 57.4483C136.436 59.3772 136.436 60.3416 136.92 60.9393C137.184 61.2648 137.554 61.5165 137.953 61.6428C138.687 61.8746 139.572 61.5265 141.341 60.8302C141.898 60.6114 142.495 60.3745 143.129 60.1203L144.66 59.5065C144.89 59.4143 145.005 59.3682 145.085 59.2862C145.13 59.2398 145.167 59.1858 145.193 59.1266C145.24 59.0217 145.24 58.8978 145.24 58.6499V56.475C145.24 56.2229 145.24 56.0968 145.18 56.0224C145.146 55.9808 145.103 55.9506 145.052 55.9342C144.961 55.9047 144.842 55.9499 144.604 56.0404C143.886 56.3136 143.058 56.6105 142.248 56.9009L142.247 56.9012C141.673 57.1071 141.107 57.3099 140.597 57.4986C140.362 57.5852 140.245 57.6286 140.155 57.5987C140.104 57.5821 140.061 57.5518 140.028 57.5104C139.969 57.4361 139.969 57.3141 139.968 57.07C139.968 54.5285 139.965 45.3368 139.965 40.7097L139.965 39.8023C139.965 38.3827 139.965 37.6729 139.645 37.1506C139.466 36.8585 139.22 36.6126 138.928 36.4336C138.406 36.1136 137.696 36.1136 136.275 36.1136L132.672 36.1136C132.495 36.1136 132.406 36.1136 132.341 36.1536C132.304 36.176 132.273 36.2067 132.251 36.2432C132.211 36.3085 132.211 36.3973 132.211 36.575V39.1807C132.211 39.3584 132.211 39.4473 132.251 39.5126C132.273 39.5491 132.304 39.5798 132.341 39.6022C132.406 39.6422 132.495 39.6422 132.672 39.6422L135.985 39.6422Z" fill="#1F1F1F"/>
<path d="M201.238 29.6511C201.387 29.6261 201.462 29.6136 201.515 29.5719C201.546 29.5486 201.571 29.5189 201.589 29.4853C201.621 29.4252 201.621 29.3493 201.621 29.1975V26.276C201.621 26.0662 201.621 25.9613 201.572 25.8912C201.544 25.852 201.508 25.8211 201.464 25.8009C201.387 25.7647 201.283 25.783 201.075 25.8196C200.91 25.8485 200.732 25.8791 200.54 25.9112C199.198 26.136 197.199 26.4316 194.603 26.707C189.501 27.2485 182.097 27.7121 172.858 27.4085C172.673 27.4024 172.581 27.3994 172.513 27.4389C172.476 27.4609 172.444 27.4917 172.42 27.5288C172.379 27.595 172.379 27.6868 172.379 27.8702L172.379 30.7442C172.379 30.9163 172.379 31.0024 172.417 31.0666C172.439 31.1026 172.468 31.1332 172.503 31.1558C172.566 31.1963 172.653 31.1992 172.825 31.2049C177.607 31.3632 181.878 31.3205 185.616 31.1673L185.616 37.0276L171.99 37.0276C171.812 37.0276 171.723 37.0276 171.658 37.0676C171.622 37.09 171.591 37.1207 171.568 37.1572C171.529 37.2225 171.529 37.3113 171.529 37.489L171.529 40.0947C171.529 40.2724 171.529 40.3613 171.568 40.4265C171.591 40.4631 171.622 40.4938 171.658 40.5162C171.723 40.5561 171.812 40.5561 171.99 40.5561L185.616 40.5561L185.616 46.2561H170.497C170.319 46.2561 170.231 46.2561 170.165 46.2961C170.129 46.3185 170.098 46.3492 170.076 46.3858C170.036 46.451 170.036 46.5399 170.036 46.7176V49.3233C170.036 49.501 170.036 49.5898 170.076 49.6551C170.098 49.6916 170.129 49.7223 170.165 49.7447C170.231 49.7847 170.319 49.7847 170.497 49.7847H185.616L185.616 55.7559C185.616 58.5818 185.019 58.5189 182.495 58.253L182.43 58.2462L179.815 57.8035C179.692 57.7828 179.631 57.7725 179.585 57.7943C179.559 57.8065 179.537 57.8252 179.521 57.8485C179.492 57.8905 179.492 57.9525 179.492 58.0765L179.492 61.2383C179.492 61.3898 179.492 61.4656 179.523 61.5253C179.541 61.559 179.566 61.5884 179.596 61.6118C179.649 61.6535 179.724 61.6666 179.873 61.6928L182.148 62.0919C185.391 62.7183 187.396 62.2615 188.712 60.2839C189.158 59.614 189.3 58.9024 189.361 58.2917C189.416 57.7306 189.416 57.0563 189.416 56.3459L189.416 49.7847H203.503C203.68 49.7847 203.769 49.7847 203.835 49.7447C203.871 49.7223 203.902 49.6916 203.924 49.6551C203.964 49.5898 203.964 49.501 203.964 49.3233V46.7176C203.964 46.5399 203.964 46.451 203.924 46.3858C203.902 46.3492 203.871 46.3185 203.835 46.2961C203.769 46.2561 203.68 46.2561 203.503 46.2561H189.416L189.416 40.5561L202.01 40.5562C202.188 40.5562 202.276 40.5562 202.342 40.5162C202.378 40.4938 202.409 40.4631 202.431 40.4265C202.471 40.3613 202.471 40.2724 202.471 40.0947V37.489C202.471 37.3113 202.471 37.2225 202.431 37.1572C202.409 37.1207 202.378 37.09 202.342 37.0676C202.276 37.0276 202.188 37.0276 202.01 37.0276L189.416 37.0276L189.416 30.9737C189.416 30.9707 189.416 30.9678 189.416 30.9649C191.5 30.8277 193.375 30.6602 195.033 30.4842C197.714 30.1997 199.794 29.8929 201.213 29.6553L201.238 29.6511Z" fill="#1F1F1F"/>
<path d="M217.578 62.4457C217.755 62.4457 217.844 62.4457 217.91 62.4057C217.946 62.3833 217.977 62.3526 217.999 62.3161C218.039 62.2508 218.039 62.162 218.039 61.9843L218.039 44.0633C219.364 44.8272 220.681 45.6845 221.91 46.5564C222.018 46.6331 222.168 46.556 222.168 46.4233V42.8613C222.168 42.766 222.118 42.6775 222.036 42.6287C221.329 42.2077 220.601 41.7973 219.938 41.4331C219.236 41.0469 218.575 40.6953 218.039 40.4143V35.4258H222.39C222.568 35.4258 222.657 35.4258 222.722 35.3858C222.759 35.3635 222.789 35.3328 222.812 35.2962C222.852 35.231 222.852 35.1421 222.852 34.9644V32.4944C222.852 32.3167 222.852 32.2279 222.812 32.1626C222.789 32.1261 222.759 32.0954 222.722 32.073C222.657 32.033 222.568 32.033 222.39 32.033H218.039V26.8071C218.039 26.6294 218.039 26.5406 217.999 26.4753C217.977 26.4388 217.946 26.4081 217.91 26.3857C217.844 26.3457 217.755 26.3457 217.578 26.3457H215.108C214.93 26.3457 214.841 26.3457 214.776 26.3857C214.739 26.4081 214.709 26.4388 214.686 26.4753C214.646 26.5406 214.646 26.6294 214.646 26.8071L214.646 32.033H208.296C208.119 32.033 208.03 32.033 207.965 32.073C207.928 32.0954 207.897 32.1261 207.875 32.1626C207.835 32.2279 207.835 32.3167 207.835 32.4944V34.9644C207.835 35.1421 207.835 35.231 207.875 35.2962C207.897 35.3328 207.928 35.3635 207.965 35.3858C208.03 35.4258 208.119 35.4258 208.296 35.4258H214.646L214.646 61.9843C214.646 62.162 214.646 62.2508 214.686 62.3161C214.709 62.3526 214.739 62.3833 214.776 62.4057C214.841 62.4457 214.93 62.4457 215.108 62.4457H217.578Z" fill="#1F1F1F"/>
<path d="M210.39 36.9383C210.24 36.9383 210.118 37.0595 210.118 37.2094C210.107 40.4795 209.905 44.678 209.473 48.706C209.08 52.3745 208.509 55.7878 207.762 58.2189C207.708 58.3954 207.839 58.5752 208.024 58.5752H210.987C211.109 58.5752 211.215 58.4945 211.247 58.377C211.971 55.7208 212.49 52.4023 212.847 49.0674C213.292 44.9153 213.5 40.595 213.511 37.2093C213.511 37.0594 213.39 36.9383 213.24 36.9383H210.39Z" fill="#1F1F1F"/>
<path d="M225.546 27.3047C226.127 27.0089 226.887 27.0089 228.407 27.0089H234.394C235.914 27.0089 236.674 27.0089 237.255 27.3047C237.766 27.565 238.181 27.9802 238.441 28.4909C238.737 29.0715 238.737 29.8316 238.737 31.3518V58.2346C238.737 58.3866 238.737 58.4626 238.766 58.5207C238.792 58.5718 238.834 58.6133 238.885 58.6393C238.943 58.6689 239.019 58.6689 239.171 58.6689H242.499C242.651 58.6689 242.727 58.6689 242.785 58.6985C242.836 58.7245 242.878 58.766 242.904 58.8171C242.933 58.8752 242.933 58.9512 242.933 59.1032V61.7632C242.933 61.9152 242.933 61.9912 242.904 62.0493C242.878 62.1003 242.836 62.1419 242.785 62.1679C242.727 62.1975 242.651 62.1975 242.499 62.1975H239.551C238.031 62.1975 237.271 62.1975 236.69 61.9016C236.18 61.6414 235.764 61.2262 235.504 60.7154C235.208 60.1348 235.208 59.3748 235.208 57.8546V30.9718C235.208 30.8197 235.208 30.7437 235.179 30.6857C235.153 30.6346 235.111 30.5931 235.06 30.5671C235.002 30.5375 234.926 30.5375 234.774 30.5375H228.027C227.875 30.5375 227.799 30.5375 227.741 30.5671C227.69 30.5931 227.648 30.6346 227.622 30.6857C227.593 30.7437 227.593 30.8197 227.593 30.9718L227.593 46.3078C227.593 55.4475 224.881 60.5136 220.581 62.4249C220.467 62.4755 220.41 62.5008 220.361 62.4919C220.319 62.4843 220.279 62.4586 220.255 62.4231C220.227 62.3817 220.227 62.3178 220.227 62.1899V58.7204C220.227 58.5627 220.227 58.4839 220.246 58.4142C220.263 58.3494 220.288 58.2969 220.327 58.2421C220.368 58.1833 220.435 58.1287 220.567 58.0195C222.453 56.4621 224.064 53.8259 224.064 46.3078L224.064 31.3518C224.064 29.8316 224.064 29.0715 224.36 28.4909C224.62 27.9802 225.036 27.565 225.546 27.3047Z" fill="#1F1F1F"/>
<path d="M280.372 39.0771C280.521 39.0771 280.643 39.1989 280.643 39.3486V42.4697C280.643 42.6196 280.521 42.7412 280.372 42.7412H260.563L253.371 57.2812C253.218 57.5899 253.084 57.936 253.303 58.2666C253.522 58.5968 253.89 58.5714 254.234 58.54L272.316 56.8906L268.667 48.8428C268.627 48.7529 268.693 48.6504 268.792 48.6504H272.28C272.386 48.6504 272.483 48.7135 272.527 48.8105L278.556 62.1084C278.597 62.1982 278.532 62.3006 278.433 62.3008H274.944C274.838 62.3007 274.741 62.2384 274.697 62.1416L273.859 60.2939L257.606 61.7754C255.184 61.9961 251.913 62.6891 250.327 60.3438C248.74 57.9983 250.503 55.1209 251.567 52.9707L256.626 42.7412H245.628C245.479 42.7412 245.357 42.6196 245.357 42.4697V39.3486C245.357 39.1989 245.479 39.0771 245.628 39.0771H280.372ZM275.757 27.3574C275.907 27.3574 276.029 27.479 276.029 27.6289V30.75C276.029 30.8999 275.907 31.0215 275.757 31.0215H250.243C250.093 31.0215 249.971 30.8999 249.971 30.75V27.6289C249.971 27.479 250.093 27.3574 250.243 27.3574H275.757Z" fill="#1F1F1F"/>
<path d="M311.334 49.6865C312.55 49.6865 313.158 49.6864 313.623 49.9229C314.031 50.131 314.364 50.4635 314.572 50.8721C314.808 51.3366 314.808 51.945 314.808 53.1611V58.7051H317.801C317.953 58.7051 318.029 58.7058 318.087 58.7354C318.138 58.7613 318.18 58.8026 318.206 58.8535C318.235 58.9116 318.236 58.9878 318.236 59.1396V61.5283C318.236 61.6803 318.235 61.7564 318.206 61.8145C318.18 61.8655 318.138 61.9076 318.087 61.9336C318.029 61.9631 317.953 61.9629 317.801 61.9629H284.199C284.047 61.9629 283.971 61.963 283.913 61.9336C283.862 61.9076 283.819 61.8655 283.793 61.8145C283.764 61.7564 283.764 61.6802 283.764 61.5283V59.1396C283.764 58.9878 283.764 58.9116 283.793 58.8535C283.819 58.8025 283.862 58.7614 283.913 58.7354C283.971 58.7058 284.047 58.7051 284.199 58.7051H287.191V53.1611C287.191 51.9452 287.191 51.3365 287.427 50.8721C287.635 50.4635 287.968 50.131 288.376 49.9229C288.841 49.6862 289.449 49.6865 290.666 49.6865H311.334ZM290.882 52.9434C290.73 52.9434 290.654 52.9431 290.596 52.9727C290.545 52.9987 290.504 53.0408 290.478 53.0918C290.448 53.1499 290.448 53.2259 290.448 53.3779V58.7051H295.294V52.9434H290.882ZM298.551 58.7051H303.431V52.9434H298.551V58.7051ZM306.688 58.7051H311.551V53.3779C311.551 53.226 311.551 53.1498 311.522 53.0918C311.496 53.0407 311.454 52.9987 311.403 52.9727C311.345 52.9433 311.268 52.9434 311.117 52.9434H306.688V58.7051ZM302.985 25.8516C303.093 25.8516 303.147 25.8516 303.176 25.874C303.202 25.8935 303.217 25.9232 303.218 25.9551C303.22 25.9918 303.189 26.0366 303.127 26.125L301.537 28.4092H308.865C310.384 28.4092 311.145 28.4093 311.725 28.7051C312.236 28.9653 312.651 29.3809 312.912 29.8916C313.207 30.4721 313.208 31.2322 313.208 32.752V37.7861H316.387C316.539 37.7861 316.615 37.7868 316.673 37.8164C316.724 37.8424 316.766 37.8835 316.792 37.9346C316.822 37.9926 316.822 38.0688 316.822 38.2207V40.6094C316.822 40.7613 316.822 40.8375 316.792 40.8955C316.766 40.9465 316.724 40.9876 316.673 41.0137C316.615 41.0433 316.539 41.0439 316.387 41.0439H313.208V48.0635C313.208 48.2155 313.207 48.2915 313.177 48.3496C313.151 48.4005 313.11 48.4418 313.059 48.4678C313.001 48.4974 312.925 48.498 312.773 48.498H310.384C310.232 48.498 310.156 48.4974 310.098 48.4678C310.047 48.4418 310.006 48.4005 309.98 48.3496C309.95 48.2915 309.95 48.2155 309.95 48.0635V41.0439H301.567L304.761 45.9766C304.818 46.0637 304.846 46.1075 304.843 46.1436C304.841 46.1749 304.825 46.2038 304.8 46.2227C304.771 46.2443 304.719 46.2441 304.616 46.2441H301.291C301.205 46.2441 301.161 46.2443 301.123 46.2324C301.088 46.2218 301.056 46.2039 301.028 46.1807C300.997 46.1544 300.973 46.1182 300.926 46.0459L297.688 41.0439H292.403C292.227 44.1392 291.68 46.4678 291.067 48.1641C291.031 48.2622 291.014 48.3116 290.981 48.3496C290.952 48.3828 290.914 48.41 290.873 48.4258C290.826 48.4438 290.771 48.4434 290.664 48.4434H287.834C287.693 48.4434 287.622 48.4435 287.581 48.415C287.544 48.3897 287.52 48.3528 287.512 48.3086C287.504 48.2589 287.534 48.1923 287.594 48.0605C287.671 47.8931 287.75 47.7105 287.83 47.5127C288.372 46.1622 288.95 44.0714 289.139 41.0439H285.613C285.461 41.0439 285.385 41.0433 285.327 41.0137C285.276 40.9876 285.234 40.9466 285.208 40.8955C285.178 40.8375 285.178 40.7613 285.178 40.6094V38.2207C285.178 38.0688 285.178 37.9926 285.208 37.9346C285.234 37.8835 285.276 37.8424 285.327 37.8164C285.385 37.7868 285.461 37.7861 285.613 37.7861H289.205V32.752C289.205 31.2321 289.205 30.4722 289.5 29.8916C289.761 29.381 290.175 28.9653 290.686 28.7051C291.267 28.4092 292.027 28.4092 293.547 28.4092H297.237L298.888 26.0381C298.936 25.97 298.96 25.9358 298.991 25.9111C299.018 25.8894 299.049 25.8732 299.083 25.8633C299.12 25.8521 299.162 25.8516 299.245 25.8516H302.985ZM292.896 31.667C292.744 31.667 292.668 31.6667 292.61 31.6963C292.559 31.7222 292.518 31.7636 292.492 31.8145C292.462 31.8725 292.461 31.9488 292.461 32.1006V37.7861H295.579L295.572 37.7754H300.818L298.15 33.3613C298.098 33.2753 298.071 33.2317 298.075 33.1963C298.078 33.1656 298.094 33.1375 298.119 33.1191C298.147 33.0981 298.198 33.0977 298.298 33.0977H301.551C301.641 33.0977 301.686 33.0976 301.726 33.1104C301.762 33.1217 301.795 33.1405 301.823 33.165C301.854 33.1928 301.877 33.2313 301.923 33.3076L304.63 37.7861H309.95V32.1006C309.95 31.9488 309.95 31.8725 309.92 31.8145C309.894 31.7636 309.853 31.7223 309.802 31.6963C309.744 31.6667 309.668 31.667 309.516 31.667H292.896Z" fill="#1F1F1F"/>
</svg>
