<svg width="341" height="88" viewBox="0 0 341 88" fill="none" xmlns="http://www.w3.org/2000/svg">
<path d="M52.75 16C51.3693 16 50.25 17.1193 50.25 18.5C50.25 19.8807 51.3693 21 52.75 21C63.3815 21 72 29.6185 72 40.25C72 41.6307 73.1193 42.75 74.5 42.75C75.8807 42.75 77 41.6307 77 40.25C77 26.8571 66.1429 16 52.75 16Z" fill="#0CBD6A"/>
<path d="M37.1912 26H44.25C45.6307 26 46.75 27.1193 46.75 28.5C46.75 29.8807 45.6307 31 44.25 31H37.3C33.9684 31 31.6201 31.0019 29.7862 31.1518C27.9815 31.2992 26.8962 31.5774 26.0506 32.0082C24.3101 32.895 22.895 34.3101 22.0082 36.0506C21.5774 36.8962 21.2992 37.9815 21.1518 39.7862C21.0019 41.6201 21 43.9684 21 47.3V48.2C21 51.5316 21.0019 53.8799 21.1518 55.7138C21.2992 57.5185 21.5774 58.6039 22.0082 59.4494C22.895 61.1899 24.3101 62.605 26.0506 63.4918C26.8962 63.9226 27.9815 64.2008 29.7862 64.3482C31.6201 64.4981 33.9684 64.5 37.3 64.5H46.25C49.3191 64.5 51.4823 64.4983 53.1762 64.3706C54.8441 64.2448 55.8534 64.0073 56.6436 63.6406C58.627 62.7202 60.2202 61.127 61.1406 59.1436C61.5073 58.3534 61.7448 57.3441 61.8706 55.6762C61.9983 53.9823 62 51.8191 62 48.75C62 47.3693 63.1193 46.25 64.5 46.25C65.8807 46.25 67 47.3693 67 48.75V48.8501C67 51.7964 67 54.1482 66.8565 56.0522C66.7093 58.0035 66.401 59.6861 65.676 61.2483C64.2582 64.3038 61.8038 66.7582 58.7483 68.176C57.1861 68.901 55.5035 69.2093 53.5522 69.3565C51.6482 69.5 49.2964 69.5 46.3501 69.5H37.1912C33.9931 69.5 31.4405 69.5 29.379 69.3316C27.2651 69.1589 25.4485 68.7967 23.7806 67.9468C21.0993 66.5806 18.9194 64.4007 17.5532 61.7194C16.7033 60.0515 16.3411 58.2349 16.1684 56.121C16 54.0595 16 51.5069 16 48.3088V47.1912C16 43.9931 16 41.4405 16.1684 39.379C16.3411 37.2651 16.7033 35.4485 17.5532 33.7806C18.9194 31.0993 21.0993 28.9194 23.7806 27.5532C25.4485 26.7033 27.2651 26.3411 29.379 26.1684C31.4405 26 33.9931 26 37.1912 26Z" fill="#0CBD6A"/>
<path d="M50.25 28.5C50.25 27.1193 51.3693 26 52.75 26C60.6201 26 67 32.3799 67 40.25C67 41.6307 65.8807 42.75 64.5 42.75C63.1193 42.75 62 41.6307 62 40.25C62 35.1414 57.8586 31 52.75 31C51.3693 31 50.25 29.8807 50.25 28.5Z" fill="#0CBD6A"/>
<path d="M57 39.75C57 41.8211 55.3211 43.5 53.25 43.5C51.1789 43.5 49.5 41.8211 49.5 39.75C49.5 37.6789 51.1789 36 53.25 36C55.3211 36 57 37.6789 57 39.75Z" fill="#0CBD6A"/>
<path fill-rule="evenodd" clip-rule="evenodd" d="M116.643 25.8145C116.465 25.8145 116.377 25.8145 116.312 25.8536C116.275 25.8757 116.245 25.9052 116.222 25.9414C116.182 26.0055 116.181 26.0954 116.178 26.2751C116.148 27.9777 115.954 29.7556 115.579 31.5145H113.787L113.782 31.4801L113.779 31.4577L113.779 31.4568L113.152 27.0256C113.13 26.8708 113.119 26.7935 113.078 26.7378C113.054 26.7066 113.025 26.6808 112.99 26.662C112.929 26.6287 112.851 26.6287 112.695 26.6287H110.169C109.967 26.6287 109.866 26.6287 109.797 26.676C109.758 26.7023 109.727 26.7382 109.707 26.78C109.67 26.8552 109.684 26.9551 109.712 27.1548L110.328 31.5145H108.637C108.46 31.5145 108.371 31.5145 108.306 31.5545C108.269 31.5768 108.238 31.6075 108.216 31.6441C108.176 31.7093 108.176 31.7982 108.176 31.9759V34.3102C108.176 34.4879 108.176 34.5767 108.216 34.642C108.238 34.6785 108.269 34.7092 108.306 34.7316C108.371 34.7716 108.46 34.7716 108.637 34.7716H114.659C114.377 35.5607 114.054 36.3329 113.688 37.0787L107.582 37.0787C107.404 37.0787 107.315 37.0787 107.25 37.1187C107.214 37.1411 107.183 37.1718 107.161 37.2083C107.121 37.2736 107.121 37.3625 107.121 37.5402V39.8745C107.121 40.0522 107.121 40.141 107.161 40.2063C107.183 40.2428 107.214 40.2735 107.25 40.2959C107.315 40.3359 107.404 40.3359 107.582 40.3359H111.661C110.434 41.8992 108.938 43.2183 107.149 44.1557C107.045 44.2104 106.993 44.2378 106.959 44.2776C106.939 44.3005 106.924 44.325 106.913 44.353C106.894 44.4016 106.894 44.4585 106.894 44.5723V47.4632C106.894 47.7229 106.894 47.8527 106.959 47.9291C106.995 47.9702 107.045 48.0014 107.098 48.0149C107.195 48.0399 107.309 47.9835 107.536 47.8709C108.5 47.3925 109.406 46.8253 110.253 46.1827H120.754C120.906 46.1827 120.982 46.1827 121.04 46.2123C121.091 46.2383 121.133 46.2799 121.159 46.3309C121.188 46.389 121.188 46.465 121.188 46.617V49.6999L115.144 49.7C114.966 49.7 114.877 49.7 114.812 49.66C114.775 49.6376 114.745 49.6069 114.722 49.5704C114.682 49.5051 114.682 49.4163 114.682 49.2386V47.6339C114.682 47.4562 114.682 47.3674 114.642 47.3021C114.62 47.2656 114.589 47.2349 114.553 47.2125C114.487 47.1725 114.398 47.1725 114.221 47.1725H111.344C111.166 47.1725 111.077 47.1725 111.012 47.2125C110.975 47.2349 110.945 47.2656 110.922 47.3021C110.882 47.3674 110.882 47.4562 110.882 47.6339V50.5957L110.882 50.6119C110.882 50.6777 110.882 50.8344 110.896 50.9836C110.914 51.1753 110.968 51.5389 111.202 51.9203C111.381 52.2124 111.627 52.4581 111.919 52.6371C112.3 52.8708 112.664 52.9254 112.856 52.9436C113.005 52.9578 113.162 52.9573 113.227 52.9572L113.244 52.9571L123.804 52.957C123.981 52.957 124.07 52.957 124.135 52.997C124.172 53.0194 124.203 53.0501 124.225 53.0866C124.265 53.1519 124.265 53.2407 124.265 53.4184V56.2144L124.265 56.239L124.265 56.2618V58.4673C124.265 58.645 124.265 58.7338 124.225 58.7991C124.203 58.8356 124.172 58.8663 124.136 58.8887C124.07 58.9287 123.981 58.9287 123.803 58.9287H120.927C120.749 58.9287 120.66 58.9287 120.595 58.9687C120.558 58.9911 120.527 59.0218 120.505 59.0583C120.465 59.1236 120.465 59.2124 120.465 59.3901V61.7244C120.465 61.9021 120.465 61.991 120.505 62.0562C120.527 62.0928 120.558 62.1235 120.595 62.1458C120.66 62.1858 120.749 62.1858 120.927 62.1858L124.103 62.1858L124.118 62.1858C125.046 62.1856 125.526 62.1803 125.918 62.053C126.745 61.7845 127.392 61.1366 127.661 60.3103C127.794 59.9014 127.794 59.3963 127.794 58.3859L127.794 53.3901C127.794 53.0843 127.794 52.7361 127.765 52.4335C127.732 52.084 127.647 51.6048 127.354 51.1256C127.107 50.7238 126.77 50.386 126.368 50.1399C125.889 49.8462 125.409 49.7616 125.06 49.7284C124.866 49.71 124.653 49.7034 124.445 49.7011V47.7027C124.445 46.8036 124.445 46.1461 124.395 45.6312C125.46 46.3791 126.592 47.0083 127.738 47.4509C127.95 47.533 128.057 47.5741 128.148 47.5449C128.197 47.5291 128.244 47.4969 128.276 47.4568C128.337 47.3822 128.337 47.2642 128.337 47.0282V44.4681C128.337 44.3315 128.337 44.2632 128.311 44.2088C128.296 44.1768 128.278 44.1513 128.253 44.127C128.209 44.0855 128.141 44.0623 128.004 44.0157C126.235 43.4132 124.364 42.0018 122.972 40.3359H127.288C127.465 40.3359 127.554 40.3359 127.619 40.2959C127.656 40.2735 127.687 40.2428 127.709 40.2063C127.749 40.141 127.749 40.0522 127.749 39.8745V37.5402C127.749 37.3625 127.749 37.2736 127.709 37.2083C127.687 37.1718 127.656 37.1411 127.619 37.1187C127.554 37.0787 127.465 37.0787 127.288 37.0787L117.059 37.0787C117.38 36.3231 117.667 35.5522 117.922 34.7716H126.775C126.953 34.7716 127.042 34.7716 127.107 34.7316C127.143 34.7092 127.174 34.6785 127.196 34.642C127.236 34.5767 127.236 34.4879 127.236 34.3102V31.9759C127.236 31.7982 127.236 31.7093 127.196 31.6441C127.174 31.6075 127.143 31.5768 127.107 31.5545C127.042 31.5145 126.953 31.5145 126.775 31.5145H124.84C124.895 31.3507 124.947 31.1982 124.991 31.0687L125.068 30.8415C125.379 29.9241 125.772 28.6813 126.168 27.2047C126.225 26.9905 126.254 26.8834 126.22 26.7996C126.202 26.7534 126.171 26.7125 126.131 26.6827C126.058 26.6287 125.947 26.6287 125.724 26.6287H123.234C123.096 26.6287 123.027 26.6287 122.971 26.656C122.939 26.6715 122.911 26.6927 122.888 26.719C122.846 26.7655 122.827 26.8323 122.789 26.9659C122.507 27.9502 122.238 28.7908 122.016 29.4461L121.92 29.7284L121.92 29.7289C121.748 30.2383 121.467 31.0675 121.312 31.5145H118.78C119.138 29.7562 119.332 27.9892 119.362 26.2749C119.365 26.1004 119.366 26.0131 119.327 25.9467C119.305 25.9099 119.273 25.8779 119.237 25.8553C119.171 25.8145 119.082 25.8145 118.905 25.8145H116.643ZM121.307 42.9461C120.512 42.0984 119.822 41.2108 119.276 40.3359H115.401C114.854 41.2437 114.25 42.1112 113.59 42.9256H119.668C120.333 42.9256 120.866 42.9256 121.307 42.9461Z" fill="#1F1F1F"/>
<path fill-rule="evenodd" clip-rule="evenodd" d="M102.279 49.9716V61.8122C102.279 61.9899 102.279 62.0787 102.319 62.144C102.342 62.1805 102.372 62.2112 102.409 62.2336C102.474 62.2736 102.563 62.2736 102.741 62.2736H105.347C105.524 62.2736 105.613 62.2736 105.678 62.2336C105.715 62.2112 105.746 62.1805 105.768 62.144C105.808 62.0787 105.808 61.9899 105.808 61.8122L105.808 30.1833C105.808 30.1351 105.808 30.0859 105.808 30.036V29.723C105.808 28.4791 105.808 27.8572 105.528 27.4003C105.371 27.1446 105.156 26.9297 104.901 26.773C104.444 26.493 103.822 26.493 102.578 26.493H98.4023C97.1584 26.493 96.5365 26.493 96.0796 26.773C95.8239 26.9297 95.609 27.1446 95.4523 27.4003C95.1735 27.8553 95.1723 28.4741 95.1723 29.7079C95.1689 29.8696 95.1689 30.0317 95.169 30.1833L95.169 50.295C95.169 54.5561 94.7856 57.6857 94.4124 59.7229C94.2258 60.7417 94.0416 61.4882 93.9088 61.9672C93.8664 62.1203 93.9805 62.2736 94.1394 62.2736H97.1213C97.2638 62.2736 97.335 62.2736 97.393 62.2441C97.4253 62.2277 97.4548 62.2043 97.4781 62.1765C97.5199 62.1266 97.5357 62.0581 97.5673 61.9212C97.6674 61.4873 97.7734 60.9829 97.8788 60.4075C98.2934 58.1443 98.6976 54.7855 98.6976 50.295V49.9716H102.279ZM98.6976 40.2002V46.7145H102.279V40.2002H98.6976ZM102.279 36.943H98.6976V30.601H98.7008V30.2965C98.7051 30.2327 98.7149 30.1882 98.7376 30.1512C98.76 30.1147 98.7907 30.084 98.8272 30.0616C98.8925 30.0216 98.9813 30.0216 99.159 30.0216H101.818C101.996 30.0216 102.084 30.0216 102.15 30.0616C102.186 30.084 102.217 30.1147 102.239 30.1512C102.279 30.2165 102.279 30.3054 102.279 30.4831V36.943Z" fill="#1F1F1F"/>
<path d="M122.998 57.1801C122.998 57.3578 122.998 57.4467 122.958 57.512C122.936 57.5485 122.905 57.5792 122.869 57.6016C122.803 57.6416 122.714 57.6416 122.537 57.6416L107.582 57.6416C107.404 57.6416 107.315 57.6416 107.25 57.6016C107.214 57.5792 107.183 57.5485 107.161 57.512C107.121 57.4467 107.121 57.3578 107.121 57.1801V54.8459C107.121 54.6682 107.121 54.5793 107.161 54.514C107.183 54.4775 107.214 54.4468 107.25 54.4244C107.315 54.3844 107.404 54.3844 107.582 54.3844L122.537 54.3844C122.714 54.3844 122.803 54.3844 122.869 54.4244C122.905 54.4468 122.936 54.4775 122.958 54.514C122.998 54.5793 122.998 54.6682 122.998 54.8459V57.1801Z" fill="#1F1F1F"/>
<path d="M133.316 30.1222C133.297 30.0738 133.297 30.0183 133.297 29.9073V26.5805C133.297 26.302 133.297 26.1627 133.364 26.0859C133.401 26.0436 133.451 26.0139 133.505 26.0009C133.605 25.9772 133.728 26.0424 133.974 26.1727L139.837 29.2763C139.935 29.3283 139.984 29.3542 140.018 29.3939C140.037 29.4164 140.052 29.4418 140.063 29.4692C140.082 29.5176 140.082 29.5731 140.082 29.6841V33.0109C140.082 33.2894 140.082 33.4287 140.015 33.5055C139.978 33.5478 139.928 33.5776 139.874 33.5906C139.774 33.6142 139.651 33.5491 139.405 33.4187L133.542 30.3151C133.444 30.2632 133.395 30.2372 133.361 30.1975C133.342 30.175 133.327 30.1496 133.316 30.1222Z" fill="#1F1F1F"/>
<path fill-rule="evenodd" clip-rule="evenodd" d="M149.572 62.4422C149.394 62.4422 149.305 62.4422 149.24 62.4022C149.203 62.3798 149.173 62.3491 149.15 62.3125C149.11 62.2473 149.11 62.1584 149.11 61.9807L149.11 44.4123H142.243C142.065 44.4123 141.977 44.4123 141.911 44.3723C141.875 44.3499 141.844 44.3192 141.822 44.2827C141.782 44.2174 141.782 44.1286 141.782 43.9509V41.6166C141.782 41.4389 141.782 41.35 141.822 41.2848C141.844 41.2482 141.875 41.2175 141.911 41.1952C141.977 41.1552 142.065 41.1552 142.243 41.1552H149.11L149.11 29.8707H143.303C143.125 29.8707 143.036 29.8707 142.971 29.8307C142.934 29.8084 142.904 29.7777 142.881 29.7411C142.841 29.6759 142.841 29.587 142.841 29.4093V26.8036C142.841 26.6259 142.841 26.537 142.881 26.4718C142.904 26.4352 142.934 26.4045 142.971 26.3822C143.036 26.3422 143.125 26.3422 143.303 26.3422L157.127 26.3422C157.94 26.3421 158.695 26.342 159.325 26.4019C160.01 26.467 160.767 26.6179 161.492 27.0621C162.149 27.465 162.702 28.0177 163.105 28.6751C163.549 29.4 163.7 30.1568 163.765 30.8416C163.825 31.4716 163.825 32.2273 163.825 33.0405L163.825 45.6746C163.825 52.3013 164.79 56.6579 165.7 59.2939C165.97 60.0754 166.235 60.7078 166.47 61.2053C166.596 61.4703 166.658 61.6028 166.633 61.6991C166.618 61.7539 166.589 61.7988 166.546 61.8355C166.47 61.9001 166.328 61.9001 166.044 61.9001H163.164C163.04 61.9001 162.978 61.9001 162.925 61.8764C162.896 61.8632 162.868 61.8442 162.845 61.8214C162.804 61.7807 162.782 61.7238 162.738 61.6101C162.628 61.3274 162.518 61.0277 162.409 60.7104C161.325 57.568 160.296 52.7266 160.296 45.6746V44.4123H152.639L152.639 61.9807C152.639 62.1584 152.639 62.2473 152.599 62.3125C152.576 62.3491 152.546 62.3798 152.509 62.4022C152.444 62.4422 152.355 62.4422 152.177 62.4422H149.572ZM160.296 41.1552V32.585C160.296 30.0327 160.134 29.8707 157.582 29.8707H152.639V41.1552H160.296Z" fill="#1F1F1F"/>
<path d="M135.985 39.6422C136.156 39.6423 136.241 39.6423 136.306 39.6823C136.342 39.7043 136.374 39.736 136.396 39.7719C136.436 39.8371 136.436 39.9226 136.436 40.0937L136.436 57.4483C136.436 59.3772 136.436 60.3416 136.92 60.9393C137.184 61.2648 137.554 61.5165 137.953 61.6428C138.687 61.8746 139.572 61.5265 141.341 60.8302C141.898 60.6114 142.495 60.3745 143.129 60.1203L144.66 59.5065C144.89 59.4143 145.005 59.3682 145.085 59.2862C145.13 59.2398 145.167 59.1858 145.193 59.1266C145.24 59.0217 145.24 58.8978 145.24 58.6499V56.475C145.24 56.2229 145.24 56.0968 145.18 56.0224C145.146 55.9808 145.103 55.9506 145.052 55.9342C144.961 55.9047 144.842 55.9499 144.604 56.0404C143.886 56.3136 143.058 56.6105 142.248 56.9009L142.247 56.9012C141.673 57.1071 141.107 57.3099 140.597 57.4986C140.362 57.5852 140.245 57.6286 140.155 57.5987C140.104 57.5821 140.061 57.5518 140.028 57.5104C139.969 57.4361 139.969 57.3141 139.968 57.07C139.968 54.5285 139.965 45.3368 139.965 40.7097L139.965 39.8023C139.965 38.3827 139.965 37.6729 139.645 37.1506C139.466 36.8585 139.22 36.6126 138.928 36.4336C138.406 36.1136 137.696 36.1136 136.275 36.1136L132.672 36.1136C132.495 36.1136 132.406 36.1136 132.341 36.1536C132.304 36.176 132.273 36.2067 132.251 36.2432C132.211 36.3085 132.211 36.3973 132.211 36.575V39.1807C132.211 39.3584 132.211 39.4473 132.251 39.5126C132.273 39.5491 132.304 39.5798 132.341 39.6022C132.406 39.6422 132.495 39.6422 132.672 39.6422L135.985 39.6422Z" fill="#1F1F1F"/>
<path d="M183.042 36.834C184.257 36.834 184.865 36.8338 185.33 37.0703C185.738 37.2785 186.071 37.611 186.279 38.0195C186.515 38.484 186.515 39.0925 186.515 40.3086V49.4551C186.516 52.2454 186.098 54.3386 185.21 56.0791C186.203 57.1354 188.23 58.3173 191.599 58.3174H204.277C204.428 58.3174 204.504 58.3174 204.562 58.3467C204.613 58.3727 204.655 58.4147 204.681 58.4658C204.711 58.5239 204.71 58.6 204.71 58.752V61.1406C204.71 61.2925 204.711 61.3687 204.681 61.4268C204.655 61.4778 204.613 61.5189 204.562 61.5449C204.504 61.5743 204.428 61.5752 204.277 61.5752H191.599C187.956 61.5751 185.142 60.4096 183.363 58.832C183.328 58.8012 183.295 58.7691 183.263 58.7373C182.21 59.8082 180.887 60.7938 179.273 61.8301C179.06 61.967 178.953 62.0356 178.863 62.0293C178.785 62.0237 178.711 61.9835 178.665 61.9209C178.611 61.8485 178.611 61.7211 178.611 61.4668V58.3496C178.611 58.1744 178.611 58.0864 178.634 58.0088C178.656 57.9387 178.689 57.8777 178.736 57.8213C178.788 57.7589 178.864 57.7085 179.016 57.6084C182.616 55.2432 183.258 53.1892 183.258 48.7266V40.5254C183.258 40.3735 183.259 40.2973 183.229 40.2393C183.203 40.1882 183.161 40.1461 183.11 40.1201C183.052 40.0907 182.975 40.0908 182.824 40.0908H181.192C181.04 40.0908 180.964 40.0911 180.906 40.0615C180.855 40.0355 180.814 39.9935 180.788 39.9424C180.758 39.8843 180.757 39.8081 180.757 39.6562V37.2686C180.757 37.1167 180.758 37.0405 180.788 36.9824C180.814 36.9313 180.855 36.8893 180.906 36.8633C180.964 36.8337 181.04 36.834 181.192 36.834H183.042ZM177.061 26.6289C178.473 26.6289 179.179 26.6291 179.681 26.917C180.122 27.1698 180.46 27.5697 180.636 28.0459C180.837 28.5887 180.721 29.2851 180.488 30.6777L178.912 40.0791C178.901 40.143 178.896 40.1754 178.898 40.2061C178.9 40.2339 178.905 40.2591 178.915 40.2852C178.925 40.3139 178.944 40.342 178.982 40.3984C181.223 43.7759 181.333 49.2734 178.643 54.0303C178.599 54.1073 178.577 54.1456 178.545 54.1748C178.518 54.2002 178.484 54.2206 178.448 54.2324C178.407 54.2459 178.361 54.2461 178.27 54.2461H175.133C175.008 54.2461 174.945 54.2456 174.91 54.2197C174.878 54.197 174.858 54.1634 174.854 54.125C174.849 54.0812 174.881 54.0257 174.945 53.915C177.924 48.7202 177.846 44.0623 175.905 41.7119L175.558 41.292C175.512 41.2359 175.488 41.2075 175.473 41.1758C175.46 41.1476 175.453 41.1169 175.45 41.0859C175.447 41.0511 175.452 41.0151 175.464 40.9434L177.233 30.3926C177.262 30.2185 177.277 30.1313 177.251 30.0635C177.229 30.0041 177.187 29.9545 177.132 29.9229C177.07 29.8868 176.981 29.8867 176.804 29.8867H174.237V61.0654C174.237 61.2173 174.237 61.2935 174.208 61.3516C174.182 61.4026 174.14 61.4447 174.089 61.4707C174.031 61.5003 173.955 61.5 173.803 61.5H171.415C171.263 61.5 171.186 61.5001 171.128 61.4707C171.077 61.4447 171.035 61.4026 171.009 61.3516C170.98 61.2935 170.98 61.2172 170.98 61.0654V27.0635C170.98 26.9115 170.98 26.8354 171.009 26.7773C171.035 26.7263 171.077 26.6852 171.128 26.6592C171.186 26.6296 171.263 26.6289 171.415 26.6289H177.061ZM195.646 25.7461C195.808 25.7461 195.889 25.7464 195.95 25.7793C196.002 25.8079 196.045 25.8543 196.069 25.9092C196.096 25.9723 196.089 26.0519 196.076 26.2109C195.995 27.1433 195.871 28.0583 195.694 28.9521H203.29C203.441 28.9521 203.518 28.9521 203.576 28.9814C203.627 29.0075 203.669 29.0495 203.695 29.1006C203.724 29.1586 203.724 29.2348 203.724 29.3867V31.7754C203.724 31.9273 203.724 32.0035 203.695 32.0615C203.669 32.1125 203.627 32.1537 203.576 32.1797C203.518 32.2092 203.441 32.21 203.29 32.21H194.76C194.477 32.9445 194.146 33.6597 193.759 34.3516C193.668 34.5144 193.574 34.6755 193.477 34.835H199.318C200.534 34.835 201.142 34.8357 201.606 35.0723C202.014 35.2804 202.347 35.6121 202.555 36.0205C202.792 36.485 202.792 37.0935 202.792 38.3096V53.1689C202.792 54.5785 202.792 55.2835 202.504 55.7852C202.252 56.2254 201.853 56.5633 201.377 56.7402C200.835 56.9418 200.14 56.8267 198.749 56.5957L198.25 56.5127C198.122 56.4913 198.057 56.4813 198.008 56.4492C197.966 56.4209 197.932 56.3807 197.911 56.334C197.887 56.281 197.887 56.2156 197.887 56.085V54.1299C197.887 53.9495 197.887 53.8593 197.924 53.7959C197.957 53.7402 198.008 53.6971 198.069 53.6758C198.138 53.6516 198.227 53.6694 198.405 53.7041L199.463 53.9111C199.534 53.925 199.57 53.9316 199.598 53.9219C199.622 53.9133 199.643 53.897 199.656 53.875C199.671 53.8496 199.67 53.8126 199.67 53.7402V50.6338H192.555V56.3975C192.555 56.5493 192.554 56.6256 192.525 56.6836C192.499 56.7344 192.458 56.7758 192.407 56.8018C192.349 56.8313 192.272 56.832 192.121 56.832H189.868C189.716 56.832 189.64 56.8313 189.582 56.8018C189.53 56.7757 189.488 56.7347 189.462 56.6836C189.433 56.6256 189.433 56.5493 189.433 56.3975V39.3018C188.982 39.6475 188.507 39.9808 188.003 40.2988C187.878 40.3781 187.815 40.4171 187.761 40.4131C187.715 40.4095 187.671 40.3858 187.643 40.3486C187.611 40.3054 187.611 40.23 187.611 40.0801V36.6904C187.611 36.6017 187.61 36.5568 187.623 36.5176C187.634 36.4821 187.65 36.4512 187.674 36.4229C187.701 36.3915 187.74 36.3672 187.818 36.3174C189.421 35.2892 190.399 34.0679 191.196 32.6436C191.276 32.5009 191.352 32.356 191.426 32.21H188.034C187.882 32.21 187.806 32.2093 187.748 32.1797C187.697 32.1537 187.655 32.1124 187.629 32.0615C187.6 32.0035 187.599 31.9273 187.599 31.7754V29.3867C187.599 29.2347 187.6 29.1586 187.629 29.1006C187.655 29.0495 187.697 29.0075 187.748 28.9814C187.806 28.9519 187.882 28.9521 188.034 28.9521H192.606C192.818 28.0643 192.969 27.1293 193.064 26.1455C193.078 26.0023 193.084 25.9303 193.116 25.8779C193.144 25.8314 193.184 25.7957 193.233 25.7725C193.288 25.7464 193.358 25.7461 193.5 25.7461H195.646ZM192.555 47.376H199.67V44.1348H192.555V47.376ZM192.989 37.957C192.837 37.957 192.761 37.9568 192.703 37.9863C192.652 38.0123 192.61 38.0537 192.584 38.1045C192.555 38.1625 192.555 38.2388 192.555 38.3906V40.877H199.67V38.3906C199.67 38.2388 199.671 38.1625 199.641 38.1045C199.615 38.0535 199.573 38.0123 199.522 37.9863C199.464 37.9568 199.388 37.957 199.236 37.957H192.989ZM184.805 27.2402C184.927 27.2402 184.988 27.2404 185.039 27.2617C185.083 27.2806 185.122 27.3118 185.151 27.3506C185.183 27.3946 185.198 27.4536 185.227 27.5713L186.987 34.7783C187.032 34.9614 187.054 35.0529 187.032 35.125C187.012 35.1882 186.969 35.2421 186.913 35.2764C186.848 35.3152 186.753 35.3154 186.565 35.3154H184.174C184.053 35.3154 183.991 35.3152 183.941 35.2939C183.896 35.2752 183.857 35.2448 183.829 35.2061C183.796 35.162 183.781 35.1025 183.752 34.9844L181.992 27.7783C181.947 27.595 181.924 27.5028 181.947 27.4307C181.967 27.3675 182.009 27.3135 182.066 27.2793C182.131 27.2403 182.225 27.2402 182.414 27.2402H184.805Z" fill="#1F1F1F"/>
<path d="M223.284 26.0332C223.397 26.0334 223.475 26.1458 223.436 26.252L222.407 29.0547H233.935C235.455 29.0547 236.215 29.055 236.795 29.3506C237.306 29.6108 237.722 30.0264 237.982 30.5371C238.278 31.1177 238.278 31.8776 238.278 33.3975V46.0371C239.224 45.3669 240.089 44.7092 240.864 44.0732C241.042 43.9266 241.311 44.0549 241.311 44.2861V47.7666C241.311 47.9333 241.237 48.0892 241.105 48.1914C240.231 48.87 239.288 49.5556 238.278 50.2402V56.4004C238.278 58.5555 238.278 59.6333 237.836 60.3926C237.449 61.0587 236.837 61.5662 236.111 61.8242C235.283 62.1181 234.224 61.9198 232.106 61.5225L229.43 61.0205C229.305 60.997 229.242 60.9852 229.195 60.9531C229.153 60.9246 229.12 60.8849 229.099 60.8389C229.076 60.7865 229.077 60.722 229.077 60.5938V57.7764C229.077 57.5963 229.077 57.5057 229.114 57.4424C229.146 57.387 229.197 57.3446 229.257 57.3232C229.326 57.2988 229.415 57.3159 229.592 57.3496L234.261 58.2383C234.438 58.2719 234.526 58.289 234.595 58.2646C234.656 58.2432 234.707 58.2011 234.74 58.1455C234.777 58.0822 234.777 57.9922 234.777 57.8125V52.4443C228.075 56.372 219.252 59.9708 209.014 61.6406C208.85 61.6675 208.699 61.5408 208.699 61.374V58.3467C208.699 58.214 208.795 58.1004 208.926 58.0781C215.983 56.8744 222.576 54.5564 228.164 51.8965H208.97C208.82 51.8965 208.699 51.7749 208.699 51.625V48.6396C208.699 48.4897 208.82 48.3682 208.97 48.3682H212.326V33.3975C212.326 31.8776 212.326 31.1177 212.622 30.5371C212.882 30.0265 213.296 29.6108 213.807 29.3506C214.388 29.0547 215.148 29.0547 216.668 29.0547H218.248L219.292 26.2109C219.331 26.1041 219.433 26.0332 219.546 26.0332H223.284ZM215.777 45.4648V48.3682H234.716C234.737 48.3559 234.757 48.3434 234.777 48.3311V45.4648H215.777ZM215.777 39.0352V41.9355H234.777V39.0352H215.777ZM216.21 32.7197C216.059 32.7197 215.982 32.7195 215.924 32.749C215.873 32.775 215.832 32.8163 215.806 32.8672C215.777 32.9252 215.777 33.0015 215.777 33.1533V35.5059H234.777V33.1533C234.777 33.0015 234.776 32.9252 234.747 32.8672C234.721 32.8163 234.679 32.775 234.628 32.749C234.57 32.7194 234.494 32.7197 234.342 32.7197H216.21Z" fill="#1F1F1F"/>
<path d="M248.237 27.7119C248.497 27.7119 248.627 27.7117 248.732 27.7588C248.826 27.8003 248.905 27.8676 248.962 27.9521C249.026 28.048 249.048 28.176 249.093 28.4316L253.576 54.2207C253.615 54.4438 253.635 54.5552 253.674 54.5811C253.707 54.6032 253.75 54.6058 253.785 54.5869C253.826 54.5648 253.856 54.4548 253.915 54.2363L260.159 31.2627C260.346 30.5746 260.44 30.2303 260.637 29.9746C260.811 29.7489 261.041 29.5727 261.305 29.4639C261.603 29.3406 261.96 29.3408 262.674 29.3408H263.001C263.714 29.3408 264.071 29.3407 264.369 29.4639C264.633 29.5727 264.863 29.749 265.037 29.9746C265.234 30.2304 265.329 30.5745 265.516 31.2627L271.759 54.2363C271.818 54.4546 271.848 54.5647 271.889 54.5869C271.924 54.6059 271.968 54.6033 272.001 54.5811C272.04 54.5548 272.059 54.4432 272.098 54.2207L276.581 28.4316C276.626 28.1759 276.648 28.0481 276.713 27.9521C276.77 27.8676 276.849 27.8003 276.942 27.7588C277.048 27.7119 277.178 27.7119 277.438 27.7119H280.62C280.981 27.7119 281.162 27.7121 281.289 27.7861C281.4 27.8512 281.485 27.9544 281.527 28.0762C281.576 28.215 281.541 28.3922 281.472 28.7471L275.807 57.75C275.611 58.7497 275.514 59.2499 275.255 59.624C275.026 59.9538 274.71 60.2137 274.343 60.375C273.926 60.5579 273.416 60.5576 272.397 60.5576H271.969C271.02 60.5576 270.545 60.5573 270.147 60.3936C269.797 60.2489 269.489 60.015 269.257 59.7148C268.994 59.3748 268.868 58.917 268.617 58.002L266.078 48.7354L264.457 42.8252L263.007 36.3408C262.958 36.1213 262.933 36.0112 262.893 35.9873C262.858 35.967 262.815 35.9669 262.781 35.9873C262.741 36.0112 262.717 36.1214 262.668 36.3408L261.217 42.8252L259.597 48.7354L257.057 58.002C256.806 58.9172 256.68 59.3748 256.417 59.7148C256.185 60.0149 255.878 60.2489 255.527 60.3936C255.13 60.5574 254.655 60.5576 253.706 60.5576H253.277C252.259 60.5576 251.749 60.5578 251.332 60.375C250.965 60.2138 250.649 59.9538 250.42 59.624C250.161 59.2499 250.062 58.7497 249.867 57.75L244.202 28.7471C244.133 28.3924 244.098 28.2149 244.147 28.0762C244.189 27.9544 244.273 27.8513 244.385 27.7861C244.512 27.7119 244.693 27.7119 245.055 27.7119H248.237ZM290.034 36.1289C290.338 36.1289 290.49 36.1294 290.606 36.1885C290.709 36.2405 290.792 36.3237 290.844 36.4258C290.903 36.5419 290.903 36.6942 290.903 36.998V59.6895C290.903 59.9931 290.903 60.1457 290.844 60.2617C290.792 60.3636 290.708 60.4461 290.606 60.498C290.49 60.5572 290.338 60.5576 290.034 60.5576H286.886C286.582 60.5576 286.43 60.5571 286.314 60.498C286.212 60.446 286.128 60.3636 286.076 60.2617C286.017 60.1456 286.018 59.9932 286.018 59.6895V36.998C286.018 36.6944 286.017 36.5419 286.076 36.4258C286.128 36.3238 286.212 36.2405 286.314 36.1885C286.43 36.1294 286.582 36.1289 286.886 36.1289H290.034ZM314.734 27.7148C315.038 27.7148 315.191 27.7153 315.307 27.7744C315.409 27.8264 315.492 27.9088 315.544 28.0107C315.603 28.1268 315.603 28.2792 315.603 28.583V31.1895C315.603 31.4932 315.603 31.6456 315.544 31.7617C315.492 31.8636 315.409 31.946 315.307 31.998C315.191 32.0572 315.038 32.0576 314.734 32.0576H300.565C300.414 32.0576 300.337 32.0574 300.279 32.0869C300.228 32.1129 300.187 32.155 300.161 32.2061C300.132 32.2641 300.132 32.3403 300.132 32.4922V41.5908H313.809C314.113 41.5908 314.265 41.5913 314.381 41.6504C314.483 41.7024 314.566 41.7856 314.618 41.8877C314.677 42.0038 314.678 42.156 314.678 42.46V45.0654C314.678 45.3694 314.677 45.5216 314.618 45.6377C314.566 45.7397 314.483 45.823 314.381 45.875C314.265 45.934 314.112 45.9336 313.809 45.9336H300.132V59.6895C300.132 59.9932 300.131 60.1456 300.072 60.2617C300.02 60.3637 299.937 60.4461 299.835 60.498C299.719 60.5572 299.567 60.5576 299.263 60.5576H296.657C296.353 60.5576 296.201 60.5572 296.085 60.498C295.983 60.4461 295.9 60.3636 295.848 60.2617C295.789 60.1456 295.789 59.9932 295.789 59.6895V32.9258C295.789 31.1019 295.789 30.1898 296.144 29.4932C296.456 28.8803 296.955 28.3816 297.567 28.0693C298.264 27.7146 299.176 27.7148 301 27.7148H314.734ZM323.202 36.1289C323.506 36.1289 323.658 36.1295 323.774 36.1885C323.877 36.2405 323.96 36.3237 324.012 36.4258C324.071 36.5419 324.071 36.6941 324.071 36.998V59.6895C324.071 59.9932 324.071 60.1456 324.012 60.2617C323.96 60.3636 323.876 60.4461 323.774 60.498C323.658 60.5571 323.506 60.5576 323.202 60.5576H320.054C319.75 60.5576 319.598 60.5572 319.481 60.498C319.38 60.446 319.296 60.3636 319.244 60.2617C319.185 60.1457 319.186 59.9931 319.186 59.6895V36.998C319.186 36.6945 319.185 36.5418 319.244 36.4258C319.296 36.3238 319.38 36.2405 319.481 36.1885C319.598 36.1293 319.75 36.1289 320.054 36.1289H323.202ZM288.46 27.4434C290.109 27.4435 291.446 28.78 291.446 30.4287C291.446 32.0776 290.109 33.4149 288.46 33.415C286.811 33.4148 285.475 32.0776 285.475 30.4287C285.475 28.78 286.811 27.4436 288.46 27.4434ZM321.628 27.4434C323.277 27.4434 324.614 28.7799 324.614 30.4287C324.614 32.0777 323.277 33.415 321.628 33.415C319.979 33.4147 318.643 32.0775 318.643 30.4287C318.643 28.7801 319.979 27.4437 321.628 27.4434Z" fill="#1F1F1F"/>
</svg>
