<svg width="88" height="88" viewBox="0 0 88 88" fill="none" xmlns="http://www.w3.org/2000/svg">
<path fill-rule="evenodd" clip-rule="evenodd" d="M44 17C29.0883 17 17 29.0883 17 44C17 58.9117 29.0883 71 44 71C46.9988 71 49.8834 70.5111 52.5785 69.6087C51.018 68.8151 49.5924 67.7944 48.3452 66.5901C46.9381 66.8592 45.4855 67 44 67C43.3464 67 42.5214 66.6771 41.5607 65.6612C40.5959 64.641 39.6349 63.0575 38.7859 60.9349C37.2623 57.126 36.2255 51.8991 36.0326 46H44.9315C45.6862 44.5341 46.642 43.1887 47.7622 42H36.0326C36.2255 36.1009 37.2623 30.874 38.7859 27.0651C39.6349 24.9425 40.5959 23.359 41.5607 22.3388C42.5214 21.3229 43.3464 21 44 21C44.6536 21 45.4786 21.3229 46.4393 22.3388C47.4041 23.359 48.3651 24.9425 49.2141 27.0651C50.4581 30.175 51.3776 34.2303 51.7782 38.8249C52.9813 38.1319 54.2746 37.5779 55.6362 37.1848C55.1553 32.7796 54.216 28.7994 52.928 25.5795C52.435 24.347 51.8805 23.1998 51.2645 22.1708C58.3418 24.5249 63.8912 30.2245 66.0373 37.3941C67.7071 37.9507 69.2649 38.752 70.6683 39.7556C68.6322 26.8604 57.4676 17 44 17ZM36.7355 22.1708C28.199 25.0103 21.8854 32.7171 21.0858 42H32.0306C32.2243 35.6878 33.3288 29.9374 35.072 25.5795C35.565 24.347 36.1195 23.1998 36.7355 22.1708ZM32.0306 46H21.0858C21.8854 55.2829 28.199 62.9897 36.7355 65.8292C36.1195 64.8002 35.565 63.653 35.072 62.4205C33.3288 58.0626 32.2243 52.3122 32.0306 46Z" fill="#0CBD6A"/>
<path fill-rule="evenodd" clip-rule="evenodd" d="M60.5 68.5C68.5081 68.5 75 62.0081 75 54C75 45.9919 68.5081 39.5 60.5 39.5C52.4919 39.5 46 45.9919 46 54C46 62.0081 52.4919 68.5 60.5 68.5ZM59 48C59 47.3934 58.6345 46.8464 58.074 46.6142C57.5135 46.3821 56.8683 46.5104 56.4393 46.9394L51.9393 51.4394C51.3536 52.0252 51.3536 52.9749 51.9393 53.5607C52.5251 54.1465 53.4749 54.1465 54.0607 53.5607L56 51.6214V60C56 60.8285 56.6716 61.5 57.5 61.5C58.3284 61.5 59 60.8285 59 60V48ZM62.926 61.3858C62.3655 61.1536 62 60.6067 62 60V48C62 47.1715 62.6716 46.5 63.5 46.5C64.3284 46.5 65 47.1715 65 48V56.3786L66.9393 54.4393C67.5251 53.8535 68.4749 53.8535 69.0607 54.4393C69.6464 55.0251 69.6464 55.9748 69.0607 56.5606L64.5607 61.0606C64.1317 61.4896 63.4865 61.6179 62.926 61.3858Z" fill="#0CBD6A"/>
</svg>
