<svg width="88" height="88" viewBox="0 0 88 88" fill="none" xmlns="http://www.w3.org/2000/svg">
<path d="M52.75 16C51.3693 16 50.25 17.1193 50.25 18.5C50.25 19.8807 51.3693 21 52.75 21C63.3815 21 72 29.6185 72 40.25C72 41.6307 73.1193 42.75 74.5 42.75C75.8807 42.75 77 41.6307 77 40.25C77 26.8571 66.1429 16 52.75 16Z" fill="#0CBD6A"/>
<path d="M37.1912 26H44.25C45.6307 26 46.75 27.1193 46.75 28.5C46.75 29.8807 45.6307 31 44.25 31H37.3C33.9684 31 31.6201 31.0019 29.7862 31.1518C27.9815 31.2992 26.8962 31.5774 26.0506 32.0082C24.3101 32.895 22.895 34.3101 22.0082 36.0506C21.5774 36.8962 21.2992 37.9815 21.1518 39.7862C21.0019 41.6201 21 43.9684 21 47.3V48.2C21 51.5316 21.0019 53.8799 21.1518 55.7138C21.2992 57.5185 21.5774 58.6039 22.0082 59.4494C22.895 61.1899 24.3101 62.605 26.0506 63.4918C26.8962 63.9226 27.9815 64.2008 29.7862 64.3482C31.6201 64.4981 33.9684 64.5 37.3 64.5H46.25C49.3191 64.5 51.4823 64.4983 53.1762 64.3706C54.8441 64.2448 55.8534 64.0073 56.6436 63.6406C58.627 62.7202 60.2202 61.127 61.1406 59.1436C61.5073 58.3534 61.7448 57.3441 61.8706 55.6762C61.9983 53.9823 62 51.8191 62 48.75C62 47.3693 63.1193 46.25 64.5 46.25C65.8807 46.25 67 47.3693 67 48.75V48.8501C67 51.7964 67 54.1482 66.8565 56.0522C66.7093 58.0035 66.401 59.6861 65.676 61.2483C64.2582 64.3038 61.8038 66.7582 58.7483 68.176C57.1861 68.901 55.5035 69.2093 53.5522 69.3565C51.6482 69.5 49.2964 69.5 46.3501 69.5H37.1912C33.9931 69.5 31.4405 69.5 29.379 69.3316C27.2651 69.1589 25.4485 68.7967 23.7806 67.9468C21.0993 66.5806 18.9194 64.4007 17.5532 61.7194C16.7033 60.0515 16.3411 58.2349 16.1684 56.121C16 54.0595 16 51.5069 16 48.3088V47.1912C16 43.9931 16 41.4405 16.1684 39.379C16.3411 37.2651 16.7033 35.4485 17.5532 33.7806C18.9194 31.0993 21.0993 28.9194 23.7806 27.5532C25.4485 26.7033 27.2651 26.3411 29.379 26.1684C31.4405 26 33.9931 26 37.1912 26Z" fill="#0CBD6A"/>
<path d="M50.25 28.5C50.25 27.1193 51.3693 26 52.75 26C60.6201 26 67 32.3799 67 40.25C67 41.6307 65.8807 42.75 64.5 42.75C63.1193 42.75 62 41.6307 62 40.25C62 35.1414 57.8586 31 52.75 31C51.3693 31 50.25 29.8807 50.25 28.5Z" fill="#0CBD6A"/>
<path d="M57 39.75C57 41.8211 55.3211 43.5 53.25 43.5C51.1789 43.5 49.5 41.8211 49.5 39.75C49.5 37.6789 51.1789 36 53.25 36C55.3211 36 57 37.6789 57 39.75Z" fill="#0CBD6A"/>
</svg>
