<svg width="88" height="88" viewBox="0 0 88 88" fill="none" xmlns="http://www.w3.org/2000/svg">
<path d="M44 22C31.8497 22 22 31.8497 22 44C22 56.1503 31.8497 66 44 66C56.1503 66 66 56.1503 66 44C66 41.8278 65.6859 39.7333 65.1024 37.7572C64.7113 36.4331 65.4678 35.0426 66.7919 34.6515C68.1161 34.2605 69.5066 35.0169 69.8976 36.3411C70.6156 38.7721 71 41.3433 71 44C71 58.9117 58.9117 71 44 71C29.0883 71 17 58.9117 17 44C17 29.0883 29.0883 17 44 17C46.6764 17 49.2662 17.3902 51.7131 18.1184C53.0365 18.5123 53.79 19.9044 53.3961 21.2277C53.0023 22.551 51.6102 23.3046 50.2869 22.9107C48.2979 22.3188 46.1884 22 44 22Z" fill="#0CBD6A"/>
<path fill-rule="evenodd" clip-rule="evenodd" d="M35.5 44C35.5 39.3056 39.3056 35.5 44 35.5C44.585 35.5 45.1562 35.5591 45.7079 35.6716L62.8704 22.3231C64.7286 20.8778 67.1222 23.2715 65.6769 25.1297L52.3284 42.2921C52.4409 42.8439 52.5 43.415 52.5 44C52.5 48.6944 48.6944 52.5 44 52.5C39.3056 52.5 35.5 48.6944 35.5 44ZM44 40.5C42.067 40.5 40.5 42.067 40.5 44C40.5 45.933 42.067 47.5 44 47.5C45.933 47.5 47.5 45.933 47.5 44C47.5 42.067 45.933 40.5 44 40.5Z" fill="#0CBD6A"/>
</svg>
