<svg width="88" height="88" viewBox="0 0 88 88" fill="none" xmlns="http://www.w3.org/2000/svg">
<path fill-rule="evenodd" clip-rule="evenodd" d="M56.9668 37.3177C54.1382 28.4346 45.8205 22 36 22C23.8497 22 14 31.8497 14 44C14 56.1503 23.8497 66 36 66H60C68.0081 66 74.5 59.5081 74.5 51.5C74.5 43.4919 68.0081 37 60 37C58.9597 37 57.945 37.1095 56.9668 37.3177ZM19 44C19 53.3888 26.6112 61 36 61C41.2467 61 45.5 56.7467 45.5 51.5C45.5 46.3151 48.2214 41.7658 52.3137 39.2026C50.243 32.1497 43.7229 27 36 27C26.6112 27 19 34.6112 19 44ZM50.5 51.5C50.5 55.1338 49.1633 58.4555 46.9547 61H60C65.2467 61 69.5 56.7467 69.5 51.5C69.5 46.2533 65.2467 42 60 42C54.7533 42 50.5 46.2533 50.5 51.5Z" fill="#0CBD6A"/>
</svg>
