<svg width="88" height="88" viewBox="0 0 88 88" fill="none" xmlns="http://www.w3.org/2000/svg">
<path d="M48.0146 49.7483L48.5849 49.7175L53.4688 49.4384C54.0272 49.4068 54.3064 49.391 54.5098 49.269C54.6886 49.1619 54.8276 48.9995 54.906 48.8065C54.9951 48.5869 54.9675 48.309 54.9122 47.7533L54.8879 47.5087C54.8373 46.9992 54.812 46.7445 54.6949 46.5554C54.5919 46.389 54.4403 46.2581 54.2607 46.1801C54.0565 46.0914 53.8005 46.1029 53.2883 46.126L49.9432 46.2763L47.6932 46.3739L47.3821 43.1073L52.7916 42.9299C53.3624 42.9112 53.6478 42.9019 53.8563 42.7816C54.0395 42.6759 54.1828 42.5128 54.2637 42.3175C54.3558 42.0953 54.3278 41.8115 54.2717 41.2439L54.2148 40.6682C54.1656 40.1699 54.141 39.9208 54.0274 39.734C53.9273 39.5696 53.78 39.439 53.6047 39.3591C53.4056 39.2684 53.155 39.2734 52.6538 39.2833L48.8908 39.3579L51.8739 32.4232C52.102 31.8928 52.2161 31.6276 52.1762 31.4127C52.1412 31.2248 52.0329 31.0586 51.8752 30.9505C51.6947 30.8268 51.4057 30.8234 50.8277 30.8166L49.575 30.8017C49.0859 30.796 48.8414 30.7931 48.6313 30.8714C48.4457 30.9405 48.2801 31.0544 48.1493 31.203C48.0012 31.3711 47.9167 31.6003 47.7479 32.0587L45.1787 39.0394L40.2391 31.5347C40.0339 31.2232 39.9313 31.0674 39.7953 30.9539C39.6749 30.8534 39.5359 30.7775 39.3863 30.7304C39.2173 30.6771 39.0306 30.6748 38.6573 30.67L37.0832 30.6501C36.4779 30.6425 36.1752 30.6387 36.0114 30.7619C35.8687 30.8692 35.7812 31.0344 35.7727 31.2126C35.7629 31.4172 35.9364 31.6649 36.2833 32.1603L41.4252 39.5017L36.8071 39.5887C36.2336 39.5995 35.9469 39.6049 35.7362 39.723C35.5511 39.8267 35.4056 39.9886 35.3223 40.1836C35.2276 40.4055 35.2531 40.6908 35.3042 41.2613L35.375 42.0511C35.4206 42.5601 35.4434 42.8146 35.5583 43.0046C35.6595 43.1718 35.8094 43.3042 35.988 43.3841C36.1908 43.4748 36.4465 43.4664 36.9579 43.4494L43.556 43.2305L43.5716 43.4052L43.8204 46.5485L42.3895 46.6101L37.4175 46.8314C36.8575 46.8563 36.5774 46.8687 36.3723 46.9886C36.192 47.0939 36.0509 47.255 35.9705 47.4475C35.879 47.6666 35.904 47.9454 35.9541 48.503L35.9938 48.9453C36.0404 49.4653 36.0638 49.7253 36.182 49.9175C36.286 50.0866 36.4399 50.2193 36.6226 50.2975C36.8302 50.3862 37.0912 50.3714 37.6131 50.3417L44.09 49.9743L44.1263 50.4365L44.5328 55.546C44.5756 56.0837 44.597 56.3526 44.7182 56.5493C44.8249 56.7224 44.9837 56.8572 45.172 56.9343C45.386 57.022 45.6551 56.9997 46.1933 56.9551L47.1278 56.8775C47.6699 56.8325 47.9409 56.81 48.1382 56.6871C48.3118 56.5791 48.4463 56.4186 48.5222 56.2289C48.6085 56.0133 48.5829 55.7429 48.5316 55.202L48.0146 49.7483Z" fill="#3089F0"/>
<path fill-rule="evenodd" clip-rule="evenodd" d="M63.6709 63.2369C63.6761 63.3446 63.6814 63.4523 63.6919 63.5548H63.6906C63.7471 64.7499 63.6958 65.6377 63.4592 66.4166C63.4373 66.4926 63.4103 66.5696 63.3836 66.6459C63.3799 66.6566 63.3762 66.6673 63.3724 66.6779C63.0491 67.5447 62.5456 68.3341 61.904 68.9908C61.7647 69.1392 61.6161 69.2823 61.4571 69.4058C61.2783 69.5699 61.0877 69.7184 60.8879 69.8523C60.2161 70.3133 59.405 70.6049 58.281 70.8465C57.2498 71.0651 55.9555 71.2475 54.2652 71.4858L54.2163 71.4927L41.0453 73.338C40.8623 73.3635 40.683 73.3885 40.5072 73.4131C39.3424 73.5758 38.3348 73.7166 37.4473 73.8147C36.2917 73.9487 35.3479 74.0209 34.5315 73.9947C33.8492 73.9789 33.259 73.8975 32.7147 73.7333C32.6293 73.7081 32.5438 73.6784 32.4584 73.6487C32.4413 73.6427 32.4242 73.6368 32.4071 73.6309C32.3598 73.6151 32.319 73.6007 32.273 73.5796C30.7376 72.9847 29.4348 71.9077 28.5514 70.5077C28.0742 69.7591 27.7863 68.8725 27.5865 67.6879C27.3483 66.3438 27.2261 64.6143 27.0611 62.2784L27.0422 62.0116L26.0471 47.8076L25.775 43.8648H25.7697L24.5478 26.361C24.3488 23.4863 24.2134 21.5314 24.3644 20.0562C24.4459 19.2564 24.6102 18.5892 24.8929 17.9995C24.9599 17.8564 25.0322 17.7171 25.1137 17.5792C25.2675 17.3021 25.4411 17.0303 25.6264 16.7794C25.842 16.4918 26.0734 16.2252 26.3245 15.9796C26.6689 15.6355 27.0541 15.3281 27.4642 15.0615C27.7311 14.8882 28.0071 14.7332 28.3003 14.5953C28.6342 14.4364 28.9931 14.3129 29.3835 14.2262C30.1171 14.0516 30.9795 13.9951 32.0522 14.0003L32.1139 14.0056C33.3615 14.0161 34.8904 14.1238 36.8307 14.2617L49.0933 15.1193C50.6748 15.227 51.8855 15.3137 52.8714 15.4477C52.9227 15.4529 52.974 15.4582 53.0253 15.4687H53.0463C53.3657 15.5146 53.6576 15.5659 53.9297 15.6223C54.5659 15.7602 55.0944 15.9402 55.5769 16.1963C55.7412 16.2843 55.9003 16.3762 56.0541 16.4786C56.6798 16.8687 57.2346 17.356 57.7013 17.9194C57.8761 18.119 58.0299 18.3239 58.1732 18.5446C58.26 18.6733 58.3467 18.8072 58.4243 18.9451C58.5216 19.1093 58.6083 19.2827 58.6859 19.4626C58.958 20.0786 59.1381 20.7957 59.2867 21.719C59.3061 21.8138 59.32 21.9132 59.3345 22.0172L59.3379 22.042L59.3432 22.088C59.4773 22.9811 59.5904 24.0528 59.7284 25.3806L63.35 59.8428C63.4869 61.1489 63.5989 62.2181 63.6603 63.12L63.6709 63.2067V63.2369ZM60.4737 59.7302C60.4488 59.1038 60.3712 58.3355 60.2687 57.3609V57.3623L60.2582 57.2756L59.5088 49.9431L59.1394 46.2762L57.167 26.9849C57.0778 26.1186 57.0082 25.4437 56.9165 24.8973C56.8034 24.2511 56.6654 23.7849 56.4287 23.3843L56.4162 23.3634C56.3587 23.268 56.3016 23.1732 56.2342 23.0875C55.8543 22.5437 55.3455 22.1025 54.7605 21.8004C54.4213 21.627 54.0467 21.5193 53.5695 21.4471H53.5642C53.5465 21.4445 53.5284 21.4418 53.5103 21.4392C53.4923 21.4366 53.4742 21.434 53.4564 21.4313C53.02 21.3696 52.502 21.3328 51.8553 21.2974C51.5865 21.2818 51.2933 21.2675 50.9746 21.252L47.0977 21.0662L45.7424 21.0045L41.796 20.8154L39.1523 20.6919L35.3827 20.5114C34.6336 20.4762 33.996 20.4462 33.4391 20.4305C33.1669 20.4253 32.9211 20.4253 32.6845 20.4305C32.5819 20.4253 32.4794 20.4305 32.3821 20.4358H32.3664C31.6065 20.4608 31.0412 20.5684 30.564 20.8049C30.0303 21.0715 29.5636 21.451 29.1942 21.912C28.9839 22.1734 28.8038 22.461 28.6605 22.7736C28.2188 23.7428 28.3213 25.0299 28.5369 27.6041L31.1806 59.8524L31.2266 60.3856L31.2274 60.3955C31.4227 62.7477 31.5205 63.925 32.0535 64.7696C32.5267 65.5182 33.2287 66.0974 34.0556 66.41C34.4211 66.5532 34.8207 66.6149 35.3137 66.6254C35.7343 66.6398 36.2168 66.6096 36.8018 66.5584C36.9905 66.5385 37.1907 66.5181 37.4037 66.4963C37.5142 66.485 37.6281 66.4733 37.7457 66.4612L37.7483 66.4609C37.9934 66.4308 38.2489 66.3994 38.5252 66.3693L45.3151 65.5944V65.5891L54.4779 64.5437C54.539 64.5367 54.5993 64.5298 54.6588 64.5229C55.989 64.3702 56.9176 64.2635 57.6198 64.0775V64.0722C57.8814 64.0065 58.1127 63.9238 58.3178 63.8266C58.4506 63.7649 58.5689 63.6992 58.6872 63.6217C59.4063 63.1502 59.9558 62.4633 60.2634 61.6635L60.2937 61.5716C60.4685 61.0738 60.5092 60.5091 60.4737 59.7302ZM46.4825 17.2259C46.3852 17.1695 46.2774 17.1393 46.1591 17.1288V17.1301L45.369 17.0841L41.4831 16.8438L39.7846 16.7413C39.6716 16.7361 39.5585 16.7518 39.4612 16.7925C39.1392 16.9107 38.9183 17.2286 38.9485 17.5976C38.9788 17.9916 39.2969 18.3042 39.6926 18.3252L45.5176 18.6536L46.0671 18.6838C46.4575 18.7035 46.7849 18.4369 46.8677 18.0836C46.8887 18.0061 46.894 17.9286 46.8887 17.8472C46.8835 17.7644 46.8624 17.683 46.8269 17.6108C46.7651 17.4466 46.6416 17.3126 46.4878 17.2259H46.4825Z" fill="#3089F0"/>
</svg>
